<svg xmlns="http://www.w3.org/2000/svg" xmlns:xlink="http://www.w3.org/1999/xlink" version="1.0" width="96" height="96"><defs><linearGradient id="k"><stop offset="0"/><stop offset="1" stop-opacity="0"/></linearGradient><linearGradient id="j"><stop offset="0" stop-color="#323232"/><stop offset="1" stop-color="#141414"/></linearGradient><linearGradient id="i"><stop offset="0" stop-color="#2f2f2f"/><stop offset=".437" stop-color="#fff"/><stop offset=".621" stop-color="#979797"/><stop offset=".772" stop-color="#505050"/><stop offset="1" stop-color="#e6e6e6"/></linearGradient><linearGradient id="h"><stop offset="0" stop-color="#ededed"/><stop offset="1" stop-color="#b0b0b0"/></linearGradient><linearGradient id="g"><stop offset="0" stop-color="#a2a2a2"/><stop offset="1" stop-color="#fff"/></linearGradient><linearGradient id="e"><stop offset="0" stop-color="#b4b4b4"/><stop offset=".205" stop-color="#646464"/><stop offset=".496" stop-color="#fff"/><stop offset="1" stop-color="#3c3c3c"/></linearGradient><linearGradient id="f"><stop offset="0" stop-color="#fff"/><stop offset=".49" stop-color="#8c8c8c"/><stop offset=".5" stop-color="#cfcfcf"/><stop offset=".623" stop-color="#fff"/><stop offset=".817" stop-color="#c8c8c8"/><stop offset="1" stop-color="#505050"/></linearGradient><linearGradient id="b"><stop offset="0" stop-color="#818181"/><stop offset=".2" stop-color="#f9f9f9"/><stop offset="1" stop-color="#dcdcdc" stop-opacity="0"/></linearGradient><linearGradient id="c"><stop offset="0" stop-color="#dcdcdc"/><stop offset="1" stop-color="#fafafa"/></linearGradient><linearGradient x1="45.448" y1="92.54" x2="45.448" y2="7.017" id="m" gradientUnits="userSpaceOnUse" gradientTransform="scale(1.00587 .99417)"><stop offset="0"/><stop offset="1" stop-opacity=".588"/></linearGradient><linearGradient id="a"><stop offset="0" stop-color="#fff"/><stop offset="1" stop-color="#fff" stop-opacity="0"/></linearGradient><linearGradient id="d"><stop offset="0" stop-color="#b4b4b4"/><stop offset="1" stop-color="#dcdcdc"/></linearGradient><filter color-interpolation-filters="sRGB" id="n"><feGaussianBlur stdDeviation="1.71"/></filter><linearGradient x1="19.036" y1="74" x2="87.5" y2="27.429" id="x" xlink:href="#a" gradientUnits="userSpaceOnUse"/><linearGradient x1="6" y1="73" x2="24" y2="73" id="u" xlink:href="#b" gradientUnits="userSpaceOnUse"/><linearGradient x1="6" y1="73" x2="24" y2="73" id="v" xlink:href="#b" gradientUnits="userSpaceOnUse" gradientTransform="matrix(-1 0 0 1 96 0)"/><linearGradient x1="38.748" y1="65.59" x2="38.748" y2="5.833" id="w" xlink:href="#c" gradientUnits="userSpaceOnUse"/><radialGradient cx="90" cy="90" r="42" fx="90" fy="90" id="t" xlink:href="#d" gradientUnits="userSpaceOnUse" gradientTransform="matrix(0 -1.08503 2 0 -90 187.653)"/><clipPath id="z"><path d="M66 6v55c0 1.662 1.338 3 3 3h6c1.662 0 3-1.338 3-3V6h-4v2h-4V6h-4z" fill="#fff"/></clipPath><filter x="-.166" y="-.037" width="1.332" height="1.073" color-interpolation-filters="sRGB" id="A"><feGaussianBlur stdDeviation=".9"/></filter><linearGradient x1="68.75" y1="59" x2="75.25" y2="59" id="y" xlink:href="#e" gradientUnits="userSpaceOnUse" gradientTransform="translate(0 -1)"/><linearGradient x1="69" y1="54" x2="73" y2="54" id="B" xlink:href="#f" gradientUnits="userSpaceOnUse" gradientTransform="translate(0 -1)"/><linearGradient x1="63.485" y1="64.163" x2="79" y2="65" id="Q" xlink:href="#g" gradientUnits="userSpaceOnUse"/><filter x="-.162" y="-.095" width="1.324" height="1.191" color-interpolation-filters="sRGB" id="R"><feGaussianBlur stdDeviation=".536"/></filter><linearGradient x1="68.969" y1="17.5" x2="75.063" y2="17.5" id="T" xlink:href="#h" gradientUnits="userSpaceOnUse" gradientTransform="matrix(-1 0 0 1 144.031 -2)"/><linearGradient x1="68.029" y1="17.763" x2="75.971" y2="17.763" id="S" xlink:href="#h" gradientUnits="userSpaceOnUse" gradientTransform="translate(0 -2)"/><linearGradient x1="68.75" y1="59" x2="72.251" y2="59" id="U" xlink:href="#e" gradientUnits="userSpaceOnUse" gradientTransform="matrix(1.12627 0 0 1 -7.402 -49.5)"/><linearGradient x1="69" y1="54" x2="73" y2="54" id="J" xlink:href="#i" gradientUnits="userSpaceOnUse" gradientTransform="matrix(-1 0 0 1 144 -4)"/><linearGradient x1="25.975" y1="40" x2="25.975" y2="64.02" id="V" xlink:href="#j" gradientUnits="userSpaceOnUse"/><linearGradient x1="19.472" y1="40" x2="28.057" y2="54.868" id="W" xlink:href="#a" gradientUnits="userSpaceOnUse"/><linearGradient x1="32" y1="68.071" x2="32" y2="45.192" id="X" xlink:href="#k" gradientUnits="userSpaceOnUse"/><linearGradient x1="45.448" y1="92.54" x2="45.448" y2="7.017" id="l" gradientUnits="userSpaceOnUse" gradientTransform="matrix(1.00587 0 0 .99417 100 0)"><stop offset="0"/><stop offset="1" stop-opacity=".588"/></linearGradient><linearGradient x1="32.251" y1="6.132" x2="32.251" y2="90.239" id="p" xlink:href="#l" gradientUnits="userSpaceOnUse" gradientTransform="matrix(1.0238 0 0 1.0119 -1.143 -98.071)"/><linearGradient x1="32.251" y1="6.132" x2="32.251" y2="90.239" id="q" xlink:href="#l" gradientUnits="userSpaceOnUse" gradientTransform="matrix(1.0238 0 0 1.0119 -1.143 -98.071)"/><linearGradient x1="32.251" y1="6.132" x2="32.251" y2="90.239" id="r" xlink:href="#l" gradientUnits="userSpaceOnUse" gradientTransform="matrix(1.0238 0 0 1.0119 -1.143 -98.071)"/><linearGradient x1="32.251" y1="6.132" x2="32.251" y2="90.239" id="s" xlink:href="#l" gradientUnits="userSpaceOnUse" gradientTransform="translate(0 -97)"/><linearGradient x1="32.251" y1="6.132" x2="32.251" y2="90.239" id="o" xlink:href="#l" gradientUnits="userSpaceOnUse" gradientTransform="matrix(1.0238 0 0 1.0119 -1.143 -98.071)"/></defs><g transform="scale(1 -1)"><path d="M12-95.031c-5.511 0-10.031 4.52-10.031 10.031v71C1.969-8.489 6.489-3.969 12-3.969h72c5.511 0 10.031-4.52 10.031-10.031v-71c0-5.511-4.52-10.031-10.031-10.031H12z" opacity=".08" fill="url(#o)"/><path d="M12-94.031c-4.972 0-9.031 4.06-9.031 9.031v71c0 4.972 4.06 9.031 9.031 9.031h72c4.972 0 9.031-4.06 9.031-9.031v-71c0-4.972-4.06-9.031-9.031-9.031H12z" opacity=".1" fill="url(#p)"/><path d="M12-93c-4.41 0-8 3.59-8 8v71c0 4.41 3.59 8 8 8h72c4.41 0 8-3.59 8-8v-71c0-4.41-3.59-8-8-8H12z" opacity=".2" fill="url(#q)"/><rect width="86" height="85" rx="7" ry="7" x="5" y="-92" opacity=".3" fill="url(#r)"/><rect width="84" height="84" rx="6" ry="6" x="6" y="-91" opacity=".45" fill="url(#s)"/></g><path d="M12 6c-3.324 0-6 2.676-6 6v72c0 3.324 2.676 6 6 6h72c3.324 0 6-2.676 6-6V12c0-3.324-2.676-6-6-6h-9v3h-6V6H12z" fill="url(#t)"/><path d="M6 56v28c0 3.324 2.676 6 6 6h12V56H6z" fill="url(#u)"/><path d="M90 56v28c0 3.324-2.676 6-6 6H72V56h18z" fill="url(#v)"/><path d="M6 82v2c0 3.324 2.676 6 6 6h72c3.324 0 6-2.676 6-6v-2c0 3.324-2.676 6-6 6H12c-3.324 0-6-2.676-6-6z" opacity=".15"/><path d="M6 78v2c0 3.324 2.676 6 6 6h72c3.324 0 6-2.676 6-6v-2c0 3.324-2.676 6-6 6H12c-3.324 0-6-2.676-6-6z" opacity=".8" fill="#fff"/><path d="M6 76v2c0 3.324 2.676 6 6 6h72c3.324 0 6-2.676 6-6v-2c0 3.324-2.676 6-6 6H12c-3.324 0-6-2.676-6-6z" opacity=".15"/><path d="M6 72v2c0 3.324 2.676 6 6 6h72c3.324 0 6-2.676 6-6v-2c0 3.324-2.676 6-6 6H12c-3.324 0-6-2.676-6-6z" opacity=".8" fill="#fff"/><path d="M6 70v2c0 3.324 2.676 6 6 6h72c3.324 0 6-2.676 6-6v-2c0 3.324-2.676 6-6 6H12c-3.324 0-6-2.676-6-6z" opacity=".15"/><path d="M12 6c-3.324 0-6 2.676-6 6v56c0 3.324 2.676 6 6 6h72c3.324 0 6-2.676 6-6V12c0-3.324-2.676-6-6-6h-9v3h-6V6H12z" fill="url(#w)"/><path d="M12 6c-3.324 0-6 2.676-6 6v56c0 3.324 2.676 6 6 6h72c3.324 0 6-2.676 6-6V12c0-3.324-2.676-6-6-6h-9v2h9c2.246 0 4 1.754 4 4v56c0 2.246-1.754 4-4 4H12c-2.246 0-4-1.754-4-4V12c0-2.246 1.754-4 4-4h57V6H12z" fill="url(#x)"/><g><path d="M66 6v55c0 1.662 1.338 3 3 3h6c1.662 0 3-1.338 3-3V6h-4v2h-4V6h-4z" fill="#252525"/><path fill="#4d4d4d" d="M70 8h4v49h-4z"/><rect width="6" height="4" rx="1" ry="1" x="69" y="56" fill="url(#y)" stroke="#000" stroke-width=".5" stroke-linecap="square" stroke-opacity=".564"/><path d="M66 6v55c0 1.662 1.338 3 3 3h6c1.662 0 3-1.338 3-3V6h-4v2h-4V6h-4z" clip-path="url(#z)" fill="none" stroke="#000" stroke-width="2" stroke-linecap="square" filter="url(#A)"/><path d="M69.5 51a.5.5 0 0 0-.5.5v3c0 .282.23.5.5.5h1a.5.5 0 0 0 .5-.5V54h1.5c.277 0 .5-.223.5-.5v-1c0-.277-.223-.5-.5-.5H71v-.5a.5.5 0 0 0-.5-.5h-1z" id="C" fill="url(#B)" fill-opacity="1" fill-rule="nonzero" stroke="#000" stroke-width=".5" stroke-linecap="square" stroke-linejoin="miter" stroke-miterlimit="4" stroke-opacity=".564" stroke-dasharray="none" stroke-dashoffset="0"/><use transform="translate(0 -6)" id="D" x="0" y="0" width="96" height="96" xlink:href="#C"/><use transform="translate(0 -6)" id="E" x="0" y="0" width="96" height="96" xlink:href="#D"/><use transform="translate(0 -6)" id="F" x="0" y="0" width="96" height="96" xlink:href="#E"/><use transform="translate(0 -6)" id="G" x="0" y="0" width="96" height="96" xlink:href="#F"/><use transform="translate(0 -6)" id="H" x="0" y="0" width="96" height="96" xlink:href="#G"/><use transform="translate(0 -6)" id="I" x="0" y="0" width="96" height="96" xlink:href="#H"/><use transform="translate(0 -6)" width="96" height="96" xlink:href="#I"/><path d="M74.5 48a.5.5 0 0 1 .5.5v3a.5.5 0 0 1-.5.5h-1a.5.5 0 0 1-.5-.5V51h-1.5a.499.499 0 0 1-.5-.5v-1c0-.277.223-.5.5-.5H73v-.5a.5.5 0 0 1 .5-.5h1z" id="K" fill="url(#J)" fill-opacity="1" fill-rule="nonzero" stroke="#000" stroke-width=".5" stroke-linecap="square" stroke-linejoin="miter" stroke-miterlimit="4" stroke-opacity=".564" stroke-dasharray="none" stroke-dashoffset="0"/><use transform="translate(0 -6)" id="L" x="0" y="0" width="96" height="96" xlink:href="#K"/><use transform="translate(0 -6)" id="M" x="0" y="0" width="96" height="96" xlink:href="#L"/><use transform="translate(0 -6)" id="N" x="0" y="0" width="96" height="96" xlink:href="#M"/><use transform="translate(0 -6)" id="O" x="0" y="0" width="96" height="96" xlink:href="#N"/><use transform="translate(0 -6)" id="P" x="0" y="0" width="96" height="96" xlink:href="#O"/><use transform="translate(0 -6)" width="96" height="96" xlink:href="#P"/><path d="M65 6v55c0 2.202 1.798 4 4 4h6c2.202 0 4-1.798 4-4V6h-1v55c0 1.662-1.338 3-3 3h-6c-1.662 0-3-1.338-3-3V6h-1z" fill="url(#Q)"/><path d="M69.5 10.531c-1.028 0-1.969.765-1.969 1.813v10.812c0 1.048.918 1.844 1.969 1.844h5c1.05 0 1.969-.796 1.969-1.844V12.344c0-1.048-.941-1.813-1.969-1.813h-5zm1.063 9.063h2.874v1.75h-2.874v-1.75z" transform="translate(0 -2)" stroke="#000" stroke-width=".5" stroke-linecap="square" stroke-opacity=".564" filter="url(#R)"/><path d="M69.23 9.021c-.688 0-1.23.483-1.23 1.082l-.005 10.815c0 .6.542 1.082 1.23 1.082h5.582c.688 0 1.23-.482 1.23-1.082l.005-10.815c0-.6-.542-1.082-1.23-1.082H69.23zm.704 7.95h4.1v3.118h-4.1v-3.118z" fill="url(#S)"/><path d="M74.563 9.969c.276 0 .5.223.5.5V20.53c0 .277-.224.5-.5.5h-5.094a.499.499 0 0 1-.5-.5V10.47c0-.277.223-.5.5-.5h5.094zm-.438 6.969H70v3.125h4.125v-3.125z" fill="url(#T)"/><rect width="3.379" height="5" rx=".563" ry=".5" x="70.311" y="7.5" fill="url(#U)" stroke="#000" stroke-linecap="square" stroke-opacity=".564"/><path opacity=".3" d="M69.985 16h4v1h-4z"/><rect width="42" height="32" rx="4" ry="4" x="12" y="36" opacity=".2" fill="#666"/><rect width="20" height="24" rx="2.5" ry="2.5" x="16" y="40" fill="url(#V)"/><path d="M31.63 46.102a181.882 181.882 0 0 0-2.109 3.41A30.642 30.642 0 0 0 27.8 52.84a20.452 20.452 0 0 0-1.172 3.433A15.925 15.925 0 0 0 26.205 60h-3.434c0-1.305.153-2.543.458-3.715.312-1.18.734-2.328 1.265-3.445a28.977 28.977 0 0 1 1.852-3.305 123.918 123.918 0 0 1 2.226-3.34H20.37v-2.707h11.262v2.614" style="text-align:start;line-height:120.00000477%;-inkscape-font-specification:Liberation Sans Bold" font-size="24" font-weight="700" fill="#fff" font-family="Liberation Sans"/><path d="M40 60v-2.174l6.328-7.843h-6.226v-2.252h9.859v2.229l-6.293 7.795h6.457V60H40" style="text-align:start;line-height:120.00000477%;-inkscape-font-specification:Liberation Sans Bold" font-size="24" font-weight="700" fill="#1a1a1a" font-family="Liberation Sans"/><path d="M18.5 40a2.495 2.495 0 0 0-2.5 2.5v19c0 1.385 1.115 2.5 2.5 2.5h15c1.385 0 2.5-1.115 2.5-2.5v-19c0-1.385-1.115-2.5-2.5-2.5h-15zm0 1h15c.843 0 1.5.657 1.5 1.5v19c0 .843-.657 1.5-1.5 1.5h-15c-.843 0-1.5-.657-1.5-1.5v-19c0-.843.657-1.5 1.5-1.5z" opacity=".2" fill="url(#W)"/><path d="M16 36c-2.216 0-4 1.784-4 4v24c0 2.216 1.784 4 4 4h34c2.216 0 4-1.784 4-4V40c0-2.216-1.784-4-4-4H16zm0 1.156h34A2.815 2.815 0 0 1 52.844 40v24A2.815 2.815 0 0 1 50 66.844H16A2.815 2.815 0 0 1 13.156 64V40A2.815 2.815 0 0 1 16 37.156z" opacity=".2" fill="url(#X)"/></g></svg>