<svg xmlns="http://www.w3.org/2000/svg" xmlns:xlink="http://www.w3.org/1999/xlink" version="1.0" width="96" height="96"><defs><linearGradient id="a"><stop offset="0" stop-color="#73a5ee"/><stop offset="1" stop-color="#abc3e7" stop-opacity="0"/></linearGradient><linearGradient id="b"><stop offset="0" stop-color="#162d50"/><stop offset=".2" stop-color="#78aaf5"/><stop offset="1" stop-color="#2d5da5" stop-opacity="0"/></linearGradient><linearGradient id="g"><stop offset="0" stop-color="#3a73c9"/><stop offset="1" stop-color="#aac3e7"/></linearGradient><linearGradient id="d"><stop offset="0" stop-color="#264f8d"/><stop offset="1" stop-color="#4a7fce"/></linearGradient><linearGradient id="i"><stop offset="0" stop-color="#2f2f2f"/><stop offset=".437" stop-color="#fff"/><stop offset=".621" stop-color="#979797"/><stop offset=".772" stop-color="#505050"/><stop offset="1" stop-color="#e6e6e6"/></linearGradient><linearGradient id="h"><stop offset="0" stop-color="#ededed"/><stop offset="1" stop-color="#b0b0b0"/></linearGradient><linearGradient id="e"><stop offset="0" stop-color="#b4b4b4"/><stop offset=".205" stop-color="#646464"/><stop offset=".496" stop-color="#fff"/><stop offset="1" stop-color="#3c3c3c"/></linearGradient><linearGradient id="f"><stop offset="0" stop-color="#fff"/><stop offset=".49" stop-color="#8c8c8c"/><stop offset=".5" stop-color="#cfcfcf"/><stop offset=".623" stop-color="#fff"/><stop offset=".817" stop-color="#c8c8c8"/><stop offset="1" stop-color="#505050"/></linearGradient><linearGradient id="c"><stop offset="0" stop-color="#3771c8"/><stop offset="1" stop-color="#afc6e9"/></linearGradient><linearGradient x1="45.448" y1="92.54" x2="45.448" y2="7.017" id="k" gradientUnits="userSpaceOnUse" gradientTransform="scale(1.00587 .99417)"><stop offset="0"/><stop offset="1" stop-opacity=".588"/></linearGradient><filter color-interpolation-filters="sRGB" id="l"><feGaussianBlur stdDeviation="1.71"/></filter><linearGradient x1="19.036" y1="74" x2="87.5" y2="27.429" id="v" xlink:href="#a" gradientUnits="userSpaceOnUse"/><linearGradient x1="6" y1="73" x2="24" y2="73" id="s" xlink:href="#b" gradientUnits="userSpaceOnUse"/><linearGradient x1="6" y1="73" x2="24" y2="73" id="t" xlink:href="#b" gradientUnits="userSpaceOnUse" gradientTransform="matrix(-1 0 0 1 96 0)"/><linearGradient x1="38.748" y1="72.409" x2="38.748" y2="5.833" id="u" xlink:href="#c" gradientUnits="userSpaceOnUse"/><radialGradient cx="90" cy="90" r="42" fx="90" fy="90" id="r" xlink:href="#d" gradientUnits="userSpaceOnUse" gradientTransform="matrix(0 -1.08503 2 0 -90 187.653)"/><clipPath id="y"><path d="M66 6v55c0 1.662 1.338 3 3 3h6c1.662 0 3-1.338 3-3V6h-4v2h-4V6h-4z" fill="#fff"/></clipPath><filter x="-.166" y="-.037" width="1.332" height="1.073" color-interpolation-filters="sRGB" id="z"><feGaussianBlur stdDeviation=".9"/></filter><linearGradient x1="68.75" y1="59" x2="75.25" y2="59" id="x" xlink:href="#e" gradientUnits="userSpaceOnUse" gradientTransform="translate(0 -1)"/><linearGradient x1="69" y1="54" x2="73" y2="54" id="A" xlink:href="#f" gradientUnits="userSpaceOnUse" gradientTransform="translate(0 -1)"/><linearGradient x1="63.485" y1="64.163" x2="79" y2="65" id="P" xlink:href="#g" gradientUnits="userSpaceOnUse"/><filter x="-.162" y="-.095" width="1.324" height="1.191" color-interpolation-filters="sRGB" id="Q"><feGaussianBlur stdDeviation=".536"/></filter><linearGradient x1="68.969" y1="17.5" x2="75.063" y2="17.5" id="S" xlink:href="#h" gradientUnits="userSpaceOnUse" gradientTransform="matrix(-1 0 0 1 144.031 -2)"/><linearGradient x1="68.029" y1="17.763" x2="75.971" y2="17.763" id="R" xlink:href="#h" gradientUnits="userSpaceOnUse" gradientTransform="translate(0 -2)"/><linearGradient x1="68.75" y1="59" x2="72.251" y2="59" id="T" xlink:href="#e" gradientUnits="userSpaceOnUse" gradientTransform="matrix(1.12627 0 0 1 -7.402 -49.5)"/><linearGradient x1="69" y1="54" x2="73" y2="54" id="I" xlink:href="#i" gradientUnits="userSpaceOnUse" gradientTransform="matrix(-1 0 0 1 144 -4)"/><clipPath id="w"><path d="M8.031 66.656c-2.216 0-4 1.784-4 4v32.906c0 2.217 1.784 4 4 4h46.063c2.216 0 4-1.783 4-4V70.656c0-2.216-1.784-4-4-4H8.03zM31.75 80c.585 0 1.1.086 1.563.281.463.183.896.46 1.25.813.365.34.662.762.906 1.25.243.475.447 1.009.593 1.594l-1.718.468a7.529 7.529 0 0 0-.407-1.125 2.866 2.866 0 0 0-.5-.844 1.91 1.91 0 0 0-.718-.53 2.145 2.145 0 0 0-.969-.22c-.646 0-1.18.172-1.594.5-.414.33-.756.77-1 1.282a6.26 6.26 0 0 0-.5 1.656c-.085.61-.125 1.177-.125 1.75s.04 1.179.125 1.813c.086.62.237 1.213.469 1.75.232.536.567.99.969 1.343.414.341.936.5 1.593.5.44 0 .84-.098 1.157-.281.329-.183.612-.433.843-.75a4.02 4.02 0 0 0 .563-1.094c.158-.426.258-.887.344-1.375l1.718.531c-.134.622-.33 1.221-.562 1.782a5.39 5.39 0 0 1-.875 1.5 4.18 4.18 0 0 1-1.313 1.031c-.5.256-1.098.375-1.78.375-.659 0-1.239-.105-1.75-.313a4.337 4.337 0 0 1-1.345-.843 5.04 5.04 0 0 1-.906-1.219 9.047 9.047 0 0 1-.625-1.5 9.964 9.964 0 0 1-.312-1.594c-.061-.56-.094-1.113-.094-1.625 0-.487.033-.995.094-1.531.073-.536.185-1.05.343-1.563a7.5 7.5 0 0 1 .625-1.468c.256-.463.572-.866.938-1.219a4.165 4.165 0 0 1 1.313-.813c.5-.207 1.053-.312 1.687-.312zm-11.625.219h1.719L26.25 93.78h-2l-1.219-4h-4l-1.125 4H16l4.125-13.562zm18.031 0H46v1.719h-6.094v3.968h5.282v1.719h-5.282v4.438h6.344v1.718h-8.094V80.22zM21 82.969c-.183.877-.4 1.753-.656 2.594-.256.828-.526 1.659-.782 2.5h2.907c-.244-.841-.513-1.691-.782-2.532-.255-.84-.468-1.697-.687-2.562z" fill="#fff"/></clipPath><linearGradient x1="45.448" y1="92.54" x2="45.448" y2="7.017" id="j" gradientUnits="userSpaceOnUse" gradientTransform="matrix(1.00587 0 0 .99417 100 0)"><stop offset="0"/><stop offset="1" stop-opacity=".588"/></linearGradient><linearGradient x1="32.251" y1="6.132" x2="32.251" y2="90.239" id="n" xlink:href="#j" gradientUnits="userSpaceOnUse" gradientTransform="matrix(1.0238 0 0 1.0119 -1.143 -98.071)"/><linearGradient x1="32.251" y1="6.132" x2="32.251" y2="90.239" id="o" xlink:href="#j" gradientUnits="userSpaceOnUse" gradientTransform="matrix(1.0238 0 0 1.0119 -1.143 -98.071)"/><linearGradient x1="32.251" y1="6.132" x2="32.251" y2="90.239" id="p" xlink:href="#j" gradientUnits="userSpaceOnUse" gradientTransform="matrix(1.0238 0 0 1.0119 -1.143 -98.071)"/><linearGradient x1="32.251" y1="6.132" x2="32.251" y2="90.239" id="q" xlink:href="#j" gradientUnits="userSpaceOnUse" gradientTransform="translate(0 -97)"/><linearGradient x1="32.251" y1="6.132" x2="32.251" y2="90.239" id="m" xlink:href="#j" gradientUnits="userSpaceOnUse" gradientTransform="matrix(1.0238 0 0 1.0119 -1.143 -98.071)"/></defs><g transform="scale(1 -1)"><path d="M12-95.031c-5.511 0-10.031 4.52-10.031 10.031v71C1.969-8.489 6.489-3.969 12-3.969h72c5.511 0 10.031-4.52 10.031-10.031v-71c0-5.511-4.52-10.031-10.031-10.031H12z" opacity=".08" fill="url(#m)"/><path d="M12-94.031c-4.972 0-9.031 4.06-9.031 9.031v71c0 4.972 4.06 9.031 9.031 9.031h72c4.972 0 9.031-4.06 9.031-9.031v-71c0-4.972-4.06-9.031-9.031-9.031H12z" opacity=".1" fill="url(#n)"/><path d="M12-93c-4.41 0-8 3.59-8 8v71c0 4.41 3.59 8 8 8h72c4.41 0 8-3.59 8-8v-71c0-4.41-3.59-8-8-8H12z" opacity=".2" fill="url(#o)"/><rect width="86" height="85" rx="7" ry="7" x="5" y="-92" opacity=".3" fill="url(#p)"/><rect width="84" height="84" rx="6" ry="6" x="6" y="-91" opacity=".45" fill="url(#q)"/></g><path d="M12 6c-3.324 0-6 2.676-6 6v72c0 3.324 2.676 6 6 6h72c3.324 0 6-2.676 6-6V12c0-3.324-2.676-6-6-6h-9v3h-6V6H12z" fill="url(#r)"/><path d="M6 56v28c0 3.324 2.676 6 6 6h12V56H6z" fill="url(#s)"/><path d="M90 56v28c0 3.324-2.676 6-6 6H72V56h18z" fill="url(#t)"/><path d="M6 82v2c0 3.324 2.676 6 6 6h72c3.324 0 6-2.676 6-6v-2c0 3.324-2.676 6-6 6H12c-3.324 0-6-2.676-6-6z" opacity=".5" fill="#214478"/><path d="M6 78v2c0 3.324 2.676 6 6 6h72c3.324 0 6-2.676 6-6v-2c0 3.324-2.676 6-6 6H12c-3.324 0-6-2.676-6-6z" opacity=".4" fill="#76a7ef"/><path d="M6 76v2c0 3.324 2.676 6 6 6h72c3.324 0 6-2.676 6-6v-2c0 3.324-2.676 6-6 6H12c-3.324 0-6-2.676-6-6z" opacity=".5" fill="#214478"/><path d="M6 72v2c0 3.324 2.676 6 6 6h72c3.324 0 6-2.676 6-6v-2c0 3.324-2.676 6-6 6H12c-3.324 0-6-2.676-6-6z" opacity=".4" fill="#76a7ef"/><path d="M6 70v2c0 3.324 2.676 6 6 6h72c3.324 0 6-2.676 6-6v-2c0 3.324-2.676 6-6 6H12c-3.324 0-6-2.676-6-6z" opacity=".5" fill="#214478"/><path d="M12 6c-3.324 0-6 2.676-6 6v56c0 3.324 2.676 6 6 6h72c3.324 0 6-2.676 6-6V12c0-3.324-2.676-6-6-6h-9v3h-6V6H12z" fill="url(#u)"/><path d="M12 6c-3.324 0-6 2.676-6 6v56c0 3.324 2.676 6 6 6h72c3.324 0 6-2.676 6-6V12c0-3.324-2.676-6-6-6h-9v2h9c2.246 0 4 1.754 4 4v56c0 2.246-1.754 4-4 4H12c-2.246 0-4-1.754-4-4V12c0-2.246 1.754-4 4-4h57V6H12z" fill="url(#v)"/><g><path d="M31.75 80c-.634 0-1.188.105-1.688.313-.487.194-.934.459-1.312.812a5.153 5.153 0 0 0-.938 1.219 7.5 7.5 0 0 0-.625 1.469 9.654 9.654 0 0 0-.343 1.562c-.061.536-.094 1.044-.094 1.531 0 .512.033 1.065.094 1.625.06.549.166 1.07.312 1.594.159.524.382 1.025.625 1.5.256.463.541.865.907 1.219.377.353.831.636 1.343.844.512.207 1.092.312 1.75.312.683 0 1.282-.12 1.782-.375a4.18 4.18 0 0 0 1.312-1.031 5.39 5.39 0 0 0 .875-1.5c.231-.56.428-1.16.563-1.781l-1.72-.532c-.085.488-.185.949-.343 1.375a4.02 4.02 0 0 1-.563 1.094 2.606 2.606 0 0 1-.843.75c-.317.183-.718.281-1.157.281-.657 0-1.179-.159-1.593-.5a3.774 3.774 0 0 1-.969-1.344 6.728 6.728 0 0 1-.469-1.75 13.605 13.605 0 0 1-.125-1.812c0-.573.04-1.14.125-1.75a6.26 6.26 0 0 1 .5-1.656 3.611 3.611 0 0 1 1-1.281c.415-.33.948-.5 1.594-.5.378 0 .7.084.969.218.28.122.511.288.718.531.208.232.366.515.5.844.147.33.297.711.407 1.125l1.718-.469a7.457 7.457 0 0 0-.593-1.593 4.34 4.34 0 0 0-.907-1.25 3.692 3.692 0 0 0-1.25-.813c-.463-.195-.977-.281-1.562-.281zm-11.625.219L16 93.78h1.906l1.125-4h4l1.219 4h2L21.844 80.22h-1.719zm18.031 0V93.78h8.094v-1.719h-6.344v-4.437h5.282v-1.719h-5.282v-3.969H46V80.22h-7.844zM21 82.969c.22.865.432 1.722.688 2.562.268.841.537 1.69.78 2.531h-2.905c.255-.84.525-1.67.78-2.5.257-.84.474-1.716.657-2.593z" transform="translate(0 -30)" clip-path="url(#w)" style="text-align:start;line-height:120.00000477%;-inkscape-font-specification:BabelSans Bold" font-size="18.277" font-weight="700" opacity=".05" fill="none" stroke="#fff" stroke-width="6" font-family="BabelSans"/><path d="M31.75 80c-.634 0-1.188.105-1.688.313-.487.194-.934.459-1.312.812a5.153 5.153 0 0 0-.938 1.219 7.5 7.5 0 0 0-.625 1.469 9.654 9.654 0 0 0-.343 1.562c-.061.536-.094 1.044-.094 1.531 0 .512.033 1.065.094 1.625.06.549.166 1.07.312 1.594.159.524.382 1.025.625 1.5.256.463.541.865.907 1.219.377.353.831.636 1.343.844.512.207 1.092.312 1.75.312.683 0 1.282-.12 1.782-.375a4.18 4.18 0 0 0 1.312-1.031 5.39 5.39 0 0 0 .875-1.5c.231-.56.428-1.16.563-1.781l-1.72-.532c-.085.488-.185.949-.343 1.375a4.02 4.02 0 0 1-.563 1.094 2.606 2.606 0 0 1-.843.75c-.317.183-.718.281-1.157.281-.657 0-1.179-.159-1.593-.5a3.774 3.774 0 0 1-.969-1.344 6.728 6.728 0 0 1-.469-1.75 13.605 13.605 0 0 1-.125-1.812c0-.573.04-1.14.125-1.75a6.26 6.26 0 0 1 .5-1.656 3.611 3.611 0 0 1 1-1.281c.415-.33.948-.5 1.594-.5.378 0 .7.084.969.218.28.122.511.288.718.531.208.232.366.515.5.844.147.33.297.711.407 1.125l1.718-.469a7.457 7.457 0 0 0-.593-1.593 4.34 4.34 0 0 0-.907-1.25 3.692 3.692 0 0 0-1.25-.813c-.463-.195-.977-.281-1.562-.281zm-11.625.219L16 93.78h1.906l1.125-4h4l1.219 4h2L21.844 80.22h-1.719zm18.031 0V93.78h8.094v-1.719h-6.344v-4.437h5.282v-1.719h-5.282v-3.969H46V80.22h-7.844zM21 82.969c.22.865.432 1.722.688 2.562.268.841.537 1.69.78 2.531h-2.905c.255-.84.525-1.67.78-2.5.257-.84.474-1.716.657-2.593z" transform="translate(0 -30)" clip-path="url(#w)" style="text-align:start;line-height:120.00000477%;-inkscape-font-specification:BabelSans Bold" font-size="18.277" font-weight="700" opacity=".08" fill="none" stroke="#fff" stroke-width="4" font-family="BabelSans"/><path d="M31.75 80c-.634 0-1.188.105-1.688.313-.487.194-.934.459-1.312.812a5.153 5.153 0 0 0-.938 1.219 7.5 7.5 0 0 0-.625 1.469 9.654 9.654 0 0 0-.343 1.562c-.061.536-.094 1.044-.094 1.531 0 .512.033 1.065.094 1.625.06.549.166 1.07.312 1.594.159.524.382 1.025.625 1.5.256.463.541.865.907 1.219.377.353.831.636 1.343.844.512.207 1.092.312 1.75.312.683 0 1.282-.12 1.782-.375a4.18 4.18 0 0 0 1.312-1.031 5.39 5.39 0 0 0 .875-1.5c.231-.56.428-1.16.563-1.781l-1.72-.532c-.085.488-.185.949-.343 1.375a4.02 4.02 0 0 1-.563 1.094 2.606 2.606 0 0 1-.843.75c-.317.183-.718.281-1.157.281-.657 0-1.179-.159-1.593-.5a3.774 3.774 0 0 1-.969-1.344 6.728 6.728 0 0 1-.469-1.75 13.605 13.605 0 0 1-.125-1.812c0-.573.04-1.14.125-1.75a6.26 6.26 0 0 1 .5-1.656 3.611 3.611 0 0 1 1-1.281c.415-.33.948-.5 1.594-.5.378 0 .7.084.969.218.28.122.511.288.718.531.208.232.366.515.5.844.147.33.297.711.407 1.125l1.718-.469a7.457 7.457 0 0 0-.593-1.593 4.34 4.34 0 0 0-.907-1.25 3.692 3.692 0 0 0-1.25-.813c-.463-.195-.977-.281-1.562-.281zm-11.625.219L16 93.78h1.906l1.125-4h4l1.219 4h2L21.844 80.22h-1.719zm18.031 0V93.78h8.094v-1.719h-6.344v-4.437h5.282v-1.719h-5.282v-3.969H46V80.22h-7.844zM21 82.969c.22.865.432 1.722.688 2.562.268.841.537 1.69.78 2.531h-2.905c.255-.84.525-1.67.78-2.5.257-.84.474-1.716.657-2.593z" transform="translate(0 -30)" clip-path="url(#w)" style="text-align:start;line-height:120.00000477%;-inkscape-font-specification:BabelSans Bold" font-size="18.277" font-weight="700" opacity=".15" fill="none" stroke="#fff" stroke-width="2" font-family="BabelSans"/><path d="M66 6v55c0 1.662 1.338 3 3 3h6c1.662 0 3-1.338 3-3V6h-4v2h-4V6h-4z" fill="#252525"/><path fill="#4d4d4d" d="M70 8h4v49h-4z"/><rect width="6" height="4" rx="1" ry="1" x="69" y="56" fill="url(#x)" stroke="#000" stroke-width=".5" stroke-linecap="square" stroke-opacity=".564"/><path d="M66 6v55c0 1.662 1.338 3 3 3h6c1.662 0 3-1.338 3-3V6h-4v2h-4V6h-4z" clip-path="url(#y)" fill="none" stroke="#000" stroke-width="2" stroke-linecap="square" filter="url(#z)"/><path d="M69.5 51a.5.5 0 0 0-.5.5v3c0 .282.23.5.5.5h1a.5.5 0 0 0 .5-.5V54h1.5c.277 0 .5-.223.5-.5v-1c0-.277-.223-.5-.5-.5H71v-.5a.5.5 0 0 0-.5-.5h-1z" id="B" fill="url(#A)" fill-opacity="1" fill-rule="nonzero" stroke="#000" stroke-width=".5" stroke-linecap="square" stroke-linejoin="miter" stroke-miterlimit="4" stroke-opacity=".564" stroke-dasharray="none" stroke-dashoffset="0"/><use transform="translate(0 -6)" id="C" x="0" y="0" width="96" height="96" xlink:href="#B"/><use transform="translate(0 -6)" id="D" x="0" y="0" width="96" height="96" xlink:href="#C"/><use transform="translate(0 -6)" id="E" x="0" y="0" width="96" height="96" xlink:href="#D"/><use transform="translate(0 -6)" id="F" x="0" y="0" width="96" height="96" xlink:href="#E"/><use transform="translate(0 -6)" id="G" x="0" y="0" width="96" height="96" xlink:href="#F"/><use transform="translate(0 -6)" id="H" x="0" y="0" width="96" height="96" xlink:href="#G"/><use transform="translate(0 -6)" width="96" height="96" xlink:href="#H"/><path d="M74.5 48a.5.5 0 0 1 .5.5v3a.5.5 0 0 1-.5.5h-1a.5.5 0 0 1-.5-.5V51h-1.5a.499.499 0 0 1-.5-.5v-1c0-.277.223-.5.5-.5H73v-.5a.5.5 0 0 1 .5-.5h1z" id="J" fill="url(#I)" fill-opacity="1" fill-rule="nonzero" stroke="#000" stroke-width=".5" stroke-linecap="square" stroke-linejoin="miter" stroke-miterlimit="4" stroke-opacity=".564" stroke-dasharray="none" stroke-dashoffset="0"/><use transform="translate(0 -6)" id="K" x="0" y="0" width="96" height="96" xlink:href="#J"/><use transform="translate(0 -6)" id="L" x="0" y="0" width="96" height="96" xlink:href="#K"/><use transform="translate(0 -6)" id="M" x="0" y="0" width="96" height="96" xlink:href="#L"/><use transform="translate(0 -6)" id="N" x="0" y="0" width="96" height="96" xlink:href="#M"/><use transform="translate(0 -6)" id="O" x="0" y="0" width="96" height="96" xlink:href="#N"/><use transform="translate(0 -6)" width="96" height="96" xlink:href="#O"/><path d="M65 6v55c0 2.202 1.798 4 4 4h6c2.202 0 4-1.798 4-4V6h-1v55c0 1.662-1.338 3-3 3h-6c-1.662 0-3-1.338-3-3V6h-1z" fill="url(#P)"/><path d="M69.5 10.531c-1.028 0-1.969.765-1.969 1.813v10.812c0 1.048.918 1.844 1.969 1.844h5c1.05 0 1.969-.796 1.969-1.844V12.344c0-1.048-.941-1.813-1.969-1.813h-5zm1.063 9.063h2.874v1.75h-2.874v-1.75z" transform="translate(0 -2)" stroke="#000" stroke-width=".5" stroke-linecap="square" stroke-opacity=".564" filter="url(#Q)"/><path d="M69.23 9.021c-.688 0-1.23.483-1.23 1.082l-.005 10.815c0 .6.542 1.082 1.23 1.082h5.582c.688 0 1.23-.482 1.23-1.082l.005-10.815c0-.6-.542-1.082-1.23-1.082H69.23zm.704 7.95h4.1v3.118h-4.1v-3.118z" fill="url(#R)"/><path d="M74.563 9.969c.276 0 .5.223.5.5V20.53c0 .277-.224.5-.5.5h-5.094a.499.499 0 0 1-.5-.5V10.47c0-.277.223-.5.5-.5h5.094zm-.438 6.969H70v3.125h4.125v-3.125z" fill="url(#S)"/><rect width="3.379" height="5" rx=".563" ry=".5" x="70.311" y="7.5" fill="url(#T)" stroke="#000" stroke-linecap="square" stroke-opacity=".564"/><path opacity=".3" d="M69.985 16h4v1h-4z"/><path d="M31.75 50c-.634 0-1.188.105-1.688.313-.487.194-.934.459-1.312.812a5.153 5.153 0 0 0-.938 1.219 7.5 7.5 0 0 0-.625 1.468 9.654 9.654 0 0 0-.343 1.563c-.061.536-.094 1.044-.094 1.531 0 .512.033 1.065.094 1.625.06.549.166 1.07.312 1.594.159.524.382 1.025.625 1.5.256.463.541.865.907 1.219.377.353.831.636 1.343.843.512.208 1.092.313 1.75.313.683 0 1.282-.12 1.782-.375a4.18 4.18 0 0 0 1.312-1.031 5.39 5.39 0 0 0 .875-1.5c.231-.56.428-1.16.563-1.782l-1.72-.53c-.085.487-.185.948-.343 1.374a4.02 4.02 0 0 1-.563 1.094 2.606 2.606 0 0 1-.843.75c-.317.183-.718.281-1.157.281-.657 0-1.179-.159-1.593-.5a3.774 3.774 0 0 1-.969-1.343 6.728 6.728 0 0 1-.469-1.75 13.605 13.605 0 0 1-.125-1.813c0-.573.04-1.14.125-1.75a6.26 6.26 0 0 1 .5-1.656 3.611 3.611 0 0 1 1-1.282c.415-.328.948-.5 1.594-.5.378 0 .7.085.969.22.28.121.511.287.718.53.208.232.366.515.5.844.147.33.297.711.407 1.125l1.718-.468a7.457 7.457 0 0 0-.593-1.594 4.34 4.34 0 0 0-.907-1.25 3.692 3.692 0 0 0-1.25-.813c-.463-.195-.977-.281-1.562-.281zm-11.625.219L16 63.78h1.906l1.125-4h4l1.219 4h2L21.844 50.22h-1.719zm18.031 0V63.78h8.094v-1.718h-6.344v-4.438h5.282v-1.719h-5.282v-3.968H46v-1.72h-7.844zM21 52.969c.22.865.432 1.722.688 2.562.268.841.537 1.69.78 2.532h-2.905c.255-.841.525-1.672.78-2.5.257-.841.474-1.717.657-2.594z" style="text-align:start;line-height:120.00000477%;-inkscape-font-specification:BabelSans Bold" font-size="18.277" font-weight="700" fill="#1e3d6d" font-family="BabelSans"/><path d="M31.75 50c-.634 0-1.188.105-1.688.313-.487.194-.934.459-1.312.812a5.153 5.153 0 0 0-.938 1.219 7.5 7.5 0 0 0-.625 1.468 9.654 9.654 0 0 0-.343 1.563c-.061.536-.094 1.044-.094 1.531 0 .158.025.336.031.5.014-.338.022-.67.063-1.031.073-.536.185-1.05.343-1.563a7.5 7.5 0 0 1 .625-1.468c.256-.463.572-.866.938-1.219a4.165 4.165 0 0 1 1.313-.813c.5-.207 1.053-.312 1.687-.312.585 0 1.1.086 1.563.281.463.183.896.46 1.25.813.365.34.662.762.906 1.25.107.21.222.425.312.656l.282-.063a7.457 7.457 0 0 0-.594-1.593 4.34 4.34 0 0 0-.907-1.25 3.692 3.692 0 0 0-1.25-.813c-.463-.195-.977-.281-1.562-.281zm-11.625.219L16 63.78h.313l3.812-12.562h1.719l4.093 12.562h.313L21.844 50.22h-1.719zm18.031 0v1H46v-1h-7.844zm1.75 5.687v1h5.282v-1h-5.282zm-11.343 1.469c-.007.164-.032.336-.032.5 0 .573.04 1.179.125 1.813.086.62.237 1.213.469 1.75.232.536.567.99.969 1.343.414.341.936.5 1.593.5.44 0 .84-.098 1.157-.281.329-.183.612-.433.843-.75a4.02 4.02 0 0 0 .563-1.094c.158-.426.258-.887.344-1.375l1.468.438c.095-.298.183-.596.25-.907l-1.718-.53c-.086.487-.186.948-.344 1.374a4.02 4.02 0 0 1-.563 1.094 2.606 2.606 0 0 1-.843.75c-.317.183-.718.281-1.157.281-.657 0-1.179-.159-1.593-.5a3.774 3.774 0 0 1-.969-1.343 6.728 6.728 0 0 1-.469-1.75c-.06-.453-.077-.89-.093-1.313zm-8.688.688c-.105.333-.21.663-.313 1h2.907c-.097-.333-.21-.666-.313-1h-2.281zm20.031 4v1h6.344v-1h-6.344z" style="text-align:start;line-height:120.00000477%;-inkscape-font-specification:BabelSans Bold" font-size="18.277" font-weight="700" opacity=".4" font-family="BabelSans"/></g></svg>