<svg xmlns="http://www.w3.org/2000/svg" xmlns:xlink="http://www.w3.org/1999/xlink" version="1.0" width="96" height="96"><defs><linearGradient x1="45.448" y1="92.54" x2="45.448" y2="7.017" id="f" gradientUnits="userSpaceOnUse" gradientTransform="scale(1.00587 .99417)"><stop offset="0"/><stop offset="1" stop-opacity=".588"/></linearGradient><linearGradient id="b"><stop offset="0" stop-color="#fff"/><stop offset="1" stop-color="#fff" stop-opacity="0"/></linearGradient><linearGradient id="a"><stop offset="0" stop-color="#ebebeb"/><stop offset="1" stop-color="#fafafa"/></linearGradient><linearGradient x1="48" y1="90" x2="48" y2="5.988" id="m" xlink:href="#a" gradientUnits="userSpaceOnUse"/><filter color-interpolation-filters="sRGB" id="g"><feGaussianBlur stdDeviation="1.71"/></filter><linearGradient x1="36.357" y1="6" x2="36.357" y2="63.893" id="n" xlink:href="#b" gradientUnits="userSpaceOnUse"/><linearGradient x1="45.448" y1="92.54" x2="45.448" y2="7.017" id="c" gradientUnits="userSpaceOnUse" gradientTransform="matrix(1.00587 0 0 .99417 100 0)"><stop offset="0"/><stop offset="1" stop-opacity=".588"/></linearGradient><linearGradient x1="32.251" y1="6.132" x2="32.251" y2="90.239" id="i" xlink:href="#c" gradientUnits="userSpaceOnUse" gradientTransform="matrix(1.0238 0 0 1.0119 -1.143 -98.071)"/><linearGradient x1="32.251" y1="6.132" x2="32.251" y2="90.239" id="j" xlink:href="#c" gradientUnits="userSpaceOnUse" gradientTransform="matrix(1.0238 0 0 1.0119 -1.143 -98.071)"/><linearGradient x1="32.251" y1="6.132" x2="32.251" y2="90.239" id="k" xlink:href="#c" gradientUnits="userSpaceOnUse" gradientTransform="matrix(1.0238 0 0 1.0119 -1.143 -98.071)"/><linearGradient x1="32.251" y1="6.132" x2="32.251" y2="90.239" id="l" xlink:href="#c" gradientUnits="userSpaceOnUse" gradientTransform="translate(0 -97)"/><linearGradient x1="32.251" y1="6.132" x2="32.251" y2="90.239" id="h" xlink:href="#c" gradientUnits="userSpaceOnUse" gradientTransform="matrix(1.0238 0 0 1.0119 -1.143 -98.071)"/><linearGradient id="d"><stop offset="0" stop-color="#fff"/><stop offset="1" stop-color="#fff" stop-opacity="0"/></linearGradient><radialGradient cx="48" cy="90.172" r="42" fx="48" fy="90.172" id="o" xlink:href="#d" gradientUnits="userSpaceOnUse" gradientTransform="matrix(1.15731 0 0 .9959 -7.551 .197)"/><linearGradient id="e"><stop offset="0" stop-color="#fff"/><stop offset="1" stop-color="#fff" stop-opacity="0"/></linearGradient><clipPath id="p"><rect width="84" height="84" rx="6" ry="6" x="6" y="6" fill="#fff"/></clipPath><filter x="-.192" y="-.192" width="1.384" height="1.384" color-interpolation-filters="sRGB" id="r"><feGaussianBlur stdDeviation="5.28"/></filter><linearGradient x1="48" y1="20.221" x2="48" y2="138.661" id="q" xlink:href="#e" gradientUnits="userSpaceOnUse"/></defs><g transform="scale(1 -1)"><path d="M12-95.031c-5.511 0-10.031 4.52-10.031 10.031v71C1.969-8.489 6.489-3.969 12-3.969h72c5.511 0 10.031-4.52 10.031-10.031v-71c0-5.511-4.52-10.031-10.031-10.031H12z" opacity=".08" fill="url(#h)"/><path d="M12-94.031c-4.972 0-9.031 4.06-9.031 9.031v71c0 4.972 4.06 9.031 9.031 9.031h72c4.972 0 9.031-4.06 9.031-9.031v-71c0-4.972-4.06-9.031-9.031-9.031H12z" opacity=".1" fill="url(#i)"/><path d="M12-93c-4.41 0-8 3.59-8 8v71c0 4.41 3.59 8 8 8h72c4.41 0 8-3.59 8-8v-71c0-4.41-3.59-8-8-8H12z" opacity=".2" fill="url(#j)"/><rect width="86" height="85" rx="7" ry="7" x="5" y="-92" opacity=".3" fill="url(#k)"/><rect width="84" height="84" rx="6" ry="6" x="6" y="-91" opacity=".45" fill="url(#l)"/></g><rect width="84" height="84" rx="6" ry="6" x="6" y="6" fill="url(#m)"/><path d="M12 6c-3.324 0-6 2.676-6 6v72c0 .335.041.65.094.969.048.295.097.597.187.875l.032.094c.098.287.234.547.375.812.144.274.315.536.5.781a6.105 6.105 0 0 0 2.094 1.781c.278.14.573.247.874.344a4.843 4.843 0 0 1-.719-.375c-.007-.004-.023.005-.03 0-.033-.02-.063-.042-.095-.062-.12-.077-.23-.164-.343-.25-.106-.081-.214-.161-.313-.25a5.042 5.042 0 0 1-.5-.531 5.092 5.092 0 0 1-.312-.407c-.025-.038-.039-.086-.063-.125-.065-.103-.13-.204-.187-.312a5.371 5.371 0 0 1-.282-.625c-.007-.022-.023-.04-.03-.063-.033-.092-.037-.187-.063-.281-.03-.107-.07-.203-.094-.313A5.098 5.098 0 0 1 7 85V13c0-2.782 2.218-5 5-5h72c2.782 0 5 2.218 5 5v72c0 .364-.052.721-.125 1.063a4.896 4.896 0 0 1-.156.593c-.008.022-.024.04-.031.063a5.482 5.482 0 0 1-.22.531c-.04.083-.078.17-.124.25-.055.097-.127.188-.188.281a5.092 5.092 0 0 1-.312.406 5.05 5.05 0 0 1-.469.5l-.031.032a4.818 4.818 0 0 1-.438.344c-.102.073-.204.153-.312.218-.008.005-.024-.004-.031 0a4.843 4.843 0 0 1-.72.375c.302-.097.597-.204.876-.344a6.105 6.105 0 0 0 2.094-1.78c.184-.246.355-.508.5-.782a5.69 5.69 0 0 0 .374-.813l.032-.093c.09-.278.139-.58.187-.875.053-.318.094-.634.094-.969V12c0-3.324-2.676-6-6-6H12z" opacity=".6" fill="url(#n)"/><path d="M12 90c-3.324 0-6-2.676-6-6V12c0-.335.041-.65.094-.969.048-.295.097-.597.187-.875l.032-.094a5.69 5.69 0 0 1 .375-.812c.144-.274.315-.536.5-.781a6.105 6.105 0 0 1 2.094-1.781c.278-.14.573-.247.874-.344-.256.1-.486.236-.719.375-.007.004-.023-.005-.03 0-.033.019-.063.042-.095.062-.12.077-.23.164-.343.25-.106.081-.214.161-.313.25a5.042 5.042 0 0 0-.5.532c-.107.13-.218.265-.312.406-.025.038-.039.086-.063.125-.065.103-.13.204-.187.312a5.371 5.371 0 0 0-.282.625c-.007.022-.023.04-.03.063-.033.092-.037.187-.063.281-.03.107-.07.203-.094.313A5.098 5.098 0 0 0 7 11v72c0 2.782 2.218 5 5 5h72c2.782 0 5-2.218 5-5V11c0-.364-.052-.721-.125-1.063a4.896 4.896 0 0 0-.156-.593c-.008-.022-.024-.04-.031-.063a5.482 5.482 0 0 0-.22-.531c-.04-.083-.078-.17-.124-.25-.055-.097-.127-.188-.188-.281a5.092 5.092 0 0 0-.312-.406 5.05 5.05 0 0 0-.469-.5l-.031-.032a4.818 4.818 0 0 0-.438-.343c-.102-.074-.204-.154-.312-.22-.008-.004-.024.005-.031 0a4.843 4.843 0 0 0-.72-.374c.302.097.597.204.876.343a6.105 6.105 0 0 1 2.094 1.782c.184.245.355.507.5.781.14.265.276.525.374.813l.032.093c.09.278.139.58.187.875.053.318.094.634.094.969v72c0 3.324-2.676 6-6 6H12z" opacity=".4" fill="url(#o)"/><g><rect width="66" height="66" rx="12" ry="12" x="15" y="15" clip-path="url(#p)" opacity=".5" fill="url(#q)" stroke="#fff" stroke-width=".5" stroke-linecap="round" filter="url(#r)"/></g><g><path d="M61.407 32.926c.044 1.173-.342 1.744-.691 2.752l-.628.312c-.513.997.05.633-.317 1.426-.802.713-2.43 2.229-2.952 2.368-.382-.009.257-.45.341-.622-1.073.736-.861 1.105-2.502 1.553l-.048-.107c-4.045 1.904-9.665-1.868-9.59-7.014-.044.326-.124.245-.213.376-.209-2.647 1.223-5.306 3.637-6.394 2.362-1.168 5.13-.69 6.821.889-.928-1.217-2.778-2.508-4.969-2.388-2.147.035-4.156 1.399-4.826 2.88-1.1.693-1.228 2.67-1.707 3.032-.645 4.74 1.213 6.787 4.356 9.196.494.333.14.384.205.637a8.526 8.526 0 0 1-2.786-2.13c.417.61.868 1.204 1.45 1.67-.985-.333-2.301-2.386-2.684-2.47 1.697 3.04 6.885 5.33 9.603 4.194-1.258.046-2.855.025-4.267-.497-.595-.305-1.4-.937-1.256-1.055 3.708 1.384 7.538 1.048 10.746-1.523.817-.637 1.708-1.718 1.966-1.733-.388.584.067.281-.232.796.812-1.311-.354-.534.84-2.265l.441.607c-.165-1.09 1.353-2.411 1.199-4.133.348-.527.388.567.018 1.778.513-1.344.136-1.56.267-2.67.141.374.33.77.425 1.164-.334-1.3.341-2.187.51-2.942-.167-.073-.516.574-.596-.96.012-.666.186-.35.252-.513-.13-.076-.473-.586-.682-1.566.15-.23.404.597.61.63-.132-.778-.36-1.372-.37-1.97-.602-1.258-.213.168-.7-.54-.642-1.998.53-.464.61-1.37.97 1.405 1.524 3.586 1.779 4.488a18.38 18.38 0 0 0-.89-3.2c.295.125-.476-2.264.383-.682-.917-3.372-3.923-6.524-6.688-8.003.337.31.764.698.611.76-1.376-.819-1.134-.883-1.331-1.23-1.12-.455-1.194.038-1.935.002-2.112-1.121-2.52-1.002-4.463-1.703l.088.414c-1.399-.467-1.63.175-3.142 0-.092-.07.485-.26.96-.328-1.353.178-1.29-.267-2.614.049.326-.229.672-.381 1.02-.575-1.104.067-2.635.642-2.162.118-1.8.803-4.995 1.93-6.789 3.612l-.056-.376c-.822.986-3.584 2.945-3.804 4.224l-.22.051c-.427.724-.704 1.544-1.043 2.289-.559.953-.82.367-.74.517-1.1 2.23-1.647 4.103-2.119 5.64.336.503.009 3.027.135 5.047-.551 9.977 7.002 19.663 15.259 21.898 1.21.434 3.01.419 4.54.461-1.806-.516-2.039-.273-3.799-.886-1.269-.599-1.546-1.281-2.446-2.062l.356.63c-1.763-.625-1.025-.773-2.46-1.227l.38-.496c-.57-.043-1.513-.962-1.77-1.473l-.626.025c-.75-.925-1.151-1.594-1.122-2.112l-.202.36c-.228-.393-2.763-3.476-1.448-2.758-.245-.223-.57-.363-.922-1.004l.268-.305c-.632-.815-1.164-1.858-1.124-2.206.338.456.572.541.804.62-1.598-3.965-1.688-.219-2.898-4.036l.256-.02c-.196-.297-.316-.617-.473-.933l.111-1.11c-1.15-1.328-.321-5.654-.155-8.027.115-.964.96-1.991 1.603-3.602l-.391-.067c.748-1.306 4.274-5.245 5.908-5.043.79-.993-.158-.003-.312-.253 1.738-1.798 2.284-1.27 3.457-1.594 1.264-.75-1.086.293-.486-.286 2.186-.558 1.549-1.27 4.4-1.553.302.171-.697.264-.948.486 1.822-.891 5.764-.688 8.327.495 2.97 1.389 6.31 5.494 6.442 9.356l.15.04c-.076 1.536.235 3.312-.304 4.943l.364-.773" fill="#d70751"/><path d="M28.117 74.955c-.022.022-.022 3.645-.067 4.59-.044.765-.112 2.408-1.732 2.408-1.666 0-2.07-1.913-2.206-2.745-.157-.923-.157-1.689-.157-2.025 0-1.08.067-4.097 2.61-4.097.766 0 1.193.226 1.53.405l.022 1.464zm-6.525 2.656c0 6.345 3.375 6.345 3.87 6.345 1.396 0 2.296-.766 2.678-2.093l.045 2.002c.428-.022.855-.067 1.553-.067.247 0 .45 0 .63.023.18 0 .36.022.563.044-.36-.72-.63-2.34-.63-5.85 0-3.421 0-9.204.292-10.96-.81.384-1.508.631-3.038.766.607.652.607.99.607 3.96a5.685 5.685 0 0 0-1.89-.293c-4.027 0-4.68 3.511-4.68 6.123M33.796 76.462c.023-1.868.405-3.533 2.003-3.533 1.755 0 1.89 1.934 1.844 3.533h-3.847zm6.075.225c0-2.633-.517-5.221-3.848-5.221-4.59 0-4.59 5.087-4.59 6.166 0 4.568 2.048 6.368 5.49 6.368 1.53 0 2.273-.224 2.678-.338-.022-.81.09-1.327.226-2.025-.473.294-1.08.676-2.43.676-3.511 0-3.557-3.197-3.557-4.299h5.987l.044-1.327M47.192 77.655c0 2.092-.382 4.906-2.993 4.906-.36 0-.81-.069-1.102-.136-.045-.81-.045-2.205-.045-3.825 0-1.936.202-2.947.36-3.443.472-1.598 1.53-1.62 1.732-1.62 1.71 0 2.048 2.363 2.048 4.118zm-6.458 2.453c0 1.665 0 2.61-.27 3.33.923.36 2.07.562 3.443.562.878 0 3.42 0 4.793-2.812.652-1.306.877-3.061.877-4.389 0-.81-.09-2.587-.742-3.713-.63-1.057-1.643-1.597-2.722-1.597-2.16 0-2.79 1.8-3.128 2.723 0-1.148.022-5.153.202-7.201-1.462.675-2.363.787-3.33.877.877.36.877 1.846.877 6.684v5.536M53.903 83.865a8.04 8.04 0 0 0-1.419-.112c-.718 0-1.215.045-1.731.112.224-.427.314-.63.382-2.092.09-2.003.112-7.36-.045-8.485-.113-.855-.315-.99-.63-1.215 1.845-.18 2.363-.314 3.218-.72-.18.99-.203 1.486-.203 2.993-.045 7.765-.067 8.597.428 9.52M61.11 77.496c-.046 1.418-.068 2.409-.452 3.196-.472 1.013-1.26 1.305-1.844 1.305-1.352 0-1.643-1.124-1.643-2.227 0-2.115 1.89-2.274 2.744-2.274h1.194zm-6.19 2.769c0 1.418.428 2.835 1.689 3.443.562.248 1.125.248 1.305.248 2.07 0 2.768-1.53 3.196-2.476-.023.99 0 1.597.067 2.385.405-.022.81-.067 1.486-.067.382 0 .742.045 1.124.067-.247-.382-.382-.608-.45-1.485-.045-.855-.045-1.71-.045-2.903l.023-4.59c0-1.711-.45-3.399-3.826-3.399-2.228 0-3.532.676-4.185 1.013.27.496.495.922.697 1.89.879-.765 2.026-1.17 3.196-1.17 1.868 0 1.868 1.238 1.868 2.993-.427-.022-.788-.067-1.396-.067-2.859 0-4.749 1.102-4.749 4.118M74.07 81.638c.023.765.023 1.575.338 2.228-.496-.045-.788-.113-1.71-.113-.54 0-.833.046-1.26.113.089-.292.135-.405.18-.788.067-.517.112-2.25.112-2.858v-2.43c0-1.058 0-2.589-.068-3.128-.045-.382-.156-1.417-1.463-1.417-1.282 0-1.71.944-1.868 1.71-.179.787-.179 1.643-.179 4.972.022 2.881.022 3.15.247 3.938-.382-.044-.855-.089-1.53-.089-.54 0-.9.022-1.35.09.158-.36.248-.541.293-1.8.046-1.239.135-7.315-.068-8.754-.112-.879-.338-1.08-.585-1.306 1.823-.09 2.408-.383 2.97-.674v2.384c.27-.698.833-2.25 3.084-2.25 2.813 0 2.835 2.047 2.858 3.397v6.775"/><path d="M54.093 68.169l-1.864 1.863-1.863-1.863 1.863-1.863 1.864 1.863" fill="#d70751"/></g></svg>