<svg xmlns="http://www.w3.org/2000/svg" xmlns:xlink="http://www.w3.org/1999/xlink" version="1.0" width="96" height="96"><defs><linearGradient id="i"><stop offset="0" stop-color="#2f2f2f"/><stop offset=".437" stop-color="#fff"/><stop offset=".621" stop-color="#979797"/><stop offset=".772" stop-color="#505050"/><stop offset="1" stop-color="#e6e6e6"/></linearGradient><linearGradient id="h"><stop offset="0" stop-color="#ededed"/><stop offset="1" stop-color="#b0b0b0"/></linearGradient><linearGradient id="g"><stop offset="0" stop-color="#a2a2a2"/><stop offset="1" stop-color="#fff"/></linearGradient><linearGradient id="e"><stop offset="0" stop-color="#b4b4b4"/><stop offset=".205" stop-color="#646464"/><stop offset=".496" stop-color="#fff"/><stop offset="1" stop-color="#3c3c3c"/></linearGradient><linearGradient id="f"><stop offset="0" stop-color="#fff"/><stop offset=".49" stop-color="#8c8c8c"/><stop offset=".5" stop-color="#cfcfcf"/><stop offset=".623" stop-color="#fff"/><stop offset=".817" stop-color="#c8c8c8"/><stop offset="1" stop-color="#505050"/></linearGradient><linearGradient id="b"><stop offset="0" stop-color="#818181"/><stop offset=".2" stop-color="#f9f9f9"/><stop offset="1" stop-color="#dcdcdc" stop-opacity="0"/></linearGradient><linearGradient id="c"><stop offset="0" stop-color="#dcdcdc"/><stop offset="1" stop-color="#fafafa"/></linearGradient><linearGradient x1="45.448" y1="92.54" x2="45.448" y2="7.017" id="k" gradientUnits="userSpaceOnUse" gradientTransform="scale(1.00587 .99417)"><stop offset="0"/><stop offset="1" stop-opacity=".588"/></linearGradient><linearGradient id="a"><stop offset="0" stop-color="#fff"/><stop offset="1" stop-color="#fff" stop-opacity="0"/></linearGradient><linearGradient id="d"><stop offset="0" stop-color="#b4b4b4"/><stop offset="1" stop-color="#dcdcdc"/></linearGradient><filter color-interpolation-filters="sRGB" id="l"><feGaussianBlur stdDeviation="1.71"/></filter><linearGradient x1="19.036" y1="74" x2="87.5" y2="27.429" id="v" xlink:href="#a" gradientUnits="userSpaceOnUse"/><linearGradient x1="6" y1="73" x2="24" y2="73" id="s" xlink:href="#b" gradientUnits="userSpaceOnUse"/><linearGradient x1="6" y1="73" x2="24" y2="73" id="t" xlink:href="#b" gradientUnits="userSpaceOnUse" gradientTransform="matrix(-1 0 0 1 96 0)"/><linearGradient x1="38.748" y1="65.59" x2="38.748" y2="5.833" id="u" xlink:href="#c" gradientUnits="userSpaceOnUse"/><radialGradient cx="90" cy="90" r="42" fx="90" fy="90" id="r" xlink:href="#d" gradientUnits="userSpaceOnUse" gradientTransform="matrix(0 -1.08503 2 0 -90 187.653)"/><clipPath id="y"><path d="M66 6v55c0 1.662 1.338 3 3 3h6c1.662 0 3-1.338 3-3V6h-4v2h-4V6h-4z" fill="#fff"/></clipPath><filter x="-.166" y="-.037" width="1.332" height="1.073" color-interpolation-filters="sRGB" id="z"><feGaussianBlur stdDeviation=".9"/></filter><linearGradient x1="68.75" y1="59" x2="75.25" y2="59" id="x" xlink:href="#e" gradientUnits="userSpaceOnUse" gradientTransform="translate(0 -1)"/><linearGradient x1="69" y1="54" x2="73" y2="54" id="A" xlink:href="#f" gradientUnits="userSpaceOnUse" gradientTransform="translate(0 -1)"/><linearGradient x1="63.485" y1="64.163" x2="79" y2="65" id="P" xlink:href="#g" gradientUnits="userSpaceOnUse"/><filter x="-.162" y="-.095" width="1.324" height="1.191" color-interpolation-filters="sRGB" id="Q"><feGaussianBlur stdDeviation=".536"/></filter><linearGradient x1="68.969" y1="17.5" x2="75.063" y2="17.5" id="S" xlink:href="#h" gradientUnits="userSpaceOnUse" gradientTransform="matrix(-1 0 0 1 144.031 -2)"/><linearGradient x1="68.029" y1="17.763" x2="75.971" y2="17.763" id="R" xlink:href="#h" gradientUnits="userSpaceOnUse" gradientTransform="translate(0 -2)"/><linearGradient x1="68.75" y1="59" x2="72.251" y2="59" id="T" xlink:href="#e" gradientUnits="userSpaceOnUse" gradientTransform="matrix(1.12627 0 0 1 -7.402 -49.5)"/><linearGradient x1="69" y1="54" x2="73" y2="54" id="I" xlink:href="#i" gradientUnits="userSpaceOnUse" gradientTransform="matrix(-1 0 0 1 144 -4)"/><clipPath id="w"><path d="M10.688 67.906c-2.217 0-4 1.784-4 4v32.406c0 2.217 1.784 4 4 4H49.78c2.216 0 4-1.783 4-4V71.906c0-2.216-1.784-4-4-4H10.688zM23.343 80c.67 0 1.25.105 1.75.313.5.194.928.466 1.281.843.366.378.656.851.875 1.375.231.524.397 1.085.531 1.719l-1.531.531a7.934 7.934 0 0 0-.406-1.281 3.268 3.268 0 0 0-.563-.969 2.068 2.068 0 0 0-.812-.594c-.305-.146-.687-.218-1.125-.218-.695 0-1.256.152-1.719.469-.45.304-.814.707-1.094 1.218a6.01 6.01 0 0 0-.593 1.688c-.11.621-.157 1.253-.157 1.875 0 .621.047 1.222.157 1.844a6.01 6.01 0 0 0 .593 1.687c.28.5.631.902 1.094 1.219.463.304 1.055.469 1.75.469.244 0 .494-.033.75-.094.268-.061.506-.14.75-.25.256-.11.5-.229.719-.375.22-.146.423-.317.593-.5V88.5h-3.062v-1.688h4.813v6.97h-1.72v-.813c-.414.243-.88.468-1.343.687-.45.232-.907.344-1.406.344-.987 0-1.837-.21-2.532-.625a5.156 5.156 0 0 1-1.687-1.594 6.867 6.867 0 0 1-.969-2.219 10.926 10.926 0 0 1-.281-2.5c0-.816.098-1.628.281-2.468.183-.841.461-1.611.875-2.281a5.006 5.006 0 0 1 1.657-1.657c.682-.438 1.532-.656 2.53-.656zm7.25 0h7.781v1.906c-.22.352-.477.778-.781 1.281-.293.491-.616 1.016-.969 1.594-.353.579-.704 1.202-1.094 1.844-.39.642-.785 1.296-1.187 1.938-.39.641-.786 1.258-1.188 1.874-.402.617-.81 1.178-1.187 1.72h6.593V94H30v-1.969l5.344-8.719c.17-.264.341-.498.5-.75.17-.251.348-.53.531-.78h-5.781V80z" fill="#fff"/></clipPath><linearGradient x1="45.448" y1="92.54" x2="45.448" y2="7.017" id="j" gradientUnits="userSpaceOnUse" gradientTransform="matrix(1.00587 0 0 .99417 100 0)"><stop offset="0"/><stop offset="1" stop-opacity=".588"/></linearGradient><linearGradient x1="32.251" y1="6.132" x2="32.251" y2="90.239" id="n" xlink:href="#j" gradientUnits="userSpaceOnUse" gradientTransform="matrix(1.0238 0 0 1.0119 -1.143 -98.071)"/><linearGradient x1="32.251" y1="6.132" x2="32.251" y2="90.239" id="o" xlink:href="#j" gradientUnits="userSpaceOnUse" gradientTransform="matrix(1.0238 0 0 1.0119 -1.143 -98.071)"/><linearGradient x1="32.251" y1="6.132" x2="32.251" y2="90.239" id="p" xlink:href="#j" gradientUnits="userSpaceOnUse" gradientTransform="matrix(1.0238 0 0 1.0119 -1.143 -98.071)"/><linearGradient x1="32.251" y1="6.132" x2="32.251" y2="90.239" id="q" xlink:href="#j" gradientUnits="userSpaceOnUse" gradientTransform="translate(0 -97)"/><linearGradient x1="32.251" y1="6.132" x2="32.251" y2="90.239" id="m" xlink:href="#j" gradientUnits="userSpaceOnUse" gradientTransform="matrix(1.0238 0 0 1.0119 -1.143 -98.071)"/></defs><g transform="scale(1 -1)"><path d="M12-95.031c-5.511 0-10.031 4.52-10.031 10.031v71C1.969-8.489 6.489-3.969 12-3.969h72c5.511 0 10.031-4.52 10.031-10.031v-71c0-5.511-4.52-10.031-10.031-10.031H12z" opacity=".08" fill="url(#m)"/><path d="M12-94.031c-4.972 0-9.031 4.06-9.031 9.031v71c0 4.972 4.06 9.031 9.031 9.031h72c4.972 0 9.031-4.06 9.031-9.031v-71c0-4.972-4.06-9.031-9.031-9.031H12z" opacity=".1" fill="url(#n)"/><path d="M12-93c-4.41 0-8 3.59-8 8v71c0 4.41 3.59 8 8 8h72c4.41 0 8-3.59 8-8v-71c0-4.41-3.59-8-8-8H12z" opacity=".2" fill="url(#o)"/><rect width="86" height="85" rx="7" ry="7" x="5" y="-92" opacity=".3" fill="url(#p)"/><rect width="84" height="84" rx="6" ry="6" x="6" y="-91" opacity=".45" fill="url(#q)"/></g><path d="M12 6c-3.324 0-6 2.676-6 6v72c0 3.324 2.676 6 6 6h72c3.324 0 6-2.676 6-6V12c0-3.324-2.676-6-6-6h-9v3h-6V6H12z" fill="url(#r)"/><path d="M6 56v28c0 3.324 2.676 6 6 6h12V56H6z" fill="url(#s)"/><path d="M90 56v28c0 3.324-2.676 6-6 6H72V56h18z" fill="url(#t)"/><path d="M6 82v2c0 3.324 2.676 6 6 6h72c3.324 0 6-2.676 6-6v-2c0 3.324-2.676 6-6 6H12c-3.324 0-6-2.676-6-6z" opacity=".15"/><path d="M6 78v2c0 3.324 2.676 6 6 6h72c3.324 0 6-2.676 6-6v-2c0 3.324-2.676 6-6 6H12c-3.324 0-6-2.676-6-6z" opacity=".8" fill="#fff"/><path d="M6 76v2c0 3.324 2.676 6 6 6h72c3.324 0 6-2.676 6-6v-2c0 3.324-2.676 6-6 6H12c-3.324 0-6-2.676-6-6z" opacity=".15"/><path d="M6 72v2c0 3.324 2.676 6 6 6h72c3.324 0 6-2.676 6-6v-2c0 3.324-2.676 6-6 6H12c-3.324 0-6-2.676-6-6z" opacity=".8" fill="#fff"/><path d="M6 70v2c0 3.324 2.676 6 6 6h72c3.324 0 6-2.676 6-6v-2c0 3.324-2.676 6-6 6H12c-3.324 0-6-2.676-6-6z" opacity=".15"/><path d="M12 6c-3.324 0-6 2.676-6 6v56c0 3.324 2.676 6 6 6h72c3.324 0 6-2.676 6-6V12c0-3.324-2.676-6-6-6h-9v3h-6V6H12z" fill="url(#u)"/><path d="M12 6c-3.324 0-6 2.676-6 6v56c0 3.324 2.676 6 6 6h72c3.324 0 6-2.676 6-6V12c0-3.324-2.676-6-6-6h-9v2h9c2.246 0 4 1.754 4 4v56c0 2.246-1.754 4-4 4H12c-2.246 0-4-1.754-4-4V12c0-2.246 1.754-4 4-4h57V6H12z" fill="url(#v)"/><g><path d="M23.344 50c-1 0-1.85.218-2.532.656a5.006 5.006 0 0 0-1.656 1.657c-.414.67-.692 1.44-.875 2.28-.183.841-.281 1.653-.281 2.47 0 .828.086 1.671.281 2.5.195.816.53 1.56.969 2.218.439.658.993 1.18 1.688 1.594.694.414 1.544.625 2.53.625.5 0 .956-.112 1.407-.344.463-.22.93-.444 1.344-.687v.812h1.718v-6.968h-4.812V58.5h3.063v2.469c-.171.183-.375.354-.594.5-.22.146-.463.265-.719.375-.244.11-.482.189-.75.25a3.24 3.24 0 0 1-.75.093c-.695 0-1.287-.164-1.75-.468a3.512 3.512 0 0 1-1.094-1.219 6.01 6.01 0 0 1-.593-1.688 10.464 10.464 0 0 1-.157-1.843c0-.622.047-1.254.157-1.875a6.01 6.01 0 0 1 .593-1.688c.28-.511.643-.914 1.094-1.218.463-.317 1.024-.47 1.719-.47.438 0 .82.073 1.125.22.317.134.593.325.812.593.232.268.417.591.563.969.158.378.296.806.406 1.281l1.531-.531a8.612 8.612 0 0 0-.531-1.719c-.22-.524-.51-.997-.875-1.375a3.41 3.41 0 0 0-1.281-.843c-.5-.208-1.08-.313-1.75-.313zm7.25 0v1.781h5.781c-.183.252-.36.53-.531.782-.159.251-.33.485-.5.75L30 62.03V64h8.563v-1.844h-6.594c.377-.54.785-1.102 1.187-1.718.402-.617.798-1.234 1.188-1.876.402-.641.797-1.295 1.187-1.937.39-.642.74-1.265 1.094-1.844.353-.578.676-1.103.969-1.593.304-.504.562-.93.781-1.282V50h-7.781z" style="text-align:start;line-height:120.00000477%;-inkscape-font-specification:BabelSans Bold" font-size="18.277" font-weight="700" opacity=".05" fill="none" stroke="#fff" stroke-width="6" font-family="BabelSans"/><path d="M23.344 80c-1 0-1.85.218-2.532.656a5.006 5.006 0 0 0-1.656 1.656c-.414.67-.692 1.441-.875 2.282-.183.84-.281 1.652-.281 2.469 0 .828.086 1.671.281 2.5.195.816.53 1.56.969 2.218.439.658.993 1.18 1.688 1.594.694.414 1.544.625 2.53.625.5 0 .956-.112 1.407-.344.463-.22.93-.444 1.344-.687v.812h1.718v-6.969h-4.812V88.5h3.063v2.469c-.171.183-.375.354-.594.5-.22.146-.463.265-.719.375-.244.11-.482.189-.75.25a3.24 3.24 0 0 1-.75.094c-.695 0-1.287-.165-1.75-.47a3.512 3.512 0 0 1-1.094-1.218 6.01 6.01 0 0 1-.593-1.688 10.464 10.464 0 0 1-.157-1.843c0-.622.047-1.254.157-1.875a6.01 6.01 0 0 1 .593-1.688c.28-.511.643-.914 1.094-1.219.463-.316 1.024-.468 1.719-.468.438 0 .82.072 1.125.219.317.134.593.325.812.593.232.268.417.591.563.969.158.378.296.806.406 1.281l1.531-.531a8.612 8.612 0 0 0-.531-1.719c-.22-.524-.51-.997-.875-1.375a3.41 3.41 0 0 0-1.281-.844c-.5-.207-1.08-.312-1.75-.312zm7.25 0v1.781h5.781c-.183.252-.36.53-.531.781-.159.252-.33.486-.5.75L30 92.032V94h8.563v-1.844h-6.594c.377-.54.785-1.102 1.187-1.719.402-.616.798-1.233 1.188-1.874.402-.642.797-1.296 1.187-1.938.39-.642.74-1.265 1.094-1.844.353-.578.676-1.103.969-1.594.304-.503.562-.929.781-1.28V80h-7.781z" transform="translate(0 -30)" clip-path="url(#w)" style="text-align:start;line-height:120.00000477%;-inkscape-font-specification:BabelSans Bold" font-size="18.277" font-weight="700" opacity=".2" fill="none" stroke="#fff" stroke-width="4" font-family="BabelSans"/><path d="M23.344 80c-1 0-1.85.218-2.532.656a5.006 5.006 0 0 0-1.656 1.656c-.414.67-.692 1.441-.875 2.282-.183.84-.281 1.652-.281 2.469 0 .828.086 1.671.281 2.5.195.816.53 1.56.969 2.218.439.658.993 1.18 1.688 1.594.694.414 1.544.625 2.53.625.5 0 .956-.112 1.407-.344.463-.22.93-.444 1.344-.687v.812h1.718v-6.969h-4.812V88.5h3.063v2.469c-.171.183-.375.354-.594.5-.22.146-.463.265-.719.375-.244.11-.482.189-.75.25a3.24 3.24 0 0 1-.75.094c-.695 0-1.287-.165-1.75-.47a3.512 3.512 0 0 1-1.094-1.218 6.01 6.01 0 0 1-.593-1.688 10.464 10.464 0 0 1-.157-1.843c0-.622.047-1.254.157-1.875a6.01 6.01 0 0 1 .593-1.688c.28-.511.643-.914 1.094-1.219.463-.316 1.024-.468 1.719-.468.438 0 .82.072 1.125.219.317.134.593.325.812.593.232.268.417.591.563.969.158.378.296.806.406 1.281l1.531-.531a8.612 8.612 0 0 0-.531-1.719c-.22-.524-.51-.997-.875-1.375a3.41 3.41 0 0 0-1.281-.844c-.5-.207-1.08-.312-1.75-.312zm7.25 0v1.781h5.781c-.183.252-.36.53-.531.781-.159.252-.33.486-.5.75L30 92.032V94h8.563v-1.844h-6.594c.377-.54.785-1.102 1.187-1.719.402-.616.798-1.233 1.188-1.874.402-.642.797-1.296 1.187-1.938.39-.642.74-1.265 1.094-1.844.353-.578.676-1.103.969-1.594.304-.503.562-.929.781-1.28V80h-7.781z" transform="translate(0 -30)" clip-path="url(#w)" style="text-align:start;line-height:120.00000477%;-inkscape-font-specification:BabelSans Bold" font-size="18.277" font-weight="700" opacity=".6" fill="none" stroke="#fff" stroke-width="2" font-family="BabelSans"/><path d="M66 6v55c0 1.662 1.338 3 3 3h6c1.662 0 3-1.338 3-3V6h-4v2h-4V6h-4z" fill="#252525"/><path fill="#4d4d4d" d="M70 8h4v49h-4z"/><rect width="6" height="4" rx="1" ry="1" x="69" y="56" fill="url(#x)" stroke="#000" stroke-width=".5" stroke-linecap="square" stroke-opacity=".564"/><path d="M66 6v55c0 1.662 1.338 3 3 3h6c1.662 0 3-1.338 3-3V6h-4v2h-4V6h-4z" clip-path="url(#y)" fill="none" stroke="#000" stroke-width="2" stroke-linecap="square" filter="url(#z)"/><path d="M69.5 51a.5.5 0 0 0-.5.5v3c0 .282.23.5.5.5h1a.5.5 0 0 0 .5-.5V54h1.5c.277 0 .5-.223.5-.5v-1c0-.277-.223-.5-.5-.5H71v-.5a.5.5 0 0 0-.5-.5h-1z" id="B" fill="url(#A)" fill-opacity="1" fill-rule="nonzero" stroke="#000" stroke-width=".5" stroke-linecap="square" stroke-linejoin="miter" stroke-miterlimit="4" stroke-opacity=".564" stroke-dasharray="none" stroke-dashoffset="0"/><use transform="translate(0 -6)" id="C" x="0" y="0" width="96" height="96" xlink:href="#B"/><use transform="translate(0 -6)" id="D" x="0" y="0" width="96" height="96" xlink:href="#C"/><use transform="translate(0 -6)" id="E" x="0" y="0" width="96" height="96" xlink:href="#D"/><use transform="translate(0 -6)" id="F" x="0" y="0" width="96" height="96" xlink:href="#E"/><use transform="translate(0 -6)" id="G" x="0" y="0" width="96" height="96" xlink:href="#F"/><use transform="translate(0 -6)" id="H" x="0" y="0" width="96" height="96" xlink:href="#G"/><use transform="translate(0 -6)" width="96" height="96" xlink:href="#H"/><path d="M74.5 48a.5.5 0 0 1 .5.5v3a.5.5 0 0 1-.5.5h-1a.5.5 0 0 1-.5-.5V51h-1.5a.499.499 0 0 1-.5-.5v-1c0-.277.223-.5.5-.5H73v-.5a.5.5 0 0 1 .5-.5h1z" id="J" fill="url(#I)" fill-opacity="1" fill-rule="nonzero" stroke="#000" stroke-width=".5" stroke-linecap="square" stroke-linejoin="miter" stroke-miterlimit="4" stroke-opacity=".564" stroke-dasharray="none" stroke-dashoffset="0"/><use transform="translate(0 -6)" id="K" x="0" y="0" width="96" height="96" xlink:href="#J"/><use transform="translate(0 -6)" id="L" x="0" y="0" width="96" height="96" xlink:href="#K"/><use transform="translate(0 -6)" id="M" x="0" y="0" width="96" height="96" xlink:href="#L"/><use transform="translate(0 -6)" id="N" x="0" y="0" width="96" height="96" xlink:href="#M"/><use transform="translate(0 -6)" id="O" x="0" y="0" width="96" height="96" xlink:href="#N"/><use transform="translate(0 -6)" width="96" height="96" xlink:href="#O"/><path d="M65 6v55c0 2.202 1.798 4 4 4h6c2.202 0 4-1.798 4-4V6h-1v55c0 1.662-1.338 3-3 3h-6c-1.662 0-3-1.338-3-3V6h-1z" fill="url(#P)"/><path d="M69.5 10.531c-1.028 0-1.969.765-1.969 1.813v10.812c0 1.048.918 1.844 1.969 1.844h5c1.05 0 1.969-.796 1.969-1.844V12.344c0-1.048-.941-1.813-1.969-1.813h-5zm1.063 9.063h2.874v1.75h-2.874v-1.75z" transform="translate(0 -2)" stroke="#000" stroke-width=".5" stroke-linecap="square" stroke-opacity=".564" filter="url(#Q)"/><path d="M69.23 9.021c-.688 0-1.23.483-1.23 1.082l-.005 10.815c0 .6.542 1.082 1.23 1.082h5.582c.688 0 1.23-.482 1.23-1.082l.005-10.815c0-.6-.542-1.082-1.23-1.082H69.23zm.704 7.95h4.1v3.118h-4.1v-3.118z" fill="url(#R)"/><path d="M74.563 9.969c.276 0 .5.223.5.5V20.53c0 .277-.224.5-.5.5h-5.094a.499.499 0 0 1-.5-.5V10.47c0-.277.223-.5.5-.5h5.094zm-.438 6.969H70v3.125h4.125v-3.125z" fill="url(#S)"/><rect width="3.379" height="5" rx=".563" ry=".5" x="70.311" y="7.5" fill="url(#T)" stroke="#000" stroke-linecap="square" stroke-opacity=".564"/><path opacity=".3" d="M69.985 16h4v1h-4z"/><path d="M23.344 50c-1 0-1.85.218-2.532.656a5.006 5.006 0 0 0-1.656 1.657c-.414.67-.692 1.44-.875 2.28-.183.841-.281 1.653-.281 2.47 0 .828.086 1.671.281 2.5.195.816.53 1.56.969 2.218.439.658.993 1.18 1.688 1.594.694.414 1.544.625 2.53.625.5 0 .956-.112 1.407-.344.463-.22.93-.444 1.344-.687v.812h1.718v-6.968h-4.812V58.5h3.063v2.469c-.171.183-.375.354-.594.5-.22.146-.463.265-.719.375-.244.11-.482.189-.75.25a3.24 3.24 0 0 1-.75.093c-.695 0-1.287-.164-1.75-.468a3.512 3.512 0 0 1-1.094-1.219 6.01 6.01 0 0 1-.593-1.688 10.464 10.464 0 0 1-.157-1.843c0-.622.047-1.254.157-1.875a6.01 6.01 0 0 1 .593-1.688c.28-.511.643-.914 1.094-1.218.463-.317 1.024-.47 1.719-.47.438 0 .82.073 1.125.22.317.134.593.325.812.593.232.268.417.591.563.969.158.378.296.806.406 1.281l1.531-.531a8.612 8.612 0 0 0-.531-1.719c-.22-.524-.51-.997-.875-1.375a3.41 3.41 0 0 0-1.281-.843c-.5-.208-1.08-.313-1.75-.313zm7.25 0v1.781h5.781c-.183.252-.36.53-.531.782-.159.251-.33.485-.5.75L30 62.03V64h8.563v-1.844h-6.594c.377-.54.785-1.102 1.187-1.718.402-.617.798-1.234 1.188-1.876.402-.641.797-1.295 1.187-1.937.39-.642.74-1.265 1.094-1.844.353-.578.676-1.103.969-1.593.304-.504.562-.93.781-1.282V50h-7.781z" style="text-align:start;line-height:120.00000477%;-inkscape-font-specification:BabelSans Bold" font-size="18.277" font-weight="700" fill="#333" font-family="BabelSans"/><path d="M23.344 50c-1 0-1.85.218-2.532.656a5.006 5.006 0 0 0-1.656 1.657c-.414.67-.692 1.44-.875 2.28-.183.841-.281 1.653-.281 2.47 0 .165.024.333.031.5.032-.649.105-1.301.25-1.97.183-.84.461-1.61.875-2.28a5.006 5.006 0 0 1 1.657-1.657c.682-.438 1.532-.656 2.53-.656.67 0 1.251.105 1.75.313.5.194.929.466 1.282.843.366.378.656.851.875 1.375.112.253.228.507.313.782l.218-.063a8.612 8.612 0 0 0-.531-1.719c-.22-.524-.51-.997-.875-1.375a3.41 3.41 0 0 0-1.281-.843c-.5-.208-1.08-.313-1.75-.313zm7.25 0v1h7.781v-1h-7.781zm5.093 2.781c-.115.173-.224.346-.343.532L30 62.03v1l5.344-8.718c.17-.265.341-.499.5-.75.17-.252.348-.53.531-.782h-.688zm-12.562 4.032v1h4.813v-1h-4.813zm-3.313.656c-.007.167-.03.334-.03.5 0 .621.046 1.222.155 1.843a6.01 6.01 0 0 0 .594 1.688c.28.5.631.902 1.094 1.219.463.304 1.055.469 1.75.468.244 0 .494-.032.75-.093.268-.061.506-.14.75-.25.256-.11.5-.229.719-.375.22-.146.423-.317.593-.5v-1c-.17.183-.374.354-.593.5-.22.146-.463.265-.719.375-.244.11-.482.189-.75.25a3.24 3.24 0 0 1-.75.093c-.695 0-1.287-.164-1.75-.468a3.512 3.512 0 0 1-1.094-1.219 6.01 6.01 0 0 1-.593-1.688c-.08-.455-.106-.894-.125-1.343zm12.844 4.687c-.232.335-.468.686-.687 1h6.593v-1h-5.906z" style="text-align:start;line-height:120.00000477%;-inkscape-font-specification:BabelSans Bold" font-size="18.277" font-weight="700" opacity=".4" font-family="BabelSans"/></g></svg>