<svg xmlns="http://www.w3.org/2000/svg" xmlns:xlink="http://www.w3.org/1999/xlink" version="1.0" width="96" height="96"><defs><linearGradient id="i"><stop offset="0" stop-color="#2f2f2f"/><stop offset=".437" stop-color="#fff"/><stop offset=".621" stop-color="#979797"/><stop offset=".772" stop-color="#505050"/><stop offset="1" stop-color="#e6e6e6"/></linearGradient><linearGradient id="h"><stop offset="0" stop-color="#ededed"/><stop offset="1" stop-color="#b0b0b0"/></linearGradient><linearGradient id="g"><stop offset="0" stop-color="#a2a2a2"/><stop offset="1" stop-color="#fff"/></linearGradient><linearGradient id="e"><stop offset="0" stop-color="#b4b4b4"/><stop offset=".205" stop-color="#646464"/><stop offset=".496" stop-color="#fff"/><stop offset="1" stop-color="#3c3c3c"/></linearGradient><linearGradient id="f"><stop offset="0" stop-color="#fff"/><stop offset=".49" stop-color="#8c8c8c"/><stop offset=".5" stop-color="#cfcfcf"/><stop offset=".623" stop-color="#fff"/><stop offset=".817" stop-color="#c8c8c8"/><stop offset="1" stop-color="#505050"/></linearGradient><linearGradient id="b"><stop offset="0" stop-color="#818181"/><stop offset=".2" stop-color="#f9f9f9"/><stop offset="1" stop-color="#dcdcdc" stop-opacity="0"/></linearGradient><linearGradient id="c"><stop offset="0" stop-color="#dcdcdc"/><stop offset="1" stop-color="#fafafa"/></linearGradient><linearGradient x1="45.448" y1="92.54" x2="45.448" y2="7.017" id="k" gradientUnits="userSpaceOnUse" gradientTransform="scale(1.00587 .99417)"><stop offset="0"/><stop offset="1" stop-opacity=".588"/></linearGradient><linearGradient id="a"><stop offset="0" stop-color="#fff"/><stop offset="1" stop-color="#fff" stop-opacity="0"/></linearGradient><linearGradient id="d"><stop offset="0" stop-color="#b4b4b4"/><stop offset="1" stop-color="#dcdcdc"/></linearGradient><filter color-interpolation-filters="sRGB" id="l"><feGaussianBlur stdDeviation="1.71"/></filter><linearGradient x1="19.036" y1="74" x2="87.5" y2="27.429" id="v" xlink:href="#a" gradientUnits="userSpaceOnUse"/><linearGradient x1="6" y1="73" x2="24" y2="73" id="s" xlink:href="#b" gradientUnits="userSpaceOnUse"/><linearGradient x1="6" y1="73" x2="24" y2="73" id="t" xlink:href="#b" gradientUnits="userSpaceOnUse" gradientTransform="matrix(-1 0 0 1 96 0)"/><linearGradient x1="38.748" y1="65.59" x2="38.748" y2="5.833" id="u" xlink:href="#c" gradientUnits="userSpaceOnUse"/><radialGradient cx="90" cy="90" r="42" fx="90" fy="90" id="r" xlink:href="#d" gradientUnits="userSpaceOnUse" gradientTransform="matrix(0 -1.08503 2 0 -90 187.653)"/><clipPath id="x"><path d="M66 6v55c0 1.662 1.338 3 3 3h6c1.662 0 3-1.338 3-3V6h-4v2h-4V6h-4z" fill="#fff"/></clipPath><filter x="-.166" y="-.037" width="1.332" height="1.073" color-interpolation-filters="sRGB" id="y"><feGaussianBlur stdDeviation=".9"/></filter><linearGradient x1="68.75" y1="59" x2="75.25" y2="59" id="w" xlink:href="#e" gradientUnits="userSpaceOnUse" gradientTransform="translate(0 -1)"/><linearGradient x1="69" y1="54" x2="73" y2="54" id="z" xlink:href="#f" gradientUnits="userSpaceOnUse" gradientTransform="translate(0 -1)"/><linearGradient x1="63.485" y1="64.163" x2="79" y2="65" id="O" xlink:href="#g" gradientUnits="userSpaceOnUse"/><filter x="-.162" y="-.095" width="1.324" height="1.191" color-interpolation-filters="sRGB" id="P"><feGaussianBlur stdDeviation=".536"/></filter><linearGradient x1="68.969" y1="17.5" x2="75.063" y2="17.5" id="R" xlink:href="#h" gradientUnits="userSpaceOnUse" gradientTransform="matrix(-1 0 0 1 144.031 -2)"/><linearGradient x1="68.029" y1="17.763" x2="75.971" y2="17.763" id="Q" xlink:href="#h" gradientUnits="userSpaceOnUse" gradientTransform="translate(0 -2)"/><linearGradient x1="68.75" y1="59" x2="72.251" y2="59" id="S" xlink:href="#e" gradientUnits="userSpaceOnUse" gradientTransform="matrix(1.12627 0 0 1 -7.402 -49.5)"/><linearGradient x1="69" y1="54" x2="73" y2="54" id="H" xlink:href="#i" gradientUnits="userSpaceOnUse" gradientTransform="matrix(-1 0 0 1 144 -4)"/><linearGradient x1="45.448" y1="92.54" x2="45.448" y2="7.017" id="j" gradientUnits="userSpaceOnUse" gradientTransform="matrix(1.00587 0 0 .99417 100 0)"><stop offset="0"/><stop offset="1" stop-opacity=".588"/></linearGradient><linearGradient x1="32.251" y1="6.132" x2="32.251" y2="90.239" id="n" xlink:href="#j" gradientUnits="userSpaceOnUse" gradientTransform="matrix(1.0238 0 0 1.0119 -1.143 -98.071)"/><linearGradient x1="32.251" y1="6.132" x2="32.251" y2="90.239" id="o" xlink:href="#j" gradientUnits="userSpaceOnUse" gradientTransform="matrix(1.0238 0 0 1.0119 -1.143 -98.071)"/><linearGradient x1="32.251" y1="6.132" x2="32.251" y2="90.239" id="p" xlink:href="#j" gradientUnits="userSpaceOnUse" gradientTransform="matrix(1.0238 0 0 1.0119 -1.143 -98.071)"/><linearGradient x1="32.251" y1="6.132" x2="32.251" y2="90.239" id="q" xlink:href="#j" gradientUnits="userSpaceOnUse" gradientTransform="translate(0 -97)"/><linearGradient x1="32.251" y1="6.132" x2="32.251" y2="90.239" id="m" xlink:href="#j" gradientUnits="userSpaceOnUse" gradientTransform="matrix(1.0238 0 0 1.0119 -1.143 -98.071)"/></defs><g transform="scale(1 -1)"><path d="M12-95.031c-5.511 0-10.031 4.52-10.031 10.031v71C1.969-8.489 6.489-3.969 12-3.969h72c5.511 0 10.031-4.52 10.031-10.031v-71c0-5.511-4.52-10.031-10.031-10.031H12z" opacity=".08" fill="url(#m)"/><path d="M12-94.031c-4.972 0-9.031 4.06-9.031 9.031v71c0 4.972 4.06 9.031 9.031 9.031h72c4.972 0 9.031-4.06 9.031-9.031v-71c0-4.972-4.06-9.031-9.031-9.031H12z" opacity=".1" fill="url(#n)"/><path d="M12-93c-4.41 0-8 3.59-8 8v71c0 4.41 3.59 8 8 8h72c4.41 0 8-3.59 8-8v-71c0-4.41-3.59-8-8-8H12z" opacity=".2" fill="url(#o)"/><rect width="86" height="85" rx="7" ry="7" x="5" y="-92" opacity=".3" fill="url(#p)"/><rect width="84" height="84" rx="6" ry="6" x="6" y="-91" opacity=".45" fill="url(#q)"/></g><path d="M12 6c-3.324 0-6 2.676-6 6v72c0 3.324 2.676 6 6 6h72c3.324 0 6-2.676 6-6V12c0-3.324-2.676-6-6-6h-9v3h-6V6H12z" fill="url(#r)"/><path d="M6 56v28c0 3.324 2.676 6 6 6h12V56H6z" fill="url(#s)"/><path d="M90 56v28c0 3.324-2.676 6-6 6H72V56h18z" fill="url(#t)"/><path d="M6 82v2c0 3.324 2.676 6 6 6h72c3.324 0 6-2.676 6-6v-2c0 3.324-2.676 6-6 6H12c-3.324 0-6-2.676-6-6z" opacity=".15"/><path d="M6 78v2c0 3.324 2.676 6 6 6h72c3.324 0 6-2.676 6-6v-2c0 3.324-2.676 6-6 6H12c-3.324 0-6-2.676-6-6z" opacity=".8" fill="#fff"/><path d="M6 76v2c0 3.324 2.676 6 6 6h72c3.324 0 6-2.676 6-6v-2c0 3.324-2.676 6-6 6H12c-3.324 0-6-2.676-6-6z" opacity=".15"/><path d="M6 72v2c0 3.324 2.676 6 6 6h72c3.324 0 6-2.676 6-6v-2c0 3.324-2.676 6-6 6H12c-3.324 0-6-2.676-6-6z" opacity=".8" fill="#fff"/><path d="M6 70v2c0 3.324 2.676 6 6 6h72c3.324 0 6-2.676 6-6v-2c0 3.324-2.676 6-6 6H12c-3.324 0-6-2.676-6-6z" opacity=".15"/><path d="M12 6c-3.324 0-6 2.676-6 6v56c0 3.324 2.676 6 6 6h72c3.324 0 6-2.676 6-6V12c0-3.324-2.676-6-6-6h-9v3h-6V6H12z" fill="url(#u)"/><path d="M12 6c-3.324 0-6 2.676-6 6v56c0 3.324 2.676 6 6 6h72c3.324 0 6-2.676 6-6V12c0-3.324-2.676-6-6-6h-9v2h9c2.246 0 4 1.754 4 4v56c0 2.246-1.754 4-4 4H12c-2.246 0-4-1.754-4-4V12c0-2.246 1.754-4 4-4h57V6H12z" fill="url(#v)"/><g><path d="M66 6v55c0 1.662 1.338 3 3 3h6c1.662 0 3-1.338 3-3V6h-4v2h-4V6h-4z" fill="#252525"/><path fill="#4d4d4d" d="M70 8h4v49h-4z"/><rect width="6" height="4" rx="1" ry="1" x="69" y="56" fill="url(#w)" stroke="#000" stroke-width=".5" stroke-linecap="square" stroke-opacity=".564"/><path d="M66 6v55c0 1.662 1.338 3 3 3h6c1.662 0 3-1.338 3-3V6h-4v2h-4V6h-4z" clip-path="url(#x)" fill="none" stroke="#000" stroke-width="2" stroke-linecap="square" filter="url(#y)"/><path d="M69.5 51a.5.5 0 0 0-.5.5v3c0 .282.23.5.5.5h1a.5.5 0 0 0 .5-.5V54h1.5c.277 0 .5-.223.5-.5v-1c0-.277-.223-.5-.5-.5H71v-.5a.5.5 0 0 0-.5-.5h-1z" id="A" fill="url(#z)" fill-opacity="1" fill-rule="nonzero" stroke="#000" stroke-width=".5" stroke-linecap="square" stroke-linejoin="miter" stroke-miterlimit="4" stroke-opacity=".564" stroke-dasharray="none" stroke-dashoffset="0"/><use transform="translate(0 -6)" id="B" x="0" y="0" width="96" height="96" xlink:href="#A"/><use transform="translate(0 -6)" id="C" x="0" y="0" width="96" height="96" xlink:href="#B"/><use transform="translate(0 -6)" id="D" x="0" y="0" width="96" height="96" xlink:href="#C"/><use transform="translate(0 -6)" id="E" x="0" y="0" width="96" height="96" xlink:href="#D"/><use transform="translate(0 -6)" id="F" x="0" y="0" width="96" height="96" xlink:href="#E"/><use transform="translate(0 -6)" id="G" x="0" y="0" width="96" height="96" xlink:href="#F"/><use transform="translate(0 -6)" width="96" height="96" xlink:href="#G"/><path d="M74.5 48a.5.5 0 0 1 .5.5v3a.5.5 0 0 1-.5.5h-1a.5.5 0 0 1-.5-.5V51h-1.5a.499.499 0 0 1-.5-.5v-1c0-.277.223-.5.5-.5H73v-.5a.5.5 0 0 1 .5-.5h1z" id="I" fill="url(#H)" fill-opacity="1" fill-rule="nonzero" stroke="#000" stroke-width=".5" stroke-linecap="square" stroke-linejoin="miter" stroke-miterlimit="4" stroke-opacity=".564" stroke-dasharray="none" stroke-dashoffset="0"/><use transform="translate(0 -6)" id="J" x="0" y="0" width="96" height="96" xlink:href="#I"/><use transform="translate(0 -6)" id="K" x="0" y="0" width="96" height="96" xlink:href="#J"/><use transform="translate(0 -6)" id="L" x="0" y="0" width="96" height="96" xlink:href="#K"/><use transform="translate(0 -6)" id="M" x="0" y="0" width="96" height="96" xlink:href="#L"/><use transform="translate(0 -6)" id="N" x="0" y="0" width="96" height="96" xlink:href="#M"/><use transform="translate(0 -6)" width="96" height="96" xlink:href="#N"/><path d="M65 6v55c0 2.202 1.798 4 4 4h6c2.202 0 4-1.798 4-4V6h-1v55c0 1.662-1.338 3-3 3h-6c-1.662 0-3-1.338-3-3V6h-1z" fill="url(#O)"/><path d="M69.5 10.531c-1.028 0-1.969.765-1.969 1.813v10.812c0 1.048.918 1.844 1.969 1.844h5c1.05 0 1.969-.796 1.969-1.844V12.344c0-1.048-.941-1.813-1.969-1.813h-5zm1.063 9.063h2.874v1.75h-2.874v-1.75z" transform="translate(0 -2)" stroke="#000" stroke-width=".5" stroke-linecap="square" stroke-opacity=".564" filter="url(#P)"/><path d="M69.23 9.021c-.688 0-1.23.483-1.23 1.082l-.005 10.815c0 .6.542 1.082 1.23 1.082h5.582c.688 0 1.23-.482 1.23-1.082l.005-10.815c0-.6-.542-1.082-1.23-1.082H69.23zm.704 7.95h4.1v3.118h-4.1v-3.118z" fill="url(#Q)"/><path d="M74.563 9.969c.276 0 .5.223.5.5V20.53c0 .277-.224.5-.5.5h-5.094a.499.499 0 0 1-.5-.5V10.47c0-.277.223-.5.5-.5h5.094zm-.438 6.969H70v3.125h4.125v-3.125z" fill="url(#R)"/><rect width="3.379" height="5" rx=".563" ry=".5" x="70.311" y="7.5" fill="url(#S)" stroke="#000" stroke-linecap="square" stroke-opacity=".564"/><path opacity=".3" d="M69.985 16h4v1h-4z"/><g fill-rule="evenodd"><path d="M29.594 52.936s-1.865 1.085 1.328 1.452c3.868.441 5.845.378 10.106-.428 0 0 1.123.702 2.688 1.31-9.556 4.095-21.628-.237-14.122-2.334zM28.425 47.593s-2.091 1.548 1.104 1.878c4.132.427 7.394.462 13.043-.625 0 0 .78.791 2.006 1.224-11.552 3.38-24.418.266-16.153-2.477z" fill="#0074bd"/><path d="M38.269 38.527c2.356 2.712-.618 5.15-.618 5.15s5.978-3.085 3.233-6.951c-2.564-3.604-4.53-5.394 6.114-11.567 0 0-16.71 4.172-8.73 13.368z" fill="#ea2d2e"/><path d="M50.907 56.89s1.38 1.137-1.52 2.017c-5.514 1.67-22.956 2.174-27.8.067-1.74-.758 1.524-1.809 2.551-2.03 1.072-.233 1.683-.19 1.683-.19-1.937-1.364-12.518 2.678-5.374 3.838 19.482 3.158 35.513-1.423 30.46-3.703zM30.49 42.055s-8.87 2.108-3.14 2.874c2.42.324 7.24.25 11.735-.128 3.672-.308 7.357-.967 7.357-.967s-1.294.555-2.23 1.194c-9.01 2.37-26.413 1.266-21.403-1.156 4.236-2.05 7.682-1.817 7.682-1.817zM46.405 50.95c9.159-4.758 4.924-9.33 1.968-8.714-.723.15-1.047.281-1.047.281s.269-.422.782-.603c5.847-2.055 10.343 6.062-1.886 9.277 0 0 .14-.127.183-.24z" fill="#0074bd"/><path d="M40.885 15.188s5.07 5.074-4.812 12.874c-7.924 6.26-1.807 9.827-.002 13.905-4.627-4.173-8.02-7.848-5.744-11.267 3.342-5.02 12.603-7.453 10.558-15.512z" fill="#ea2d2e"/><path d="M31.391 63.847c8.79.562 22.29-.313 22.609-4.472 0 0-.614 1.577-7.264 2.828-7.503 1.412-16.758 1.248-22.245.342 0 0 1.124.93 6.9 1.302z" fill="#0074bd"/></g></g></svg>