<svg xmlns="http://www.w3.org/2000/svg" xmlns:xlink="http://www.w3.org/1999/xlink" version="1.0" width="96" height="96"><defs><linearGradient x1="45.448" y1="92.54" x2="45.448" y2="7.017" id="f" gradientUnits="userSpaceOnUse" gradientTransform="scale(1.00587 .99417)"><stop offset="0"/><stop offset="1" stop-opacity=".588"/></linearGradient><linearGradient id="b"><stop offset="0" stop-color="#fff"/><stop offset="1" stop-color="#fff" stop-opacity="0"/></linearGradient><linearGradient id="a"><stop offset="0" stop-color="#e6e6e6"/><stop offset="1" stop-color="#f5f5f5"/></linearGradient><linearGradient x1="48" y1="90" x2="48" y2="5.988" id="m" xlink:href="#a" gradientUnits="userSpaceOnUse"/><filter color-interpolation-filters="sRGB" id="g"><feGaussianBlur stdDeviation="1.71"/></filter><linearGradient x1="36.357" y1="6" x2="36.357" y2="63.893" id="n" xlink:href="#b" gradientUnits="userSpaceOnUse"/><linearGradient x1="45.448" y1="92.54" x2="45.448" y2="7.017" id="c" gradientUnits="userSpaceOnUse" gradientTransform="matrix(1.00587 0 0 .99417 100 0)"><stop offset="0"/><stop offset="1" stop-opacity=".588"/></linearGradient><linearGradient x1="32.251" y1="6.132" x2="32.251" y2="90.239" id="i" xlink:href="#c" gradientUnits="userSpaceOnUse" gradientTransform="matrix(1.0238 0 0 1.0119 -1.143 -98.071)"/><linearGradient x1="32.251" y1="6.132" x2="32.251" y2="90.239" id="j" xlink:href="#c" gradientUnits="userSpaceOnUse" gradientTransform="matrix(1.0238 0 0 1.0119 -1.143 -98.071)"/><linearGradient x1="32.251" y1="6.132" x2="32.251" y2="90.239" id="k" xlink:href="#c" gradientUnits="userSpaceOnUse" gradientTransform="matrix(1.0238 0 0 1.0119 -1.143 -98.071)"/><linearGradient x1="32.251" y1="6.132" x2="32.251" y2="90.239" id="l" xlink:href="#c" gradientUnits="userSpaceOnUse" gradientTransform="translate(0 -97)"/><linearGradient x1="32.251" y1="6.132" x2="32.251" y2="90.239" id="h" xlink:href="#c" gradientUnits="userSpaceOnUse" gradientTransform="matrix(1.0238 0 0 1.0119 -1.143 -98.071)"/><linearGradient id="d"><stop offset="0" stop-color="#fff"/><stop offset="1" stop-color="#fff" stop-opacity="0"/></linearGradient><clipPath id="p"><rect width="84" height="84" rx="6" ry="6" x="6" y="6" fill="#fff"/></clipPath><filter x="-.192" y="-.192" width="1.384" height="1.384" color-interpolation-filters="sRGB" id="r"><feGaussianBlur stdDeviation="5.28"/></filter><linearGradient x1="48" y1="20.221" x2="48" y2="138.661" id="q" xlink:href="#d" gradientUnits="userSpaceOnUse"/><linearGradient id="e"><stop offset="0" stop-color="#fff"/><stop offset="1" stop-color="#fff" stop-opacity="0"/></linearGradient><radialGradient cx="48" cy="90.172" r="42" fx="48" fy="90.172" id="o" xlink:href="#e" gradientUnits="userSpaceOnUse" gradientTransform="matrix(1.15731 0 0 .9959 -7.551 .197)"/></defs><g transform="scale(1 -1)"><path d="M12-95.031c-5.511 0-10.031 4.52-10.031 10.031v71C1.969-8.489 6.489-3.969 12-3.969h72c5.511 0 10.031-4.52 10.031-10.031v-71c0-5.511-4.52-10.031-10.031-10.031H12z" opacity=".08" fill="url(#h)"/><path d="M12-94.031c-4.972 0-9.031 4.06-9.031 9.031v71c0 4.972 4.06 9.031 9.031 9.031h72c4.972 0 9.031-4.06 9.031-9.031v-71c0-4.972-4.06-9.031-9.031-9.031H12z" opacity=".1" fill="url(#i)"/><path d="M12-93c-4.41 0-8 3.59-8 8v71c0 4.41 3.59 8 8 8h72c4.41 0 8-3.59 8-8v-71c0-4.41-3.59-8-8-8H12z" opacity=".2" fill="url(#j)"/><rect width="86" height="85" rx="7" ry="7" x="5" y="-92" opacity=".3" fill="url(#k)"/><rect width="84" height="84" rx="6" ry="6" x="6" y="-91" opacity=".45" fill="url(#l)"/></g><rect width="84" height="84" rx="6" ry="6" x="6" y="6" fill="url(#m)"/><path d="M12 6c-3.324 0-6 2.676-6 6v72c0 .335.041.65.094.969.048.295.097.597.187.875l.032.094c.098.287.234.547.375.812.144.274.315.536.5.781a6.105 6.105 0 0 0 2.094 1.781c.278.14.573.247.874.344a4.843 4.843 0 0 1-.719-.375c-.007-.004-.023.005-.03 0-.033-.02-.063-.042-.095-.062-.12-.077-.23-.164-.343-.25-.106-.081-.214-.161-.313-.25a5.042 5.042 0 0 1-.5-.531 5.092 5.092 0 0 1-.312-.407c-.025-.038-.039-.086-.063-.125-.065-.103-.13-.204-.187-.312a5.371 5.371 0 0 1-.282-.625c-.007-.022-.023-.04-.03-.063-.033-.092-.037-.187-.063-.281-.03-.107-.07-.203-.094-.313A5.098 5.098 0 0 1 7 85V13c0-2.782 2.218-5 5-5h72c2.782 0 5 2.218 5 5v72c0 .364-.052.721-.125 1.063a4.896 4.896 0 0 1-.156.593c-.008.022-.024.04-.031.063a5.482 5.482 0 0 1-.22.531c-.04.083-.078.17-.124.25-.055.097-.127.188-.188.281a5.092 5.092 0 0 1-.312.406 5.05 5.05 0 0 1-.469.5l-.031.032a4.818 4.818 0 0 1-.438.344c-.102.073-.204.153-.312.218-.008.005-.024-.004-.031 0a4.843 4.843 0 0 1-.72.375c.302-.097.597-.204.876-.344a6.105 6.105 0 0 0 2.094-1.78c.184-.246.355-.508.5-.782a5.69 5.69 0 0 0 .374-.813l.032-.093c.09-.278.139-.58.187-.875.053-.318.094-.634.094-.969V12c0-3.324-2.676-6-6-6H12z" opacity=".6" fill="url(#n)"/><path d="M12 90c-3.324 0-6-2.676-6-6V12c0-.335.041-.65.094-.969.048-.295.097-.597.187-.875l.032-.094a5.69 5.69 0 0 1 .375-.812c.144-.274.315-.536.5-.781a6.105 6.105 0 0 1 2.094-1.781c.278-.14.573-.247.874-.344-.256.1-.486.236-.719.375-.007.004-.023-.005-.03 0-.033.019-.063.042-.095.062-.12.077-.23.164-.343.25-.106.081-.214.161-.313.25a5.042 5.042 0 0 0-.5.532c-.107.13-.218.265-.312.406-.025.038-.039.086-.063.125-.065.103-.13.204-.187.312a5.371 5.371 0 0 0-.282.625c-.007.022-.023.04-.03.063-.033.092-.037.187-.063.281-.03.107-.07.203-.094.313A5.098 5.098 0 0 0 7 11v72c0 2.782 2.218 5 5 5h72c2.782 0 5-2.218 5-5V11c0-.364-.052-.721-.125-1.063a4.896 4.896 0 0 0-.156-.593c-.008-.022-.024-.04-.031-.063a5.482 5.482 0 0 0-.22-.531c-.04-.083-.078-.17-.124-.25-.055-.097-.127-.188-.188-.281a5.092 5.092 0 0 0-.312-.406 5.05 5.05 0 0 0-.469-.5l-.031-.032a4.818 4.818 0 0 0-.438-.343c-.102-.074-.204-.154-.312-.22-.008-.004-.024.005-.031 0a4.843 4.843 0 0 0-.72-.374c.302.097.597.204.876.343a6.105 6.105 0 0 1 2.094 1.782c.184.245.355.507.5.781.14.265.276.525.374.813l.032.093c.09.278.139.58.187.875.053.318.094.634.094.969v72c0 3.324-2.676 6-6 6H12z" opacity=".4" fill="url(#o)"/><g><rect width="66" height="66" rx="12" ry="12" x="15" y="15" clip-path="url(#p)" opacity=".5" fill="url(#q)" stroke="#fff" stroke-width=".5" stroke-linecap="round" filter="url(#r)"/></g><g><path d="M40.626 28.863a41.257 41.257 0 0 1 4.093-.433c.243-.058.495-.046.743-.055 1.944-.062 3.891-.06 5.835.028 3.507.248 6.997.831 10.38 1.802l-.014.02c-.496.67-.994 1.34-1.48 2.018-.146.027-.273-.066-.403-.112-2.567-1.06-5.3-1.674-8.05-2.007-4.524-.463-9.156-.091-13.495 1.301-3.196 1.033-6.281 2.627-8.664 5.03-1.689 1.727-2.985 3.96-3.161 6.408-.164 1.167.116 2.331.363 3.463-.944.096-1.868.328-2.805.472-2.637.473-5.274.949-7.912 1.417-.025-1.89.468-3.761 1.253-5.472 1.562-3.33 4.27-5.991 7.288-8.029 2.04-1.37 4.246-2.488 6.537-3.374 3.053-1.193 6.25-2.008 9.492-2.477z"/><path d="M60.183 32.243c.486-.678.984-1.348 1.48-2.019 4.543 1.33 8.93 3.432 12.513 6.563 1.466 1.312 2.791 2.796 3.809 4.485 1.205 1.988 1.97 4.264 2.05 6.596-3.562-.623-7.124-1.251-10.687-1.876.438-1.395.442-2.913.142-4.336-.556-2.46-2.133-4.572-4.035-6.175a19.995 19.995 0 0 0-5.311-3.185l.039-.053z" fill="#d72123"/><path d="M47.969 40.969c-.672 0-1.233.412-1.469 1a40.778 40.778 0 0 0-1.563-.25c-.035.192-.065.368-.093.562.491.085.98.177 1.468.282.02.003.043-.004.063 0a1.59 1.59 0 0 0 1.594 1.593c.698 0 1.314-.437 1.531-1.062.59.102 1.19.216 1.781.312 1.592.271 3.158.58 4.75.844 1.677.305 3.354.577 5.032.875 2.419.417 4.859.883 7.28 1.281 3.874.71 7.75 1.367 11.626 2.063.802.128 1.603.28 2.406.406.025-.19.044-.378.094-.563-.81-.178-1.625-.279-2.438-.437-3.563-.623-7.125-1.25-10.687-1.875-.82-.134-1.617-.317-2.438-.438-2.44-.447-4.9-.852-7.344-1.28-.238-.063-.48-.072-.718-.126-.585-.098-1.164-.23-1.75-.312-2.442-.442-4.898-.862-7.344-1.282-.048-.018-.104-.022-.156-.03-.018-.868-.754-1.563-1.625-1.563zM16.083 50.9c1.968-.014 3.937-.003 5.906-.006l.007.292a16.31 16.31 0 0 1 4.364-.364c1.065.098 2.043.554 2.995 1.008-1.073.664-2.166 1.303-3.214 2.006-1.168-.902-2.755-.903-4.117-.508a4.143 4.143 0 0 0-.034.44v10.166c-1.969 0-3.936.002-5.904-.001-.004-4.345.002-8.69-.003-13.034zM37.174 50.88c-1.733.004-3.447.016-5.18.03.001 5.55.003 11.1 0 16.65.293-.017.582-.045.868-.12 1.681-.224 3.349-.475 5.031-.688.013-.896 0-1.8 0-2.695.161-.007.348-.02.51-.03 2.54-.173 5.064-.844 7.306-2.066 1.311-.738 2.603-1.72 3.204-3.145.513-1.187.264-2.568-.39-3.653-.859-1.397-2.29-2.337-3.772-2.965-2.388-.988-5.008-1.332-7.577-1.317zm.75 1.438c1.513.152 2.858 1.014 3.892 2.096.892.938 1.535 2.246 1.318 3.564-.238 1.32-1.153 2.405-2.186 3.204-.898.659-1.936 1.228-3.055 1.378-.004-3.409.025-6.834.03-10.242zM52.333 50.902c6.764-.02 13.529-.002 20.294-.009 1.979.008 3.99.02 5.916.533.554.182 1.293.4 1.439 1.043.014 3.822.005 7.644.004 11.465H74.08c0-3.79-.008-7.583.003-11.375-.357-.31-.867-.297-1.311-.35-1.214-.033-2.43-.01-3.644-.013 0 3.913.004 7.826-.002 11.739-1.972-.002-3.943 0-5.915-.001-.006-3.135 0-6.27-.002-9.404-.016-.684.034-1.372-.03-2.055-.555-.233-1.163-.278-1.757-.281-1.056-.002-2.112 0-3.168-.001-.005 3.914.006 7.828-.006 11.743-1.856-.003-3.713-.004-5.57 0a.636.636 0 0 1-.357-.073c.03-4.32.007-8.64.012-12.96z"/></g></svg>