<svg xmlns="http://www.w3.org/2000/svg" xmlns:xlink="http://www.w3.org/1999/xlink" version="1.0" width="96" height="96"><defs><linearGradient id="j"><stop offset="0" stop-color="#025"/><stop offset=".2" stop-color="#2b81ff"/><stop offset="1" stop-color="#003380" stop-opacity="0"/></linearGradient><linearGradient id="i"><stop offset="0" stop-color="#0d350d"/><stop offset=".2" stop-color="#66d566" stop-opacity=".992"/><stop offset="1" stop-color="#217821" stop-opacity="0"/></linearGradient><linearGradient id="h"><stop offset="0" stop-color="#461552"/><stop offset=".2" stop-color="#e27ffb" stop-opacity=".886"/><stop offset="1" stop-color="#892ca0" stop-opacity="0"/></linearGradient><linearGradient id="a"><stop offset="0" stop-color="#c978e0"/><stop offset="1" stop-color="#dab4e4" stop-opacity="0"/></linearGradient><linearGradient id="e"><stop offset="0" stop-color="#6c257e"/><stop offset="1" stop-color="#be66d4"/></linearGradient><linearGradient id="g"><stop offset="0" stop-color="#2f2f2f"/><stop offset=".437" stop-color="#fff"/><stop offset=".621" stop-color="#979797"/><stop offset=".772" stop-color="#505050"/><stop offset="1" stop-color="#e6e6e6"/></linearGradient><linearGradient id="f"><stop offset="0" stop-color="#ededed"/><stop offset="1" stop-color="#b0b0b0"/></linearGradient><linearGradient id="c"><stop offset="0" stop-color="#b4b4b4"/><stop offset=".205" stop-color="#646464"/><stop offset=".496" stop-color="#fff"/><stop offset="1" stop-color="#3c3c3c"/></linearGradient><linearGradient id="d"><stop offset="0" stop-color="#fff"/><stop offset=".49" stop-color="#8c8c8c"/><stop offset=".5" stop-color="#cfcfcf"/><stop offset=".623" stop-color="#fff"/><stop offset=".817" stop-color="#c8c8c8"/><stop offset="1" stop-color="#505050"/></linearGradient><linearGradient id="b"><stop offset="0" stop-color="#853798"/><stop offset="1" stop-color="#c78bd5"/></linearGradient><linearGradient x1="45.448" y1="92.54" x2="45.448" y2="7.017" id="l" gradientUnits="userSpaceOnUse" gradientTransform="scale(1.00587 .99417)"><stop offset="0"/><stop offset="1" stop-opacity=".588"/></linearGradient><filter color-interpolation-filters="sRGB" id="m"><feGaussianBlur stdDeviation="1.71"/></filter><linearGradient x1="19.036" y1="74" x2="87.5" y2="27.429" id="z" xlink:href="#a" gradientUnits="userSpaceOnUse"/><linearGradient x1="38.748" y1="74.004" x2="38.748" y2="5.833" id="y" xlink:href="#b" gradientUnits="userSpaceOnUse"/><clipPath id="C"><path d="M66 6v55c0 1.662 1.338 3 3 3h6c1.662 0 3-1.338 3-3V6h-4v2h-4V6h-4z" fill="#fff"/></clipPath><filter x="-.166" y="-.037" width="1.332" height="1.073" color-interpolation-filters="sRGB" id="D"><feGaussianBlur stdDeviation=".9"/></filter><linearGradient x1="68.75" y1="59" x2="75.25" y2="59" id="B" xlink:href="#c" gradientUnits="userSpaceOnUse" gradientTransform="translate(0 -1)"/><linearGradient x1="69" y1="54" x2="73" y2="54" id="E" xlink:href="#d" gradientUnits="userSpaceOnUse" gradientTransform="translate(0 -1)"/><linearGradient x1="63.485" y1="64.163" x2="79" y2="65" id="T" xlink:href="#e" gradientUnits="userSpaceOnUse"/><filter x="-.162" y="-.095" width="1.324" height="1.191" color-interpolation-filters="sRGB" id="U"><feGaussianBlur stdDeviation=".536"/></filter><linearGradient x1="68.969" y1="17.5" x2="75.063" y2="17.5" id="W" xlink:href="#f" gradientUnits="userSpaceOnUse" gradientTransform="matrix(-1 0 0 1 144.031 -2)"/><linearGradient x1="68.029" y1="17.763" x2="75.971" y2="17.763" id="V" xlink:href="#f" gradientUnits="userSpaceOnUse" gradientTransform="translate(0 -2)"/><linearGradient x1="68.75" y1="59" x2="72.251" y2="59" id="X" xlink:href="#c" gradientUnits="userSpaceOnUse" gradientTransform="matrix(1.12627 0 0 1 -7.402 -49.5)"/><linearGradient x1="69" y1="54" x2="73" y2="54" id="M" xlink:href="#g" gradientUnits="userSpaceOnUse" gradientTransform="matrix(-1 0 0 1 144 -4)"/><clipPath id="A"><path d="M7.031 60.094c-2.216 0-4 1.784-4 4v45.281c0 2.216 1.784 4 4 4h55.375c2.216 0 4-1.784 4-4V64.094c0-2.216-1.784-4-4-4H7.031zM18 80h4.906c.378 0 .723.025 1.063.063.34.037.68.124.968.25.302.125.561.292.813.53.252.227.468.548.656.938a4.65 4.65 0 0 1 .469 2.094c0 .981-.24 1.796-.719 2.438-.465.628-1.12 1.073-2 1.312.403.327.736.691 1 1.094.277.39.524.81.75 1.25L27.938 94h-2.22c-.062-.126-.16-.354-.312-.656-.15-.302-.348-.623-.562-1a41.66 41.66 0 0 0-.657-1.219 22.38 22.38 0 0 0-.687-1.25c-.226-.39-.424-.71-.625-1a2.949 2.949 0 0 0-.531-.625c-.214-.176-.405-.275-.594-.313a2.62 2.62 0 0 0-.719-.093h-1.218V94H18V80zm15.781 0h1.813l4.531 14h-2.063l-1.25-4.125h-4.124L31.5 94h-1.969l4.25-14zM42 80h4.906c.378 0 .754.025 1.094.063.34.037.648.124.938.25.301.125.56.292.812.53.252.227.468.548.656.938.315.642.5 1.327.5 2.094 0 .981-.24 1.796-.718 2.438-.466.628-1.151 1.073-2.032 1.312.403.327.736.691 1 1.094.277.39.524.81.75 1.25L51.938 94h-2.22c-.062-.126-.16-.354-.312-.656-.15-.302-.348-.623-.562-1a41.66 41.66 0 0 0-.657-1.219 22.38 22.38 0 0 0-.687-1.25c-.226-.39-.424-.71-.625-1-.201-.302-.362-.512-.5-.625a1.456 1.456 0 0 0-.625-.313 2.62 2.62 0 0 0-.719-.093h-1.218V94H42V80zm-22.156 1.688v4.406h2.812c.78 0 1.366-.16 1.782-.5.427-.352.656-.927.656-1.719 0-.692-.18-1.248-.532-1.625-.352-.377-.87-.562-1.562-.563h-3.156zm24 0v4.406h2.812c.78 0 1.398-.16 1.813-.5.427-.352.625-.927.625-1.719 0-.692-.18-1.248-.532-1.625-.352-.377-.87-.562-1.562-.563h-3.156zm-9.157 1.156a30.33 30.33 0 0 1-.656 2.656c-.264.855-.548 1.726-.812 2.594h3a101.61 101.61 0 0 0-.782-2.594 58.837 58.837 0 0 1-.75-2.656z" fill="#fff"/></clipPath><linearGradient x1="6" y1="73" x2="24" y2="73" id="x" xlink:href="#h" gradientUnits="userSpaceOnUse"/><linearGradient x1="6" y1="73" x2="24" y2="73" id="w" xlink:href="#i" gradientUnits="userSpaceOnUse" gradientTransform="translate(0 6)"/><linearGradient x1="6" y1="73" x2="24" y2="73" id="v" xlink:href="#j" gradientUnits="userSpaceOnUse" gradientTransform="translate(0 12)"/><linearGradient x1="6" y1="73" x2="24" y2="73" id="s" xlink:href="#j" gradientUnits="userSpaceOnUse" gradientTransform="translate(0 12)"/><linearGradient x1="6" y1="73" x2="24" y2="73" id="t" xlink:href="#i" gradientUnits="userSpaceOnUse" gradientTransform="translate(0 6)"/><linearGradient x1="6" y1="73" x2="24" y2="73" id="u" xlink:href="#h" gradientUnits="userSpaceOnUse"/><linearGradient x1="45.448" y1="92.54" x2="45.448" y2="7.017" id="k" gradientUnits="userSpaceOnUse" gradientTransform="matrix(1.00587 0 0 .99417 100 0)"><stop offset="0"/><stop offset="1" stop-opacity=".588"/></linearGradient><linearGradient x1="32.251" y1="6.132" x2="32.251" y2="90.239" id="o" xlink:href="#k" gradientUnits="userSpaceOnUse" gradientTransform="matrix(1.0238 0 0 1.0119 -1.143 -98.071)"/><linearGradient x1="32.251" y1="6.132" x2="32.251" y2="90.239" id="p" xlink:href="#k" gradientUnits="userSpaceOnUse" gradientTransform="matrix(1.0238 0 0 1.0119 -1.143 -98.071)"/><linearGradient x1="32.251" y1="6.132" x2="32.251" y2="90.239" id="q" xlink:href="#k" gradientUnits="userSpaceOnUse" gradientTransform="matrix(1.0238 0 0 1.0119 -1.143 -98.071)"/><linearGradient x1="32.251" y1="6.132" x2="32.251" y2="90.239" id="r" xlink:href="#k" gradientUnits="userSpaceOnUse" gradientTransform="translate(0 -97)"/><linearGradient x1="32.251" y1="6.132" x2="32.251" y2="90.239" id="n" xlink:href="#k" gradientUnits="userSpaceOnUse" gradientTransform="matrix(1.0238 0 0 1.0119 -1.143 -98.071)"/></defs><g transform="scale(1 -1)"><path d="M12-95.031c-5.511 0-10.031 4.52-10.031 10.031v71C1.969-8.489 6.489-3.969 12-3.969h72c5.511 0 10.031-4.52 10.031-10.031v-71c0-5.511-4.52-10.031-10.031-10.031H12z" opacity=".08" fill="url(#n)"/><path d="M12-94.031c-4.972 0-9.031 4.06-9.031 9.031v71c0 4.972 4.06 9.031 9.031 9.031h72c4.972 0 9.031-4.06 9.031-9.031v-71c0-4.972-4.06-9.031-9.031-9.031H12z" opacity=".1" fill="url(#o)"/><path d="M12-93c-4.41 0-8 3.59-8 8v71c0 4.41 3.59 8 8 8h72c4.41 0 8-3.59 8-8v-71c0-4.41-3.59-8-8-8H12z" opacity=".2" fill="url(#p)"/><rect width="86" height="85" rx="7" ry="7" x="5" y="-92" opacity=".3" fill="url(#q)"/><rect width="84" height="84" rx="6" ry="6" x="6" y="-91" opacity=".45" fill="url(#r)"/></g><path d="M12 18c-3.324 0-6 2.676-6 6v60c0 3.324 2.676 6 6 6h72c3.324 0 6-2.676 6-6V24c0-3.324-2.676-6-6-6h-9v3h-6v-3H12z" fill="#235299"/><path d="M12 12c-3.324 0-6 2.676-6 6v60c0 3.324 2.676 6 6 6h72c3.324 0 6-2.676 6-6V18c0-3.324-2.676-6-6-6h-9v3h-6v-3H12z" fill="#217821"/><path d="M12 6c-3.324 0-6 2.676-6 6v60c0 3.324 2.676 6 6 6h72c3.324 0 6-2.676 6-6V12c0-3.324-2.676-6-6-6h-9v3h-6V6H12z" fill="#892ca0"/><path d="M6 78v6c0 3.324 2.676 6 6 6h12v-6H12c-3.324 0-6-2.676-6-6z" fill="url(#s)" transform="matrix(-1 0 0 1 96 0)"/><path d="M6 72v6c0 3.324 2.676 6 6 6h12v-6H12c-3.324 0-6-2.676-6-6z" fill="url(#t)" transform="matrix(-1 0 0 1 96 0)"/><path d="M6 56v16c0 3.324 2.676 6 6 6h12V56H6z" fill="url(#u)" transform="matrix(-1 0 0 1 96 0)"/><path d="M6 78v6c0 3.324 2.676 6 6 6h12v-6H12c-3.324 0-6-2.676-6-6z" fill="url(#v)"/><path d="M6 72v6c0 3.324 2.676 6 6 6h12v-6H12c-3.324 0-6-2.676-6-6z" fill="url(#w)"/><path d="M6 56v16c0 3.324 2.676 6 6 6h12V56H6z" fill="url(#x)"/><path d="M6 82v2c0 3.324 2.676 6 6 6h72c3.324 0 6-2.676 6-6v-2c0 3.324-2.676 6-6 6H12c-3.324 0-6-2.676-6-6z" opacity=".5" fill="#081323"/><path d="M6 78v2c0 3.324 2.676 6 6 6h72c3.324 0 6-2.676 6-6v-2c0 3.324-2.676 6-6 6H12c-3.324 0-6-2.676-6-6z" opacity=".3" fill="#fff"/><path d="M6 76v2c0 3.324 2.676 6 6 6h72c3.324 0 6-2.676 6-6v-2c0 3.324-2.676 6-6 6H12c-3.324 0-6-2.676-6-6z" opacity=".5" fill="#0b280b"/><path d="M6 72v2c0 3.324 2.676 6 6 6h72c3.324 0 6-2.676 6-6v-2c0 3.324-2.676 6-6 6H12c-3.324 0-6-2.676-6-6z" opacity=".3" fill="#fff"/><path d="M6 70v2c0 3.324 2.676 6 6 6h72c3.324 0 6-2.676 6-6v-2c0 3.324-2.676 6-6 6H12c-3.324 0-6-2.676-6-6z" opacity=".5" fill="#210e26"/><path d="M12 6c-3.324 0-6 2.676-6 6v56c0 3.324 2.676 6 6 6h72c3.324 0 6-2.676 6-6V12c0-3.324-2.676-6-6-6h-9v3h-6V6H12z" fill="url(#y)"/><path d="M12 6c-3.324 0-6 2.676-6 6v56c0 3.324 2.676 6 6 6h72c3.324 0 6-2.676 6-6V12c0-3.324-2.676-6-6-6h-9v2h9c2.246 0 4 1.754 4 4v56c0 2.246-1.754 4-4 4H12c-2.246 0-4-1.754-4-4V12c0-2.246 1.754-4 4-4h57V6H12z" fill="url(#z)"/><g><path d="M18 80v14h1.813v-6.156h1.218c.302 0 .543.043.719.094.189.037.38.136.594.312.138.113.33.323.531.625.201.29.399.61.625 1 .226.377.461.81.688 1.25.238.428.454.829.656 1.219.214.377.411.698.562 1 .151.302.25.53.313.656h2.218l-2.03-4.031c-.227-.44-.474-.86-.75-1.25a4.811 4.811 0 0 0-1-1.094c.88-.239 1.534-.684 2-1.313.477-.641.718-1.456.718-2.437a4.65 4.65 0 0 0-.469-2.094c-.188-.39-.404-.71-.656-.937a2.592 2.592 0 0 0-.813-.531 3.429 3.429 0 0 0-.968-.25A9.475 9.475 0 0 0 22.906 80H18zm15.781 0l-4.25 14H31.5l1.188-4.125h4.124L38.063 94h2.063l-4.531-14H33.78zM42 80v14h1.813v-6.156h1.218c.302 0 .543.043.719.094.189.037.411.136.625.312.138.113.299.323.5.625.201.29.399.61.625 1 .226.377.461.81.688 1.25.238.428.454.829.656 1.219.214.377.411.698.562 1 .151.302.25.53.313.656h2.218l-2.03-4.031c-.227-.44-.474-.86-.75-1.25a4.811 4.811 0 0 0-1-1.094c.88-.239 1.565-.684 2.03-1.313.478-.641.72-1.456.72-2.437 0-.767-.186-1.452-.5-2.094-.19-.39-.405-.71-.657-.937a2.592 2.592 0 0 0-.813-.531 3.219 3.219 0 0 0-.937-.25c-.34-.038-.716-.063-1.094-.063H42zm-22.156 1.688H23c.692 0 1.21.185 1.563.562.352.377.53.933.53 1.625 0 .792-.228 1.367-.655 1.719-.416.34-1.002.5-1.782.5h-2.812v-4.406zm24 0H47c.692 0 1.21.185 1.563.562.352.377.53.933.53 1.625 0 .792-.197 1.367-.624 1.719-.415.34-1.033.5-1.813.5h-2.812v-4.406zm-9.157 1.156c.227.893.486 1.788.75 2.656.277.868.53 1.726.782 2.594h-3c.264-.868.548-1.739.812-2.594.264-.868.468-1.75.657-2.656z" transform="translate(0 -30)" clip-path="url(#A)" style="text-align:start;line-height:120.00000477%;-inkscape-font-specification:BabelSans Bold" font-size="18.868" font-weight="700" opacity=".05" fill="none" stroke="#fff" stroke-width="6" font-family="BabelSans"/><path d="M18 80v14h1.813v-6.156h1.218c.302 0 .543.043.719.094.189.037.38.136.594.312.138.113.33.323.531.625.201.29.399.61.625 1 .226.377.461.81.688 1.25.238.428.454.829.656 1.219.214.377.411.698.562 1 .151.302.25.53.313.656h2.218l-2.03-4.031c-.227-.44-.474-.86-.75-1.25a4.811 4.811 0 0 0-1-1.094c.88-.239 1.534-.684 2-1.313.477-.641.718-1.456.718-2.437a4.65 4.65 0 0 0-.469-2.094c-.188-.39-.404-.71-.656-.937a2.592 2.592 0 0 0-.813-.531 3.429 3.429 0 0 0-.968-.25A9.475 9.475 0 0 0 22.906 80H18zm15.781 0l-4.25 14H31.5l1.188-4.125h4.124L38.063 94h2.063l-4.531-14H33.78zM42 80v14h1.813v-6.156h1.218c.302 0 .543.043.719.094.189.037.411.136.625.312.138.113.299.323.5.625.201.29.399.61.625 1 .226.377.461.81.688 1.25.238.428.454.829.656 1.219.214.377.411.698.562 1 .151.302.25.53.313.656h2.218l-2.03-4.031c-.227-.44-.474-.86-.75-1.25a4.811 4.811 0 0 0-1-1.094c.88-.239 1.565-.684 2.03-1.313.478-.641.72-1.456.72-2.437 0-.767-.186-1.452-.5-2.094-.19-.39-.405-.71-.657-.937a2.592 2.592 0 0 0-.813-.531 3.219 3.219 0 0 0-.937-.25c-.34-.038-.716-.063-1.094-.063H42zm-22.156 1.688H23c.692 0 1.21.185 1.563.562.352.377.53.933.53 1.625 0 .792-.228 1.367-.655 1.719-.416.34-1.002.5-1.782.5h-2.812v-4.406zm24 0H47c.692 0 1.21.185 1.563.562.352.377.53.933.53 1.625 0 .792-.197 1.367-.624 1.719-.415.34-1.033.5-1.813.5h-2.812v-4.406zm-9.157 1.156c.227.893.486 1.788.75 2.656.277.868.53 1.726.782 2.594h-3c.264-.868.548-1.739.812-2.594.264-.868.468-1.75.657-2.656z" transform="translate(0 -30)" clip-path="url(#A)" style="text-align:start;line-height:120.00000477%;-inkscape-font-specification:BabelSans Bold" font-size="18.868" font-weight="700" opacity=".08" fill="none" stroke="#fff" stroke-width="4" font-family="BabelSans"/><path d="M18 80v14h1.813v-6.156h1.218c.302 0 .543.043.719.094.189.037.38.136.594.312.138.113.33.323.531.625.201.29.399.61.625 1 .226.377.461.81.688 1.25.238.428.454.829.656 1.219.214.377.411.698.562 1 .151.302.25.53.313.656h2.218l-2.03-4.031c-.227-.44-.474-.86-.75-1.25a4.811 4.811 0 0 0-1-1.094c.88-.239 1.534-.684 2-1.313.477-.641.718-1.456.718-2.437a4.65 4.65 0 0 0-.469-2.094c-.188-.39-.404-.71-.656-.937a2.592 2.592 0 0 0-.813-.531 3.429 3.429 0 0 0-.968-.25A9.475 9.475 0 0 0 22.906 80H18zm15.781 0l-4.25 14H31.5l1.188-4.125h4.124L38.063 94h2.063l-4.531-14H33.78zM42 80v14h1.813v-6.156h1.218c.302 0 .543.043.719.094.189.037.411.136.625.312.138.113.299.323.5.625.201.29.399.61.625 1 .226.377.461.81.688 1.25.238.428.454.829.656 1.219.214.377.411.698.562 1 .151.302.25.53.313.656h2.218l-2.03-4.031c-.227-.44-.474-.86-.75-1.25a4.811 4.811 0 0 0-1-1.094c.88-.239 1.565-.684 2.03-1.313.478-.641.72-1.456.72-2.437 0-.767-.186-1.452-.5-2.094-.19-.39-.405-.71-.657-.937a2.592 2.592 0 0 0-.813-.531 3.219 3.219 0 0 0-.937-.25c-.34-.038-.716-.063-1.094-.063H42zm-22.156 1.688H23c.692 0 1.21.185 1.563.562.352.377.53.933.53 1.625 0 .792-.228 1.367-.655 1.719-.416.34-1.002.5-1.782.5h-2.812v-4.406zm24 0H47c.692 0 1.21.185 1.563.562.352.377.53.933.53 1.625 0 .792-.197 1.367-.624 1.719-.415.34-1.033.5-1.813.5h-2.812v-4.406zm-9.157 1.156c.227.893.486 1.788.75 2.656.277.868.53 1.726.782 2.594h-3c.264-.868.548-1.739.812-2.594.264-.868.468-1.75.657-2.656z" transform="translate(0 -30)" clip-path="url(#A)" style="text-align:start;line-height:120.00000477%;-inkscape-font-specification:BabelSans Bold" font-size="18.868" font-weight="700" opacity=".15" fill="none" stroke="#fff" stroke-width="2" font-family="BabelSans"/><path d="M66 6v55c0 1.662 1.338 3 3 3h6c1.662 0 3-1.338 3-3V6h-4v2h-4V6h-4z" fill="#252525"/><path fill="#4d4d4d" d="M70 8h4v49h-4z"/><rect width="6" height="4" rx="1" ry="1" x="69" y="56" fill="url(#B)" stroke="#000" stroke-width=".5" stroke-linecap="square" stroke-opacity=".564"/><path d="M66 6v55c0 1.662 1.338 3 3 3h6c1.662 0 3-1.338 3-3V6h-4v2h-4V6h-4z" clip-path="url(#C)" fill="none" stroke="#000" stroke-width="2" stroke-linecap="square" filter="url(#D)"/><path d="M69.5 51a.5.5 0 0 0-.5.5v3c0 .282.23.5.5.5h1a.5.5 0 0 0 .5-.5V54h1.5c.277 0 .5-.223.5-.5v-1c0-.277-.223-.5-.5-.5H71v-.5a.5.5 0 0 0-.5-.5h-1z" id="F" fill="url(#E)" fill-opacity="1" fill-rule="nonzero" stroke="#000" stroke-width=".5" stroke-linecap="square" stroke-linejoin="miter" stroke-miterlimit="4" stroke-opacity=".564" stroke-dasharray="none" stroke-dashoffset="0"/><use transform="translate(0 -6)" id="G" x="0" y="0" width="96" height="96" xlink:href="#F"/><use transform="translate(0 -6)" id="H" x="0" y="0" width="96" height="96" xlink:href="#G"/><use transform="translate(0 -6)" id="I" x="0" y="0" width="96" height="96" xlink:href="#H"/><use transform="translate(0 -6)" id="J" x="0" y="0" width="96" height="96" xlink:href="#I"/><use transform="translate(0 -6)" id="K" x="0" y="0" width="96" height="96" xlink:href="#J"/><use transform="translate(0 -6)" id="L" x="0" y="0" width="96" height="96" xlink:href="#K"/><use transform="translate(0 -6)" width="96" height="96" xlink:href="#L"/><path d="M74.5 48a.5.5 0 0 1 .5.5v3a.5.5 0 0 1-.5.5h-1a.5.5 0 0 1-.5-.5V51h-1.5a.499.499 0 0 1-.5-.5v-1c0-.277.223-.5.5-.5H73v-.5a.5.5 0 0 1 .5-.5h1z" id="N" fill="url(#M)" fill-opacity="1" fill-rule="nonzero" stroke="#000" stroke-width=".5" stroke-linecap="square" stroke-linejoin="miter" stroke-miterlimit="4" stroke-opacity=".564" stroke-dasharray="none" stroke-dashoffset="0"/><use transform="translate(0 -6)" id="O" x="0" y="0" width="96" height="96" xlink:href="#N"/><use transform="translate(0 -6)" id="P" x="0" y="0" width="96" height="96" xlink:href="#O"/><use transform="translate(0 -6)" id="Q" x="0" y="0" width="96" height="96" xlink:href="#P"/><use transform="translate(0 -6)" id="R" x="0" y="0" width="96" height="96" xlink:href="#Q"/><use transform="translate(0 -6)" id="S" x="0" y="0" width="96" height="96" xlink:href="#R"/><use transform="translate(0 -6)" width="96" height="96" xlink:href="#S"/><path d="M65 6v55c0 2.202 1.798 4 4 4h6c2.202 0 4-1.798 4-4V6h-1v55c0 1.662-1.338 3-3 3h-6c-1.662 0-3-1.338-3-3V6h-1z" fill="url(#T)"/><path d="M69.5 10.531c-1.028 0-1.969.765-1.969 1.813v10.812c0 1.048.918 1.844 1.969 1.844h5c1.05 0 1.969-.796 1.969-1.844V12.344c0-1.048-.941-1.813-1.969-1.813h-5zm1.063 9.063h2.874v1.75h-2.874v-1.75z" transform="translate(0 -2)" stroke="#000" stroke-width=".5" stroke-linecap="square" stroke-opacity=".564" filter="url(#U)"/><path d="M69.23 9.021c-.688 0-1.23.483-1.23 1.082l-.005 10.815c0 .6.542 1.082 1.23 1.082h5.582c.688 0 1.23-.482 1.23-1.082l.005-10.815c0-.6-.542-1.082-1.23-1.082H69.23zm.704 7.95h4.1v3.118h-4.1v-3.118z" fill="url(#V)"/><path d="M74.563 9.969c.276 0 .5.223.5.5V20.53c0 .277-.224.5-.5.5h-5.094a.499.499 0 0 1-.5-.5V10.47c0-.277.223-.5.5-.5h5.094zm-.438 6.969H70v3.125h4.125v-3.125z" fill="url(#W)"/><rect width="3.379" height="5" rx=".563" ry=".5" x="70.311" y="7.5" fill="url(#X)" stroke="#000" stroke-linecap="square" stroke-opacity=".564"/><path opacity=".3" d="M69.985 16h4v1h-4z"/><path d="M18 50v14h1.813v-6.156h1.218c.302 0 .543.043.719.093.189.038.38.137.594.313.138.113.33.323.531.625.201.29.399.61.625 1 .226.377.461.81.688 1.25.238.428.454.829.656 1.219.214.377.411.698.562 1 .151.302.25.53.313.656h2.218l-2.03-4.031c-.227-.44-.474-.86-.75-1.25a4.811 4.811 0 0 0-1-1.094c.88-.239 1.534-.684 2-1.313.477-.641.718-1.456.718-2.437a4.65 4.65 0 0 0-.469-2.094c-.188-.39-.404-.71-.656-.937a2.592 2.592 0 0 0-.813-.532 3.429 3.429 0 0 0-.968-.25A9.475 9.475 0 0 0 22.906 50H18zm15.781 0l-4.25 14H31.5l1.188-4.125h4.124L38.063 64h2.063l-4.531-14H33.78zM42 50v14h1.813v-6.156h1.218c.302 0 .543.043.719.093.189.038.411.137.625.313.138.113.299.323.5.625.201.29.399.61.625 1 .226.377.461.81.688 1.25.238.428.454.829.656 1.219.214.377.411.698.562 1 .151.302.25.53.313.656h2.218l-2.03-4.031c-.227-.44-.474-.86-.75-1.25a4.811 4.811 0 0 0-1-1.094c.88-.239 1.565-.684 2.03-1.313.478-.641.72-1.456.72-2.437 0-.767-.186-1.452-.5-2.094-.19-.39-.405-.71-.657-.937a2.592 2.592 0 0 0-.813-.532 3.219 3.219 0 0 0-.937-.25c-.34-.037-.716-.062-1.094-.062H42zm-22.156 1.688H23c.692 0 1.21.185 1.563.562.352.377.53.933.53 1.625 0 .792-.228 1.367-.655 1.719-.416.34-1.002.5-1.782.5h-2.812v-4.407zm24 0H47c.692 0 1.21.185 1.563.562.352.377.53.933.53 1.625 0 .792-.197 1.367-.624 1.719-.415.34-1.033.5-1.813.5h-2.812v-4.407zm-9.157 1.156c.227.893.486 1.788.75 2.656.277.868.53 1.726.782 2.594h-3c.264-.868.548-1.739.812-2.594.264-.868.468-1.75.657-2.656z" style="text-align:start;line-height:120.00000477%;-inkscape-font-specification:BabelSans Bold" font-size="18.868" font-weight="700" fill="#43134e" font-family="BabelSans"/><path d="M18 50v1h4.906c.378 0 .723.025 1.063.063.34.037.68.124.968.25.302.125.561.292.813.53.252.227.468.548.656.938.236.481.38.985.438 1.532.01-.142.031-.289.031-.438a4.65 4.65 0 0 0-.469-2.094c-.188-.39-.404-.71-.656-.937a2.592 2.592 0 0 0-.813-.532 3.429 3.429 0 0 0-.968-.25A9.475 9.475 0 0 0 22.906 50H18zm15.781 0l-4.25 14h.313l3.937-13h1.813l4.218 13h.313l-4.531-14H33.78zM42 50v1h4.906c.378 0 .754.025 1.094.063.34.037.648.124.938.25.301.125.56.292.812.53.252.227.468.548.656.938.236.481.402.985.469 1.532.011-.142.031-.289.031-.438 0-.767-.185-1.452-.5-2.094-.188-.39-.404-.71-.656-.937a2.592 2.592 0 0 0-.813-.532 3.219 3.219 0 0 0-.937-.25c-.34-.037-.716-.062-1.094-.062H42zm-16.938 4.438c-.084.512-.304.892-.625 1.156-.415.34-1 .5-1.78.5h-2.813v1h2.812c.78 0 1.366-.16 1.782-.5.427-.352.656-.927.656-1.719 0-.151-.014-.3-.032-.438zm24 0c-.075.512-.273.892-.593 1.156-.415.34-1.033.5-1.813.5h-2.812v1h2.812c.78 0 1.398-.16 1.813-.5.427-.352.625-.927.625-1.719 0-.151-.014-.3-.032-.438zm-15.53 3.656c-.106.334-.211.665-.313 1h3c-.098-.336-.214-.666-.313-1h-2.375zm-8.657.25c-.222.106-.458.21-.719.281.403.327.736.691 1 1.094.277.39.524.81.75 1.25L27.438 64h.5l-2.032-4.031c-.226-.44-.473-.86-.75-1.25a4.333 4.333 0 0 0-.281-.375zm24 0c-.226.106-.458.21-.719.281.403.327.736.691 1 1.094.277.39.524.81.75 1.25L51.438 64h.5l-2.032-4.031c-.226-.44-.473-.86-.75-1.25a4.333 4.333 0 0 0-.281-.375z" style="text-align:start;line-height:120.00000477%;-inkscape-font-specification:BabelSans Bold" font-size="18.868" font-weight="700" opacity=".4" font-family="BabelSans"/></g></svg>