<svg xmlns="http://www.w3.org/2000/svg" xmlns:xlink="http://www.w3.org/1999/xlink" version="1.0" width="96" height="96"><defs><linearGradient id="f"><stop offset="0" stop-color="#818181"/><stop offset=".2" stop-color="#f9f9f9"/><stop offset="1" stop-color="#dcdcdc" stop-opacity="0"/></linearGradient><linearGradient id="d"><stop offset="0" stop-color="#dcdcdc"/><stop offset="1" stop-color="#fafafa"/></linearGradient><linearGradient id="b"><stop offset="0" stop-color="#fff" stop-opacity=".39"/><stop offset="1" stop-opacity=".268"/></linearGradient><linearGradient id="a"><stop offset="0" stop-color="#c30000"/><stop offset="1" stop-color="#f12300"/></linearGradient><linearGradient x1="45.448" y1="92.54" x2="45.448" y2="7.017" id="h" gradientUnits="userSpaceOnUse" gradientTransform="scale(1.00587 .99417)"><stop offset="0"/><stop offset="1" stop-opacity=".588"/></linearGradient><linearGradient id="e"><stop offset="0" stop-color="#fff"/><stop offset="1" stop-color="#fff" stop-opacity="0"/></linearGradient><linearGradient id="c"><stop offset="0" stop-color="#b4b4b4"/><stop offset="1" stop-color="#dcdcdc"/></linearGradient><filter color-interpolation-filters="sRGB" id="i"><feGaussianBlur stdDeviation="1.71"/></filter><linearGradient x1="48" y1="84" x2="48" y2="12" id="t" xlink:href="#a" gradientUnits="userSpaceOnUse"/><linearGradient x1="12" y1="48" x2="84" y2="48" id="u" xlink:href="#b" gradientUnits="userSpaceOnUse" gradientTransform="rotate(90 48 48)"/><radialGradient cx="90" cy="90" r="42" fx="90" fy="90" id="o" xlink:href="#c" gradientUnits="userSpaceOnUse" gradientTransform="matrix(0 -1.08503 2 0 -90 187.653)"/><linearGradient x1="38.748" y1="65.59" x2="38.748" y2="5.833" id="r" xlink:href="#d" gradientUnits="userSpaceOnUse"/><linearGradient x1="19.036" y1="74" x2="87.5" y2="27.429" id="s" xlink:href="#e" gradientUnits="userSpaceOnUse"/><linearGradient x1="6" y1="73" x2="24" y2="73" id="p" xlink:href="#f" gradientUnits="userSpaceOnUse"/><linearGradient x1="6" y1="73" x2="24" y2="73" id="q" xlink:href="#f" gradientUnits="userSpaceOnUse" gradientTransform="matrix(-1 0 0 1 96 0)"/><linearGradient x1="45.448" y1="92.54" x2="45.448" y2="7.017" id="g" gradientUnits="userSpaceOnUse" gradientTransform="matrix(1.00587 0 0 .99417 100 0)"><stop offset="0"/><stop offset="1" stop-opacity=".588"/></linearGradient><linearGradient x1="32.251" y1="6.132" x2="32.251" y2="90.239" id="k" xlink:href="#g" gradientUnits="userSpaceOnUse" gradientTransform="matrix(1.0238 0 0 1.0119 -1.143 -98.071)"/><linearGradient x1="32.251" y1="6.132" x2="32.251" y2="90.239" id="l" xlink:href="#g" gradientUnits="userSpaceOnUse" gradientTransform="matrix(1.0238 0 0 1.0119 -1.143 -98.071)"/><linearGradient x1="32.251" y1="6.132" x2="32.251" y2="90.239" id="m" xlink:href="#g" gradientUnits="userSpaceOnUse" gradientTransform="matrix(1.0238 0 0 1.0119 -1.143 -98.071)"/><linearGradient x1="32.251" y1="6.132" x2="32.251" y2="90.239" id="n" xlink:href="#g" gradientUnits="userSpaceOnUse" gradientTransform="translate(0 -97)"/><linearGradient x1="32.251" y1="6.132" x2="32.251" y2="90.239" id="j" xlink:href="#g" gradientUnits="userSpaceOnUse" gradientTransform="matrix(1.0238 0 0 1.0119 -1.143 -98.071)"/></defs><g transform="scale(1 -1)"><path d="M12-95.031c-5.511 0-10.031 4.52-10.031 10.031v71C1.969-8.489 6.489-3.969 12-3.969h72c5.511 0 10.031-4.52 10.031-10.031v-71c0-5.511-4.52-10.031-10.031-10.031H12z" opacity=".08" fill="url(#j)"/><path d="M12-94.031c-4.972 0-9.031 4.06-9.031 9.031v71c0 4.972 4.06 9.031 9.031 9.031h72c4.972 0 9.031-4.06 9.031-9.031v-71c0-4.972-4.06-9.031-9.031-9.031H12z" opacity=".1" fill="url(#k)"/><path d="M12-93c-4.41 0-8 3.59-8 8v71c0 4.41 3.59 8 8 8h72c4.41 0 8-3.59 8-8v-71c0-4.41-3.59-8-8-8H12z" opacity=".2" fill="url(#l)"/><rect width="86" height="85" rx="7" ry="7" x="5" y="-92" opacity=".3" fill="url(#m)"/><rect width="84" height="84" rx="6" ry="6" x="6" y="-91" opacity=".45" fill="url(#n)"/></g><rect width="84" height="84" rx="6" ry="6" x="6" y="6" fill="url(#o)"/><path d="M6 56v28c0 3.324 2.676 6 6 6h12V56H6z" fill="url(#p)"/><path d="M90 56v28c0 3.324-2.676 6-6 6H72V56h18z" fill="url(#q)"/><path d="M6 82v2c0 3.324 2.676 6 6 6h72c3.324 0 6-2.676 6-6v-2c0 3.324-2.676 6-6 6H12c-3.324 0-6-2.676-6-6z" opacity=".15"/><path d="M6 78v2c0 3.324 2.676 6 6 6h72c3.324 0 6-2.676 6-6v-2c0 3.324-2.676 6-6 6H12c-3.324 0-6-2.676-6-6z" opacity=".8" fill="#fff"/><path d="M6 76v2c0 3.324 2.676 6 6 6h72c3.324 0 6-2.676 6-6v-2c0 3.324-2.676 6-6 6H12c-3.324 0-6-2.676-6-6z" opacity=".15"/><path d="M6 72v2c0 3.324 2.676 6 6 6h72c3.324 0 6-2.676 6-6v-2c0 3.324-2.676 6-6 6H12c-3.324 0-6-2.676-6-6z" opacity=".8" fill="#fff"/><path d="M6 70v2c0 3.324 2.676 6 6 6h72c3.324 0 6-2.676 6-6v-2c0 3.324-2.676 6-6 6H12c-3.324 0-6-2.676-6-6z" opacity=".15"/><rect width="84" height="68" rx="6" ry="6" x="6" y="6" fill="url(#r)"/><path d="M12 6c-3.324 0-6 2.676-6 6v56c0 3.324 2.676 6 6 6h72c3.324 0 6-2.676 6-6V12c0-3.324-2.676-6-6-6H12zm0 2h72c2.246 0 4 1.754 4 4v56c0 2.246-1.754 4-4 4H12c-2.246 0-4-1.754-4-4V12c0-2.246 1.754-4 4-4z" fill="url(#s)"/></svg>