<svg xmlns="http://www.w3.org/2000/svg" xmlns:xlink="http://www.w3.org/1999/xlink" version="1.0" width="96" height="96"><defs><linearGradient id="g"><stop offset="0" stop-color="#b2822c"/><stop offset="1" stop-color="#fcdd67"/></linearGradient><linearGradient id="b"><stop offset="0" stop-color="#b67229"/><stop offset=".2" stop-color="#ffe169"/><stop offset="1" stop-color="#e5b54c" stop-opacity="0"/></linearGradient><linearGradient id="d"><stop offset="0" stop-color="#d09618"/><stop offset="1" stop-color="#eec363"/></linearGradient><linearGradient id="i"><stop offset="0" stop-color="#2f2f2f"/><stop offset=".437" stop-color="#fff"/><stop offset=".621" stop-color="#979797"/><stop offset=".772" stop-color="#505050"/><stop offset="1" stop-color="#e6e6e6"/></linearGradient><linearGradient id="h"><stop offset="0" stop-color="#ededed"/><stop offset="1" stop-color="#b0b0b0"/></linearGradient><linearGradient id="e"><stop offset="0" stop-color="#b4b4b4"/><stop offset=".205" stop-color="#646464"/><stop offset=".496" stop-color="#fff"/><stop offset="1" stop-color="#3c3c3c"/></linearGradient><linearGradient id="f"><stop offset="0" stop-color="#fff"/><stop offset=".49" stop-color="#8c8c8c"/><stop offset=".5" stop-color="#cfcfcf"/><stop offset=".623" stop-color="#fff"/><stop offset=".817" stop-color="#c8c8c8"/><stop offset="1" stop-color="#505050"/></linearGradient><linearGradient id="c"><stop offset="0" stop-color="#e5a824"/><stop offset="1" stop-color="#ffe680"/></linearGradient><linearGradient x1="45.448" y1="92.54" x2="45.448" y2="7.017" id="k" gradientUnits="userSpaceOnUse" gradientTransform="scale(1.00587 .99417)"><stop offset="0"/><stop offset="1" stop-opacity=".588"/></linearGradient><linearGradient id="a"><stop offset="0" stop-color="#fff"/><stop offset="1" stop-color="#fff" stop-opacity="0"/></linearGradient><filter color-interpolation-filters="sRGB" id="l"><feGaussianBlur stdDeviation="1.71"/></filter><linearGradient x1="19.036" y1="74" x2="87.5" y2="27.429" id="v" xlink:href="#a" gradientUnits="userSpaceOnUse"/><linearGradient x1="6" y1="73" x2="24" y2="73" id="s" xlink:href="#b" gradientUnits="userSpaceOnUse"/><linearGradient x1="6" y1="73" x2="24" y2="73" id="t" xlink:href="#b" gradientUnits="userSpaceOnUse" gradientTransform="matrix(-1 0 0 1 96 0)"/><linearGradient x1="38.748" y1="72.409" x2="38.748" y2="5.833" id="u" xlink:href="#c" gradientUnits="userSpaceOnUse"/><radialGradient cx="90" cy="90" r="42" fx="90" fy="90" id="r" xlink:href="#d" gradientUnits="userSpaceOnUse" gradientTransform="matrix(0 -1.08503 2 0 -90 187.653)"/><clipPath id="y"><path d="M66 6v55c0 1.662 1.338 3 3 3h6c1.662 0 3-1.338 3-3V6h-4v2h-4V6h-4z" fill="#fff"/></clipPath><filter x="-.166" y="-.037" width="1.332" height="1.073" color-interpolation-filters="sRGB" id="z"><feGaussianBlur stdDeviation=".9"/></filter><linearGradient x1="68.75" y1="59" x2="75.25" y2="59" id="x" xlink:href="#e" gradientUnits="userSpaceOnUse" gradientTransform="translate(0 -1)"/><linearGradient x1="69" y1="54" x2="73" y2="54" id="A" xlink:href="#f" gradientUnits="userSpaceOnUse" gradientTransform="translate(0 -1)"/><linearGradient x1="63.485" y1="64.163" x2="79" y2="65" id="P" xlink:href="#g" gradientUnits="userSpaceOnUse"/><filter x="-.162" y="-.095" width="1.324" height="1.191" color-interpolation-filters="sRGB" id="Q"><feGaussianBlur stdDeviation=".536"/></filter><linearGradient x1="68.969" y1="17.5" x2="75.063" y2="17.5" id="S" xlink:href="#h" gradientUnits="userSpaceOnUse" gradientTransform="matrix(-1 0 0 1 144.031 -2)"/><linearGradient x1="68.029" y1="17.763" x2="75.971" y2="17.763" id="R" xlink:href="#h" gradientUnits="userSpaceOnUse" gradientTransform="translate(0 -2)"/><linearGradient x1="68.75" y1="59" x2="72.251" y2="59" id="T" xlink:href="#e" gradientUnits="userSpaceOnUse" gradientTransform="matrix(1.12627 0 0 1 -7.402 -49.5)"/><linearGradient x1="69" y1="54" x2="73" y2="54" id="I" xlink:href="#i" gradientUnits="userSpaceOnUse" gradientTransform="matrix(-1 0 0 1 144 -4)"/><clipPath id="w"><path d="M11.688 64.375c-2.217 0-4 1.784-4 4v33.688c0 2.215 1.783 4 4 4H47.78c2.216 0 4-1.785 4-4V68.374c0-2.216-1.784-4-4-4H11.688zM18.561 80h7.282v1.906c-.205.352-.434.778-.719 1.281-.274.491-.576 1.016-.906 1.594-.33.579-.698 1.202-1.063 1.844-.364.642-.717 1.296-1.093 1.938-.365.641-.75 1.258-1.125 1.874-.377.617-.741 1.178-1.094 1.72H26V94h-8v-1.969l5-8.719c.16-.264.29-.498.438-.75.159-.251.329-.53.5-.78h-5.375V80zM28 80h1.813v14H28V80zm4 0h4.219c.44 0 .847.012 1.25.063.402.037.785.13 1.125.28.34.152.642.399.906.688.277.29.499.666.688 1.156.125.315.23.642.28.97.051.314.063.641.063.968 0 .528-.068 1.034-.218 1.563-.139.515-.361.997-.688 1.437a2.225 2.225 0 0 1-.781.656 5.283 5.283 0 0 1-1 .375c-.352.088-.698.15-1.063.188-.352.025-.66.062-.937.062h-2.032V94H32V80zm1.844 1.781v4.781h2.093c.856 0 1.51-.222 2-.624.504-.416.782-1.02.782-1.813 0-.226-.025-.461-.063-.688a2.653 2.653 0 0 0-.187-.656 1.931 1.931 0 0 0-.344-.531 1.155 1.155 0 0 0-.5-.344 1.769 1.769 0 0 0-.625-.094c-.239-.012-.449-.03-.625-.03h-2.531z" fill="#fff"/></clipPath><linearGradient x1="45.448" y1="92.54" x2="45.448" y2="7.017" id="j" gradientUnits="userSpaceOnUse" gradientTransform="matrix(1.00587 0 0 .99417 100 0)"><stop offset="0"/><stop offset="1" stop-opacity=".588"/></linearGradient><linearGradient x1="32.251" y1="6.132" x2="32.251" y2="90.239" id="n" xlink:href="#j" gradientUnits="userSpaceOnUse" gradientTransform="matrix(1.0238 0 0 1.0119 -1.143 -98.071)"/><linearGradient x1="32.251" y1="6.132" x2="32.251" y2="90.239" id="o" xlink:href="#j" gradientUnits="userSpaceOnUse" gradientTransform="matrix(1.0238 0 0 1.0119 -1.143 -98.071)"/><linearGradient x1="32.251" y1="6.132" x2="32.251" y2="90.239" id="p" xlink:href="#j" gradientUnits="userSpaceOnUse" gradientTransform="matrix(1.0238 0 0 1.0119 -1.143 -98.071)"/><linearGradient x1="32.251" y1="6.132" x2="32.251" y2="90.239" id="q" xlink:href="#j" gradientUnits="userSpaceOnUse" gradientTransform="translate(0 -97)"/><linearGradient x1="32.251" y1="6.132" x2="32.251" y2="90.239" id="m" xlink:href="#j" gradientUnits="userSpaceOnUse" gradientTransform="matrix(1.0238 0 0 1.0119 -1.143 -98.071)"/></defs><g transform="scale(1 -1)"><path d="M12-95.031c-5.511 0-10.031 4.52-10.031 10.031v71C1.969-8.489 6.489-3.969 12-3.969h72c5.511 0 10.031-4.52 10.031-10.031v-71c0-5.511-4.52-10.031-10.031-10.031H12z" opacity=".08" fill="url(#m)"/><path d="M12-94.031c-4.972 0-9.031 4.06-9.031 9.031v71c0 4.972 4.06 9.031 9.031 9.031h72c4.972 0 9.031-4.06 9.031-9.031v-71c0-4.972-4.06-9.031-9.031-9.031H12z" opacity=".1" fill="url(#n)"/><path d="M12-93c-4.41 0-8 3.59-8 8v71c0 4.41 3.59 8 8 8h72c4.41 0 8-3.59 8-8v-71c0-4.41-3.59-8-8-8H12z" opacity=".2" fill="url(#o)"/><rect width="86" height="85" rx="7" ry="7" x="5" y="-92" opacity=".3" fill="url(#p)"/><rect width="84" height="84" rx="6" ry="6" x="6" y="-91" opacity=".45" fill="url(#q)"/></g><path d="M12 6c-3.324 0-6 2.676-6 6v72c0 3.324 2.676 6 6 6h72c3.324 0 6-2.676 6-6V12c0-3.324-2.676-6-6-6h-9v3h-6V6H12z" fill="url(#r)"/><path d="M6 56v28c0 3.324 2.676 6 6 6h12V56H6z" fill="url(#s)"/><path d="M90 56v28c0 3.324-2.676 6-6 6H72V56h18z" fill="url(#t)"/><path d="M6 82v2c0 3.324 2.676 6 6 6h72c3.324 0 6-2.676 6-6v-2c0 3.324-2.676 6-6 6H12c-3.324 0-6-2.676-6-6z" opacity=".3" fill="#502d16"/><path d="M6 78v2c0 3.324 2.676 6 6 6h72c3.324 0 6-2.676 6-6v-2c0 3.324-2.676 6-6 6H12c-3.324 0-6-2.676-6-6z" opacity=".3" fill="#fff"/><path d="M6 76v2c0 3.324 2.676 6 6 6h72c3.324 0 6-2.676 6-6v-2c0 3.324-2.676 6-6 6H12c-3.324 0-6-2.676-6-6z" opacity=".3" fill="#502d16"/><path d="M6 72v2c0 3.324 2.676 6 6 6h72c3.324 0 6-2.676 6-6v-2c0 3.324-2.676 6-6 6H12c-3.324 0-6-2.676-6-6z" opacity=".3" fill="#fff"/><path d="M6 70v2c0 3.324 2.676 6 6 6h72c3.324 0 6-2.676 6-6v-2c0 3.324-2.676 6-6 6H12c-3.324 0-6-2.676-6-6z" opacity=".3" fill="#502d16"/><path d="M12 6c-3.324 0-6 2.676-6 6v56c0 3.324 2.676 6 6 6h72c3.324 0 6-2.676 6-6V12c0-3.324-2.676-6-6-6h-9v3h-6V6H12z" fill="url(#u)"/><path d="M12 6c-3.324 0-6 2.676-6 6v56c0 3.324 2.676 6 6 6h72c3.324 0 6-2.676 6-6V12c0-3.324-2.676-6-6-6h-9v2h9c2.246 0 4 1.754 4 4v56c0 2.246-1.754 4-4 4H12c-2.246 0-4-1.754-4-4V12c0-2.246 1.754-4 4-4h57V6H12z" opacity=".5" fill="url(#v)"/><g><path d="M18.563 80v1.781h5.375c-.171.252-.341.53-.5.781-.149.252-.278.486-.438.75l-5 8.72V94h8v-1.844h-6.156c.353-.54.717-1.102 1.093-1.719.377-.616.76-1.233 1.125-1.874.377-.642.73-1.296 1.094-1.938.365-.642.732-1.265 1.063-1.844.33-.578.632-1.103.906-1.594.285-.503.514-.929.719-1.28V80h-7.282zM28 80v14h1.813V80H28zm4 0v14h1.813v-5.594h2.03c.277 0 .586-.037.938-.062.365-.038.71-.1 1.063-.188.352-.1.685-.211 1-.375.314-.163.592-.392.781-.656.327-.44.55-.922.688-1.438.15-.528.218-1.034.218-1.562 0-.327-.012-.654-.062-.969a4.48 4.48 0 0 0-.282-.969c-.188-.49-.41-.866-.687-1.156-.264-.289-.567-.536-.906-.687a3.606 3.606 0 0 0-1.125-.281c-.403-.05-.81-.063-1.25-.063H32zm1.844 1.781h2.531c.176 0 .386.019.625.031.252 0 .461.031.625.094.201.076.362.18.5.344.138.151.256.33.344.531.088.202.15.418.187.656.038.227.063.462.063.688 0 .792-.278 1.397-.782 1.813-.49.402-1.144.625-2 .624h-2.093v-4.78z" transform="translate(0 -30)" clip-path="url(#w)" style="text-align:start;line-height:120.00000477%;-inkscape-font-specification:BabelSans Bold" font-size="18.868" font-weight="700" opacity=".05" fill="none" stroke="#fff" stroke-width="6" font-family="BabelSans"/><path d="M18.563 80v1.781h5.375c-.171.252-.341.53-.5.781-.149.252-.278.486-.438.75l-5 8.72V94h8v-1.844h-6.156c.353-.54.717-1.102 1.093-1.719.377-.616.76-1.233 1.125-1.874.377-.642.73-1.296 1.094-1.938.365-.642.732-1.265 1.063-1.844.33-.578.632-1.103.906-1.594.285-.503.514-.929.719-1.28V80h-7.282zM28 80v14h1.813V80H28zm4 0v14h1.813v-5.594h2.03c.277 0 .586-.037.938-.062.365-.038.71-.1 1.063-.188.352-.1.685-.211 1-.375.314-.163.592-.392.781-.656.327-.44.55-.922.688-1.438.15-.528.218-1.034.218-1.562 0-.327-.012-.654-.062-.969a4.48 4.48 0 0 0-.282-.969c-.188-.49-.41-.866-.687-1.156-.264-.289-.567-.536-.906-.687a3.606 3.606 0 0 0-1.125-.281c-.403-.05-.81-.063-1.25-.063H32zm1.844 1.781h2.531c.176 0 .386.019.625.031.252 0 .461.031.625.094.201.076.362.18.5.344.138.151.256.33.344.531.088.202.15.418.187.656.038.227.063.462.063.688 0 .792-.278 1.397-.782 1.813-.49.402-1.144.625-2 .624h-2.093v-4.78z" transform="translate(0 -30)" clip-path="url(#w)" style="text-align:start;line-height:120.00000477%;-inkscape-font-specification:BabelSans Bold" font-size="18.868" font-weight="700" opacity=".1" fill="none" stroke="#fff" stroke-width="4" font-family="BabelSans"/><path d="M18.563 80v1.781h5.375c-.171.252-.341.53-.5.781-.149.252-.278.486-.438.75l-5 8.72V94h8v-1.844h-6.156c.353-.54.717-1.102 1.093-1.719.377-.616.76-1.233 1.125-1.874.377-.642.73-1.296 1.094-1.938.365-.642.732-1.265 1.063-1.844.33-.578.632-1.103.906-1.594.285-.503.514-.929.719-1.28V80h-7.282zM28 80v14h1.813V80H28zm4 0v14h1.813v-5.594h2.03c.277 0 .586-.037.938-.062.365-.038.71-.1 1.063-.188.352-.1.685-.211 1-.375.314-.163.592-.392.781-.656.327-.44.55-.922.688-1.438.15-.528.218-1.034.218-1.562 0-.327-.012-.654-.062-.969a4.48 4.48 0 0 0-.282-.969c-.188-.49-.41-.866-.687-1.156-.264-.289-.567-.536-.906-.687a3.606 3.606 0 0 0-1.125-.281c-.403-.05-.81-.063-1.25-.063H32zm1.844 1.781h2.531c.176 0 .386.019.625.031.252 0 .461.031.625.094.201.076.362.18.5.344.138.151.256.33.344.531.088.202.15.418.187.656.038.227.063.462.063.688 0 .792-.278 1.397-.782 1.813-.49.402-1.144.625-2 .624h-2.093v-4.78z" transform="translate(0 -30)" clip-path="url(#w)" style="text-align:start;line-height:120.00000477%;-inkscape-font-specification:BabelSans Bold" font-size="18.868" font-weight="700" opacity=".2" fill="none" stroke="#fff" stroke-width="2" font-family="BabelSans"/><path d="M66 6v55c0 1.662 1.338 3 3 3h6c1.662 0 3-1.338 3-3V6h-4v2h-4V6h-4z" fill="#252525"/><path fill="#4d4d4d" d="M70 8h4v49h-4z"/><rect width="6" height="4" rx="1" ry="1" x="69" y="56" fill="url(#x)" stroke="#000" stroke-width=".5" stroke-linecap="square" stroke-opacity=".564"/><path d="M66 6v55c0 1.662 1.338 3 3 3h6c1.662 0 3-1.338 3-3V6h-4v2h-4V6h-4z" clip-path="url(#y)" fill="none" stroke="#000" stroke-width="2" stroke-linecap="square" filter="url(#z)"/><path d="M69.5 51a.5.5 0 0 0-.5.5v3c0 .282.23.5.5.5h1a.5.5 0 0 0 .5-.5V54h1.5c.277 0 .5-.223.5-.5v-1c0-.277-.223-.5-.5-.5H71v-.5a.5.5 0 0 0-.5-.5h-1z" id="B" fill="url(#A)" fill-opacity="1" fill-rule="nonzero" stroke="#000" stroke-width=".5" stroke-linecap="square" stroke-linejoin="miter" stroke-miterlimit="4" stroke-opacity=".564" stroke-dasharray="none" stroke-dashoffset="0"/><use transform="translate(0 -6)" id="C" x="0" y="0" width="96" height="96" xlink:href="#B"/><use transform="translate(0 -6)" id="D" x="0" y="0" width="96" height="96" xlink:href="#C"/><use transform="translate(0 -6)" id="E" x="0" y="0" width="96" height="96" xlink:href="#D"/><use transform="translate(0 -6)" id="F" x="0" y="0" width="96" height="96" xlink:href="#E"/><use transform="translate(0 -6)" id="G" x="0" y="0" width="96" height="96" xlink:href="#F"/><use transform="translate(0 -6)" id="H" x="0" y="0" width="96" height="96" xlink:href="#G"/><use transform="translate(0 -6)" width="96" height="96" xlink:href="#H"/><path d="M74.5 48a.5.5 0 0 1 .5.5v3a.5.5 0 0 1-.5.5h-1a.5.5 0 0 1-.5-.5V51h-1.5a.499.499 0 0 1-.5-.5v-1c0-.277.223-.5.5-.5H73v-.5a.5.5 0 0 1 .5-.5h1z" id="J" fill="url(#I)" fill-opacity="1" fill-rule="nonzero" stroke="#000" stroke-width=".5" stroke-linecap="square" stroke-linejoin="miter" stroke-miterlimit="4" stroke-opacity=".564" stroke-dasharray="none" stroke-dashoffset="0"/><use transform="translate(0 -6)" id="K" x="0" y="0" width="96" height="96" xlink:href="#J"/><use transform="translate(0 -6)" id="L" x="0" y="0" width="96" height="96" xlink:href="#K"/><use transform="translate(0 -6)" id="M" x="0" y="0" width="96" height="96" xlink:href="#L"/><use transform="translate(0 -6)" id="N" x="0" y="0" width="96" height="96" xlink:href="#M"/><use transform="translate(0 -6)" id="O" x="0" y="0" width="96" height="96" xlink:href="#N"/><use transform="translate(0 -6)" width="96" height="96" xlink:href="#O"/><path d="M65 6v55c0 2.202 1.798 4 4 4h6c2.202 0 4-1.798 4-4V6h-1v55c0 1.662-1.338 3-3 3h-6c-1.662 0-3-1.338-3-3V6h-1z" fill="url(#P)"/><path d="M69.5 10.531c-1.028 0-1.969.765-1.969 1.813v10.812c0 1.048.918 1.844 1.969 1.844h5c1.05 0 1.969-.796 1.969-1.844V12.344c0-1.048-.941-1.813-1.969-1.813h-5zm1.063 9.063h2.874v1.75h-2.874v-1.75z" transform="translate(0 -2)" stroke="#000" stroke-width=".5" stroke-linecap="square" stroke-opacity=".564" filter="url(#Q)"/><path d="M69.23 9.021c-.688 0-1.23.483-1.23 1.082l-.005 10.815c0 .6.542 1.082 1.23 1.082h5.582c.688 0 1.23-.482 1.23-1.082l.005-10.815c0-.6-.542-1.082-1.23-1.082H69.23zm.704 7.95h4.1v3.118h-4.1v-3.118z" fill="url(#R)"/><path d="M74.563 9.969c.276 0 .5.223.5.5V20.53c0 .277-.224.5-.5.5h-5.094a.499.499 0 0 1-.5-.5V10.47c0-.277.223-.5.5-.5h5.094zm-.438 6.969H70v3.125h4.125v-3.125z" fill="url(#S)"/><rect width="3.379" height="5" rx=".563" ry=".5" x="70.311" y="7.5" fill="url(#T)" stroke="#000" stroke-linecap="square" stroke-opacity=".564"/><path opacity=".3" d="M69.985 16h4v1h-4z"/><path d="M18.563 50v1.781h5.375c-.171.252-.341.53-.5.782-.149.251-.278.485-.438.75l-5 8.718V64h8v-1.844h-6.156c.353-.54.717-1.102 1.093-1.718.377-.617.76-1.234 1.125-1.876.377-.641.73-1.295 1.094-1.937.365-.642.732-1.265 1.063-1.844.33-.578.632-1.103.906-1.593.285-.504.514-.93.719-1.282V50h-7.282zM28 50v14h1.813V50H28zm4 0v14h1.813v-5.594h2.03c.277 0 .586-.037.938-.062.365-.038.71-.1 1.063-.188.352-.1.685-.211 1-.375.314-.163.592-.392.781-.656.327-.44.55-.922.688-1.438.15-.528.218-1.034.218-1.562 0-.327-.012-.654-.062-.969a4.48 4.48 0 0 0-.282-.968c-.188-.491-.41-.867-.687-1.157-.264-.289-.567-.536-.906-.687a3.606 3.606 0 0 0-1.125-.282c-.403-.05-.81-.062-1.25-.062H32zm1.844 1.781h2.531c.176 0 .386.019.625.032.252 0 .461.03.625.093.201.076.362.18.5.344.138.151.256.33.344.531.088.202.15.418.187.657.038.226.063.46.063.687 0 .792-.278 1.397-.782 1.813-.49.402-1.144.625-2 .624h-2.093v-4.78z" style="text-align:start;line-height:120.00000477%;-inkscape-font-specification:BabelSans Bold" font-size="18.868" font-weight="700" fill="#7a4b21" font-family="BabelSans"/><path d="M18.563 50v1h7.28v-1h-7.28zM28 50v1h1.813v-1H28zm4 0v1h4.219c.44 0 .847.012 1.25.063.402.037.785.13 1.125.28.34.152.642.399.906.688.277.29.499.666.688 1.157.125.314.23.641.28.968.022.132.022.271.032.407.011-.146.031-.29.031-.438 0-.327-.012-.654-.062-.969a4.48 4.48 0 0 0-.282-.968c-.188-.491-.41-.867-.687-1.157-.264-.289-.567-.536-.906-.687a3.606 3.606 0 0 0-1.125-.282c-.403-.05-.81-.062-1.25-.062H32zm-8.688 2.781c-.1.175-.199.344-.312.532l-5 8.718v1l5-8.718c.16-.265.29-.499.438-.75.159-.252.329-.53.5-.782h-.625zm15.344 1.782c-.085.578-.314 1.04-.718 1.374-.491.403-1.145.626-2 .626h-2.094v1h2.093c.856 0 1.51-.223 2-.626.504-.415.782-1.02.782-1.812 0-.186-.036-.375-.063-.563zM20.47 62.156c-.212.334-.42.687-.625 1H26v-1h-5.531z" style="text-align:start;line-height:120.00000477%;-inkscape-font-specification:BabelSans Bold" font-size="18.868" font-weight="700" opacity=".4" font-family="BabelSans"/></g></svg>