<svg xmlns="http://www.w3.org/2000/svg" xmlns:xlink="http://www.w3.org/1999/xlink" version="1.0" width="96" height="96"><defs><linearGradient x1="45.448" y1="92.54" x2="45.448" y2="7.017" id="n" gradientUnits="userSpaceOnUse" gradientTransform="scale(1.00587 .99417)"><stop offset="0"/><stop offset="1" stop-opacity=".588"/></linearGradient><linearGradient id="a"><stop offset="0" stop-color="#e6e6e6"/><stop offset="1" stop-color="#f5f5f5"/></linearGradient><linearGradient x1="48" y1="90" x2="48" y2="5.988" id="u" xlink:href="#a" gradientUnits="userSpaceOnUse"/><filter color-interpolation-filters="sRGB" id="o"><feGaussianBlur stdDeviation="1.71"/></filter><linearGradient x1="45.448" y1="92.54" x2="45.448" y2="7.017" id="b" gradientUnits="userSpaceOnUse" gradientTransform="matrix(1.00587 0 0 .99417 100 0)"><stop offset="0"/><stop offset="1" stop-opacity=".588"/></linearGradient><linearGradient x1="32.251" y1="6.132" x2="32.251" y2="90.239" id="q" xlink:href="#b" gradientUnits="userSpaceOnUse" gradientTransform="matrix(1.0238 0 0 1.0119 -1.143 -98.071)"/><linearGradient x1="32.251" y1="6.132" x2="32.251" y2="90.239" id="r" xlink:href="#b" gradientUnits="userSpaceOnUse" gradientTransform="matrix(1.0238 0 0 1.0119 -1.143 -98.071)"/><linearGradient x1="32.251" y1="6.132" x2="32.251" y2="90.239" id="s" xlink:href="#b" gradientUnits="userSpaceOnUse" gradientTransform="matrix(1.0238 0 0 1.0119 -1.143 -98.071)"/><linearGradient x1="32.251" y1="6.132" x2="32.251" y2="90.239" id="t" xlink:href="#b" gradientUnits="userSpaceOnUse" gradientTransform="translate(0 -97)"/><linearGradient x1="32.251" y1="6.132" x2="32.251" y2="90.239" id="p" xlink:href="#b" gradientUnits="userSpaceOnUse" gradientTransform="matrix(1.0238 0 0 1.0119 -1.143 -98.071)"/><linearGradient id="d"><stop offset="0" stop-color="#fff"/><stop offset="1" stop-color="#fff" stop-opacity="0"/></linearGradient><radialGradient cx="48" cy="90.172" r="42" fx="48" fy="90.172" id="w" xlink:href="#c" gradientUnits="userSpaceOnUse" gradientTransform="matrix(1.15731 0 0 .9959 -7.551 .197)"/><linearGradient id="c"><stop offset="0" stop-color="#fff"/><stop offset="1" stop-color="#fff" stop-opacity="0"/></linearGradient><linearGradient x1="36.357" y1="6" x2="36.357" y2="63.893" id="v" xlink:href="#d" gradientUnits="userSpaceOnUse"/><linearGradient id="l"><stop offset="0" stop-color="#93ddf7"/><stop offset="1" stop-color="#93ddf7" stop-opacity="0"/></linearGradient><linearGradient id="k"><stop offset="0" stop-color="#003d9e"/><stop offset="1" stop-color="#003d9e" stop-opacity="0"/></linearGradient><linearGradient id="j"><stop offset="0" stop-color="#01a3f1"/><stop offset="1" stop-color="#01a3f1" stop-opacity="0"/></linearGradient><linearGradient id="i"><stop offset="0" stop-color="#002767"/><stop offset=".5" stop-color="#003180" stop-opacity=".364"/><stop offset="1" stop-color="#002767" stop-opacity="0"/></linearGradient><linearGradient id="f"><stop offset="0" stop-color="#51acff"/><stop offset=".5" stop-color="#6abaee" stop-opacity=".675"/><stop offset="1" stop-color="#318fe4" stop-opacity="0"/></linearGradient><linearGradient id="h"><stop offset="0" stop-color="#a2d7fb"/><stop offset="1" stop-color="#a2d7fb" stop-opacity="0"/></linearGradient><linearGradient id="g"><stop offset="0" stop-color="#002767"/><stop offset=".5" stop-color="#003180" stop-opacity=".364"/><stop offset="1" stop-color="#002767" stop-opacity="0"/></linearGradient><linearGradient id="e"><stop offset="0" stop-color="#0a85ff"/><stop offset="1" stop-color="#006ad3" stop-opacity="0"/></linearGradient><filter color-interpolation-filters="sRGB" id="B"><feGaussianBlur stdDeviation=".42"/></filter><radialGradient cx="61" cy="24.634" r="19.008" fx="61" fy="24.634" id="A" xlink:href="#e" gradientUnits="userSpaceOnUse" gradientTransform="matrix(1.26263 -.21044 .0952 .57124 -18.366 22.765)"/><radialGradient cx="41.753" cy="36.957" r="19" fx="41.753" fy="36.957" id="C" xlink:href="#f" gradientUnits="userSpaceOnUse" gradientTransform="matrix(3.3631 -.5909 .30096 1.71295 -109.79 2.68)"/><linearGradient x1="80" y1="37" x2="77" y2="37" id="D" xlink:href="#g" gradientUnits="userSpaceOnUse" gradientTransform="translate(0 3)"/><linearGradient x1="52" y1="10" x2="51.631" y2="8.084" id="E" xlink:href="#h" gradientUnits="userSpaceOnUse" gradientTransform="translate(0 3)"/><radialGradient cx="40.285" cy="39.106" r="19" fx="40.285" fy="39.106" id="F" xlink:href="#f" gradientUnits="userSpaceOnUse" gradientTransform="matrix(3.37296 -.53175 .18746 1.18911 -71.605 16.442)"/><radialGradient cx="46" cy="50.609" r="1.5" fx="46" fy="50.609" id="G" xlink:href="#i" gradientUnits="userSpaceOnUse" gradientTransform="matrix(2.66667 0 0 30.66668 -76.667 -1477.003)"/><radialGradient cx="39.769" cy="69.844" r="11" fx="39.769" fy="69.844" id="H" xlink:href="#j" gradientUnits="userSpaceOnUse" gradientTransform="matrix(1.15979 -.14009 .07244 .5835 -11.414 33.34)"/><linearGradient x1="40" y1="70" x2="41.884" y2="62.968" id="I" xlink:href="#k" gradientUnits="userSpaceOnUse"/><linearGradient x1="40" y1="69" x2="42" y2="64" id="J" xlink:href="#k" gradientUnits="userSpaceOnUse"/><linearGradient x1="31" y1="61" x2="36" y2="70" id="K" xlink:href="#l" gradientUnits="userSpaceOnUse" gradientTransform="translate(0 3)"/><radialGradient cx="39.769" cy="69.844" r="11" fx="39.769" fy="69.844" id="L" xlink:href="#j" gradientUnits="userSpaceOnUse" gradientTransform="matrix(1.15979 -.14009 .07244 .5835 -11.414 33.34)"/><linearGradient x1="40" y1="70" x2="41.884" y2="62.968" id="M" xlink:href="#k" gradientUnits="userSpaceOnUse" gradientTransform="translate(34 -5)"/><linearGradient x1="40" y1="69" x2="42" y2="64" id="N" xlink:href="#k" gradientUnits="userSpaceOnUse" gradientTransform="translate(34 -5)"/><linearGradient x1="31" y1="61" x2="36" y2="70" id="O" xlink:href="#l" gradientUnits="userSpaceOnUse" gradientTransform="translate(34 -2)"/><linearGradient id="m"><stop offset="0" stop-color="#fff"/><stop offset="1" stop-color="#fff" stop-opacity="0"/></linearGradient><clipPath id="x"><rect width="84" height="84" rx="6" ry="6" x="6" y="6" fill="#fff"/></clipPath><filter x="-.192" y="-.192" width="1.384" height="1.384" color-interpolation-filters="sRGB" id="z"><feGaussianBlur stdDeviation="5.28"/></filter><linearGradient x1="48" y1="20.221" x2="48" y2="138.661" id="y" xlink:href="#m" gradientUnits="userSpaceOnUse"/></defs><g transform="scale(1 -1)"><path d="M12-95.031c-5.511 0-10.031 4.52-10.031 10.031v71C1.969-8.489 6.489-3.969 12-3.969h72c5.511 0 10.031-4.52 10.031-10.031v-71c0-5.511-4.52-10.031-10.031-10.031H12z" opacity=".08" fill="url(#p)"/><path d="M12-94.031c-4.972 0-9.031 4.06-9.031 9.031v71c0 4.972 4.06 9.031 9.031 9.031h72c4.972 0 9.031-4.06 9.031-9.031v-71c0-4.972-4.06-9.031-9.031-9.031H12z" opacity=".1" fill="url(#q)"/><path d="M12-93c-4.41 0-8 3.59-8 8v71c0 4.41 3.59 8 8 8h72c4.41 0 8-3.59 8-8v-71c0-4.41-3.59-8-8-8H12z" opacity=".2" fill="url(#r)"/><rect width="86" height="85" rx="7" ry="7" x="5" y="-92" opacity=".3" fill="url(#s)"/><rect width="84" height="84" rx="6" ry="6" x="6" y="-91" opacity=".45" fill="url(#t)"/></g><rect width="84" height="84" rx="6" ry="6" x="6" y="6" fill="url(#u)"/><path d="M12 6c-3.324 0-6 2.676-6 6v72c0 .335.041.65.094.969.048.295.097.597.187.875l.032.094c.098.287.234.547.375.812.144.274.315.536.5.781a6.105 6.105 0 0 0 2.094 1.781c.278.14.573.247.874.344a4.843 4.843 0 0 1-.719-.375c-.007-.004-.023.005-.03 0-.033-.02-.063-.042-.095-.062-.12-.077-.23-.164-.343-.25-.106-.081-.214-.161-.313-.25a5.042 5.042 0 0 1-.5-.531 5.092 5.092 0 0 1-.312-.407c-.025-.038-.039-.086-.063-.125-.065-.103-.13-.204-.187-.312a5.371 5.371 0 0 1-.282-.625c-.008-.022-.023-.04-.03-.063-.033-.092-.037-.187-.063-.281-.03-.107-.07-.203-.094-.313A5.098 5.098 0 0 1 7 85V13c0-2.782 2.218-5 5-5h72c2.782 0 5 2.218 5 5v72c0 .364-.052.721-.125 1.063a4.896 4.896 0 0 1-.156.593c-.008.022-.024.04-.031.063a5.482 5.482 0 0 1-.22.531c-.04.083-.078.17-.124.25-.055.097-.127.188-.188.281a5.092 5.092 0 0 1-.312.406 5.05 5.05 0 0 1-.469.5l-.031.032a4.818 4.818 0 0 1-.438.344c-.102.073-.204.153-.312.218-.008.005-.024-.004-.031 0a4.843 4.843 0 0 1-.72.375c.302-.097.597-.204.876-.344a6.105 6.105 0 0 0 2.094-1.78c.184-.246.355-.508.5-.782a5.69 5.69 0 0 0 .374-.813l.032-.093c.09-.278.139-.58.187-.875.053-.318.094-.634.094-.969V12c0-3.324-2.676-6-6-6H12z" opacity=".5" fill="url(#v)"/><path d="M12 90c-3.324 0-6-2.676-6-6V12c0-.335.041-.65.094-.969.048-.295.097-.597.187-.875l.032-.094a5.69 5.69 0 0 1 .375-.812c.144-.274.315-.536.5-.781a6.105 6.105 0 0 1 2.094-1.781c.278-.14.573-.247.874-.344-.256.1-.486.236-.719.375-.007.004-.023-.005-.03 0-.033.019-.063.042-.095.062-.12.077-.23.164-.343.25-.106.081-.214.161-.313.25a5.042 5.042 0 0 0-.5.532c-.107.13-.218.265-.312.406-.025.038-.039.086-.063.125-.065.103-.13.204-.187.312a5.371 5.371 0 0 0-.282.625c-.007.022-.023.04-.03.063-.033.092-.037.187-.063.281-.03.107-.07.203-.094.313A5.098 5.098 0 0 0 7 11v72c0 2.782 2.218 5 5 5h72c2.782 0 5-2.218 5-5V11c0-.364-.052-.721-.125-1.063a4.896 4.896 0 0 0-.156-.593c-.008-.022-.024-.04-.031-.063a5.482 5.482 0 0 0-.22-.531c-.04-.083-.078-.17-.124-.25-.055-.097-.127-.188-.188-.281a5.092 5.092 0 0 0-.312-.406 5.05 5.05 0 0 0-.469-.5l-.031-.032a4.818 4.818 0 0 0-.438-.343c-.102-.074-.204-.154-.312-.22-.008-.004-.024.005-.031 0a4.843 4.843 0 0 0-.72-.374c.302.097.597.204.876.343a6.105 6.105 0 0 1 2.094 1.782c.184.245.355.507.5.781.14.265.276.525.374.813l.032.093c.09.278.139.58.187.875.053.318.094.634.094.969v72c0 3.324-2.676 6-6 6H12z" opacity=".4" fill="url(#w)"/><rect width="84" height="84" rx="6" ry="6" x="-94" y="6" fill="#f0f"/><path style="marker:none" color="#000" fill="#fff" stroke="#000" stroke-width=".5" stroke-linecap="round" stroke-dashoffset="8.6" overflow="visible" enable-background="accumulate" d="M112 8h16v16h-16z"/><text x="131.393" y="11.969" style="text-align:start;line-height:125%;-inkscape-font-specification:Liberation Sans" font-size="4" font-weight="400" font-family="Liberation Sans"><tspan x="131.393" y="11.969">Width: 2px</tspan><tspan x="131.393" y="16.969">Blur: 12</tspan><tspan x="131.393" y="21.969">Opacity: 60</tspan></text><g><rect width="66" height="66" rx="12" ry="12" x="15" y="15" clip-path="url(#x)" opacity=".5" fill="url(#y)" stroke="#fff" stroke-width=".5" stroke-linecap="round" filter="url(#z)"/></g><g><path d="M65.594 11.094C55.57 12.874 45.51 14.562 35.5 16.406c-1.976.764-1.032 3.248-1.25 4.863v31.45c-5.744-.706-12.716 3.966-11.706 10.278 1.45 5.905 9.111 7.15 13.923 4.726 4.083-1.648 6.413-6.067 5.97-10.33V31.625c5.657-1.02 11.313-2.042 16.97-3.063v20.47c-5.762-.776-12.675 4.002-11.707 10.278 1.451 5.905 9.112 7.149 13.924 4.726 4.082-1.649 6.412-6.068 5.97-10.33-.021-13.703.042-27.416-.031-41.112-.187-.91-1.058-1.55-1.97-1.5z" opacity=".05" fill="#005ef5"/><path d="M65.563 12.063L35.968 17.25a.936.936 0 0 0-.782.938v35.53c-1.615-.233-3.344-.215-5.093.344-2.35.753-4.25 2.13-5.438 3.813-1.187 1.684-1.65 3.745-.968 5.656.681 1.91 2.342 3.249 4.343 3.907 2.002.657 4.367.69 6.719-.063 3.816-1.221 6.437-4.152 6.625-7.313a.936.936 0 0 0 .125-.468V30.812l18.844-3.375v22.594c-1.611-.241-3.338-.25-5.094.313-2.352.752-4.25 2.152-5.438 3.843-1.186 1.692-1.65 3.745-.968 5.657.681 1.91 2.342 3.248 4.343 3.906 2.002.658 4.367.69 6.72-.063 3.816-1.22 6.437-4.152 6.624-7.312a.936.936 0 0 0 .125-.469V13a.936.936 0 0 0-1.094-.938z" opacity=".12" fill="#005ef5"/><path d="M65.712 13l-29.589 5.178v36.57c-1.715-.463-3.744-.435-5.756.208-4.347 1.391-6.937 5.095-5.802 8.276 1.135 3.18 5.57 4.627 9.917 3.236 3.713-1.188 6.131-4.069 6.057-6.865h.023v-29.59l20.712-3.698V51.05c-1.716-.464-3.744-.436-5.756.208-4.347 1.39-6.937 5.095-5.802 8.275 1.135 3.181 5.57 4.628 9.917 3.237 3.713-1.189 6.13-4.07 6.056-6.866h.023V13z" opacity=".3" fill="#005ef5"/><path d="M65.712 12l-29.589 5.178v36.57c-1.715-.463-3.744-.435-5.756.208-4.347 1.391-6.937 5.095-5.802 8.276 1.135 3.18 5.57 4.627 9.917 3.236 3.713-1.188 6.131-4.069 6.057-6.865h.023v-29.59l20.712-3.698V50.05c-1.716-.464-3.744-.436-5.756.208-4.347 1.39-6.937 5.095-5.802 8.275 1.135 3.181 5.57 4.628 9.917 3.237 3.713-1.189 6.13-4.07 6.056-6.866h.023V12z" fill="#0046b5"/><path d="M42 16v13l36-7V9l-36 7z" fill="url(#A)" filter="url(#B)" transform="matrix(.73973 0 0 .73973 6.534 7.562)"/><path d="M79 8l-38 7v47.75c.723.272 1.403.59 2 1V30c0-4 .417-5.5 4-7 10.867-4.548 27-2 32-15z" fill="url(#C)" transform="matrix(.73973 0 0 .73973 6.534 7.562)"/><path d="M80 6l-3 .531V70.25c1.917-1.807 3.028-4.043 2.969-6.25H80V6z" fill="url(#D)" transform="matrix(.73973 0 0 .73973 6.534 7.562)"/><path d="M40 13l1 2 38-7 1-2-40 7z" fill="url(#E)" transform="matrix(.73973 0 0 .73973 6.534 7.562)"/><path d="M77.063 23.438L75 23.78V57.75c.723.272 1.403.59 2 1V25c0-.58.037-1.08.063-1.563z" fill="url(#F)" transform="matrix(.73973 0 0 .73973 6.534 7.562)"/><path d="M46 29l-3 .531V75.25c1.917-1.807 3.028-4.043 2.969-6.25H46V29z" fill="url(#G)" transform="matrix(.73973 0 0 .73973 6.534 7.562)"/><path d="M51 65a11 8 0 1 1-22 0 11 8 0 1 1 22 0z" transform="matrix(.71555 -.22897 .25691 .71993 -12.897 22.076)" style="marker:none" color="#000" fill="url(#H)" overflow="visible" enable-background="accumulate"/><path d="M36.594 62a14.91 14.91 0 0 0-4.375.719c-5.877 1.88-9.379 6.887-7.844 11.187 1.535 4.3 7.53 6.256 13.406 4.375 5.877-1.88 9.379-6.887 7.844-11.187-1.15-3.225-4.79-5.134-9.031-5.094zm.093 1.844a10.452 10.452 0 0 1 3.344.5c1.992.65 3.313 1.823 3.844 3.312.531 1.49.26 3.183-.906 4.844-1.167 1.661-3.222 3.202-5.813 4.031-2.59.83-5.195.776-7.187.125-1.992-.65-3.313-1.823-3.844-3.312-.531-1.49-.26-3.183.906-4.844 1.167-1.661 3.222-3.202 5.813-4.031a13.122 13.122 0 0 1 3.843-.625z" style="marker:none" opacity=".2" color="#000" fill="url(#I)" overflow="visible" enable-background="accumulate" transform="matrix(.73973 0 0 .73973 6.534 7.562)"/><path d="M36.594 62a14.91 14.91 0 0 0-4.375.719c-5.877 1.88-9.379 6.887-7.844 11.187 1.535 4.3 7.53 6.256 13.406 4.375 5.877-1.88 9.379-6.887 7.844-11.187-1.15-3.225-4.79-5.134-9.031-5.094zm.031 1.031c1.308-.01 2.561.174 3.656.532 2.19.714 3.768 2.055 4.407 3.843.638 1.789.22 3.768-1.063 5.594-1.283 1.826-3.44 3.433-6.188 4.313-2.748.879-5.529.84-7.718.124-2.19-.714-3.768-2.055-4.406-3.843-.639-1.789-.22-3.768 1.062-5.594 1.283-1.826 3.44-3.433 6.188-4.313a13.747 13.747 0 0 1 4.062-.656z" style="marker:none" opacity=".5" color="#000" fill="url(#J)" overflow="visible" enable-background="accumulate" transform="matrix(.73973 0 0 .73973 6.534 7.562)"/><path d="M40 65c1.22 2.477-1.444 5.171-5.407 7.125-3.963 1.953-7.723 2.426-8.944-.051-1.221-2.477 1.002-6.068 4.965-8.022C34.577 62.1 38.779 62.523 40 65z" style="marker:none" color="#000" fill="url(#K)" overflow="visible" enable-background="accumulate" transform="matrix(.73973 0 0 .73973 6.534 7.562)"/><path d="M51 65a11 8 0 1 1-22 0 11 8 0 1 1 22 0z" transform="matrix(.71555 -.22897 .25691 .71993 12.254 18.377)" style="marker:none" color="#000" fill="url(#L)" overflow="visible" enable-background="accumulate"/><path d="M70.594 57a14.91 14.91 0 0 0-4.375.719c-5.877 1.88-9.379 6.887-7.844 11.187 1.535 4.3 7.53 6.256 13.406 4.375 5.877-1.88 9.379-6.887 7.844-11.187-1.15-3.225-4.79-5.134-9.031-5.094zm.094 1.844a10.452 10.452 0 0 1 3.343.5c1.992.65 3.313 1.823 3.844 3.312.531 1.49.26 3.183-.906 4.844-1.167 1.661-3.222 3.202-5.813 4.031-2.59.83-5.195.776-7.187.125-1.992-.65-3.313-1.823-3.844-3.312-.531-1.49-.26-3.183.906-4.844 1.167-1.661 3.222-3.202 5.813-4.031a13.122 13.122 0 0 1 3.844-.625z" style="marker:none" opacity=".2" color="#000" fill="url(#M)" overflow="visible" enable-background="accumulate" transform="matrix(.73973 0 0 .73973 6.534 7.562)"/><path d="M70.594 57a14.91 14.91 0 0 0-4.375.719c-5.877 1.88-9.379 6.887-7.844 11.187 1.535 4.3 7.53 6.256 13.406 4.375 5.877-1.88 9.379-6.887 7.844-11.187-1.15-3.225-4.79-5.134-9.031-5.094zm.031 1.031c1.308-.01 2.561.174 3.656.532 2.19.714 3.768 2.055 4.406 3.843.639 1.789.22 3.768-1.062 5.594-1.283 1.826-3.44 3.433-6.188 4.313-2.748.879-5.529.84-7.718.124-2.19-.714-3.768-2.055-4.407-3.843-.638-1.789-.22-3.768 1.063-5.594 1.283-1.826 3.44-3.433 6.188-4.313a13.747 13.747 0 0 1 4.062-.656z" style="marker:none" opacity=".5" color="#000" fill="url(#N)" overflow="visible" enable-background="accumulate" transform="matrix(.73973 0 0 .73973 6.534 7.562)"/><path d="M74 60c1.22 2.477-1.444 5.171-5.407 7.125-3.963 1.953-7.723 2.426-8.944-.051-1.221-2.477 1.002-6.068 4.965-8.022C68.577 57.1 72.779 57.523 74 60z" style="marker:none" color="#000" fill="url(#O)" overflow="visible" enable-background="accumulate" transform="matrix(.73973 0 0 .73973 6.534 7.562)"/><path d="M42.898 72h-1.702c-.31 1.531-.625 3.019-.946 4.464a110.933 110.933 0 0 0-.877 4.318 52.444 52.444 0 0 0-.912-4.35 445 445 0 0 1-1.1-4.432h-1.858a362.592 362.592 0 0 1-1.1 4.56 190.335 190.335 0 0 0-1.015 4.416 120.453 120.453 0 0 0-.843-4.432c-.31-1.477-.613-2.991-.911-4.544h-1.72l2.665 12h1.651c.138-.593.299-1.267.482-2.022l.568-2.345c.206-.819.4-1.65.584-2.49.195-.841.373-1.65.533-2.426.367 1.542.723 3.084 1.067 4.625.355 1.531.716 3.084 1.083 4.658h1.582l2.77-12M54.28 84V72H52.22c-.206.7-.44 1.488-.703 2.361l-.755 2.588c-.252.852-.492 1.65-.72 2.393-.218.733-.395 1.321-.533 1.763a56.14 56.14 0 0 1-.326-1.083c-.125-.442-.263-.922-.411-1.44a143.58 143.58 0 0 0-.48-1.633 77.415 77.415 0 0 0-.498-1.73c-.16-.583-.32-1.149-.48-1.699L46.902 72h-2.265v12h1.647v-8.49L48.704 84h1.527l2.368-8.183V84h1.68M65.423 84l-3.898-12h-1.536l-3.64 12h1.683l1.002-3.542h3.542L63.644 84h1.779m-3.348-5.062h-2.572c.227-.744.453-1.482.68-2.216.226-.744.42-1.504.582-2.28.194.766.404 1.52.63 2.264.238.744.464 1.488.68 2.232" style="text-align:start;line-height:125%;-inkscape-font-specification:BabelSans Medium" font-size="16.173" font-weight="700" fill="#666" font-family="BabelSans"/></g></svg>