<svg xmlns="http://www.w3.org/2000/svg" xmlns:xlink="http://www.w3.org/1999/xlink" version="1.0" width="96" height="96"><defs><linearGradient id="a"><stop offset="0" stop-color="#e5e6b5"/><stop offset="1" stop-color="#f6f6dc"/></linearGradient><linearGradient id="e"><stop offset="0" stop-color="#4f821e"/><stop offset="1" stop-color="#639632"/></linearGradient><linearGradient x1="45.448" y1="92.54" x2="45.448" y2="7.017" id="f" gradientUnits="userSpaceOnUse" gradientTransform="scale(1.00587 .99417)"><stop offset="0"/><stop offset="1" stop-opacity=".588"/></linearGradient><linearGradient x1="48" y1="90" x2="48" y2="5.988" id="m" xlink:href="#a" gradientUnits="userSpaceOnUse"/><filter color-interpolation-filters="sRGB" id="g"><feGaussianBlur stdDeviation="1.71"/></filter><linearGradient x1="45.448" y1="92.54" x2="45.448" y2="7.017" id="b" gradientUnits="userSpaceOnUse" gradientTransform="matrix(1.00587 0 0 .99417 100 0)"><stop offset="0"/><stop offset="1" stop-opacity=".588"/></linearGradient><linearGradient x1="32.251" y1="6.132" x2="32.251" y2="90.239" id="i" xlink:href="#b" gradientUnits="userSpaceOnUse" gradientTransform="matrix(1.0238 0 0 1.0119 -1.143 -98.071)"/><linearGradient x1="32.251" y1="6.132" x2="32.251" y2="90.239" id="j" xlink:href="#b" gradientUnits="userSpaceOnUse" gradientTransform="matrix(1.0238 0 0 1.0119 -1.143 -98.071)"/><linearGradient x1="32.251" y1="6.132" x2="32.251" y2="90.239" id="k" xlink:href="#b" gradientUnits="userSpaceOnUse" gradientTransform="matrix(1.0238 0 0 1.0119 -1.143 -98.071)"/><linearGradient x1="32.251" y1="6.132" x2="32.251" y2="90.239" id="l" xlink:href="#b" gradientUnits="userSpaceOnUse" gradientTransform="translate(0 -97)"/><linearGradient x1="32.251" y1="6.132" x2="32.251" y2="90.239" id="h" xlink:href="#b" gradientUnits="userSpaceOnUse" gradientTransform="matrix(1.0238 0 0 1.0119 -1.143 -98.071)"/><radialGradient cx="48" cy="90.172" r="42" fx="48" fy="90.172" id="r" xlink:href="#c" gradientUnits="userSpaceOnUse" gradientTransform="matrix(1.15731 0 0 .9959 -7.551 .197)"/><linearGradient id="c"><stop offset="0" stop-color="#fff"/><stop offset="1" stop-color="#fff" stop-opacity="0"/></linearGradient><linearGradient id="d"><stop offset="0" stop-color="#fff"/><stop offset="1" stop-color="#fff" stop-opacity="0"/></linearGradient><linearGradient x1="36.357" y1="6" x2="36.357" y2="63.893" id="q" xlink:href="#d" gradientUnits="userSpaceOnUse"/><linearGradient x1="62.136" y1="103.957" x2="62.136" y2="24.043" id="p" xlink:href="#e" gradientUnits="userSpaceOnUse" gradientTransform="matrix(.75256 0 0 .80087 1.239 -3.256)"/><clipPath id="n"><path d="M-98 6c-3.324 0-6 2.676-6 6v72c0 3.324 2.676 6 6 6h72c3.324 0 6-2.676 6-6V12c0-3.324-2.676-6-6-6h-72zm46.031 12.5c2.805.268 4.169 1.994 5.657 4.375l2.218 4.219 3.5-2.344-6.562 12.375-14.063.031 4.407-2.562c-1.243-3.116-2.894-6.682-4.97-9.782-1.857-2.774-4.111-5.2-5.812-6.28l15.625-.032zM-72.312 20c4.133.088 6.752 3.938 8.53 6.563l-5.437 11.156-12-8.032 5.813-9.093c1.123-.445 2.14-.614 3.094-.594zm33.968 16.156L-32.875 48c.177 2.985-4.346 7.126-7.156 7.094l-4.813-.032-5.593-11.124 12.093-7.782zm-40.093 3.032l7.468 11.624-3.781-1.968-6.031 12.906c-.85 2.43-.91 4.937.062 7.281-6.798-9.44-12.538-14.172-8-23.875l1.406-2.968-4.187-2.282 13.063-.718zm25.656 13.906l.031 4.468 13.563-.03c2.422-.274 4.555-1.311 6.093-3.282-4.908 10.685-6.315 18.245-16.5 18.25h-3.156l-.031 5-6.438-12.125 6.438-12.281zm-10.157 4l-.093 15h-12.344c-2.59-1.163-4.062-7.338-2.781-10l2.187-4.532 13.031-.468z" fill="#f0f"/></clipPath><filter color-interpolation-filters="sRGB" id="o"><feGaussianBlur stdDeviation="1.764"/></filter></defs><g transform="scale(1 -1)"><path d="M12-95.031c-5.511 0-10.031 4.52-10.031 10.031v71C1.969-8.489 6.489-3.969 12-3.969h72c5.511 0 10.031-4.52 10.031-10.031v-71c0-5.511-4.52-10.031-10.031-10.031H12z" opacity=".08" fill="url(#h)"/><path d="M12-94.031c-4.972 0-9.031 4.06-9.031 9.031v71c0 4.972 4.06 9.031 9.031 9.031h72c4.972 0 9.031-4.06 9.031-9.031v-71c0-4.972-4.06-9.031-9.031-9.031H12z" opacity=".1" fill="url(#i)"/><path d="M12-93c-4.41 0-8 3.59-8 8v71c0 4.41 3.59 8 8 8h72c4.41 0 8-3.59 8-8v-71c0-4.41-3.59-8-8-8H12z" opacity=".2" fill="url(#j)"/><rect width="86" height="85" rx="7" ry="7" x="5" y="-92" opacity=".3" fill="url(#k)"/><rect width="84" height="84" rx="6" ry="6" x="6" y="-91" opacity=".45" fill="url(#l)"/></g><rect width="84" height="84" rx="6" ry="6" x="6" y="6" fill="url(#m)"/><path d="M-51.969 18.5l-15.625.031c1.7 1.082 3.955 3.507 5.813 6.282 2.075 3.099 3.726 6.665 4.968 9.78l-4.406 2.563 14.063-.031 6.562-12.375-3.5 2.344-2.218-4.219c-1.488-2.38-2.852-4.107-5.657-4.375zM-72.312 20c-.954-.02-1.971.149-3.094.594l-5.813 9.093 12 8.032 5.438-11.157c-1.78-2.624-4.398-6.474-8.532-6.562zm33.968 16.156l-12.093 7.782 5.593 11.124 4.813.032c2.81.032 7.333-4.11 7.156-7.094l-5.469-11.844zm-40.093 3.032l-13.063.718 4.188 2.282-1.407 2.968c-4.538 9.703 1.202 14.434 8 23.875-.971-2.344-.913-4.852-.062-7.281l6.031-12.906 3.781 1.968-7.469-11.624zm25.656 13.906l-6.438 12.281L-52.78 77.5l.031-5h3.156c10.185-.005 11.592-7.565 16.5-18.25-1.538 1.97-3.671 3.008-6.093 3.281l-13.563.032-.031-4.47zm-10.157 4l-13.03.468-2.188 4.532c-1.28 2.662.192 8.837 2.781 10h12.344l.093-15z" transform="translate(110)" clip-path="url(#n)" opacity=".6" fill="none" stroke="#fff" stroke-width="2" filter="url(#o)"/><path d="M58.031 18.5l-15.625.031c1.7 1.082 3.955 3.507 5.813 6.282 2.075 3.099 3.726 6.665 4.968 9.78l-4.406 2.563 14.063-.031 6.562-12.375-3.5 2.344-2.219-4.219c-1.487-2.38-2.85-4.107-5.656-4.375zm-19.343.5c-.954-.02-1.971.149-3.094.594L28.78 29.687l12 8.032 6.438-12.157c-1.78-2.624-4.398-6.474-8.532-6.562zm32.968 17.156l-12.094 7.782 5.594 12.124 4.813.032c2.81.032 7.333-4.11 7.156-7.094l-5.469-12.844zm-40.094 3.032l-13.062.718 4.188 2.282-1.407 2.968c-4.538 9.703 1.202 14.434 8 23.875-.971-2.344-.913-4.852-.062-7.281l6.031-12.906 3.781 1.968-7.468-11.624zM57.22 53.093L50.78 65.375 57.22 77.5l.031-5h3.156c10.185-.005 11.592-7.565 16.5-18.25-1.538 1.97-3.671 3.008-6.094 3.281l-13.562.032-.031-4.47zm-10.157 4l-14.03.468-2.188 4.532c-1.28 2.662.192 8.837 2.781 10h13.344l.093-15z" fill="url(#p)"/><path d="M12 6c-3.324 0-6 2.676-6 6v72c0 .335.041.65.094.969.048.295.097.597.187.875l.032.094c.098.287.234.547.375.812.144.274.315.536.5.781a6.105 6.105 0 0 0 2.094 1.781c.278.14.573.247.874.344a4.843 4.843 0 0 1-.719-.375c-.007-.004-.023.005-.03 0-.033-.02-.063-.042-.095-.062-.12-.077-.23-.164-.343-.25-.106-.081-.214-.161-.313-.25a5.042 5.042 0 0 1-.5-.531 5.092 5.092 0 0 1-.312-.407c-.025-.038-.039-.086-.063-.125-.065-.103-.13-.204-.187-.312a5.371 5.371 0 0 1-.282-.625c-.008-.022-.023-.04-.03-.063-.033-.092-.037-.187-.063-.281-.03-.107-.07-.203-.094-.313A5.098 5.098 0 0 1 7 85V13c0-2.782 2.218-5 5-5h72c2.782 0 5 2.218 5 5v72c0 .364-.052.721-.125 1.063a4.896 4.896 0 0 1-.156.593c-.008.022-.024.04-.031.063a5.482 5.482 0 0 1-.22.531c-.04.083-.078.17-.124.25-.055.097-.127.188-.188.281a5.092 5.092 0 0 1-.312.406 5.05 5.05 0 0 1-.469.5l-.031.032a4.818 4.818 0 0 1-.438.344c-.102.073-.204.153-.312.218-.008.005-.024-.004-.031 0a4.843 4.843 0 0 1-.72.375c.302-.097.597-.204.876-.344a6.105 6.105 0 0 0 2.094-1.78c.184-.246.355-.508.5-.782a5.69 5.69 0 0 0 .374-.813l.032-.093c.09-.278.139-.58.187-.875.053-.318.094-.634.094-.969V12c0-3.324-2.676-6-6-6H12z" opacity=".5" fill="url(#q)"/><path d="M12 90c-3.324 0-6-2.676-6-6V12c0-.335.041-.65.094-.969.048-.295.097-.597.187-.875l.032-.094a5.69 5.69 0 0 1 .375-.812c.144-.274.315-.536.5-.781a6.105 6.105 0 0 1 2.094-1.781c.278-.14.573-.247.874-.344-.256.1-.486.236-.719.375-.007.004-.023-.005-.03 0-.033.019-.063.042-.095.062-.12.077-.23.164-.343.25-.106.081-.214.161-.313.25a5.042 5.042 0 0 0-.5.532c-.107.13-.218.265-.312.406-.025.038-.039.086-.063.125-.065.103-.13.204-.187.312a5.371 5.371 0 0 0-.282.625c-.007.022-.023.04-.03.063-.033.092-.037.187-.063.281-.03.107-.07.203-.094.313A5.098 5.098 0 0 0 7 11v72c0 2.782 2.218 5 5 5h72c2.782 0 5-2.218 5-5V11c0-.364-.052-.721-.125-1.063a4.896 4.896 0 0 0-.156-.593c-.008-.022-.024-.04-.031-.063a5.482 5.482 0 0 0-.22-.531c-.04-.083-.078-.17-.124-.25-.055-.097-.127-.188-.188-.281a5.092 5.092 0 0 0-.312-.406 5.05 5.05 0 0 0-.469-.5l-.031-.032a4.818 4.818 0 0 0-.438-.343c-.102-.074-.204-.154-.312-.22-.008-.004-.024.005-.031 0a4.843 4.843 0 0 0-.72-.374c.302.097.597.204.876.343a6.105 6.105 0 0 1 2.094 1.782c.184.245.355.507.5.781.14.265.276.525.374.813l.032.093c.09.278.139.58.187.875.053.318.094.634.094.969v72c0 3.324-2.676 6-6 6H12z" opacity=".2" fill="url(#r)"/><rect width="84" height="84" rx="6" ry="6" x="-104" y="6" fill="#f0f"/><path d="M58.031 18.5l-15.625.031c.4.254.833.61 1.282 1L58.03 19.5c2.805.268 4.169 1.994 5.657 4.375l2.218 4.219 2.688-1.782.812-1.562-3.5 2.344-2.219-4.219c-1.487-2.38-2.85-4.107-5.656-4.375zm-19.343.5c-.954-.02-1.971.149-3.094.594L28.78 29.687l.469.313 6.344-9.406c1.123-.445 2.14-.614 3.093-.594 3.913.083 6.449 3.53 8.22 6.125l.312-.563c-1.78-2.624-4.398-6.474-8.532-6.562zm14.156 15.781l-4.063 2.375H50.5l2.688-1.562c-.106-.264-.233-.543-.344-.813zm18.812 1.375l-12.094 7.782.344.78 11.75-7.562 5.375 12.657c.054-.28.11-.547.094-.813l-5.469-12.844zm-40.094 3.032l-13.062.718 1.656.907 11.407-.626 6.5 10.126.968.5-7.468-11.626zm-9.25 3.78l-1.03 2.188c-1.234 2.637-1.694 4.904-1.595 7 .072-1.818.554-3.776 1.594-6l1.407-2.968-.375-.22zM57.22 53.095L50.78 65.375l.25.5 6.188-11.781v-1zm19.687 1.156c-1.538 1.97-3.671 3.008-6.094 3.281l-13.562.032v1l13.563-.032c2.001-.226 3.815-.979 5.25-2.343.284-.647.534-1.266.843-1.938zm-29.844 2.844l-14.03.468-2.188 4.532c-.376.781-.495 1.86-.438 3.031.044-.774.173-1.481.438-2.031l2.187-4.532 14.032-.468v-1zM28.595 65.75a9.63 9.63 0 0 0 .187 2.594c.173.235.326.446.5.687a9.263 9.263 0 0 1-.687-3.281z" opacity=".3"/><path d="M42.406 19.531c1.7 1.082 3.955 3.507 5.813 6.282 1.9 2.836 3.424 6.052 4.625 8.968l.343-.187c-1.242-3.116-2.893-6.682-4.968-9.782-1.422-2.122-3.072-4.012-4.532-5.28h-1.28zm27 6.219l-.812.563-5.75 10.812-12.344.031-1.719 1 14.063-.031 6.562-12.375zm-22.5.375l-6.125 11.594L29.25 30l-.469.688 12 8.03 6.438-12.156c-.095-.14-.213-.29-.313-.437zm-26.75 14.688l-1.656.093 3.813 2.063.375-.782-2.532-1.374zm39.75 3.906l-.343.218 5.593 12.126 4.813.03c2.81.033 7.333-4.108 7.156-7.093l-.094-.188c-.554 2.869-4.502 6.311-7.062 6.282l-4.813-.032-5.25-11.343zM35.25 48.844L29.219 61.75a11.004 11.004 0 0 0-.625 4c.067-1.002.277-2.008.625-3l6.031-12.906 3.781 1.968-.968-1.5-2.813-1.468zm-15.563 3.312c-.24 6.115 4.354 10.598 9.594 17.875a9.238 9.238 0 0 1-.5-1.687c-4.734-6.47-8.836-10.766-9.093-16.188zm57.22 3.094c-.268.342-.543.65-.844.938C71.83 65.816 69.95 72.495 60.406 72.5H57.25v1h3.156c10.185-.005 11.592-7.565 16.5-18.25zm-46.5 9.875c-.17 2.975 1.163 7.046 3.218 7.969h13.344v-1H33.625c-1.83-.821-3.081-4.15-3.219-6.969zm20.624.75l-.25.5L57.22 78.5v-1L51.03 65.875z" opacity=".6" fill="#fff"/></svg>