<svg xmlns="http://www.w3.org/2000/svg" xmlns:xlink="http://www.w3.org/1999/xlink" version="1.0" width="96" height="96"><defs><radialGradient cx="190.719" cy="-188.167" r="40.777" id="r" gradientUnits="userSpaceOnUse" gradientTransform="matrix(1 0 0 -1 -270.96 -122.075)"><stop offset=".004" stop-color="#d8eeed"/><stop offset=".173" stop-color="#98d8d7"/><stop offset=".224" stop-color="#8ed3d3"/><stop offset=".309" stop-color="#74c6ca"/><stop offset=".418" stop-color="#49b1ba"/><stop offset=".448" stop-color="#3caab5"/><stop offset=".499" stop-color="#369fb5"/><stop offset=".631" stop-color="#2a88b4"/><stop offset=".713" stop-color="#257fb4"/><stop offset="1" stop-color="#4161ab"/></radialGradient><radialGradient cx="206.623" cy="-167.599" r=".082" id="q" gradientUnits="userSpaceOnUse" gradientTransform="matrix(1 0 0 -1 -270.96 -122.075)"><stop offset="0" stop-color="#7e9ec4"/><stop offset="1" stop-color="#0a50a1"/></radialGradient><linearGradient x1="206.696" y1="-166.776" x2="230.795" y2="-166.776" id="p" gradientUnits="userSpaceOnUse" gradientTransform="matrix(1 0 0 -1 -270.96 -122.075)"><stop offset=".006" stop-color="#7090c3"/><stop offset=".545" stop-color="#c1e7ed"/><stop offset="1" stop-color="#fff"/></linearGradient><linearGradient x1="207.226" y1="-167.477" x2="230.318" y2="-167.477" id="o" gradientUnits="userSpaceOnUse" gradientTransform="matrix(1 0 0 -1 -270.96 -122.075)"><stop offset=".006" stop-color="#bbc7e1"/><stop offset=".225" stop-color="#7090c3"/><stop offset=".545" stop-color="#c8eaef"/><stop offset="1" stop-color="#fff"/></linearGradient><linearGradient x1="206.69" y1="-167.532" x2="206.69" y2="-167.532" id="c" gradientUnits="userSpaceOnUse" gradientTransform="matrix(1 0 0 -1 -270.96 -122.075)"><stop offset="0" stop-color="#7e9ec4"/><stop offset="1" stop-color="#151d89"/></linearGradient><linearGradient x1="206.641" y1="-167.061" x2="230.795" y2="-167.061" id="n" gradientUnits="userSpaceOnUse" gradientTransform="matrix(1 0 0 -1 -270.96 -122.075)"><stop offset="0" stop-color="#094992"/><stop offset=".669" stop-color="#8bcde2"/><stop offset="1" stop-color="#e6f6f9"/></linearGradient><linearGradient x1="223.903" y1="-179.954" x2="230.89" y2="-179.954" id="m" gradientUnits="userSpaceOnUse" gradientTransform="matrix(1 0 0 -1 -270.96 -122.075)"><stop offset="0" stop-color="#def3f1"/><stop offset="1" stop-color="#5085bc"/></linearGradient><linearGradient x1="200.45" y1="-178.688" x2="207.315" y2="-178.688" id="l" gradientUnits="userSpaceOnUse" gradientTransform="matrix(1 0 0 -1 -270.96 -122.075)"><stop offset="0" stop-color="#def3f1"/><stop offset="1" stop-color="#5085bc"/></linearGradient><radialGradient cx="232.418" cy="-168.404" r="33.31" id="k" gradientUnits="userSpaceOnUse" gradientTransform="matrix(1 0 0 -1 -270.96 -122.075)"><stop offset=".004" stop-color="#d8eeed"/><stop offset=".173" stop-color="#98d8d7"/><stop offset=".224" stop-color="#8ed3d3"/><stop offset=".309" stop-color="#74c6ca"/><stop offset=".418" stop-color="#49b1ba"/><stop offset=".448" stop-color="#3caab5"/><stop offset=".56" stop-color="#2e81a4"/><stop offset=".684" stop-color="#215b94"/><stop offset=".783" stop-color="#19448b"/><stop offset=".845" stop-color="#163b87"/><stop offset="1" stop-color="#152469"/></radialGradient><linearGradient x1="230.576" y1="-169.541" x2="225.406" y2="-187.729" id="j" gradientUnits="userSpaceOnUse" gradientTransform="matrix(1 0 0 -1 -270.96 -122.075)"><stop offset="0" stop-color="#98d8d7"/><stop offset="1" stop-color="#152469"/></linearGradient><radialGradient cx="232.41" cy="-168.416" r="33.192" id="i" gradientUnits="userSpaceOnUse" gradientTransform="matrix(1 0 0 -1 -270.96 -122.075)"><stop offset=".004" stop-color="#d8eeed"/><stop offset=".173" stop-color="#98d8d7"/><stop offset=".224" stop-color="#8ed3d3"/><stop offset=".309" stop-color="#74c6ca"/><stop offset=".418" stop-color="#49b1ba"/><stop offset=".448" stop-color="#3caab5"/><stop offset=".56" stop-color="#2e81a4"/><stop offset=".684" stop-color="#215b94"/><stop offset=".783" stop-color="#19448b"/><stop offset=".845" stop-color="#163b87"/><stop offset="1" stop-color="#0b317d"/></radialGradient><radialGradient cx="232.386" cy="-168.443" r="33.178" id="h" gradientUnits="userSpaceOnUse" gradientTransform="matrix(1 0 0 -1 -270.96 -122.075)"><stop offset=".004" stop-color="#d8eeed"/><stop offset=".173" stop-color="#98d8d7"/><stop offset=".224" stop-color="#8ed3d3"/><stop offset=".309" stop-color="#74c6ca"/><stop offset=".418" stop-color="#49b1ba"/><stop offset=".448" stop-color="#3caab5"/><stop offset=".56" stop-color="#2e81a4"/><stop offset=".684" stop-color="#215b94"/><stop offset=".783" stop-color="#19448b"/><stop offset=".845" stop-color="#163b87"/><stop offset="1" stop-color="#152469"/></radialGradient><radialGradient cx="232.389" cy="-168.276" r="33.26" id="g" gradientUnits="userSpaceOnUse" gradientTransform="matrix(1 0 0 -1 -270.96 -122.075)"><stop offset=".004" stop-color="#d8eeed"/><stop offset=".173" stop-color="#98d8d7"/><stop offset=".224" stop-color="#8ed3d3"/><stop offset=".309" stop-color="#74c6ca"/><stop offset=".418" stop-color="#49b1ba"/><stop offset=".448" stop-color="#3caab5"/><stop offset=".56" stop-color="#2e81a4"/><stop offset=".684" stop-color="#215b94"/><stop offset=".783" stop-color="#19448b"/><stop offset=".845" stop-color="#163b87"/><stop offset="1" stop-color="#0b317d"/></radialGradient><radialGradient cx="232.407" cy="-168.505" r="33.058" id="f" gradientUnits="userSpaceOnUse" gradientTransform="matrix(1 0 0 -1 -270.96 -122.075)"><stop offset=".001" stop-color="#d1e7ee"/><stop offset=".098" stop-color="#cde4ec"/><stop offset=".203" stop-color="#c0dce8"/><stop offset=".298" stop-color="#add0e1"/><stop offset=".65" stop-color="#3982b1"/><stop offset=".72" stop-color="#3474aa"/><stop offset=".899" stop-color="#285699"/><stop offset="1" stop-color="#244b93"/></radialGradient><linearGradient x1="252.125" y1="-194.017" x2="251.763" y2="-193.704" id="I" gradientUnits="userSpaceOnUse" gradientTransform="matrix(1 0 0 -1 -270.96 -122.075)"><stop offset="0" stop-color="#eab949"/><stop offset=".072" stop-color="#edc25a"/><stop offset=".278" stop-color="#f3d883"/><stop offset=".478" stop-color="#f8e9a4"/><stop offset=".67" stop-color="#fcf5bc"/><stop offset=".848" stop-color="#fefcca"/><stop offset="1" stop-color="#ffffcf"/></linearGradient><linearGradient x1="233.006" y1="-173.716" x2="258.914" y2="-173.716" id="H" gradientUnits="userSpaceOnUse" gradientTransform="matrix(1 0 0 -1 -270.96 -122.075)"><stop offset=".006" stop-color="#fff6d8"/><stop offset=".525" stop-color="#fdda10"/><stop offset="1" stop-color="#f9bd0c"/></linearGradient><linearGradient x1="232.795" y1="-173.376" x2="258.867" y2="-173.376" id="G" gradientUnits="userSpaceOnUse" gradientTransform="matrix(1 0 0 -1 -270.96 -122.075)"><stop offset=".006" stop-color="#fca859"/><stop offset=".213" stop-color="#fdc30f"/><stop offset="1" stop-color="#b51c00"/></linearGradient><linearGradient x1="230.946" y1="-181.772" x2="230.383" y2="-181.61" id="F" gradientUnits="userSpaceOnUse" gradientTransform="matrix(1 0 0 -1 -270.96 -122.075)"><stop offset=".006" stop-color="#ffefbb"/><stop offset="1" stop-color="#ffbf00"/></linearGradient><radialGradient cx="233.66" cy="-170.85" r=".302" id="E" gradientUnits="userSpaceOnUse" gradientTransform="matrix(1 0 0 -1 -270.96 -122.075)"><stop offset="0" stop-color="#feeb71"/><stop offset="1" stop-color="#de980d"/></radialGradient><linearGradient x1="227.468" y1="-192.15" x2="227.745" y2="-192.65" id="D" gradientUnits="userSpaceOnUse" gradientTransform="matrix(1 0 0 -1 -270.96 -122.075)"><stop offset="0" stop-color="#de980d"/><stop offset=".4" stop-color="#febf0f"/><stop offset=".8" stop-color="#fed40f"/><stop offset="1" stop-color="#de980d"/></linearGradient><linearGradient x1="227.456" y1="-192.882" x2="227.063" y2="-192.445" id="C" gradientUnits="userSpaceOnUse" gradientTransform="matrix(1 0 0 -1 -270.96 -122.075)"><stop offset="0" stop-color="#de980d"/><stop offset=".1" stop-color="#de980d"/><stop offset=".7" stop-color="#fdda10"/><stop offset="1" stop-color="#de980d"/></linearGradient><linearGradient x1="227.626" y1="-194.564" x2="252.086" y2="-194.564" id="B" gradientUnits="userSpaceOnUse" gradientTransform="matrix(1 0 0 -1 -270.96 -122.075)"><stop offset="0" stop-color="#de980d"/><stop offset=".4" stop-color="#fdda10"/><stop offset="1" stop-color="#de980d"/></linearGradient><linearGradient x1="252.55" y1="-193.978" x2="252.283" y2="-194.577" id="A" gradientUnits="userSpaceOnUse" gradientTransform="matrix(1 0 0 -1 -270.96 -122.075)"><stop offset=".006" stop-color="#ffd100"/><stop offset="1" stop-color="#a8710a"/></linearGradient><linearGradient x1="255.342" y1="-183.53" x2="254.807" y2="-183.377" id="z" gradientUnits="userSpaceOnUse" gradientTransform="matrix(1 0 0 -1 -270.96 -122.075)"><stop offset="0" stop-color="#b37e00"/><stop offset="1" stop-color="#ff9e00"/></linearGradient><linearGradient x1="233.971" y1="-173.117" x2="257.971" y2="-173.117" id="y" gradientUnits="userSpaceOnUse" gradientTransform="matrix(1 0 0 -1 -270.96 -122.075)"><stop offset="0" stop-color="#fff8fb"/><stop offset="1" stop-color="#fec236"/></linearGradient><linearGradient x1="258.626" y1="-173.145" x2="258.473" y2="-173.327" id="x" gradientUnits="userSpaceOnUse" gradientTransform="matrix(1 0 0 -1 -270.96 -122.075)"><stop offset=".006" stop-color="#fed40f"/><stop offset="1" stop-color="#a85d10"/></linearGradient><linearGradient x1="257.981" y1="-172.829" x2="258.228" y2="-173.24" id="w" gradientUnits="userSpaceOnUse" gradientTransform="matrix(1 0 0 -1 -270.96 -122.075)"><stop offset=".006" stop-color="#fed40f"/><stop offset="1" stop-color="#a85d10"/></linearGradient><linearGradient x1="258.853" y1="-173.294" x2="258.853" y2="-173.69" id="v" gradientUnits="userSpaceOnUse" gradientTransform="matrix(1 0 0 -1 -270.96 -122.075)"><stop offset=".006" stop-color="#c67c0c"/><stop offset="1" stop-color="#de980d"/></linearGradient><linearGradient x1="252.829" y1="-184.025" x2="258.914" y2="-184.025" id="u" gradientUnits="userSpaceOnUse" gradientTransform="matrix(1 0 0 -1 -270.96 -122.075)"><stop offset="0" stop-color="#deb150"/><stop offset="1" stop-color="#fff8b3"/></linearGradient><linearGradient x1="252.821" y1="-194.258" x2="252.693" y2="-194.736" id="t" gradientUnits="userSpaceOnUse" gradientTransform="matrix(1 0 0 -1 -270.96 -122.075)"><stop offset="0" stop-color="#de980d"/><stop offset="1" stop-color="#a85d10"/></linearGradient><radialGradient cx="232.379" cy="-169.231" r="30.777" id="s" gradientUnits="userSpaceOnUse" gradientTransform="matrix(1 0 0 -1 -270.96 -122.075)"><stop offset="0" stop-color="#fcf5b0"/><stop offset=".166" stop-color="#f7eda0"/><stop offset=".285" stop-color="#f3e591"/><stop offset=".65" stop-color="#fcd118"/><stop offset=".802" stop-color="#f7a50c"/><stop offset=".929" stop-color="#f38603"/><stop offset="1" stop-color="#f27b00"/></radialGradient><linearGradient x1="213.92" y1="-141.493" x2="238.016" y2="-141.493" id="S" gradientUnits="userSpaceOnUse" gradientTransform="matrix(1 0 0 -1 -270.96 -122.075)"><stop offset="0" stop-color="#fc2b21"/><stop offset=".236" stop-color="#ff590a"/><stop offset=".248" stop-color="#fb570b"/><stop offset=".327" stop-color="#e74c0e"/><stop offset=".417" stop-color="#d84511"/><stop offset=".525" stop-color="#d04013"/><stop offset=".697" stop-color="#cd3f13"/><stop offset=".796" stop-color="#d04213"/><stop offset=".869" stop-color="#d84b14"/><stop offset=".933" stop-color="#e65b16"/><stop offset=".993" stop-color="#f97219"/><stop offset="1" stop-color="#fc7519"/></linearGradient><linearGradient x1="213.862" y1="-142.182" x2="213.983" y2="-142.182" id="R" gradientUnits="userSpaceOnUse" gradientTransform="matrix(1 0 0 -1 -270.96 -122.075)"><stop offset="0" stop-color="#fd7e36"/><stop offset="1" stop-color="#bd6f4f"/></linearGradient><linearGradient x1="207.735" y1="-163.009" x2="231.804" y2="-163.009" id="Q" gradientUnits="userSpaceOnUse" gradientTransform="matrix(1 0 0 -1 -270.96 -122.075)"><stop offset="0" stop-color="#fd9b20"/><stop offset=".25" stop-color="#fd9b20"/><stop offset=".336" stop-color="#fdb830"/><stop offset=".429" stop-color="#fed23e"/><stop offset=".485" stop-color="#fedb43"/><stop offset=".75" stop-color="#fe8411"/><stop offset="1" stop-color="#fe560d"/></linearGradient><linearGradient x1="231.084" y1="-154.559" x2="238.115" y2="-154.559" id="P" gradientUnits="userSpaceOnUse" gradientTransform="matrix(1 0 0 -1 -270.96 -122.075)"><stop offset="0" stop-color="#fd7e36"/><stop offset="1" stop-color="#fc895b"/></linearGradient><linearGradient x1="225.955" y1="-144.433" x2="225.681" y2="-136.954" id="O" gradientUnits="userSpaceOnUse" gradientTransform="matrix(1 0 0 -1 -270.96 -122.075)"><stop offset="0" stop-color="#fe560d"/><stop offset="1" stop-color="#8c1501"/></linearGradient><linearGradient x1="239.424" y1="-144.728" x2="215.336" y2="-139.359" id="N" gradientUnits="userSpaceOnUse" gradientTransform="matrix(1 0 0 -1 -270.96 -122.075)"><stop offset="0" stop-color="#fe560d"/><stop offset="1" stop-color="#8c1501"/></linearGradient><linearGradient x1="207.718" y1="-153.405" x2="214.489" y2="-153.405" id="M" gradientUnits="userSpaceOnUse" gradientTransform="matrix(1 0 0 -1 -270.96 -122.075)"><stop offset="0" stop-color="#fd7e36"/><stop offset="1" stop-color="#bd6f4f"/></linearGradient><linearGradient x1="213.921" y1="-141.493" x2="238.016" y2="-141.493" id="L" gradientUnits="userSpaceOnUse" gradientTransform="matrix(1 0 0 -1 -270.96 -122.075)"><stop offset="0" stop-color="#fc2b21"/><stop offset=".236" stop-color="#ff590a"/><stop offset=".248" stop-color="#fb570b"/><stop offset=".327" stop-color="#e74c0e"/><stop offset=".417" stop-color="#d84511"/><stop offset=".525" stop-color="#d04013"/><stop offset=".697" stop-color="#cd3f13"/><stop offset=".796" stop-color="#d04213"/><stop offset=".869" stop-color="#d84b14"/><stop offset=".933" stop-color="#e65b16"/><stop offset=".993" stop-color="#f97219"/><stop offset="1" stop-color="#fc7519"/></linearGradient><linearGradient x1="213.862" y1="-142.182" x2="213.982" y2="-142.182" id="K" gradientUnits="userSpaceOnUse" gradientTransform="matrix(1 0 0 -1 -270.96 -122.075)"><stop offset="0" stop-color="#fd7e36"/><stop offset="1" stop-color="#bd6f4f"/></linearGradient><radialGradient cx="231.44" cy="-164.997" r="29.215" id="J" gradientUnits="userSpaceOnUse" gradientTransform="matrix(1 0 0 -1 -270.96 -122.075)"><stop offset=".004" stop-color="#efd916"/><stop offset=".105" stop-color="#efd516"/><stop offset=".216" stop-color="#edc715"/><stop offset=".331" stop-color="#ebb213"/><stop offset=".449" stop-color="#e89312"/><stop offset=".567" stop-color="#e36d0f"/><stop offset=".65" stop-color="#e04d0d"/><stop offset=".785" stop-color="#ce2907"/><stop offset=".922" stop-color="#bf0b02"/><stop offset="1" stop-color="#b90000"/></radialGradient><linearGradient x1="265.25" y1="-147.548" x2="266.356" y2="-147.548" id="aj" gradientUnits="userSpaceOnUse" gradientTransform="matrix(1 0 0 -1 -270.96 -122.075)"><stop offset="0" stop-color="#d3ed89"/><stop offset="1" stop-color="#5f821c"/></linearGradient><linearGradient x1="265.945" y1="-147.654" x2="266.026" y2="-147.381" id="ai" gradientUnits="userSpaceOnUse" gradientTransform="matrix(1 0 0 -1 -270.96 -122.075)"><stop offset="0" stop-color="#5b7f30"/><stop offset="1" stop-color="#d3ed89"/></linearGradient><linearGradient x1="265.343" y1="-151.339" x2="240.831" y2="-144.31" id="ah" gradientUnits="userSpaceOnUse" gradientTransform="matrix(1 0 0 -1 -270.96 -122.075)"><stop offset="0" stop-color="#93bf81"/><stop offset=".228" stop-color="#26551b"/><stop offset="1" stop-color="#bde256"/></linearGradient><linearGradient x1="265.25" y1="-147.547" x2="266.354" y2="-147.547" id="ag" gradientUnits="userSpaceOnUse" gradientTransform="matrix(1 0 0 -1 -270.96 -122.075)"><stop offset="0" stop-color="#d3ed89"/><stop offset="1" stop-color="#5f821c"/></linearGradient><linearGradient x1="262.679" y1="-158.141" x2="262.11" y2="-157.978" id="af" gradientUnits="userSpaceOnUse" gradientTransform="matrix(1 0 0 -1 -270.96 -122.075)"><stop offset="0" stop-color="#5f821c"/><stop offset="1" stop-color="#75c146"/></linearGradient><linearGradient x1="265.448" y1="-151.081" x2="240.864" y2="-144.031" id="ae" gradientUnits="userSpaceOnUse" gradientTransform="matrix(1 0 0 -1 -270.96 -122.075)"><stop offset="0" stop-color="#1d3419"/><stop offset=".228" stop-color="#26551b"/><stop offset="1" stop-color="#7aa922"/></linearGradient><linearGradient x1="265.943" y1="-147.652" x2="266.023" y2="-147.38" id="ad" gradientUnits="userSpaceOnUse" gradientTransform="matrix(1 0 0 -1 -270.96 -122.075)"><stop offset="0" stop-color="#5b7f30"/><stop offset="1" stop-color="#d3ed89"/></linearGradient><linearGradient x1="234.661" y1="-167.104" x2="234.942" y2="-167.611" id="ac" gradientUnits="userSpaceOnUse" gradientTransform="matrix(1 0 0 -1 -270.96 -122.075)"><stop offset="0" stop-color="#5f821c"/><stop offset=".405" stop-color="#7aa922"/><stop offset=".8" stop-color="#5f821c"/><stop offset="1" stop-color="#5f821c"/></linearGradient><linearGradient x1="234.675" y1="-167.797" x2="234.288" y2="-167.368" id="ab" gradientUnits="userSpaceOnUse" gradientTransform="matrix(1 0 0 -1 -270.96 -122.075)"><stop offset="0" stop-color="#1d3a19"/><stop offset=".1" stop-color="#26551b"/><stop offset=".65" stop-color="#7aa922"/><stop offset="1" stop-color="#d3ed89"/></linearGradient><linearGradient x1="234.824" y1="-169.67" x2="259.277" y2="-169.67" id="aa" gradientUnits="userSpaceOnUse" gradientTransform="matrix(1 0 0 -1 -270.96 -122.075)"><stop offset="0" stop-color="#7aa922"/><stop offset=".4" stop-color="#d3ed89"/><stop offset="1" stop-color="#7aa922"/></linearGradient><linearGradient x1="259.782" y1="-168.996" x2="259.439" y2="-169.378" id="Z" gradientUnits="userSpaceOnUse" gradientTransform="matrix(1 0 0 -1 -270.96 -122.075)"><stop offset="0" stop-color="#5f821c"/><stop offset="1" stop-color="#26551b"/></linearGradient><linearGradient x1="259.539" y1="-168.946" x2="258.996" y2="-168.909" id="Y" gradientUnits="userSpaceOnUse" gradientTransform="matrix(1 0 0 -1 -270.96 -122.075)"><stop offset="0" stop-color="#7aa922"/><stop offset="1" stop-color="#d3ed89"/></linearGradient><linearGradient x1="259.502" y1="-158.343" x2="266.219" y2="-158.343" id="X" gradientUnits="userSpaceOnUse" gradientTransform="matrix(1 0 0 -1 -270.96 -122.075)"><stop offset=".006" stop-color="#7aa922"/><stop offset=".169" stop-color="#1d4a20"/><stop offset=".382" stop-color="#26551b"/><stop offset="1" stop-color="#7aa922"/></linearGradient><linearGradient x1="241.273" y1="-145.81" x2="240.721" y2="-145.771" id="W" gradientUnits="userSpaceOnUse" gradientTransform="matrix(1 0 0 -1 -270.96 -122.075)"><stop offset="0" stop-color="#7aa922"/><stop offset=".2" stop-color="#d3ed89"/><stop offset=".525" stop-color="#d3ed89"/><stop offset="1" stop-color="#7aa922"/></linearGradient><linearGradient x1="238.196" y1="-156.675" x2="237.623" y2="-156.511" id="V" gradientUnits="userSpaceOnUse" gradientTransform="matrix(1 0 0 -1 -270.96 -122.075)"><stop offset=".282" stop-color="#d3ed89"/><stop offset=".405" stop-color="#d3ed89"/><stop offset="1" stop-color="#5f821c"/></linearGradient><linearGradient x1="241.248" y1="-147.935" x2="265.393" y2="-147.935" id="U" gradientUnits="userSpaceOnUse" gradientTransform="matrix(1 0 0 -1 -270.96 -122.075)"><stop offset="0" stop-color="#d3ed89"/><stop offset="1" stop-color="#5f821c"/></linearGradient><radialGradient cx="232.245" cy="-168.24" r="33.43" id="T" gradientUnits="userSpaceOnUse" gradientTransform="matrix(1 0 0 -1 -270.96 -122.075)"><stop offset=".005" stop-color="#d1e787"/><stop offset=".123" stop-color="#cee583"/><stop offset=".247" stop-color="#c4de76"/><stop offset=".375" stop-color="#b3d361"/><stop offset=".505" stop-color="#9cc443"/><stop offset=".636" stop-color="#7fb01d"/><stop offset=".65" stop-color="#7bae19"/><stop offset=".779" stop-color="#578d19"/><stop offset=".922" stop-color="#366e1a"/><stop offset="1" stop-color="#29621a"/></radialGradient><linearGradient x1="45.448" y1="92.54" x2="45.448" y2="7.017" id="ak" gradientUnits="userSpaceOnUse" gradientTransform="scale(1.00587 .99417)"><stop offset="0"/><stop offset="1" stop-opacity=".588"/></linearGradient><linearGradient id="b"><stop offset="0" stop-color="#fff"/><stop offset="1" stop-color="#fff" stop-opacity="0"/></linearGradient><linearGradient id="a"><stop offset="0" stop-color="#e1e1e1"/><stop offset="1" stop-color="#f5f5f5"/></linearGradient><linearGradient x1="48" y1="90" x2="48" y2="5.988" id="ar" xlink:href="#a" gradientUnits="userSpaceOnUse"/><filter color-interpolation-filters="sRGB" id="al"><feGaussianBlur stdDeviation="1.71"/></filter><linearGradient x1="36.357" y1="6" x2="36.357" y2="63.893" id="bI" xlink:href="#b" gradientUnits="userSpaceOnUse"/><linearGradient x1="206.69" y1="-167.532" x2="206.69" y2="-167.532" id="aA" xlink:href="#c" gradientUnits="userSpaceOnUse" gradientTransform="matrix(.72832 0 0 -.72832 -201.991 -74.644)"/><filter color-interpolation-filters="sRGB" id="aB"><feGaussianBlur stdDeviation="1.829"/></filter><linearGradient x1="45.448" y1="92.54" x2="45.448" y2="7.017" id="d" gradientUnits="userSpaceOnUse" gradientTransform="matrix(1.00587 0 0 .99417 100 0)"><stop offset="0"/><stop offset="1" stop-opacity=".588"/></linearGradient><linearGradient x1="32.251" y1="6.132" x2="32.251" y2="90.239" id="an" xlink:href="#d" gradientUnits="userSpaceOnUse" gradientTransform="matrix(1.0238 0 0 1.0119 -1.143 -98.071)"/><linearGradient x1="32.251" y1="6.132" x2="32.251" y2="90.239" id="ao" xlink:href="#d" gradientUnits="userSpaceOnUse" gradientTransform="matrix(1.0238 0 0 1.0119 -1.143 -98.071)"/><linearGradient x1="32.251" y1="6.132" x2="32.251" y2="90.239" id="ap" xlink:href="#d" gradientUnits="userSpaceOnUse" gradientTransform="matrix(1.0238 0 0 1.0119 -1.143 -98.071)"/><linearGradient x1="32.251" y1="6.132" x2="32.251" y2="90.239" id="aq" xlink:href="#d" gradientUnits="userSpaceOnUse" gradientTransform="translate(0 -97)"/><linearGradient x1="32.251" y1="6.132" x2="32.251" y2="90.239" id="am" xlink:href="#d" gradientUnits="userSpaceOnUse" gradientTransform="matrix(1.0238 0 0 1.0119 -1.143 -98.071)"/><linearGradient id="e"><stop offset="0" stop-color="#fff"/><stop offset="1" stop-color="#fff" stop-opacity="0"/></linearGradient><clipPath id="as"><rect width="84" height="84" rx="6" ry="6" x="6" y="6" fill="#fff"/></clipPath><filter x="-.192" y="-.192" width="1.384" height="1.384" color-interpolation-filters="sRGB" id="au"><feGaussianBlur stdDeviation="5.28"/></filter><linearGradient x1="48" y1="20.221" x2="48" y2="138.661" id="at" xlink:href="#e" gradientUnits="userSpaceOnUse"/><radialGradient cx="232.407" cy="-168.505" r="33.058" id="aC" xlink:href="#f" gradientUnits="userSpaceOnUse" gradientTransform="matrix(1 0 0 -1 -270.96 -122.075)"/><radialGradient cx="232.389" cy="-168.276" r="33.26" id="aD" xlink:href="#g" gradientUnits="userSpaceOnUse" gradientTransform="matrix(1 0 0 -1 -270.96 -122.075)"/><radialGradient cx="232.386" cy="-168.443" r="33.178" id="aE" xlink:href="#h" gradientUnits="userSpaceOnUse" gradientTransform="matrix(1 0 0 -1 -270.96 -122.075)"/><radialGradient cx="232.41" cy="-168.416" r="33.192" id="aF" xlink:href="#i" gradientUnits="userSpaceOnUse" gradientTransform="matrix(1 0 0 -1 -270.96 -122.075)"/><linearGradient x1="230.576" y1="-169.541" x2="225.406" y2="-187.729" id="aG" xlink:href="#j" gradientUnits="userSpaceOnUse" gradientTransform="matrix(1 0 0 -1 -270.96 -122.075)"/><radialGradient cx="232.418" cy="-168.404" r="33.31" id="aH" xlink:href="#k" gradientUnits="userSpaceOnUse" gradientTransform="matrix(1 0 0 -1 -270.96 -122.075)"/><linearGradient x1="200.45" y1="-178.688" x2="207.315" y2="-178.688" id="aI" xlink:href="#l" gradientUnits="userSpaceOnUse" gradientTransform="matrix(1 0 0 -1 -270.96 -122.075)"/><linearGradient x1="223.903" y1="-179.954" x2="230.89" y2="-179.954" id="aJ" xlink:href="#m" gradientUnits="userSpaceOnUse" gradientTransform="matrix(1 0 0 -1 -270.96 -122.075)"/><linearGradient x1="206.641" y1="-167.061" x2="230.795" y2="-167.061" id="aK" xlink:href="#n" gradientUnits="userSpaceOnUse" gradientTransform="matrix(1 0 0 -1 -270.96 -122.075)"/><linearGradient x1="206.69" y1="-167.532" x2="206.69" y2="-167.532" id="aL" xlink:href="#c" gradientUnits="userSpaceOnUse" gradientTransform="matrix(1 0 0 -1 -270.96 -122.075)"/><linearGradient x1="207.226" y1="-167.477" x2="230.318" y2="-167.477" id="aM" xlink:href="#o" gradientUnits="userSpaceOnUse" gradientTransform="matrix(1 0 0 -1 -270.96 -122.075)"/><linearGradient x1="206.696" y1="-166.776" x2="230.795" y2="-166.776" id="aN" xlink:href="#p" gradientUnits="userSpaceOnUse" gradientTransform="matrix(1 0 0 -1 -270.96 -122.075)"/><radialGradient cx="206.623" cy="-167.599" r=".082" id="aO" xlink:href="#q" gradientUnits="userSpaceOnUse" gradientTransform="matrix(1 0 0 -1 -270.96 -122.075)"/><radialGradient cx="190.719" cy="-188.167" r="40.777" id="aP" xlink:href="#r" gradientUnits="userSpaceOnUse" gradientTransform="matrix(1 0 0 -1 -270.96 -122.075)"/><radialGradient cx="232.379" cy="-169.231" r="30.777" id="aQ" xlink:href="#s" gradientUnits="userSpaceOnUse" gradientTransform="matrix(1 0 0 -1 -270.96 -122.075)"/><linearGradient x1="252.821" y1="-194.258" x2="252.693" y2="-194.736" id="aR" xlink:href="#t" gradientUnits="userSpaceOnUse" gradientTransform="matrix(1 0 0 -1 -270.96 -122.075)"/><linearGradient x1="252.829" y1="-184.025" x2="258.914" y2="-184.025" id="aS" xlink:href="#u" gradientUnits="userSpaceOnUse" gradientTransform="matrix(1 0 0 -1 -270.96 -122.075)"/><linearGradient x1="258.853" y1="-173.294" x2="258.853" y2="-173.69" id="aT" xlink:href="#v" gradientUnits="userSpaceOnUse" gradientTransform="matrix(1 0 0 -1 -270.96 -122.075)"/><linearGradient x1="257.981" y1="-172.829" x2="258.228" y2="-173.24" id="aU" xlink:href="#w" gradientUnits="userSpaceOnUse" gradientTransform="matrix(1 0 0 -1 -270.96 -122.075)"/><linearGradient x1="258.626" y1="-173.145" x2="258.473" y2="-173.327" id="aV" xlink:href="#x" gradientUnits="userSpaceOnUse" gradientTransform="matrix(1 0 0 -1 -270.96 -122.075)"/><linearGradient x1="233.971" y1="-173.117" x2="257.971" y2="-173.117" id="aW" xlink:href="#y" gradientUnits="userSpaceOnUse" gradientTransform="matrix(1 0 0 -1 -270.96 -122.075)"/><linearGradient x1="255.342" y1="-183.53" x2="254.807" y2="-183.377" id="aX" xlink:href="#z" gradientUnits="userSpaceOnUse" gradientTransform="matrix(1 0 0 -1 -270.96 -122.075)"/><linearGradient x1="252.55" y1="-193.978" x2="252.283" y2="-194.577" id="aY" xlink:href="#A" gradientUnits="userSpaceOnUse" gradientTransform="matrix(1 0 0 -1 -270.96 -122.075)"/><linearGradient x1="227.626" y1="-194.564" x2="252.086" y2="-194.564" id="aZ" xlink:href="#B" gradientUnits="userSpaceOnUse" gradientTransform="matrix(1 0 0 -1 -270.96 -122.075)"/><linearGradient x1="227.456" y1="-192.882" x2="227.063" y2="-192.445" id="ba" xlink:href="#C" gradientUnits="userSpaceOnUse" gradientTransform="matrix(1 0 0 -1 -270.96 -122.075)"/><linearGradient x1="227.468" y1="-192.15" x2="227.745" y2="-192.65" id="bb" xlink:href="#D" gradientUnits="userSpaceOnUse" gradientTransform="matrix(1 0 0 -1 -270.96 -122.075)"/><radialGradient cx="233.66" cy="-170.85" r=".302" id="bc" xlink:href="#E" gradientUnits="userSpaceOnUse" gradientTransform="matrix(1 0 0 -1 -270.96 -122.075)"/><linearGradient x1="230.946" y1="-181.772" x2="230.383" y2="-181.61" id="bd" xlink:href="#F" gradientUnits="userSpaceOnUse" gradientTransform="matrix(1 0 0 -1 -270.96 -122.075)"/><linearGradient x1="232.795" y1="-173.376" x2="258.867" y2="-173.376" id="be" xlink:href="#G" gradientUnits="userSpaceOnUse" gradientTransform="matrix(1 0 0 -1 -270.96 -122.075)"/><linearGradient x1="233.006" y1="-173.716" x2="258.914" y2="-173.716" id="bf" xlink:href="#H" gradientUnits="userSpaceOnUse" gradientTransform="matrix(1 0 0 -1 -270.96 -122.075)"/><linearGradient x1="252.125" y1="-194.017" x2="251.763" y2="-193.704" id="bg" xlink:href="#I" gradientUnits="userSpaceOnUse" gradientTransform="matrix(1 0 0 -1 -270.96 -122.075)"/><radialGradient cx="231.44" cy="-164.997" r="29.215" id="bh" xlink:href="#J" gradientUnits="userSpaceOnUse" gradientTransform="matrix(1 0 0 -1 -270.96 -122.075)"/><linearGradient x1="213.862" y1="-142.182" x2="213.982" y2="-142.182" id="bi" xlink:href="#K" gradientUnits="userSpaceOnUse" gradientTransform="matrix(1 0 0 -1 -270.96 -122.075)"/><linearGradient x1="213.921" y1="-141.493" x2="238.016" y2="-141.493" id="bj" xlink:href="#L" gradientUnits="userSpaceOnUse" gradientTransform="matrix(1 0 0 -1 -270.96 -122.075)"/><linearGradient x1="207.718" y1="-153.405" x2="214.489" y2="-153.405" id="bk" xlink:href="#M" gradientUnits="userSpaceOnUse" gradientTransform="matrix(1 0 0 -1 -270.96 -122.075)"/><linearGradient x1="239.424" y1="-144.728" x2="215.336" y2="-139.359" id="bl" xlink:href="#N" gradientUnits="userSpaceOnUse" gradientTransform="matrix(1 0 0 -1 -270.96 -122.075)"/><linearGradient x1="225.955" y1="-144.433" x2="225.681" y2="-136.954" id="bm" xlink:href="#O" gradientUnits="userSpaceOnUse" gradientTransform="matrix(1 0 0 -1 -270.96 -122.075)"/><linearGradient x1="231.084" y1="-154.559" x2="238.115" y2="-154.559" id="bn" xlink:href="#P" gradientUnits="userSpaceOnUse" gradientTransform="matrix(1 0 0 -1 -270.96 -122.075)"/><linearGradient x1="207.735" y1="-163.009" x2="231.804" y2="-163.009" id="bo" xlink:href="#Q" gradientUnits="userSpaceOnUse" gradientTransform="matrix(1 0 0 -1 -270.96 -122.075)"/><linearGradient x1="213.862" y1="-142.182" x2="213.983" y2="-142.182" id="bp" xlink:href="#R" gradientUnits="userSpaceOnUse" gradientTransform="matrix(1 0 0 -1 -270.96 -122.075)"/><linearGradient x1="213.92" y1="-141.493" x2="238.016" y2="-141.493" id="bq" xlink:href="#S" gradientUnits="userSpaceOnUse" gradientTransform="matrix(1 0 0 -1 -270.96 -122.075)"/><radialGradient cx="232.245" cy="-168.24" r="33.43" id="br" xlink:href="#T" gradientUnits="userSpaceOnUse" gradientTransform="matrix(1 0 0 -1 -270.96 -122.075)"/><linearGradient x1="241.248" y1="-147.935" x2="265.393" y2="-147.935" id="bs" xlink:href="#U" gradientUnits="userSpaceOnUse" gradientTransform="matrix(1 0 0 -1 -270.96 -122.075)"/><linearGradient x1="238.196" y1="-156.675" x2="237.623" y2="-156.511" id="bt" xlink:href="#V" gradientUnits="userSpaceOnUse" gradientTransform="matrix(1 0 0 -1 -270.96 -122.075)"/><linearGradient x1="241.273" y1="-145.81" x2="240.721" y2="-145.771" id="bu" xlink:href="#W" gradientUnits="userSpaceOnUse" gradientTransform="matrix(1 0 0 -1 -270.96 -122.075)"/><linearGradient x1="259.502" y1="-158.343" x2="266.219" y2="-158.343" id="bv" xlink:href="#X" gradientUnits="userSpaceOnUse" gradientTransform="matrix(1 0 0 -1 -270.96 -122.075)"/><linearGradient x1="259.539" y1="-168.946" x2="258.996" y2="-168.909" id="bw" xlink:href="#Y" gradientUnits="userSpaceOnUse" gradientTransform="matrix(1 0 0 -1 -270.96 -122.075)"/><linearGradient x1="259.782" y1="-168.996" x2="259.439" y2="-169.378" id="bx" xlink:href="#Z" gradientUnits="userSpaceOnUse" gradientTransform="matrix(1 0 0 -1 -270.96 -122.075)"/><linearGradient x1="234.824" y1="-169.67" x2="259.277" y2="-169.67" id="by" xlink:href="#aa" gradientUnits="userSpaceOnUse" gradientTransform="matrix(1 0 0 -1 -270.96 -122.075)"/><linearGradient x1="234.675" y1="-167.797" x2="234.288" y2="-167.368" id="bz" xlink:href="#ab" gradientUnits="userSpaceOnUse" gradientTransform="matrix(1 0 0 -1 -270.96 -122.075)"/><linearGradient x1="234.661" y1="-167.104" x2="234.942" y2="-167.611" id="bA" xlink:href="#ac" gradientUnits="userSpaceOnUse" gradientTransform="matrix(1 0 0 -1 -270.96 -122.075)"/><linearGradient x1="265.943" y1="-147.652" x2="266.023" y2="-147.38" id="bB" xlink:href="#ad" gradientUnits="userSpaceOnUse" gradientTransform="matrix(1 0 0 -1 -270.96 -122.075)"/><linearGradient x1="265.448" y1="-151.081" x2="240.864" y2="-144.031" id="bC" xlink:href="#ae" gradientUnits="userSpaceOnUse" gradientTransform="matrix(1 0 0 -1 -270.96 -122.075)"/><linearGradient x1="262.679" y1="-158.141" x2="262.11" y2="-157.978" id="bD" xlink:href="#af" gradientUnits="userSpaceOnUse" gradientTransform="matrix(1 0 0 -1 -270.96 -122.075)"/><linearGradient x1="265.25" y1="-147.547" x2="266.354" y2="-147.547" id="bE" xlink:href="#ag" gradientUnits="userSpaceOnUse" gradientTransform="matrix(1 0 0 -1 -270.96 -122.075)"/><linearGradient x1="265.343" y1="-151.339" x2="240.831" y2="-144.31" id="bF" xlink:href="#ah" gradientUnits="userSpaceOnUse" gradientTransform="matrix(1 0 0 -1 -270.96 -122.075)"/><linearGradient x1="265.945" y1="-147.654" x2="266.026" y2="-147.381" id="bG" xlink:href="#ai" gradientUnits="userSpaceOnUse" gradientTransform="matrix(1 0 0 -1 -270.96 -122.075)"/><linearGradient x1="265.25" y1="-147.548" x2="266.356" y2="-147.548" id="bH" xlink:href="#aj" gradientUnits="userSpaceOnUse" gradientTransform="matrix(1 0 0 -1 -270.96 -122.075)"/><radialGradient cx="232.245" cy="-168.24" r="33.43" id="az" xlink:href="#T" gradientUnits="userSpaceOnUse" gradientTransform="matrix(.72832 0 0 -.72832 -121.991 -75.644)"/><radialGradient cx="231.44" cy="-164.997" r="29.215" id="ay" xlink:href="#J" gradientUnits="userSpaceOnUse" gradientTransform="matrix(.72832 0 0 -.72832 -121.991 -75.644)"/><linearGradient x1="206.69" y1="-167.532" x2="206.69" y2="-167.532" id="aw" xlink:href="#c" gradientUnits="userSpaceOnUse" gradientTransform="matrix(.72832 0 0 -.72832 -121.991 -75.644)"/><radialGradient cx="232.407" cy="-168.505" r="33.058" id="av" xlink:href="#f" gradientUnits="userSpaceOnUse" gradientTransform="matrix(1 0 0 -1 -270.96 -122.075)"/><radialGradient cx="232.379" cy="-169.231" r="30.777" id="ax" xlink:href="#s" gradientUnits="userSpaceOnUse" gradientTransform="matrix(.72832 0 0 -.72832 -121.991 -75.644)"/></defs><g transform="scale(1 -1)"><path d="M12-95.031c-5.511 0-10.031 4.52-10.031 10.031v71C1.969-8.489 6.489-3.969 12-3.969h72c5.511 0 10.031-4.52 10.031-10.031v-71c0-5.511-4.52-10.031-10.031-10.031H12z" opacity=".08" fill="url(#am)"/><path d="M12-94.031c-4.972 0-9.031 4.06-9.031 9.031v71c0 4.972 4.06 9.031 9.031 9.031h72c4.972 0 9.031-4.06 9.031-9.031v-71c0-4.972-4.06-9.031-9.031-9.031H12z" opacity=".1" fill="url(#an)"/><path d="M12-93c-4.41 0-8 3.59-8 8v71c0 4.41 3.59 8 8 8h72c4.41 0 8-3.59 8-8v-71c0-4.41-3.59-8-8-8H12z" opacity=".2" fill="url(#ao)"/><rect width="86" height="85" rx="7" ry="7" x="5" y="-92" opacity=".3" fill="url(#ap)"/><rect width="84" height="84" rx="6" ry="6" x="6" y="-91" opacity=".45" fill="url(#aq)"/></g><rect width="84" height="84" rx="6" ry="6" x="6" y="6" fill="url(#ar)"/><rect width="66" height="66" rx="12" ry="12" x="15" y="15" clip-path="url(#as)" opacity=".5" fill="url(#at)" stroke="#fff" stroke-width=".5" stroke-linecap="round" filter="url(#au)"/><path d="M-64.246 45.578c12.532-5.162 18.598-2.408 24.03 1.28l-6.274 21.563c-5.452-3.666-11.38-6.685-23.962-1.483l6.132-21.329.074-.031z" fill="url(#av)" transform="matrix(.72832 0 0 .72832 75.353 13.265)"/><path d="M48.457 48.911c3.968 2.67 8.027 4.627 17.353 1.438l-4.354 15.143c-9.153 3.786-13.548 1.642-17.512-1.045l4.513-15.536z" fill="url(#ax)"/><path d="M46.825 44.562c-2.389-1.61-4.959-3.113-8.61-3.14-2.408-.02-5.276.666-8.917 2.17l4.51-15.632c9.159-3.787 13.56-1.64 17.526 1.043l-4.51 15.559z" fill="url(#ay)"/><path d="M71.214 31.655c-9.146 3.78-13.54 1.654-17.499-1.013l-4.512 15.645c3.957 2.682 8.737 4.882 17.505.96l4.506-15.592z" fill="url(#az)"/><g transform="matrix(.72832 0 0 .72832 -124.647 13.265)" opacity=".8" filter="url(#aB)"><path d="M64.519 18.73c-3.191.05-6.998.882-11.714 2.832l-6.178 21.454c4.999-2.064 8.922-3.03 12.228-3.004 5.013.037 8.52 2.125 11.8 4.334l6.221-21.368c-3.404-2.302-7.038-4.33-12.357-4.248zm15.618 6.522L73.96 46.706c5.432 3.683 11.989 6.716 24.028 1.33l6.178-21.41c-12.557 5.188-18.592 2.288-24.028-1.374zm-22.87 18.88c-3.188.077-6.97.895-11.67 2.831h-.086l-6.136 21.368c12.582-5.202 18.534-2.207 23.986 1.459l6.264-21.54c-3.395-2.305-7.043-4.248-12.357-4.119zM72.93 50.31l-6.222 21.325c5.442 3.69 11.503 6.657 24.071 1.459l5.964-20.81c-12.805 4.378-18.365 1.691-23.813-1.974z"/></g><path d="M-64.246 45.578c12.532-5.162 18.598-2.408 24.03 1.28l-6.274 21.563c-5.452-3.666-11.38-6.685-23.962-1.483l6.132-21.329.074-.031z" fill="url(#aC)" transform="matrix(.72832 0 0 .72832 -44.647 13.265)"/><path d="M-69.99 67.572c.041.005.113-.034.113-.034.09.063.162.104.162.104s-.142.033-.275-.07z" fill="url(#aD)" transform="matrix(.72832 0 0 .72832 -44.647 13.265)"/><path d="M-78.665 63.274s.06.058.131.04l-.273.163c-.087.04-.18-.024-.18-.024l.322-.179z" fill="#152469"/><path d="M-69.869 67.541s-.075.042-.116.036l-.414-.318-.007-.008a.39.39 0 0 0 .151.004l.386.286z" fill="url(#aE)" transform="matrix(.72832 0 0 .72832 -44.647 13.265)"/><path d="M-78.51 63.056a.23.23 0 0 1 .093.108c-.016.083-.082.123-.125.152-.055.012-.133-.037-.133-.037.045-.038.118-.09.165-.223z" fill="#152469"/><path d="M-95.92 62.25c-.058-.049-.097-.136-.073-.214l.053-.024c-.02.117.06.2.123.239.001 0-.043.019-.102 0z" fill="#172e65"/><path d="M-69.895 67.522c11.97-4.675 17.33-2.127 22.784 1.377-3.266-2.103-6.622-3.775-11.257-3.809-3.104-.016-6.77.769-11.359 2.552 0 0-.091-.037-.168-.12z" fill="url(#aF)" transform="matrix(.72832 0 0 .72832 -44.647 13.265)"/><g fill="#094b8f"><path d="M-78.667 63.287c-3.971-2.673-8.086-4.712-17.142-1.032-.06-.038-.158-.13-.133-.243 9.193-3.912 13.466-1.627 17.437 1.044-.042.143-.117.196-.162.23z"/><path d="M-78.661 63.287l-.323.166c-3.968-2.552-7.986-4.32-16.55-.997l-.283-.205c9.059-3.68 13.182-1.637 17.156 1.036z"/></g><path d="M-46.498 68.37l6.282-21.513a.628.628 0 0 1 .142.121l-6.294 21.546c-.036-.097-.13-.154-.13-.154z" fill="url(#aG)" transform="matrix(.72832 0 0 .72832 -44.647 13.265)"/><path d="M-40.176 46.709l.01.002c.08.057.112.167.092.267l-.004.013c-.036-.037-.072-.077-.14-.123l.042-.159z" fill="url(#aH)" transform="matrix(.72832 0 0 .72832 -44.647 13.265)"/><path opacity=".66" fill="#063367" d="M-91.491 46.481l-4.449 15.531-.053.025 4.449-15.569z"/><path d="M-64.392 45.589l-.29 1.024-5.818 20.352c-.032.106.021.227.101.295l.414.317h.001a.412.412 0 0 0 .149.062l6.19-21.452-.014-.017-.66-.562-.073-.019zm-6.024 21.338v-.004l.086-.031c-.03.011-.056.022-.086.035zm.158.332a.472.472 0 0 1-.124-.118c.036.05.084.091.124.114v.004z" opacity=".42" fill="url(#aI)" transform="matrix(.72832 0 0 .72832 -44.647 13.265)"/><path d="M-40.099 46.802l-.119.071-.521.513c.002 0 .002 0 .002.004-.847 2.893-5.601 19.126-6.321 21.557.045.013.1.017.153-.005l.375-.224h-.004c.056-.042.14-.095.165-.203v.008l6.086-20.831.208-.715c.006-.039 0-.074-.006-.11-.003-.023-.01-.041-.018-.065z" opacity=".42" fill="url(#aJ)" transform="matrix(.72832 0 0 .72832 -44.647 13.265)"/><path d="M-40.218 46.867l-.521.52c-1.808-1.201-6.789-4.293-12.414-3.834-4.566.372-8.586 1.84-10.493 2.633l-.674-.578.048-.149c12.585-5.206 18.653-2.438 24.1 1.251l-.004.002h.009l-.051.155z" fill="url(#aK)" transform="matrix(.72832 0 0 .72832 -44.647 13.265)"/><path d="M-63.734 46.108c12.587-5.205 18.208-1.765 23.092 1.184l-.096.095c-5.028-3.115-10.375-6.311-22.905-1.196l-.091-.083z" opacity=".33" fill="url(#aM)" transform="matrix(.72832 0 0 .72832 -44.647 13.265)"/><path d="M-64.264 45.44c12.585-5.205 18.4-2.531 24.098 1.271l-.049.147c-5.984-3.873-11.428-6.449-23.958-1.336l-.091-.082z" opacity=".33" fill="url(#aN)" transform="matrix(.72832 0 0 .72832 -44.647 13.265)"/><path d="M-64.319 45.607l-.073-.018c.027-.088.092-.123.112-.128l.009-.003c0-.001-.012.043-.048.149z" fill="url(#aO)" transform="matrix(.72832 0 0 .72832 -44.647 13.265)"/><path d="M-46.696 68.677c-5.452-3.666-11.102-6.466-23.536-1.417-.083-.049-.217-.174-.184-.331 12.624-5.374 18.49-2.233 23.942 1.432-.056.199-.159.266-.222.316z" opacity=".5" fill="url(#aP)" transform="matrix(.72832 0 0 .72832 -44.647 13.265)"/><g><path d="M-36.929 48.943c5.448 3.665 11.02 6.353 23.825 1.975l-5.977 20.791c-12.568 5.198-18.603 2.255-24.045-1.435l6.197-21.331z" fill="url(#aQ)" transform="matrix(.72832 0 0 .72832 -44.647 13.265)"/><path d="M-18.02 72.447a.509.509 0 0 1-.204.202c-.01 0-.017.005-.017.005s-.104.01-.197-.061a.71.71 0 0 0 .317-.405s.144.121.101.259z" fill="url(#aR)" transform="matrix(.72832 0 0 .72832 -44.647 13.265)"/><path d="M-18.02 72.447c.022-.118-.111-.228-.111-.228l5.959-20.766s.096.085.125.152l-5.973 20.842z" fill="url(#aS)" transform="matrix(.72832 0 0 .72832 -44.647 13.265)"/><path d="M-12.049 51.615s-.018-.064-.125-.149c.048-.202.012-.247.012-.247l.015.01c0-.001.153.144.098.386z" fill="url(#aT)" transform="matrix(.72832 0 0 .72832 -44.647 13.265)"/><path d="M-12.644 51.112s-.162-.198-.499-.14c.017-.075.045-.166.153-.209.202-.031.298.019.342.065a.113.113 0 0 1 .032.042.42.42 0 0 1-.028.242z" fill="url(#aU)" transform="matrix(.72832 0 0 .72832 -44.647 13.265)"/><path d="M-12.648 50.829l.501.399c.025.132-.027.268-.027.268l-.493-.395c0-.001.048-.153.019-.272z" fill="url(#aV)" transform="matrix(.72832 0 0 .72832 -44.647 13.265)"/><path opacity=".66" fill="#b37e00" d="M-57.86 65.917l-.38-.328 4.365-15.132.366.294-4.332 15.128z"/><path d="M-13.122 50.993c-12.621 4.304-18.399 1.746-23.845-1.924.011-.041.036-.134-.022-.229 5.447 3.668 11.472 6.167 24 1.924-.098.065-.108.154-.133.229z" fill="url(#aW)" transform="matrix(.72832 0 0 .72832 -44.647 13.265)"/><path fill="#d9a200" d="M-76.74 64.627l4.458-15.437.305-.207-4.419 15.407-.345.274z"/><path d="M-19.143 71.726l6-20.76c.01 0 .021-.018.036-.019.313-.03.463.133.463.133l-5.978 20.733c0 .001-.251-.198-.521-.087z" opacity=".66" fill="url(#aX)" transform="matrix(.72832 0 0 .72832 -44.647 13.265)"/><path d="M-57.919 66.177c-8.976 3.836-14.732 1.475-18.698-1.194l.041-.038c3.964 2.67 10.071 4.895 18.5 1.172.069.057.157.06.157.06z" fill="#a85d10"/><path d="M-18.627 71.806l.51.434s-.068.242-.342.359l-.518-.425c.273-.117.35-.368.35-.368z" opacity=".66" fill="url(#aY)" transform="matrix(.72832 0 0 .72832 -44.647 13.265)"/><path d="M-19.133 71.698c-.048.321.259.519.259.519-13.061 4.725-18.658 1.903-24.46-1.593.093-.074.145-.129.201-.353.011.004.085-.009.098 0 5.61 3.453 12.093 6.314 23.902 1.427z" fill="url(#aZ)" transform="matrix(.72832 0 0 .72832 -44.647 13.265)"/><path d="M-76.574 64.965l.367-.264c3.635 2.266 8.726 4.745 17.763 1.118l.371.314c-8.397 3.723-14.537 1.5-18.501-1.168z" fill="#c67c0c"/><path d="M-76.543 64.976l-.042.03s-.239-.132-.156-.378c.02.24.198.348.198.348z" fill="#de980d"/><path d="M-44.066 70.522l.473-.388c-.026.346.309.475.309.475l-.519.397a.502.502 0 0 1-.263-.484z" fill="url(#ba)" transform="matrix(.72832 0 0 .72832 -44.647 13.265)"/><path d="M-43.627 70.149c.169-.065.325.011.505.115-.06.223-.102.301-.194.366-.115-.064-.339-.197-.311-.481z" fill="url(#bb)" transform="matrix(.72832 0 0 .72832 -44.647 13.265)"/><path d="M-71.917 48.854l-.067.13-.306.22c.021-.102.273-.284.351-.337.011-.01.022-.013.022-.013z" fill="#de980d"/><path d="M-36.972 49.066a.588.588 0 0 0-.563-.022c.015-.047.067-.167.067-.167.203-.127.293-.127.479-.037a.271.271 0 0 1 .017.226z" fill="url(#bc)" transform="matrix(.72832 0 0 .72832 -44.647 13.265)"/><path d="M-43.076 70.3c-.179-.105-.383-.184-.556-.115l6.106-21.143a.58.58 0 0 1 .559.027L-43.076 70.3z" fill="url(#bd)" transform="matrix(.72832 0 0 .72832 -44.647 13.265)"/><path d="M-37.838 49.185c1.864 1.617 9.958 8.234 25.691 2.043l-.501-.399c-.043-.046-.139-.097-.341-.065-12.528 4.243-18.553 1.744-24-1.924v.005c-.183-.093-.274-.093-.475.037-.252.174-.252.172-.374.303z" opacity=".33" fill="url(#be)" transform="matrix(.72832 0 0 .72832 -44.647 13.265)"/><path d="M-12.147 51.228c-15.733 6.191-23.828-.426-25.691-2.043a.445.445 0 0 0-.105.136v.005l-.006.016-.002.004h.002l-.003.01c1.625 1.422 9.755 8.508 25.908 2.101-.018-.142-.103-.229-.103-.229z" opacity=".33" fill="url(#bf)" transform="matrix(.72832 0 0 .72832 -44.647 13.265)"/><path d="M-18.944 72.16s-.232-.141-.188-.462a.54.54 0 0 1 .513.115s-.051.229-.325.347z" fill="url(#bg)" transform="matrix(.72832 0 0 .72832 -44.647 13.265)"/></g><g><path d="M-39.171 42.971c-3.279-2.209-6.808-4.274-11.821-4.311-3.306-.026-7.244.915-12.243 2.979l6.193-21.462c12.574-5.2 18.616-2.252 24.063 1.432l-6.192 21.362z" fill="url(#bh)" transform="matrix(.72832 0 0 .72832 -44.647 13.265)"/><path d="M-73.18 44.557l4.513-15.553c.05.031.07.058.095.088l-4.51 15.576a.272.272 0 0 0-.098-.11zM-90.268 44.045c1.445-.592 2.78-1.031 4.02-1.333.302-.075.57-.137.889-.2.29-.059.58-.115.861-.157.44-.065.87-.122 1.29-.155a14.709 14.709 0 0 1 2.832.035 12.315 12.315 0 0 1 2.02.393c1.755.497 3.314 1.343 4.747 2.296-.011.007-.046-.01-.059-.017-.014-.006-.02-.006-.034-.014-1.937-1.227-4.015-2.298-6.584-2.613-2.626-.321-5.692.13-9.818 1.766 0 0-.093.043-.132.047-.032.01-.025-.016-.032-.048z" fill="#bc1b00"/><path d="M-73.336 44.786s.06.041.129.027l-.283.127c-.077.02-.169-.026-.169-.026l.323-.128z" fill="#bc1b00"/><path d="M-90.267 44.047l.03.05c-.024.004-.03.01-.098-.02-.01-.003-.022-.014-.034-.024l-.294-.229-.028-.021c.04-.003.069.015.09.013l.334.231z" fill="#b81a00"/><path d="M-73.175 44.56c.03.02.068.031.095.095-.02.086-.09.129-.128.157-.07.02-.138-.033-.138-.033.045-.032.125-.089.17-.219z" fill="#e82e00"/><path d="M-68.64 28.897l.005.001c.058.041.08.117.062.193l-.004.006c-.023-.027-.04-.057-.09-.094l.027-.106z" fill="#f83603"/><path d="M-90.685 43.812c-.044-.032-.086-.165-.061-.244l.058-.018c-.023.113.046.244.109.28 0 0-.043.026-.106-.018z" fill="#e32e00"/><path d="M-57.04 20.181l-.059-.015c.024-.095.089-.124.113-.131l.008-.002a.628.628 0 0 0-.062.148z" fill="url(#bi)" transform="matrix(.72832 0 0 .72832 -44.647 13.265)"/><g fill="#e82e00"><path d="M-73.327 44.789c-4.269-2.962-9.496-4.82-17.261-.962l.318.224c8.485-3.467 12.908-1.594 16.632.862l.311-.124z"/><path d="M-73.336 44.786c-2.444-1.595-4.728-2.918-8.35-3.021-2.644.053-4.676.39-8.894 2.065-.063-.034-.142-.123-.122-.238 3.656-1.556 6.556-2.23 8.963-2.205 3.649.035 6.175 1.564 8.564 3.17-.041.142-.12.195-.16.229z"/></g><path d="M-86.233 27.95l.042.013-4.5 15.622c-.01-.007-.056-.018-.056-.018l4.514-15.616z" fill="#e32e00"/><path d="M-32.979 21.61c-5.451-3.688-11.545-6.541-24.06-1.429.026-.109.053-.146.053-.146 12.576-5.2 18.597-2.26 24.042 1.428l-.035.147z" opacity=".66" fill="url(#bj)" transform="matrix(.72832 0 0 .72832 -44.647 13.265)"/><path d="M-69.19 29.519c-3.234-2.1-7.508-4.73-16.623-1.007.02-.078.044-.12.044-.12 9.157-3.786 13.474-.9 16.612 1.013l-.033.114z" opacity=".33" fill="#fe8411"/><path d="M-56.835 20.323c-.035.014-.156-.003-.156-.003l-6.25 21.645.462.31a.177.177 0 0 0 .047.033c.079.035.095.035.12.03l6.123-21.497.019-.064-.365-.454z" opacity=".6" fill="url(#bk)" transform="matrix(.72832 0 0 .72832 -44.647 13.265)"/><path d="M-33.668 22.178l.007.008.001-.014-.008.006z" opacity=".5" fill="url(#bl)" transform="matrix(.72832 0 0 .72832 -44.647 13.265)"/><path d="M-33.516 21.686c-2.067-1.385-5.508-3.633-10.541-3.985-5.339-.375-12.104 2.342-12.778 2.622l.364.453-.019.064c.019-.004.037-.015.055-.022 12.466-5.361 20.144-.52 22.767 1.36l.009-.006.392-.321-.249-.165z" opacity=".5" fill="url(#bm)" transform="matrix(.72832 0 0 .72832 -44.647 13.265)"/><path d="M-86.04 28.067c.491-.204 5.418-2.183 9.306-1.91 3.666.256 6.172 1.894 7.677 2.902l.18.12.282-.226c-.012-.019-.02-.04-.04-.054-3.88-2.628-8.166-4.732-16.919-1.282-.196.079-.392.155-.591.238l.105.212z" opacity=".5" fill="#fff4c5"/><path d="M-32.944 21.471l-.035.139-.29.241-.391.321-.001.014c-1.298 4.452-5.355 18.351-6.215 21.248.01.004.017.006.028.014l.013.007s.126.064.232.036l.388-.175c-.001.002-.004 0-.011.002.004-.002.007 0 .009-.002.049-.04.144-.097.171-.2l.001-.007c0-.003.003-.003.003-.007l5.938-20.508.147-.505.005-.021.099-.336c.02-.072.007-.217-.091-.261z" opacity=".6" fill="url(#bn)" transform="matrix(.72832 0 0 .72832 -44.647 13.265)"/><path d="M-39.378 43.268c-3.354-2.19-6.492-4.007-11.463-4.15-3.632.074-6.42.537-12.212 2.836-.089-.045-.195-.167-.167-.324 5.019-2.138 9.001-3.063 12.308-3.029 5.008.052 8.478 2.145 11.756 4.352-.057.195-.164.27-.222.315z" opacity=".5" fill="url(#bo)" transform="matrix(.72832 0 0 .72832 -44.647 13.265)"/><path d="M-86.19 27.879a.139.139 0 0 0-.043.072l-.231.795-4.282 14.821c-.025.08.017.212.061.244l.012.005.01.01-.044.002 4.552-15.764s.09.013.114.003l-.149-.188z" fill="none"/><path d="M-68.64 28.897l.005.003c.058.04.08.115.062.19l-.004.007c-.023-.027-.04-.055-.09-.094l.027-.106z" fill="#f83603"/><path d="M-57.04 20.181l-.058-.015a.183.183 0 0 1 .112-.131l.009-.002c0-.001-.03.044-.063.148z" fill="url(#bp)" transform="matrix(.72832 0 0 .72832 -44.647 13.265)"/><path d="M-32.979 21.61c-5.448-3.688-11.545-6.539-24.061-1.428.027-.106.054-.146.054-.146 12.576-5.2 18.597-2.26 24.042 1.428l-.035.146z" opacity=".66" fill="url(#bq)" transform="matrix(.72832 0 0 .72832 -44.647 13.265)"/></g><g><path d="M-5.684 25.25c-12.557 5.189-18.59 2.271-24.026-1.391l-6.195 21.481c5.432 3.683 11.996 6.703 24.035 1.317l6.186-21.407z" fill="url(#br)" transform="matrix(.72832 0 0 .72832 -44.647 13.265)"/><path d="M-5.71 25.266c-12.556 5.188-18.566 2.269-24.002-1.389a.388.388 0 0 0 0-.231c5.436 3.66 11.595 6.608 24.144 1.417-.103.059-.111.131-.142.203z" fill="url(#bs)" transform="matrix(.72832 0 0 .72832 -44.647 13.265)"/><path fill="#8cac42" d="M-71.468 46.355l4.482-15.513.328-.234-4.466 15.508-.344.274z"/><path d="M-35.892 45.348c-.188-.109-.329-.325-.499-.257l6.146-21.267a.53.53 0 0 1 .557.053l-6.204 21.471z" fill="url(#bt)" transform="matrix(.72832 0 0 .72832 -44.647 13.265)"/><path d="M-66.618 30.51l-.045.11-.326.235c.03-.107.28-.282.353-.338a.5.5 0 0 0 .018-.008z" fill="#5f821c"/><path d="M-29.709 23.859a.573.573 0 0 0-.539-.03c.013-.047.055-.141.055-.141.203-.126.287-.131.48-.042a.285.285 0 0 1 .004.213z" fill="url(#bu)" transform="matrix(.72832 0 0 .72832 -44.647 13.265)"/><path opacity=".81" fill="url(#bv)" d="M-5.248 25.37l.507.402-6.244 21.394-.473-.411z" transform="matrix(.72832 0 0 .72832 -44.647 13.265)"/><path d="M-52.558 47.731c.01-.09-.082-.162-.082-.162l4.534-15.548s.074.064.092.109l-4.544 15.601z" fill="#476e32"/><path d="M-52.71 47.875c-2.443 1.111-4.753 1.684-6.9 1.87-3.71.417-6.709-.386-9.157-1.59a18.233 18.233 0 0 1-2.579-1.448l.042-.031a22.016 22.016 0 0 0 2.537 1.48 18.096 18.096 0 0 0 9.157 1.59c2.026-.232 4.267-.831 6.743-1.927.07.053.157.056.157.056z" fill="#1d3419"/><path d="M-11.75 47.123s-.237-.214-.197-.526a.58.58 0 0 1 .536.117s-.065.291-.339.409z" fill="url(#bw)" transform="matrix(.72832 0 0 .72832 -44.647 13.265)"/><path d="M-11.411 46.714l.444.397s-.067.246-.337.364l-.465-.395a.658.658 0 0 0 .358-.366z" fill="url(#bx)" transform="matrix(.72832 0 0 .72832 -44.647 13.265)"/><path d="M-11.87 46.586c-.044.314.188.545.188.545-12.55 5.191-19.016 2.14-24.454-1.545.096-.066.109-.066.172-.291 5.434 3.682 13.648 6.261 24.094 1.291z" fill="url(#by)" transform="matrix(.72832 0 0 .72832 -44.647 13.265)"/><path d="M-71.304 46.691l.341-.226c3.96 2.55 8.637 4.753 17.772 1.082l.328.287c-8.769 3.869-14.377 1.717-18.44-1.143z" fill="#26551b"/><path d="M-52.558 47.731a.338.338 0 0 1-.152.144c-.006.004-.01.004-.01.004s-.06.012-.146-.046c.182-.095.232-.296.232-.296s.103.092.076.194z" fill="#5f821c"/><path d="M-71.29 46.687l-.04.033s-.22-.122-.137-.365c.02.242.177.332.177.332z" fill="#26551b"/><path d="M-36.827 45.433l.453-.357a.5.5 0 0 0 .267.485l-.458.355a.505.505 0 0 1-.262-.483z" fill="url(#bz)" transform="matrix(.72832 0 0 .72832 -44.647 13.265)"/><path d="M-36.385 45.076c.156-.051.293.114.481.264-.063.22-.114.181-.21.248a.518.518 0 0 1-.271-.512z" fill="url(#bA)" transform="matrix(.72832 0 0 .72832 -44.647 13.265)"/><path d="M-4.7 25.551c.006.079-.053.212-.053.212l-.482-.388s.07-.159.035-.279c.162.068.473.408.5.455z" opacity=".72" fill="url(#bB)" transform="matrix(.72832 0 0 .72832 -44.647 13.265)"/><path d="M-4.71 25.531c-.094-.127-.238-.24-.351-.343-.212-.194-.476-.152-.538-.115l-.003.007c-12.523 5.17-18.676 2.222-24.109-1.435.012.027.013.054.016.08-.003-.026-.004-.053-.016-.08-.192-.088-.277-.084-.48.042a2.87 2.87 0 0 0-.397.333c2.089 1.76 10.971 8.719 25.878 1.511zm-24.999-1.672l-.003.004c0-.004-.001-.004-.003-.005l.006.001c.013-.029.013-.056.015-.084a.264.264 0 0 1-.015.084z" opacity=".33" fill="url(#bC)" transform="matrix(.72832 0 0 .72832 -44.647 13.265)"/><path d="M-11.928 46.635L-5.72 25.26c.339-.063.501.13.501.13l-6.192 21.322c0 .002-.254-.189-.517-.077z" opacity=".72" fill="url(#bD)" transform="matrix(.72832 0 0 .72832 -44.647 13.265)"/><path d="M-5.71 25.266a.292.292 0 0 1 .11-.193c.063-.037.326-.079.538.115.212.191.538.413.438.714-.026-.062-.121-.14-.121-.14l-.474-.373s-.153-.183-.491-.123z" opacity=".6" fill="url(#bE)" transform="matrix(.72832 0 0 .72832 -44.647 13.265)"/><path d="M-30.589 24.021c-.032.039-.063.073-.078.107l-.005.006-.022.073c1.891 1.6 10.857 8.963 26.083 1.551a.455.455 0 0 0-.098-.228c-14.908 7.209-23.79.25-25.88-1.509z" opacity=".3" fill="url(#bF)" transform="matrix(.72832 0 0 .72832 -44.647 13.265)"/><path d="M-4.7 25.552c.006.078-.053.21-.053.21l-.481-.388s.07-.158.038-.279c.158.07.469.411.496.457z" opacity=".72" fill="url(#bG)" transform="matrix(.72832 0 0 .72832 -44.647 13.265)"/><path d="M-5.71 25.266a.287.287 0 0 1 .112-.193c.062-.037.326-.079.536.117.212.19.539.41.439.713a.531.531 0 0 0-.122-.14l-.474-.375c.001.001-.153-.182-.491-.122z" opacity=".6" fill="url(#bH)" transform="matrix(.72832 0 0 .72832 -44.647 13.265)"/></g><path d="M122.344 25.906c-2.324.036-5.097.643-8.531 2.063l-4.5 15.625c3.64-1.503 6.498-2.207 8.906-2.188 3.65.027 6.205 1.548 8.594 3.157L131.343 29c-2.479-1.677-5.126-3.154-9-3.094zm11.375 4.75l-4.5 15.625c3.956 2.683 8.732 4.892 17.5.969l4.5-15.594c-9.146 3.78-13.541 1.667-17.5-1zm-16.656 13.75c-2.323.057-5.078.653-8.5 2.063h-.063l-4.469 15.562c9.164-3.788 13.498-1.607 17.469 1.063l4.563-15.688c-2.473-1.679-5.13-3.094-9-3zm11.406 4.5l-4.531 15.532c3.963 2.687 8.377 4.848 17.53 1.062l4.345-15.156c-9.327 3.188-13.376 1.232-17.344-1.438z" fill="#f0f"/><path d="M51.094 29.844l-4.282 14.718c-2.388-1.608-4.942-3.129-8.593-3.156-2.335-.018-5.11.652-8.594 2.063l-.313 1.125c3.641-1.503 6.499-2.207 8.907-2.188 3.65.027 6.205 1.548 8.593 3.157L51.344 30c-.081-.055-.169-.102-.25-.156zm20.125 2.812c-.108.045-.206.082-.313.125L66.72 47.25c-8.59 3.843-13.34 1.794-17.25-.813l-.25.844c3.956 2.683 8.732 4.892 17.5.969l4.5-15.594zM45.813 48.25L41.5 63.094c-3.924-2.639-8.213-4.793-17.156-1.188l-.313 1.125c9.164-3.788 13.498-1.607 17.469 1.063l4.563-15.688c-.081-.055-.17-.102-.25-.156zm20 3.094c-.108.036-.207.058-.313.093L61.469 65.5c-8.968 3.709-13.379 1.703-17.282-.906l-.25.844c3.964 2.687 8.378 4.848 17.532 1.062l4.343-15.156z" fill="#fff"/><path d="M42.344 25.906c-2.324.036-5.097.643-8.532 2.063l-4.5 15.625c3.641-1.503 6.499-2.207 8.907-2.188 3.65.027 6.205 1.548 8.593 3.157L51.344 29c-2.48-1.677-5.127-3.154-9-3.094zM42.375 28c2.705-.042 4.579.845 6.469 2L45.53 41.406c-2.016-1.117-4.308-2.065-7.281-2.093h-.031c-1.747-.01-3.697.397-5.75 1l3.062-10.72c2.781-1.055 5.068-1.566 6.844-1.593zm11.344 2.656l-4.5 15.625c3.956 2.683 8.732 4.892 17.5.969l4.5-15.594c-9.146 3.78-13.541 1.667-17.5-1zM55 33.813c1.526.82 3.176 1.553 5.219 1.843 2.231.317 4.934-.066 7.906-.875L65 45.594c-3.625 1.48-6.378 1.87-8.531 1.562-1.802-.257-3.295-1.004-4.75-1.875L55 33.813zM37.062 44.406c-2.322.057-5.077.653-8.5 2.063H28.5L24.031 62.03c9.164-3.788 13.498-1.607 17.469 1.063l4.563-15.688c-2.473-1.679-5.13-3.094-9-3zm.063 2.094c2.71-.066 4.566.806 6.438 1.938l-3.344 11.468c-1.514-.821-3.16-1.542-5.188-1.843-2.226-.332-4.93.068-7.906.874l3.094-10.812c2.803-1.067 5.098-1.581 6.906-1.625zm11.344 2.406l-4.532 15.532c3.964 2.687 8.378 4.848 17.532 1.062l4.343-15.156c-9.326 3.188-13.375 1.232-17.343-1.438zm1.281 3.188c1.48.799 3.097 1.5 5.063 1.812 2.216.352 4.92.04 7.968-.656L59.75 63.844c-3.78 1.428-6.58 1.778-8.688 1.468-1.757-.258-3.194-.978-4.624-1.843l3.312-11.375z" opacity=".05"/><path d="M42.344 25.906c-2.324.036-5.097.643-8.532 2.063l-4.5 15.625c3.641-1.503 6.499-2.207 8.907-2.188 3.65.027 6.205 1.548 8.593 3.157L51.344 29c-2.48-1.677-5.127-3.154-9-3.094zm.031 1.125c3.256-.05 5.455 1.071 7.656 2.5l-3.906 13.375c-2.154-1.342-4.596-2.6-7.906-2.625-2.09-.016-4.524.598-7.25 1.563l3.75-13c3.099-1.23 5.623-1.781 7.656-1.813zm11.344 3.625l-4.5 15.625c3.956 2.683 8.732 4.892 17.5.969l4.5-15.594c-9.146 3.78-13.541 1.667-17.5-1zm.687 1.657c1.715 1.048 3.588 2.036 5.969 2.374 2.486.354 5.578-.14 9.219-1.374l-3.781 13.062c-4 1.713-7.05 2.13-9.5 1.781-2.261-.322-4.054-1.294-5.782-2.406l3.875-13.438zM37.063 44.406c-2.323.057-5.078.653-8.5 2.063H28.5L24.031 62.03c9.164-3.788 13.498-1.607 17.469 1.063l4.563-15.688c-2.473-1.679-5.13-3.094-9-3zm.03 1.125c3.257-.079 5.471.993 7.657 2.407l-3.906 13.468c-1.716-1.058-3.585-2.02-5.969-2.375-2.478-.368-5.574.11-9.219 1.344l3.75-13c3.12-1.24 5.631-1.794 7.688-1.844zm11.376 3.375l-4.532 15.532c3.964 2.687 8.378 4.848 17.532 1.062l4.343-15.156c-9.326 3.188-13.375 1.232-17.343-1.438zm.656 1.688c1.69 1.038 3.523 1.944 5.844 2.312 2.446.388 5.53.02 9.25-1.031l-3.656 12.719c-4.174 1.653-7.25 2.04-9.657 1.687-2.215-.325-3.942-1.233-5.656-2.344l3.875-13.343z" opacity=".1"/><path d="M42.344 25.906c-2.324.036-5.097.643-8.532 2.063l-4.5 15.625c.111-.046.204-.081.313-.125l4.188-14.5c3.434-1.42 6.207-2.027 8.53-2.063 3.748-.058 6.34 1.33 8.75 2.938l.25-.844c-2.479-1.677-5.126-3.154-9-3.094zm11.375 4.75l-4.5 15.625c.08.055.169.102.25.157l4.25-14.782c3.912 2.636 8.26 4.723 17.187 1.125l.313-1.125c-9.146 3.78-13.541 1.667-17.5-1zm-16.657 13.75c-2.322.057-5.077.653-8.5 2.063H28.5L24.031 62.03l.313-.125L28.5 47.47h.063c3.422-1.41 6.177-2.006 8.5-2.063 3.743-.09 6.345 1.238 8.75 2.844l.25-.844c-2.473-1.679-5.13-3.094-9-3zm11.407 4.5l-4.532 15.532c.081.054.17.102.25.156l4.282-14.688c3.922 2.639 7.932 4.567 17.031 1.532l.313-1.094c-9.327 3.188-13.376 1.232-17.344-1.438z" opacity=".2"/><g><path d="M12 6c-3.324 0-6 2.676-6 6v72c0 .335.041.65.094.969.048.295.097.597.187.875l.032.094c.098.287.234.547.375.812.144.274.315.536.5.781a6.105 6.105 0 0 0 2.094 1.781c.278.14.573.247.874.344a4.843 4.843 0 0 1-.719-.375c-.007-.004-.023.005-.03 0-.033-.02-.063-.042-.095-.062-.12-.077-.23-.164-.343-.25-.106-.081-.214-.161-.313-.25a5.042 5.042 0 0 1-.5-.531 5.092 5.092 0 0 1-.312-.407c-.025-.038-.039-.086-.063-.125-.065-.103-.13-.204-.187-.312a5.371 5.371 0 0 1-.282-.625c-.007-.022-.023-.04-.03-.063-.033-.092-.037-.187-.063-.281-.03-.107-.07-.203-.094-.313A5.098 5.098 0 0 1 7 85V13c0-2.782 2.218-5 5-5h72c2.782 0 5 2.218 5 5v72c0 .364-.052.721-.125 1.063a4.896 4.896 0 0 1-.156.593c-.008.022-.024.04-.031.063a5.482 5.482 0 0 1-.22.531c-.04.083-.078.17-.124.25-.055.097-.127.188-.188.281a5.092 5.092 0 0 1-.312.406 5.05 5.05 0 0 1-.469.5l-.031.032a4.818 4.818 0 0 1-.438.344c-.102.073-.204.153-.312.218-.008.005-.024-.004-.031 0a4.843 4.843 0 0 1-.72.375c.302-.097.597-.204.876-.344a6.105 6.105 0 0 0 2.094-1.78c.184-.246.355-.508.5-.782a5.69 5.69 0 0 0 .374-.813l.032-.093c.09-.278.139-.58.187-.875.053-.318.094-.634.094-.969V12c0-3.324-2.676-6-6-6H12z" opacity=".5" fill="url(#bI)"/></g></svg>