<svg xmlns="http://www.w3.org/2000/svg" xmlns:xlink="http://www.w3.org/1999/xlink" version="1.0" width="96" height="96"><defs><linearGradient x1="45.448" y1="92.54" x2="45.448" y2="7.017" id="h" gradientUnits="userSpaceOnUse" gradientTransform="scale(1.00587 .99417)"><stop offset="0"/><stop offset="1" stop-opacity=".588"/></linearGradient><linearGradient id="a"><stop offset="0" stop-color="#fff"/><stop offset="1" stop-color="#fff" stop-opacity="0"/></linearGradient><filter color-interpolation-filters="sRGB" id="i"><feGaussianBlur stdDeviation="1.71"/></filter><linearGradient x1="36.357" y1="6" x2="36.357" y2="63.893" id="q" xlink:href="#a" gradientUnits="userSpaceOnUse"/><filter x="-.192" y="-.192" width="1.384" height="1.384" color-interpolation-filters="sRGB" id="t"><feGaussianBlur stdDeviation="5.28"/></filter><radialGradient cx="48" cy="90.172" r="42" fx="48" fy="90.172" id="p" xlink:href="#a" gradientUnits="userSpaceOnUse" gradientTransform="matrix(1.15731 0 0 .9959 -7.551 .197)"/><clipPath id="r"><rect width="84" height="84" rx="6" ry="6" x="6" y="6" fill="#fff"/></clipPath><linearGradient x1="48" y1="90" x2="48" y2="5.988" id="o" xlink:href="#b" gradientUnits="userSpaceOnUse"/><linearGradient x1="10.32" y1="21" x2="10.32" y2=".999" id="b" gradientUnits="userSpaceOnUse"><stop offset="0" stop-color="#787878"/><stop offset="1" stop-color="#b4b4b4"/></linearGradient><linearGradient x1="45.448" y1="92.54" x2="45.448" y2="7.017" id="c" gradientUnits="userSpaceOnUse" gradientTransform="matrix(1.00587 0 0 .99417 100 0)"><stop offset="0"/><stop offset="1" stop-opacity=".588"/></linearGradient><linearGradient x1="32.251" y1="6.132" x2="32.251" y2="90.239" id="k" xlink:href="#c" gradientUnits="userSpaceOnUse" gradientTransform="matrix(1.0238 0 0 1.0119 -1.143 -98.071)"/><linearGradient x1="32.251" y1="6.132" x2="32.251" y2="90.239" id="l" xlink:href="#c" gradientUnits="userSpaceOnUse" gradientTransform="matrix(1.0238 0 0 1.0119 -1.143 -98.071)"/><linearGradient x1="32.251" y1="6.132" x2="32.251" y2="90.239" id="m" xlink:href="#c" gradientUnits="userSpaceOnUse" gradientTransform="matrix(1.0238 0 0 1.0119 -1.143 -98.071)"/><linearGradient x1="32.251" y1="6.132" x2="32.251" y2="90.239" id="n" xlink:href="#c" gradientUnits="userSpaceOnUse" gradientTransform="translate(0 -97)"/><linearGradient x1="32.251" y1="6.132" x2="32.251" y2="90.239" id="j" xlink:href="#c" gradientUnits="userSpaceOnUse" gradientTransform="matrix(1.0238 0 0 1.0119 -1.143 -98.071)"/><clipPath id="v"><path d="M30.916 135.971c-.937.541-1.228 1.748-.678 2.7l1.938 3.357a22.352 22.352 0 0 0-3.596 4.71l-3.783-.991c-.532-.143-1.038-.118-1.476.13a1.968 1.968 0 0 0-.937 1.19l-1.979 7.386c-.28 1.045.366 2.065 1.43 2.35l3.771 1.034a22.353 22.353 0 0 0 .76 5.876l-3.357 1.938c-.953.55-1.304 1.74-.763 2.678l3.813 6.603c.54.937 1.747 1.228 2.7.678l3.356-1.937a22.352 22.352 0 0 0 4.71 3.595l-.99 3.784c-.286 1.063.275 2.132 1.32 2.413l7.385 1.978c1.046.28 2.066-.366 2.35-1.429l1.034-3.772a22.36 22.36 0 0 0 5.877-.759l1.937 3.356c.55.953 1.741 1.305 2.678.763l6.604-3.812c.937-.541 1.228-1.748.678-2.7l-1.938-3.357a22.352 22.352 0 0 0 3.596-4.71l3.783.991c1.063.285 2.133-.275 2.413-1.32l1.979-7.386c.28-1.045-.366-2.065-1.43-2.35l-3.771-1.034a22.352 22.352 0 0 0-.76-5.876l3.357-1.938c.953-.55 1.304-1.74.763-2.678l-3.813-6.603c-.54-.938-1.747-1.229-2.7-.678l-3.356 1.937a22.351 22.351 0 0 0-4.71-3.595l.99-3.784c.286-1.063-.275-2.133-1.32-2.413l-7.385-1.978c-1.046-.28-2.066.365-2.35 1.429l-1.034 3.772a22.36 22.36 0 0 0-5.877.759l-1.937-3.356c-.55-.953-1.741-1.305-2.678-.764l-6.604 3.813zm10.052 9.785c6.696-3.866 15.258-1.572 19.124 5.124 3.866 6.697 1.572 15.259-5.124 19.125-6.696 3.866-15.258 1.572-19.124-5.125-3.866-6.696-1.572-15.258 5.124-19.124z" style="marker:none" fill="url(#linearGradient4407)" display="block" overflow="visible" enable-background="accumulate"/></clipPath><linearGradient x1="48.234" y1="48.047" x2="126.139" y2="66.233" id="w" xlink:href="#d" gradientUnits="userSpaceOnUse"/><linearGradient id="d"><stop offset="0"/><stop offset="1" stop-opacity="0"/></linearGradient><linearGradient x1="48.055" y1="48.032" x2="126.673" y2="62.839" id="x" xlink:href="#e" gradientUnits="userSpaceOnUse"/><linearGradient id="e"><stop offset="0"/><stop offset="1" stop-opacity="0"/></linearGradient><linearGradient x1="47.997" y1="48.029" x2="127.052" y2="60.29" id="y" xlink:href="#e" gradientUnits="userSpaceOnUse"/><linearGradient x1="47.998" y1="48.029" x2="127.416" y2="57.665" id="z" xlink:href="#e" gradientUnits="userSpaceOnUse"/><linearGradient x1="48.234" y1="48.047" x2="126.139" y2="66.233" id="A" xlink:href="#f" gradientUnits="userSpaceOnUse"/><linearGradient id="f"><stop offset="0" stop-color="#fff"/><stop offset="1" stop-color="#fff" stop-opacity="0"/></linearGradient><linearGradient x1="48.055" y1="48.032" x2="126.673" y2="62.839" id="B" xlink:href="#f" gradientUnits="userSpaceOnUse"/><linearGradient x1="47.997" y1="48.029" x2="127.052" y2="60.29" id="C" xlink:href="#f" gradientUnits="userSpaceOnUse"/><linearGradient x1="47.998" y1="48.029" x2="127.416" y2="57.665" id="D" xlink:href="#f" gradientUnits="userSpaceOnUse"/><linearGradient x1="48.234" y1="48.047" x2="126.139" y2="66.233" id="E" xlink:href="#d" gradientUnits="userSpaceOnUse"/><linearGradient x1="48.055" y1="48.032" x2="126.673" y2="62.839" id="F" xlink:href="#e" gradientUnits="userSpaceOnUse"/><linearGradient x1="47.997" y1="48.029" x2="127.052" y2="60.29" id="G" xlink:href="#e" gradientUnits="userSpaceOnUse"/><linearGradient x1="47.998" y1="48.029" x2="127.416" y2="57.665" id="H" xlink:href="#e" gradientUnits="userSpaceOnUse"/><linearGradient x1="48.234" y1="48.047" x2="126.139" y2="66.233" id="I" xlink:href="#d" gradientUnits="userSpaceOnUse"/><linearGradient x1="48.055" y1="48.032" x2="126.673" y2="62.839" id="J" xlink:href="#e" gradientUnits="userSpaceOnUse"/><linearGradient x1="47.997" y1="48.029" x2="127.052" y2="60.29" id="K" xlink:href="#e" gradientUnits="userSpaceOnUse"/><linearGradient x1="47.998" y1="48.029" x2="127.416" y2="57.665" id="L" xlink:href="#e" gradientUnits="userSpaceOnUse"/><linearGradient x1="48.234" y1="48.047" x2="126.139" y2="66.233" id="M" xlink:href="#f" gradientUnits="userSpaceOnUse"/><linearGradient x1="48.055" y1="48.032" x2="126.673" y2="62.839" id="N" xlink:href="#f" gradientUnits="userSpaceOnUse"/><linearGradient x1="47.997" y1="48.029" x2="127.052" y2="60.29" id="O" xlink:href="#f" gradientUnits="userSpaceOnUse"/><linearGradient x1="47.998" y1="48.029" x2="127.416" y2="57.665" id="P" xlink:href="#f" gradientUnits="userSpaceOnUse"/><linearGradient x1="20.759" y1="1" x2="20.759" y2="45.017" id="u" xlink:href="#g" gradientUnits="userSpaceOnUse" gradientTransform="matrix(1.27907 0 0 1.27907 17.302 18.581)"/><linearGradient x1="63.999" y1="3.1" x2="63.999" y2="122.899" id="g" gradientUnits="userSpaceOnUse"><stop offset="0" stop-color="#f0f0f0"/><stop offset="1" stop-color="#aaa"/></linearGradient><linearGradient x1="48" y1="20.221" x2="48" y2="138.661" id="s" xlink:href="#a" gradientUnits="userSpaceOnUse"/></defs><g transform="scale(1 -1)"><path d="M12-95.031c-5.511 0-10.031 4.52-10.031 10.031v71C1.969-8.489 6.489-3.969 12-3.969h72c5.511 0 10.031-4.52 10.031-10.031v-71c0-5.511-4.52-10.031-10.031-10.031H12z" opacity=".08" fill="url(#j)"/><path d="M12-94.031c-4.972 0-9.031 4.06-9.031 9.031v71c0 4.972 4.06 9.031 9.031 9.031h72c4.972 0 9.031-4.06 9.031-9.031v-71c0-4.972-4.06-9.031-9.031-9.031H12z" opacity=".1" fill="url(#k)"/><path d="M12-93c-4.41 0-8 3.59-8 8v71c0 4.41 3.59 8 8 8h72c4.41 0 8-3.59 8-8v-71c0-4.41-3.59-8-8-8H12z" opacity=".2" fill="url(#l)"/><rect width="86" height="85" rx="7" ry="7" x="5" y="-92" opacity=".3" fill="url(#m)"/><rect width="84" height="84" rx="6" ry="6" x="6" y="-91" opacity=".45" fill="url(#n)"/></g><rect width="84" height="84" rx="6" ry="6" x="6" y="6" fill="url(#o)"/><path d="M12 90c-3.324 0-6-2.676-6-6V12c0-.335.041-.65.094-.969.048-.295.097-.597.187-.875l.032-.094a5.69 5.69 0 0 1 .375-.812c.144-.274.315-.536.5-.781a6.105 6.105 0 0 1 2.094-1.781c.278-.14.573-.247.874-.344-.256.1-.486.236-.719.375-.007.004-.023-.005-.03 0-.033.019-.063.042-.095.062-.12.077-.23.164-.343.25-.106.081-.214.161-.313.25a5.042 5.042 0 0 0-.5.532c-.107.13-.218.265-.312.406-.025.038-.039.086-.063.125-.065.103-.13.204-.187.312a5.371 5.371 0 0 0-.282.625c-.007.022-.023.04-.03.063-.033.092-.037.187-.063.281-.03.107-.07.203-.094.313A5.098 5.098 0 0 0 7 11v72c0 2.782 2.218 5 5 5h72c2.782 0 5-2.218 5-5V11c0-.364-.052-.721-.125-1.063a4.896 4.896 0 0 0-.156-.593c-.008-.022-.024-.04-.031-.063a5.482 5.482 0 0 0-.22-.531c-.04-.083-.078-.17-.124-.25-.055-.097-.127-.188-.188-.281a5.092 5.092 0 0 0-.312-.406 5.05 5.05 0 0 0-.469-.5l-.031-.032a4.818 4.818 0 0 0-.438-.343c-.102-.074-.204-.154-.312-.22-.008-.004-.024.005-.031 0a4.843 4.843 0 0 0-.72-.374c.302.097.597.204.876.343a6.105 6.105 0 0 1 2.094 1.782c.184.245.355.507.5.781.14.265.276.525.374.813l.032.093c.09.278.139.58.187.875.053.318.094.634.094.969v72c0 3.324-2.676 6-6 6H12z" opacity=".2" fill="url(#p)"/><path d="M12 6c-3.324 0-6 2.676-6 6v72c0 .335.041.65.094.969.048.295.097.597.187.875l.032.094c.098.287.234.547.375.812.144.274.315.536.5.781a6.105 6.105 0 0 0 2.094 1.781c.278.14.573.247.874.344a4.843 4.843 0 0 1-.719-.375c-.007-.004-.023.005-.03 0-.033-.02-.063-.042-.095-.062-.12-.077-.23-.164-.343-.25-.106-.081-.214-.161-.313-.25a5.042 5.042 0 0 1-.5-.531 5.092 5.092 0 0 1-.312-.407c-.025-.038-.039-.086-.063-.125-.065-.103-.13-.204-.187-.312a5.371 5.371 0 0 1-.282-.625c-.007-.022-.023-.04-.03-.063-.033-.092-.037-.187-.063-.281-.03-.107-.07-.203-.094-.313A5.098 5.098 0 0 1 7 85V13c0-2.782 2.218-5 5-5h72c2.782 0 5 2.218 5 5v72c0 .364-.052.721-.125 1.063a4.896 4.896 0 0 1-.156.593c-.008.022-.024.04-.031.063a5.482 5.482 0 0 1-.22.531c-.04.083-.078.17-.124.25-.055.097-.127.188-.188.281a5.092 5.092 0 0 1-.312.406 5.05 5.05 0 0 1-.469.5l-.031.032a4.818 4.818 0 0 1-.438.344c-.102.073-.204.153-.312.218-.008.005-.024-.004-.031 0a4.843 4.843 0 0 1-.72.375c.302-.097.597-.204.876-.344a6.105 6.105 0 0 0 2.094-1.78c.184-.246.355-.508.5-.782a5.69 5.69 0 0 0 .374-.813l.032-.093c.09-.278.139-.58.187-.875.053-.318.094-.634.094-.969V12c0-3.324-2.676-6-6-6H12z" opacity=".3" fill="url(#q)"/><g><rect width="66" height="66" rx="12" ry="12" x="15" y="15" clip-path="url(#r)" opacity=".15" fill="url(#s)" stroke="#fff" stroke-width=".5" stroke-linecap="round" filter="url(#t)"/></g><g><rect width="84" height="84" rx="6" ry="6" x="6" y="106"/><path d="M44.188 18.406c-2.813 0-5.032 2.35-5.032 5.094v1.875c-.558.208-1.114.41-1.656.656l-1.313-1.312c-.815-.816-2.045-1.519-3.53-1.532a5.016 5.016 0 0 0-3.594 1.47l-5.407 5.405c-1.984 1.985-1.846 5.217.063 7.125L25.03 38.5c-.247.542-.448 1.098-.656 1.656H22.5c-2.744 0-5.094 2.22-5.094 5.032v7.624c0 2.813 2.35 5.032 5.094 5.032h1.875c.208.558.41 1.114.656 1.656l-1.312 1.313c-1.91 1.908-2.047 5.14-.063 7.124l5.407 5.407c1.983 1.984 5.216 1.846 7.125-.063L37.5 71.97c.542.247 1.098.448 1.656.656V74.5c0 2.744 2.22 5.094 5.032 5.094h7.624c2.813 0 5.032-2.35 5.032-5.094v-1.875c.558-.208 1.114-.41 1.656-.656l1.313 1.312c1.908 1.91 5.14 2.047 7.124.063l5.407-5.406c1.984-1.985 1.846-5.217-.063-7.126L70.97 59.5c.247-.542.448-1.098.656-1.656H73.5c2.744 0 5.094-2.22 5.094-5.032v-7.624c0-2.813-2.35-5.032-5.094-5.032h-1.875c-.208-.558-.41-1.114-.656-1.656l1.312-1.313c1.91-1.908 2.047-5.14.063-7.124l-5.406-5.407c-1.984-1.984-5.217-1.846-7.126.063L58.5 26.03c-.542-.247-1.098-.448-1.656-.656V23.5c0-2.744-2.22-5.094-5.032-5.094h-7.624zM48 38.094c6.075 0 10.906 4.83 10.906 10.906 0 6.075-4.83 10.906-10.906 10.906-6.075 0-10.906-4.83-10.906-10.906 0-6.075 4.83-10.906 10.906-10.906z" style="marker:none" opacity=".05" display="block" overflow="visible" enable-background="accumulate"/><path d="M44.188 19.438c-2.227 0-4 1.88-4 4.062v2.563c-1.017.35-1.988.744-2.938 1.218l-1.813-1.812c-.671-.672-1.634-1.24-2.78-1.25a3.983 3.983 0 0 0-2.844 1.187l-5.407 5.407c-1.57 1.57-1.455 4.106.063 5.625l1.812 1.812c-.474.95-.869 1.92-1.218 2.938H22.5c-2.181 0-4.063 1.773-4.063 4v7.624c0 2.227 1.882 4 4.063 4h2.563c.35 1.017.744 1.988 1.218 2.938l-1.812 1.813c-1.518 1.518-1.633 4.054-.063 5.624l5.407 5.407c1.57 1.57 4.106 1.455 5.625-.063l1.812-1.812c.95.474 1.92.869 2.938 1.219V74.5c0 2.181 1.773 4.063 4 4.063h7.624c2.227 0 4-1.882 4-4.063v-2.563a24.076 24.076 0 0 0 2.938-1.218l1.813 1.812c1.518 1.518 4.054 1.633 5.624.063l5.407-5.406c1.57-1.57 1.455-4.107-.063-5.626L69.72 59.75c.474-.95.869-1.92 1.219-2.938H73.5c2.181 0 4.063-1.773 4.063-4v-7.624c0-2.227-1.882-4-4.063-4h-2.563a24.076 24.076 0 0 0-1.218-2.938l1.812-1.813c1.518-1.518 1.633-4.054.063-5.624l-5.406-5.407c-1.57-1.57-4.107-1.455-5.626.063L58.75 27.28c-.95-.474-1.92-.869-2.938-1.218V23.5c0-2.181-1.773-4.063-4-4.063h-7.624zM48 37.063A11.89 11.89 0 0 1 59.938 49 11.89 11.89 0 0 1 48 60.938 11.89 11.89 0 0 1 36.062 49 11.89 11.89 0 0 1 48 37.062z" style="marker:none" opacity=".08" display="block" overflow="visible" enable-background="accumulate"/><path d="M44.188 20.469c-1.65 0-2.97 1.4-2.97 3.031v3.219a23.383 23.383 0 0 0-4.187 1.75l-2.312-2.282c-.526-.525-1.25-.93-2.063-.937a2.96 2.96 0 0 0-2.125.875l-5.406 5.406c-1.161 1.162-1.075 3.05.063 4.188l2.28 2.312a23.384 23.384 0 0 0-1.75 4.188H22.5c-1.631 0-3.031 1.319-3.031 2.968v7.626c0 1.65 1.4 2.968 3.031 2.968h3.219a23.384 23.384 0 0 0 1.75 4.188l-2.282 2.312c-1.137 1.137-1.224 3.026-.062 4.188l5.406 5.406c1.162 1.161 3.05 1.075 4.188-.063l2.312-2.28c1.323.71 2.726 1.3 4.188 1.75V74.5c0 1.631 1.319 3.031 2.968 3.031h7.626c1.65 0 2.968-1.4 2.968-3.031v-3.219a23.383 23.383 0 0 0 4.188-1.75l2.312 2.281c1.137 1.138 3.026 1.224 4.188.063l5.406-5.406c1.161-1.162 1.075-3.05-.063-4.188l-2.28-2.312c.71-1.323 1.3-2.726 1.75-4.188H73.5c1.631 0 3.031-1.319 3.031-2.968v-7.626c0-1.65-1.4-2.968-3.031-2.968h-3.219a23.383 23.383 0 0 0-1.75-4.188l2.281-2.312c1.138-1.137 1.225-3.026.063-4.188l-5.406-5.406c-1.162-1.161-3.05-1.075-4.188.063l-2.312 2.28a23.383 23.383 0 0 0-4.188-1.75V23.5c0-1.631-1.319-3.031-2.968-3.031h-7.626zM48 36.03c7.178 0 12.969 5.79 12.969 12.969 0 7.178-5.79 12.969-12.969 12.969A12.948 12.948 0 0 1 35.031 49c0-7.178 5.79-12.969 12.969-12.969z" style="marker:none" opacity=".2" display="block" overflow="visible" enable-background="accumulate"/><path d="M44.188 21.5c-1.083 0-1.938.9-1.938 2v3.875a22.352 22.352 0 0 0-5.469 2.281L34 26.906c-.39-.389-.84-.62-1.344-.625a1.967 1.967 0 0 0-1.406.563l-5.406 5.406c-.766.765-.716 1.972.062 2.75l2.75 2.781a22.352 22.352 0 0 0-2.281 5.469H22.5c-1.1 0-2 .855-2 1.938v7.624c0 1.083.9 1.938 2 1.938h3.875a22.352 22.352 0 0 0 2.281 5.469L25.906 63c-.778.778-.828 1.985-.062 2.75l5.406 5.406c.765.766 1.972.716 2.75-.062l2.781-2.75a22.352 22.352 0 0 0 5.469 2.281V74.5c0 1.1.855 2 1.938 2h7.624c1.083 0 1.938-.9 1.938-2v-3.875a22.352 22.352 0 0 0 5.469-2.281L62 71.094c.778.778 1.985.828 2.75.062l5.406-5.406c.766-.765.716-1.972-.062-2.75l-2.75-2.781a22.352 22.352 0 0 0 2.281-5.469H73.5c1.1 0 2-.855 2-1.938v-7.624c0-1.083-.9-1.938-2-1.938h-3.875a22.352 22.352 0 0 0-2.281-5.469L70.094 35c.778-.778.828-1.985.062-2.75l-5.406-5.406c-.765-.766-1.972-.716-2.75.062l-2.781 2.75a22.352 22.352 0 0 0-5.469-2.281V23.5c0-1.1-.855-2-1.938-2h-7.624zM48 35c7.732 0 14 6.268 14 14s-6.268 14-14 14-14-6.268-14-14 6.268-14 14-14z" style="marker:none" opacity=".3" display="block" overflow="visible" enable-background="accumulate"/><path d="M44.188 20.5c-1.083 0-1.938.9-1.938 2v3.875a22.352 22.352 0 0 0-5.469 2.281L34 25.906c-.39-.389-.84-.62-1.344-.625a1.967 1.967 0 0 0-1.406.563l-5.406 5.406c-.766.765-.716 1.972.062 2.75l2.75 2.781a22.352 22.352 0 0 0-2.281 5.469H22.5c-1.1 0-2 .855-2 1.938v7.624c0 1.083.9 1.938 2 1.938h3.875a22.352 22.352 0 0 0 2.281 5.469L25.906 62c-.778.778-.828 1.985-.062 2.75l5.406 5.406c.765.766 1.972.716 2.75-.062l2.781-2.75a22.352 22.352 0 0 0 5.469 2.281V73.5c0 1.1.855 2 1.938 2h7.624c1.083 0 1.938-.9 1.938-2v-3.875a22.352 22.352 0 0 0 5.469-2.281L62 70.094c.778.778 1.985.828 2.75.062l5.406-5.406c.766-.765.716-1.972-.062-2.75l-2.75-2.781a22.352 22.352 0 0 0 2.281-5.469H73.5c1.1 0 2-.855 2-1.938v-7.624c0-1.083-.9-1.938-2-1.938h-3.875a22.352 22.352 0 0 0-2.281-5.469L70.094 34c.778-.778.828-1.985.062-2.75l-5.406-5.406c-.765-.766-1.972-.716-2.75.062l-2.781 2.75a22.352 22.352 0 0 0-5.469-2.281V22.5c0-1.1-.855-2-1.938-2h-7.624zM48 34c7.732 0 14 6.268 14 14s-6.268 14-14 14-14-6.268-14-14 6.268-14 14-14z" style="marker:none" fill="url(#u)" display="block" overflow="visible" enable-background="accumulate"/><g transform="rotate(30 253.024 103)" clip-path="url(#v)" color="#000"><g opacity=".9"><path d="M108.896 48a60.896 60.896 0 0 1-6.546 27.467L48 48z" transform="matrix(.26681 .97382 -1.143 .22732 89.809 100.346)" style="marker:none" opacity=".05" fill="url(#w)" overflow="visible" enable-background="accumulate"/><path d="M108.896 48a60.896 60.896 0 0 1-4.457 22.869L48 48z" transform="matrix(.21724 .98272 -1.15344 .18509 92.723 102.124)" style="marker:none" opacity=".07" fill="url(#x)" overflow="visible" enable-background="accumulate"/><path d="M108.896 48a60.896 60.896 0 0 1-3.13 19.272L48 48z" transform="matrix(.17989 .98819 -1.15985 .15326 94.833 103.448)" style="marker:none" opacity=".1" fill="url(#y)" overflow="visible" enable-background="accumulate"/><path d="M108.896 48a60.896 60.896 0 0 1-2.075 15.761L48 48z" style="marker:none" opacity=".05" fill="url(#z)" overflow="visible" enable-background="accumulate" transform="matrix(.14137 .99272 -1.16518 .12045 96.937 104.805)"/></g><g opacity=".9" fill="#fff"><path d="M108.896 48a60.896 60.896 0 0 1-6.546 27.467L48 48z" transform="matrix(1.13675 -.47987 -.62056 3.19428 22.978 27.732)" style="marker:none" opacity=".2" fill="url(#A)" overflow="visible" enable-background="accumulate"/><path d="M108.896 48a60.896 60.896 0 0 1-4.457 22.869L48 48z" transform="matrix(1.10892 -.34159 -.66904 3.212 26.838 20.2)" style="marker:none" opacity=".4" fill="url(#B)" overflow="visible" enable-background="accumulate"/><path d="M108.896 48a60.896 60.896 0 0 1-3.13 19.272L48 48z" transform="matrix(1.08674 -.2377 -.7045 3.22136 29.667 14.753)" style="marker:none" opacity=".6" fill="url(#C)" overflow="visible" enable-background="accumulate"/><path d="M108.896 48a60.896 60.896 0 0 1-2.075 15.761L48 48z" style="marker:none" opacity=".8" fill="url(#D)" overflow="visible" enable-background="accumulate" transform="matrix(1.0628 -.13088 -.7401 3.22747 32.525 9.332)"/></g><g opacity=".5"><path d="M108.896 48a60.896 60.896 0 0 1-6.546 27.467L48 48z" transform="rotate(121.861 17.304 102.93)" style="marker:none" opacity=".05" fill="url(#E)" overflow="visible" enable-background="accumulate"/><path d="M108.896 48a60.896 60.896 0 0 1-4.457 22.869L48 48z" transform="rotate(124.334 18.748 102.978)" style="marker:none" opacity=".07" fill="url(#F)" overflow="visible" enable-background="accumulate"/><path d="M108.896 48a60.896 60.896 0 0 1-3.13 19.272L48 48z" transform="rotate(126.184 19.846 102.996)" style="marker:none" opacity=".1" fill="url(#G)" overflow="visible" enable-background="accumulate"/><path d="M108.896 48a60.896 60.896 0 0 1-2.075 15.761L48 48z" style="marker:none" opacity=".1" fill="url(#H)" overflow="visible" enable-background="accumulate" transform="rotate(128.082 20.984 103)"/></g><g opacity=".8"><path d="M108.896 48a60.896 60.896 0 0 1-6.546 27.467L48 48z" transform="matrix(-.36153 -1.10504 2.68732 .48473 -63.857 187.78)" style="marker:none" opacity=".05" fill="url(#I)" overflow="visible" enable-background="accumulate"/><path d="M108.896 48a60.896 60.896 0 0 1-4.457 22.869L48 48z" transform="matrix(-.24523 -1.0831 2.70042 .53196 -70.098 184.267)" style="marker:none" opacity=".07" fill="url(#J)" overflow="visible" enable-background="accumulate"/><path d="M108.896 48a60.896 60.896 0 0 1-3.13 19.272L48 48z" transform="matrix(-.15791 -1.06536 2.70693 .56665 -74.608 181.688)" style="marker:none" opacity=".1" fill="url(#K)" overflow="visible" enable-background="accumulate"/><path d="M108.896 48a60.896 60.896 0 0 1-2.075 15.761L48 48z" style="marker:none" opacity=".1" fill="url(#L)" overflow="visible" enable-background="accumulate" transform="matrix(-.06817 -1.046 2.71067 .60163 -79.095 179.08)"/></g><g opacity=".9" fill="#fff"><path d="M108.896 48a60.896 60.896 0 0 1-6.546 27.467L48 48z" transform="matrix(-1.13675 .47987 .62056 -3.19428 72.543 288.268)" style="marker:none" opacity=".2" fill="url(#M)" overflow="visible" enable-background="accumulate"/><path d="M108.896 48a60.896 60.896 0 0 1-4.457 22.869L48 48z" transform="matrix(-1.10892 .34159 .66904 -3.212 68.684 295.8)" style="marker:none" opacity=".4" fill="url(#N)" overflow="visible" enable-background="accumulate"/><path d="M108.896 48a60.896 60.896 0 0 1-3.13 19.272L48 48z" transform="matrix(-1.08674 .2377 .7045 -3.22136 65.854 301.247)" style="marker:none" opacity=".6" fill="url(#O)" overflow="visible" enable-background="accumulate"/><path d="M108.896 48a60.896 60.896 0 0 1-2.075 15.761L48 48z" style="marker:none" opacity=".8" fill="url(#P)" overflow="visible" enable-background="accumulate" transform="matrix(-1.0628 .13088 .7401 -3.22747 62.997 306.668)"/></g></g><path d="M44.188 20.5c-1.083 0-1.938.9-1.938 2v1c0-1.1.855-2 1.938-2h7.624c1.083 0 1.938.9 1.938 2v-1c0-1.1-.855-2-1.938-2h-7.624zm-11.532 4.781a1.967 1.967 0 0 0-1.406.563l-5.406 5.406c-.497.496-.635 1.182-.469 1.813.084-.292.235-.579.469-.813l5.406-5.406a1.967 1.967 0 0 1 1.406-.563c.504.005.955.236 1.344.625l2.781 2.75a22.352 22.352 0 0 1 5.469-2.281v-1a22.352 22.352 0 0 0-5.469 2.281L34 25.906c-.39-.389-.84-.62-1.344-.625zm30.719 0c-.495.014-.986.236-1.375.625l-2.781 2.75a22.352 22.352 0 0 0-5.469-2.281v1a22.352 22.352 0 0 1 5.469 2.281L62 26.906c.778-.778 1.985-.828 2.75-.062l5.406 5.406c.234.234.385.52.469.813.166-.63.028-1.317-.469-1.813l-5.406-5.406a1.873 1.873 0 0 0-1.375-.563zM28.312 37.438c-.812 1.508-1.487 3.123-1.937 4.812H22.5c-1.1 0-2 .855-2 1.938v1c0-1.083.9-1.938 2-1.938h3.875a22.352 22.352 0 0 1 2.281-5.469l-.343-.343zm39.376 0l-.344.343a22.352 22.352 0 0 1 2.281 5.469H73.5c1.1 0 2 .855 2 1.938v-1c0-1.083-.9-1.938-2-1.938h-3.875c-.45-1.689-1.125-3.304-1.938-4.813zM34.03 48.5c-.006.167-.031.332-.031.5 0 7.732 6.268 14 14 14s14-6.268 14-14c0-.168-.025-.333-.031-.5C61.704 56 55.564 62 48 62c-7.564 0-13.704-6-13.969-13.5zm-5.718 11.063L25.905 62c-.54.54-.722 1.275-.531 1.938.09-.342.258-.665.531-.938l2.75-2.781c-.125-.216-.225-.436-.343-.657zm39.374 0c-.118.22-.218.44-.343.656L70.094 63c.273.273.441.596.531.938.19-.663.009-1.398-.531-1.938l-2.406-2.438z" style="marker:none" opacity=".7" fill="#fff" display="block" overflow="visible" enable-background="accumulate"/><path d="M25.375 32.063c-.19.662-.009 1.397.531 1.937l2.407 2.438c.118-.22.218-.441.343-.657L25.906 33a2.038 2.038 0 0 1-.531-.938zm45.25 0c-.09.34-.258.664-.531.937l-2.75 2.781c.125.216.225.436.344.657L70.094 34c.54-.54.722-1.275.531-1.938zM48 33c-7.732 0-14 6.268-14 14 0 .168.025.333.031.5C34.296 40 40.436 34 48 34c7.564 0 13.704 6 13.969 13.5.006-.167.031-.332.031-.5 0-7.732-6.268-14-14-14zM20.5 50.813v1c0 1.082.9 1.937 2 1.937h3.875c.45 1.689 1.125 3.304 1.938 4.813l.343-.344a22.352 22.352 0 0 1-2.281-5.469H22.5c-1.1 0-2-.855-2-1.938zm55 0c0 1.082-.9 1.937-2 1.937h-3.875a22.352 22.352 0 0 1-2.281 5.469l.344.343c.812-1.508 1.487-3.123 1.937-4.812H73.5c1.1 0 2-.855 2-1.938v-1zM25.375 62.937c-.166.63-.028 1.317.469 1.813l5.406 5.406c.765.766 1.972.716 2.75-.062l2.781-2.75a22.352 22.352 0 0 0 5.469 2.281v-1a22.352 22.352 0 0 1-5.469-2.281L34 69.094c-.778.778-1.985.828-2.75.062l-5.406-5.406a1.878 1.878 0 0 1-.469-.813zm45.25 0a1.878 1.878 0 0 1-.469.813l-5.406 5.406c-.765.766-1.972.716-2.75-.062l-2.781-2.75a22.352 22.352 0 0 1-5.469 2.281v1a22.352 22.352 0 0 0 5.469-2.281L62 70.094c.778.778 1.985.828 2.75.062l5.406-5.406c.497-.496.635-1.182.469-1.813zM42.25 72.5v1c0 1.1.855 2 1.938 2h7.624c1.083 0 1.938-.9 1.938-2v-1c0 1.1-.855 2-1.938 2h-7.624c-1.083 0-1.938-.9-1.938-2z" style="marker:none" opacity=".2" display="block" overflow="visible" enable-background="accumulate"/></g></svg>