<svg xmlns="http://www.w3.org/2000/svg" xmlns:xlink="http://www.w3.org/1999/xlink" version="1.0" width="96" height="96"><defs><linearGradient x1="45.448" y1="92.54" x2="45.448" y2="7.017" id="i" gradientUnits="userSpaceOnUse" gradientTransform="scale(1.00587 .99417)"><stop offset="0"/><stop offset="1" stop-opacity=".588"/></linearGradient><linearGradient id="a"><stop offset="0" stop-color="#e6e6e6"/><stop offset="1" stop-color="#f5f5f5"/></linearGradient><linearGradient x1="48" y1="90" x2="48" y2="5.988" id="p" xlink:href="#a" gradientUnits="userSpaceOnUse"/><filter color-interpolation-filters="sRGB" id="j"><feGaussianBlur stdDeviation="1.71"/></filter><linearGradient x1="45.448" y1="92.54" x2="45.448" y2="7.017" id="b" gradientUnits="userSpaceOnUse" gradientTransform="matrix(1.00587 0 0 .99417 100 0)"><stop offset="0"/><stop offset="1" stop-opacity=".588"/></linearGradient><linearGradient x1="32.251" y1="6.132" x2="32.251" y2="90.239" id="l" xlink:href="#b" gradientUnits="userSpaceOnUse" gradientTransform="matrix(1.0238 0 0 1.0119 -1.143 -98.071)"/><linearGradient x1="32.251" y1="6.132" x2="32.251" y2="90.239" id="m" xlink:href="#b" gradientUnits="userSpaceOnUse" gradientTransform="matrix(1.0238 0 0 1.0119 -1.143 -98.071)"/><linearGradient x1="32.251" y1="6.132" x2="32.251" y2="90.239" id="n" xlink:href="#b" gradientUnits="userSpaceOnUse" gradientTransform="matrix(1.0238 0 0 1.0119 -1.143 -98.071)"/><linearGradient x1="32.251" y1="6.132" x2="32.251" y2="90.239" id="o" xlink:href="#b" gradientUnits="userSpaceOnUse" gradientTransform="translate(0 -97)"/><linearGradient x1="32.251" y1="6.132" x2="32.251" y2="90.239" id="k" xlink:href="#b" gradientUnits="userSpaceOnUse" gradientTransform="matrix(1.0238 0 0 1.0119 -1.143 -98.071)"/><linearGradient id="d"><stop offset="0" stop-color="#fff"/><stop offset="1" stop-color="#fff" stop-opacity="0"/></linearGradient><radialGradient cx="48" cy="90.172" r="42" fx="48" fy="90.172" id="r" xlink:href="#c" gradientUnits="userSpaceOnUse" gradientTransform="matrix(1.15731 0 0 .9959 -7.551 .197)"/><linearGradient id="c"><stop offset="0" stop-color="#fff"/><stop offset="1" stop-color="#fff" stop-opacity="0"/></linearGradient><linearGradient x1="36.357" y1="6" x2="36.357" y2="63.893" id="q" xlink:href="#d" gradientUnits="userSpaceOnUse"/><clipPath id="A"><path d="M48 102c-19.882 0-36 16.118-36 36s16.118 36 36 36 36-16.118 36-36-16.118-36-36-36zm0 24c6.627 0 12 5.373 12 12s-5.373 12-12 12-12-5.373-12-12 5.373-12 12-12z" fill="#bbb1bf"/></clipPath><filter x="-.18" y="-.18" width="1.36" height="1.36" color-interpolation-filters="sRGB" id="B"><feGaussianBlur stdDeviation="5.216"/></filter><clipPath id="y"><path d="M48 32c-19.882 0-36 16.118-36 36s16.118 36 36 36 36-16.118 36-36-16.118-36-36-36zm0 24c6.627 0 12 5.373 12 12s-5.373 12-12 12-12-5.373-12-12 5.373-12 12-12z" fill="#bbb1bf"/></clipPath><filter x="-.19" y="-.171" width="1.381" height="1.341" color-interpolation-filters="sRGB" id="z"><feGaussianBlur stdDeviation="4.948"/></filter><radialGradient cx="59.894" cy="61.922" r="33.714" fx="59.894" fy="61.922" id="w" xlink:href="#e" gradientUnits="userSpaceOnUse" gradientTransform="matrix(1 0 0 .83754 0 10.06)"/><linearGradient id="e"><stop offset="0" stop-opacity="0"/><stop offset=".85" stop-opacity="0"/><stop offset="1"/></linearGradient><linearGradient x1="26.18" y1="61.922" x2="93.608" y2="61.922" id="x" xlink:href="#f" gradientUnits="userSpaceOnUse"/><linearGradient id="f"><stop offset="0" stop-color="#fff" stop-opacity=".203"/><stop offset="1" stop-color="#fff" stop-opacity=".68"/></linearGradient><linearGradient x1="25.22" y1="61.922" x2="94.568" y2="61.922" id="v" xlink:href="#g" gradientUnits="userSpaceOnUse"/><linearGradient id="g"><stop offset="0" stop-color="#4d4d4d"/><stop offset="1" stop-color="#fff"/></linearGradient><linearGradient id="h"><stop offset="0" stop-color="#fff"/><stop offset="1" stop-color="#fff" stop-opacity="0"/></linearGradient><clipPath id="s"><rect width="84" height="84" rx="6" ry="6" x="6" y="6" fill="#fff"/></clipPath><filter x="-.192" y="-.192" width="1.384" height="1.384" color-interpolation-filters="sRGB" id="u"><feGaussianBlur stdDeviation="5.28"/></filter><linearGradient x1="48" y1="20.221" x2="48" y2="138.661" id="t" xlink:href="#h" gradientUnits="userSpaceOnUse"/></defs><g transform="scale(1 -1)"><path d="M12-95.031c-5.511 0-10.031 4.52-10.031 10.031v71C1.969-8.489 6.489-3.969 12-3.969h72c5.511 0 10.031-4.52 10.031-10.031v-71c0-5.511-4.52-10.031-10.031-10.031H12z" opacity=".08" fill="url(#k)"/><path d="M12-94.031c-4.972 0-9.031 4.06-9.031 9.031v71c0 4.972 4.06 9.031 9.031 9.031h72c4.972 0 9.031-4.06 9.031-9.031v-71c0-4.972-4.06-9.031-9.031-9.031H12z" opacity=".1" fill="url(#l)"/><path d="M12-93c-4.41 0-8 3.59-8 8v71c0 4.41 3.59 8 8 8h72c4.41 0 8-3.59 8-8v-71c0-4.41-3.59-8-8-8H12z" opacity=".2" fill="url(#m)"/><rect width="86" height="85" rx="7" ry="7" x="5" y="-92" opacity=".3" fill="url(#n)"/><rect width="84" height="84" rx="6" ry="6" x="6" y="-91" opacity=".45" fill="url(#o)"/></g><rect width="84" height="84" rx="6" ry="6" x="6" y="6" fill="url(#p)"/><path d="M12 6c-3.324 0-6 2.676-6 6v72c0 .335.041.65.094.969.048.295.097.597.187.875l.032.094c.098.287.234.547.375.812.144.274.315.536.5.781a6.105 6.105 0 0 0 2.094 1.781c.278.14.573.247.874.344a4.843 4.843 0 0 1-.719-.375c-.007-.004-.023.005-.03 0-.033-.02-.063-.042-.095-.062-.12-.077-.23-.164-.343-.25-.106-.081-.214-.161-.313-.25a5.042 5.042 0 0 1-.5-.531 5.092 5.092 0 0 1-.312-.407c-.025-.038-.039-.086-.063-.125-.065-.103-.13-.204-.187-.312a5.371 5.371 0 0 1-.282-.625c-.008-.022-.023-.04-.03-.063-.033-.092-.037-.187-.063-.281-.03-.107-.07-.203-.094-.313A5.098 5.098 0 0 1 7 85V13c0-2.782 2.218-5 5-5h72c2.782 0 5 2.218 5 5v72c0 .364-.052.721-.125 1.063a4.896 4.896 0 0 1-.156.593c-.008.022-.024.04-.031.063a5.482 5.482 0 0 1-.22.531c-.04.083-.078.17-.124.25-.055.097-.127.188-.188.281a5.092 5.092 0 0 1-.312.406 5.05 5.05 0 0 1-.469.5l-.031.032a4.818 4.818 0 0 1-.438.344c-.102.073-.204.153-.312.218-.008.005-.024-.004-.031 0a4.843 4.843 0 0 1-.72.375c.302-.097.597-.204.876-.344a6.105 6.105 0 0 0 2.094-1.78c.184-.246.355-.508.5-.782a5.69 5.69 0 0 0 .374-.813l.032-.093c.09-.278.139-.58.187-.875.053-.318.094-.634.094-.969V12c0-3.324-2.676-6-6-6H12z" opacity=".5" fill="url(#q)"/><path d="M12 90c-3.324 0-6-2.676-6-6V12c0-.335.041-.65.094-.969.048-.295.097-.597.187-.875l.032-.094a5.69 5.69 0 0 1 .375-.812c.144-.274.315-.536.5-.781a6.105 6.105 0 0 1 2.094-1.781c.278-.14.573-.247.874-.344-.256.1-.486.236-.719.375-.007.004-.023-.005-.03 0-.033.019-.063.042-.095.062-.12.077-.23.164-.343.25-.106.081-.214.161-.313.25a5.042 5.042 0 0 0-.5.532c-.107.13-.218.265-.312.406-.025.038-.039.086-.063.125-.065.103-.13.204-.187.312a5.371 5.371 0 0 0-.282.625c-.007.022-.023.04-.03.063-.033.092-.037.187-.063.281-.03.107-.07.203-.094.313A5.098 5.098 0 0 0 7 11v72c0 2.782 2.218 5 5 5h72c2.782 0 5-2.218 5-5V11c0-.364-.052-.721-.125-1.063a4.896 4.896 0 0 0-.156-.593c-.008-.022-.024-.04-.031-.063a5.482 5.482 0 0 0-.22-.531c-.04-.083-.078-.17-.124-.25-.055-.097-.127-.188-.188-.281a5.092 5.092 0 0 0-.312-.406 5.05 5.05 0 0 0-.469-.5l-.031-.032a4.818 4.818 0 0 0-.438-.343c-.102-.074-.204-.154-.312-.22-.008-.004-.024.005-.031 0a4.843 4.843 0 0 0-.72-.374c.302.097.597.204.876.343a6.105 6.105 0 0 1 2.094 1.782c.184.245.355.507.5.781.14.265.276.525.374.813l.032.093c.09.278.139.58.187.875.053.318.094.634.094.969v72c0 3.324-2.676 6-6 6H12z" opacity=".4" fill="url(#r)"/><rect width="84" height="84" rx="6" ry="6" x="-94" y="6" fill="#f0f"/><path style="marker:none" color="#000" fill="#fff" stroke="#000" stroke-width=".5" stroke-linecap="round" stroke-dashoffset="8.6" overflow="visible" enable-background="accumulate" d="M112 8h16v16h-16z"/><text x="131.393" y="11.969" style="text-align:start;line-height:125%;-inkscape-font-specification:Liberation Sans" font-size="4" font-weight="400" font-family="Liberation Sans"><tspan x="131.393" y="11.969">Width: 2px</tspan><tspan x="131.393" y="16.969">Blur: 12</tspan><tspan x="131.393" y="21.969">Opacity: 60</tspan></text><g><rect width="66" height="66" rx="12" ry="12" x="15" y="15" clip-path="url(#s)" opacity=".5" fill="url(#t)" stroke="#fff" stroke-width=".5" stroke-linecap="round" filter="url(#u)"/></g><g><path d="M48 31c-9.926 0-18 8.074-18 18s8.074 18 18 18 18-8.074 18-18-8.074-18-18-18zm0 10c4.436 0 8 3.564 8 8s-3.564 8-8 8-8-3.564-8-8 3.564-8 8-8z" style="marker:none" opacity=".05" color="#000" overflow="visible" enable-background="accumulate"/><path d="M48 33c-8.837 0-16 7.163-16 16s7.163 16 16 16 16-7.163 16-16-7.163-16-16-16zm0 6c5.523 0 10 4.477 10 10s-4.477 10-10 10-10-4.477-10-10 4.477-10 10-10z" style="marker:none" opacity=".3" color="#000" overflow="visible" enable-background="accumulate"/><path d="M48 31.969c-9.398 0-17.031 7.633-17.031 17.031S38.602 66.031 48 66.031 65.031 58.398 65.031 49 57.398 31.969 48 31.969zm0 8.062A8.958 8.958 0 0 1 56.969 49 8.958 8.958 0 0 1 48 57.969 8.958 8.958 0 0 1 39.031 49 8.958 8.958 0 0 1 48 40.031z" style="marker:none" opacity=".1" color="#000" overflow="visible" enable-background="accumulate"/><path d="M48 18.085c-16.522 0-29.915 13.393-29.915 29.915S31.478 77.915 48 77.915 77.915 64.522 77.915 48 64.522 18.085 48 18.085zm0 19.943c5.507 0 9.972 4.465 9.972 9.972S53.507 57.972 48 57.972 38.028 53.507 38.028 48s4.465-9.972 9.972-9.972z" fill="#bbb1bf"/><path d="M48 38.028c-5.507 0-9.972 4.465-9.972 9.972s4.465 9.972 9.972 9.972 9.972-4.465 9.972-9.972-4.465-9.972-9.972-9.972zm0 5.817a4.155 4.155 0 1 1 0 8.31 4.155 4.155 0 0 1 0-8.31z" opacity=".3" fill="#fff"/><path d="M92.58 61.922a32.686 27.208 0 1 1-65.372 0 32.686 27.208 0 1 1 65.372 0z" transform="matrix(0 .13983 -.16798 0 58.402 39.625)" opacity=".6" fill="none" stroke="url(#v)" stroke-width="6.525" stroke-linecap="round"/><path d="M92.58 61.922a32.686 27.208 0 1 1-65.372 0 32.686 27.208 0 1 1 65.372 0z" transform="matrix(0 .24152 -.29014 0 65.966 33.534)" opacity=".5" fill="url(#w)" fill-rule="evenodd" stroke="url(#x)" stroke-width="3.778" stroke-linecap="round"/><path d="M57.313 33.219L48 68l31.188-18a36.043 36.043 0 0 0-21.876-16.781zM48 68L16.812 86a36.043 36.043 0 0 0 21.875 16.781L48 68z" transform="matrix(.83099 0 0 .83099 8.113 -8.507)" clip-path="url(#y)" opacity=".8" fill="#fff" filter="url(#z)"/><g transform="matrix(.83099 0 0 .83099 8.113 -66.676)" clip-path="url(#A)" opacity=".6" filter="url(#B)"><path d="M64.035 170.231a36 36-52.036 0 1-6.718 2.542L48 138z" fill="#7137c8"/><path d="M71.437 165.326a36 36-58.486 0 1-7.406 4.908L48 138z" fill="#0cf"/><path d="M81.09 152.177a36 36-72.288 0 1-3.928 6.931L48 138z" fill="#fc0"/><path d="M82.773 147.317a36 36-.768 0 1-1.728 4.966L48 138z" fill="red"/><path d="M77.417 158.753a36 36-58.486 0 1-6.041 6.625L48 138z" fill="#0f0"/><path d="M31.965 105.769a36 36 37.964 0 1 6.718-2.542L48 138z" fill="#7137c8"/><path d="M24.563 110.674a36 36 31.514 0 1 7.406-4.908L48 138z" fill="#0cf"/><path d="M14.91 123.823a36 36 17.712 0 1 3.928-6.931L48 138z" fill="#fc0"/><path d="M13.227 128.683a36 36-.768 0 1 1.728-4.966L48 138z" fill="red"/><path d="M18.583 117.248a36 36 31.514 0 1 6.041-6.626L48 138z" fill="#0f0"/></g><path d="M48 35.95c-6.655 0-12.05 5.395-12.05 12.05 0 6.655 5.395 12.05 12.05 12.05 6.655 0 12.05-5.395 12.05-12.05 0-6.655-5.395-12.05-12.05-12.05zm0 2.078c5.507 0 9.972 4.465 9.972 9.972S53.507 57.972 48 57.972 38.028 53.507 38.028 48s4.465-9.972 9.972-9.972z" opacity=".2"/><path d="M-52 18.085c-16.522 0-29.915 13.393-29.915 29.915 0 .28.018.553.025.831.444-16.135 13.648-29.085 29.89-29.085s29.446 12.95 29.89 29.085c.007-.278.025-.55.025-.831 0-16.522-13.393-29.915-29.915-29.915z" opacity=".4" fill="#fff"/><path d="M18 48.5c-.003.168 0 .331 0 .5 0 16.569 13.431 30 30 30 16.569 0 30-13.431 30-30 0-.169.003-.332 0-.5C77.73 64.835 64.4 78 48 78S18.27 64.835 18 48.5z" style="marker:none" opacity=".6" color="#000" fill="#fff" overflow="visible" enable-background="accumulate"/><path d="M48 18c-16.569 0-30 13.431-30 30 0 16.569 13.431 30 30 30 16.569 0 30-13.431 30-30 0-16.569-13.431-30-30-30zm0 3c14.912 0 27 12.088 27 27S62.912 75 48 75 21 62.912 21 48s12.088-27 27-27z" style="marker:none" opacity=".05" color="#000" overflow="visible" enable-background="accumulate"/><path d="M48 18c-16.569 0-30 13.431-30 30 0 16.569 13.431 30 30 30 16.569 0 30-13.431 30-30 0-16.569-13.431-30-30-30zm0 2.031c15.47 0 27.969 12.5 27.969 27.969 0 15.47-12.5 27.969-27.969 27.969-15.47 0-27.969-12.5-27.969-27.969 0-15.47 12.5-27.969 27.969-27.969z" style="marker:none" opacity=".1" color="#000" overflow="visible" enable-background="accumulate"/><path d="M48 18c-16.569 0-30 13.431-30 30 0 16.569 13.431 30 30 30 16.569 0 30-13.431 30-30 0-16.569-13.431-30-30-30zm0 1c16.016 0 29 12.984 29 29S64.016 77 48 77 19 64.016 19 48s12.984-29 29-29z" style="marker:none" opacity=".15" color="#000" overflow="visible" enable-background="accumulate"/><path d="M48 18c-16.569 0-30 13.431-30 30 0 .169-.003.332 0 .5C18.27 32.165 31.6 19 48 19s29.73 13.165 30 29.5c.003-.168 0-.331 0-.5 0-16.569-13.431-30-30-30z" style="marker:none" opacity=".2" color="#000" overflow="visible" enable-background="accumulate"/></g></svg>