<svg xmlns="http://www.w3.org/2000/svg" xmlns:xlink="http://www.w3.org/1999/xlink" version="1.0" width="96" height="96"><defs><linearGradient id="j"><stop offset="0" stop-color="#5184cf"/><stop offset="1" stop-color="#123a76"/></linearGradient><linearGradient id="i"><stop offset="0" stop-color="#00ce99"/><stop offset="1" stop-color="#00805f" stop-opacity="0"/></linearGradient><linearGradient id="h"><stop offset="0" stop-color="#80e5ff"/><stop offset=".5" stop-color="#80e5ff" stop-opacity=".403"/><stop offset="1" stop-color="#80e5ff" stop-opacity="0"/></linearGradient><linearGradient id="g"><stop offset="0" stop-color="#5fbcd3"/><stop offset="1" stop-color="#5fbcd3" stop-opacity="0"/></linearGradient><linearGradient id="f"><stop offset="0"/><stop offset="1" stop-opacity="0"/></linearGradient><linearGradient x1="45.448" y1="92.54" x2="45.448" y2="7.017" id="k" gradientUnits="userSpaceOnUse" gradientTransform="scale(1.00587 .99417)"><stop offset="0"/><stop offset="1" stop-opacity=".588"/></linearGradient><linearGradient id="e"><stop offset="0" stop-color="#fff"/><stop offset="1" stop-color="#fff" stop-opacity="0"/></linearGradient><linearGradient id="a"><stop offset="0" stop-color="#e6e6e6"/><stop offset="1" stop-color="#f5f5f5"/></linearGradient><linearGradient x1="48" y1="90" x2="48" y2="5.988" id="r" xlink:href="#a" gradientUnits="userSpaceOnUse"/><filter color-interpolation-filters="sRGB" id="l"><feGaussianBlur stdDeviation="1.71"/></filter><linearGradient x1="45.448" y1="92.54" x2="45.448" y2="7.017" id="b" gradientUnits="userSpaceOnUse" gradientTransform="matrix(1.00587 0 0 .99417 100 0)"><stop offset="0"/><stop offset="1" stop-opacity=".588"/></linearGradient><linearGradient x1="32.251" y1="6.132" x2="32.251" y2="90.239" id="n" xlink:href="#b" gradientUnits="userSpaceOnUse" gradientTransform="matrix(1.0238 0 0 1.0119 -1.143 -98.071)"/><linearGradient x1="32.251" y1="6.132" x2="32.251" y2="90.239" id="o" xlink:href="#b" gradientUnits="userSpaceOnUse" gradientTransform="matrix(1.0238 0 0 1.0119 -1.143 -98.071)"/><linearGradient x1="32.251" y1="6.132" x2="32.251" y2="90.239" id="p" xlink:href="#b" gradientUnits="userSpaceOnUse" gradientTransform="matrix(1.0238 0 0 1.0119 -1.143 -98.071)"/><linearGradient x1="32.251" y1="6.132" x2="32.251" y2="90.239" id="q" xlink:href="#b" gradientUnits="userSpaceOnUse" gradientTransform="translate(0 -97)"/><linearGradient x1="32.251" y1="6.132" x2="32.251" y2="90.239" id="m" xlink:href="#b" gradientUnits="userSpaceOnUse" gradientTransform="matrix(1.0238 0 0 1.0119 -1.143 -98.071)"/><linearGradient id="d"><stop offset="0" stop-color="#fff"/><stop offset="1" stop-color="#fff" stop-opacity="0"/></linearGradient><radialGradient cx="48" cy="90.172" r="42" fx="48" fy="90.172" id="t" xlink:href="#c" gradientUnits="userSpaceOnUse" gradientTransform="matrix(1.15731 0 0 .9959 -7.551 .197)"/><linearGradient id="c"><stop offset="0" stop-color="#fff"/><stop offset="1" stop-color="#fff" stop-opacity="0"/></linearGradient><linearGradient x1="36.357" y1="6" x2="36.357" y2="63.893" id="s" xlink:href="#d" gradientUnits="userSpaceOnUse"/><linearGradient x1="48" y1="56" x2="48" y2="0" id="A" xlink:href="#e" gradientUnits="userSpaceOnUse"/><linearGradient x1="32" y1="72" x2="32" y2="-16" id="B" xlink:href="#f" gradientUnits="userSpaceOnUse"/><radialGradient cx="47.977" cy="64.058" r="24.023" fx="47.977" fy="64.058" id="y" xlink:href="#g" gradientUnits="userSpaceOnUse"/><radialGradient cx="60.563" cy="49.721" r="19.437" fx="60.563" fy="49.721" id="z" xlink:href="#h" gradientUnits="userSpaceOnUse"/><radialGradient cx="60.563" cy="49.721" r="19.437" fx="60.563" fy="49.721" id="x" xlink:href="#h" gradientUnits="userSpaceOnUse"/><clipPath id="u"><path style="marker:none" opacity=".652" color="#000" fill="red" overflow="visible" enable-background="accumulate" d="M12 20h72v56H12z"/></clipPath><radialGradient cx="56" cy="24" r="16" fx="56" fy="24" id="w" xlink:href="#i" gradientUnits="userSpaceOnUse"/><linearGradient x1="48" y1="48" x2="48" y2="72" id="v" xlink:href="#j" gradientUnits="userSpaceOnUse" spreadMethod="reflect"/></defs><g transform="scale(1 -1)"><path d="M12-95.031c-5.511 0-10.031 4.52-10.031 10.031v71C1.969-8.489 6.489-3.969 12-3.969h72c5.511 0 10.031-4.52 10.031-10.031v-71c0-5.511-4.52-10.031-10.031-10.031H12z" opacity=".08" fill="url(#m)"/><path d="M12-94.031c-4.972 0-9.031 4.06-9.031 9.031v71c0 4.972 4.06 9.031 9.031 9.031h72c4.972 0 9.031-4.06 9.031-9.031v-71c0-4.972-4.06-9.031-9.031-9.031H12z" opacity=".1" fill="url(#n)"/><path d="M12-93c-4.41 0-8 3.59-8 8v71c0 4.41 3.59 8 8 8h72c4.41 0 8-3.59 8-8v-71c0-4.41-3.59-8-8-8H12z" opacity=".2" fill="url(#o)"/><rect width="86" height="85" rx="7" ry="7" x="5" y="-92" opacity=".3" fill="url(#p)"/><rect width="84" height="84" rx="6" ry="6" x="6" y="-91" opacity=".45" fill="url(#q)"/></g><rect width="84" height="84" rx="6" ry="6" x="6" y="6" fill="url(#r)"/><path d="M12 6c-3.324 0-6 2.676-6 6v72c0 .335.041.65.094.969.048.295.097.597.187.875l.032.094c.098.287.234.547.375.812.144.274.315.536.5.781a6.105 6.105 0 0 0 2.094 1.781c.278.14.573.247.874.344a4.843 4.843 0 0 1-.719-.375c-.007-.004-.023.005-.03 0-.033-.02-.063-.042-.095-.062-.12-.077-.23-.164-.343-.25-.106-.081-.214-.161-.313-.25a5.042 5.042 0 0 1-.5-.531 5.092 5.092 0 0 1-.312-.407c-.025-.038-.039-.086-.063-.125-.065-.103-.13-.204-.187-.312a5.371 5.371 0 0 1-.282-.625c-.008-.022-.023-.04-.03-.063-.033-.092-.037-.187-.063-.281-.03-.107-.07-.203-.094-.313A5.098 5.098 0 0 1 7 85V13c0-2.782 2.218-5 5-5h72c2.782 0 5 2.218 5 5v72c0 .364-.052.721-.125 1.063a4.896 4.896 0 0 1-.156.593c-.008.022-.024.04-.031.063a5.482 5.482 0 0 1-.22.531c-.04.083-.078.17-.124.25-.055.097-.127.188-.188.281a5.092 5.092 0 0 1-.312.406 5.05 5.05 0 0 1-.469.5l-.031.032a4.818 4.818 0 0 1-.438.344c-.102.073-.204.153-.312.218-.008.005-.024-.004-.031 0a4.843 4.843 0 0 1-.72.375c.302-.097.597-.204.876-.344a6.105 6.105 0 0 0 2.094-1.78c.184-.246.355-.508.5-.782a5.69 5.69 0 0 0 .374-.813l.032-.093c.09-.278.139-.58.187-.875.053-.318.094-.634.094-.969V12c0-3.324-2.676-6-6-6H12z" opacity=".5" fill="url(#s)"/><path d="M12 90c-3.324 0-6-2.676-6-6V12c0-.335.041-.65.094-.969.048-.295.097-.597.187-.875l.032-.094a5.69 5.69 0 0 1 .375-.812c.144-.274.315-.536.5-.781a6.105 6.105 0 0 1 2.094-1.781c.278-.14.573-.247.874-.344-.256.1-.486.236-.719.375-.007.004-.023-.005-.03 0-.033.019-.063.042-.095.062-.12.077-.23.164-.343.25-.106.081-.214.161-.313.25a5.042 5.042 0 0 0-.5.532c-.107.13-.218.265-.312.406-.025.038-.039.086-.063.125-.065.103-.13.204-.187.312a5.371 5.371 0 0 0-.282.625c-.007.022-.023.04-.03.063-.033.092-.037.187-.063.281-.03.107-.07.203-.094.313A5.098 5.098 0 0 0 7 11v72c0 2.782 2.218 5 5 5h72c2.782 0 5-2.218 5-5V11c0-.364-.052-.721-.125-1.063a4.896 4.896 0 0 0-.156-.593c-.008-.022-.024-.04-.031-.063a5.482 5.482 0 0 0-.22-.531c-.04-.083-.078-.17-.124-.25-.055-.097-.127-.188-.188-.281a5.092 5.092 0 0 0-.312-.406 5.05 5.05 0 0 0-.469-.5l-.031-.032a4.818 4.818 0 0 0-.438-.343c-.102-.074-.204-.154-.312-.22-.008-.004-.024.005-.031 0a4.843 4.843 0 0 0-.72-.374c.302.097.597.204.876.343a6.105 6.105 0 0 1 2.094 1.782c.184.245.355.507.5.781.14.265.276.525.374.813l.032.093c.09.278.139.58.187.875.053.318.094.634.094.969v72c0 3.324-2.676 6-6 6H12z" opacity=".4" fill="url(#t)"/><rect width="84" height="84" rx="6" ry="6" x="-94" y="6" fill="#f0f"/><path style="marker:none" color="#000" fill="#fff" stroke="#000" stroke-width=".5" stroke-linecap="round" stroke-dashoffset="8.6" overflow="visible" enable-background="accumulate" d="M112 8h16v16h-16z"/><text x="131.393" y="11.969" style="text-align:start;line-height:125%;-inkscape-font-specification:Liberation Sans" font-size="4" font-weight="400" font-family="Liberation Sans"><tspan x="131.393" y="11.969">Width: 2px</tspan><tspan x="131.393" y="16.969">Blur: 12</tspan><tspan x="131.393" y="21.969">Opacity: 60</tspan></text><g color="#000"><path style="marker:none" opacity=".652" fill="red" overflow="visible" enable-background="accumulate" d="M-88 20h72v56h-72z"/><g clip-path="url(#u)"><path style="marker:none" fill="url(#v)" overflow="visible" enable-background="accumulate" d="M12 20h72v56H12z"/><path d="M72 24a16 16 0 1 1-32 0 16 16 0 1 1 32 0z" transform="matrix(2.75 0 0 2.75 -126 -40)" style="marker:none" opacity=".5" fill="url(#w)" overflow="visible" enable-background="accumulate"/><path d="M80 49.72a19.437 19.437 0 1 1-38.874 0 19.437 19.437 0 1 1 38.874 0z" transform="matrix(.92606 0 0 .92606 20.478 -.044)" style="marker:none" opacity=".697" fill="url(#x)" overflow="visible" enable-background="accumulate"/><path d="M72 64.058a24.023 24.023 0 1 1-48.045 0 24.023 24.023 0 1 1 48.045 0z" transform="translate(-24 -16.058)" style="marker:none" fill="url(#y)" overflow="visible" enable-background="accumulate"/><path d="M80 49.72a19.437 19.437 0 1 1-38.874 0 19.437 19.437 0 1 1 38.874 0z" transform="translate(-12.563 -5.158)" style="marker:none" opacity=".434" fill="url(#z)" overflow="visible" enable-background="accumulate"/></g></g><g color="#000" fill="#fff"><path style="marker:none" opacity=".3" overflow="visible" enable-background="accumulate" d="M15 20h1v56h-1zM19 20h1v56h-1zM27 20h1v56h-1zM23 20h1v56h-1zM31 20h1v56h-1zM35 20h1v56h-1zM39 20h1v56h-1zM43 20h1v56h-1zM47 20h1v56h-1zM51 20h1v56h-1zM55 20h1v56h-1zM59 20h1v56h-1zM63 20h1v56h-1zM67 20h1v56h-1zM71 20h1v56h-1zM75 20h1v56h-1zM79 20h1v56h-1z"/><path style="marker:none" opacity=".3" overflow="visible" enable-background="accumulate" d="M84 72v1H12v-1zM84 68v1H12v-1zM84 64v1H12v-1zM84 60v1H12v-1zM84 56v1H12v-1zM84 52v1H12v-1zM84 48v1H12v-1zM84 44v1H12v-1zM84 40v1H12v-1zM84 36v1H12v-1zM84 32v1H12v-1zM84 28v1H12v-1zM84 24v1H12v-1z"/></g><g color="#000"><path style="marker:none" fill="#194280" overflow="visible" enable-background="accumulate" d="M20 73h3v3h-3z"/><path style="marker:none" fill="#19447f" overflow="visible" enable-background="accumulate" d="M20 69h3v3h-3z"/><path style="marker:none" fill="#2d6499" overflow="visible" enable-background="accumulate" d="M20 65h3v3h-3z"/><path style="marker:none" fill="#3c7fab" overflow="visible" enable-background="accumulate" d="M20 61h3v3h-3z"/><path style="marker:none" fill="#4996bc" overflow="visible" enable-background="accumulate" d="M20 57h3v3h-3z"/><path style="marker:none" fill="#53a7c7" overflow="visible" enable-background="accumulate" d="M20 53h3v3h-3z"/><path style="marker:none" fill="#66bad3" overflow="visible" enable-background="accumulate" d="M20 49h3v3h-3z"/><path style="marker:none" fill="#76c3d8" overflow="visible" enable-background="accumulate" d="M20 45h3v3h-3z"/><path style="marker:none" fill="#6ab9d0" overflow="visible" enable-background="accumulate" d="M20 41h3v3h-3z"/><path style="marker:none" fill="#48a5bf" overflow="visible" enable-background="accumulate" d="M20 37h3v3h-3z"/><path style="marker:none" fill="#3a9ab1" overflow="visible" enable-background="accumulate" d="M20 33h3v3h-3z"/><path style="marker:none" fill="#298ea2" overflow="visible" enable-background="accumulate" d="M20 29h3v3h-3z"/><path style="marker:none" fill="#17808f" overflow="visible" enable-background="accumulate" d="M20 25h3v3h-3z"/><path style="marker:none" fill="#0d7583" overflow="visible" enable-background="accumulate" d="M20 20h3v4h-3z"/><path style="marker:none" fill="#194280" overflow="visible" enable-background="accumulate" d="M12 73h3v3h-3z"/><path style="marker:none" fill="#153d7a" overflow="visible" enable-background="accumulate" d="M12 69h3v3h-3z"/><path style="marker:none" fill="#275691" overflow="visible" enable-background="accumulate" d="M12 65h3v3h-3z"/><path style="marker:none" fill="#3673a5" overflow="visible" enable-background="accumulate" d="M12 61h3v3h-3z"/><path style="marker:none" fill="#4287b4" overflow="visible" enable-background="accumulate" d="M12 57h3v3h-3z"/><path style="marker:none" fill="#4b98bf" overflow="visible" enable-background="accumulate" d="M12 53h3v3h-3z"/><path style="marker:none" fill="#50a3c7" overflow="visible" enable-background="accumulate" d="M12 49h3v3h-3z"/><path style="marker:none" fill="#50a5c7" overflow="visible" enable-background="accumulate" d="M12 45h3v3h-3z"/><path style="marker:none" fill="#49a0c0" overflow="visible" enable-background="accumulate" d="M12 41h3v3h-3z"/><path style="marker:none" fill="#4097b6" overflow="visible" enable-background="accumulate" d="M12 37h3v3h-3z"/><path style="marker:none" fill="#338aa8" overflow="visible" enable-background="accumulate" d="M12 33h3v3h-3z"/><path style="marker:none" fill="#237b97" overflow="visible" enable-background="accumulate" d="M12 29h3v3h-3z"/><path style="marker:none" fill="#136b84" overflow="visible" enable-background="accumulate" d="M12 25h3v3h-3z"/><path style="marker:none" fill="#0e657e" overflow="visible" enable-background="accumulate" d="M12 20h3v4h-3z"/><path style="marker:none" fill="#19427f" overflow="visible" enable-background="accumulate" d="M16 73h3v3h-3z"/><path style="marker:none" fill="#16407d" overflow="visible" enable-background="accumulate" d="M16 69h3v3h-3z"/><path style="marker:none" fill="#2a5f95" overflow="visible" enable-background="accumulate" d="M16 65h3v3h-3z"/><path style="marker:none" fill="#397aa9" overflow="visible" enable-background="accumulate" d="M16 61h3v3h-3z"/><path style="marker:none" fill="#4690b9" overflow="visible" enable-background="accumulate" d="M16 57h3v3h-3z"/><path style="marker:none" fill="#4fa0c3" overflow="visible" enable-background="accumulate" d="M16 53h3v3h-3z"/><path style="marker:none" fill="#9bcee0" overflow="visible" enable-background="accumulate" d="M16 49h3v3h-3z"/><path style="marker:none" fill="#56aecc" overflow="visible" enable-background="accumulate" d="M16 45h3v3h-3z"/><path style="marker:none" fill="#c2e1eb" overflow="visible" enable-background="accumulate" d="M16 41h3v3h-3z"/><path style="marker:none" fill="#459fbb" overflow="visible" enable-background="accumulate" d="M16 37h3v3h-3z"/><path style="marker:none" fill="#3794ae" overflow="visible" enable-background="accumulate" d="M16 33h3v3h-3z"/><path style="marker:none" fill="#28879d" overflow="visible" enable-background="accumulate" d="M16 29h3v3h-3z"/><path style="marker:none" fill="#15778a" overflow="visible" enable-background="accumulate" d="M16 25h3v3h-3z"/><path style="marker:none" fill="#0d6d81" overflow="visible" enable-background="accumulate" d="M16 20h3v4h-3z"/><path style="marker:none" fill="#194280" overflow="visible" enable-background="accumulate" d="M24 73h3v3h-3z"/><path style="marker:none" fill="#19447f" overflow="visible" enable-background="accumulate" d="M24 69h3v3h-3z"/><path style="marker:none" fill="#2e679a" overflow="visible" enable-background="accumulate" d="M24 65h3v3h-3z"/><path style="marker:none" fill="#3d80ad" overflow="visible" enable-background="accumulate" d="M24 61h3v3h-3z"/><path style="marker:none" fill="#4997bc" overflow="visible" enable-background="accumulate" d="M24 57h3v3h-3z"/><path style="marker:none" fill="#53a9c8" overflow="visible" enable-background="accumulate" d="M24 53h3v3h-3z"/><path style="marker:none" fill="#5eb6d0" overflow="visible" enable-background="accumulate" d="M24 49h3v3h-3z"/><path style="marker:none" fill="#aedce8" overflow="visible" enable-background="accumulate" d="M24 45h3v3h-3z"/><path style="marker:none" fill="#54b0ca" overflow="visible" enable-background="accumulate" d="M24 41h3v3h-3z"/><path style="marker:none" fill="#48a6bf" overflow="visible" enable-background="accumulate" d="M24 37h3v3h-3z"/><path style="marker:none" fill="#399bb1" overflow="visible" enable-background="accumulate" d="M24 33h3v3h-3z"/><path style="marker:none" fill="#2992a2" overflow="visible" enable-background="accumulate" d="M24 29h3v3h-3z"/><path style="marker:none" fill="#188a93" overflow="visible" enable-background="accumulate" d="M24 25h3v3h-3z"/><path style="marker:none" fill="#0c7c86" overflow="visible" enable-background="accumulate" d="M24 20h3v4h-3z"/><path style="marker:none" fill="#194380" overflow="visible" enable-background="accumulate" d="M28 73h3v3h-3z"/><path style="marker:none" fill="#17417d" overflow="visible" enable-background="accumulate" d="M28 69h3v3h-3z"/><path style="marker:none" fill="#2b6196" overflow="visible" enable-background="accumulate" d="M28 65h3v3h-3z"/><path style="marker:none" fill="#3a7ba9" overflow="visible" enable-background="accumulate" d="M28 61h3v3h-3z"/><path style="marker:none" fill="#4692b9" overflow="visible" enable-background="accumulate" d="M28 57h3v3h-3z"/><path style="marker:none" fill="#50a3c4" overflow="visible" enable-background="accumulate" d="M28 53h3v3h-3z"/><path style="marker:none" fill="#55aecb" overflow="visible" enable-background="accumulate" d="M28 49h3v3h-3z"/><path style="marker:none" fill="#57b1cd" overflow="visible" enable-background="accumulate" d="M28 45h3v3h-3z"/><path style="marker:none" fill="#86c5d8" overflow="visible" enable-background="accumulate" d="M28 41h3v3h-3z"/><path style="marker:none" fill="#4da6bf" overflow="visible" enable-background="accumulate" d="M28 37h3v3h-3z"/><path style="marker:none" fill="#3799af" overflow="visible" enable-background="accumulate" d="M28 33h3v3h-3z"/><path style="marker:none" fill="#2791a2" overflow="visible" enable-background="accumulate" d="M28 29h3v3h-3z"/><path style="marker:none" fill="#148991" overflow="visible" enable-background="accumulate" d="M28 25h3v3h-3z"/><path style="marker:none" fill="#0b7d87" overflow="visible" enable-background="accumulate" d="M28 20h3v4h-3z"/><path style="marker:none" fill="#194280" overflow="visible" enable-background="accumulate" d="M32 73h3v3h-3z"/><path style="marker:none" fill="#153e7a" overflow="visible" enable-background="accumulate" d="M32 69h3v3h-3z"/><path style="marker:none" fill="#275b93" overflow="visible" enable-background="accumulate" d="M32 65h3v3h-3z"/><path style="marker:none" fill="#3776a6" overflow="visible" enable-background="accumulate" d="M32 61h3v3h-3z"/><path style="marker:none" fill="#428bb5" overflow="visible" enable-background="accumulate" d="M32 57h3v3h-3z"/><path style="marker:none" fill="#519ec3" overflow="visible" enable-background="accumulate" d="M32 53h3v3h-3z"/><path style="marker:none" fill="#80bfd9" overflow="visible" enable-background="accumulate" d="M32 49h3v3h-3z"/><path style="marker:none" fill="#54aecc" overflow="visible" enable-background="accumulate" d="M32 45h3v3h-3z"/><path style="marker:none" fill="#a8d5e3" overflow="visible" enable-background="accumulate" d="M32 41h3v3h-3z"/><path style="marker:none" fill="#43a0bb" overflow="visible" enable-background="accumulate" d="M32 37h3v3h-3z"/><path style="marker:none" fill="#3496ac" overflow="visible" enable-background="accumulate" d="M32 33h3v3h-3z"/><path style="marker:none" fill="#21899b" overflow="visible" enable-background="accumulate" d="M32 29h3v3h-3z"/><path style="marker:none" fill="#107c8a" overflow="visible" enable-background="accumulate" d="M32 25h3v3h-3z"/><path style="marker:none" fill="#0d7684" overflow="visible" enable-background="accumulate" d="M32 20h3v4h-3z"/><path style="marker:none" fill="#194280" overflow="visible" enable-background="accumulate" d="M36 73h3v3h-3z"/><path style="marker:none" fill="#153e7b" overflow="visible" enable-background="accumulate" d="M36 69h3v3h-3z"/><path style="marker:none" fill="#214f8b" overflow="visible" enable-background="accumulate" d="M36 65h3v3h-3z"/><path style="marker:none" fill="#306a9f" overflow="visible" enable-background="accumulate" d="M36 61h3v3h-3z"/><path style="marker:none" fill="#3f83b2" overflow="visible" enable-background="accumulate" d="M36 57h3v3h-3z"/><path style="marker:none" fill="#4997c0" overflow="visible" enable-background="accumulate" d="M36 53h3v3h-3z"/><path style="marker:none" fill="#56a8cc" overflow="visible" enable-background="accumulate" d="M36 49h3v3h-3z"/><path style="marker:none" fill="#53aacd" overflow="visible" enable-background="accumulate" d="M36 45h3v3h-3z"/><path style="marker:none" fill="#4ca5c6" overflow="visible" enable-background="accumulate" d="M36 41h3v3h-3z"/><path style="marker:none" fill="#429dbb" overflow="visible" enable-background="accumulate" d="M36 37h3v3h-3z"/><path style="marker:none" fill="#3390ab" overflow="visible" enable-background="accumulate" d="M36 33h3v3h-3z"/><path style="marker:none" fill="#218299" overflow="visible" enable-background="accumulate" d="M36 29h3v3h-3z"/><path style="marker:none" fill="#0f7285" overflow="visible" enable-background="accumulate" d="M36 25h3v3h-3z"/><path style="marker:none" overflow="visible" enable-background="accumulate" fill="none" d="M36 20h3v4h-3z"/><path style="marker:none" fill="#1a4381" overflow="visible" enable-background="accumulate" d="M40 73h3v3h-3z"/><path style="marker:none" fill="#163f7c" overflow="visible" enable-background="accumulate" d="M40 69h3v3h-3z"/><path style="marker:none" fill="#204c8a" overflow="visible" enable-background="accumulate" d="M40 65h3v3h-3z"/><path style="marker:none" fill="#2d609a" overflow="visible" enable-background="accumulate" d="M40 61h3v3h-3z"/><path style="marker:none" fill="#3d7caf" overflow="visible" enable-background="accumulate" d="M40 57h3v3h-3z"/><path style="marker:none" fill="#4991be" overflow="visible" enable-background="accumulate" d="M40 53h3v3h-3z"/><path style="marker:none" fill="#5ea7ce" overflow="visible" enable-background="accumulate" d="M40 49h3v3h-3z"/><path style="marker:none" fill="#abd5e7" overflow="visible" enable-background="accumulate" d="M40 45h3v3h-3z"/><path style="marker:none" fill="#84c1d9" overflow="visible" enable-background="accumulate" d="M40 41h3v3h-3z"/><path style="marker:none" fill="#429aba" overflow="visible" enable-background="accumulate" d="M40 37h3v3h-3z"/><path style="marker:none" fill="#328aa8" overflow="visible" enable-background="accumulate" d="M40 33h3v3h-3z"/><path style="marker:none" fill="#207a95" overflow="visible" enable-background="accumulate" d="M40 29h3v3h-3z"/><path style="marker:none" fill="#126b84" overflow="visible" enable-background="accumulate" d="M40 25h3v3h-3z"/><path style="marker:none" fill="none" overflow="visible" enable-background="accumulate" d="M40 20h3v4h-3z"/><path style="marker:none" fill="#0d6e81" overflow="visible" enable-background="accumulate" d="M36 20h3v4h-3z"/><path style="marker:none" fill="#0f677f" overflow="visible" enable-background="accumulate" d="M40 20h3v4h-3z"/><path style="marker:none" fill="#194280" overflow="visible" enable-background="accumulate" d="M44 73h3v3h-3z"/><path style="marker:none" fill="#153e7b" overflow="visible" enable-background="accumulate" d="M44 69h3v3h-3z"/><path style="marker:none" fill="#204b8a" overflow="visible" enable-background="accumulate" d="M44 65h3v3h-3z"/><path style="marker:none" fill="#2a5b98" overflow="visible" enable-background="accumulate" d="M44 61h3v3h-3z"/><path style="marker:none" fill="#3770a9" overflow="visible" enable-background="accumulate" d="M44 57h3v3h-3z"/><path style="marker:none" fill="#468bbd" overflow="visible" enable-background="accumulate" d="M44 53h3v3h-3z"/><path style="marker:none" fill="#51a0cd" overflow="visible" enable-background="accumulate" d="M44 49h3v3h-3z"/><path style="marker:none" fill="#58abd4" overflow="visible" enable-background="accumulate" d="M44 45h3v3h-3z"/><path style="marker:none" fill="#51a6cb" overflow="visible" enable-background="accumulate" d="M44 41h3v3h-3z"/><path style="marker:none" fill="#4395ba" overflow="visible" enable-background="accumulate" d="M44 37h3v3h-3z"/><path style="marker:none" fill="#3184a7" overflow="visible" enable-background="accumulate" d="M44 33h3v3h-3z"/><path style="marker:none" fill="#247696" overflow="visible" enable-background="accumulate" d="M44 29h3v3h-3z"/><path style="marker:none" fill="#156684" overflow="visible" enable-background="accumulate" d="M44 25h3v3h-3z"/><path style="marker:none" fill="none" overflow="visible" enable-background="accumulate" d="M44 20h3v4h-3z"/><path style="marker:none" fill="#0f5f7d" overflow="visible" enable-background="accumulate" d="M44 20h3v4h-3z"/><path style="marker:none" fill="#194280" overflow="visible" enable-background="accumulate" d="M48 73h3v3h-3z"/><path style="marker:none" fill="#153e7b" overflow="visible" enable-background="accumulate" d="M48 69h3v3h-3z"/><path style="marker:none" fill="#204b8a" overflow="visible" enable-background="accumulate" d="M48 65h3v3h-3z"/><path style="marker:none" fill="#2c5c9a" overflow="visible" enable-background="accumulate" d="M48 61h3v3h-3z"/><path style="marker:none" fill="#3971ac" overflow="visible" enable-background="accumulate" d="M48 57h3v3h-3z"/><path style="marker:none" fill="#a4c3de" overflow="visible" enable-background="accumulate" d="M48 53h3v3h-3z"/><path style="marker:none" fill="#529acc" overflow="visible" enable-background="accumulate" d="M48 49h3v3h-3z"/><path style="marker:none" fill="#67afd8" overflow="visible" enable-background="accumulate" d="M48 45h3v3h-3z"/><path style="marker:none" fill="#71b3d5" overflow="visible" enable-background="accumulate" d="M48 41h3v3h-3z"/><path style="marker:none" fill="#4492bb" overflow="visible" enable-background="accumulate" d="M48 37h3v3h-3z"/><path style="marker:none" fill="#3280a7" overflow="visible" enable-background="accumulate" d="M48 33h3v3h-3z"/><path style="marker:none" fill="#247094" overflow="visible" enable-background="accumulate" d="M48 29h3v3h-3z"/><path style="marker:none" fill="#166082" overflow="visible" enable-background="accumulate" d="M48 25h3v3h-3z"/><path style="marker:none" fill="none" overflow="visible" enable-background="accumulate" d="M48 20h3v4h-3z"/><path style="marker:none" fill="#10587a" overflow="visible" enable-background="accumulate" d="M48 20h3v4h-3z"/><path style="marker:none" fill="#194380" overflow="visible" enable-background="accumulate" d="M52 73h3v3h-3z"/><path style="marker:none" fill="#153e7b" overflow="visible" enable-background="accumulate" d="M52 69h3v3h-3z"/><path style="marker:none" fill="#204a89" overflow="visible" enable-background="accumulate" d="M52 65h3v3h-3z"/><path style="marker:none" fill="#2b589a" overflow="visible" enable-background="accumulate" d="M52 61h3v3h-3z"/><path style="marker:none" fill="#3a6eac" overflow="visible" enable-background="accumulate" d="M52 57h3v3h-3z"/><path style="marker:none" fill="#4581bc" overflow="visible" enable-background="accumulate" d="M52 53h3v3h-3z"/><path style="marker:none" fill="#73a9d6" overflow="visible" enable-background="accumulate" d="M52 49h3v3h-3z"/><path style="marker:none" fill="#549dd0" overflow="visible" enable-background="accumulate" d="M52 45h3v3h-3z"/><path style="marker:none" fill="#4f98c8" overflow="visible" enable-background="accumulate" d="M52 41h3v3h-3z"/><path style="marker:none" fill="#418ab7" overflow="visible" enable-background="accumulate" d="M52 37h3v3h-3z"/><path style="marker:none" fill="#327aa5" overflow="visible" enable-background="accumulate" d="M52 33h3v3h-3z"/><path style="marker:none" fill="#256a93" overflow="visible" enable-background="accumulate" d="M52 29h3v3h-3z"/><path style="marker:none" fill="#155880" overflow="visible" enable-background="accumulate" d="M52 25h3v3h-3z"/><path style="marker:none" fill="none" overflow="visible" enable-background="accumulate" d="M52 20h3v4h-3z"/><path style="marker:none" fill="#115279" overflow="visible" enable-background="accumulate" d="M52 20h3v4h-3z"/><path style="marker:none" fill="#1a4381" overflow="visible" enable-background="accumulate" d="M56 73h3v3h-3z"/><path style="marker:none" fill="#153e7b" overflow="visible" enable-background="accumulate" d="M56 69h3v3h-3z"/><path style="marker:none" fill="#204a89" overflow="visible" enable-background="accumulate" d="M56 65h3v3h-3z"/><path style="marker:none" fill="#2a5799" overflow="visible" enable-background="accumulate" d="M56 61h3v3h-3z"/><path style="marker:none" fill="#3869ab" overflow="visible" enable-background="accumulate" d="M56 57h3v3h-3z"/><path style="marker:none" fill="#447cbb" overflow="visible" enable-background="accumulate" d="M56 53h3v3h-3z"/><path style="marker:none" fill="#4e8cc8" overflow="visible" enable-background="accumulate" d="M56 49h3v3h-3z"/><path style="marker:none" fill="#5193cc" overflow="visible" enable-background="accumulate" d="M56 45h3v3h-3z"/><path style="marker:none" fill="#4789bf" overflow="visible" enable-background="accumulate" d="M56 41h3v3h-3z"/><path style="marker:none" fill="#8bb2d0" overflow="visible" enable-background="accumulate" d="M56 37h3v3h-3z"/><path style="marker:none" fill="#3071a0" overflow="visible" enable-background="accumulate" d="M56 33h3v3h-3z"/><path style="marker:none" fill="#21608f" overflow="visible" enable-background="accumulate" d="M56 29h3v3h-3z"/><path style="marker:none" fill="#15517e" overflow="visible" enable-background="accumulate" d="M56 25h3v3h-3z"/><path style="marker:none" fill="none" overflow="visible" enable-background="accumulate" d="M56 20h3v4h-3z"/><path style="marker:none" fill="#124d79" overflow="visible" enable-background="accumulate" d="M56 20h3v4h-3z"/><path style="marker:none" fill="#194280" overflow="visible" enable-background="accumulate" d="M60 73h3v3h-3z"/><path style="marker:none" fill="#153e7b" overflow="visible" enable-background="accumulate" d="M60 69h3v3h-3z"/><path style="marker:none" fill="#204b8a" overflow="visible" enable-background="accumulate" d="M60 65h3v3h-3z"/><path style="marker:none" fill="#2a5799" overflow="visible" enable-background="accumulate" d="M60 61h3v3h-3z"/><path style="marker:none" fill="#3563a8" overflow="visible" enable-background="accumulate" d="M60 57h3v3h-3z"/><path style="marker:none" fill="#4477bc" overflow="visible" enable-background="accumulate" d="M60 53h3v3h-3z"/><path style="marker:none" fill="#84aedb" overflow="visible" enable-background="accumulate" d="M60 49h3v3h-3z"/><path style="marker:none" fill="#5394d0" overflow="visible" enable-background="accumulate" d="M60 45h3v3h-3z"/><path style="marker:none" fill="#4a89c2" overflow="visible" enable-background="accumulate" d="M60 41h3v3h-3z"/><path style="marker:none" fill="#5f95c8" overflow="visible" enable-background="accumulate" d="M60 37h3v3h-3z"/><path style="marker:none" fill="#2d679d" overflow="visible" enable-background="accumulate" d="M60 33h3v3h-3z"/><path style="marker:none" fill="#20568b" overflow="visible" enable-background="accumulate" d="M60 29h3v3h-3z"/><path style="marker:none" fill="#164c7e" overflow="visible" enable-background="accumulate" d="M60 25h3v3h-3z"/><path style="marker:none" fill="none" overflow="visible" enable-background="accumulate" d="M60 20h3v4h-3z"/><path style="marker:none" fill="#134779" overflow="visible" enable-background="accumulate" d="M60 20h3v4h-3z"/><path style="marker:none" fill="#194280" overflow="visible" enable-background="accumulate" d="M64 73h3v3h-3z"/><path style="marker:none" fill="#163e7b" overflow="visible" enable-background="accumulate" d="M64 69h3v3h-3z"/><path style="marker:none" fill="#204a8a" overflow="visible" enable-background="accumulate" d="M64 65h3v3h-3z"/><path style="marker:none" fill="#2b5799" overflow="visible" enable-background="accumulate" d="M64 61h3v3h-3z"/><path style="marker:none" fill="#3868ab" overflow="visible" enable-background="accumulate" d="M64 57h3v3h-3z"/><path style="marker:none" fill="#487dbf" overflow="visible" enable-background="accumulate" d="M64 53h3v3h-3z"/><path style="marker:none" fill="#5691d0" overflow="visible" enable-background="accumulate" d="M64 49h3v3h-3z"/><path style="marker:none" fill="#5999d7" overflow="visible" enable-background="accumulate" d="M64 45h3v3h-3z"/><path style="marker:none" fill="#5d95cd" overflow="visible" enable-background="accumulate" d="M64 41h3v3h-3z"/><path style="marker:none" overflow="visible" enable-background="accumulate" fill="none" d="M64 37h3v3h-3z"/><path style="marker:none" fill="#3166a1" overflow="visible" enable-background="accumulate" d="M64 33h3v3h-3z"/><path style="marker:none" fill="#21538d" overflow="visible" enable-background="accumulate" d="M64 29h3v3h-3z"/><path style="marker:none" fill="#17487e" overflow="visible" enable-background="accumulate" d="M64 25h3v3h-3z"/><path style="marker:none" fill="none" overflow="visible" enable-background="accumulate" d="M64 20h3v4h-3z"/><path style="marker:none" fill="#13437a" overflow="visible" enable-background="accumulate" d="M64 20h3v4h-3z"/><path style="marker:none" fill="#194380" overflow="visible" enable-background="accumulate" d="M68 73h3v3h-3z"/><path style="marker:none" fill="#163e7b" overflow="visible" enable-background="accumulate" d="M68 69h3v3h-3z"/><path style="marker:none" overflow="visible" enable-background="accumulate" fill="none" d="M68 65h3v3h-3z"/><path style="marker:none" fill="#2a5799" overflow="visible" enable-background="accumulate" d="M68 61h3v3h-3z"/><path style="marker:none" fill="#3e72b1" overflow="visible" enable-background="accumulate" d="M68 57h3v3h-3z"/><path style="marker:none" fill="#4c87c5" overflow="visible" enable-background="accumulate" d="M68 53h3v3h-3z"/><path style="marker:none" fill="#85b6e2" overflow="visible" enable-background="accumulate" d="M68 49h3v3h-3z"/><path style="marker:none" fill="#81b9e5" overflow="visible" enable-background="accumulate" d="M68 45h3v3h-3z"/><path style="marker:none" fill="#5d9dd4" overflow="visible" enable-background="accumulate" d="M68 41h3v3h-3z"/><path style="marker:none" fill="none" overflow="visible" enable-background="accumulate" d="M68 37h3v3h-3z"/><path style="marker:none" fill="#3970aa" overflow="visible" enable-background="accumulate" d="M68 33h3v3h-3z"/><path style="marker:none" fill="#275693" overflow="visible" enable-background="accumulate" d="M68 29h3v3h-3z"/><path style="marker:none" fill="#18437f" overflow="visible" enable-background="accumulate" d="M68 25h3v3h-3z"/><path style="marker:none" fill="none" overflow="visible" enable-background="accumulate" d="M68 20h3v4h-3z"/><path style="marker:none" fill="#14407a" overflow="visible" enable-background="accumulate" d="M68 20h3v4h-3z"/><path style="marker:none" fill="#4b87c1" overflow="visible" enable-background="accumulate" d="M68 37h3v3h-3z"/><path style="marker:none" fill="#19427f" overflow="visible" enable-background="accumulate" d="M72 73h3v3h-3z"/><path style="marker:none" fill="#153e7b" overflow="visible" enable-background="accumulate" d="M72 69h3v3h-3z"/><path style="marker:none" fill="none" overflow="visible" enable-background="accumulate" d="M72 65h3v3h-3z"/><path style="marker:none" fill="#2d5c9c" overflow="visible" enable-background="accumulate" d="M72 61h3v3h-3z"/><path style="marker:none" fill="#4077b4" overflow="visible" enable-background="accumulate" d="M72 57h3v3h-3z"/><path style="marker:none" fill="#518fca" overflow="visible" enable-background="accumulate" d="M72 53h3v3h-3z"/><path style="marker:none" fill="#b1d5ee" overflow="visible" enable-background="accumulate" d="M72 49h3v3h-3z"/><path style="marker:none" fill="#b5ddf4" overflow="visible" enable-background="accumulate" d="M72 45h3v3h-3z"/><path style="marker:none" fill="#61acdd" overflow="visible" enable-background="accumulate" d="M72 41h3v3h-3z"/><path style="marker:none" fill="none" overflow="visible" enable-background="accumulate" d="M72 37h3v3h-3z"/><path style="marker:none" fill="#4078b3" overflow="visible" enable-background="accumulate" d="M72 33h3v3h-3z"/><path style="marker:none" fill="#2a5996" overflow="visible" enable-background="accumulate" d="M72 29h3v3h-3z"/><path style="marker:none" fill="#1a4381" overflow="visible" enable-background="accumulate" d="M72 25h3v3h-3z"/><path style="marker:none" fill="none" overflow="visible" enable-background="accumulate" d="M72 20h3v4h-3z"/><path style="marker:none" fill="#163e7b" overflow="visible" enable-background="accumulate" d="M72 20h3v4h-3z"/><path style="marker:none" fill="#5191c8" overflow="visible" enable-background="accumulate" d="M72 37h3v3h-3z"/><path style="marker:none" fill="#204a89" overflow="visible" enable-background="accumulate" d="M68 65h3v3h-3z"/><path style="marker:none" fill="#427eb8" overflow="visible" enable-background="accumulate" d="M64 37h3v3h-3z"/><path style="marker:none" fill="#204b8a" overflow="visible" enable-background="accumulate" d="M72 65h3v3h-3z"/><path style="marker:none" fill="#194280" overflow="visible" enable-background="accumulate" d="M76 73h3v3h-3z"/><path style="marker:none" fill="#153e7a" overflow="visible" enable-background="accumulate" d="M76 69h3v3h-3z"/><path style="marker:none" fill="none" overflow="visible" enable-background="accumulate" d="M76 65h3v3h-3z"/><path style="marker:none" fill="#2d5b9c" overflow="visible" enable-background="accumulate" d="M76 61h3v3h-3z"/><path style="marker:none" fill="#4178b5" overflow="visible" enable-background="accumulate" d="M76 57h3v3h-3z"/><path style="marker:none" fill="#5190cb" overflow="visible" enable-background="accumulate" d="M76 53h3v3h-3z"/><path style="marker:none" fill="#64ade0" overflow="visible" enable-background="accumulate" d="M76 49h3v3h-3z"/><path style="marker:none" fill="#b7e0f6" overflow="visible" enable-background="accumulate" d="M76 45h3v3h-3z"/><path style="marker:none" fill="#6db6e2" overflow="visible" enable-background="accumulate" d="M76 41h3v3h-3z"/><path style="marker:none" fill="none" overflow="visible" enable-background="accumulate" d="M76 37h3v3h-3z"/><path style="marker:none" fill="#4079b3" overflow="visible" enable-background="accumulate" d="M76 33h3v3h-3z"/><path style="marker:none" fill="#2c5c99" overflow="visible" enable-background="accumulate" d="M76 29h3v3h-3z"/><path style="marker:none" fill="#194280" overflow="visible" enable-background="accumulate" d="M76 25h3v3h-3z"/><path style="marker:none" fill="none" overflow="visible" enable-background="accumulate" d="M76 20h3v4h-3z"/><path style="marker:none" fill="#163e7b" overflow="visible" enable-background="accumulate" d="M76 20h3v4h-3z"/><path style="marker:none" fill="#76aad5" overflow="visible" enable-background="accumulate" d="M76 37h3v3h-3z"/><path style="marker:none" fill="#204b8a" overflow="visible" enable-background="accumulate" d="M76 65h3v3h-3z"/><path style="marker:none" fill="#194280" overflow="visible" enable-background="accumulate" d="M80 73h4v3h-4z"/><path style="marker:none" fill="#153e7b" overflow="visible" enable-background="accumulate" d="M80 69h4v3h-4z"/><path style="marker:none" fill="none" overflow="visible" enable-background="accumulate" d="M80 65h4v3h-4z"/><path style="marker:none" fill="#2c5899" overflow="visible" enable-background="accumulate" d="M80 61h4v3h-4z"/><path style="marker:none" fill="#3f74b3" overflow="visible" enable-background="accumulate" d="M80 57h4v3h-4z"/><path style="marker:none" fill="#4f8bc8" overflow="visible" enable-background="accumulate" d="M80 53h4v3h-4z"/><path style="marker:none" fill="#5da2da" overflow="visible" enable-background="accumulate" d="M80 49h4v3h-4z"/><path style="marker:none" fill="#65afe3" overflow="visible" enable-background="accumulate" d="M80 45h4v3h-4z"/><path style="marker:none" fill="#5da3d8" overflow="visible" enable-background="accumulate" d="M80 41h4v3h-4z"/><path style="marker:none" fill="none" overflow="visible" enable-background="accumulate" d="M80 37h4v3h-4z"/><path style="marker:none" fill="#3e75b0" overflow="visible" enable-background="accumulate" d="M80 33h4v3h-4z"/><path style="marker:none" fill="#2a5996" overflow="visible" enable-background="accumulate" d="M80 29h4v3h-4z"/><path style="marker:none" fill="#194280" overflow="visible" enable-background="accumulate" d="M80 25h4v3h-4z"/><path style="marker:none" fill="none" overflow="visible" enable-background="accumulate" d="M80 20h4v4h-4z"/><path style="marker:none" fill="#163f7b" overflow="visible" enable-background="accumulate" d="M80 20h4v4h-4z"/><path style="marker:none" fill="#4e8bc5" overflow="visible" enable-background="accumulate" d="M80 37h4v3h-4z"/><path style="marker:none" fill="#214b8b" overflow="visible" enable-background="accumulate" d="M80 65h4v3h-4z"/></g><g color="#000" fill="#fff"><path style="marker:none" overflow="visible" enable-background="accumulate" d="M72 69h3v3h-3zM76 65h3v3h-3zM76 61h3v3h-3zM72 57h3v3h-3zM64 61h3v3h-3zM64 65h3v3h-3zM56 69h3v3h-3zM52 69h3v3h-3zM48 65h3v3h-3zM48 61h3v3h-3zM52 57h3v3h-3zM56 57h3v3h-3zM40 57h3v3h-3zM40 61h3v3h-3zM40 65h3v3h-3zM40 69h3v3h-3z"/><path style="marker:none" overflow="visible" enable-background="accumulate" d="M40 69h3v3h-3zM68 69h3v3h-3zM68 57h3v3h-3z"/></g><g><path d="M12 6c-3.324 0-6 2.676-6 6v53.375C21.66 54.325 48.933 47 80 47c3.382 0 6.717.112 10 .281V12c0-3.324-2.676-6-6-6H12z" opacity=".3" fill="url(#A)"/><path d="M12 20v56h72V20H12zm1 1h70v54H13V21z" style="marker:none" opacity=".31" color="#000" fill="url(#B)" overflow="visible" enable-background="accumulate"/><path style="marker:none" opacity=".5" color="#000" fill="#fff" overflow="visible" enable-background="accumulate" d="M12 76h72v1H12z"/></g></svg>