<svg xmlns="http://www.w3.org/2000/svg" xmlns:xlink="http://www.w3.org/1999/xlink" version="1.0" width="96" height="96"><defs><linearGradient id="i"><stop offset="0" stop-color="#e41111"/><stop offset="1" stop-color="#b61c1c" stop-opacity="0"/></linearGradient><linearGradient id="j"><stop offset="0" stop-color="#f3931a"/><stop offset="1" stop-color="#a3351b"/></linearGradient><linearGradient id="g"><stop offset="0" stop-color="#f17c14"/><stop offset="1" stop-color="#e6b31f" stop-opacity="0"/></linearGradient><linearGradient id="h"><stop offset="0" stop-color="#fff"/><stop offset="1" stop-color="#fff" stop-opacity="0"/></linearGradient><linearGradient id="f"><stop offset="0" stop-color="#eac456"/><stop offset="1" stop-color="#e9b92b" stop-opacity="0"/></linearGradient><linearGradient x1="45.448" y1="92.54" x2="45.448" y2="7.017" id="l" gradientUnits="userSpaceOnUse" gradientTransform="scale(1.00587 .99417)"><stop offset="0"/><stop offset="1" stop-opacity=".588"/></linearGradient><linearGradient id="e"><stop offset="0" stop-color="#fff"/><stop offset="1" stop-color="#fff" stop-opacity="0"/></linearGradient><linearGradient id="a"><stop offset="0" stop-color="#e6e6e6"/><stop offset="1" stop-color="#f5f5f5"/></linearGradient><linearGradient x1="48" y1="90" x2="48" y2="5.988" id="s" xlink:href="#a" gradientUnits="userSpaceOnUse"/><filter color-interpolation-filters="sRGB" id="m"><feGaussianBlur stdDeviation="1.71"/></filter><linearGradient x1="45.448" y1="92.54" x2="45.448" y2="7.017" id="b" gradientUnits="userSpaceOnUse" gradientTransform="matrix(1.00587 0 0 .99417 100 0)"><stop offset="0"/><stop offset="1" stop-opacity=".588"/></linearGradient><linearGradient x1="32.251" y1="6.132" x2="32.251" y2="90.239" id="o" xlink:href="#b" gradientUnits="userSpaceOnUse" gradientTransform="matrix(1.0238 0 0 1.0119 -1.143 -98.071)"/><linearGradient x1="32.251" y1="6.132" x2="32.251" y2="90.239" id="p" xlink:href="#b" gradientUnits="userSpaceOnUse" gradientTransform="matrix(1.0238 0 0 1.0119 -1.143 -98.071)"/><linearGradient x1="32.251" y1="6.132" x2="32.251" y2="90.239" id="q" xlink:href="#b" gradientUnits="userSpaceOnUse" gradientTransform="matrix(1.0238 0 0 1.0119 -1.143 -98.071)"/><linearGradient x1="32.251" y1="6.132" x2="32.251" y2="90.239" id="r" xlink:href="#b" gradientUnits="userSpaceOnUse" gradientTransform="translate(0 -97)"/><linearGradient x1="32.251" y1="6.132" x2="32.251" y2="90.239" id="n" xlink:href="#b" gradientUnits="userSpaceOnUse" gradientTransform="matrix(1.0238 0 0 1.0119 -1.143 -98.071)"/><linearGradient id="d"><stop offset="0" stop-color="#fff"/><stop offset="1" stop-color="#fff" stop-opacity="0"/></linearGradient><radialGradient cx="48" cy="90.172" r="42" fx="48" fy="90.172" id="u" xlink:href="#c" gradientUnits="userSpaceOnUse" gradientTransform="matrix(1.15731 0 0 .9959 -7.551 .197)"/><linearGradient id="c"><stop offset="0" stop-color="#fff"/><stop offset="1" stop-color="#fff" stop-opacity="0"/></linearGradient><linearGradient x1="36.357" y1="6" x2="36.357" y2="63.893" id="t" xlink:href="#d" gradientUnits="userSpaceOnUse"/><linearGradient x1="48" y1="56" x2="48" y2="0" id="J" xlink:href="#e" gradientUnits="userSpaceOnUse"/><radialGradient cx="47.977" cy="64.058" r="24.023" fx="47.977" fy="64.058" id="z" xlink:href="#f" gradientUnits="userSpaceOnUse"/><radialGradient cx="60.563" cy="49.721" r="19.437" fx="60.563" fy="49.721" id="A" xlink:href="#g" gradientUnits="userSpaceOnUse"/><radialGradient cx="58.5" cy="37.5" r="2.5" fx="58.5" fy="37.5" id="B" xlink:href="#h" gradientUnits="userSpaceOnUse"/><radialGradient cx="58.5" cy="37.5" r="2.5" fx="58.5" fy="37.5" id="C" xlink:href="#h" gradientUnits="userSpaceOnUse"/><radialGradient cx="58.5" cy="37.5" r="2.5" fx="58.5" fy="37.5" id="D" xlink:href="#h" gradientUnits="userSpaceOnUse"/><radialGradient cx="58.5" cy="37.5" r="2.5" fx="58.5" fy="37.5" id="E" xlink:href="#h" gradientUnits="userSpaceOnUse"/><radialGradient cx="58.5" cy="37.5" r="2.5" fx="58.5" fy="37.5" id="F" xlink:href="#h" gradientUnits="userSpaceOnUse"/><radialGradient cx="58.5" cy="37.5" r="2.5" fx="58.5" fy="37.5" id="G" xlink:href="#h" gradientUnits="userSpaceOnUse"/><radialGradient cx="58.5" cy="37.5" r="2.5" fx="58.5" fy="37.5" id="H" xlink:href="#h" gradientUnits="userSpaceOnUse"/><radialGradient cx="58.5" cy="37.5" r="2.5" fx="58.5" fy="37.5" id="I" xlink:href="#h" gradientUnits="userSpaceOnUse"/><radialGradient cx="60.563" cy="49.721" r="19.437" fx="60.563" fy="49.721" id="y" xlink:href="#f" gradientUnits="userSpaceOnUse"/><radialGradient cx="56" cy="24" r="16" fx="56" fy="24" id="x" xlink:href="#i" gradientUnits="userSpaceOnUse"/><linearGradient x1="48" y1="48" x2="48" y2="72" id="w" xlink:href="#j" gradientUnits="userSpaceOnUse" spreadMethod="reflect"/><clipPath id="v"><rect width="72" height="56" rx="3" ry="3" x="12" y="20" style="marker:none" opacity=".652" color="#000" fill="red" overflow="visible" enable-background="accumulate"/></clipPath><linearGradient id="k"><stop offset="0"/><stop offset="1" stop-opacity="0"/></linearGradient><linearGradient x1="64" y1="80" x2="64" y2="-40.067" id="K" xlink:href="#k" gradientUnits="userSpaceOnUse" gradientTransform="translate(-20)"/></defs><g transform="scale(1 -1)"><path d="M12-95.031c-5.511 0-10.031 4.52-10.031 10.031v71C1.969-8.489 6.489-3.969 12-3.969h72c5.511 0 10.031-4.52 10.031-10.031v-71c0-5.511-4.52-10.031-10.031-10.031H12z" opacity=".08" fill="url(#n)"/><path d="M12-94.031c-4.972 0-9.031 4.06-9.031 9.031v71c0 4.972 4.06 9.031 9.031 9.031h72c4.972 0 9.031-4.06 9.031-9.031v-71c0-4.972-4.06-9.031-9.031-9.031H12z" opacity=".1" fill="url(#o)"/><path d="M12-93c-4.41 0-8 3.59-8 8v71c0 4.41 3.59 8 8 8h72c4.41 0 8-3.59 8-8v-71c0-4.41-3.59-8-8-8H12z" opacity=".2" fill="url(#p)"/><rect width="86" height="85" rx="7" ry="7" x="5" y="-92" opacity=".3" fill="url(#q)"/><rect width="84" height="84" rx="6" ry="6" x="6" y="-91" opacity=".45" fill="url(#r)"/></g><rect width="84" height="84" rx="6" ry="6" x="6" y="6" fill="url(#s)"/><path d="M12 6c-3.324 0-6 2.676-6 6v72c0 .335.041.65.094.969.048.295.097.597.187.875l.032.094c.098.287.234.547.375.812.144.274.315.536.5.781a6.105 6.105 0 0 0 2.094 1.781c.278.14.573.247.874.344a4.843 4.843 0 0 1-.719-.375c-.007-.004-.023.005-.03 0-.033-.02-.063-.042-.095-.062-.12-.077-.23-.164-.343-.25-.106-.081-.214-.161-.313-.25a5.042 5.042 0 0 1-.5-.531 5.092 5.092 0 0 1-.312-.407c-.025-.038-.039-.086-.063-.125-.065-.103-.13-.204-.187-.312a5.371 5.371 0 0 1-.282-.625c-.008-.022-.023-.04-.03-.063-.033-.092-.037-.187-.063-.281-.03-.107-.07-.203-.094-.313A5.098 5.098 0 0 1 7 85V13c0-2.782 2.218-5 5-5h72c2.782 0 5 2.218 5 5v72c0 .364-.052.721-.125 1.063a4.896 4.896 0 0 1-.156.593c-.008.022-.024.04-.031.063a5.482 5.482 0 0 1-.22.531c-.04.083-.078.17-.124.25-.055.097-.127.188-.188.281a5.092 5.092 0 0 1-.312.406 5.05 5.05 0 0 1-.469.5l-.031.032a4.818 4.818 0 0 1-.438.344c-.102.073-.204.153-.312.218-.008.005-.024-.004-.031 0a4.843 4.843 0 0 1-.72.375c.302-.097.597-.204.876-.344a6.105 6.105 0 0 0 2.094-1.78c.184-.246.355-.508.5-.782a5.69 5.69 0 0 0 .374-.813l.032-.093c.09-.278.139-.58.187-.875.053-.318.094-.634.094-.969V12c0-3.324-2.676-6-6-6H12z" opacity=".5" fill="url(#t)"/><path d="M12 90c-3.324 0-6-2.676-6-6V12c0-.335.041-.65.094-.969.048-.295.097-.597.187-.875l.032-.094a5.69 5.69 0 0 1 .375-.812c.144-.274.315-.536.5-.781a6.105 6.105 0 0 1 2.094-1.781c.278-.14.573-.247.874-.344-.256.1-.486.236-.719.375-.007.004-.023-.005-.03 0-.033.019-.063.042-.095.062-.12.077-.23.164-.343.25-.106.081-.214.161-.313.25a5.042 5.042 0 0 0-.5.532c-.107.13-.218.265-.312.406-.025.038-.039.086-.063.125-.065.103-.13.204-.187.312a5.371 5.371 0 0 0-.282.625c-.007.022-.023.04-.03.063-.033.092-.037.187-.063.281-.03.107-.07.203-.094.313A5.098 5.098 0 0 0 7 11v72c0 2.782 2.218 5 5 5h72c2.782 0 5-2.218 5-5V11c0-.364-.052-.721-.125-1.063a4.896 4.896 0 0 0-.156-.593c-.008-.022-.024-.04-.031-.063a5.482 5.482 0 0 0-.22-.531c-.04-.083-.078-.17-.124-.25-.055-.097-.127-.188-.188-.281a5.092 5.092 0 0 0-.312-.406 5.05 5.05 0 0 0-.469-.5l-.031-.032a4.818 4.818 0 0 0-.438-.343c-.102-.074-.204-.154-.312-.22-.008-.004-.024.005-.031 0a4.843 4.843 0 0 0-.72-.374c.302.097.597.204.876.343a6.105 6.105 0 0 1 2.094 1.782c.184.245.355.507.5.781.14.265.276.525.374.813l.032.093c.09.278.139.58.187.875.053.318.094.634.094.969v72c0 3.324-2.676 6-6 6H12z" opacity=".4" fill="url(#u)"/><rect width="84" height="84" rx="6" ry="6" x="-94" y="6" fill="#f0f"/><path style="marker:none" color="#000" fill="#fff" stroke="#000" stroke-width=".5" stroke-linecap="round" stroke-dashoffset="8.6" overflow="visible" enable-background="accumulate" d="M112 8h16v16h-16z"/><text x="131.393" y="11.969" style="text-align:start;line-height:125%;-inkscape-font-specification:Liberation Sans" font-size="4" font-weight="400" font-family="Liberation Sans"><tspan x="131.393" y="11.969">Width: 2px</tspan><tspan x="131.393" y="16.969">Blur: 12</tspan><tspan x="131.393" y="21.969">Opacity: 60</tspan></text><g color="#000"><path style="marker:none" opacity=".652" fill="red" overflow="visible" enable-background="accumulate" d="M-88 20h72v56h-72z"/><g clip-path="url(#v)"><path style="marker:none" fill="url(#w)" overflow="visible" enable-background="accumulate" d="M12 20h72v56H12z"/><path d="M72 24a16 16 0 1 1-32 0 16 16 0 1 1 32 0z" transform="matrix(2.46685 0 0 2.46685 -110.143 -33.204)" style="marker:none" opacity=".5" fill="url(#x)" overflow="visible" enable-background="accumulate"/><path d="M80 49.72a19.437 19.437 0 1 1-38.874 0 19.437 19.437 0 1 1 38.874 0z" transform="matrix(.92606 0 0 .92606 20.478 -.044)" style="marker:none" opacity=".697" fill="url(#y)" overflow="visible" enable-background="accumulate"/><path d="M72 64.058a24.023 24.023 0 1 1-48.045 0 24.023 24.023 0 1 1 48.045 0z" transform="translate(-24 -16.058)" style="marker:none" fill="url(#z)" overflow="visible" enable-background="accumulate"/><path d="M80 49.72a19.437 19.437 0 1 1-38.874 0 19.437 19.437 0 1 1 38.874 0z" transform="translate(-12.563 -5.158)" style="marker:none" opacity=".434" fill="url(#A)" overflow="visible" enable-background="accumulate"/><path d="M61 37.5a2.5 2.5 0 1 1-5 0 2.5 2.5 0 1 1 5 0z" style="marker:none" opacity=".4" fill="#fff" overflow="visible" enable-background="accumulate"/><path d="M27.5 47.5a2.5 2.5 0 1 1-5 0 2.5 2.5 0 1 1 5 0z" style="marker:none" opacity=".504" fill="#fff" overflow="visible" enable-background="accumulate"/><path d="M65 51a2.5 2.5 0 1 1-5 0 2.5 2.5 0 1 1 5 0z" style="marker:none" opacity=".3" fill="#fff" overflow="visible" enable-background="accumulate"/><path d="M78 46a2.5 2.5 0 1 1-5 0 2.5 2.5 0 1 1 5 0zM44 45a2.5 2.5 0 1 1-5 0 2.5 2.5 0 1 1 5 0zM19 41a2.5 2.5 0 1 1-5 0 2.5 2.5 0 1 1 5 0z" style="marker:none" opacity=".504" fill="#fff" overflow="visible" enable-background="accumulate"/><path d="M19 41a2.5 2.5 0 1 1-5 0 2.5 2.5 0 1 1 5 0z" style="marker:none" opacity=".3" fill="#fff" overflow="visible" enable-background="accumulate"/><path d="M18 50a1 1 0 1 1-2 0 1 1 0 1 1 2 0zM32 53a1 1 0 1 1-2 0 1 1 0 1 1 2 0zM34 49a1 1 0 1 1-2 0 1 1 0 1 1 2 0z" style="marker:none" opacity=".504" fill="#fff" overflow="visible" enable-background="accumulate"/><path d="M41 51a1 1 0 1 1-2 0 1 1 0 1 1 2 0z" style="marker:none" opacity=".3" fill="#fff" overflow="visible" enable-background="accumulate"/><path d="M53 43a1 1 0 1 1-2 0 1 1 0 1 1 2 0zM70 48a1 1 0 1 1-2 0 1 1 0 1 1 2 0zM72 44a1 1 0 1 1-2 0 1 1 0 1 1 2 0zM80 38a1 1 0 1 1-2 0 1 1 0 1 1 2 0zM63 45a1 1 0 1 1-2 0 1 1 0 1 1 2 0z" style="marker:none" opacity=".504" fill="#fff" overflow="visible" enable-background="accumulate"/><path d="M63 45a1 1 0 1 1-2 0 1 1 0 1 1 2 0zM35.5 43.5a1.5 1.5 0 1 1-3 0 1.5 1.5 0 1 1 3 0zM30 41a1.5 1.5 0 1 1-3 0 1.5 1.5 0 1 1 3 0zM52.5 53.5a1.5 1.5 0 1 1-3 0 1.5 1.5 0 1 1 3 0zM56 49a1.5 1.5 0 1 1-3 0 1.5 1.5 0 1 1 3 0z" style="marker:none" opacity=".504" fill="#fff" overflow="visible" enable-background="accumulate"/><path d="M56 49a1.5 1.5 0 1 1-3 0 1.5 1.5 0 1 1 3 0zM74.5 51.5a1.5 1.5 0 1 1-3 0 1.5 1.5 0 1 1 3 0z" style="marker:none" opacity=".504" fill="#fff" overflow="visible" enable-background="accumulate"/><path d="M61 37.5a2.5 2.5 0 1 1-5 0 2.5 2.5 0 1 1 5 0z" transform="matrix(1.6 0 0 1.6 -43.6 -16)" style="marker:none" opacity=".3" fill="url(#B)" overflow="visible" enable-background="accumulate"/><path d="M61 37.5a2.5 2.5 0 1 1-5 0 2.5 2.5 0 1 1 5 0z" transform="matrix(1.6 0 0 1.6 -23.6 -10)" style="marker:none" opacity=".3" fill="url(#C)" overflow="visible" enable-background="accumulate"/><path d="M61 37.5a2.5 2.5 0 1 1-5 0 2.5 2.5 0 1 1 5 0z" transform="matrix(1.6 0 0 1.6 -72.6 -15)" style="marker:none" opacity=".3" fill="url(#D)" overflow="visible" enable-background="accumulate"/><path d="M61 37.5a2.5 2.5 0 1 1-5 0 2.5 2.5 0 1 1 5 0z" transform="matrix(1.6 0 0 1.6 -59.6 -9)" style="marker:none" opacity=".3" fill="url(#E)" overflow="visible" enable-background="accumulate"/><path d="M61 37.5a2.5 2.5 0 1 1-5 0 2.5 2.5 0 1 1 5 0z" transform="translate(-27 2.5)" style="marker:none" opacity=".3" fill="url(#F)" overflow="visible" enable-background="accumulate"/><path d="M61 37.5a2.5 2.5 0 1 1-5 0 2.5 2.5 0 1 1 5 0z" transform="translate(9 4.5)" style="marker:none" opacity=".3" fill="url(#G)" overflow="visible" enable-background="accumulate"/><path d="M61 37.5a2.5 2.5 0 1 1-5 0 2.5 2.5 0 1 1 5 0z" transform="translate(21 6.5)" style="marker:none" opacity=".3" fill="url(#H)" overflow="visible" enable-background="accumulate"/><path d="M61 37.5a2.5 2.5 0 1 1-5 0 2.5 2.5 0 1 1 5 0z" transform="translate(-35 12.5)" style="marker:none" opacity=".3" fill="url(#I)" overflow="visible" enable-background="accumulate"/><path d="M64 39a1 1 0 1 1-2 0 1 1 0 1 1 2 0z" style="marker:none" opacity=".504" fill="#fff" overflow="visible" enable-background="accumulate"/></g></g><g font-size="20.888" font-weight="700" fill="#fff" font-family="BabelSans"><path d="M62.028 71.75V64.02l-5.396.021v1.922h3.426v2.569a3.72 3.72 0 0 1-.656.564 4.936 4.936 0 0 1-.8.438c-.274.126-.562.223-.862.293-.288.07-.568.104-.842.104-.78 0-1.43-.174-1.949-.522a4.076 4.076 0 0 1-1.252-1.4c-.3-.57-.52-1.211-.656-1.921a12.451 12.451 0 0 1 0-4.261c.137-.71.355-1.351.656-1.922a3.913 3.913 0 0 1 1.231-1.4c.52-.362 1.17-.543 1.95-.543.492 0 .91.084 1.251.251.356.153.657.383.903.69.26.306.472.675.636 1.106.178.432.329.92.452 1.463l1.744-.606a10.176 10.176 0 0 0-.616-1.984 4.947 4.947 0 0 0-.985-1.546 3.856 3.856 0 0 0-1.436-.982c-.56-.237-1.217-.355-1.97-.355-1.121 0-2.065.25-2.831.752a5.658 5.658 0 0 0-1.847 1.9 8.28 8.28 0 0 0-1.005 2.59c-.206.962-.308 1.909-.308 2.842 0 .946.11 1.893.328 2.84a7.839 7.839 0 0 0 1.067 2.528 5.927 5.927 0 0 0 1.908 1.838c.78.473 1.724.71 2.832.71.56 0 1.094-.132 1.6-.397.52-.25 1.013-.515 1.478-.794v.94h1.949M68 72.05v-16h-2.005v16h2.006M79.977 58.013V56.05h-7.966V72h2.005v-7.006h5.034v-1.963h-5.034v-5.018h5.961" style="text-align:start;line-height:125%;-inkscape-font-specification:BabelSans Medium" opacity=".7"/></g><g><path d="M12 6c-3.324 0-6 2.676-6 6v53.375C21.66 54.325 48.933 47 80 47c3.382 0 6.717.112 10 .281V12c0-3.324-2.676-6-6-6H12z" opacity=".3" fill="url(#J)"/><path d="M15 20c-1.662 0-3 1.338-3 3v50c0 1.662 1.338 3 3 3h66c1.662 0 3-1.338 3-3V23c0-1.662-1.338-3-3-3H15zm0 .969h66A2 2 0 0 1 83.031 23v50A2 2 0 0 1 81 75.031H15A2 2 0 0 1 12.969 73V23A2 2 0 0 1 15 20.969z" style="marker:none" opacity=".3" color="#000" fill="url(#K)" overflow="visible" enable-background="accumulate"/><path d="M12 73v1c0 1.662 1.338 3 3 3h66c1.662 0 3-1.338 3-3v-1c0 1.662-1.338 3-3 3H15c-1.662 0-3-1.338-3-3z" style="marker:none" opacity=".7" color="#000" fill="#fff" overflow="visible" enable-background="accumulate"/></g></svg>