<svg xmlns="http://www.w3.org/2000/svg" xmlns:xlink="http://www.w3.org/1999/xlink" version="1.0" width="96" height="96"><defs><linearGradient id="i"><stop offset="0" stop-color="#357ab0"/><stop offset="1" stop-color="#1f3a4b" stop-opacity="0"/></linearGradient><linearGradient id="j"><stop offset="0" stop-color="#9751cf"/><stop offset="1" stop-color="#241771"/></linearGradient><linearGradient id="g"><stop offset="0" stop-color="#e9842b"/><stop offset="1" stop-color="#efae16" stop-opacity="0"/></linearGradient><linearGradient id="h"><stop offset="0" stop-color="#fff"/><stop offset="1" stop-color="#fff" stop-opacity="0"/></linearGradient><linearGradient id="f"><stop offset="0" stop-color="#e183df"/><stop offset="1" stop-color="#d76dd4" stop-opacity="0"/></linearGradient><linearGradient x1="45.448" y1="92.54" x2="45.448" y2="7.017" id="l" gradientUnits="userSpaceOnUse" gradientTransform="scale(1.00587 .99417)"><stop offset="0"/><stop offset="1" stop-opacity=".588"/></linearGradient><linearGradient id="e"><stop offset="0" stop-color="#fff"/><stop offset="1" stop-color="#fff" stop-opacity="0"/></linearGradient><linearGradient id="a"><stop offset="0" stop-color="#e6e6e6"/><stop offset="1" stop-color="#f5f5f5"/></linearGradient><linearGradient x1="48" y1="90" x2="48" y2="5.988" id="s" xlink:href="#a" gradientUnits="userSpaceOnUse"/><filter color-interpolation-filters="sRGB" id="m"><feGaussianBlur stdDeviation="1.71"/></filter><linearGradient x1="45.448" y1="92.54" x2="45.448" y2="7.017" id="b" gradientUnits="userSpaceOnUse" gradientTransform="matrix(1.00587 0 0 .99417 100 0)"><stop offset="0"/><stop offset="1" stop-opacity=".588"/></linearGradient><linearGradient x1="32.251" y1="6.132" x2="32.251" y2="90.239" id="o" xlink:href="#b" gradientUnits="userSpaceOnUse" gradientTransform="matrix(1.0238 0 0 1.0119 -1.143 -98.071)"/><linearGradient x1="32.251" y1="6.132" x2="32.251" y2="90.239" id="p" xlink:href="#b" gradientUnits="userSpaceOnUse" gradientTransform="matrix(1.0238 0 0 1.0119 -1.143 -98.071)"/><linearGradient x1="32.251" y1="6.132" x2="32.251" y2="90.239" id="q" xlink:href="#b" gradientUnits="userSpaceOnUse" gradientTransform="matrix(1.0238 0 0 1.0119 -1.143 -98.071)"/><linearGradient x1="32.251" y1="6.132" x2="32.251" y2="90.239" id="r" xlink:href="#b" gradientUnits="userSpaceOnUse" gradientTransform="translate(0 -97)"/><linearGradient x1="32.251" y1="6.132" x2="32.251" y2="90.239" id="n" xlink:href="#b" gradientUnits="userSpaceOnUse" gradientTransform="matrix(1.0238 0 0 1.0119 -1.143 -98.071)"/><linearGradient id="d"><stop offset="0" stop-color="#fff"/><stop offset="1" stop-color="#fff" stop-opacity="0"/></linearGradient><radialGradient cx="48" cy="90.172" r="42" fx="48" fy="90.172" id="u" xlink:href="#c" gradientUnits="userSpaceOnUse" gradientTransform="matrix(1.15731 0 0 .9959 -7.551 .197)"/><linearGradient id="c"><stop offset="0" stop-color="#fff"/><stop offset="1" stop-color="#fff" stop-opacity="0"/></linearGradient><linearGradient x1="36.357" y1="6" x2="36.357" y2="63.893" id="t" xlink:href="#d" gradientUnits="userSpaceOnUse"/><linearGradient x1="48" y1="56" x2="48" y2="0" id="J" xlink:href="#e" gradientUnits="userSpaceOnUse"/><radialGradient cx="47.977" cy="64.058" r="24.023" fx="47.977" fy="64.058" id="z" xlink:href="#f" gradientUnits="userSpaceOnUse"/><radialGradient cx="60.563" cy="49.721" r="19.437" fx="60.563" fy="49.721" id="A" xlink:href="#g" gradientUnits="userSpaceOnUse"/><radialGradient cx="58.5" cy="37.5" r="2.5" fx="58.5" fy="37.5" id="B" xlink:href="#h" gradientUnits="userSpaceOnUse"/><radialGradient cx="58.5" cy="37.5" r="2.5" fx="58.5" fy="37.5" id="C" xlink:href="#h" gradientUnits="userSpaceOnUse"/><radialGradient cx="58.5" cy="37.5" r="2.5" fx="58.5" fy="37.5" id="D" xlink:href="#h" gradientUnits="userSpaceOnUse"/><radialGradient cx="58.5" cy="37.5" r="2.5" fx="58.5" fy="37.5" id="E" xlink:href="#h" gradientUnits="userSpaceOnUse"/><radialGradient cx="58.5" cy="37.5" r="2.5" fx="58.5" fy="37.5" id="F" xlink:href="#h" gradientUnits="userSpaceOnUse"/><radialGradient cx="58.5" cy="37.5" r="2.5" fx="58.5" fy="37.5" id="G" xlink:href="#h" gradientUnits="userSpaceOnUse"/><radialGradient cx="58.5" cy="37.5" r="2.5" fx="58.5" fy="37.5" id="H" xlink:href="#h" gradientUnits="userSpaceOnUse"/><radialGradient cx="58.5" cy="37.5" r="2.5" fx="58.5" fy="37.5" id="I" xlink:href="#h" gradientUnits="userSpaceOnUse"/><radialGradient cx="60.563" cy="49.721" r="19.437" fx="60.563" fy="49.721" id="y" xlink:href="#f" gradientUnits="userSpaceOnUse"/><radialGradient cx="56" cy="24" r="16" fx="56" fy="24" id="x" xlink:href="#i" gradientUnits="userSpaceOnUse"/><linearGradient x1="48" y1="48" x2="48" y2="72" id="w" xlink:href="#j" gradientUnits="userSpaceOnUse" spreadMethod="reflect"/><clipPath id="v"><rect width="72" height="56" rx="3" ry="3" x="12" y="20" style="marker:none" opacity=".652" color="#000" fill="red" overflow="visible" enable-background="accumulate"/></clipPath><linearGradient id="k"><stop offset="0"/><stop offset="1" stop-opacity="0"/></linearGradient><linearGradient x1="64" y1="80" x2="64" y2="-40.067" id="K" xlink:href="#k" gradientUnits="userSpaceOnUse" gradientTransform="translate(-20)"/></defs><g transform="scale(1 -1)"><path d="M12-95.031c-5.511 0-10.031 4.52-10.031 10.031v71C1.969-8.489 6.489-3.969 12-3.969h72c5.511 0 10.031-4.52 10.031-10.031v-71c0-5.511-4.52-10.031-10.031-10.031H12z" opacity=".08" fill="url(#n)"/><path d="M12-94.031c-4.972 0-9.031 4.06-9.031 9.031v71c0 4.972 4.06 9.031 9.031 9.031h72c4.972 0 9.031-4.06 9.031-9.031v-71c0-4.972-4.06-9.031-9.031-9.031H12z" opacity=".1" fill="url(#o)"/><path d="M12-93c-4.41 0-8 3.59-8 8v71c0 4.41 3.59 8 8 8h72c4.41 0 8-3.59 8-8v-71c0-4.41-3.59-8-8-8H12z" opacity=".2" fill="url(#p)"/><rect width="86" height="85" rx="7" ry="7" x="5" y="-92" opacity=".3" fill="url(#q)"/><rect width="84" height="84" rx="6" ry="6" x="6" y="-91" opacity=".45" fill="url(#r)"/></g><rect width="84" height="84" rx="6" ry="6" x="6" y="6" fill="url(#s)"/><path d="M12 6c-3.324 0-6 2.676-6 6v72c0 .335.041.65.094.969.048.295.097.597.187.875l.032.094c.098.287.234.547.375.812.144.274.315.536.5.781a6.105 6.105 0 0 0 2.094 1.781c.278.14.573.247.874.344a4.843 4.843 0 0 1-.719-.375c-.007-.004-.023.005-.03 0-.033-.02-.063-.042-.095-.062-.12-.077-.23-.164-.343-.25-.106-.081-.214-.161-.313-.25a5.042 5.042 0 0 1-.5-.531 5.092 5.092 0 0 1-.312-.407c-.025-.038-.039-.086-.063-.125-.065-.103-.13-.204-.187-.312a5.371 5.371 0 0 1-.282-.625c-.008-.022-.023-.04-.03-.063-.033-.092-.037-.187-.063-.281-.03-.107-.07-.203-.094-.313A5.098 5.098 0 0 1 7 85V13c0-2.782 2.218-5 5-5h72c2.782 0 5 2.218 5 5v72c0 .364-.052.721-.125 1.063a4.896 4.896 0 0 1-.156.593c-.008.022-.024.04-.031.063a5.482 5.482 0 0 1-.22.531c-.04.083-.078.17-.124.25-.055.097-.127.188-.188.281a5.092 5.092 0 0 1-.312.406 5.05 5.05 0 0 1-.469.5l-.031.032a4.818 4.818 0 0 1-.438.344c-.102.073-.204.153-.312.218-.008.005-.024-.004-.031 0a4.843 4.843 0 0 1-.72.375c.302-.097.597-.204.876-.344a6.105 6.105 0 0 0 2.094-1.78c.184-.246.355-.508.5-.782a5.69 5.69 0 0 0 .374-.813l.032-.093c.09-.278.139-.58.187-.875.053-.318.094-.634.094-.969V12c0-3.324-2.676-6-6-6H12z" opacity=".5" fill="url(#t)"/><path d="M12 90c-3.324 0-6-2.676-6-6V12c0-.335.041-.65.094-.969.048-.295.097-.597.187-.875l.032-.094a5.69 5.69 0 0 1 .375-.812c.144-.274.315-.536.5-.781a6.105 6.105 0 0 1 2.094-1.781c.278-.14.573-.247.874-.344-.256.1-.486.236-.719.375-.007.004-.023-.005-.03 0-.033.019-.063.042-.095.062-.12.077-.23.164-.343.25-.106.081-.214.161-.313.25a5.042 5.042 0 0 0-.5.532c-.107.13-.218.265-.312.406-.025.038-.039.086-.063.125-.065.103-.13.204-.187.312a5.371 5.371 0 0 0-.282.625c-.007.022-.023.04-.03.063-.033.092-.037.187-.063.281-.03.107-.07.203-.094.313A5.098 5.098 0 0 0 7 11v72c0 2.782 2.218 5 5 5h72c2.782 0 5-2.218 5-5V11c0-.364-.052-.721-.125-1.063a4.896 4.896 0 0 0-.156-.593c-.008-.022-.024-.04-.031-.063a5.482 5.482 0 0 0-.22-.531c-.04-.083-.078-.17-.124-.25-.055-.097-.127-.188-.188-.281a5.092 5.092 0 0 0-.312-.406 5.05 5.05 0 0 0-.469-.5l-.031-.032a4.818 4.818 0 0 0-.438-.343c-.102-.074-.204-.154-.312-.22-.008-.004-.024.005-.031 0a4.843 4.843 0 0 0-.72-.374c.302.097.597.204.876.343a6.105 6.105 0 0 1 2.094 1.782c.184.245.355.507.5.781.14.265.276.525.374.813l.032.093c.09.278.139.58.187.875.053.318.094.634.094.969v72c0 3.324-2.676 6-6 6H12z" opacity=".4" fill="url(#u)"/><rect width="84" height="84" rx="6" ry="6" x="-94" y="6" fill="#f0f"/><path style="marker:none" color="#000" fill="#fff" stroke="#000" stroke-width=".5" stroke-linecap="round" stroke-dashoffset="8.6" overflow="visible" enable-background="accumulate" d="M112 8h16v16h-16z"/><text x="131.393" y="11.969" style="text-align:start;line-height:125%;-inkscape-font-specification:Liberation Sans" font-size="4" font-weight="400" font-family="Liberation Sans"><tspan x="131.393" y="11.969">Width: 2px</tspan><tspan x="131.393" y="16.969">Blur: 12</tspan><tspan x="131.393" y="21.969">Opacity: 60</tspan></text><g color="#000"><path style="marker:none" opacity=".652" fill="red" overflow="visible" enable-background="accumulate" d="M-88 20h72v56h-72z"/><g clip-path="url(#v)"><path style="marker:none" fill="url(#w)" overflow="visible" enable-background="accumulate" d="M12 20h72v56H12z"/><path d="M72 24a16 16 0 1 1-32 0 16 16 0 1 1 32 0z" transform="matrix(2.63647 0 0 2.63647 -119.643 -37.275)" style="marker:none" opacity=".5" fill="url(#x)" overflow="visible" enable-background="accumulate"/><path d="M80 49.72a19.437 19.437 0 1 1-38.874 0 19.437 19.437 0 1 1 38.874 0z" transform="matrix(.92606 0 0 .92606 20.478 -.044)" style="marker:none" opacity=".697" fill="url(#y)" overflow="visible" enable-background="accumulate"/><path d="M72 64.058a24.023 24.023 0 1 1-48.045 0 24.023 24.023 0 1 1 48.045 0z" transform="translate(-24 -16.058)" style="marker:none" fill="url(#z)" overflow="visible" enable-background="accumulate"/><path d="M80 49.72a19.437 19.437 0 1 1-38.874 0 19.437 19.437 0 1 1 38.874 0z" transform="translate(-12.563 -5.158)" style="marker:none" opacity=".434" fill="url(#A)" overflow="visible" enable-background="accumulate"/><path d="M61 37.5a2.5 2.5 0 1 1-5 0 2.5 2.5 0 1 1 5 0z" style="marker:none" opacity=".4" fill="#fff" overflow="visible" enable-background="accumulate"/><path d="M27.5 47.5a2.5 2.5 0 1 1-5 0 2.5 2.5 0 1 1 5 0z" style="marker:none" opacity=".504" fill="#fff" overflow="visible" enable-background="accumulate"/><path d="M65 51a2.5 2.5 0 1 1-5 0 2.5 2.5 0 1 1 5 0z" style="marker:none" opacity=".3" fill="#fff" overflow="visible" enable-background="accumulate"/><path d="M78 46a2.5 2.5 0 1 1-5 0 2.5 2.5 0 1 1 5 0zM44 45a2.5 2.5 0 1 1-5 0 2.5 2.5 0 1 1 5 0zM19 41a2.5 2.5 0 1 1-5 0 2.5 2.5 0 1 1 5 0z" style="marker:none" opacity=".504" fill="#fff" overflow="visible" enable-background="accumulate"/><path d="M19 41a2.5 2.5 0 1 1-5 0 2.5 2.5 0 1 1 5 0z" style="marker:none" opacity=".3" fill="#fff" overflow="visible" enable-background="accumulate"/><path d="M18 50a1 1 0 1 1-2 0 1 1 0 1 1 2 0zM32 53a1 1 0 1 1-2 0 1 1 0 1 1 2 0zM34 49a1 1 0 1 1-2 0 1 1 0 1 1 2 0z" style="marker:none" opacity=".504" fill="#fff" overflow="visible" enable-background="accumulate"/><path d="M41 51a1 1 0 1 1-2 0 1 1 0 1 1 2 0z" style="marker:none" opacity=".3" fill="#fff" overflow="visible" enable-background="accumulate"/><path d="M53 43a1 1 0 1 1-2 0 1 1 0 1 1 2 0zM70 48a1 1 0 1 1-2 0 1 1 0 1 1 2 0zM72 44a1 1 0 1 1-2 0 1 1 0 1 1 2 0zM80 38a1 1 0 1 1-2 0 1 1 0 1 1 2 0zM63 45a1 1 0 1 1-2 0 1 1 0 1 1 2 0z" style="marker:none" opacity=".504" fill="#fff" overflow="visible" enable-background="accumulate"/><path d="M63 45a1 1 0 1 1-2 0 1 1 0 1 1 2 0zM35.5 43.5a1.5 1.5 0 1 1-3 0 1.5 1.5 0 1 1 3 0zM30 41a1.5 1.5 0 1 1-3 0 1.5 1.5 0 1 1 3 0zM52.5 53.5a1.5 1.5 0 1 1-3 0 1.5 1.5 0 1 1 3 0zM56 49a1.5 1.5 0 1 1-3 0 1.5 1.5 0 1 1 3 0z" style="marker:none" opacity=".504" fill="#fff" overflow="visible" enable-background="accumulate"/><path d="M56 49a1.5 1.5 0 1 1-3 0 1.5 1.5 0 1 1 3 0zM74.5 51.5a1.5 1.5 0 1 1-3 0 1.5 1.5 0 1 1 3 0z" style="marker:none" opacity=".504" fill="#fff" overflow="visible" enable-background="accumulate"/><path d="M61 37.5a2.5 2.5 0 1 1-5 0 2.5 2.5 0 1 1 5 0z" transform="matrix(1.6 0 0 1.6 -43.6 -16)" style="marker:none" opacity=".3" fill="url(#B)" overflow="visible" enable-background="accumulate"/><path d="M61 37.5a2.5 2.5 0 1 1-5 0 2.5 2.5 0 1 1 5 0z" transform="matrix(1.6 0 0 1.6 -23.6 -10)" style="marker:none" opacity=".3" fill="url(#C)" overflow="visible" enable-background="accumulate"/><path d="M61 37.5a2.5 2.5 0 1 1-5 0 2.5 2.5 0 1 1 5 0z" transform="matrix(1.6 0 0 1.6 -72.6 -15)" style="marker:none" opacity=".3" fill="url(#D)" overflow="visible" enable-background="accumulate"/><path d="M61 37.5a2.5 2.5 0 1 1-5 0 2.5 2.5 0 1 1 5 0z" transform="matrix(1.6 0 0 1.6 -59.6 -9)" style="marker:none" opacity=".3" fill="url(#E)" overflow="visible" enable-background="accumulate"/><path d="M61 37.5a2.5 2.5 0 1 1-5 0 2.5 2.5 0 1 1 5 0z" transform="translate(-27 2.5)" style="marker:none" opacity=".3" fill="url(#F)" overflow="visible" enable-background="accumulate"/><path d="M61 37.5a2.5 2.5 0 1 1-5 0 2.5 2.5 0 1 1 5 0z" transform="translate(9 4.5)" style="marker:none" opacity=".3" fill="url(#G)" overflow="visible" enable-background="accumulate"/><path d="M61 37.5a2.5 2.5 0 1 1-5 0 2.5 2.5 0 1 1 5 0z" transform="translate(21 6.5)" style="marker:none" opacity=".3" fill="url(#H)" overflow="visible" enable-background="accumulate"/><path d="M61 37.5a2.5 2.5 0 1 1-5 0 2.5 2.5 0 1 1 5 0z" transform="translate(-35 12.5)" style="marker:none" opacity=".3" fill="url(#I)" overflow="visible" enable-background="accumulate"/><path d="M64 39a1 1 0 1 1-2 0 1 1 0 1 1 2 0z" style="marker:none" opacity=".504" fill="#fff" overflow="visible" enable-background="accumulate"/></g></g><g><path d="M74.906 56c-1.104 0-2.027.249-2.781.75a5.62 5.62 0 0 0-1.813 1.906 8.392 8.392 0 0 0-1 2.594A13.83 13.83 0 0 0 69 64.094c0 .947.128 1.897.344 2.844.215.932.546 1.748 1.031 2.5a5.982 5.982 0 0 0 1.906 1.843c.768.474 1.69.719 2.781.719.553 0 1.065-.142 1.563-.406a18.5 18.5 0 0 0 1.469-.781v.937H80v-7.969h-5.313v1.938h3.376v2.812a3.742 3.742 0 0 1-.657.563 4.766 4.766 0 0 1-1.625.719c-.283.07-.543.125-.812.124-.768 0-1.426-.183-1.938-.53-.512-.363-.909-.836-1.219-1.407a6.869 6.869 0 0 1-.656-1.906 12.585 12.585 0 0 1-.187-2.125c0-.71.066-1.446.187-2.157.135-.71.36-1.335.656-1.906.31-.585.69-1.058 1.188-1.406.512-.362 1.17-.531 1.938-.531.484 0 .882.083 1.218.25.35.153.664.38.906.687.256.307.464.662.626 1.094.175.432.316.926.437 1.469l1.719-.594c-.148-.724-.338-1.401-.594-2a4.885 4.885 0 0 0-.969-1.531 3.925 3.925 0 0 0-1.437-1c-.552-.237-1.197-.344-1.938-.344zm-30.875.25v15.5h2.032v-6.219h1.812c.306 0 .641-.003 1.031-.031a8.49 8.49 0 0 0 1.188-.219c.39-.111.745-.256 1.093-.437.349-.181.635-.395.844-.688a4.723 4.723 0 0 0 .782-1.594c.167-.584.25-1.165.25-1.75a6.7 6.7 0 0 0-.094-1.062 4.792 4.792 0 0 0-.282-1.063c-.208-.543-.474-.992-.78-1.312a2.952 2.952 0 0 0-1-.719 3.83 3.83 0 0 0-1.22-.312 11.357 11.357 0 0 0-1.406-.094h-4.25zm12.125 0v15.5h1.969V60.687l5.813 11.063h1.968v-15.5h-1.969v11.063L58.094 56.25h-1.938zm-10.093 2h2.374c.195 0 .423-.014.688 0 .278 0 .506.055.688.125.222.084.409.194.562.375.153.167.278.371.375.594.097.223.177.454.219.718.042.251.062.5.062.75 0 .878-.287 1.572-.843 2.032-.544.445-1.272.656-2.22.656h-1.906v-5.25z" style="text-align:start;line-height:125%;-inkscape-font-specification:BabelSans Medium" font-size="20.888" font-weight="700" opacity=".7" fill="#fff" font-family="BabelSans"/></g><g><path d="M12 6c-3.324 0-6 2.676-6 6v53.375C21.66 54.325 48.933 47 80 47c3.382 0 6.717.112 10 .281V12c0-3.324-2.676-6-6-6H12z" opacity=".3" fill="url(#J)"/><path d="M15 20c-1.662 0-3 1.338-3 3v50c0 1.662 1.338 3 3 3h66c1.662 0 3-1.338 3-3V23c0-1.662-1.338-3-3-3H15zm0 .969h66A2 2 0 0 1 83.031 23v50A2 2 0 0 1 81 75.031H15A2 2 0 0 1 12.969 73V23A2 2 0 0 1 15 20.969z" style="marker:none" opacity=".3" color="#000" fill="url(#K)" overflow="visible" enable-background="accumulate"/><path d="M12 73v1c0 1.662 1.338 3 3 3h66c1.662 0 3-1.338 3-3v-1c0 1.662-1.338 3-3 3H15c-1.662 0-3-1.338-3-3z" style="marker:none" opacity=".7" color="#000" fill="#fff" overflow="visible" enable-background="accumulate"/></g></svg>