<svg xmlns="http://www.w3.org/2000/svg" xmlns:xlink="http://www.w3.org/1999/xlink" version="1.0" width="96" height="96"><defs><linearGradient x1="45.448" y1="92.54" x2="45.448" y2="7.017" id="g" gradientUnits="userSpaceOnUse" gradientTransform="scale(1.00587 .99417)"><stop offset="0"/><stop offset="1" stop-opacity=".588"/></linearGradient><linearGradient id="a"><stop offset="0" stop-color="#ebebeb"/><stop offset="1" stop-color="#fafafa"/></linearGradient><linearGradient x1="48" y1="90" x2="48" y2="5.988" id="n" xlink:href="#a" gradientUnits="userSpaceOnUse"/><filter color-interpolation-filters="sRGB" id="h"><feGaussianBlur stdDeviation="1.71"/></filter><linearGradient x1="45.448" y1="92.54" x2="45.448" y2="7.017" id="b" gradientUnits="userSpaceOnUse" gradientTransform="matrix(1.00587 0 0 .99417 100 0)"><stop offset="0"/><stop offset="1" stop-opacity=".588"/></linearGradient><linearGradient x1="32.251" y1="6.132" x2="32.251" y2="90.239" id="j" xlink:href="#b" gradientUnits="userSpaceOnUse" gradientTransform="matrix(1.0238 0 0 1.0119 -1.143 -98.071)"/><linearGradient x1="32.251" y1="6.132" x2="32.251" y2="90.239" id="k" xlink:href="#b" gradientUnits="userSpaceOnUse" gradientTransform="matrix(1.0238 0 0 1.0119 -1.143 -98.071)"/><linearGradient x1="32.251" y1="6.132" x2="32.251" y2="90.239" id="l" xlink:href="#b" gradientUnits="userSpaceOnUse" gradientTransform="matrix(1.0238 0 0 1.0119 -1.143 -98.071)"/><linearGradient x1="32.251" y1="6.132" x2="32.251" y2="90.239" id="m" xlink:href="#b" gradientUnits="userSpaceOnUse" gradientTransform="translate(0 -97)"/><linearGradient x1="32.251" y1="6.132" x2="32.251" y2="90.239" id="i" xlink:href="#b" gradientUnits="userSpaceOnUse" gradientTransform="matrix(1.0238 0 0 1.0119 -1.143 -98.071)"/><linearGradient id="d"><stop offset="0" stop-color="#fff"/><stop offset="1" stop-color="#fff" stop-opacity="0"/></linearGradient><radialGradient cx="48" cy="90.172" r="42" fx="48" fy="90.172" id="p" xlink:href="#c" gradientUnits="userSpaceOnUse" gradientTransform="matrix(1.15731 0 0 .9959 -7.551 .197)"/><linearGradient id="c"><stop offset="0" stop-color="#fff"/><stop offset="1" stop-color="#fff" stop-opacity="0"/></linearGradient><linearGradient x1="36.357" y1="6" x2="36.357" y2="63.893" id="o" xlink:href="#d" gradientUnits="userSpaceOnUse"/><linearGradient id="e"><stop offset="0" stop-color="#463c4f"/><stop offset="1" stop-color="#0f0f0f"/></linearGradient><radialGradient cx="48" cy="63.367" r="36" fx="48" fy="63.367" id="t" xlink:href="#e" gradientUnits="userSpaceOnUse" gradientTransform="matrix(1.6082 0 0 1.19867 -29.194 -4.503)"/><linearGradient id="f"><stop offset="0" stop-color="#fff"/><stop offset="1" stop-color="#fff" stop-opacity="0"/></linearGradient><clipPath id="q"><rect width="84" height="84" rx="6" ry="6" x="6" y="6" fill="#fff"/></clipPath><filter x="-.192" y="-.192" width="1.384" height="1.384" color-interpolation-filters="sRGB" id="s"><feGaussianBlur stdDeviation="5.28"/></filter><linearGradient x1="48" y1="20.221" x2="48" y2="138.661" id="r" xlink:href="#f" gradientUnits="userSpaceOnUse"/></defs><g transform="scale(1 -1)"><path d="M12-95.031c-5.511 0-10.031 4.52-10.031 10.031v71C1.969-8.489 6.489-3.969 12-3.969h72c5.511 0 10.031-4.52 10.031-10.031v-71c0-5.511-4.52-10.031-10.031-10.031H12z" opacity=".08" fill="url(#i)"/><path d="M12-94.031c-4.972 0-9.031 4.06-9.031 9.031v71c0 4.972 4.06 9.031 9.031 9.031h72c4.972 0 9.031-4.06 9.031-9.031v-71c0-4.972-4.06-9.031-9.031-9.031H12z" opacity=".1" fill="url(#j)"/><path d="M12-93c-4.41 0-8 3.59-8 8v71c0 4.41 3.59 8 8 8h72c4.41 0 8-3.59 8-8v-71c0-4.41-3.59-8-8-8H12z" opacity=".2" fill="url(#k)"/><rect width="86" height="85" rx="7" ry="7" x="5" y="-92" opacity=".3" fill="url(#l)"/><rect width="84" height="84" rx="6" ry="6" x="6" y="-91" opacity=".45" fill="url(#m)"/></g><rect width="84" height="84" rx="6" ry="6" x="6" y="6" fill="url(#n)"/><path d="M12 6c-3.324 0-6 2.676-6 6v72c0 .335.041.65.094.969.048.295.097.597.187.875l.032.094c.098.287.234.547.375.812.144.274.315.536.5.781a6.105 6.105 0 0 0 2.094 1.781c.278.14.573.247.874.344a4.843 4.843 0 0 1-.719-.375c-.007-.004-.023.005-.03 0-.033-.02-.063-.042-.095-.062-.12-.077-.23-.164-.343-.25-.106-.081-.214-.161-.313-.25a5.042 5.042 0 0 1-.5-.531 5.092 5.092 0 0 1-.312-.407c-.025-.038-.039-.086-.063-.125-.065-.103-.13-.204-.187-.312a5.371 5.371 0 0 1-.282-.625c-.008-.022-.023-.04-.03-.063-.033-.092-.037-.187-.063-.281-.03-.107-.07-.203-.094-.313A5.098 5.098 0 0 1 7 85V13c0-2.782 2.218-5 5-5h72c2.782 0 5 2.218 5 5v72c0 .364-.052.721-.125 1.063a4.896 4.896 0 0 1-.156.593c-.008.022-.024.04-.031.063a5.482 5.482 0 0 1-.22.531c-.04.083-.078.17-.124.25-.055.097-.127.188-.188.281a5.092 5.092 0 0 1-.312.406 5.05 5.05 0 0 1-.469.5l-.031.032a4.818 4.818 0 0 1-.438.344c-.102.073-.204.153-.312.218-.008.005-.024-.004-.031 0a4.843 4.843 0 0 1-.72.375c.302-.097.597-.204.876-.344a6.105 6.105 0 0 0 2.094-1.78c.184-.246.355-.508.5-.782a5.69 5.69 0 0 0 .374-.813l.032-.093c.09-.278.139-.58.187-.875.053-.318.094-.634.094-.969V12c0-3.324-2.676-6-6-6H12z" opacity=".5" fill="url(#o)"/><path d="M12 90c-3.324 0-6-2.676-6-6V12c0-.335.041-.65.094-.969.048-.295.097-.597.187-.875l.032-.094a5.69 5.69 0 0 1 .375-.812c.144-.274.315-.536.5-.781a6.105 6.105 0 0 1 2.094-1.781c.278-.14.573-.247.874-.344-.256.1-.486.236-.719.375-.007.004-.023-.005-.03 0-.033.019-.063.042-.095.062-.12.077-.23.164-.343.25-.106.081-.214.161-.313.25a5.042 5.042 0 0 0-.5.532c-.107.13-.218.265-.312.406-.025.038-.039.086-.063.125-.065.103-.13.204-.187.312a5.371 5.371 0 0 0-.282.625c-.007.022-.023.04-.03.063-.033.092-.037.187-.063.281-.03.107-.07.203-.094.313A5.098 5.098 0 0 0 7 11v72c0 2.782 2.218 5 5 5h72c2.782 0 5-2.218 5-5V11c0-.364-.052-.721-.125-1.063a4.896 4.896 0 0 0-.156-.593c-.008-.022-.024-.04-.031-.063a5.482 5.482 0 0 0-.22-.531c-.04-.083-.078-.17-.124-.25-.055-.097-.127-.188-.188-.281a5.092 5.092 0 0 0-.312-.406 5.05 5.05 0 0 0-.469-.5l-.031-.032a4.818 4.818 0 0 0-.438-.343c-.102-.074-.204-.154-.312-.22-.008-.004-.024.005-.031 0a4.843 4.843 0 0 0-.72-.374c.302.097.597.204.876.343a6.105 6.105 0 0 1 2.094 1.782c.184.245.355.507.5.781.14.265.276.525.374.813l.032.093c.09.278.139.58.187.875.053.318.094.634.094.969v72c0 3.324-2.676 6-6 6H12z" opacity=".4" fill="url(#p)"/><rect width="84" height="84" rx="6" ry="6" x="-94" y="6" fill="#f0f"/><path style="marker:none" color="#000" fill="#fff" stroke="#000" stroke-width=".5" stroke-linecap="round" stroke-dashoffset="8.6" overflow="visible" enable-background="accumulate" d="M112 8h16v16h-16z"/><text x="131.393" y="11.969" style="text-align:start;line-height:125%;-inkscape-font-specification:Liberation Sans" font-size="4" font-weight="400" font-family="Liberation Sans"><tspan x="131.393" y="11.969">Width: 2px</tspan><tspan x="131.393" y="16.969">Blur: 12</tspan><tspan x="131.393" y="21.969">Opacity: 60</tspan></text><g><rect width="66" height="66" rx="12" ry="12" x="15" y="15" clip-path="url(#q)" opacity=".5" fill="url(#r)" stroke="#fff" stroke-width=".5" stroke-linecap="round" filter="url(#s)"/></g><g><rect width="72" height="48" rx="3" ry="3" x="12" y="24" fill="url(#t)"/><path d="M15 24c-1.662 0-3 1.338-3 3v27.125c19.088-7.92 44.274-12.888 72-13.313V27c0-1.662-1.338-3-3-3H15z" opacity=".15" fill="#d9c6ed"/><path d="M15 24c-1.662 0-3 1.338-3 3v42c0 1.662 1.338 3 3 3h66c1.662 0 3-1.338 3-3V27c0-1.662-1.338-3-3-3H15zm0 2h66c.58 0 1 .42 1 1v42c0 .58-.42 1-1 1H15c-.58 0-1-.42-1-1V27c0-.58.42-1 1-1z" opacity=".15"/><path d="M15 24c-1.662 0-3 1.338-3 3v42c0 1.662 1.338 3 3 3h66c1.662 0 3-1.338 3-3V27c0-1.662-1.338-3-3-3H15zm0 1h66c1.121 0 2 .879 2 2v42c0 1.121-.879 2-2 2H15c-1.121 0-2-.879-2-2V27c0-1.121.879-2 2-2z" opacity=".3"/><path d="M-77.313 27.844l-1.593 2.937h.344l1.593-2.937h-.344zm.938 0v2.75.093c-.001.028-.03.051-.031.063h.344c0-.005-.002-.01 0-.031.002-.022.03-.064.03-.094.003-.03 0-.059 0-.094.002-.036 0-.06 0-.093a.58.58 0 0 0 .25.28c.111.057.256.063.407.063a.652.652 0 0 0 .563-.281c.132-.184.187-.443.187-.813 0-.365-.06-.632-.188-.812a.644.644 0 0 0-.562-.281.836.836 0 0 0-.406.093c-.11.062-.188.176-.25.313.001-.03-.002-.091 0-.125.001-.029 0-.057 0-.094V27.844h-.344zm3.094 0v.375h.406v-.375h-.406zm5.562 0l-1.594 2.937h.344l1.594-2.937h-.344zm.938 0v2.75c-.002.039.001.065 0 .093-.002.028-.03.051-.031.063h.343c.002-.005-.001-.01 0-.031.003-.022.03-.064.031-.094.003-.03 0-.059 0-.094.002-.036 0-.06 0-.093a.58.58 0 0 0 .25.28c.111.057.256.063.407.063a.652.652 0 0 0 .562-.281c.133-.184.188-.443.188-.813 0-.365-.06-.632-.188-.812a.644.644 0 0 0-.562-.281.836.836 0 0 0-.406.093c-.11.062-.188.176-.25.313 0-.03-.002-.091 0-.125v-.094V27.844h-.344zm7.187 0v2.906h.344v-1.219c0-.105.034-.2.063-.281.028-.082.044-.164.093-.219a.545.545 0 0 1 .188-.125.532.532 0 0 1 .218-.031c.063 0 .136.016.188.031.052.016.087.022.125.063.04.039.073.088.094.156.022.066.031.177.031.281v1.344h.344v-1.406c0-.132 0-.25-.032-.344-.03-.094-.097-.159-.156-.219a.536.536 0 0 0-.218-.125c-.085-.028-.174-.062-.282-.062a.684.684 0 0 0-.406.125.687.687 0 0 0-.156.125c-.042.05-.063.095-.094.156.004-.06-.004-.122 0-.188s0-.122 0-.187v-.781h-.344zm-23.437.281l-.188.781h-.5v.219h.469l-.156.625h-.438v.219h.406l-.156.781h.219l.156-.781h.719l-.188.781h.22l.156-.781h.562v-.219h-.5l.125-.625h.469v-.219h-.406l.156-.781h-.219l-.156.781H-83l.156-.781h-.187zm2.5 0l.062 1.844h.281l.032-1.844h-.375zm9.969.469a.988.988 0 0 0-.25.031c-.07.018-.132.059-.188.094-.055.034-.082.075-.125.125-.042.05-.094.095-.125.156 0-.026.001-.056 0-.094-.001-.039.003-.088 0-.125v-.156h-.344c.002.01-.001.031 0 .063.002.03-.001.08 0 .125.002.042 0 .075 0 .125.002.048 0 .111 0 .156v1.656h.375v-1.219c0-.105.003-.2.031-.281a.673.673 0 0 1 .126-.219.435.435 0 0 1 .156-.125.532.532 0 0 1 .219-.031c.062 0 .135.016.187.031.052.016.087.022.125.063.04.039.073.088.094.156.022.066.031.177.031.281v1.344h.344v-1.406c0-.132-.002-.25-.031-.344a.515.515 0 0 0-.126-.219.527.527 0 0 0-.218-.125c-.084-.028-.173-.062-.281-.062zm6.968 0c-.14 0-.245.034-.343.062-.098.028-.185.043-.25.094a.582.582 0 0 0-.157.188.688.688 0 0 0-.062.218l.375.032c.008-.067.008-.114.031-.157a.259.259 0 0 1 .094-.093.452.452 0 0 1 .156-.063c.053-.01.091 0 .156 0 .073 0 .133.013.188.031.054.017.12.025.156.063.036.038.046.095.063.156a.748.748 0 0 1 .03.219v.125h-.468c-.11.001-.206.01-.313.031a.806.806 0 0 0-.28.094.65.65 0 0 0-.22.218c-.05.089-.062.205-.062.344 0 .196.052.357.156.469.104.112.263.156.469.156.096 0 .176-.01.25-.031a.649.649 0 0 0 .188-.094c.057-.039.111-.07.156-.125.044-.054.088-.12.125-.187.004.07.015.134.031.187.016.052.064.089.094.125.03.035.047.076.093.094a.614.614 0 0 0 .188.031c.05 0 .082-.026.125-.031.044-.005.08.01.125 0v-.219c-.018.004-.012-.002-.031 0-.02.003-.043 0-.063 0-.077 0-.129-.01-.156-.062a.627.627 0 0 1-.031-.25v-.907c0-.23-.087-.41-.219-.53-.13-.123-.333-.188-.594-.188zm2.469 0a.938.938 0 0 0-.594.187.526.526 0 0 0-.218.438c0 .1.023.185.062.25.04.065.092.113.156.156a.901.901 0 0 0 .219.094c.082.026.167.071.25.093.092.025.172.043.25.063.08.02.161.035.219.063a.326.326 0 0 1 .125.093c.034.04.031.091.031.157 0 .062-.004.113-.031.156-.026.041-.047.097-.094.125-.047.026-.122.02-.188.031-.063.01-.111.031-.187.031-.074 0-.155.007-.219 0-.064-.008-.107-.04-.156-.062a.352.352 0 0 1-.125-.094c-.034-.043-.078-.085-.094-.156l-.312.062a.704.704 0 0 0 .125.25c.05.067.113.116.187.157.074.04.153.045.25.062.1.018.222.031.344.031.137 0 .238-.001.344-.031a.873.873 0 0 0 .281-.125.578.578 0 0 0 .156-.219.527.527 0 0 0 .063-.25.51.51 0 0 0-.063-.281c-.047-.072-.113-.11-.187-.156a1.095 1.095 0 0 0-.25-.125c-.089-.028-.166-.042-.25-.063l-.25-.062c-.07-.018-.106-.038-.157-.063a.362.362 0 0 1-.124-.093.287.287 0 0 1-.063-.157c0-.196.181-.281.5-.281.06 0 .102-.008.156 0 .055.008.114.04.157.063.044.02.063.026.093.062.03.036.054.098.063.156l.312-.031a.645.645 0 0 0-.093-.25.484.484 0 0 0-.157-.156.83.83 0 0 0-.25-.094 1.285 1.285 0 0 0-.281-.031zm-12.75.031v.281h.625v1.563h-.813v.281h1.907v-.281h-.719v-1.844h-1zm-1.594.25c.086 0 .158-.001.219.031a.4.4 0 0 1 .156.157.692.692 0 0 1 .094.25c.02.104.031.229.031.375 0 .15-.009.299-.031.406a.717.717 0 0 1-.094.25.409.409 0 0 1-.156.156.507.507 0 0 1-.219.031.802.802 0 0 1-.25-.031.344.344 0 0 1-.156-.125.713.713 0 0 1-.125-.25 1.837 1.837 0 0 1-.031-.406c0-.162.005-.297.031-.407.026-.11.078-.183.125-.25.048-.067.087-.127.156-.156a.67.67 0 0 1 .25-.031zm9.594 0c.086 0 .158-.001.219.031a.4.4 0 0 1 .156.157.692.692 0 0 1 .094.25c.02.104.031.229.031.375 0 .15-.01.299-.031.406a.717.717 0 0 1-.094.25.409.409 0 0 1-.156.156.507.507 0 0 1-.219.031.802.802 0 0 1-.25-.031.344.344 0 0 1-.156-.125.713.713 0 0 1-.125-.25 1.837 1.837 0 0 1-.031-.406c0-.162.005-.297.03-.407.027-.11.079-.183.126-.25.048-.067.087-.127.156-.156a.67.67 0 0 1 .25-.031zm-17.156.25h.687l-.125.625h-.719l.157-.625zm19.281.594c.073-.01.147.001.219 0h.375v.156a.658.658 0 0 1-.032.219.706.706 0 0 1-.312.375.614.614 0 0 1-.281.062c-.112 0-.192-.028-.25-.093a.445.445 0 0 1-.094-.282.38.38 0 0 1 .063-.218c.036-.06.067-.125.124-.157a.523.523 0 0 1 .188-.062zm-16.781.625v.406h.375v-.406h-.375zm-1.719 9.093v1.126a.606.606 0 0 0-.25-.282c-.105-.056-.249-.062-.406-.062-.51 0-.75.357-.75 1.093 0 .365.064.632.187.813.124.181.3.281.563.281.157 0 .3-.032.406-.093a.69.69 0 0 0 .25-.313v.125c.001.038-.001.061 0 .094.003.032.029.07.031.093.003.024-.001.027 0 .032h.344c-.001-.012-.03-.035-.031-.063-.002-.028.001-.054 0-.093-.002-.04.001-.079 0-.126v-2.624h-.344zm1.781 0v.376h.375v-.376h-.375zm7.938 0l-1.594 2.938h.375l1.594-2.938h-.375zm.937 0v2.907h.375v-1.219c0-.105.003-.2.031-.281.03-.082.076-.133.126-.188.05-.056.09-.127.156-.156a.532.532 0 0 1 .219-.031c.062 0 .135.015.187.031.052.016.087.022.125.063.04.039.073.12.094.187a.79.79 0 0 1 .031.25v1.344h.344v-1.407c0-.131 0-.25-.031-.343a.515.515 0 0 0-.126-.219.536.536 0 0 0-.218-.125 1.04 1.04 0 0 0-.313-.063.684.684 0 0 0-.406.125c-.053.034-.083.076-.125.125-.042.05-.094.096-.125.157.004-.06-.004-.123 0-.188.004-.066.031-.122.031-.187v-.782h-.375zm11.063 0l-1.594 2.938h.344l1.593-2.938h-.343zm14.406 0l-1.625 2.938h.375l1.594-2.938h-.344zm1.375.25l-.125.563h-.313v.25h.313v1.313c0 .192.05.347.156.437.106.089.29.125.5.125.07 0 .121.006.188 0 .066-.006.131-.022.187-.031a2.35 2.35 0 0 0 .282-.063v-.25c-.032.007-.08-.008-.126 0-.044.008-.104.025-.156.032-.05.006-.1.026-.156.03-.055.005-.104 0-.156 0-.127 0-.226-.012-.282-.062-.054-.05-.062-.147-.062-.25V40.5h.844v-.25h-.844v-.563h-.25zm-4.406.032a.697.697 0 0 1-.157.187c-.062.055-.138.085-.218.125-.081.04-.157.072-.25.094a1.194 1.194 0 0 1-.282.031v.282c.086 0 .158.019.25 0 .093-.021.201-.06.282-.094.082-.034.156-.08.218-.125a.412.412 0 0 0 .126-.157v2h-.876v.282h1.907v-.282h-.688V39.72h-.312zm-28.344.468c-.107 0-.206.038-.281.063a.54.54 0 0 0-.188.094c-.054.045-.116.09-.156.156-.04.065-.057.138-.094.219h-.031c-.003-.038.006-.081 0-.125-.006-.045-.022-.082-.031-.125-.01-.045-.021-.085-.031-.125-.01-.04-.023-.063-.032-.094h-.312c.008.031.02.072.031.125.012.053.02.089.031.156.01.067.024.143.031.219.008.076 0 .146 0 .219v1.375h.344v-1c0-.115.031-.211.063-.313a.727.727 0 0 1 .344-.437.717.717 0 0 1 .312-.063c.08 0 .152-.008.219 0 .067.007.126.021.187.032v-.344c-.054-.01-.117.006-.187 0-.07-.007-.146-.032-.219-.032zm9.156 0c-.302 0-.553.098-.719.282-.164.182-.218.449-.218.812 0 .186.018.362.062.5a.958.958 0 0 0 .188.344.678.678 0 0 0 .281.188c.116.044.264.062.406.062a.994.994 0 0 0 .375-.063.776.776 0 0 0 .313-.187.92.92 0 0 0 .187-.344c.045-.138.063-.315.063-.5 0-.367-.064-.631-.219-.812-.155-.181-.401-.281-.719-.282zm2.125 0c-.06 0-.11.01-.156.032a.571.571 0 0 0-.219.219 1.184 1.184 0 0 0-.062.156c0-.026.001-.058 0-.094v-.125c-.002-.035.001-.068 0-.094-.002-.027.001-.024 0-.031h-.313c.002.01.03.031.031.063.002.03 0 .049 0 .093.002.043 0 .107 0 .157.002.048 0 .08 0 .124v1.657h.313v-1.188c0-.105.018-.196.031-.281a.935.935 0 0 1 .063-.219c.024-.06.06-.092.094-.125.033-.034.05-.062.093-.062.042 0 .098.013.125.031.029.017.046.05.063.094a.539.539 0 0 1 .031.156c.008.069 0 .147 0 .25v1.344h.344v-1.219c0-.219.013-.39.062-.5.051-.11.133-.156.219-.156.042 0 .066.013.094.031.028.017.045.05.062.094.018.041.055.087.063.156s0 .147 0 .25v1.344h.312v-1.407c0-.131.016-.25 0-.343-.014-.094-.06-.16-.094-.219a.29.29 0 0 0-.124-.125c-.055-.029-.109-.063-.188-.063a.439.439 0 0 0-.156.032c-.047.017-.089.06-.125.093-.037.033-.097.046-.125.094-.028.047-.04.127-.063.188-.024-.13-.067-.25-.125-.313-.056-.062-.135-.093-.25-.093zm2.688 0c-.125 0-.26.027-.375.063a.82.82 0 0 0-.313.188c-.087.084-.135.205-.187.343-.051.138-.094.297-.094.5 0 .184.02.33.063.469.044.138.105.283.187.375.082.092.194.14.313.188.118.046.256.062.406.062.135 0 .245-.001.343-.031a.954.954 0 0 0 .25-.125c.07-.048.146-.098.188-.157a.814.814 0 0 0 .094-.187l-.313-.063c-.015.047-.06.085-.093.126-.033.039-.077.065-.126.093a.603.603 0 0 1-.156.063c-.06.015-.116.031-.187.031a.55.55 0 0 1-.438-.219c-.05-.067-.1-.126-.125-.218a1.253 1.253 0 0 1-.031-.313h1.5v-.063c0-.166.003-.299-.031-.437a1.028 1.028 0 0 0-.157-.375c-.074-.099-.194-.164-.312-.219a.895.895 0 0 0-.406-.093zm9.593 0c-.125 0-.26.027-.374.063a.82.82 0 0 0-.313.188c-.087.084-.135.205-.188.343-.05.138-.093.297-.093.5 0 .184.02.33.062.469.045.138.106.283.188.375.082.092.194.14.312.188.119.046.257.062.407.062.135 0 .244-.001.343-.031a.954.954 0 0 0 .25-.125c.07-.048.146-.098.188-.157a.814.814 0 0 0 .093-.187l-.312-.063c-.016.047-.061.085-.094.126-.032.039-.045.065-.093.093-.049.029-.127.046-.188.063-.06.015-.116.031-.188.031a.55.55 0 0 1-.437-.219c-.05-.067-.1-.126-.125-.218a1.253 1.253 0 0 1-.031-.313h1.5v-.063c0-.166.002-.299-.032-.437a1.028 1.028 0 0 0-.156-.375c-.074-.099-.194-.164-.312-.219a.895.895 0 0 0-.407-.093zm2.813 0c-.107 0-.206.038-.281.063a.54.54 0 0 0-.188.094.575.575 0 0 0-.125.156c-.04.065-.088.138-.125.219-.002-.038-.024-.081-.031-.125-.006-.045-.022-.082-.031-.125-.01-.045-.021-.085-.032-.125-.009-.04.01-.063 0-.094h-.343c.008.031.02.072.031.125.012.053.02.089.031.156.01.067.024.143.032.219.007.076 0 .146 0 .219v1.375h.343v-1c0-.115.032-.211.063-.313a.727.727 0 0 1 .343-.437.717.717 0 0 1 .313-.063c.08 0 .152-.008.219 0 .067.007.126.021.187.032v-.344c-.054-.01-.117.006-.187 0-.07-.007-.146-.032-.219-.032zm8.875 0c-.06 0-.11.01-.156.032a.42.42 0 0 0-.125.093c-.033.036-.04.079-.063.126a1.184 1.184 0 0 0-.062.156c0-.026.001-.058 0-.094 0-.036-.03-.091-.032-.125 0-.035.002-.068 0-.094 0-.027.002-.024 0-.031h-.28c0 .01-.002.031 0 .063 0 .03-.002.049 0 .093V42.344h.343v-1.188c0-.105.018-.196.031-.281.013-.086.007-.159.032-.219.024-.06.06-.092.093-.125.034-.034.082-.062.125-.062.042 0 .067.013.094.031.029.017.046.05.063.094.018.041.054.087.062.156s0 .147 0 .25v1.344h.313v-1.219c0-.219.044-.39.093-.5.051-.11.102-.156.188-.156.041 0 .097.013.125.031.028.017.045.05.062.094a.539.539 0 0 1 .032.156c.007.069 0 .147 0 .25v1.344h.343v-1.407c0-.131-.015-.25-.031-.343a.615.615 0 0 0-.063-.219.29.29 0 0 0-.124-.125.507.507 0 0 0-.22-.063.439.439 0 0 0-.156.032c-.046.017-.088.06-.124.093-.037.033-.066.046-.094.094a1.48 1.48 0 0 0-.094.188c-.025-.13-.068-.25-.125-.313-.056-.062-.135-.093-.25-.093zm2.844 0a.923.923 0 0 0-.219.032.647.647 0 0 0-.313.188c-.04.049-.06.119-.093.187h-.032c0-.034.003-.086 0-.125 0-.04.003-.06 0-.094 0-.034.003-.07 0-.094 0-.024.002-.027 0-.031h-.343c.001.012-.002.004 0 .031.001.028-.002.086 0 .125v2.782h.343v-.844c0-.038.002-.056 0-.094 0-.038.002-.095 0-.125 0-.03.002-.043 0-.063.028.056.088.085.126.126.044.045.1.096.156.124.056.03.122.05.187.063.065.013.116 0 .188 0 .143 0 .277-.008.375-.063.097-.055.159-.152.218-.25.06-.097.1-.208.126-.343.026-.136.062-.278.062-.438 0-.163-.036-.303-.063-.437a.993.993 0 0 0-.124-.344.56.56 0 0 0-.22-.219.817.817 0 0 0-.374-.093zm-16.938.032c-.261 0-.455.048-.593.156a.526.526 0 0 0-.22.438c0 .1.024.184.063.25.04.065.093.113.157.156a.901.901 0 0 0 .218.093c.082.027.167.072.25.094.093.025.172.043.25.063.08.02.162.035.219.062a.326.326 0 0 1 .125.094c.034.04.063.091.063.156 0 .063-.004.114-.032.157a.424.424 0 0 1-.125.124c-.047.027-.09.051-.156.063-.064.01-.143 0-.219 0-.074 0-.155.006-.218 0-.064-.008-.107-.04-.157-.063a.352.352 0 0 1-.125-.093.345.345 0 0 1-.062-.157l-.313.063a.676.676 0 0 0 .094.25c.05.066.113.116.188.156.074.04.152.077.25.094.098.018.22 0 .343 0 .137 0 .27-.001.375-.031a.704.704 0 0 0 .25-.125.667.667 0 0 0 .188-.219c.039-.08.031-.151.031-.25h.031a.518.518 0 0 0-.093-.281c-.047-.072-.114-.11-.188-.157-.073-.045-.129-.097-.219-.124-.088-.028-.196-.042-.281-.063-.085-.022-.148-.046-.219-.063a1.052 1.052 0 0 1-.187-.062.362.362 0 0 1-.125-.094c-.028-.038-.032-.096-.032-.156 0-.197.15-.281.47-.281.06 0 .132-.008.187 0 .054.008.082.04.125.062.044.021.095.026.125.063.03.036.053.097.062.156l.313-.031a.645.645 0 0 0-.094-.25.59.59 0 0 0-.188-.157.83.83 0 0 0-.25-.093c-.09-.02-.178 0-.28 0zm-24.718.031v.25h.624v1.563h-.812v.28h1.906v-.28h-.75V40.25h-.969zm21.468 0v1.406c0 .13.007.218.032.313.026.093.07.19.124.25.055.06.135.096.22.125a.833.833 0 0 0 .28.031c.092 0 .181.02.25 0 .07-.018.135-.06.188-.094.053-.035.116-.075.156-.125.04-.05.06-.095.094-.156 0 .026-.001.055 0 .094v.093c.003.037.03.097.031.126.002.028-.001.024 0 .03h.313c-.002-.008.001-.03 0-.062-.002-.031.001-.05 0-.093-.002-.045.001-.109 0-.157V40.25h-.344v1.219c0 .105-.036.199-.063.281a.463.463 0 0 1-.093.188.533.533 0 0 1-.188.124c-.066.03-.135.063-.218.063a.573.573 0 0 1-.188-.031.373.373 0 0 1-.156-.094.358.358 0 0 1-.063-.156 1.481 1.481 0 0 1-.031-.282V40.25h-.344zm-16.906.125v.313h1.938v-.313H-76.5zm-6.313.094c.09 0 .181.004.25.031.07.027.11.094.157.156.047.063.101.116.125.219.024.102.031.255.031.406 0 .157-.006.266-.031.375a.814.814 0 0 1-.125.282c-.047.067-.086.124-.156.156-.07.031-.16.031-.25.031-.088 0-.157 0-.22-.031a.409.409 0 0 1-.156-.157.766.766 0 0 1-.093-.25 2.172 2.172 0 0 1-.031-.374c0-.152.01-.301.03-.407a.733.733 0 0 1 .094-.25.409.409 0 0 1 .157-.156.504.504 0 0 1 .219-.031zm14.47 0a.59.59 0 0 1 .218.031.399.399 0 0 1 .188.125c.05.064.097.143.124.25.03.107.032.242.032.406 0 .164-.002.298-.031.407a.804.804 0 0 1-.126.28.402.402 0 0 1-.187.126.813.813 0 0 1-.25.031.459.459 0 0 1-.188-.031.43.43 0 0 1-.187-.125.896.896 0 0 1-.125-.282 1.472 1.472 0 0 1-.063-.406c0-.16.034-.268.063-.375a.867.867 0 0 1 .125-.281.399.399 0 0 1 .188-.125.568.568 0 0 1 .218-.031zm4.812 0c.07 0 .123.01.187.031.064.02.138.044.188.094.05.05.09.105.125.187.034.082.052.19.062.313h-1.156a.805.805 0 0 1 .063-.313.565.565 0 0 1 .343-.281.666.666 0 0 1 .188-.031zm9.593 0c.07 0 .124.01.188.031.064.02.138.044.188.094.05.05.09.105.124.187s.053.19.063.313h-1.156a.805.805 0 0 1 .062-.313.565.565 0 0 1 .344-.281.666.666 0 0 1 .188-.031zm14.438 0c.095 0 .188.026.25.062a.392.392 0 0 1 .156.157c.04.069.047.148.063.25.015.101.031.213.031.343 0 .136-.014.27-.031.375-.016.106-.024.179-.063.25a.392.392 0 0 1-.156.157.521.521 0 0 1-.25.062.55.55 0 0 1-.219-.031.415.415 0 0 1-.187-.125.702.702 0 0 1-.094-.25c-.023-.103-.063-.257-.063-.407 0-.175.034-.294.063-.406a.833.833 0 0 1 .125-.281c.05-.064.089-.102.156-.125a.636.636 0 0 1 .219-.031zm-37 .906v.313h1.938v-.313H-76.5zm3.844 3.875v.875c.001.029 0 .061 0 .094v.156a.606.606 0 0 0-.25-.281.883.883 0 0 0-.406-.094c-.51 0-.75.388-.75 1.125 0 .365.063.632.187.813.124.18.3.25.563.25.157 0 .3-.002.406-.063a.69.69 0 0 0 .25-.313c0 .034-.002.056 0 .094.001.038-.002.093 0 .125.002.033.028.04.031.063.003.023-.001.057 0 .062h.344c-.002-.011-.03-.035-.031-.062-.002-.029 0-.055 0-.094-.002-.04 0-.078 0-.125V45.25h-.344zm1.781 0v.375h.375v-.375h-.375zm5.563 0l-1.626 2.938h.376l1.593-2.938h-.344zm1.624 0l.032.594-.532-.219-.062.25.531.156-.375.469.25.156.282-.5.312.5.219-.125-.344-.5.531-.156-.093-.25-.5.219.03-.594h-.28zm15.157 0l-1.594 2.938h.344l1.593-2.938h-.343zm.937 0v2.906h.344v-1.218c0-.106.003-.201.031-.282a.673.673 0 0 1 .125-.218.545.545 0 0 1 .188-.126.532.532 0 0 1 .218-.03c.063 0 .105-.016.157 0a.393.393 0 0 1 .156.093c.04.04.042.089.063.156a.79.79 0 0 1 .03.25v1.375h.376V46.75c0-.132-.032-.25-.063-.344a.515.515 0 0 0-.125-.218.602.602 0 0 0-.218-.157.863.863 0 0 0-.282-.031.765.765 0 0 0-.218.031c-.068.018-.135.028-.188.063a.687.687 0 0 0-.156.125c-.042.05-.063.126-.094.187.004-.06-.004-.122 0-.187.004-.067 0-.154 0-.219v-.75h-.344zm11.063 0l-1.625 2.938h.375l1.593-2.938h-.343zm-39.125.031v.25c-.121.004-.241.005-.344.032a.74.74 0 0 0-.25.124.561.561 0 0 0-.188.188.594.594 0 0 0-.062.281c0 .082.012.155.031.219.021.063.058.108.094.156a.632.632 0 0 0 .125.125c.05.035.099.068.156.094.058.025.124.043.188.063.064.018.123.046.187.062h.031c.01.003.021-.003.032 0v.969c-.1-.005-.177-.037-.25-.063-.073-.027-.137-.05-.188-.093a.556.556 0 0 1-.187-.344l-.344.062a.815.815 0 0 0 .313.5c.158.12.376.21.656.219v.313h.25v-.313c.155-.006.293-.026.406-.063a.866.866 0 0 0 .281-.156.57.57 0 0 0 .156-.218.81.81 0 0 0 .031-.531.576.576 0 0 0-.093-.188c-.042-.054-.099-.087-.156-.125a1.05 1.05 0 0 0-.188-.094c-.066-.029-.144-.043-.219-.063-.074-.02-.143-.044-.218-.062v-.844c.077.005.161.01.219.032.057.02.084.055.124.093a.36.36 0 0 1 .094.125c.026.051.05.125.063.188l.344-.063c-.027-.099-.053-.205-.094-.281a.576.576 0 0 0-.156-.188.776.776 0 0 0-.25-.124c-.094-.03-.211-.027-.344-.032v-.25h-.25zm50.469.188a.952.952 0 0 0-.344.062.852.852 0 0 0-.282.157.654.654 0 0 0-.156.218.918.918 0 0 0-.093.282l.343.03a.53.53 0 0 1 .063-.187.53.53 0 0 1 .468-.281c.077 0 .157.013.22.031.063.017.11.056.155.094.047.036.1.068.125.125a.566.566 0 0 1-.062.5 1.452 1.452 0 0 1-.219.25 3.699 3.699 0 0 1-.281.25c-.107.086-.206.186-.313.281-.105.094-.218.175-.312.282a1.528 1.528 0 0 0-.219.374v.22h1.844v-.282h-1.406a.983.983 0 0 1 .187-.281c.084-.085.149-.167.25-.25.102-.084.206-.166.313-.25.107-.085.225-.157.312-.25.089-.094.163-.209.219-.313a.711.711 0 0 0 .063-.343.765.765 0 0 0-.063-.313.52.52 0 0 0-.156-.219.774.774 0 0 0-.282-.125 1.36 1.36 0 0 0-.375-.062zm-50.47.312v.813c-.07-.018-.126-.043-.187-.063-.06-.02-.11-.032-.156-.062a.457.457 0 0 1-.125-.125.411.411 0 0 1-.031-.188c0-.05.014-.08.031-.125a.446.446 0 0 1 .25-.219.735.735 0 0 1 .219-.03zM-83.03 46c-.06 0-.11.01-.156.031-.046.02-.06.059-.094.094a.571.571 0 0 0-.094.125c-.023.046-.046.074-.063.125 0-.026.002-.057 0-.094 0-.036.002-.06 0-.093 0-.036.002-.068 0-.094 0-.028-.03-.056-.03-.063h-.282v.313c.001.048.031.112.031.156v1.656h.313V46.97c0-.106.018-.197.031-.282a.935.935 0 0 1 .063-.218c.024-.061.028-.124.062-.157s.082-.03.125-.03c.042 0 .066.012.094.03.028.017.077.02.094.063.018.042.023.118.03.188.009.069 0 .147 0 .25v1.343h.344v-1.218c0-.22.014-.391.063-.5.05-.11.133-.157.219-.157.041 0 .066.013.094.032.028.016.045.019.062.062.018.042.023.118.031.188.008.069.031.147.031.25v1.343h.313V46.75c0-.132-.016-.25-.031-.344a.615.615 0 0 0-.063-.218c-.034-.06-.07-.128-.125-.157a.514.514 0 0 0-.219-.031.439.439 0 0 0-.156.031c-.047.017-.088.03-.125.063a.523.523 0 0 0-.094.125c-.027.047-.039.095-.062.156a.555.555 0 0 0-.125-.281c-.056-.063-.167-.094-.281-.094zm15.125 0a.952.952 0 0 0-.281.031c-.076.025-.132.08-.188.125-.055.046-.116.091-.156.157-.04.065-.058.138-.094.218h-.031c-.003-.038.006-.08 0-.125-.007-.044-.022-.082-.031-.125-.01-.044-.021-.084-.032-.125a2.498 2.498 0 0 0-.031-.125h-.313c.008.032.02.072.032.125.011.054.02.12.031.188.01.066.023.143.031.218.008.076 0 .146 0 .22v1.374h.344v-1c0-.114.031-.21.063-.312.032-.102.065-.206.124-.282a.659.659 0 0 1 .22-.187.717.717 0 0 1 .312-.063c.08 0 .152.024.219.032.067.006.126-.01.187 0v-.313c-.055-.009-.117-.024-.188-.031-.07-.006-.145 0-.218 0zm9.156 0c-.262 0-.456.048-.594.156-.138.108-.187.278-.187.469 0 .1.023.185.062.25.04.065.093.113.157.156a.9.9 0 0 0 .218.094c.082.026.167.04.25.063.093.024.172.074.25.093.08.02.13.035.188.063.057.027.123.053.156.093.034.04.031.092.031.157 0 .062-.004.113-.031.156-.026.042-.078.066-.125.094-.047.026-.091.05-.156.062-.064.01-.143.032-.219.032-.074 0-.124-.025-.188-.032-.063-.008-.138-.009-.187-.031a.352.352 0 0 1-.125-.094c-.034-.043-.047-.116-.063-.187l-.312.062a.676.676 0 0 0 .094.25c.05.067.113.116.187.157.074.04.184.076.282.093.098.018.19.032.312.032.137 0 .27-.002.375-.032a.873.873 0 0 0 .281-.125.578.578 0 0 0 .157-.218.527.527 0 0 0 .062-.25.518.518 0 0 0-.094-.282c-.047-.071-.082-.142-.156-.187-.073-.046-.16-.067-.25-.094-.089-.027-.165-.042-.25-.063l-.25-.062a1.052 1.052 0 0 1-.188-.063.362.362 0 0 1-.124-.093c-.028-.038-.032-.097-.032-.157 0-.196.15-.28.469-.28.06 0 .133-.009.188 0 .054.007.113.008.156.03.044.021.064.058.093.094.03.037.054.098.063.157l.313-.063a.506.506 0 0 0-.282-.375.65.65 0 0 0-.218-.094c-.09-.02-.21-.031-.313-.031zm4.656 0a.885.885 0 0 0-.375.063.57.57 0 0 0-.218.218 1.02 1.02 0 0 0-.157.344 2.466 2.466 0 0 0-.031.469c0 .176.004.306.031.437.029.132.097.257.157.344.06.087.124.145.218.188.094.042.211.062.344.062.094 0 .178-.01.25-.031a.702.702 0 0 0 .188-.094.518.518 0 0 0 .124-.125.815.815 0 0 0 .094-.156v.375a.986.986 0 0 1-.031.281.462.462 0 0 1-.094.188.414.414 0 0 1-.156.124.497.497 0 0 1-.188.032.46.46 0 0 1-.28-.094.368.368 0 0 1-.157-.219l-.375.063c.017.078.055.123.094.187.04.064.092.142.156.188.065.047.161.069.25.093.09.025.164.032.281.032.288 0 .518-.07.657-.219.138-.148.218-.36.218-.656v-1.75c.002-.048-.001-.117 0-.157.002-.039-.001-.066 0-.093.002-.029-.001-.051 0-.063h-.343c-.002.004.003.037 0 .063-.003.026.002.057 0 .093s.002.054 0 .094-.032.093-.032.125a.714.714 0 0 0-.25-.312.665.665 0 0 0-.375-.094zm9.719 0c-.302 0-.522.098-.688.281-.164.183-.25.45-.25.813 0 .186.019.362.063.5a.818.818 0 0 0 .188.312.86.86 0 0 0 .312.219c.116.044.233.063.375.063.148 0 .29-.019.406-.063a.736.736 0 0 0 .282-.219.92.92 0 0 0 .187-.343c.044-.139.094-.284.094-.47 0-.366-.095-.63-.25-.812-.155-.18-.401-.281-.719-.281zm2.125 0c-.06 0-.11.01-.156.031a.42.42 0 0 0-.125.094c-.033.035-.04.078-.063.125-.023.046-.045.074-.062.125 0-.026.001-.057 0-.094 0-.036-.03-.06-.032-.093 0-.036.002-.068 0-.094 0-.028.002-.056 0-.063h-.28c0 .01-.002.032 0 .063 0 .031-.002.08 0 .125V48.156h.343V46.97c0-.106.018-.197.031-.282.013-.085.007-.158.032-.218a.492.492 0 0 1 .093-.157c.034-.033.082-.03.125-.03.042 0 .067.012.094.03.029.017.046.02.063.063.018.042.054.118.062.188.008.069 0 .147 0 .25v1.343h.313v-1.218c0-.22.044-.391.093-.5.051-.11.102-.157.188-.157.041 0 .097.013.125.032.028.016.045.019.062.062.018.042.024.118.032.188.007.069 0 .147 0 .25v1.343h.343V46.75c0-.132-.015-.25-.031-.344a.615.615 0 0 0-.063-.218c-.033-.06-.07-.128-.124-.157a.514.514 0 0 0-.22-.031.439.439 0 0 0-.156.031c-.046.017-.088.03-.124.063a.523.523 0 0 0-.094.125c-.028.047-.07.095-.094.156a.555.555 0 0 0-.125-.281c-.056-.063-.135-.094-.25-.094zm2.688 0c-.126 0-.23.026-.344.063a.82.82 0 0 0-.313.187.826.826 0 0 0-.218.313c-.051.138-.063.328-.063.53 0 .184.02.33.063.47a.844.844 0 0 0 .5.563.946.946 0 0 0 .374.062c.136 0 .277-.002.376-.032a.954.954 0 0 0 .25-.125.614.614 0 0 0 .156-.156.814.814 0 0 0 .093-.188l-.312-.093a.364.364 0 0 1-.063.125c-.032.039-.076.096-.124.125a.603.603 0 0 1-.157.062.952.952 0 0 1-.218.032.55.55 0 0 1-.438-.22c-.05-.067-.069-.157-.094-.25a1.253 1.253 0 0 1-.031-.312h1.5v-.031a2 2 0 0 0-.063-.469.879.879 0 0 0-.156-.343.693.693 0 0 0-.281-.22 1.04 1.04 0 0 0-.438-.093zm7.218 0c-.261 0-.455.048-.593.156a.586.586 0 0 0-.22.469c0 .1.024.185.063.25.04.065.093.113.157.156a.9.9 0 0 0 .218.094c.082.026.167.04.25.063.093.024.172.074.25.093.08.02.162.035.219.063a.326.326 0 0 1 .125.093c.034.04.031.092.031.157 0 .062-.004.113-.031.156a.24.24 0 0 1-.094.094.675.675 0 0 1-.187.062c-.064.01-.112.032-.188.032-.074 0-.155-.025-.218-.032-.064-.008-.107-.009-.157-.031a.352.352 0 0 1-.125-.094.507.507 0 0 1-.093-.187l-.313.062a.704.704 0 0 0 .125.25c.05.067.113.116.188.157.074.04.152.076.25.093.098.018.22.032.343.032.137 0 .239-.002.344-.032a.873.873 0 0 0 .281-.125.578.578 0 0 0 .157-.218.527.527 0 0 0 .062-.25.51.51 0 0 0-.063-.282.628.628 0 0 0-.187-.187c-.073-.046-.16-.067-.25-.094-.089-.027-.165-.042-.25-.063l-.25-.062c-.07-.018-.105-.038-.156-.063a.362.362 0 0 1-.125-.093.287.287 0 0 1-.063-.157c0-.196.181-.28.5-.28.06 0 .102-.009.157 0 .054.007.113.008.156.03.044.021.064.058.093.094.03.037.054.098.063.157l.313-.063a.506.506 0 0 0-.094-.219.484.484 0 0 0-.157-.156.83.83 0 0 0-.25-.094 1.285 1.285 0 0 0-.28-.031zm2.375 0c-.125 0-.229.026-.343.063a.82.82 0 0 0-.313.187.826.826 0 0 0-.219.313c-.05.138-.062.328-.062.53 0 .184.02.33.062.47a.844.844 0 0 0 .5.563.946.946 0 0 0 .375.062c.136 0 .276-.002.375-.032a.954.954 0 0 0 .25-.125.614.614 0 0 0 .157-.156.814.814 0 0 0 .093-.188l-.312-.093a.364.364 0 0 1-.063.125c-.032.039-.077.096-.125.125a.603.603 0 0 1-.156.062.952.952 0 0 1-.219.032.55.55 0 0 1-.437-.22c-.05-.067-.07-.157-.094-.25a1.253 1.253 0 0 1-.031-.312h1.5v-.031a2 2 0 0 0-.063-.469.879.879 0 0 0-.156-.343.693.693 0 0 0-.281-.22A1.04 1.04 0 0 0-29.97 46zm2.844 0a.952.952 0 0 0-.281.031c-.076.025-.132.08-.188.125-.054.046-.116.091-.156.157-.04.065-.089.138-.125.218-.003-.038.006-.08 0-.125-.006-.044-.022-.082-.031-.125-.01-.044-.021-.084-.032-.125a2.498 2.498 0 0 0-.03-.125h-.345c.008.032.02.072.032.125.011.054.02.12.031.188.01.066.023.143.031.218.008.076.032.146.032.22v1.374h.343v-1c0-.114 0-.21.032-.312a.95.95 0 0 1 .156-.282.585.585 0 0 1 .5-.25c.08 0 .152.024.218.032.068.006.158-.01.22 0v-.313c-.055-.009-.118-.024-.188-.031-.07-.006-.146 0-.219 0zm-54.281.031l.844 2.125h.406l.875-2.125h-.375l-.563 1.375c-.01.029-.017.084-.031.125-.013.04-.018.082-.031.125-.013.043-.018.084-.031.125-.012.04-.024.067-.032.094-.008-.027-.02-.053-.031-.094-.01-.041-.018-.08-.031-.125-.013-.044-.051-.084-.063-.125-.011-.041-.02-.096-.031-.125l-.5-1.375h-.406zm9.937 0v.282h.625v1.562h-.812v.281h1.906v-.281h-.75v-1.844h-.969zm14.063 0l.843 2.125h.407l.875-2.125h-.407l-.53 1.375c-.011.029-.018.084-.032.125-.013.04-.05.082-.063.125-.013.043-.018.084-.03.125-.012.04-.024.067-.032.094-.008-.027-.02-.053-.031-.094-.01-.041-.018-.08-.032-.125-.013-.044-.019-.084-.03-.125-.012-.041-.022-.096-.032-.125l-.531-1.375h-.375zm21.812 0v1.407c0 .13.007.248.032.343.026.094.07.16.124.219.055.06.103.128.188.156.085.029.195.032.313.032a.957.957 0 0 0 .25-.032c.069-.018.134-.028.187-.062.053-.035.085-.076.125-.125.04-.05.091-.127.125-.188 0 .026-.001.055 0 .094V48c.003.036-.001.065 0 .094v.062h.344c-.002-.009.001-.031 0-.062-.002-.032.001-.082 0-.125-.002-.045.001-.077 0-.125V46.03h-.375v1.219a.94.94 0 0 1-.032.281.654.654 0 0 1-.124.219.419.419 0 0 1-.157.125.534.534 0 0 1-.218.031c-.083 0-.163.017-.22 0a.273.273 0 0 1-.124-.093.528.528 0 0 1-.094-.188c-.014-.069 0-.147 0-.25v-1.344h-.344zm-8.75.219c.084 0 .15.036.219.063a.399.399 0 0 1 .188.124c.05.064.066.144.093.25.029.107.063.243.063.407 0 .164-.033.298-.063.406a.643.643 0 0 1-.125.25.476.476 0 0 1-.187.156.622.622 0 0 1-.219.032.619.619 0 0 1-.219-.032.516.516 0 0 1-.187-.156.712.712 0 0 1-.125-.25 1.611 1.611 0 0 1-.032-.406c0-.16.003-.3.032-.407a.69.69 0 0 1 .125-.25.399.399 0 0 1 .187-.124.75.75 0 0 1 .25-.063zm4.782 0c.07 0 .154.01.218.031.064.021.107.076.157.125.05.05.09.106.124.188s.053.19.063.312h-1.125a.805.805 0 0 1 .063-.312c.039-.084.069-.17.124-.219a.48.48 0 0 1 .188-.094.666.666 0 0 1 .188-.031zm9.593 0c.07 0 .155.01.219.031.064.021.107.076.156.125.051.05.091.106.125.188s.052.19.063.312h-1.125a.805.805 0 0 1 .062-.312c.04-.084.07-.17.125-.219a.48.48 0 0 1 .188-.094.666.666 0 0 1 .187-.031zm-43.25.031c.09 0 .181.004.25.032.07.027.11.062.156.124a.672.672 0 0 1 .126.25c.024.102.03.224.03.376 0 .156-.006.296-.03.406a.814.814 0 0 1-.126.281.318.318 0 0 1-.156.125.632.632 0 0 1-.25.063.474.474 0 0 1-.219-.063.409.409 0 0 1-.156-.156.766.766 0 0 1-.094-.25 2.172 2.172 0 0 1-.03-.375c0-.151.01-.27.03-.375a.733.733 0 0 1 .094-.25.409.409 0 0 1 .156-.157.504.504 0 0 1 .22-.03zm19.219 0c.069 0 .122.003.188.032.066.028.136.06.187.124a.725.725 0 0 1 .125.25c.031.103.031.228.031.376 0 .145.002.273-.031.374a.737.737 0 0 1-.125.25.475.475 0 0 1-.188.126c-.066.027-.118.062-.187.062a.778.778 0 0 1-.25-.031c-.063-.026-.115-.095-.156-.157-.04-.06-.043-.117-.063-.218a2.356 2.356 0 0 1-.031-.407c0-.147.012-.273.031-.374.02-.103.021-.187.063-.25.041-.066.123-.097.187-.126a.498.498 0 0 1 .219-.03zm-21.406.657c.075.019.15.04.219.062.069.02.135.029.187.063a.37.37 0 0 1 .125.124c.031.053.031.137.031.22a.39.39 0 0 1-.031.187.37.37 0 0 1-.125.125.603.603 0 0 1-.188.093.994.994 0 0 1-.218.032v-.907zm14.031.624v.594h.438v-.593h-.438zm-14.313 3.5l.032.563-.5-.188-.094.25.531.157-.375.468.25.157.313-.5.281.5.219-.157-.344-.468.531-.157-.062-.25-.531.188.03-.563h-.28zm19.97 0L-57.345 54h.375l1.594-2.938h-.344zm2.25 0v1.063c-.063-.116-.15-.166-.25-.219a.883.883 0 0 0-.407-.093c-.51 0-.75.356-.75 1.093 0 .365.064.632.188.813.123.18.299.281.562.281.158 0 .3-.033.406-.094a.6.6 0 0 0 .25-.281c0 .034-.001.056 0 .094.002.038-.001.06 0 .093.003.033.029.07.032.094.002.024-.002.026 0 .032h.343c-.001-.012-.03-.004-.031-.032v-2.843h-.344zm7.343 0L-47.75 54h.375l1.594-2.938h-.344zm5.875 0v.282h.563v2.343h-.813v.25h1.906v-.25h-.718v-2.624h-.938zm2.406 0v.282h.563v2.343h-.813v.25h1.907v-.25h-.75v-2.624h-.907zm-33.281.22l-.125.562h-.313v.281h.313v1.313c0 .192.05.316.156.406.106.088.258.125.469.125.07 0 .152.006.219 0 .066-.007.131-.022.187-.032.058-.009.11-.02.156-.03.046-.011.066.007.094 0v-.282c-.031.006-.048.023-.094.031-.044.008-.104-.006-.156 0-.05.007-.1.026-.156.032-.055.003-.104 0-.156 0-.127 0-.226-.014-.281-.063a.35.35 0 0 1-.094-.25v-1.25h.844v-.281h-.844v-.563h-.219zm4.781 0l-.094.562h-.343v.281h.344v1.313c0 .192.05.316.156.406.105.088.258.125.469.125.07 0 .12.006.187 0 .066-.007.132-.022.188-.032.057-.009.11-.02.156-.03.045-.011.096.007.125 0v-.282c-.032.006-.08.023-.125.031s-.104-.006-.156 0c-.051.007-.1.026-.157.032-.054.003-.104 0-.156 0-.126 0-.225-.014-.281-.063-.055-.05-.063-.147-.063-.25v-1.25h.844v-.281h-.844v-.563h-.25zm5.188 0c-.138 0-.27.024-.375.062a.705.705 0 0 0-.25.156c-.072.065-.146.132-.188.219-.041.087-.05.182-.062.281l.343.031a.53.53 0 0 1 .063-.187.53.53 0 0 1 .469-.282c.077 0 .156.014.218.032.064.017.111.056.157.093a.275.275 0 0 1 .093.126.56.56 0 0 1 .063.218c0 .097-.04.163-.094.25a1.6 1.6 0 0 1-.218.282 3.699 3.699 0 0 1-.282.25c-.107.085-.205.154-.312.25a3.725 3.725 0 0 0-.313.312 1.35 1.35 0 0 0-.218.344v.218h1.843v-.28h-1.437a.862.862 0 0 1 .187-.25c.084-.085.18-.167.282-.25.101-.084.205-.166.312-.25.107-.085.225-.188.313-.282.088-.094.131-.177.187-.281a.735.735 0 0 0 .031-.657.52.52 0 0 0-.156-.218.817.817 0 0 0-.281-.157 1.411 1.411 0 0 0-.375-.03zm1.437.343v.281l1.657.719-1.657.719v.312l1.938-.812v-.407l-1.938-.812zm-22.593.188a.744.744 0 0 0-.25.03c-.076.025-.163.049-.22.094a.575.575 0 0 0-.124.157c-.04.065-.089.138-.125.218-.003-.037-.025-.049-.031-.093-.007-.045.009-.114 0-.157-.01-.044-.021-.084-.032-.124-.009-.04-.022-.063-.031-.094h-.344c.008.031.02.071.031.125.012.053.021.12.032.187.01.067.023.143.031.219.008.076 0 .146 0 .219v1.343H-83v-.968c0-.115 0-.242.031-.344.033-.102.097-.174.156-.25a.585.585 0 0 1 .5-.25c.081 0 .153-.008.22 0 .067.006.126.02.187.031v-.312c-.055-.01-.117-.025-.188-.032-.07-.006-.146 0-.219 0zm1.687 0c-.06 0-.11.01-.156.03-.046.02-.091.028-.125.063-.033.035-.04.078-.063.125a1.184 1.184 0 0 0-.062.157c0-.027.001-.058 0-.094 0-.037-.03-.091-.031-.125-.002-.035 0-.068 0-.094-.002-.027 0-.025 0-.031h-.282c.002.009-.001.031 0 .062.002.032-.001.05 0 .094.002.043 0 .107 0 .156.002.048 0 .081 0 .125v1.657H-81V52.78c0-.105.018-.228.031-.312.013-.086.007-.16.031-.219.025-.061.06-.092.094-.125.034-.034.082-.063.125-.063.042 0 .067.014.094.032.029.017.046.05.063.093.018.042.054.088.062.157s0 .178 0 .281v1.313h.313v-1.22c0-.218.044-.359.093-.468.051-.11.102-.187.188-.188.041 0 .097.014.125.032.028.017.045.05.062.093a.539.539 0 0 1 .031.157c.008.069 0 .178 0 .281v1.313h.344V52.53c0-.131-.015-.218-.031-.312-.014-.094-.029-.19-.063-.25a.29.29 0 0 0-.124-.125.514.514 0 0 0-.22-.032c-.06 0-.109-.016-.156 0-.046.017-.088.062-.124.094a.523.523 0 0 0-.094.125c-.028.047-.07.095-.094.157a.555.555 0 0 0-.125-.282c-.056-.062-.135-.093-.25-.093zm29.063 0c-.126 0-.23-.006-.344.03a.82.82 0 0 0-.313.188c-.087.085-.135.206-.187.344-.051.138-.094.297-.094.5 0 .184.02.36.063.5a.938.938 0 0 0 .187.344c.082.092.194.14.313.187.118.047.256.094.406.094.135 0 .245-.033.343-.063.1-.03.181-.046.25-.093.07-.048.115-.13.157-.188.041-.06.073-.097.093-.156l-.312-.094a.364.364 0 0 1-.063.125c-.032.04-.076.065-.124.094-.049.029-.096.077-.157.094-.06.015-.116 0-.187 0-.097 0-.176.005-.25-.032a.543.543 0 0 1-.188-.156.79.79 0 0 1-.125-.25 1.253 1.253 0 0 1-.031-.312h1.5v-.032c0-.166.003-.33-.031-.468a.924.924 0 0 0-.188-.344.767.767 0 0 0-.281-.25c-.117-.055-.267-.063-.438-.063zm7.374 0a.752.752 0 0 0-.218.03c-.07.019-.132.028-.188.063a.688.688 0 0 0-.156.125c-.042.05-.063.095-.094.157h-.031c0-.027.001-.056 0-.094-.001-.04.003-.058 0-.094-.001-.038.001-.065 0-.094v-.062h-.344c.002.009-.001.031 0 .062.002.032-.001.05 0 .094.002.043 0 .107 0 .156.002.048.032.081.032.125v1.657h.343v-1.22c0-.105.003-.2.032-.28.028-.083.075-.133.124-.188a.545.545 0 0 1 .188-.125.557.557 0 0 1 .219-.063c.062 0 .104.016.156.032.052.015.087.053.125.093.04.04.073.089.094.157a.79.79 0 0 1 .031.25v1.343h.375v-1.406c0-.131-.033-.218-.063-.312a.645.645 0 0 0-.124-.25.527.527 0 0 0-.22-.125.858.858 0 0 0-.28-.032zm-25.124.03l.75 1.032-.813 1.063H-69l.656-.844.625.843h.375l-.812-1.062.781-1.031h-.406l-.563.812-.594-.812h-.374zm19.093 0l.844 2.094h.406l.875-2.093h-.406l-.531 1.375-.032.093c-.013.04-.018.083-.03.126-.014.042-.05.083-.063.124-.012.04.008.098 0 .126-.008-.028-.02-.085-.032-.126-.01-.041-.049-.08-.062-.124-.013-.045-.02-.085-.031-.126-.012-.041-.021-.065-.032-.093l-.53-1.375h-.376zm7.407 0v1.407c0 .13.006.249.03.344.027.093.071.159.126.218.054.06.134.097.218.126a.985.985 0 0 0 .313.062c.091 0 .15-.012.219-.031.069-.018.134-.06.187-.094.054-.035.116-.076.157-.125.04-.05.06-.095.093-.156h.032c0 .026-.002.054 0 .093v.126c.002.036-.002.065 0 .093 0 .029-.002.025 0 .032h.343c-.001-.01.002 0 0-.032-.001-.031-.03-.082-.031-.125V51.844h-.344v1.218a.94.94 0 0 1-.031.282.654.654 0 0 1-.125.218.419.419 0 0 1-.156.126.534.534 0 0 1-.219.03.795.795 0 0 1-.219-.03.273.273 0 0 1-.125-.094c-.034-.043-.078-.087-.093-.157-.015-.069 0-.147 0-.25v-1.343h-.376zm-11.22.22c.09 0 .182.003.25.03.07.028.11.094.157.157a.672.672 0 0 1 .125.25c.025.102.031.224.031.375 0 .156-.006.297-.031.406-.023.11-.077.181-.125.25-.047.068-.086.125-.156.157a.635.635 0 0 1-.25.03c-.087 0-.157 0-.219-.03a.409.409 0 0 1-.156-.157.766.766 0 0 1-.094-.25 2.172 2.172 0 0 1-.031-.375c0-.15.01-.27.031-.375a.936.936 0 0 1 .094-.281.33.33 0 0 1 .156-.125.506.506 0 0 1 .219-.063zm2.47 0c.07 0 .154.01.218.03.064.022.107.045.157.094a.69.69 0 0 1 .124.22c.034.081.084.158.094.28h-1.156a.805.805 0 0 1 .063-.312c.039-.083.1-.14.156-.188a.37.37 0 0 1 .156-.093.666.666 0 0 1 .188-.032zm-21.813 1.312v.563h.469v-.563h-.469zm-5.406 3.469v2.906h.344v-1.219c0-.105.033-.2.062-.281.029-.082.044-.164.094-.219a.545.545 0 0 1 .187-.125.532.532 0 0 1 .219-.031c.063 0 .135.016.188.031.052.016.087.022.124.063.04.039.073.088.094.156.022.066.031.177.031.281v1.344h.344v-1.406c0-.132 0-.25-.031-.344-.03-.094-.098-.159-.156-.219a.536.536 0 0 0-.219-.125c-.085-.028-.173-.062-.281-.062a.684.684 0 0 0-.406.125.687.687 0 0 0-.157.125c-.041.05-.062.095-.094.156.004-.06-.003-.122 0-.188.004-.066 0-.122 0-.187v-.781h-.343zm7.375 0l.094 1.25h.25l.093-1.25h-.437zm.875 0l.094 1.25h.25l.093-1.25h-.437zm11.125 0l.062 1.25h.282l.093-1.25h-.437zm.875 0l.062 1.25h.282l.093-1.25h-.437zm-10.688.281v2.625h.719c.182 0 .326-.036.469-.094a.97.97 0 0 0 .375-.25c.099-.113.166-.24.219-.406.052-.168.093-.375.093-.594 0-.224-.038-.43-.094-.593a.902.902 0 0 0-.25-.376 1.034 1.034 0 0 0-.406-.25 1.706 1.706 0 0 0-.531-.062h-.594zm.375.281h.219c.152 0 .294.025.406.063a.682.682 0 0 1 .281.187c.075.078.12.188.157.313.036.125.062.261.062.437 0 .347-.084.608-.219.782-.134.173-.317.25-.593.25h-.313v-2.032zm-13.875.188c-.125 0-.26.026-.375.062a.82.82 0 0 0-.312.188.777.777 0 0 0-.188.312c-.05.138-.094.328-.094.532 0 .183.02.329.063.468a.844.844 0 0 0 .5.563c.118.047.257.062.406.062.136 0 .245-.001.344-.031a.954.954 0 0 0 .25-.125c.069-.048.146-.098.188-.156a.814.814 0 0 0 .093-.188l-.312-.093a.623.623 0 0 1-.094.156c-.033.039-.077.065-.125.093a.603.603 0 0 1-.156.063c-.06.016-.116.031-.188.031a.55.55 0 0 1-.437-.218.79.79 0 0 1-.156-.532h1.5v-.062c0-.167.002-.331-.032-.469a.879.879 0 0 0-.156-.344c-.074-.099-.194-.164-.313-.218a.895.895 0 0 0-.406-.094zm2.406 0c-.123 0-.226.027-.343.062a.746.746 0 0 0-.313.157.925.925 0 0 0-.219.343c-.055.14-.093.32-.093.532 0 .156.027.303.062.437.035.133.08.245.156.344a.886.886 0 0 0 .313.25c.125.056.26.062.438.062.13 0 .24.005.343-.031.103-.038.207-.095.281-.156a.787.787 0 0 0 .188-.219c.044-.08.05-.163.063-.25l-.376-.031c-.022.142-.063.243-.156.312a.563.563 0 0 1-.344.125.632.632 0 0 1-.28-.062.456.456 0 0 1-.188-.157.882.882 0 0 1-.094-.28 1.823 1.823 0 0 1-.031-.344c0-.13.011-.244.031-.344a.682.682 0 0 1 .094-.25.456.456 0 0 1 .187-.157.645.645 0 0 1 .281-.062c.154 0 .26.025.344.094a.45.45 0 0 1 .156.281l.376-.031a.774.774 0 0 0-.094-.25.694.694 0 0 0-.188-.188.75.75 0 0 0-.25-.125 1.107 1.107 0 0 0-.344-.062zm4.782 0c-.302 0-.554.097-.719.281-.164.182-.25.45-.25.813 0 .186.018.361.063.5a.958.958 0 0 0 .187.343.788.788 0 0 0 .313.188c.115.044.233.062.374.062.149 0 .29-.018.407-.062a.776.776 0 0 0 .312-.188.92.92 0 0 0 .188-.343c.044-.139.062-.316.062-.5 0-.368-.095-.632-.25-.813-.155-.181-.37-.281-.687-.281zm9.594 0c-.303 0-.554.097-.72.281-.163.182-.25.45-.25.813 0 .186.019.361.063.5a.958.958 0 0 0 .188.343.788.788 0 0 0 .312.188c.116.044.233.062.375.062.149 0 .29-.018.406-.062a.776.776 0 0 0 .313-.188.92.92 0 0 0 .188-.343c.044-.139.062-.316.062-.5 0-.368-.095-.632-.25-.813-.155-.181-.37-.281-.688-.281zm2.562 0a.752.752 0 0 0-.219.031c-.069.018-.131.059-.187.094a.688.688 0 0 0-.157.125c-.041.05-.062.095-.093.156h-.031v-.094c-.002-.039.002-.088 0-.125-.002-.038 0-.065 0-.093-.002-.03 0-.057 0-.063h-.344c.001.01-.002.031 0 .063.001.03-.002.08 0 .124v.126c.001.048.031.111.031.156v1.656h.344v-1.219c0-.105.002-.2.031-.281a.673.673 0 0 1 .125-.219.545.545 0 0 1 .188-.125.532.532 0 0 1 .218-.031c.063 0 .104.016.157.031.052.016.087.022.124.063.04.039.073.088.094.156.022.066.032.177.032.281v1.344h.374v-1.406c0-.132-.032-.25-.062-.344a.515.515 0 0 0-.125-.219.527.527 0 0 0-.219-.125c-.083-.028-.173-.062-.281-.062zm2.219 0c-.125 0-.23.026-.344.062a.82.82 0 0 0-.313.188.777.777 0 0 0-.187.312c-.05.138-.094.328-.094.532 0 .183.02.329.063.468a.844.844 0 0 0 .5.563c.118.047.256.062.406.062.135 0 .245-.001.344-.031a.954.954 0 0 0 .25-.125.614.614 0 0 0 .156-.156.814.814 0 0 0 .094-.188l-.313-.093c-.015.046-.03.115-.062.156-.033.039-.077.065-.125.093a.603.603 0 0 1-.157.063c-.06.016-.115.031-.187.031a.55.55 0 0 1-.438-.218.79.79 0 0 1-.156-.532h1.5v-.062c0-.167.003-.331-.031-.469a.924.924 0 0 0-.188-.344.693.693 0 0 0-.28-.218 1.04 1.04 0 0 0-.438-.094zm-21.563.25c.07 0 .124.01.188.031.064.02.138.076.187.125.051.05.091.105.125.188.034.082.052.19.063.312h-1.156a.805.805 0 0 1 .062-.313c.04-.083.1-.139.156-.187.056-.048.123-.107.188-.125a.665.665 0 0 1 .187-.031zm7.188 0c.083 0 .15.036.219.062a.399.399 0 0 1 .187.125c.05.064.098.143.125.25.029.107.031.242.031.407 0 .164-.001.298-.031.406a.643.643 0 0 1-.125.25.477.477 0 0 1-.188.156.813.813 0 0 1-.25.031.619.619 0 0 1-.218-.031c-.068-.026-.104-.092-.156-.156a.712.712 0 0 1-.126-.25 1.472 1.472 0 0 1-.062-.407c0-.16.034-.299.063-.406.03-.107.042-.186.093-.25a.399.399 0 0 1 .188-.125.75.75 0 0 1 .25-.062zm9.594 0c.083 0 .15.036.218.062a.399.399 0 0 1 .188.125c.05.064.097.143.125.25.028.107.031.242.031.407 0 .164-.001.298-.031.406a.643.643 0 0 1-.125.25.476.476 0 0 1-.188.156.813.813 0 0 1-.25.031.619.619 0 0 1-.219-.031c-.067-.026-.104-.092-.156-.156a.712.712 0 0 1-.125-.25 1.472 1.472 0 0 1-.062-.407c0-.16.034-.299.062-.406.03-.107.043-.186.094-.25a.399.399 0 0 1 .188-.125.75.75 0 0 1 .25-.062zm4.78 0c.071 0 .156.01.22.031.063.02.106.076.156.125.05.05.09.105.125.188.034.082.083.19.093.312h-1.156a.805.805 0 0 1 .063-.313c.039-.083.1-.139.156-.187.056-.048.091-.107.156-.125a.666.666 0 0 1 .188-.031zm-17.624 4.812v2.907h.344v-1.25c0-.106.033-.17.062-.25.029-.083.044-.165.094-.22a.545.545 0 0 1 .187-.124.557.557 0 0 1 .219-.063c.063 0 .135.016.188.032.052.015.087.053.124.093.04.04.073.089.094.157a.79.79 0 0 1 .031.25v1.374h.344v-1.406c0-.131 0-.25-.031-.344a.693.693 0 0 0-.156-.25.536.536 0 0 0-.219-.124.863.863 0 0 0-.281-.032.765.765 0 0 0-.219.032c-.068.018-.134.027-.188.062a.687.687 0 0 0-.156.125c-.041.05-.062.126-.094.188.004-.06-.003-.123 0-.188.004-.066 0-.154 0-.219v-.75h-.343zm-3.938.75c-.125 0-.26.026-.375.063-.113.036-.225.071-.312.156s-.136.206-.188.344c-.05.138-.094.297-.094.5 0 .183.02.36.063.5a.844.844 0 0 0 .5.563c.118.046.257.062.406.062.136 0 .245-.033.344-.063.099-.031.181-.047.25-.094.069-.048.146-.097.188-.156a.814.814 0 0 0 .093-.187l-.312-.094c-.016.047-.061.085-.094.125-.033.04-.077.096-.125.125a.603.603 0 0 1-.156.063c-.06.015-.116 0-.188 0-.096 0-.176.005-.25-.032a.543.543 0 0 1-.187-.156.79.79 0 0 1-.125-.25 1.253 1.253 0 0 1-.031-.313h1.5v-.03c0-.167.002-.331-.032-.47A.879.879 0 0 0-82 63.72a.87.87 0 0 0-.313-.25c-.117-.055-.235-.063-.406-.063zm2.406 0c-.123 0-.226-.004-.343.032a.813.813 0 0 0-.313.187.925.925 0 0 0-.219.344c-.055.14-.093.319-.093.531 0 .156.027.303.062.438.035.132.08.244.156.343a.815.815 0 0 0 .313.219 1.02 1.02 0 0 0 .781.031c.103-.038.207-.095.281-.156.075-.061.144-.107.188-.188.044-.08.05-.162.063-.25l-.376-.03c-.022.141-.063.243-.156.312a.547.547 0 0 1-.344.094.632.632 0 0 1-.28-.063.456.456 0 0 1-.188-.156.7.7 0 0 1-.094-.25 2.148 2.148 0 0 1 0-.719.682.682 0 0 1 .094-.25.456.456 0 0 1 .187-.156c.077-.037.17-.032.281-.032.154 0 .26.025.344.094a.45.45 0 0 1 .156.282l.376-.032a.774.774 0 0 0-.094-.25.694.694 0 0 0-.188-.187c-.071-.058-.15-.124-.25-.157-.1-.032-.216-.03-.344-.03zm4.782 0c-.302 0-.554.098-.719.282-.164.182-.25.449-.25.812 0 .186.018.33.063.469a.958.958 0 0 0 .187.344.86.86 0 0 0 .313.218c.115.045.233.063.374.063.149 0 .29-.018.407-.063a.844.844 0 0 0 .5-.562c.044-.138.062-.284.062-.469 0-.367-.095-.663-.25-.844-.155-.18-.37-.25-.687-.25zm-7.188.25c.07 0 .124.01.188.032.064.02.138.044.187.093a.69.69 0 0 1 .125.219c.034.082.052.19.063.313h-1.156A.805.805 0 0 1-83.25 64c.04-.083.1-.17.156-.219a.48.48 0 0 1 .188-.093.665.665 0 0 1 .187-.032zm7.188 0a.59.59 0 0 1 .219.032.475.475 0 0 1 .187.156c.05.064.098.143.125.25.029.107.031.242.031.406 0 .164-.001.298-.031.406a.643.643 0 0 1-.125.25.402.402 0 0 1-.188.125c-.071.025-.165.063-.25.063-.074 0-.15-.037-.218-.063a.347.347 0 0 1-.156-.125.712.712 0 0 1-.126-.25 1.472 1.472 0 0 1-.062-.406c0-.16.034-.3.063-.406.03-.107.042-.186.093-.25a.475.475 0 0 1 .188-.157.74.74 0 0 1 .25-.03z" style="text-align:start;line-height:145.00000477%;-inkscape-font-specification:Liberation Mono" font-size="4" font-weight="400" fill="#fff" font-family="Liberation Mono"/><path d="M12 69v1c0 1.662 1.338 3 3 3h66c1.662 0 3-1.338 3-3v-1c0 1.662-1.338 3-3 3H15c-1.662 0-3-1.338-3-3z" fill="#fff"/><path d="M20 46v4.002l8.012 3.093L20 56.128V60l11.947-4.916L32 51.24 20 46zM32 60v4h12v-4H32z" style="text-align:start;line-height:125%;-inkscape-font-specification:MgOpen Canonica Bold" font-size="48" font-weight="700" fill="#fff" font-family="MgOpen Canonica"/></g></svg>