<svg xmlns="http://www.w3.org/2000/svg" xmlns:xlink="http://www.w3.org/1999/xlink" version="1.0" width="96" height="96"><defs><linearGradient x1="45.448" y1="92.54" x2="45.448" y2="7.017" id="g" gradientUnits="userSpaceOnUse" gradientTransform="scale(1.00587 .99417)"><stop offset="0"/><stop offset="1" stop-opacity=".588"/></linearGradient><linearGradient id="a"><stop offset="0" stop-color="#ebebeb"/><stop offset="1" stop-color="#fafafa"/></linearGradient><linearGradient x1="48" y1="90" x2="48" y2="5.988" id="n" xlink:href="#a" gradientUnits="userSpaceOnUse"/><filter color-interpolation-filters="sRGB" id="h"><feGaussianBlur stdDeviation="1.71"/></filter><linearGradient x1="45.448" y1="92.54" x2="45.448" y2="7.017" id="b" gradientUnits="userSpaceOnUse" gradientTransform="matrix(1.00587 0 0 .99417 100 0)"><stop offset="0"/><stop offset="1" stop-opacity=".588"/></linearGradient><linearGradient x1="32.251" y1="6.132" x2="32.251" y2="90.239" id="j" xlink:href="#b" gradientUnits="userSpaceOnUse" gradientTransform="matrix(1.0238 0 0 1.0119 -1.143 -98.071)"/><linearGradient x1="32.251" y1="6.132" x2="32.251" y2="90.239" id="k" xlink:href="#b" gradientUnits="userSpaceOnUse" gradientTransform="matrix(1.0238 0 0 1.0119 -1.143 -98.071)"/><linearGradient x1="32.251" y1="6.132" x2="32.251" y2="90.239" id="l" xlink:href="#b" gradientUnits="userSpaceOnUse" gradientTransform="matrix(1.0238 0 0 1.0119 -1.143 -98.071)"/><linearGradient x1="32.251" y1="6.132" x2="32.251" y2="90.239" id="m" xlink:href="#b" gradientUnits="userSpaceOnUse" gradientTransform="translate(0 -97)"/><linearGradient x1="32.251" y1="6.132" x2="32.251" y2="90.239" id="i" xlink:href="#b" gradientUnits="userSpaceOnUse" gradientTransform="matrix(1.0238 0 0 1.0119 -1.143 -98.071)"/><linearGradient id="d"><stop offset="0" stop-color="#fff"/><stop offset="1" stop-color="#fff" stop-opacity="0"/></linearGradient><radialGradient cx="48" cy="90.172" r="42" fx="48" fy="90.172" id="p" xlink:href="#c" gradientUnits="userSpaceOnUse" gradientTransform="matrix(1.15731 0 0 .9959 -7.551 .197)"/><linearGradient id="c"><stop offset="0" stop-color="#fff"/><stop offset="1" stop-color="#fff" stop-opacity="0"/></linearGradient><linearGradient x1="36.357" y1="6" x2="36.357" y2="63.893" id="o" xlink:href="#d" gradientUnits="userSpaceOnUse"/><linearGradient id="e"><stop offset="0" stop-color="#bababa"/><stop offset="1" stop-color="#d2d2d2"/></linearGradient><linearGradient x1="48" y1="72" x2="48" y2="23.99" id="s" xlink:href="#e" gradientUnits="userSpaceOnUse"/><clipPath id="q"><path d="M-88 6c-3.324 0-6 2.676-6 6v72c0 3.324 2.676 6 6 6h72c3.324 0 6-2.676 6-6V12c0-3.324-2.676-6-6-6h-72zm36 18c13.255 0 24 10.745 24 24s-10.745 24-24 24-24-10.745-24-24 10.745-24 24-24zm0 6c-9.941 0-18 8.059-18 18s8.059 18 18 18 18-8.059 18-18-8.059-18-18-18zm.469 4c1.776 0 3.33.19 4.656.563 1.339.373 2.503.911 3.469 1.593.978.67 1.775 1.448 2.406 2.375.644.914 1.14 1.924 1.5 3.032l-5 1.374a5.93 5.93 0 0 0-.844-1.656 5.864 5.864 0 0 0-1.437-1.437c-.567-.412-1.228-.724-2-.969a8.263 8.263 0 0 0-2.625-.406c-1.378 0-2.571.237-3.563.687a6.254 6.254 0 0 0-2.437 1.907c-.631.823-1.098 1.81-1.407 2.968-.296 1.146-.437 2.415-.437 3.844 0 1.416.141 2.722.438 3.906.308 1.172.762 2.182 1.406 3.032.643.85 1.496 1.523 2.5 2 1.017.476 2.209.718 3.625.718 1.068 0 2.009-.172 2.781-.468.785-.31 1.465-.699 2.031-1.188a6.592 6.592 0 0 0 1.407-1.656c.386-.618.724-1.244.968-1.875l4.938 1.875c-.4.978-.92 1.935-1.563 2.875-.643.94-1.44 1.779-2.406 2.5-.966.72-2.099 1.3-3.438 1.75-1.325.437-2.916.656-4.718.656-2.356 0-4.4-.336-6.125-1.031-1.725-.708-3.149-1.689-4.282-2.938-1.12-1.261-1.946-2.775-2.5-4.5-.54-1.725-.812-3.61-.812-5.656 0-2.124.272-4.038.813-5.75.553-1.712 1.392-3.178 2.5-4.375 1.107-1.21 2.5-2.106 4.187-2.75 1.7-.657 3.677-1 5.969-1z" fill="#f0f"/></clipPath><filter x="-.144" y="-.144" width="1.288" height="1.288" color-interpolation-filters="sRGB" id="r"><feGaussianBlur stdDeviation="2.88"/></filter><linearGradient id="f"><stop offset="0" stop-color="#fff"/><stop offset="1" stop-color="#fff" stop-opacity="0"/></linearGradient><clipPath id="t"><rect width="84" height="84" rx="6" ry="6" x="6" y="6" fill="#fff"/></clipPath><filter x="-.192" y="-.192" width="1.384" height="1.384" color-interpolation-filters="sRGB" id="v"><feGaussianBlur stdDeviation="5.28"/></filter><linearGradient x1="48" y1="20.221" x2="48" y2="138.661" id="u" xlink:href="#f" gradientUnits="userSpaceOnUse"/></defs><g transform="scale(1 -1)"><path d="M12-95.031c-5.511 0-10.031 4.52-10.031 10.031v71C1.969-8.489 6.489-3.969 12-3.969h72c5.511 0 10.031-4.52 10.031-10.031v-71c0-5.511-4.52-10.031-10.031-10.031H12z" opacity=".08" fill="url(#i)"/><path d="M12-94.031c-4.972 0-9.031 4.06-9.031 9.031v71c0 4.972 4.06 9.031 9.031 9.031h72c4.972 0 9.031-4.06 9.031-9.031v-71c0-4.972-4.06-9.031-9.031-9.031H12z" opacity=".1" fill="url(#j)"/><path d="M12-93c-4.41 0-8 3.59-8 8v71c0 4.41 3.59 8 8 8h72c4.41 0 8-3.59 8-8v-71c0-4.41-3.59-8-8-8H12z" opacity=".2" fill="url(#k)"/><rect width="86" height="85" rx="7" ry="7" x="5" y="-92" opacity=".3" fill="url(#l)"/><rect width="84" height="84" rx="6" ry="6" x="6" y="-91" opacity=".45" fill="url(#m)"/></g><rect width="84" height="84" rx="6" ry="6" x="6" y="6" fill="url(#n)"/><path d="M12 6c-3.324 0-6 2.676-6 6v72c0 .335.041.65.094.969.048.295.097.597.187.875l.032.094c.098.287.234.547.375.812.144.274.315.536.5.781a6.105 6.105 0 0 0 2.094 1.781c.278.14.573.247.874.344a4.843 4.843 0 0 1-.719-.375c-.007-.004-.023.005-.03 0-.033-.02-.063-.042-.095-.062-.12-.077-.23-.164-.343-.25-.106-.081-.214-.161-.313-.25a5.042 5.042 0 0 1-.5-.531 5.092 5.092 0 0 1-.312-.407c-.025-.038-.039-.086-.063-.125-.065-.103-.13-.204-.187-.312a5.371 5.371 0 0 1-.282-.625c-.008-.022-.023-.04-.03-.063-.033-.092-.037-.187-.063-.281-.03-.107-.07-.203-.094-.313A5.098 5.098 0 0 1 7 85V13c0-2.782 2.218-5 5-5h72c2.782 0 5 2.218 5 5v72c0 .364-.052.721-.125 1.063a4.896 4.896 0 0 1-.156.593c-.008.022-.024.04-.031.063a5.482 5.482 0 0 1-.22.531c-.04.083-.078.17-.124.25-.055.097-.127.188-.188.281a5.092 5.092 0 0 1-.312.406 5.05 5.05 0 0 1-.469.5l-.031.032a4.818 4.818 0 0 1-.438.344c-.102.073-.204.153-.312.218-.008.005-.024-.004-.031 0a4.843 4.843 0 0 1-.72.375c.302-.097.597-.204.876-.344a6.105 6.105 0 0 0 2.094-1.78c.184-.246.355-.508.5-.782a5.69 5.69 0 0 0 .374-.813l.032-.093c.09-.278.139-.58.187-.875.053-.318.094-.634.094-.969V12c0-3.324-2.676-6-6-6H12z" opacity=".5" fill="url(#o)"/><path d="M12 90c-3.324 0-6-2.676-6-6V12c0-.335.041-.65.094-.969.048-.295.097-.597.187-.875l.032-.094a5.69 5.69 0 0 1 .375-.812c.144-.274.315-.536.5-.781a6.105 6.105 0 0 1 2.094-1.781c.278-.14.573-.247.874-.344-.256.1-.486.236-.719.375-.007.004-.023-.005-.03 0-.033.019-.063.042-.095.062-.12.077-.23.164-.343.25-.106.081-.214.161-.313.25a5.042 5.042 0 0 0-.5.532c-.107.13-.218.265-.312.406-.025.038-.039.086-.063.125-.065.103-.13.204-.187.312a5.371 5.371 0 0 0-.282.625c-.007.022-.023.04-.03.063-.033.092-.037.187-.063.281-.03.107-.07.203-.094.313A5.098 5.098 0 0 0 7 11v72c0 2.782 2.218 5 5 5h72c2.782 0 5-2.218 5-5V11c0-.364-.052-.721-.125-1.063a4.896 4.896 0 0 0-.156-.593c-.008-.022-.024-.04-.031-.063a5.482 5.482 0 0 0-.22-.531c-.04-.083-.078-.17-.124-.25-.055-.097-.127-.188-.188-.281a5.092 5.092 0 0 0-.312-.406 5.05 5.05 0 0 0-.469-.5l-.031-.032a4.818 4.818 0 0 0-.438-.343c-.102-.074-.204-.154-.312-.22-.008-.004-.024.005-.031 0a4.843 4.843 0 0 0-.72-.374c.302.097.597.204.876.343a6.105 6.105 0 0 1 2.094 1.782c.184.245.355.507.5.781.14.265.276.525.374.813l.032.093c.09.278.139.58.187.875.053.318.094.634.094.969v72c0 3.324-2.676 6-6 6H12z" opacity=".4" fill="url(#p)"/><rect width="84" height="84" rx="6" ry="6" x="-94" y="6" fill="#f0f"/><path style="marker:none" color="#000" fill="#fff" stroke="#000" stroke-width=".5" stroke-linecap="round" stroke-dashoffset="8.6" overflow="visible" enable-background="accumulate" d="M112 8h16v16h-16z"/><text x="131.393" y="11.969" style="text-align:start;line-height:125%;-inkscape-font-specification:Liberation Sans" font-size="4" font-weight="400" font-family="Liberation Sans"><tspan x="131.393" y="11.969">Width: 2px</tspan><tspan x="131.393" y="16.969">Blur: 12</tspan><tspan x="131.393" y="21.969">Opacity: 60</tspan></text><path d="M-52 24c-13.255 0-24 10.745-24 24s10.745 24 24 24 24-10.745 24-24-10.745-24-24-24zm0 6c9.941 0 18 8.059 18 18s-8.059 18-18 18-18-8.059-18-18 8.059-18 18-18zm.469 4c-2.292 0-4.27.343-5.969 1-1.686.644-3.08 1.54-4.188 2.75-1.107 1.197-1.946 2.663-2.5 4.375-.54 1.712-.812 3.626-.812 5.75 0 2.047.272 3.931.813 5.656.553 1.725 1.38 3.239 2.5 4.5 1.132 1.249 2.556 2.23 4.28 2.938 1.726.695 3.77 1.031 6.126 1.031 1.802 0 3.393-.219 4.718-.656 1.34-.45 2.472-1.03 3.438-1.75.965-.721 1.763-1.56 2.406-2.5a15.336 15.336 0 0 0 1.563-2.875l-4.938-1.875c-.244.63-.582 1.257-.968 1.875a6.592 6.592 0 0 1-1.407 1.656c-.566.49-1.246.879-2.031 1.188-.772.296-1.713.468-2.781.468-1.416 0-2.608-.242-3.625-.718-1.004-.477-1.857-1.15-2.5-2-.644-.85-1.098-1.86-1.407-3.032-.296-1.184-.437-2.49-.437-3.906 0-1.429.141-2.698.438-3.844.308-1.158.775-2.145 1.406-2.968a6.254 6.254 0 0 1 2.437-1.907c.992-.45 2.185-.687 3.563-.687.978 0 1.852.149 2.625.406.772.245 1.433.557 2 .969.579.412 1.064.897 1.437 1.437a5.93 5.93 0 0 1 .844 1.657l5-1.376a11.296 11.296 0 0 0-1.5-3.03c-.63-.928-1.428-1.706-2.406-2.376-.966-.682-2.13-1.22-3.469-1.593-1.326-.374-2.88-.563-4.656-.563z" transform="translate(100)" clip-path="url(#q)" style="marker:none" opacity=".6" color="#000" fill="none" stroke="#fff" stroke-width="2" overflow="visible" filter="url(#r)" enable-background="accumulate"/><path d="M48 24c-13.255 0-24 10.745-24 24s10.745 24 24 24 24-10.745 24-24-10.745-24-24-24zm0 6c9.941 0 18 8.059 18 18s-8.059 18-18 18-18-8.059-18-18 8.059-18 18-18zm.469 4c-2.292 0-4.27.343-5.969 1-1.686.644-3.08 1.54-4.188 2.75-1.107 1.197-1.946 2.663-2.5 4.375-.54 1.712-.812 3.626-.812 5.75 0 2.047.272 3.931.813 5.656.553 1.725 1.38 3.239 2.5 4.5 1.132 1.249 2.556 2.23 4.28 2.938C44.32 61.664 46.364 62 48.72 62c1.802 0 3.393-.219 4.718-.656 1.34-.45 2.472-1.03 3.438-1.75.965-.721 1.763-1.56 2.406-2.5a15.336 15.336 0 0 0 1.563-2.875l-4.938-1.875c-.244.63-.582 1.257-.968 1.875a6.592 6.592 0 0 1-1.407 1.656c-.566.49-1.246.879-2.031 1.188-.772.296-1.713.468-2.781.468-1.416 0-2.608-.242-3.625-.718-1.004-.477-1.857-1.15-2.5-2-.644-.85-1.098-1.86-1.407-3.032-.296-1.184-.437-2.49-.437-3.906 0-1.429.141-2.698.438-3.844.308-1.158.775-2.145 1.406-2.968a6.254 6.254 0 0 1 2.437-1.907c.992-.45 2.185-.687 3.563-.687.978 0 1.852.149 2.625.406.772.245 1.433.557 2 .969.579.412 1.064.897 1.437 1.437a5.93 5.93 0 0 1 .844 1.657l5-1.376a11.296 11.296 0 0 0-1.5-3.03c-.63-.928-1.428-1.706-2.406-2.376-.966-.682-2.13-1.22-3.469-1.593-1.326-.374-2.88-.563-4.656-.563z" style="marker:none" color="#000" fill="url(#s)" overflow="visible" enable-background="accumulate"/><path d="M48 24c-13.255 0-24 10.745-24 24 0 .166-.003.335 0 .5C24.264 35.474 34.91 25 48 25s23.736 10.474 24 23.5c.003-.165 0-.334 0-.5 0-13.255-10.745-24-24-24zm.469 10c-2.292 0-4.27.343-5.969 1-1.686.644-3.08 1.54-4.188 2.75-1.107 1.197-1.946 2.663-2.5 4.375-.54 1.712-.812 3.626-.812 5.75 0 .17.027.332.031.5.04-1.923.284-3.675.782-5.25.553-1.712 1.392-3.178 2.5-4.375 1.107-1.21 2.5-2.106 4.187-2.75 1.7-.657 3.677-1 5.969-1 1.776 0 3.33.19 4.656.563 1.339.373 2.503.911 3.469 1.593.978.67 1.775 1.448 2.406 2.375.465.66.872 1.365 1.188 2.125l.312-.093A11.296 11.296 0 0 0 59 38.53c-.63-.927-1.428-1.705-2.406-2.375-.966-.682-2.13-1.22-3.469-1.593-1.326-.374-2.88-.563-4.656-.563zM40.75 48.375c-.004.168 0 .327 0 .5 0 1.416.141 2.722.438 3.906.308 1.172.762 2.182 1.406 3.032.643.85 1.496 1.523 2.5 2 1.017.476 2.209.718 3.625.718 1.068 0 2.009-.172 2.781-.468.785-.31 1.465-.699 2.031-1.188a6.592 6.592 0 0 0 1.407-1.656c.386-.618.724-1.244.968-1.875l4.532 1.718c.138-.283.288-.556.406-.843l-4.938-1.875c-.244.63-.582 1.257-.968 1.875a6.592 6.592 0 0 1-1.407 1.656c-.566.49-1.246.879-2.031 1.188-.772.296-1.713.468-2.781.468-1.416 0-2.608-.242-3.625-.718-1.004-.477-1.857-1.15-2.5-2-.644-.85-1.098-1.86-1.407-3.032a15.69 15.69 0 0 1-.437-3.406zm-10.719.125c-.004.167-.031.331-.031.5 0 9.941 8.059 18 18 18s18-8.059 18-18c0-.169-.027-.333-.031-.5C65.702 58.208 57.773 66 48 66c-9.773 0-17.702-7.792-17.969-17.5z" style="marker:none" opacity=".2" color="#000" overflow="visible" enable-background="accumulate"/><path d="M48 30c-9.941 0-18 8.059-18 18 0 .169.027.333.031.5C30.298 38.792 38.227 31 48 31c9.773 0 17.702 7.792 17.969 17.5.004-.167.031-.331.031-.5 0-9.941-8.059-18-18-18zm.594 8.469c-1.378 0-2.571.237-3.563.687a6.254 6.254 0 0 0-2.437 1.907c-.631.823-1.098 1.81-1.407 2.968-.296 1.146-.437 2.415-.437 3.844 0 .171-.004.332 0 .5.03-1.222.177-2.337.438-3.344.308-1.158.775-2.145 1.406-2.968a6.254 6.254 0 0 1 2.437-1.907c.992-.45 2.185-.687 3.563-.687.978 0 1.852.149 2.625.406.772.245 1.433.557 2 .969.579.412 1.064.897 1.437 1.437a5.93 5.93 0 0 1 .844 1.657l5-1.376c-.1-.308-.19-.613-.313-.906L55.5 42.938a5.93 5.93 0 0 0-.844-1.657 5.864 5.864 0 0 0-1.437-1.437c-.567-.412-1.228-.724-2-.969a8.263 8.263 0 0 0-2.625-.406zM35.03 48.375c-.003.167-.031.33-.031.5 0 2.047.272 3.931.813 5.656.553 1.725 1.38 3.239 2.5 4.5 1.132 1.249 2.556 2.23 4.28 2.938C44.32 62.664 46.364 63 48.72 63c1.802 0 3.393-.219 4.718-.656 1.34-.45 2.472-1.03 3.438-1.75.965-.721 1.763-1.56 2.406-2.5a15.336 15.336 0 0 0 1.563-2.875l-.407-.157a15.771 15.771 0 0 1-1.156 2.032c-.643.94-1.44 1.779-2.406 2.5-.966.72-2.099 1.3-3.438 1.75-1.325.437-2.916.656-4.718.656-2.356 0-4.4-.336-6.125-1.031-1.725-.708-3.149-1.689-4.282-2.938-1.12-1.261-1.946-2.775-2.5-4.5-.495-1.58-.74-3.305-.78-5.156zM24 48.5c-.003.165 0 .334 0 .5 0 13.255 10.745 24 24 24s24-10.745 24-24c0-.166.003-.335 0-.5C71.736 61.526 61.09 72 48 72S24.264 61.526 24 48.5z" style="marker:none" color="#000" fill="#fff" overflow="visible" enable-background="accumulate"/><g><rect width="66" height="66" rx="12" ry="12" x="15" y="15" clip-path="url(#t)" opacity=".5" fill="url(#u)" stroke="#fff" stroke-width=".5" stroke-linecap="round" filter="url(#v)"/></g></svg>