<svg xmlns="http://www.w3.org/2000/svg" xmlns:xlink="http://www.w3.org/1999/xlink" version="1.0" width="96" height="96"><defs><linearGradient id="f"><stop offset="0" stop-color="#c53636"/><stop offset="1" stop-color="#d42b2b"/></linearGradient><linearGradient id="c"><stop offset="0" stop-color="#fff" stop-opacity="0"/><stop offset=".503" stop-color="#d7d7d7"/><stop offset=".765" stop-color="#ccc"/><stop offset=".912" stop-color="#d7d7d7"/><stop offset="1" stop-color="#fff"/></linearGradient><linearGradient x1="45.448" y1="92.54" x2="45.448" y2="7.017" id="g" gradientUnits="userSpaceOnUse" gradientTransform="scale(1.00587 .99417)"><stop offset="0"/><stop offset="1" stop-opacity=".588"/></linearGradient><linearGradient id="a"><stop offset="0" stop-color="#fff"/><stop offset="1" stop-color="#fff" stop-opacity="0"/></linearGradient><filter color-interpolation-filters="sRGB" id="h"><feGaussianBlur stdDeviation="1.71"/></filter><linearGradient x1="36.357" y1="6" x2="36.357" y2="63.893" id="v" xlink:href="#a" gradientUnits="userSpaceOnUse"/><filter x="-.192" y="-.192" width="1.384" height="1.384" color-interpolation-filters="sRGB" id="y"><feGaussianBlur stdDeviation="5.28"/></filter><linearGradient x1="48" y1="20.221" x2="48" y2="138.661" id="x" xlink:href="#a" gradientUnits="userSpaceOnUse"/><radialGradient cx="48" cy="90.172" r="42" fx="48" fy="90.172" id="o" xlink:href="#a" gradientUnits="userSpaceOnUse" gradientTransform="matrix(1.15731 0 0 .9959 -17.551 .197)"/><clipPath id="w"><rect width="84" height="84" rx="6" ry="6" x="6" y="6" fill="#fff"/></clipPath><linearGradient x1="48" y1="90" x2="48" y2="5.988" id="n" xlink:href="#b" gradientUnits="userSpaceOnUse"/><linearGradient x1="38.41" y1="39.834" x2="110.986" y2="112.41" id="r" xlink:href="#c" gradientUnits="userSpaceOnUse" gradientTransform="matrix(.71186 0 0 .71186 2.44 2.44)"/><linearGradient x1="58.65" y1="122" x2="58.65" y2="5.425" id="e" gradientUnits="userSpaceOnUse" gradientTransform="translate(-1.103 -1.103) scale(1.01724)"><stop offset="0" stop-color="#e4b31e"/><stop offset="1" stop-color="#ffef64"/></linearGradient><clipPath id="p"><path d="M62 6c-3.324 0-6 2.676-6 6v.531C56 8.921 58.92 6 62.531 6H62zm71.469 0c3.61 0 6.531 2.92 6.531 6.531V12c0-3.324-2.676-6-6-6h-.531zM140 12.531c0 36.735-3.543 60.105-7.844 69.938C121.34 87.499 96.48 90 62.531 90H134c3.324 0 6-2.676 6-6V12.531zM62.531 90A6.53 6.53 0 0 1 56 83.469V84c0 3.324 2.676 6 6 6h.531z" fill="url(#d)"/></clipPath><linearGradient x1="48" y1="90" x2="48" y2="5.988" id="d" xlink:href="#e" gradientUnits="userSpaceOnUse" gradientTransform="translate(50)"/><filter color-interpolation-filters="sRGB" id="q"><feGaussianBlur stdDeviation="1.26"/></filter><linearGradient x1="82.08" y1="82.29" x2="59.612" y2="59.821" id="u" xlink:href="#a" gradientUnits="userSpaceOnUse"/><linearGradient x1="58.65" y1="122" x2="58.65" y2="5.425" id="b" gradientUnits="userSpaceOnUse" gradientTransform="translate(-1.103 -1.103) scale(1.01724)"><stop offset="0" stop-color="#f0f0f0"/><stop offset="1" stop-color="#fff"/></linearGradient><linearGradient x1="49.058" y1="36.026" x2="49.058" y2="6.072" id="t" xlink:href="#f" gradientUnits="userSpaceOnUse"/><linearGradient x1="46.785" y1="32.027" x2="46.785" y2="68.029" id="s" xlink:href="#a" gradientUnits="userSpaceOnUse"/><linearGradient x1="47.869" y1="91.175" x2="47.869" y2="5.899" id="m" xlink:href="#g" gradientUnits="userSpaceOnUse"/><linearGradient x1="46.965" y1="93.416" x2="46.965" y2="8.364" id="l" xlink:href="#g" gradientUnits="userSpaceOnUse" gradientTransform="translate(-1 -1)"/><linearGradient x1="46.965" y1="93.416" x2="46.965" y2="8.364" id="k" xlink:href="#g" gradientUnits="userSpaceOnUse" gradientTransform="translate(-1 -1)"/><linearGradient x1="46.965" y1="93.416" x2="46.965" y2="8.364" id="j" xlink:href="#g" gradientUnits="userSpaceOnUse" gradientTransform="translate(-1 -1)"/><linearGradient x1="46.965" y1="93.416" x2="46.965" y2="8.364" id="i" xlink:href="#g" gradientUnits="userSpaceOnUse" gradientTransform="translate(-1 -1)"/></defs><path d="M12 4.094C5.959 3.92 1.401 9.754 2.125 15.53h-.031c.03 23.463-.077 46.905.031 70.375a.899.899 0 0 0 0 .063c.414 5.806 6.19 9.61 11.656 8.937.042-.005.083.006.125 0 23.67-.03 47.323.077 71-.031a.899.899 0 0 0 .063 0c5.806-.414 9.61-6.19 8.937-11.656-.005-.042.006-.083 0-.125-.03-23.337.077-46.656-.031-70a.899.899 0 0 0 0-.063c-.414-5.806-6.19-9.61-11.656-8.937h-.125c-4.277.059-8.622-.13-12.969.093a.899.899 0 0 0-.625.313c-.242.272-.386.316-.375.313-.18-.074-.799-.539-1.75-.688a.899.899 0 0 0-.125-.031c-12.297.02-24.603-.042-36.906.031a.899.899 0 0 0-.563.219c-.293.236-.488.359-.593.406-.106.047-.095.035-.125.031-.061-.008-.457-.23-1.188-.593a.899.899 0 0 0-.406-.094H12zm16.094 8.687c.227.244.358.498.375.75.026.4-.161.862-.407 1.125a.922.922 0 0 1-.28.219c.022.007-.28-.34-.313-1.406.019-.126.067-.163.312-.375.075-.065.213-.23.313-.313zm40 0c.227.244.358.498.375.75.026.4-.161.862-.406 1.125a.922.922 0 0 1-.282.219c.023.007-.278-.34-.312-1.406.019-.126.067-.163.312-.375.075-.065.213-.23.313-.313z" opacity=".08" fill="url(#i)"/><path d="M12 5c-5.494-.177-9.731 5.243-9 10.519.03 23.466-.062 46.936.047 70.4C3.422 91.195 8.76 94.68 13.772 94c23.716-.03 47.434.062 71.148-.046 5.274-.376 8.76-5.714 8.08-10.726-.03-23.382.062-46.767-.047-70.148C92.578 7.806 87.24 4.32 82.228 5c-4.353.065-8.74-.128-13.072.094-1.192 1.34-1.473.13-2.906-.094-12.301.021-24.61-.042-36.906.031-1.294 1.045-1.503.652-2.875-.031H12zm16 6.563c3.752 2.026-1.382 7.249-1.431 1.85.109-.894 1.07-1.142 1.431-1.85zm40 0c3.752 2.026-1.382 7.249-1.431 1.85.109-.894 1.07-1.142 1.431-1.85z" opacity=".1" fill="url(#j)"/><path d="M12 5.969A8.03 8.03 0 0 0 3.969 14v71A8.03 8.03 0 0 0 12 93.031h72A8.03 8.03 0 0 0 92.031 85V14A8.03 8.03 0 0 0 84 5.969H69.75A1.042 1.042 0 0 0 68.719 7v3.563a1.042 1.042 0 0 0 .469.874c.737.489 1.28 1.414 1.28 2.563 0 1.718-1.174 2.969-2.468 2.969S65.531 15.718 65.531 14c0-1.149.544-2.074 1.281-2.563a1.042 1.042 0 0 0 .47-.874V7a1.042 1.042 0 0 0-1.032-1.031h-36.5A1.042 1.042 0 0 0 28.719 7v3.563a1.042 1.042 0 0 0 .468.874c.738.489 1.282 1.414 1.282 2.563 0 1.718-1.175 2.969-2.469 2.969-1.294 0-2.469-1.251-2.469-2.969 0-1.149.544-2.074 1.282-2.563a1.042 1.042 0 0 0 .468-.874V7a1.042 1.042 0 0 0-1.031-1.031H12z" opacity=".2" fill="url(#k)"/><path d="M12 7c-3.878 0-7 3.122-7 7v71c0 3.878 3.122 7 7 7h72c3.878 0 7-3.122 7-7V14c0-3.878-3.122-7-7-7H69.75v3.563c1.046.692 1.75 1.958 1.75 3.437 0 2.21-1.563 4-3.5 4s-3.5-1.79-3.5-4c0-1.48.704-2.745 1.75-3.438V7h-36.5v3.563c1.046.692 1.75 1.958 1.75 3.437 0 2.21-1.563 4-3.5 4s-3.5-1.79-3.5-4c0-1.48.704-2.745 1.75-3.438V7H12z" opacity=".3" fill="url(#l)"/><path d="M12 7c-3.324 0-6 2.676-6 6v72c0 3.324 2.676 6 6 6h72c3.324 0 6-2.676 6-6V13c0-3.324-2.676-6-6-6H70v2.563c1.194.692 2 1.958 2 3.437a4 4 0 1 1-8 0c0-1.48.806-2.745 2-3.438V7H30v2.563c1.194.692 2 1.958 2 3.437a4 4 0 1 1-8 0c0-1.48.806-2.745 2-3.438V7H12z" opacity=".45" fill="url(#m)"/><g><path d="M189.969 19.281c-.406 32.854-3.782 53.973-7.813 63.188-10.14 4.716-32.628 7.205-63.375 7.5 31.143-.037 56.98-.435 66.781-4.313 3.025-9.875 4.26-33.292 4.407-66.375z" opacity=".2"/><path d="M12 6c-3.324 0-6 2.676-6 6v72c0 3.324 2.676 6 6 6h72c3.324 0 6-2.676 6-6V12c0-3.324-2.676-6-6-6H70v2.563c1.194.692 2 1.958 2 3.437a4 4 0 1 1-8 0c0-1.48.806-2.745 2-3.438V6H30v2.563c1.194.692 2 1.958 2 3.437a4 4 0 1 1-8 0c0-1.48.806-2.745 2-3.438V6H12z" fill="url(#n)"/><path d="M2 90c-3.324 0-6-2.676-6-6V12c0-.335.041-.65.094-.969.048-.295.097-.597.187-.875l.031-.094a5.69 5.69 0 0 1 .376-.812c.144-.274.315-.536.5-.781A6.105 6.105 0 0 1-.719 6.688c.278-.14.573-.247.874-.344-.256.1-.486.236-.719.375-.007.004-.023-.005-.03 0-.033.019-.063.042-.095.062-.12.077-.23.164-.343.25-.106.081-.214.161-.313.25a5.042 5.042 0 0 0-.5.532c-.107.13-.218.265-.312.406-.025.038-.039.086-.063.125-.065.103-.13.204-.187.312a5.371 5.371 0 0 0-.281.625c-.008.022-.024.04-.032.063-.032.092-.036.187-.062.281-.03.107-.07.203-.094.313A5.098 5.098 0 0 0-3 11v72c0 2.782 2.218 5 5 5h72c2.782 0 5-2.218 5-5V11c0-.364-.052-.721-.125-1.063a4.896 4.896 0 0 0-.156-.593c-.008-.022-.024-.04-.031-.063a5.482 5.482 0 0 0-.22-.531c-.04-.083-.078-.17-.124-.25-.055-.097-.127-.188-.188-.281a5.092 5.092 0 0 0-.312-.406 5.05 5.05 0 0 0-.469-.5l-.031-.032a4.818 4.818 0 0 0-.438-.343c-.102-.074-.204-.154-.312-.22-.008-.004-.024.005-.031 0a4.843 4.843 0 0 0-.72-.374c.302.097.597.204.876.343a6.105 6.105 0 0 1 2.094 1.782c.184.245.355.507.5.781.14.265.276.525.374.813l.032.093c.09.278.139.58.187.875.053.318.094.634.094.969v72c0 3.324-2.676 6-6 6H2z" opacity=".2" fill="url(#o)"/><path d="M62.517 6A6.503 6.503 0 0 0 56 12.517v70.966A6.506 6.506 0 0 0 62.517 90c33.949 0 61.158.163 73.402-3.796C139.15 76.192 140 49.252 140 12.517A6.503 6.503 0 0 0 133.483 6H62.517z" transform="translate(-50)" clip-path="url(#p)" opacity=".5" fill="#4d4d4d" filter="url(#q)"/><path d="M12.531 6A6.527 6.527 0 0 0 6 12.531V83.47A6.53 6.53 0 0 0 12.531 90c33.949 0 58.809-2.5 69.625-7.531C86.457 72.636 90 49.266 90 12.53 90 8.921 87.08 6 83.469 6H70v2.563c1.194.692 2 1.958 2 3.437a4 4 0 1 1-8 0c0-1.48.806-2.745 2-3.438V6H30v2.563c1.194.692 2 1.958 2 3.437a4 4 0 1 1-8 0c0-1.48.806-2.745 2-3.438V6H12.531z" opacity=".8" fill="url(#r)"/><path d="M6 28h84s-.505 19.04-4.04 40.126L6 68V28z" opacity=".8" fill="url(#s)"/><path d="M12 6c-3.324 0-6 2.676-6 6v24h84V12c0-3.324-2.676-6-6-6H70v2.563c1.194.692 2 1.958 2 3.437a4 4 0 1 1-8 0c0-1.48.806-2.745 2-3.438V6H30v2.563c1.194.692 2 1.958 2 3.437a4 4 0 1 1-8 0c0-1.48.806-2.745 2-3.438V6H12z" fill="url(#t)"/><rect width="84" height="84" rx="6" ry="6" x="6" y="116" fill="gray"/><path d="M87.563 7.438A6.536 6.536 0 0 1 89 11.53c0 36.735-3.543 60.105-7.844 69.938C70.34 86.499 45.48 89 11.531 89a6.552 6.552 0 0 1-4.094-1.438A6.525 6.525 0 0 0 12.532 90c33.949 0 58.809-2.5 69.625-7.531C86.457 72.636 90 49.266 90 12.53a6.513 6.513 0 0 0-2.438-5.094z" opacity=".5" fill="url(#u)"/><path d="M89.969 19.281c-.406 32.854-3.782 53.973-7.813 63.188-10.14 4.716-32.628 7.205-63.375 7.5 30.865-.1 54.681-1.007 64.813-5.719 4.032-9.218 6.128-31.9 6.375-64.969z" opacity=".1"/><path d="M12 6c-3.324 0-6 2.676-6 6v72c0 .335.041.65.094.969.048.295.097.597.187.875l.032.094c.098.287.234.547.375.812.144.274.315.536.5.781a6.105 6.105 0 0 0 2.094 1.781c.278.14.573.247.874.344a4.843 4.843 0 0 1-.719-.375c-.007-.004-.023.005-.03 0-.033-.02-.063-.042-.095-.062-.12-.077-.23-.164-.343-.25-.106-.081-.214-.161-.313-.25a5.042 5.042 0 0 1-.5-.531 5.092 5.092 0 0 1-.312-.407c-.025-.038-.039-.086-.063-.125-.065-.103-.13-.204-.187-.312a5.371 5.371 0 0 1-.282-.625c-.008-.022-.023-.04-.03-.063-.033-.092-.037-.187-.063-.281-.03-.107-.07-.203-.094-.313A5.098 5.098 0 0 1 7 85V13c0-2.782 2.218-5 5-5h14V6H12zm18 0v2h36V6H30zm40 0v2h14c2.782 0 5 2.218 5 5v72c0 .364-.052.721-.125 1.063a4.896 4.896 0 0 1-.156.593c-.008.022-.024.04-.031.063a5.482 5.482 0 0 1-.22.531c-.04.083-.078.17-.124.25-.055.097-.127.188-.188.281a5.092 5.092 0 0 1-.312.406 5.05 5.05 0 0 1-.469.5l-.031.032a4.818 4.818 0 0 1-.438.344c-.102.073-.204.153-.312.218-.008.005-.024-.004-.031 0a4.843 4.843 0 0 1-.72.375c.302-.097.597-.204.876-.344a6.105 6.105 0 0 0 2.094-1.78c.184-.246.355-.508.5-.782a5.69 5.69 0 0 0 .374-.813l.032-.093c.09-.278.139-.58.187-.875.053-.318.094-.634.094-.969V12c0-3.324-2.676-6-6-6H70z" opacity=".4" fill="url(#v)"/><g font-size="4" font-weight="400" text-anchor="middle" fill="#fff" font-family="Sans"><path d="M65.215 24.349a.264.264 0 0 1 .154.089c.038.045.057.1.057.167 0 .102-.035.18-.105.236a.461.461 0 0 1-.295.084.926.926 0 0 1-.273-.051v-.135c.038.023.08.04.126.051a.583.583 0 0 0 .143.017.321.321 0 0 0 .197-.051.177.177 0 0 0 .069-.151.172.172 0 0 0-.064-.142.27.27 0 0 0-.176-.052h-.119v-.115h.125c.068 0 .12-.014.156-.04a.14.14 0 0 0 .054-.12.143.143 0 0 0-.056-.121.257.257 0 0 0-.16-.043.65.65 0 0 0-.121.012 1.103 1.103 0 0 0-.144.039v-.124c.053-.015.102-.026.148-.034a.826.826 0 0 1 .13-.01c.105 0 .188.024.249.072a.234.234 0 0 1 .092.195.222.222 0 0 1-.049.145.254.254 0 0 1-.138.082m-.842 2.137h.226v-.787l-.245.05v-.128l.244-.05h.138v.915h.226v.117h-.589v-.117m1.165-.823c-.071 0-.125.036-.161.107a.734.734 0 0 0-.053.318c0 .142.017.248.053.319.036.07.09.106.16.106.072 0 .126-.036.162-.106a.729.729 0 0 0 .054-.319.726.726 0 0 0-.054-.318c-.036-.071-.09-.107-.161-.107m0-.11c.114 0 .202.046.262.137.06.092.091.224.091.398 0 .174-.03.307-.091.398a.295.295 0 0 1-.262.137.297.297 0 0 1-.263-.137c-.06-.091-.09-.224-.09-.398 0-.174.03-.306.09-.398a.296.296 0 0 1 .263-.137m-1.165 2.631h.226v-.787l-.245.05v-.127l.244-.05h.138v.914h.226v.118h-.589v-.118m.834-.914h.657v.06l-.37.972h-.145l.349-.915h-.49v-.117m-.74 2.613h.483V30h-.649v-.117c.053-.055.124-.129.214-.22a5.71 5.71 0 0 0 .172-.18.646.646 0 0 0 .092-.127.226.226 0 0 0 .027-.103c0-.055-.02-.1-.058-.134a.212.212 0 0 0-.148-.052.46.46 0 0 0-.138.023.826.826 0 0 0-.154.069v-.141c.056-.023.108-.04.156-.051a.577.577 0 0 1 .133-.017c.106 0 .19.026.253.08a.267.267 0 0 1 .095.214.31.31 0 0 1-.024.12.576.576 0 0 1-.086.135 87.227 87.227 0 0 1-.368.384m1.154-.793l-.35.55h.35v-.55m-.036-.122h.174v.673h.145v.116h-.145V30h-.138v-.243h-.461v-.135l.425-.654M67.867 23.975l-.35.55h.35v-.55m-.036-.122h.173v.672h.146v.117h-.146v.243h-.137v-.243h-.462v-.135l.426-.654m-.766 2.613h.225v-.787l-.245.05V25.6l.244-.05h.138v.915h.226v.117h-.588v-.117m.892 0h.226v-.787l-.246.05V25.6l.245-.05h.138v.915h.226v.117h-.589v-.117m-.892 1.698h.225v-.787l-.245.05V27.3l.244-.05h.138v.914h.226v.118h-.588v-.118m1.164-.372a.218.218 0 0 0-.155.053.192.192 0 0 0-.057.146c0 .063.02.111.057.147.037.035.09.053.155.053a.218.218 0 0 0 .155-.053.192.192 0 0 0 .057-.147.191.191 0 0 0-.057-.146.217.217 0 0 0-.155-.053m-.138-.06a.25.25 0 0 1-.14-.083.232.232 0 0 1-.049-.15.24.24 0 0 1 .087-.196.367.367 0 0 1 .24-.072c.102 0 .182.024.24.072a.24.24 0 0 1 .087.196.23.23 0 0 1-.188.233.255.255 0 0 1 .212.26c0 .1-.03.176-.092.23-.06.053-.146.08-.259.08a.381.381 0 0 1-.26-.08c-.06-.054-.09-.13-.09-.23 0-.067.018-.122.056-.168a.276.276 0 0 1 .156-.092m-.051-.22a.16.16 0 0 0 .05.125c.033.03.08.045.139.045a.2.2 0 0 0 .139-.045.158.158 0 0 0 .05-.125.158.158 0 0 0-.05-.125.2.2 0 0 0-.139-.045.202.202 0 0 0-.14.045.16.16 0 0 0-.049.125m-.88 2.35h.482v.118h-.649v-.118l.215-.22a5.71 5.71 0 0 0 .17-.179.646.646 0 0 0 .093-.127.226.226 0 0 0 .027-.103c0-.055-.02-.1-.058-.134a.212.212 0 0 0-.148-.052.46.46 0 0 0-.138.023.826.826 0 0 0-.154.069v-.141c.056-.023.108-.04.156-.051a.577.577 0 0 1 .133-.017c.106 0 .19.026.253.08a.267.267 0 0 1 .095.214.31.31 0 0 1-.024.12.576.576 0 0 1-.086.135 87.135 87.135 0 0 1-.368.384m.776-.915h.542v.118h-.416v.253a.36.36 0 0 1 .12-.021c.115 0 .205.031.272.095.066.063.1.148.1.256a.331.331 0 0 1-.103.26.42.42 0 0 1-.29.091.808.808 0 0 1-.269-.044v-.14a.536.536 0 0 0 .267.067.268.268 0 0 0 .187-.063.22.22 0 0 0 .07-.171.22.22 0 0 0-.07-.17.268.268 0 0 0-.187-.064.505.505 0 0 0-.223.051v-.518M70.167 23.853h.543v.118h-.416v.252a.36.36 0 0 1 .12-.02c.114 0 .205.031.271.094.067.064.1.149.1.257a.331.331 0 0 1-.102.259.42.42 0 0 1-.29.092.808.808 0 0 1-.269-.044v-.14a.536.536 0 0 0 .266.066.268.268 0 0 0 .188-.063.22.22 0 0 0 .069-.17.22.22 0 0 0-.07-.17.268.268 0 0 0-.187-.064.505.505 0 0 0-.223.051v-.518m-.424 2.613h.226v-.787l-.245.05V25.6l.244-.05h.138v.915h.226v.117h-.589v-.117m.988 0h.483v.117h-.65v-.117l.215-.22a5.71 5.71 0 0 0 .171-.18.645.645 0 0 0 .093-.127.226.226 0 0 0 .026-.103c0-.055-.019-.1-.057-.134a.212.212 0 0 0-.149-.052.46.46 0 0 0-.137.023.826.826 0 0 0-.154.07V25.6c.055-.022.107-.04.156-.051a.577.577 0 0 1 .133-.017c.105 0 .19.026.253.08a.267.267 0 0 1 .094.214.31.31 0 0 1-.024.121.576.576 0 0 1-.085.134 87.193 87.193 0 0 1-.368.384m-.988 1.698h.226v-.787l-.245.05V27.3l.244-.05h.138v.914h.226v.118h-.589v-.118m.873.096v-.127a.547.547 0 0 0 .21.051c.092 0 .161-.03.21-.092a.503.503 0 0 0 .082-.283.27.27 0 0 1-.236.123.321.321 0 0 1-.243-.093.358.358 0 0 1-.089-.257.35.35 0 0 1 .094-.255.33.33 0 0 1 .247-.096c.119 0 .209.046.27.138.063.09.095.224.095.398a.612.612 0 0 1-.115.39.372.372 0 0 1-.308.145.553.553 0 0 1-.106-.01.748.748 0 0 1-.11-.032m.274-.437a.182.182 0 0 0 .148-.065.263.263 0 0 0 .054-.176.262.262 0 0 0-.054-.175.181.181 0 0 0-.148-.065.183.183 0 0 0-.147.065.264.264 0 0 0-.055.175c0 .075.018.134.055.176a.184.184 0 0 0 .147.065m-1.052 2.04h.482v.117h-.649v-.118l.214-.22a5.71 5.71 0 0 0 .172-.179.646.646 0 0 0 .092-.127.226.226 0 0 0 .027-.103c0-.055-.02-.1-.058-.134a.212.212 0 0 0-.148-.052.46.46 0 0 0-.138.023.826.826 0 0 0-.154.069v-.141c.056-.023.108-.04.156-.051a.577.577 0 0 1 .133-.017c.106 0 .19.026.253.08a.267.267 0 0 1 .095.214.31.31 0 0 1-.024.12.576.576 0 0 1-.086.135 87.144 87.144 0 0 1-.368.384m1.087-.455a.184.184 0 0 0-.148.065.265.265 0 0 0-.054.176c0 .074.018.133.054.176a.184.184 0 0 0 .148.064.182.182 0 0 0 .147-.064.265.265 0 0 0 .055-.176.263.263 0 0 0-.055-.176.182.182 0 0 0-.147-.065m.274-.437v.127a.547.547 0 0 0-.21-.051.25.25 0 0 0-.21.093.505.505 0 0 0-.081.282.273.273 0 0 1 .235-.124c.103 0 .184.031.243.095.06.062.09.148.09.256a.35.35 0 0 1-.093.255.33.33 0 0 1-.248.096.308.308 0 0 1-.271-.137c-.063-.092-.094-.224-.094-.398a.61.61 0 0 1 .115-.39.373.373 0 0 1 .309-.145c.034 0 .07.003.105.01a.748.748 0 0 1 .11.031M73.164 24.333a.184.184 0 0 0-.148.065.265.265 0 0 0-.054.176c0 .074.018.133.054.176a.184.184 0 0 0 .148.064.182.182 0 0 0 .147-.064.265.265 0 0 0 .055-.176.263.263 0 0 0-.055-.176.182.182 0 0 0-.147-.065m.274-.437v.127a.547.547 0 0 0-.21-.051.25.25 0 0 0-.21.093.505.505 0 0 0-.082.282.273.273 0 0 1 .236-.124c.102 0 .183.031.243.094s.09.149.09.257a.35.35 0 0 1-.094.255.33.33 0 0 1-.247.096.308.308 0 0 1-.271-.137c-.063-.092-.094-.224-.094-.398a.61.61 0 0 1 .115-.39.373.373 0 0 1 .308-.146c.035 0 .07.004.105.01a.748.748 0 0 1 .111.032m-1.01 2.59h.226v-.787l-.245.05v-.128l.244-.05h.138v.915h.226v.117h-.589v-.117m1.288-.44a.264.264 0 0 1 .155.09c.037.045.056.101.056.167 0 .102-.035.18-.104.237a.461.461 0 0 1-.296.083.926.926 0 0 1-.273-.051v-.135c.038.023.08.04.126.052a.583.583 0 0 0 .143.017.321.321 0 0 0 .198-.052.177.177 0 0 0 .068-.15.172.172 0 0 0-.063-.143.27.27 0 0 0-.176-.052h-.12v-.115h.125c.068 0 .12-.013.156-.04a.14.14 0 0 0 .054-.12.143.143 0 0 0-.056-.12.257.257 0 0 0-.16-.044.65.65 0 0 0-.121.013 1.103 1.103 0 0 0-.143.038v-.124c.052-.015.101-.026.147-.033a.826.826 0 0 1 .13-.011c.105 0 .188.024.25.072a.234.234 0 0 1 .09.195.222.222 0 0 1-.048.145.254.254 0 0 1-.138.082m-1.192 2.137h.482v.118h-.649v-.118l.214-.22a5.71 5.71 0 0 0 .172-.18.646.646 0 0 0 .092-.126.226.226 0 0 0 .027-.103c0-.055-.02-.1-.058-.135a.212.212 0 0 0-.148-.051.46.46 0 0 0-.138.022.826.826 0 0 0-.154.07v-.141c.056-.023.108-.04.156-.052a.577.577 0 0 1 .133-.017c.106 0 .19.027.253.08a.267.267 0 0 1 .095.215.31.31 0 0 1-.024.12.576.576 0 0 1-.086.135 87.185 87.185 0 0 1-.368.384m1.07-.823c-.071 0-.125.035-.161.106a.734.734 0 0 0-.053.319c0 .141.017.247.053.318.036.07.09.106.16.106.072 0 .126-.035.162-.106a.729.729 0 0 0 .054-.318.726.726 0 0 0-.054-.319c-.036-.07-.09-.106-.161-.106m0-.11c.114 0 .202.045.262.137.06.09.091.224.091.398 0 .173-.03.306-.091.398a.295.295 0 0 1-.262.137.297.297 0 0 1-.263-.137c-.06-.092-.09-.225-.09-.398 0-.174.03-.307.09-.398a.296.296 0 0 1 .263-.138m-1.07 2.632h.483V30h-.649v-.117c.053-.055.124-.129.214-.22a5.71 5.71 0 0 0 .172-.18.645.645 0 0 0 .092-.127.226.226 0 0 0 .027-.103c0-.055-.02-.1-.058-.134a.212.212 0 0 0-.148-.052.46.46 0 0 0-.138.023.826.826 0 0 0-.154.069v-.141c.056-.023.108-.04.156-.051a.577.577 0 0 1 .133-.017c.106 0 .19.026.253.08a.267.267 0 0 1 .095.214.31.31 0 0 1-.024.12.576.576 0 0 1-.086.135 87.185 87.185 0 0 1-.368.384m.74-.915h.656v.06l-.37.972h-.145l.349-.914h-.49v-.118M75.491 23.853h.657v.06l-.37.972h-.145l.35-.914h-.492v-.118m-.387 2.613h.226v-.787l-.246.05V25.6l.244-.05h.139v.915h.226v.117h-.59v-.117m1.25-.793l-.35.55h.35v-.55m-.037-.122h.174v.673h.146v.116h-.146v.243h-.138v-.243h-.461v-.135l.425-.654M75.2 28.164h.483v.118h-.65v-.118l.215-.22a5.71 5.71 0 0 0 .171-.18.646.646 0 0 0 .092-.127.226.226 0 0 0 .027-.102c0-.055-.02-.1-.057-.135a.212.212 0 0 0-.149-.051.46.46 0 0 0-.138.022.826.826 0 0 0-.154.07V27.3c.056-.023.108-.04.157-.052a.577.577 0 0 1 .132-.017c.106 0 .19.027.254.08a.267.267 0 0 1 .094.215.31.31 0 0 1-.024.12.576.576 0 0 1-.085.135 87.177 87.177 0 0 1-.368.384m.797 0h.226v-.788l-.245.05V27.3l.244-.05h.138v.914h.226v.118h-.589v-.118m-.797 1.698h.483v.118h-.65v-.118l.215-.22a5.71 5.71 0 0 0 .171-.179.646.646 0 0 0 .092-.127.226.226 0 0 0 .027-.103c0-.055-.02-.1-.057-.134a.212.212 0 0 0-.149-.052.46.46 0 0 0-.138.023.826.826 0 0 0-.154.069v-.141c.056-.023.108-.04.157-.051a.577.577 0 0 1 .132-.017c.106 0 .19.026.254.08a.267.267 0 0 1 .094.214.31.31 0 0 1-.024.12.576.576 0 0 1-.085.135 87.135 87.135 0 0 1-.368.384m1.07-.373a.218.218 0 0 0-.156.053.192.192 0 0 0-.056.147c0 .062.018.11.056.146.038.036.09.053.155.053a.218.218 0 0 0 .156-.053.192.192 0 0 0 .056-.146.191.191 0 0 0-.056-.147.217.217 0 0 0-.156-.053m-.138-.06a.25.25 0 0 1-.139-.083.232.232 0 0 1-.05-.15.24.24 0 0 1 .088-.196.367.367 0 0 1 .24-.071c.101 0 .18.023.239.071a.24.24 0 0 1 .087.196.23.23 0 0 1-.188.234.255.255 0 0 1 .212.26c0 .099-.03.175-.091.229-.06.053-.147.08-.26.08a.381.381 0 0 1-.26-.08c-.06-.054-.09-.13-.09-.23 0-.066.018-.122.056-.168a.276.276 0 0 1 .156-.091m-.05-.22a.16.16 0 0 0 .049.124c.033.03.08.045.14.045a.2.2 0 0 0 .138-.045.158.158 0 0 0 .05-.125.158.158 0 0 0-.05-.125.2.2 0 0 0-.139-.045.202.202 0 0 0-.14.045.16.16 0 0 0-.049.125M78.243 23.069h.226v-.787l-.246.05v-.128l.244-.05h.138v.915h.226v.117h-.588v-.117m.271 1.326a.218.218 0 0 0-.155.053.192.192 0 0 0-.056.147c0 .062.019.11.056.146.038.036.09.053.155.053a.218.218 0 0 0 .156-.053.192.192 0 0 0 .057-.146.19.19 0 0 0-.057-.147.217.217 0 0 0-.156-.053m-.138-.06a.25.25 0 0 1-.139-.083.232.232 0 0 1-.05-.15.24.24 0 0 1 .088-.196.367.367 0 0 1 .24-.072c.101 0 .181.024.239.072a.24.24 0 0 1 .087.196.23.23 0 0 1-.188.233.255.255 0 0 1 .212.26c0 .1-.03.176-.091.23-.06.053-.147.08-.26.08a.381.381 0 0 1-.26-.08c-.06-.054-.09-.13-.09-.23 0-.066.019-.122.056-.168a.276.276 0 0 1 .156-.092m-.05-.22a.16.16 0 0 0 .049.125c.033.03.08.045.14.045a.2.2 0 0 0 .138-.045.158.158 0 0 0 .051-.125.159.159 0 0 0-.05-.125.2.2 0 0 0-.14-.045.202.202 0 0 0-.14.045.16.16 0 0 0-.049.125m-.529 2.35h.226v-.786l-.246.05V25.6l.245-.05h.138v.915h.226v.117h-.589v-.117m.87-.915h.543v.118h-.416v.253a.361.361 0 0 1 .12-.02c.115 0 .205.03.272.094.066.063.1.148.1.256a.331.331 0 0 1-.103.26.42.42 0 0 1-.29.091.808.808 0 0 1-.269-.044v-.14a.536.536 0 0 0 .267.067.268.268 0 0 0 .187-.063.22.22 0 0 0 .07-.17.22.22 0 0 0-.07-.172.268.268 0 0 0-.187-.062.505.505 0 0 0-.224.05v-.518m-.775 2.613h.483v.118h-.649v-.118l.214-.22c.091-.093.148-.153.172-.18a.645.645 0 0 0 .092-.127.226.226 0 0 0 .027-.102c0-.055-.02-.1-.058-.135a.212.212 0 0 0-.148-.051.46.46 0 0 0-.138.022.826.826 0 0 0-.154.07V27.3c.056-.023.108-.04.156-.052a.577.577 0 0 1 .133-.017c.106 0 .19.027.253.08a.267.267 0 0 1 .095.215.31.31 0 0 1-.024.12.576.576 0 0 1-.086.135 87 87 0 0 1-.368.384m.893 0h.483v.117h-.65v-.118l.215-.22a5.71 5.71 0 0 0 .171-.18.645.645 0 0 0 .093-.127.226.226 0 0 0 .026-.102c0-.055-.019-.1-.057-.135a.212.212 0 0 0-.149-.051.46.46 0 0 0-.137.022.826.826 0 0 0-.154.07V27.3c.055-.023.107-.04.156-.052a.577.577 0 0 1 .133-.017c.105 0 .19.027.253.08a.267.267 0 0 1 .094.215.31.31 0 0 1-.024.12.576.576 0 0 1-.085.135 87.424 87.424 0 0 1-.368.384m-.893 1.697h.483v.118h-.649v-.118l.214-.22c.091-.093.148-.152.172-.179a.645.645 0 0 0 .092-.127.226.226 0 0 0 .027-.103c0-.055-.02-.1-.058-.134a.212.212 0 0 0-.148-.052.46.46 0 0 0-.138.023.826.826 0 0 0-.154.069v-.141c.056-.023.108-.04.156-.051a.577.577 0 0 1 .133-.017c.106 0 .19.026.253.08a.267.267 0 0 1 .095.214.31.31 0 0 1-.024.12.576.576 0 0 1-.086.135 87 87 0 0 1-.368.384m.778.096v-.128a.547.547 0 0 0 .21.052c.092 0 .161-.031.21-.093a.503.503 0 0 0 .082-.283.27.27 0 0 1-.236.123.321.321 0 0 1-.243-.093.358.358 0 0 1-.089-.256.35.35 0 0 1 .093-.255.33.33 0 0 1 .248-.096c.119 0 .209.045.27.137.063.091.094.224.094.398a.612.612 0 0 1-.115.39.372.372 0 0 1-.308.145.553.553 0 0 1-.105-.01.748.748 0 0 1-.11-.031m.274-.438a.182.182 0 0 0 .147-.064.263.263 0 0 0 .055-.176.262.262 0 0 0-.055-.176.181.181 0 0 0-.147-.065.183.183 0 0 0-.148.065.264.264 0 0 0-.054.176c0 .074.018.133.054.176a.184.184 0 0 0 .148.064M81.015 23.069h.483v.117h-.65v-.117l.215-.22c.091-.093.148-.153.171-.18a.645.645 0 0 0 .093-.127.226.226 0 0 0 .026-.103c0-.054-.019-.1-.057-.134a.212.212 0 0 0-.149-.052.46.46 0 0 0-.137.023.826.826 0 0 0-.154.07v-.142c.055-.022.107-.04.156-.05a.577.577 0 0 1 .133-.018c.106 0 .19.027.253.08a.267.267 0 0 1 .094.214.31.31 0 0 1-.024.121.576.576 0 0 1-.085.134 87.05 87.05 0 0 1-.368.384m-.115 1.794v-.127a.547.547 0 0 0 .21.051c.092 0 .161-.03.21-.092a.503.503 0 0 0 .082-.283.27.27 0 0 1-.235.123.321.321 0 0 1-.243-.093.358.358 0 0 1-.09-.257.35.35 0 0 1 .094-.255.33.33 0 0 1 .247-.096c.119 0 .209.046.27.138.063.091.095.224.095.398a.612.612 0 0 1-.115.39.372.372 0 0 1-.308.145.553.553 0 0 1-.106-.01.748.748 0 0 1-.11-.032m.274-.437a.182.182 0 0 0 .148-.064.263.263 0 0 0 .054-.177.262.262 0 0 0-.054-.175.181.181 0 0 0-.148-.065.183.183 0 0 0-.147.065.264.264 0 0 0-.054.175c0 .075.018.134.054.177a.184.184 0 0 0 .147.064m-.701 2.04h.226v-.787l-.246.05V25.6l.244-.05h.139v.915h.225v.117h-.588v-.117m1.181-.454a.184.184 0 0 0-.148.064.265.265 0 0 0-.054.176c0 .074.018.133.054.176a.184.184 0 0 0 .148.065.182.182 0 0 0 .148-.065.265.265 0 0 0 .054-.176.263.263 0 0 0-.054-.176.182.182 0 0 0-.148-.064m.275-.438v.127a.547.547 0 0 0-.21-.05.25.25 0 0 0-.21.093.506.506 0 0 0-.082.281.273.273 0 0 1 .236-.124c.102 0 .183.032.243.095.06.062.09.148.09.256a.35.35 0 0 1-.094.255.33.33 0 0 1-.248.096.308.308 0 0 1-.27-.137c-.063-.091-.095-.224-.095-.398a.61.61 0 0 1 .115-.39.373.373 0 0 1 .31-.145c.034 0 .069.003.104.01a.748.748 0 0 1 .11.031m-1.36 2.59h.483v.118h-.65v-.118l.215-.22c.09-.093.148-.153.171-.18a.645.645 0 0 0 .092-.127.226.226 0 0 0 .027-.102c0-.055-.02-.1-.057-.135a.212.212 0 0 0-.149-.051.46.46 0 0 0-.138.022.826.826 0 0 0-.154.07V27.3c.056-.023.108-.04.157-.052a.577.577 0 0 1 .132-.017c.106 0 .19.027.254.08a.267.267 0 0 1 .094.215.31.31 0 0 1-.024.12.576.576 0 0 1-.085.135 87 87 0 0 1-.368.384m1.192-.44a.264.264 0 0 1 .155.09c.038.045.056.1.056.167 0 .101-.034.18-.104.236a.461.461 0 0 1-.296.084.926.926 0 0 1-.273-.051v-.135a.583.583 0 0 0 .269.068.321.321 0 0 0 .198-.052.177.177 0 0 0 .069-.15.172.172 0 0 0-.064-.143.27.27 0 0 0-.176-.052h-.119v-.114h.125c.068 0 .12-.014.156-.041a.14.14 0 0 0 .054-.119.143.143 0 0 0-.056-.122.257.257 0 0 0-.16-.042.65.65 0 0 0-.122.012 1.103 1.103 0 0 0-.143.039v-.125c.053-.014.102-.025.147-.033a.826.826 0 0 1 .13-.01c.105 0 .188.023.25.072a.234.234 0 0 1 .091.195.222.222 0 0 1-.048.145.255.255 0 0 1-.139.081m-.892 1.699a.265.265 0 0 1 .154.089c.038.045.057.1.057.167 0 .102-.035.18-.104.236a.461.461 0 0 1-.296.084.926.926 0 0 1-.273-.051v-.135c.038.023.08.04.126.051a.583.583 0 0 0 .143.018.321.321 0 0 0 .198-.052.177.177 0 0 0 .068-.151.172.172 0 0 0-.064-.142.27.27 0 0 0-.176-.052h-.119v-.115h.125c.068 0 .12-.013.156-.04a.14.14 0 0 0 .054-.12.143.143 0 0 0-.056-.121.257.257 0 0 0-.16-.043.65.65 0 0 0-.121.012 1.103 1.103 0 0 0-.144.04v-.125c.053-.015.102-.026.148-.033a.826.826 0 0 1 .13-.011c.105 0 .188.024.249.072a.234.234 0 0 1 .092.195.222.222 0 0 1-.049.145.254.254 0 0 1-.138.082m.77-.384c-.072 0-.126.036-.162.107a.734.734 0 0 0-.053.318c0 .142.018.248.053.319.036.07.09.105.161.105.072 0 .125-.035.161-.105a.729.729 0 0 0 .054-.319.726.726 0 0 0-.054-.318c-.036-.071-.09-.107-.16-.107m0-.11c.114 0 .201.045.261.137.061.091.091.224.091.398 0 .174-.03.306-.09.398a.295.295 0 0 1-.263.137.297.297 0 0 1-.263-.137c-.06-.092-.09-.224-.09-.398 0-.174.03-.307.09-.398a.296.296 0 0 1 .263-.137" style="text-align:center;line-height:120.00000477%;-inkscape-font-specification:Sans"/></g><path d="M-67.81 59.976a6916.406 6916.406 0 0 1 0-1.921c0-6.993-1.667-10.49-5.002-10.49-3.368 0-5.052 3.448-5.052 10.342a26412.767 26412.767 0 0 0 0 3.99c0 6.992 1.684 10.489 5.052 10.489 3.335 0 5.002-3.579 5.002-10.736a6349.416 6349.416 0 0 1 0-1.674m6.965-1.133c0 5.778-.621 10.063-1.864 12.853-1.863 4.17-5.297 6.271-10.3 6.304-4.283.033-7.373-1.609-9.27-4.925-1.372-2.364-2.239-5.959-2.599-10.785a39.385 39.385 0 0 1-.147-3.349c0-4.793.801-8.618 2.403-11.474C-80.594 43.823-77.39 42-73.008 42c8.109 0 12.163 5.615 12.163 16.843M-40.975 78h-6.916V53.19h-8.338v-4.962c5.984 0 9.188-2.076 9.613-6.228h5.64v36" style="text-align:center;line-height:125%;-inkscape-font-specification:Coolvetica Bold" font-size="49.046" font-weight="700" text-anchor="middle" opacity=".8" font-family="Coolvetica"/><g font-size="18.631" font-weight="700" fill="#fff" font-family="Liberation Sans"><path d="M15.79 30.17c-.4 0-.757-.041-1.07-.124a2.22 2.22 0 0 1-.815-.396 2.153 2.153 0 0 1-.571-.702A3.881 3.881 0 0 1 13 27.896l1.658-.244c.038.223.09.412.158.566.068.151.15.276.244.374.098.094.209.164.333.209.125.042.26.062.408.062.332 0 .583-.111.752-.334.174-.222.26-.54.26-.956v-4.181h-1.59v-1.307h3.254v5.449c0 .403-.058.77-.175 1.097-.117.325-.29.602-.52.832a2.306 2.306 0 0 1-.844.526c-.332.121-.715.181-1.148.181M25.685 30.06l-.692-1.993H22.02l-.692 1.993h-1.634l2.846-7.801h1.927l2.834 7.8h-1.616m-1.827-5.464l-.133-.387-.11-.36a6.483 6.483 0 0 0-.078-.272 1.351 1.351 0 0 0-.034-.116 7.234 7.234 0 0 1-.221.747c-.04.13-.083.259-.127.388l-.77 2.242h2.242l-.77-2.242M33.419 30.06l-3.725-6.007c.02.162.039.324.055.487.016.14.028.291.036.454.013.162.019.317.019.465v4.6h-1.59v-7.8h2.045l3.778 6.057c-.02-.155-.038-.318-.054-.488-.016-.144-.03-.306-.043-.487a12.25 12.25 0 0 1-.012-.548V22.26h1.59v7.8h-2.1" style="text-align:start;line-height:125%;-inkscape-font-specification:Abandoned Bitplane Bold"/></g><path d="M46.152 63c0 2.786-.255 5.138-.766 7.055-.51 1.904-1.22 3.448-2.13 4.635-.897 1.172-1.966 2.02-3.208 2.544-1.227.51-2.572.766-4.034.766-1.462 0-2.807-.255-4.035-.766-1.227-.51-2.282-1.351-3.165-2.524-.883-1.186-1.573-2.73-2.07-4.634C26.249 68.159 26 65.8 26 63c0-2.938.241-5.365.724-7.283.497-1.93 1.193-3.469 2.09-4.614.896-1.144 1.965-1.944 3.207-2.4 1.255-.468 2.641-.703 4.158-.703 1.421 0 2.738.235 3.952.703 1.228.456 2.283 1.256 3.166 2.4.896 1.145 1.593 2.683 2.09 4.614.51 1.918.765 4.345.765 7.283m-5.835 0c0-2.055-.076-3.752-.227-5.09-.152-1.351-.393-2.42-.724-3.207-.332-.8-.766-1.358-1.304-1.675-.524-.318-1.165-.476-1.924-.476-.814 0-1.497.165-2.048.496-.552.318-1 .876-1.345 1.676-.331.8-.573 1.876-.724 3.228-.138 1.338-.207 3.02-.207 5.048 0 2 .076 3.669.227 5.007.152 1.338.393 2.414.725 3.227.33.8.765 1.366 1.303 1.697.538.331 1.2.497 1.986.497.759 0 1.407-.166 1.945-.497.538-.331.98-.897 1.324-1.697.345-.813.593-1.89.745-3.227.165-1.338.248-3.007.248-5.007M53.286 78v-4.45h5.716V53.946L53.52 58.44v-5.563L59.32 48h5.664v25.55h5.163V78H53.286" style="text-align:start;line-height:125%;-inkscape-font-specification:Abandoned Bitplane Bold" font-size="36" font-weight="700" opacity=".8" font-family="Liberation Sans"/><g style="text-align:start;line-height:125%;-inkscape-font-specification:Liberation Sans" font-size="4.209" font-weight="400" fill="#4d4d4d" font-family="Liberation Sans"><path d="M14 41.959v-2.896h.393v2.575h1.463v.32H14M17.5 42c-.159 0-.31-.021-.452-.064a1.062 1.062 0 0 1-.376-.197.97.97 0 0 1-.255-.341 1.177 1.177 0 0 1-.095-.491v-1.844h.393v1.81c0 .147.02.272.058.375.04.101.094.184.164.248a.65.65 0 0 0 .247.142c.095.03.2.043.314.043.112 0 .219-.015.319-.045s.187-.078.263-.144a.662.662 0 0 0 .176-.257c.044-.106.066-.236.066-.388v-1.784h.39v1.807c0 .193-.032.36-.096.503a.975.975 0 0 1-.259.352c-.11.093-.238.162-.386.207a1.589 1.589 0 0 1-.47.068M21.263 41.959l-1.55-2.466.01.199a6.94 6.94 0 0 1 .011.343v1.924h-.35v-2.896h.457l1.566 2.483a4.972 4.972 0 0 1-.025-.584v-1.899h.354v2.896h-.473M24.92 40.481c0 .241-.037.454-.11.64a1.326 1.326 0 0 1-.297.462 1.264 1.264 0 0 1-.449.281 1.594 1.594 0 0 1-.554.095h-1.084v-2.896h.958c.224 0 .43.028.617.084.189.055.351.14.487.257.135.115.241.262.316.44.077.178.115.39.115.637m-.394 0c0-.196-.028-.363-.084-.501a.889.889 0 0 0-.237-.344.942.942 0 0 0-.364-.195 1.606 1.606 0 0 0-.464-.063h-.557v2.266h.645c.152 0 .293-.024.422-.074a.917.917 0 0 0 .337-.22c.094-.097.168-.218.222-.363.053-.145.08-.314.08-.506M25.511 41.959v-2.896h.393v2.896h-.393"/></g><path d="M106 6v2.563c-1.194.692-2 1.958-2 3.437a4 4 0 1 0 8 0c0-1.48-.806-2.745-2-3.438V6h-4zm40 0v2.563c-1.194.692-2 1.958-2 3.437a4 4 0 1 0 8 0c0-1.48-.806-2.745-2-3.438V6h-4z" opacity=".99" fill="#ffd42a"/><path d="M24.031 12.406c-.03.197-.031.388-.031.594a4 4 0 1 0 8 0 3.87 3.87 0 0 0-.031-.594A3.99 3.99 0 0 1 28 16a3.99 3.99 0 0 1-3.969-3.594zm40 0c-.03.197-.031.388-.031.594a4 4 0 1 0 8 0 3.87 3.87 0 0 0-.031-.594A3.99 3.99 0 0 1 68 16a3.99 3.99 0 0 1-3.969-3.594z" opacity=".3" fill="#fff"/></g><g><rect width="66" height="66" rx="12" ry="12" x="15" y="15" clip-path="url(#w)" opacity=".1" fill="url(#x)" stroke="#fff" stroke-width=".5" stroke-linecap="round" filter="url(#y)"/></g></svg>