<svg xmlns="http://www.w3.org/2000/svg" xmlns:xlink="http://www.w3.org/1999/xlink" version="1.0" width="96" height="96"><defs><linearGradient x1="45.448" y1="92.54" x2="45.448" y2="7.017" id="g" gradientUnits="userSpaceOnUse" gradientTransform="scale(1.00587 .99417)"><stop offset="0"/><stop offset="1" stop-opacity=".588"/></linearGradient><linearGradient id="a"><stop offset="0" stop-color="#ebebeb"/><stop offset="1" stop-color="#fafafa"/></linearGradient><linearGradient x1="48" y1="90" x2="48" y2="5.988" id="n" xlink:href="#a" gradientUnits="userSpaceOnUse"/><filter color-interpolation-filters="sRGB" id="h"><feGaussianBlur stdDeviation="1.71"/></filter><linearGradient x1="45.448" y1="92.54" x2="45.448" y2="7.017" id="b" gradientUnits="userSpaceOnUse" gradientTransform="matrix(1.00587 0 0 .99417 100 0)"><stop offset="0"/><stop offset="1" stop-opacity=".588"/></linearGradient><linearGradient x1="32.251" y1="6.132" x2="32.251" y2="90.239" id="j" xlink:href="#b" gradientUnits="userSpaceOnUse" gradientTransform="matrix(1.0238 0 0 1.0119 -1.143 -98.071)"/><linearGradient x1="32.251" y1="6.132" x2="32.251" y2="90.239" id="k" xlink:href="#b" gradientUnits="userSpaceOnUse" gradientTransform="matrix(1.0238 0 0 1.0119 -1.143 -98.071)"/><linearGradient x1="32.251" y1="6.132" x2="32.251" y2="90.239" id="l" xlink:href="#b" gradientUnits="userSpaceOnUse" gradientTransform="matrix(1.0238 0 0 1.0119 -1.143 -98.071)"/><linearGradient x1="32.251" y1="6.132" x2="32.251" y2="90.239" id="m" xlink:href="#b" gradientUnits="userSpaceOnUse" gradientTransform="translate(0 -97)"/><linearGradient x1="32.251" y1="6.132" x2="32.251" y2="90.239" id="i" xlink:href="#b" gradientUnits="userSpaceOnUse" gradientTransform="matrix(1.0238 0 0 1.0119 -1.143 -98.071)"/><linearGradient id="d"><stop offset="0" stop-color="#fff"/><stop offset="1" stop-color="#fff" stop-opacity="0"/></linearGradient><radialGradient cx="48" cy="90.172" r="42" fx="48" fy="90.172" id="p" xlink:href="#c" gradientUnits="userSpaceOnUse" gradientTransform="matrix(1.15731 0 0 .9959 -7.551 .197)"/><linearGradient id="c"><stop offset="0" stop-color="#fff"/><stop offset="1" stop-color="#fff" stop-opacity="0"/></linearGradient><linearGradient x1="36.357" y1="6" x2="36.357" y2="63.893" id="o" xlink:href="#d" gradientUnits="userSpaceOnUse"/><linearGradient id="e"><stop offset="0" stop-color="#bababa"/><stop offset="1" stop-color="#d2d2d2"/></linearGradient><linearGradient x1="71.672" y1="62.025" x2="71.672" y2="26.414" id="q" xlink:href="#e" gradientUnits="userSpaceOnUse" gradientTransform="matrix(1.33333 0 0 1.33333 -50.402 -11.13)"/><clipPath id="r"><path d="M-88 6c-3.324 0-6 2.676-6 6v72c0 3.324 2.676 6 6 6h72c3.324 0 6-2.676 6-6V12c0-3.324-2.676-6-6-6h-72zm38.656 18c1.646 0 3.03.56 4.188 1.656 1.178 1.097 1.75 2.425 1.75 3.969s-.572 2.872-1.75 3.969c-1.158 1.077-2.542 1.625-4.188 1.625-1.645 0-3.071-.548-4.25-1.625-1.178-1.097-1.75-2.425-1.75-3.969s.572-2.872 1.75-3.969C-52.415 24.56-50.989 24-49.344 24zm-5.593 16.25c2.417 0 4.293.603 5.593 1.781 1.32 1.158 1.938 2.694 1.938 4.563 0 .386-.024 1.056-.125 2.031a12.85 12.85 0 0 1-.5 2.656l-2.5 8.875c-.203.711-.369 1.523-.532 2.438-.162.914-.25 1.595-.25 2.062 0 1.179.253 2.011.782 2.438.528.426 1.45.625 2.75.625.61 0 1.321-.11 2.093-.313.773-.223 1.311-.4 1.657-.562l-.657 2.75a106.72 106.72 0 0 1-4.843 1.781c-1.199.427-2.572.625-4.157.625-2.438 0-4.357-.572-5.718-1.75-1.341-1.199-2-2.703-2-4.531 0-.711.086-1.456.187-2.188.102-.751.214-1.596.438-2.531l2.5-8.875c.223-.853.42-1.654.562-2.406.163-.772.25-1.464.25-2.094 0-1.138-.251-1.928-.718-2.375-.468-.447-1.336-.719-2.657-.719-.65 0-1.309.14-2 .344-.67.203-1.262.41-1.75.594l.656-2.75A59.615 59.615 0 0 1-59.188 41c1.504-.488 2.91-.75 4.25-.75z" fill="#f0f"/></clipPath><filter x="-.235" y="-.104" width="1.47" height="1.208" color-interpolation-filters="sRGB" id="s"><feGaussianBlur stdDeviation="2.076"/></filter><linearGradient id="f"><stop offset="0" stop-color="#fff"/><stop offset="1" stop-color="#fff" stop-opacity="0"/></linearGradient><clipPath id="t"><rect width="84" height="84" rx="6" ry="6" x="6" y="6" fill="#fff"/></clipPath><filter x="-.192" y="-.192" width="1.384" height="1.384" color-interpolation-filters="sRGB" id="v"><feGaussianBlur stdDeviation="5.28"/></filter><linearGradient x1="48" y1="20.221" x2="48" y2="138.661" id="u" xlink:href="#f" gradientUnits="userSpaceOnUse"/></defs><g transform="scale(1 -1)"><path d="M12-95.031c-5.511 0-10.031 4.52-10.031 10.031v71C1.969-8.489 6.489-3.969 12-3.969h72c5.511 0 10.031-4.52 10.031-10.031v-71c0-5.511-4.52-10.031-10.031-10.031H12z" opacity=".08" fill="url(#i)"/><path d="M12-94.031c-4.972 0-9.031 4.06-9.031 9.031v71c0 4.972 4.06 9.031 9.031 9.031h72c4.972 0 9.031-4.06 9.031-9.031v-71c0-4.972-4.06-9.031-9.031-9.031H12z" opacity=".1" fill="url(#j)"/><path d="M12-93c-4.41 0-8 3.59-8 8v71c0 4.41 3.59 8 8 8h72c4.41 0 8-3.59 8-8v-71c0-4.41-3.59-8-8-8H12z" opacity=".2" fill="url(#k)"/><rect width="86" height="85" rx="7" ry="7" x="5" y="-92" opacity=".3" fill="url(#l)"/><rect width="84" height="84" rx="6" ry="6" x="6" y="-91" opacity=".45" fill="url(#m)"/></g><rect width="84" height="84" rx="6" ry="6" x="6" y="6" fill="url(#n)"/><path d="M12 6c-3.324 0-6 2.676-6 6v72c0 .335.041.65.094.969.048.295.097.597.187.875l.032.094c.098.287.234.547.375.812.144.274.315.536.5.781a6.105 6.105 0 0 0 2.094 1.781c.278.14.573.247.874.344a4.843 4.843 0 0 1-.719-.375c-.007-.004-.023.005-.03 0-.033-.02-.063-.042-.095-.062-.12-.077-.23-.164-.343-.25-.106-.081-.214-.161-.313-.25a5.042 5.042 0 0 1-.5-.531 5.092 5.092 0 0 1-.312-.407c-.025-.038-.039-.086-.063-.125-.065-.103-.13-.204-.187-.312a5.371 5.371 0 0 1-.282-.625c-.008-.022-.023-.04-.03-.063-.033-.092-.037-.187-.063-.281-.03-.107-.07-.203-.094-.313A5.098 5.098 0 0 1 7 85V13c0-2.782 2.218-5 5-5h72c2.782 0 5 2.218 5 5v72c0 .364-.052.721-.125 1.063a4.896 4.896 0 0 1-.156.593c-.008.022-.024.04-.031.063a5.482 5.482 0 0 1-.22.531c-.04.083-.078.17-.124.25-.055.097-.127.188-.188.281a5.092 5.092 0 0 1-.312.406 5.05 5.05 0 0 1-.469.5l-.031.032a4.818 4.818 0 0 1-.438.344c-.102.073-.204.153-.312.218-.008.005-.024-.004-.031 0a4.843 4.843 0 0 1-.72.375c.302-.097.597-.204.876-.344a6.105 6.105 0 0 0 2.094-1.78c.184-.246.355-.508.5-.782a5.69 5.69 0 0 0 .374-.813l.032-.093c.09-.278.139-.58.187-.875.053-.318.094-.634.094-.969V12c0-3.324-2.676-6-6-6H12z" opacity=".5" fill="url(#o)"/><path d="M12 90c-3.324 0-6-2.676-6-6V12c0-.335.041-.65.094-.969.048-.295.097-.597.187-.875l.032-.094a5.69 5.69 0 0 1 .375-.812c.144-.274.315-.536.5-.781a6.105 6.105 0 0 1 2.094-1.781c.278-.14.573-.247.874-.344-.256.1-.486.236-.719.375-.007.004-.023-.005-.03 0-.033.019-.063.042-.095.062-.12.077-.23.164-.343.25-.106.081-.214.161-.313.25a5.042 5.042 0 0 0-.5.532c-.107.13-.218.265-.312.406-.025.038-.039.086-.063.125-.065.103-.13.204-.187.312a5.371 5.371 0 0 0-.282.625c-.007.022-.023.04-.03.063-.033.092-.037.187-.063.281-.03.107-.07.203-.094.313A5.098 5.098 0 0 0 7 11v72c0 2.782 2.218 5 5 5h72c2.782 0 5-2.218 5-5V11c0-.364-.052-.721-.125-1.063a4.896 4.896 0 0 0-.156-.593c-.008-.022-.024-.04-.031-.063a5.482 5.482 0 0 0-.22-.531c-.04-.083-.078-.17-.124-.25-.055-.097-.127-.188-.188-.281a5.092 5.092 0 0 0-.312-.406 5.05 5.05 0 0 0-.469-.5l-.031-.032a4.818 4.818 0 0 0-.438-.343c-.102-.074-.204-.154-.312-.22-.008-.004-.024.005-.031 0a4.843 4.843 0 0 0-.72-.374c.302.097.597.204.876.343a6.105 6.105 0 0 1 2.094 1.782c.184.245.355.507.5.781.14.265.276.525.374.813l.032.093c.09.278.139.58.187.875.053.318.094.634.094.969v72c0 3.324-2.676 6-6 6H12z" opacity=".4" fill="url(#p)"/><rect width="84" height="84" rx="6" ry="6" x="-94" y="6" fill="#f0f"/><path style="marker:none" color="#000" fill="#fff" stroke="#000" stroke-width=".5" stroke-linecap="round" stroke-dashoffset="8.6" overflow="visible" enable-background="accumulate" d="M112 8h16v16h-16z"/><text x="131.393" y="11.969" style="text-align:start;line-height:125%;-inkscape-font-specification:Liberation Sans" font-size="4" font-weight="400" font-family="Liberation Sans"><tspan x="131.393" y="11.969">Width: 2px</tspan><tspan x="131.393" y="16.969">Blur: 12</tspan><tspan x="131.393" y="21.969">Opacity: 60</tspan></text><path d="M50.646 24c-1.646 0-3.072.57-4.25 1.667-1.179 1.097-1.75 2.414-1.75 3.958s.571 2.861 1.75 3.958c1.178 1.077 2.604 1.625 4.25 1.625s3.05-.548 4.208-1.625c1.179-1.097 1.75-2.414 1.75-3.958s-.571-2.861-1.75-3.958C53.696 24.57 52.292 24 50.646 24zm-5.584 16.25c-1.34 0-2.746.262-4.25.75a59.368 59.368 0 0 0-4.75 1.708l-.666 2.75c.487-.182 1.08-.38 1.75-.583.69-.203 1.35-.333 2-.333 1.32 0 2.2.261 2.667.708.467.447.708 1.237.708 2.375 0 .63-.088 1.311-.25 2.083a35.786 35.786 0 0 1-.542 2.417L39.23 61c-.223.935-.357 1.79-.458 2.542a15.798 15.798 0 0 0-.167 2.166c0 1.829.66 3.343 2 4.542 1.361 1.178 3.27 1.75 5.709 1.75 1.584 0 2.967-.198 4.166-.625 1.199-.406 2.822-1 4.834-1.792l.666-2.75c-.345.163-.894.36-1.666.584a8.251 8.251 0 0 1-2.084.291c-1.3 0-2.222-.198-2.75-.625-.528-.426-.792-1.238-.791-2.416 0-.468.087-1.17.25-2.084.162-.914.338-1.705.541-2.416l2.5-8.875c.244-.813.419-1.692.5-2.667a20.34 20.34 0 0 0 .125-2.042c0-1.869-.638-3.383-1.958-4.541-1.3-1.179-3.166-1.792-5.584-1.792z" style="text-align:start;line-height:100%;-inkscape-font-specification:Georgia Bold Italic" font-size="48" font-style="italic" font-weight="700" writing-mode="tb-rl" fill="url(#q)" font-family="Georgia"/><path d="M50.656 24c-1.645 0-3.071.56-4.25 1.656-1.178 1.097-1.75 2.425-1.75 3.969 0 .15.02.292.032.438.125-1.302.687-2.447 1.718-3.407C47.585 25.56 49.011 25 50.656 25c1.646 0 3.03.56 4.188 1.656 1.03.96 1.593 2.105 1.718 3.407.011-.146.032-.288.032-.438 0-1.544-.572-2.872-1.75-3.969C53.686 24.56 52.302 24 50.656 24zm-5.593 16.25c-1.341 0-2.747.262-4.25.75a59.615 59.615 0 0 0-4.75 1.719l-.657 2.75.25-.094.407-1.656A59.615 59.615 0 0 1 40.813 42c1.503-.488 2.909-.75 4.25-.75 2.417 0 4.293.603 5.593 1.781 1.268 1.112 1.89 2.576 1.938 4.344.018-.34 0-.588 0-.781 0-1.87-.617-3.405-1.938-4.563-1.3-1.178-3.176-1.781-5.593-1.781zM42.5 48.188c-.035.475-.102.976-.219 1.53a36.308 36.308 0 0 1-.562 2.407L39.219 61c-.224.935-.336 1.78-.438 2.531-.101.732-.187 1.477-.187 2.188 0 .185.017.352.031.531.02-.563.076-1.144.156-1.719.102-.751.214-1.596.438-2.531l2.5-8.875c.223-.853.42-1.654.562-2.406.163-.772.25-1.464.25-2.094 0-.16-.022-.292-.031-.438zm6.219 16.937c-.016.184-.032.39-.032.531 0 1.179.253 2.011.782 2.438.528.426 1.45.625 2.75.625.61 0 1.321-.11 2.093-.313a13.726 13.726 0 0 0 1.407-.469l.25-1.093c-.346.162-.884.339-1.657.562-.772.203-1.484.313-2.093.313-1.3 0-2.222-.199-2.75-.625-.452-.365-.685-1.051-.75-1.969z" style="text-align:start;line-height:100%;-inkscape-font-specification:Georgia Bold Italic" font-size="48" font-style="italic" font-weight="700" writing-mode="tb-rl" opacity=".2" font-family="Georgia"/><path d="M44.688 30.188c-.011.145-.032.287-.032.437 0 1.544.572 2.872 1.75 3.969 1.179 1.077 2.605 1.625 4.25 1.625 1.646 0 3.03-.548 4.188-1.625 1.178-1.097 1.75-2.425 1.75-3.969 0-.15-.02-.292-.032-.438-.125 1.302-.687 2.447-1.718 3.407-1.158 1.077-2.542 1.625-4.188 1.625-1.645 0-3.071-.548-4.25-1.625-1.03-.96-1.593-2.105-1.718-3.407zM39.156 44.53c-.65 0-1.309.14-2 .344-.573.174-1.057.34-1.5.5l-.25 1.094c.488-.183 1.08-.39 1.75-.594.691-.203 1.35-.344 2-.344 1.32 0 2.19.272 2.657.719.401.384.63 1.042.687 1.938.014-.187.031-.386.031-.563 0-1.138-.251-1.928-.718-2.375-.468-.447-1.336-.719-2.657-.719zm13.438 2.907c-.02.33-.077.724-.125 1.187a12.85 12.85 0 0 1-.5 2.656l-2.5 8.875c-.203.711-.369 1.523-.532 2.438-.162.914-.25 1.595-.25 2.062 0 .17.02.314.032.469.036-.423.105-.894.218-1.531.163-.915.329-1.727.532-2.438l2.5-8.875a12.85 12.85 0 0 0 .5-2.656c.101-.975.125-1.645.125-2.031v-.157zM38.625 66.374c-.003.113-.031.232-.031.344 0 1.828.659 3.332 2 4.531 1.361 1.178 3.28 1.75 5.718 1.75 1.585 0 2.958-.198 4.157-.625a106.72 106.72 0 0 0 4.843-1.781l.657-2.75c-.066.03-.17.06-.25.094l-.407 1.656a106.72 106.72 0 0 1-4.843 1.781c-1.199.427-2.572.625-4.157.625-2.438 0-4.357-.572-5.718-1.75-1.174-1.049-1.825-2.344-1.969-3.875z" style="text-align:start;line-height:100%;-inkscape-font-specification:Georgia Bold Italic" font-size="48" font-style="italic" font-weight="700" writing-mode="tb-rl" fill="#fff" font-family="Georgia"/><path d="M-49.354 24c-1.646 0-3.072.57-4.25 1.667-1.179 1.097-1.75 2.414-1.75 3.958s.571 2.861 1.75 3.958c1.178 1.077 2.604 1.625 4.25 1.625s3.05-.548 4.208-1.625c1.179-1.097 1.75-2.414 1.75-3.958s-.571-2.861-1.75-3.958C-46.304 24.57-47.708 24-49.354 24zm-5.584 16.25c-1.34 0-2.746.262-4.25.75a59.368 59.368 0 0 0-4.75 1.708l-.666 2.75c.487-.182 1.08-.38 1.75-.583.69-.203 1.35-.333 2-.333 1.32 0 2.2.261 2.666.708.468.447.709 1.237.709 2.375 0 .63-.088 1.311-.25 2.083a35.786 35.786 0 0 1-.542 2.417L-60.77 61c-.223.935-.357 1.79-.458 2.542a15.798 15.798 0 0 0-.167 2.166c0 1.829.66 3.343 2 4.542 1.361 1.178 3.27 1.75 5.709 1.75 1.584 0 2.967-.198 4.166-.625 1.199-.406 2.822-1 4.834-1.792l.666-2.75c-.345.163-.894.36-1.666.584a8.251 8.251 0 0 1-2.084.291c-1.3 0-2.222-.198-2.75-.625-.528-.426-.792-1.238-.791-2.416 0-.468.087-1.17.25-2.084.162-.914.338-1.705.541-2.416l2.5-8.875c.244-.813.419-1.692.5-2.667a20.34 20.34 0 0 0 .125-2.042c0-1.869-.638-3.383-1.958-4.541-1.3-1.179-3.166-1.792-5.584-1.792z" transform="translate(100)" clip-path="url(#r)" style="text-align:start;line-height:100%;-inkscape-font-specification:Georgia Bold Italic" font-size="48" font-style="italic" font-weight="700" writing-mode="tb-rl" opacity=".6" fill="none" stroke="#fff" stroke-width="2" filter="url(#s)" font-family="Georgia"/><g><rect width="66" height="66" rx="12" ry="12" x="15" y="15" clip-path="url(#t)" opacity=".5" fill="url(#u)" stroke="#fff" stroke-width=".5" stroke-linecap="round" filter="url(#v)"/></g></svg>