<svg xmlns="http://www.w3.org/2000/svg" xmlns:xlink="http://www.w3.org/1999/xlink" version="1.0" width="96" height="96"><defs><linearGradient x1="45.448" y1="92.54" x2="45.448" y2="7.017" id="g" gradientUnits="userSpaceOnUse" gradientTransform="scale(1.00587 .99417)"><stop offset="0"/><stop offset="1" stop-opacity=".588"/></linearGradient><linearGradient id="a"><stop offset="0" stop-color="#e6e6e6"/><stop offset="1" stop-color="#f5f5f5"/></linearGradient><linearGradient x1="48" y1="90" x2="48" y2="5.988" id="n" xlink:href="#a" gradientUnits="userSpaceOnUse"/><filter color-interpolation-filters="sRGB" id="h"><feGaussianBlur stdDeviation="1.71"/></filter><linearGradient x1="45.448" y1="92.54" x2="45.448" y2="7.017" id="b" gradientUnits="userSpaceOnUse" gradientTransform="matrix(1.00587 0 0 .99417 100 0)"><stop offset="0"/><stop offset="1" stop-opacity=".588"/></linearGradient><linearGradient x1="32.251" y1="6.132" x2="32.251" y2="90.239" id="j" xlink:href="#b" gradientUnits="userSpaceOnUse" gradientTransform="matrix(1.0238 0 0 1.0119 -1.143 -98.071)"/><linearGradient x1="32.251" y1="6.132" x2="32.251" y2="90.239" id="k" xlink:href="#b" gradientUnits="userSpaceOnUse" gradientTransform="matrix(1.0238 0 0 1.0119 -1.143 -98.071)"/><linearGradient x1="32.251" y1="6.132" x2="32.251" y2="90.239" id="l" xlink:href="#b" gradientUnits="userSpaceOnUse" gradientTransform="matrix(1.0238 0 0 1.0119 -1.143 -98.071)"/><linearGradient x1="32.251" y1="6.132" x2="32.251" y2="90.239" id="m" xlink:href="#b" gradientUnits="userSpaceOnUse" gradientTransform="translate(0 -97)"/><linearGradient x1="32.251" y1="6.132" x2="32.251" y2="90.239" id="i" xlink:href="#b" gradientUnits="userSpaceOnUse" gradientTransform="matrix(1.0238 0 0 1.0119 -1.143 -98.071)"/><linearGradient id="d"><stop offset="0" stop-color="#fff"/><stop offset="1" stop-color="#fff" stop-opacity="0"/></linearGradient><radialGradient cx="48" cy="90.172" r="42" fx="48" fy="90.172" id="p" xlink:href="#c" gradientUnits="userSpaceOnUse" gradientTransform="matrix(1.15731 0 0 .9959 -7.551 .197)"/><linearGradient id="c"><stop offset="0" stop-color="#fff"/><stop offset="1" stop-color="#fff" stop-opacity="0"/></linearGradient><linearGradient x1="36.357" y1="6" x2="36.357" y2="63.893" id="o" xlink:href="#d" gradientUnits="userSpaceOnUse"/><linearGradient id="e"><stop offset="0" stop-color="#d4530d"/><stop offset="1" stop-color="#f7ad25"/></linearGradient><linearGradient x1="8" y1="40" x2="8" y2="-57.782" id="v" xlink:href="#e" gradientUnits="userSpaceOnUse" gradientTransform="translate(34 57.5) scale(.5625)"/><clipPath id="t"><path d="M-88 6c-3.324 0-6 2.676-6 6v72c0 3.324 2.676 6 6 6h72c3.324 0 6-2.676 6-6V12c0-3.324-2.676-6-6-6h-72zm4 38a36 36 0 0 1 36 36h-7.188A28.8 28.8 0 0 0-84 51.187V44zm0 12.125A23.863 23.863 0 0 1-60.125 80h-7A16.869 16.869 0 0 0-84 63.125v-7zm4.938 14a4.938 4.938 0 1 1-.001 9.876 4.938 4.938 0 0 1 0-9.876z" fill="#f0f"/></clipPath><filter color-interpolation-filters="sRGB" id="u"><feGaussianBlur stdDeviation="1.08"/></filter><linearGradient id="f"><stop offset="0" stop-color="#fff"/><stop offset="1" stop-color="#fff" stop-opacity="0"/></linearGradient><clipPath id="q"><rect width="84" height="84" rx="6" ry="6" x="6" y="6" fill="#fff"/></clipPath><filter x="-.192" y="-.192" width="1.384" height="1.384" color-interpolation-filters="sRGB" id="s"><feGaussianBlur stdDeviation="5.28"/></filter><linearGradient x1="48" y1="20.221" x2="48" y2="138.661" id="r" xlink:href="#f" gradientUnits="userSpaceOnUse"/></defs><g transform="scale(1 -1)"><path d="M12-95.031c-5.511 0-10.031 4.52-10.031 10.031v71C1.969-8.489 6.489-3.969 12-3.969h72c5.511 0 10.031-4.52 10.031-10.031v-71c0-5.511-4.52-10.031-10.031-10.031H12z" opacity=".08" fill="url(#i)"/><path d="M12-94.031c-4.972 0-9.031 4.06-9.031 9.031v71c0 4.972 4.06 9.031 9.031 9.031h72c4.972 0 9.031-4.06 9.031-9.031v-71c0-4.972-4.06-9.031-9.031-9.031H12z" opacity=".1" fill="url(#j)"/><path d="M12-93c-4.41 0-8 3.59-8 8v71c0 4.41 3.59 8 8 8h72c4.41 0 8-3.59 8-8v-71c0-4.41-3.59-8-8-8H12z" opacity=".2" fill="url(#k)"/><rect width="86" height="85" rx="7" ry="7" x="5" y="-92" opacity=".3" fill="url(#l)"/><rect width="84" height="84" rx="6" ry="6" x="6" y="-91" opacity=".45" fill="url(#m)"/></g><rect width="84" height="84" rx="6" ry="6" x="6" y="6" fill="url(#n)"/><path d="M12 6c-3.324 0-6 2.676-6 6v72c0 .335.041.65.094.969.048.295.097.597.187.875l.032.094c.098.287.234.547.375.812.144.274.315.536.5.781a6.105 6.105 0 0 0 2.094 1.781c.278.14.573.247.874.344a4.843 4.843 0 0 1-.719-.375c-.007-.004-.023.005-.03 0-.033-.02-.063-.042-.095-.062-.12-.077-.23-.164-.343-.25-.106-.081-.214-.161-.313-.25a5.042 5.042 0 0 1-.5-.531 5.092 5.092 0 0 1-.312-.407c-.025-.038-.039-.086-.063-.125-.065-.103-.13-.204-.187-.312a5.371 5.371 0 0 1-.282-.625c-.008-.022-.023-.04-.03-.063-.033-.092-.037-.187-.063-.281-.03-.107-.07-.203-.094-.313A5.098 5.098 0 0 1 7 85V13c0-2.782 2.218-5 5-5h72c2.782 0 5 2.218 5 5v72c0 .364-.052.721-.125 1.063a4.896 4.896 0 0 1-.156.593c-.008.022-.024.04-.031.063a5.482 5.482 0 0 1-.22.531c-.04.083-.078.17-.124.25-.055.097-.127.188-.188.281a5.092 5.092 0 0 1-.312.406 5.05 5.05 0 0 1-.469.5l-.031.032a4.818 4.818 0 0 1-.438.344c-.102.073-.204.153-.312.218-.008.005-.024-.004-.031 0a4.843 4.843 0 0 1-.72.375c.302-.097.597-.204.876-.344a6.105 6.105 0 0 0 2.094-1.78c.184-.246.355-.508.5-.782a5.69 5.69 0 0 0 .374-.813l.032-.093c.09-.278.139-.58.187-.875.053-.318.094-.634.094-.969V12c0-3.324-2.676-6-6-6H12z" opacity=".5" fill="url(#o)"/><path d="M12 90c-3.324 0-6-2.676-6-6V12c0-.335.041-.65.094-.969.048-.295.097-.597.187-.875l.032-.094a5.69 5.69 0 0 1 .375-.812c.144-.274.315-.536.5-.781a6.105 6.105 0 0 1 2.094-1.781c.278-.14.573-.247.874-.344-.256.1-.486.236-.719.375-.007.004-.023-.005-.03 0-.033.019-.063.042-.095.062-.12.077-.23.164-.343.25-.106.081-.214.161-.313.25a5.042 5.042 0 0 0-.5.532c-.107.13-.218.265-.312.406-.025.038-.039.086-.063.125-.065.103-.13.204-.187.312a5.371 5.371 0 0 0-.282.625c-.007.022-.023.04-.03.063-.033.092-.037.187-.063.281-.03.107-.07.203-.094.313A5.098 5.098 0 0 0 7 11v72c0 2.782 2.218 5 5 5h72c2.782 0 5-2.218 5-5V11c0-.364-.052-.721-.125-1.063a4.896 4.896 0 0 0-.156-.593c-.008-.022-.024-.04-.031-.063a5.482 5.482 0 0 0-.22-.531c-.04-.083-.078-.17-.124-.25-.055-.097-.127-.188-.188-.281a5.092 5.092 0 0 0-.312-.406 5.05 5.05 0 0 0-.469-.5l-.031-.032a4.818 4.818 0 0 0-.438-.343c-.102-.074-.204-.154-.312-.22-.008-.004-.024.005-.031 0a4.843 4.843 0 0 0-.72-.374c.302.097.597.204.876.343a6.105 6.105 0 0 1 2.094 1.782c.184.245.355.507.5.781.14.265.276.525.374.813l.032.093c.09.278.139.58.187.875.053.318.094.634.094.969v72c0 3.324-2.676 6-6 6H12z" opacity=".4" fill="url(#p)"/><rect width="84" height="84" rx="6" ry="6" x="-94" y="6" fill="#f0f"/><path style="marker:none" color="#000" fill="#fff" stroke="#000" stroke-width=".5" stroke-linecap="round" stroke-dashoffset="8.6" overflow="visible" enable-background="accumulate" d="M112 8h16v16h-16z"/><text x="131.393" y="11.969" style="text-align:start;line-height:125%;-inkscape-font-specification:Liberation Sans" font-size="4" font-weight="400" font-family="Liberation Sans"><tspan x="131.393" y="11.969">Width: 2px</tspan><tspan x="131.393" y="16.969">Blur: 12</tspan><tspan x="131.393" y="21.969">Opacity: 60</tspan></text><g><rect width="66" height="66" rx="12" ry="12" x="15" y="15" clip-path="url(#q)" opacity=".5" fill="url(#r)" stroke="#fff" stroke-width=".5" stroke-linecap="round" filter="url(#s)"/></g><g><path d="M-84 44v7.2A28.8 28.8 0 0 1-55.2 80h7.2a36 36 0 0 0-36-36zm0 12.137v6.994A16.869 16.869 0 0 1-67.131 80h6.994A23.863 23.863 0 0 0-84 56.137zm4.937 13.989a4.937 4.937 0 1 0 0 9.874 4.937 4.937 0 0 0 0-9.874z" transform="translate(100)" clip-path="url(#t)" opacity=".12" fill="none" stroke="#fff" stroke-width="2" filter="url(#u)"/><path d="M16 44v7.2A28.8 28.8 0 0 1 44.8 80H52a36 36 0 0 0-36-36zm0 12.137v6.994A16.869 16.869 0 0 1 32.869 80h6.994A23.863 23.863 0 0 0 16 56.137zm4.937 13.989a4.937 4.937 0 1 0 0 9.874 4.937 4.937 0 0 0 0-9.874z" fill="url(#v)"/><path d="M16 44v7.188c.323.015.646.036.969.062V45.031c.813.022 1.604.04 2.468.125 1.205.119 2.22.264 3.407.5 1.186.236 2.154.462 3.312.813 1.158.351 2.132.693 3.25 1.156 1.118.463 2.027.93 3.094 1.5 1.067.57 1.963 1.078 2.969 1.75a33.194 33.194 0 0 1 2.75 2.063c.935.767 1.707 1.425 2.562 2.28.856.856 1.514 1.628 2.282 2.563.767.936 1.39 1.744 2.062 2.75.672 1.006 1.18 1.902 1.75 2.969.57 1.067 1.037 1.976 1.5 3.094a33.427 33.427 0 0 1 1.156 3.25c.351 1.158.577 2.126.813 3.312.236 1.187.381 2.202.5 3.406.085.865.103 1.656.125 2.47h-6.187c.015.322.026.645.03.968H52c0-9.425-3.88-18.792-10.544-25.456C34.792 47.88 25.425 44 16 44zm0 12.125v7c.323.012.647.032.969.063v-6.032c.409.017.82.018 1.281.063.81.08 1.421.154 2.219.312.797.159 1.409.327 2.187.563a21.21 21.21 0 0 1 4.157 1.718c.717.384 1.23.705 1.906 1.157.676.452 1.184.796 1.812 1.312.629.516 1.081.956 1.657 1.532.575.575 1.015 1.027 1.53 1.656.517.628.861 1.136 1.313 1.812.452.677.773 1.19 1.157 1.906a21.152 21.152 0 0 1 1.718 4.157c.236.778.404 1.39.563 2.187.158.798.233 1.41.312 2.219.045.46.046.872.063 1.281h-6.032c.03.322.051.646.063.969h7c.003-6.251-2.569-12.465-6.99-16.886-4.42-4.42-10.634-6.992-16.885-6.989zm4.938 14a4.938 4.938 0 1 0 0 9.876 4.938 4.938 0 0 0 0-9.876zm0 .969c2.2 0 3.968 1.768 3.968 3.969 0 2.2-1.768 3.968-3.968 3.968a3.958 3.958 0 0 1-3.97-3.969c0-2.2 1.77-3.968 3.97-3.968z" opacity=".3" fill="#803300"/><path d="M16 44v1a36 36 0 0 1 35.938 35H52a36 36 0 0 0-36-36zm0 12.125v1A23.863 23.863 0 0 1 39.813 80h.062A23.863 23.863 0 0 0 16 56.125zm4.938 14A4.938 4.938 0 0 0 16 75.063c0 .17.014.334.031.5a4.937 4.937 0 0 1 4.907-4.438 4.937 4.937 0 0 1 4.906 4.438c.017-.166.031-.33.031-.5a4.938 4.938 0 0 0-4.938-4.938z" opacity=".5" fill="#803300"/><path d="M16 51.188v1A28.8 28.8 0 0 1 44.813 81H52a36 36 0 0 0-.063-1h-7.124A28.8 28.8 0 0 0 16 51.187zm0 11.937v1A16.869 16.869 0 0 1 32.875 81h7a23.863 23.863 0 0 0-.063-1h-6.937A16.869 16.869 0 0 0 16 63.125zm.031 12.438c-.017.165-.031.33-.031.5a4.938 4.938 0 0 0 9.875 0c0-.17-.014-.335-.031-.5A4.937 4.937 0 0 1 20.937 80a4.937 4.937 0 0 1-4.906-4.438z" fill="#fff"/></g></svg>