<svg xmlns="http://www.w3.org/2000/svg" xmlns:xlink="http://www.w3.org/1999/xlink" version="1.0" width="96" height="96"><defs><linearGradient id="e"><stop offset="0" stop-color="#f70"/><stop offset="1" stop-color="#ffb15d"/></linearGradient><linearGradient x1="45.448" y1="92.54" x2="45.448" y2="7.017" id="g" gradientUnits="userSpaceOnUse" gradientTransform="scale(1.00587 .99417)"><stop offset="0"/><stop offset="1" stop-opacity=".588"/></linearGradient><linearGradient id="a"><stop offset="0" stop-color="#e6e6e6"/><stop offset="1" stop-color="#f5f5f5"/></linearGradient><linearGradient x1="48" y1="90" x2="48" y2="5.988" id="n" xlink:href="#a" gradientUnits="userSpaceOnUse"/><filter color-interpolation-filters="sRGB" id="h"><feGaussianBlur stdDeviation="1.71"/></filter><linearGradient x1="45.448" y1="92.54" x2="45.448" y2="7.017" id="b" gradientUnits="userSpaceOnUse" gradientTransform="matrix(1.00587 0 0 .99417 100 0)"><stop offset="0"/><stop offset="1" stop-opacity=".588"/></linearGradient><linearGradient x1="32.251" y1="6.132" x2="32.251" y2="90.239" id="j" xlink:href="#b" gradientUnits="userSpaceOnUse" gradientTransform="matrix(1.0238 0 0 1.0119 -1.143 -98.071)"/><linearGradient x1="32.251" y1="6.132" x2="32.251" y2="90.239" id="k" xlink:href="#b" gradientUnits="userSpaceOnUse" gradientTransform="matrix(1.0238 0 0 1.0119 -1.143 -98.071)"/><linearGradient x1="32.251" y1="6.132" x2="32.251" y2="90.239" id="l" xlink:href="#b" gradientUnits="userSpaceOnUse" gradientTransform="matrix(1.0238 0 0 1.0119 -1.143 -98.071)"/><linearGradient x1="32.251" y1="6.132" x2="32.251" y2="90.239" id="m" xlink:href="#b" gradientUnits="userSpaceOnUse" gradientTransform="translate(0 -97)"/><linearGradient x1="32.251" y1="6.132" x2="32.251" y2="90.239" id="i" xlink:href="#b" gradientUnits="userSpaceOnUse" gradientTransform="matrix(1.0238 0 0 1.0119 -1.143 -98.071)"/><linearGradient id="d"><stop offset="0" stop-color="#fff"/><stop offset="1" stop-color="#fff" stop-opacity="0"/></linearGradient><radialGradient cx="48" cy="90.172" r="42" fx="48" fy="90.172" id="p" xlink:href="#c" gradientUnits="userSpaceOnUse" gradientTransform="matrix(1.15731 0 0 .9959 -7.551 .197)"/><linearGradient id="c"><stop offset="0" stop-color="#fff"/><stop offset="1" stop-color="#fff" stop-opacity="0"/></linearGradient><linearGradient x1="36.357" y1="6" x2="36.357" y2="63.893" id="o" xlink:href="#d" gradientUnits="userSpaceOnUse"/><linearGradient x1="64" y1="60" x2="62" y2="7" id="w" xlink:href="#e" gradientUnits="userSpaceOnUse" gradientTransform="matrix(1.23182 0 0 1.23182 -27.816 7.17)"/><clipPath id="t"><path d="M-118 6c-3.324 0-6 2.676-6 6v72c0 3.324 2.676 6 6 6h72c3.324 0 6-2.676 6-6V12c0-3.324-2.676-6-6-6h-72zm42.531 9.438s6.743 6.784-6.437 17.187c-10.57 8.348-2.407 13.092 0 18.531-6.17-5.566-10.692-10.44-7.656-15 4.457-6.693 16.821-9.97 14.093-20.718zm8.125 13.343c-14.198 8.234-11.545 10.6-8.125 15.407 3.661 5.156-4.312 9.25-4.312 9.25s3.954-3.227.812-6.844C-89.612 34.329-67.344 28.78-67.344 28.78zm3.594 21.875c6.598-.338 10.188 8.958-4.594 12.844 0 0 .162-.193.219-.344 12.215-6.345 6.567-12.446 2.625-11.625-.964.201-1.406.375-1.406.375s.378-.57 1.062-.812c.731-.257 1.411-.403 2.094-.438zm-26.406.625c.519-.013.812 0 .812 0s-11.83 2.822-4.187 3.844c3.227.432 9.63.315 15.625-.188 4.897-.41 9.812-1.25 9.812-1.25s-1.72.71-2.969 1.563c-12.017 3.16-35.245 1.7-28.562-1.531 4.237-2.05 7.911-2.397 9.469-2.438zm-1.938 7.407s-2.823 2.06 1.438 2.5c5.511.569 9.873.637 17.406-.813 0 0 1.05 1.048 2.688 1.625-15.408 4.507-32.556.346-21.532-3.313zm1.531 7.124s-2.476 1.45 1.782 1.938c5.159.589 7.816.512 13.5-.563 0 0 1.475.908 3.562 1.72-12.745 5.46-28.854-.298-18.844-3.094zm-6.468 4.72c.614.023 1.146.147 1.469.374 0 0-.853-.059-2.282.25-1.37.296-5.696 1.677-3.375 2.688 6.462 2.81 29.708 2.165 37.063-.063 3.868-1.173 2.031-2.719 2.031-2.719 6.74 3.041-14.61 9.15-40.594 4.938-8.337-1.353 1.386-5.634 5.688-5.469zM-58 74.374c-.426 5.547-18.434 6.718-30.156 5.969-7.704-.496-9.188-1.719-9.188-1.719 7.319 1.208 19.65 1.415 29.656-.469 8.87-1.668 9.688-3.781 9.688-3.781z" fill="#f0f"/></clipPath><filter x="-.17" y="-.125" width="1.339" height="1.25" color-interpolation-filters="sRGB" id="v"><feGaussianBlur stdDeviation="3.393"/></filter><linearGradient x1="64" y1="60" x2="62" y2="7" id="u" xlink:href="#e" gradientUnits="userSpaceOnUse" gradientTransform="matrix(1.23182 0 0 1.23182 -157.816 7.17)"/><linearGradient id="f"><stop offset="0" stop-color="#fff"/><stop offset="1" stop-color="#fff" stop-opacity="0"/></linearGradient><clipPath id="q"><rect width="84" height="84" rx="6" ry="6" x="6" y="6" fill="#fff"/></clipPath><filter x="-.192" y="-.192" width="1.384" height="1.384" color-interpolation-filters="sRGB" id="s"><feGaussianBlur stdDeviation="5.28"/></filter><linearGradient x1="48" y1="20.221" x2="48" y2="138.661" id="r" xlink:href="#f" gradientUnits="userSpaceOnUse"/></defs><g transform="scale(1 -1)"><path d="M12-95.031c-5.511 0-10.031 4.52-10.031 10.031v71C1.969-8.489 6.489-3.969 12-3.969h72c5.511 0 10.031-4.52 10.031-10.031v-71c0-5.511-4.52-10.031-10.031-10.031H12z" opacity=".08" fill="url(#i)"/><path d="M12-94.031c-4.972 0-9.031 4.06-9.031 9.031v71c0 4.972 4.06 9.031 9.031 9.031h72c4.972 0 9.031-4.06 9.031-9.031v-71c0-4.972-4.06-9.031-9.031-9.031H12z" opacity=".1" fill="url(#j)"/><path d="M12-93c-4.41 0-8 3.59-8 8v71c0 4.41 3.59 8 8 8h72c4.41 0 8-3.59 8-8v-71c0-4.41-3.59-8-8-8H12z" opacity=".2" fill="url(#k)"/><rect width="86" height="85" rx="7" ry="7" x="5" y="-92" opacity=".3" fill="url(#l)"/><rect width="84" height="84" rx="6" ry="6" x="6" y="-91" opacity=".45" fill="url(#m)"/></g><rect width="84" height="84" rx="6" ry="6" x="6" y="6" fill="url(#n)"/><path d="M12 6c-3.324 0-6 2.676-6 6v72c0 .335.041.65.094.969.048.295.097.597.187.875l.032.094c.098.287.234.547.375.812.144.274.315.536.5.781a6.105 6.105 0 0 0 2.094 1.781c.278.14.573.247.874.344a4.843 4.843 0 0 1-.719-.375c-.007-.004-.023.005-.03 0-.033-.02-.063-.042-.095-.062-.12-.077-.23-.164-.343-.25-.106-.081-.214-.161-.313-.25a5.042 5.042 0 0 1-.5-.531 5.092 5.092 0 0 1-.312-.407c-.025-.038-.039-.086-.063-.125-.065-.103-.13-.204-.187-.312a5.371 5.371 0 0 1-.282-.625c-.008-.022-.023-.04-.03-.063-.033-.092-.037-.187-.063-.281-.03-.107-.07-.203-.094-.313A5.098 5.098 0 0 1 7 85V13c0-2.782 2.218-5 5-5h72c2.782 0 5 2.218 5 5v72c0 .364-.052.721-.125 1.063a4.896 4.896 0 0 1-.156.593c-.008.022-.024.04-.031.063a5.482 5.482 0 0 1-.22.531c-.04.083-.078.17-.124.25-.055.097-.127.188-.188.281a5.092 5.092 0 0 1-.312.406 5.05 5.05 0 0 1-.469.5l-.031.032a4.818 4.818 0 0 1-.438.344c-.102.073-.204.153-.312.218-.008.005-.024-.004-.031 0a4.843 4.843 0 0 1-.72.375c.302-.097.597-.204.876-.344a6.105 6.105 0 0 0 2.094-1.78c.184-.246.355-.508.5-.782a5.69 5.69 0 0 0 .374-.813l.032-.093c.09-.278.139-.58.187-.875.053-.318.094-.634.094-.969V12c0-3.324-2.676-6-6-6H12z" opacity=".5" fill="url(#o)"/><path d="M12 90c-3.324 0-6-2.676-6-6V12c0-.335.041-.65.094-.969.048-.295.097-.597.187-.875l.032-.094a5.69 5.69 0 0 1 .375-.812c.144-.274.315-.536.5-.781a6.105 6.105 0 0 1 2.094-1.781c.278-.14.573-.247.874-.344-.256.1-.486.236-.719.375-.007.004-.023-.005-.03 0-.033.019-.063.042-.095.062-.12.077-.23.164-.343.25-.106.081-.214.161-.313.25a5.042 5.042 0 0 0-.5.532c-.107.13-.218.265-.312.406-.025.038-.039.086-.063.125-.065.103-.13.204-.187.312a5.371 5.371 0 0 0-.282.625c-.007.022-.023.04-.03.063-.033.092-.037.187-.063.281-.03.107-.07.203-.094.313A5.098 5.098 0 0 0 7 11v72c0 2.782 2.218 5 5 5h72c2.782 0 5-2.218 5-5V11c0-.364-.052-.721-.125-1.063a4.896 4.896 0 0 0-.156-.593c-.008-.022-.024-.04-.031-.063a5.482 5.482 0 0 0-.22-.531c-.04-.083-.078-.17-.124-.25-.055-.097-.127-.188-.188-.281a5.092 5.092 0 0 0-.312-.406 5.05 5.05 0 0 0-.469-.5l-.031-.032a4.818 4.818 0 0 0-.438-.343c-.102-.074-.204-.154-.312-.22-.008-.004-.024.005-.031 0a4.843 4.843 0 0 0-.72-.374c.302.097.597.204.876.343a6.105 6.105 0 0 1 2.094 1.782c.184.245.355.507.5.781.14.265.276.525.374.813l.032.093c.09.278.139.58.187.875.053.318.094.634.094.969v72c0 3.324-2.676 6-6 6H12z" opacity=".4" fill="url(#p)"/><rect width="84" height="84" rx="6" ry="6" x="-124" y="6" fill="#f0f"/><g><rect width="66" height="66" rx="12" ry="12" x="15" y="15" clip-path="url(#q)" opacity=".5" fill="url(#r)" stroke="#fff" stroke-width=".5" stroke-linecap="round" filter="url(#s)"/></g><g fill-rule="evenodd"><path d="M-75.476 15.447c2.728 10.748-9.632 14.016-14.09 20.71-3.035 4.56 1.49 9.446 7.66 15.013-2.405-5.44-10.569-10.206 0-18.554 13.181-10.404 6.43-17.169 6.43-17.169zm8.122 13.32s-22.27 5.557-11.625 17.822c3.142 3.617-.809 6.852-.809 6.852s7.973-4.082 4.312-9.238c-3.421-4.807-6.076-7.203 8.122-15.437zm3.618 21.903a7.5 7.5 0 0 0-2.117.423 2.196 2.196 0 0 0-1.04.808s.423-.183 1.387-.385c3.942-.821 9.597 5.28-2.618 11.626-.057.151-.231.346-.231.346 14.782-3.886 11.218-13.157 4.62-12.818zm-26.407.615c-1.557.041-5.233.376-9.47 2.426-6.683 3.231 16.546 4.7 28.563 1.54 1.25-.853 2.964-1.579 2.964-1.579s-4.918.86-9.816 1.27c-5.994.503-12.4.625-15.628.193-7.642-1.022 4.196-3.85 4.196-3.85s-.29-.013-.809 0zm-1.963 7.391c-11.024 3.66 6.15 7.818 21.557 3.311-1.637-.577-2.695-1.617-2.695-1.617-7.533 1.45-11.888 1.378-17.4.809-4.26-.44-1.462-2.503-1.462-2.503zm1.54 7.122c-10.01 2.797 6.116 8.579 18.862 3.118-2.088-.811-3.58-1.732-3.58-1.732-5.684 1.074-8.352 1.166-13.512.577-4.258-.488-1.77-1.963-1.77-1.963zm-6.467 4.735c-4.302-.166-14.035 4.113-5.698 5.466 25.985 4.212 47.351-1.886 40.612-4.927 0 0 1.828 1.52-2.04 2.694-7.355 2.228-30.609 2.888-37.07.077-2.321-1.01 2.017-2.398 3.387-2.694 1.429-.31 2.271-.231 2.271-.231-.322-.228-.848-.362-1.462-.385zM-58 74.383s-.831 2.103-9.7 3.772c-10.007 1.883-22.323 1.67-29.641.462 0 0 1.496 1.236 9.2 1.732 11.722.75 29.715-.42 30.141-5.967z" transform="translate(130)" clip-path="url(#t)" opacity=".6" fill="url(#u)" stroke="#fff" stroke-width="2" filter="url(#v)"/><path d="M54.524 15.447c2.728 10.748-9.632 14.016-14.09 20.71-3.035 4.56 1.49 9.446 7.66 15.013-2.405-5.44-10.569-10.206 0-18.554 13.181-10.404 6.43-17.169 6.43-17.169zm8.122 13.32s-22.27 5.557-11.625 17.822c3.142 3.617-.809 6.852-.809 6.852s7.973-4.082 4.312-9.238c-3.421-4.807-6.076-7.203 8.122-15.437zm3.618 21.903a7.5 7.5 0 0 0-2.117.423 2.196 2.196 0 0 0-1.04.808s.423-.183 1.387-.385c3.942-.821 9.597 5.28-2.618 11.626-.057.151-.231.346-.231.346 14.782-3.886 11.218-13.157 4.62-12.818zm-26.407.615c-1.557.041-5.233.376-9.47 2.426-6.683 3.231 16.546 4.7 28.563 1.54 1.25-.853 2.964-1.579 2.964-1.579s-4.918.86-9.816 1.27c-5.994.503-12.4.625-15.628.193-7.642-1.022 4.196-3.85 4.196-3.85s-.29-.013-.809 0zm-1.963 7.391c-11.024 3.66 6.15 7.818 21.557 3.311-1.637-.577-2.695-1.617-2.695-1.617-7.533 1.45-11.888 1.378-17.4.809-4.26-.44-1.462-2.503-1.462-2.503zm1.54 7.122c-10.01 2.797 6.116 8.579 18.862 3.118-2.088-.811-3.58-1.732-3.58-1.732-5.684 1.074-8.352 1.166-13.512.577-4.258-.488-1.77-1.963-1.77-1.963zm-6.467 4.735c-4.302-.166-14.035 4.113-5.698 5.466 25.985 4.212 47.351-1.886 40.612-4.927 0 0 1.828 1.52-2.04 2.694-7.355 2.228-30.609 2.888-37.07.077-2.321-1.01 2.017-2.398 3.387-2.694 1.429-.31 2.271-.231 2.271-.231-.322-.228-.848-.362-1.462-.385zM72 74.383s-.831 2.103-9.7 3.772c-10.007 1.883-22.323 1.67-29.641.462 0 0 1.496 1.236 9.2 1.732 11.722.75 29.715-.42 30.141-5.967z" fill="url(#w)"/><path d="M54.531 16.438c.209.822.302 1.604.344 2.343.024-.635.009-1.301-.094-2-.004-.005.004-.026 0-.031-.159-.205-.25-.313-.25-.313zm1.688 4.312c-.178 2.953-1.969 7.016-8.125 11.875-4.19 3.31-5.422 6.051-5.25 8.5.2-2.196 1.616-4.63 5.25-7.5 6.88-5.431 8.312-9.872 8.125-12.875zm6.437 9.031s-1.39.319-3.312 1.032c-.028.017-.067.013-.094.03-6.032 3.875-7.718 6.309-7.406 8.532.324-2.357 3.063-5.1 10.812-9.594zM39.5 39.813c-.285 3.797 3.607 7.844 8.594 12.343-.301-.68-.692-1.333-1.125-2l-.063-.093c-3.978-3.68-7.063-7.057-7.406-10.25zm8.688.906c-.166 2 .598 4.287 2.843 6.875.727.836 1.052 1.646 1.157 2.406.129-1.023-.098-2.188-1.157-3.406-1.873-2.16-2.709-4.126-2.843-5.875zm7.25 6.718c-.268 2.237-2.264 4.038-3.72 5.063-.598 1.185-1.5 1.938-1.5 1.938s5.75-2.945 5.22-7zm10.812 4.22c-.683.034-1.363.18-2.094.437a2.328 2.328 0 0 0-1.062.812s.442-.174 1.406-.375c1.971-.41 4.37.91 4.75 3.125.216-2.025-1.172-3.49-2.813-4-.06.002-.125-.003-.187 0zm-26.406.624c-.874.023-2.412.166-4.344.625-1.306.57-2.11 1.199-1.219 1.688 1.397-1.118 6.375-2.313 6.375-2.313s-.293-.013-.812 0zm22.062 2.407l-2.718.406c-.083.053-.171.102-.25.156-9.818 2.582-27.109 2.066-29.47.031-2.91 2.813 18.203 3.932 29.47.969 1.249-.853 2.968-1.563 2.968-1.563zm10.032 1.062c-.24 2.306-2.327 4.918-7.376 6.813a28.076 28.076 0 0 1-2.687 1.593c-.057.151-.219.344-.219.344 8.069-2.121 10.655-5.858 10.282-8.75zm-34.032 3.938c-.321.106-.632.205-.906.312a.698.698 0 0 0 .156.438c.263-.434.75-.75.75-.75zm-3.343 1.906C32.84 64.527 46.721 66.719 59.436 63c-.53-.187-.95-.423-1.343-.656-10.827 2.802-22.076 1.525-23.532-.75zm4.874 5.218a13.96 13.96 0 0 0-.624.188c.043.06.11.099.187.156.204-.213.438-.344.438-.344zm-2.968 1.594c-1.687 2.826 11.218 6.04 21.812 1.5a23.894 23.894 0 0 1-1.187-.5c-9.068 3.347-19.324 1.368-20.625-1zm-3.5 3.125c-.953-.036-2.177.15-3.407.469-1.106.492-1.94 1.116-1.156 1.656.006-.005.026.005.032 0 .801-.69 2.85-1.312 3.718-1.5 1.429-.309 2.282-.25 2.282-.25-.323-.227-.855-.351-1.47-.375zm34.906.531s.155.152.281.376c.034-.056.073-.103.094-.157-.117-.066-.233-.154-.375-.219zm1.094.813c-.206.327-.624.64-1.188.969-.016.013-.045.018-.062.031-.377.295-.95.625-1.875.906-.193.059-.442.1-.656.156C58.45 77.165 43.825 78.683 27.28 76c-1.78-.289-2.732-.704-3.093-1.188-.526.883.151 1.71 3.093 2.188 23.866 3.868 43.81-.956 41.688-4.125zm3.031 2.5s-.174.348-.938.875c-.025.025-.067.037-.093.063-3.43 3.308-14.854 4.39-24.469 4.218h-.031c-5.245.031-10.153-.302-13.813-.906 0 0 1.484 1.223 9.188 1.719 11.722.75 29.73-.422 30.156-5.969z" opacity=".8" fill="#fff"/><path d="M54.524 15.447c2.728 10.748-9.632 14.016-14.09 20.71-3.035 4.56 1.49 9.446 7.66 15.013-2.405-5.44-10.569-10.206 0-18.554 13.181-10.404 6.43-17.169 6.43-17.169zm8.122 13.32s-22.27 5.557-11.625 17.822c3.142 3.617-.809 6.852-.809 6.852s7.973-4.082 4.312-9.238c-3.421-4.807-6.076-7.203 8.122-15.437zm3.618 21.903a7.5 7.5 0 0 0-2.117.423 2.196 2.196 0 0 0-1.04.808s.423-.183 1.387-.385c3.942-.821 9.597 5.28-2.618 11.626-.057.151-.231.346-.231.346 14.782-3.886 11.218-13.157 4.62-12.818zm-26.407.615c-1.557.041-5.233.376-9.47 2.426-6.683 3.231 16.546 4.7 28.563 1.54 1.25-.853 2.964-1.579 2.964-1.579s-4.918.86-9.816 1.27c-5.994.503-12.4.625-15.628.193-7.642-1.022 4.196-3.85 4.196-3.85s-.29-.013-.809 0zm-1.963 7.391c-11.024 3.66 6.15 7.818 21.557 3.311-1.637-.577-2.695-1.617-2.695-1.617-7.533 1.45-11.888 1.378-17.4.809-4.26-.44-1.462-2.503-1.462-2.503zm1.54 7.122c-10.01 2.797 6.116 8.579 18.862 3.118-2.088-.811-3.58-1.732-3.58-1.732-5.684 1.074-8.352 1.166-13.512.577-4.258-.488-1.77-1.963-1.77-1.963zm-6.467 4.735c-4.302-.166-14.035 4.113-5.698 5.466 25.985 4.212 47.351-1.886 40.612-4.927 0 0 1.828 1.52-2.04 2.694-7.355 2.228-30.609 2.888-37.07.077-2.321-1.01 2.017-2.398 3.387-2.694 1.429-.31 2.271-.231 2.271-.231-.322-.228-.848-.362-1.462-.385zM72 74.383s-.831 2.103-9.7 3.772c-10.007 1.883-22.323 1.67-29.641.462 0 0 1.496 1.236 9.2 1.732 11.722.75 29.715-.42 30.141-5.967z" fill="url(#w)"/><path d="M54.531 15.438c.114.447.187.89.25 1.312.004.005-.004.026 0 .031.452.59 1.312 1.958 1.438 3.969.203-3.37-1.688-5.313-1.688-5.313zm.344 3.343c-.314 8.186-10.477 11.429-14.438 17.375-.78 1.172-1.055 2.374-.937 3.594.077-.88.368-1.739.938-2.594 4.116-6.181 14.95-9.447 14.437-18.375zm7.781 10s-15.1 3.748-14.468 11.938c.42-5.079 6.914-8.326 11.062-9.875.027-.018.066-.014.094-.032.999-.64 2.063-1.306 3.312-2.03zM51.844 39.406c-.251 1.949 1.142 3.61 2.687 5.782.547.77.813 1.537.907 2.25.12-1.008-.093-2.104-.907-3.25-1.274-1.791-2.458-3.233-2.687-4.782zm-9 1.907c-.198 3.272 2.261 5.998 4.062 8.75l.063.093c.371.343.739.652 1.125 1-1.429-3.23-4.889-6.198-5.25-9.843zM52.187 50c-.254 2.013-1.968 3.438-1.968 3.438s.663-.349 1.5-.938c.356-.704.598-1.558.468-2.5zm14.063.656c-.683.035-1.363.18-2.094.438a2.328 2.328 0 0 0-1.062.812s.442-.174 1.406-.375c.636-.132 1.294-.075 1.938.125 2.908-.07 5.195 1.738 5.5 4.094.299-2.873-2.292-5.268-5.688-5.094zm-26.406.625c-1.558.041-5.232.388-9.469 2.438-1.223.591-1.435 1.106-.906 1.562.194-.187.488-.36.906-.562a24.97 24.97 0 0 1 5.125-1.813c2-.871 5.156-1.625 5.156-1.625s-.293-.013-.812 0zm22.062 2.407s-4.915.838-9.812 1.25c-5.994.502-12.398.619-15.625.187-1.11-.148-1.804-.32-2.188-.531-.75.6-.482 1.174 2.188 1.531 3.227.432 9.63.315 15.625-.188a111.92 111.92 0 0 0 7.093-.843c1.218-.781 2.72-1.407 2.72-1.407zm7.344 2.03c-.255 2.092-2.21 4.755-7.375 7.438-.057.151-.219.344-.219.344a29.687 29.687 0 0 0 2.907-.938c3.85-2.574 4.968-5.006 4.687-6.843zm-31.344 2.97c-2.994.993-3.91 2.022-3.343 2.906.303-.518 1.068-1.058 2.437-1.594-.011-.659.906-1.313.906-1.313zm18.844 1.687c-7.533 1.45-11.895 1.382-17.406.813-1.291-.134-1.919-.422-2.188-.75-.384.633-.343 1.488 2.188 1.75 5.511.569 9.873.637 17.406-.813 0 0 .525.483 1.344.969.453-.117.893-.212 1.343-.344-1.637-.577-2.687-1.625-2.687-1.625zm-17.313 5.438c-2.676.747-3.464 1.69-2.968 2.593.297-.497 1.048-.978 2.343-1.406-.414-.568.626-1.188.626-1.188zM39 67.156c-.449.469-.709 1.258 2.219 1.594 5.159.589 7.816.512 13.5-.563 0 0 .946.575 2.375 1.22.404-.15.789-.33 1.187-.5-2.087-.812-3.562-1.72-3.562-1.72-5.684 1.075-8.341 1.152-13.5.563-1.22-.14-1.89-.35-2.219-.594zm-6.031 3.375c-3.383-.13-10.112 2.499-8.782 4.281.635-1.064 3.011-2.198 5.375-2.812a14.967 14.967 0 0 1 2.594-.844c1.429-.309 2.282-.25 2.282-.25-.323-.227-.855-.351-1.47-.375zm34.906.531s.642.547.375 1.22c.337.19.579.384.719.593.405-.644.078-1.284-1.094-1.813zm.281 1.376c-.26.43-.901.915-2.312 1.343-7.355 2.228-30.601 2.873-37.063.063a2.236 2.236 0 0 1-.343-.188c-.006.005-.026-.005-.032 0-.447.395-.464.822.375 1.188 6.292 2.737 28.454 2.181 36.407.094 1.037-.343 1.892-.698 2.53-1.063.018-.013.047-.018.063-.031.67-.554.564-1.071.375-1.406zM72 74.374s-.818 2.113-9.688 3.781c-10.006 1.884-22.337 1.677-29.656.469 0 0 1.484 1.223 9.188 1.719 1.455.093 3.021.158 4.625.187h.031c5.236-.032 10.82-.435 15.813-1.375 5.127-.964 7.509-2.079 8.656-2.844.026-.025.068-.037.094-.062.555-.561.884-1.182.937-1.875z" fill="#d45500"/></g></svg>