<svg xmlns="http://www.w3.org/2000/svg" xmlns:xlink="http://www.w3.org/1999/xlink" version="1.0" width="96" height="96"><defs><linearGradient x1="45.448" y1="92.54" x2="45.448" y2="7.017" id="f" gradientUnits="userSpaceOnUse" gradientTransform="scale(1.00587 .99417)"><stop offset="0"/><stop offset="1" stop-opacity=".588"/></linearGradient><linearGradient id="a"><stop offset="0" stop-color="#ebebeb"/><stop offset="1" stop-color="#fafafa"/></linearGradient><linearGradient x1="48" y1="90" x2="48" y2="5.988" id="m" xlink:href="#a" gradientUnits="userSpaceOnUse"/><filter color-interpolation-filters="sRGB" id="g"><feGaussianBlur stdDeviation="1.71"/></filter><linearGradient x1="45.448" y1="92.54" x2="45.448" y2="7.017" id="b" gradientUnits="userSpaceOnUse" gradientTransform="matrix(1.00587 0 0 .99417 100 0)"><stop offset="0"/><stop offset="1" stop-opacity=".588"/></linearGradient><linearGradient x1="32.251" y1="6.132" x2="32.251" y2="90.239" id="i" xlink:href="#b" gradientUnits="userSpaceOnUse" gradientTransform="matrix(1.0238 0 0 1.0119 -1.143 -98.071)"/><linearGradient x1="32.251" y1="6.132" x2="32.251" y2="90.239" id="j" xlink:href="#b" gradientUnits="userSpaceOnUse" gradientTransform="matrix(1.0238 0 0 1.0119 -1.143 -98.071)"/><linearGradient x1="32.251" y1="6.132" x2="32.251" y2="90.239" id="k" xlink:href="#b" gradientUnits="userSpaceOnUse" gradientTransform="matrix(1.0238 0 0 1.0119 -1.143 -98.071)"/><linearGradient x1="32.251" y1="6.132" x2="32.251" y2="90.239" id="l" xlink:href="#b" gradientUnits="userSpaceOnUse" gradientTransform="translate(0 -97)"/><linearGradient x1="32.251" y1="6.132" x2="32.251" y2="90.239" id="h" xlink:href="#b" gradientUnits="userSpaceOnUse" gradientTransform="matrix(1.0238 0 0 1.0119 -1.143 -98.071)"/><linearGradient id="d"><stop offset="0" stop-color="#fff"/><stop offset="1" stop-color="#fff" stop-opacity="0"/></linearGradient><radialGradient cx="48" cy="90.172" r="42" fx="48" fy="90.172" id="o" xlink:href="#c" gradientUnits="userSpaceOnUse" gradientTransform="matrix(1.15731 0 0 .9959 -7.551 .197)"/><linearGradient id="c"><stop offset="0" stop-color="#fff"/><stop offset="1" stop-color="#fff" stop-opacity="0"/></linearGradient><linearGradient x1="36.357" y1="6" x2="36.357" y2="63.893" id="n" xlink:href="#d" gradientUnits="userSpaceOnUse"/><linearGradient id="e"><stop offset="0" stop-color="#fff"/><stop offset="1" stop-color="#fff" stop-opacity="0"/></linearGradient><clipPath id="p"><rect width="84" height="84" rx="6" ry="6" x="6" y="6" fill="#fff"/></clipPath><filter x="-.192" y="-.192" width="1.384" height="1.384" color-interpolation-filters="sRGB" id="r"><feGaussianBlur stdDeviation="5.28"/></filter><linearGradient x1="48" y1="20.221" x2="48" y2="138.661" id="q" xlink:href="#e" gradientUnits="userSpaceOnUse"/></defs><g transform="scale(1 -1)"><path d="M12-95.031c-5.511 0-10.031 4.52-10.031 10.031v71C1.969-8.489 6.489-3.969 12-3.969h72c5.511 0 10.031-4.52 10.031-10.031v-71c0-5.511-4.52-10.031-10.031-10.031H12z" opacity=".08" fill="url(#h)"/><path d="M12-94.031c-4.972 0-9.031 4.06-9.031 9.031v71c0 4.972 4.06 9.031 9.031 9.031h72c4.972 0 9.031-4.06 9.031-9.031v-71c0-4.972-4.06-9.031-9.031-9.031H12z" opacity=".1" fill="url(#i)"/><path d="M12-93c-4.41 0-8 3.59-8 8v71c0 4.41 3.59 8 8 8h72c4.41 0 8-3.59 8-8v-71c0-4.41-3.59-8-8-8H12z" opacity=".2" fill="url(#j)"/><rect width="86" height="85" rx="7" ry="7" x="5" y="-92" opacity=".3" fill="url(#k)"/><rect width="84" height="84" rx="6" ry="6" x="6" y="-91" opacity=".45" fill="url(#l)"/></g><rect width="84" height="84" rx="6" ry="6" x="6" y="6" fill="url(#m)"/><path d="M12 6c-3.324 0-6 2.676-6 6v72c0 .335.041.65.094.969.048.295.097.597.187.875l.032.094c.098.287.234.547.375.812.144.274.315.536.5.781a6.105 6.105 0 0 0 2.094 1.781c.278.14.573.247.874.344a4.843 4.843 0 0 1-.719-.375c-.007-.004-.023.005-.03 0-.033-.02-.063-.042-.095-.062-.12-.077-.23-.164-.343-.25-.106-.081-.214-.161-.313-.25a5.042 5.042 0 0 1-.5-.531 5.092 5.092 0 0 1-.312-.407c-.025-.038-.039-.086-.063-.125-.065-.103-.13-.204-.187-.312a5.371 5.371 0 0 1-.282-.625c-.008-.022-.023-.04-.03-.063-.033-.092-.037-.187-.063-.281-.03-.107-.07-.203-.094-.313A5.098 5.098 0 0 1 7 85V13c0-2.782 2.218-5 5-5h72c2.782 0 5 2.218 5 5v72c0 .364-.052.721-.125 1.063a4.896 4.896 0 0 1-.156.593c-.008.022-.024.04-.031.063a5.482 5.482 0 0 1-.22.531c-.04.083-.078.17-.124.25-.055.097-.127.188-.188.281a5.092 5.092 0 0 1-.312.406 5.05 5.05 0 0 1-.469.5l-.031.032a4.818 4.818 0 0 1-.438.344c-.102.073-.204.153-.312.218-.008.005-.024-.004-.031 0a4.843 4.843 0 0 1-.72.375c.302-.097.597-.204.876-.344a6.105 6.105 0 0 0 2.094-1.78c.184-.246.355-.508.5-.782a5.69 5.69 0 0 0 .374-.813l.032-.093c.09-.278.139-.58.187-.875.053-.318.094-.634.094-.969V12c0-3.324-2.676-6-6-6H12z" opacity=".5" fill="url(#n)"/><path d="M12 90c-3.324 0-6-2.676-6-6V12c0-.335.041-.65.094-.969.048-.295.097-.597.187-.875l.032-.094a5.69 5.69 0 0 1 .375-.812c.144-.274.315-.536.5-.781a6.105 6.105 0 0 1 2.094-1.781c.278-.14.573-.247.874-.344-.256.1-.486.236-.719.375-.007.004-.023-.005-.03 0-.033.019-.063.042-.095.062-.12.077-.23.164-.343.25-.106.081-.214.161-.313.25a5.042 5.042 0 0 0-.5.532c-.107.13-.218.265-.312.406-.025.038-.039.086-.063.125-.065.103-.13.204-.187.312a5.371 5.371 0 0 0-.282.625c-.007.022-.023.04-.03.063-.033.092-.037.187-.063.281-.03.107-.07.203-.094.313A5.098 5.098 0 0 0 7 11v72c0 2.782 2.218 5 5 5h72c2.782 0 5-2.218 5-5V11c0-.364-.052-.721-.125-1.063a4.896 4.896 0 0 0-.156-.593c-.008-.022-.024-.04-.031-.063a5.482 5.482 0 0 0-.22-.531c-.04-.083-.078-.17-.124-.25-.055-.097-.127-.188-.188-.281a5.092 5.092 0 0 0-.312-.406 5.05 5.05 0 0 0-.469-.5l-.031-.032a4.818 4.818 0 0 0-.438-.343c-.102-.074-.204-.154-.312-.22-.008-.004-.024.005-.031 0a4.843 4.843 0 0 0-.72-.374c.302.097.597.204.876.343a6.105 6.105 0 0 1 2.094 1.782c.184.245.355.507.5.781.14.265.276.525.374.813l.032.093c.09.278.139.58.187.875.053.318.094.634.094.969v72c0 3.324-2.676 6-6 6H12z" opacity=".4" fill="url(#o)"/><rect width="84" height="84" rx="6" ry="6" x="-94" y="6" fill="#f0f"/><path style="marker:none" color="#000" fill="#fff" stroke="#000" stroke-width=".5" stroke-linecap="round" stroke-dashoffset="8.6" overflow="visible" enable-background="accumulate" d="M112 8h16v16h-16z"/><text x="131.393" y="11.969" style="text-align:start;line-height:125%;-inkscape-font-specification:Liberation Sans" font-size="4" font-weight="400" font-family="Liberation Sans"><tspan x="131.393" y="11.969">Width: 2px</tspan><tspan x="131.393" y="16.969">Blur: 12</tspan><tspan x="131.393" y="21.969">Opacity: 60</tspan></text><g><rect width="66" height="66" rx="12" ry="12" x="15" y="15" clip-path="url(#p)" opacity=".5" fill="url(#q)" stroke="#fff" stroke-width=".5" stroke-linecap="round" filter="url(#r)"/></g><g font-size="1.971" font-weight="400" font-family="Liberation Mono"><path d="M15.156 16.031l-1.031 1.844c.392.1.4-.425.594-.656l.625-1.188h-.188zm1.469 0l-1 1.844c.392.1.4-.425.594-.656l.625-1.188h-.219zm16.406 0c-.012.425.13.833-.406.469-1.032.192-.212 1.971.438 1.188.183.478.24-.178.187-.438v-1.219h-.219zm4.438 0c-.493.003-.496.558-.813.594.374-.04.334.332.313.688-.146.301.202.829.218.312.037-.295-.063-.732.063-.938.311.107.829-.143.25-.156-.72.097.069-.498.313-.343.072-.218-.213-.138-.344-.157zm-18.344.125c-.046.005-.069.006-.094.032-.903.44.168.951.594 1.125.058.988-1.435-.492-.844.437.747.627 1.65-.726.532-.844-.924-.157.074-.927.343-.312.548-.049-.207-.468-.531-.438zm24.5 0a.371.371 0 0 0-.219.032h-.687v1.656c.377.098.163-.402.218-.625.189-.09.53-.006.782-.032.232-.253-.284-.186-.469-.187-.394.127-.32-.225-.313-.5-.026-.293.46-.055.657-.125.33.016.227-.18.031-.219zm9.594.032c-.132.392.543-.023.375.406v1.062c-.302-.14-.586.239-.157.188.245-.03.612.073.782-.032.057-.318-.566.046-.375-.406v-1.031c.302.141.586-.239.156-.188h-.781zm7.781 0c-.75.258-.118 1.055.469.968.513.647-.653.56-.813.25-.243.494 1.241.742 1.188 0 .102-.63-1.441-.447-.782-1.031.278-.19.874.59.626-.031-.178-.22-.443-.152-.688-.157zm2.969 0c.135.359-.474.348-.188.5.273.006.061.504.125.718-.31.715 1.288.412.625.25-.51.19-.404-.418-.406-.718-.117-.374.31-.214.531-.25.103-.362-.537.014-.531-.25-.018-.15.077-.305-.156-.25zM20.75 16.5c-1.04-.035-.598 1.89.344 1.25.408-.33.322-1.324-.344-1.25zm3.281 0c-.462.037-.428.499-.593.031-.335.01.017.748-.094 1.063-.022.532.377.132.218-.219-.352-.85 1.357-.588.47-.875zm1.219 0c-1.061.022-.552 1.959.406 1.25.476-.78-1.064.516-.781-.688-.038-.966 1.275.348.75-.437-.1-.1-.242-.124-.375-.125zm1.5 0c-1.055.002-.573 1.875.375 1.281.473-.592-1.018.346-.688-.562.262-.088.912.186.875-.188.004-.314-.257-.528-.562-.531zm3 0c-1.083.008-.548 1.958.406 1.25.468-.787-1.052.523-.781-.688-.038-.966 1.275.348.75-.437-.1-.1-.242-.124-.375-.125zm1.5 0c-1.022-.048-.617 1.871.313 1.25.455-.308.355-1.324-.313-1.25zm3 0c-1.066-.019-.57 1.882.375 1.281.473-.592-1.018.346-.688-.562.262-.088.912.186.876-.188.003-.314-.258-.528-.563-.531zm4.5 0c-1.022-.048-.617 1.871.313 1.25.42-.292.346-1.339-.313-1.25zm1.75 0c-.447.082-.432.531-.563.031-.351.011.025.748-.093 1.063-.022.532.377.132.218-.219-.347-.823 1.317-.608.438-.875zm4.031 0c-.371.062-.34.643-.031.219.502-.267.655.499.094.312-.853.004-.308 1.325.312.688-.03-.278.492.483.5-.032-.375.051-.147-.585-.218-.843-.034-.213-.264-.356-.47-.344a.451.451 0 0 0-.187 0zm1.688 0c-.921-.014-.65 1.686.25 1.344.481-.136.192-.543-.094-.157-.627.064-.594-.704.031-.468.783.227.336-.8-.187-.719zm1.625 0c-.4.064-.368.302-.532.031-.278.022-.005.568-.093.813-.052.22.015.727.218.406.043-.321-.096-.698.094-.969.524-.413.536.397.5.75-.153.367.33.457.219.063-.044-.369.173-1.095-.406-1.094zm2.687 0c-.393.091-.319.637.063.188.61-.045.366.537-.125.375-.853.228.136 1.338.5.53-.002.47.779.15.25.063-.124-.41.197-1.147-.5-1.156a.523.523 0 0 0-.188 0zm4.719 0c-.968-.04-.735 1.71.219 1.344.475-.12.243-.717-.032-.219-.996.445-.5-1.677.126-.719.544.102-.096-.519-.313-.406zm1.469 0c-1.036-.043-.585 1.89.343 1.25.444-.302.304-1.333-.343-1.25zm1.625 0c-.345-.011-.417.387-.469.031-.36-.047-.11.545-.188.782.003.21-.075.726.22.5.042-.373-.133-.864.218-1.125.549-.14.38.548.406.875-.126.4.364.33.219-.032-.038-.366.161-1.017-.406-1.031zm4.375 0c-.92-.014-.705 1.683.218 1.344.54-.159.188-.53-.093-.157-.536.124-.632-.697-.032-.468.57.212.676-.409.188-.657l-.125-.03-.156-.032zm-41 .031c.058.435-.16.999.218 1.313.477.129.549-.334.72 0 .263-.064.048-.624.124-.875.17-.362-.286-.67-.218-.157.185.478-.387 1.366-.625.563-.08-.256.178-.844-.157-.844h-.062zm27 0c-.041.314.451.089.656.157.243.014-.27.369-.344.53-.105.188-.505.442-.343.626h1.093c.041-.314-.451-.089-.656-.157-.435.074.103-.3.188-.468.137-.232.459-.398.437-.688h-1.031zm-28.094.125c.036-.014.08-.006.125 0 1.106.492-.645 1.767-.344.282.047-.102.111-.238.219-.282zm6.125 0c.902.29-.24.637-.344.313.057-.151.17-.307.344-.313zm4.5 0c.984.29-.3 1.805-.375.532-.004-.234.075-.552.375-.532zm1.438 0c1.084.422-.568 1.79-.282.282.025-.134.125-.291.282-.282zm1.562 0c.724.32.056.503-.375.407-.03-.23.167-.39.375-.407zm4.5 0c.984.29-.3 1.805-.375.532-.004-.234.075-.552.375-.532zm7.5 0c.57.21.258.536-.188.407-.437.105-.04-.462.188-.407zm10.469 0c.915.14-.026 1.77-.344.657-.017-.273-.024-.627.344-.657zm6 0c.609.183.253.545-.188.407-.372.09-.017-.461.188-.407zm-17.969.532c.678-.063-.335.977-.375.28-.014-.21.216-.252.375-.28zm6 0c.741-.016-.588 1.021-.344.156.065-.134.226-.124.344-.157z" style="text-align:start;line-height:150%;-inkscape-font-specification:Liberation Mono" fill="#666" stroke="#666" stroke-width=".1" stroke-opacity=".511"/><path d="M16.156 30.031c-.02.167-.02.311.188.25.103.012.105-.34-.063-.25h-.125zm4.157 0c-.064.214.086.202.25.188.199-.05.093.226.125.343v1.094h-.532c-.064.214.086.202.25.188h.938c.064-.214-.086-.202-.25-.188-.213.068-.195-.097-.188-.25v-1.375h-.593zm3.75 0v.688c-.198-.317-.75-.295-.844.093-.09.344-.136.973.312 1.063.311.174.588-.522.563-.031.267.085.183-.166.187-.344v-1.469h-.218zm-9.5.157l-.126.5c-.115.028-.372-.08-.312.125.083.046.368-.086.281.093-.055.115.004.369-.187.313-.195-.081-.211.195 0 .125.203-.047.019.232.031.343-.123.174.135.239.125.032.052-.114.009-.34.125-.375.11.03.359-.077.375.031-.028.151-.065.318-.094.469.193.06.133-.197.188-.313-.005-.196.142-.216.312-.187.213.025.071-.214-.094-.125-.215.06-.052-.198-.062-.313-.043-.212.272-.016.281-.156.058-.19-.335.052-.219-.156.016-.128.097-.318.063-.407-.2-.063-.142.19-.188.313.02.2-.113.214-.28.188-.214.055-.216-.08-.157-.25-.009-.118.163-.309-.063-.25zm3.312.312c-.297-.065-.485.437-.469.031-.297-.09-.171.247-.187.438v.875c.186.042.263-.03.218-.219.02-.283-.06-.588.094-.844.282-.33.62.057.532.375v.688c.186.042.263-.03.218-.219-.011-.293.028-.587-.031-.875-.07-.139-.213-.256-.375-.25zm1.406 0c-.452-.054-.704.455-.625.844-.021.467.58.668.938.468.183-.12.327-.465 0-.375-.161.504-.87.149-.719-.312-.05-.462.577-.616.75-.219.431.086-.045-.474-.281-.406h-.063zm5.969 0c-.47-.034-.69.518-.594.906.069.505.889.63 1.125.188-.14-.295-.355.247-.625.093-.271-.052-.425-.59-.031-.468h.719c.018-.163-.198-.181-.282-.313.04.12-.016.219-.218.157h-.469c.023-.194.165-.397.375-.407.148-.01.273.13.313.25-.103-.16-.096-.418-.313-.406zm-9.438.031c-.07.217.142.148.282.157.174-.026.057.23.093.343v.625h-.5c-.063.214.087.202.25.188h.938c.064-.214-.086-.202-.25-.188-.202.054-.25-.071-.219-.25v-.875h-.593zm5.907 0c.013.365-.03.734.031 1.094.094.467.78.136.813.063-.076.287.398.178.218-.094V30.53c-.186-.042-.263.03-.218.219-.02.283.06.588-.094.844-.295.299-.626-.038-.532-.375v-.688h-.218zm1.968.125c.483.024.481.817.157 1.032-.53.172-.584-.682-.344-.97.046-.045.123-.062.188-.062zm-9.125.157H15c-.046.126-.048.318-.125.406-.125-.017-.33.024-.406-.032.03-.127.064-.247.094-.375z" style="text-align:start;line-height:150%;-inkscape-font-specification:Liberation Mono" fill="teal" stroke="teal" stroke-width=".1" stroke-opacity=".534"/><path d="M32.281 30.031v1.813c.3.095.21-.199.219-.394-.007-.278.275-.17.331.038.136.13.192.42.427.356.253.025-.137-.271-.178-.393-.07-.16-.394-.334-.155-.476l.419-.444c-.228-.055-.378.063-.5.244-.104.066-.346.492-.344.283v-1.027h-.219zm2.344 0l-1 1.844c.254.084.304-.174.406-.346l.813-1.498h-.219zm3.656 0v1.813c.3.095.21-.199.219-.394-.007-.278.275-.17.331.038.136.13.192.42.427.356.175-.014-.182-.294-.229-.42-.092-.16-.374-.334-.109-.47l.424-.423c-.228-.055-.378.063-.5.244-.104.066-.346.492-.344.283v-1.027h-.219zm2.938 0v1.813c.299.095.21-.199.218-.394 0-.29-.057-.774.344-.794.376.061.219.476.25.737.04.165-.117.527.164.45.125-.078.02-.387.055-.556.028-.338-.001-.888-.488-.776-.27.027-.414.443-.324-.044-.04-.16.116-.516-.164-.436.009.027-.055-.018-.055 0zM31 30.187c.004.24-.088.384-.281.377-.012.214.35.052.218.386.031.275-.077.597.094.831.238.313 1.1-.173.438-.093-.432.077-.29-.391-.313-.647-.024-.229-.028-.439.262-.353.237.114.416-.197.106-.157-.202.002-.463.065-.368-.23.038-.148-.05-.111-.156-.113zm6 0c.004.24-.088.384-.281.377-.012.214.35.052.218.386.031.275-.077.597.094.831.238.313 1.1-.173.438-.093-.432.077-.29-.391-.313-.647-.024-.229-.028-.439.262-.353.27.11.339-.237.042-.157-.256.057-.366-.033-.304-.295.029-.095-.107-.03-.156-.048zm-8.156.188l-1.219.531c-.083.26.131.32.334.387l.885.363c.082-.259-.231-.256-.392-.354l-.64-.27 1.032-.47v-.187zm13.781 0c-.081.257.228.262.388.364l.643.292-1.031.438c-.083.327.232.063.394.026l.825-.339c.082-.257-.13-.321-.33-.394l-.889-.387zm-12.969.125c-.633.038-.678 1.112-.15 1.323.378.139.657-.525.546.091-.127.56-.518.045-.802.117.175.629 1.19.309 1.031-.317v-1.183c-.35-.132-.118.431-.375.032a.476.476 0 0 0-.25-.063zm6 0c-.633.038-.678 1.112-.15 1.323.392.134.653-.555.546.091-.127.56-.518.045-.802.117.175.629 1.19.309 1.031-.317v-1.183c-.356-.139-.116.48-.406.032l-.1-.048-.119-.015h0zm-5.937.156c.575.08.389 1.284-.208.961-.162-.232-.227-.967.208-.96zm6 0c.577.081.385 1.271-.208.961-.197-.243-.227-.953.208-.96zm4.375.813c-.001.202-.067.47.23.375.081-.042.131-.487-.113-.375h-.117z" style="text-align:start;line-height:150%;-inkscape-font-specification:Liberation Mono" fill="#f85600" stroke="#f85600" stroke-width=".1" stroke-opacity=".52"/><path d="M16.156 34.031c-.02.167-.017.311.191.25.103.012.108-.34-.06-.25h-.13zm4.156 0c-.063.214.099.202.263.188.2-.05.08.216.112.334v1.134h-.53c-.07.218.146.149.285.157h.902c.07-.217-.147-.148-.286-.157-.216.07-.141-.15-.152-.286v-1.37h-.594zm3.75 0v.719c-.168-.357-.76-.32-.854.074-.09.344-.117.952.331 1.042.282.2.597-.534.523-.023.263.08.234-.13.22-.328V34.03h-.22zm-9.5.188l-.124.468c-.116.03-.373-.084-.313.12.011.119.365-.063.295.106-.057.113-.006.363-.196.306-.194-.081-.23.195-.018.125.203-.047.033.216.045.328-.123.173.125.261.115.055.051-.114.003-.348.12-.383.11.03.364-.061.38.047l-.085.453c.193.06.145-.186.2-.301-.005-.196.118-.228.289-.2.212.026.079-.213-.086-.124-.216.06-.062-.191-.07-.306-.008-.18.354.05.292-.165.022-.157-.36.05-.219-.176-.009-.105.176-.36.023-.353-.166-.022-.097.242-.155.35.021.201-.213.09-.334.118-.221.062-.065-.185-.066-.304.013-.127.096-.194-.093-.164zm3.313.281c-.297-.065-.478.437-.461.031-.298-.091-.18.234-.195.424v.888c.186.042.263-.025.218-.214.02-.283-.06-.593.094-.848.285-.3.622.059.531.386v.677c.187.042.264-.026.22-.215-.012-.293.027-.59-.032-.879-.07-.139-.213-.256-.375-.25zm1.406 0c-.452-.054-.696.445-.617.833-.022.467.563.669.92.47.2-.113.323-.41.01-.365-.14.503-.82.205-.719-.25-.096-.468.55-.681.743-.282.43.087-.046-.472-.283-.404l-.054-.002h0zm5.969 0c-.467-.036-.665.522-.579.904.066.447.6.595.954.377.355-.103-.033-.444-.106-.154-.27.355-.892-.293-.525-.377h.85c.045-.37-.181-.772-.594-.75zm-9.438.031c-.07.217.147.148.287.156.174-.025.052.246.088.358v.642h-.5c-.07.218.147.148.287.157h.901c.07-.217-.147-.148-.286-.157-.214.066-.194-.102-.183-.262v-.894h-.594zm5.907 0c.013.364-.03.734.03 1.094.095.466.78.136.813.063-.075.287.399.17.22-.103V34.53c-.187-.041-.264.026-.22.215-.02.283.06.593-.093.848-.291.33-.626-.057-.532-.386v-.677h-.218zm3.531.125c.296-.02.51.53.105.406h-.48c.023-.193.165-.397.375-.406zm-1.688.031c.553-.158.629.668.35.962-.527.305-.658-.546-.443-.868l.042-.055.052-.039zm-9 .157H15c-.059.11-.023.341-.141.375-.109-.03-.369.06-.379-.047l.083-.328z" style="text-align:start;line-height:150%;-inkscape-font-specification:Liberation Mono" fill="teal" stroke="teal" stroke-width=".1" stroke-opacity=".534"/><path d="M33.719 34.031v1.813c.185.04.263-.025.218-.214.02-.283-.06-.593.094-.849.292-.296.607.063.5.385v.678c.166.019.311.018.25-.19-.012-.301.028-.608-.031-.904-.13-.445-.77-.156-.812-.061v-.658h-.22zm3 0v1.813c.185.04.263-.025.218-.214.02-.283-.06-.593.094-.849.292-.296.607.063.5.385v.678c.166.019.311.018.25-.19-.012-.301.028-.608-.031-.904-.156-.368-.681-.284-.844 0 .059-.234.02-.48.031-.719h-.218zm-4.219.156c-.056.111.018.377-.157.344-.19-.075-.164.247.018.156.16-.015.04.25.076.356.016.23-.04.477.052.692.115.26.943.141.667-.079-.308.145-.594-.009-.5-.346v-.622h.531c.07-.217-.145-.149-.284-.157-.166.02-.307.017-.247-.19.016-.161.006-.167-.156-.153zm-3.656.22l-1.219.5c-.018.158-.017.304.176.321l1.043.428c.058-.188-.09-.24-.24-.29l-.792-.335 1.032-.437v-.188zm9.281 0c-.058.188.09.238.241.286l.821.338-1.062.438c-.059.236.09.165.241.088l.978-.4c.017-.16.016-.305-.176-.323l-1.043-.428zm-8.563.093c-.228.072-.212.231-.328.031-.238-.029-.062.356-.109.518v.794c.213.064.202-.097.187-.26.01-.282-.039-.583.092-.84.273-.201.222.274.221.446v.654c.185.042.263-.024.219-.213.01-.283-.026-.571.03-.85.296-.303.305.202.282.41v.653c.185.042.264-.024.219-.213-.013-.336.04-.68-.063-1.005-.146-.327-.523.073-.516.066-.036-.098-.115-.202-.234-.191zm1.657 0c-.29-.117-.746.453-.287.375.067-.337.645-.216.568.141-.166.069-.414.016-.599.07-.468.15-.218 1.018.286.758.217.04.311-.43.34-.09.15.267.613-.008.223-.098-.095-.313.051-.67-.102-.97-.097-.137-.27-.187-.43-.186zm.281.687c.103.348-.522.79-.625.313-.014-.376.391-.25.625-.313zm4.094.313c.035.11-.087.38.095.344.212.063.2-.099.186-.261.049-.157-.198-.053-.281-.083z" style="text-align:start;line-height:150%;-inkscape-font-specification:Liberation Mono" fill="#f85600" stroke="#f85600" stroke-width=".1" stroke-opacity=".52"/><path d="M16.156 37.875c-.042.186.026.263.215.219.087-.064.052-.309-.132-.219h-.083zm4.156 0c-.063.214.099.201.263.187.2-.05.08.217.112.334V39.5h-.53c-.065.214.098.201.262.187h.925c.064-.213-.099-.2-.263-.187-.213.067-.182-.11-.175-.262v-1.363h-.594zm3.75 0v.687c-.197-.317-.76-.283-.854.106-.09.343-.117.952.331 1.042.311.174.573-.514.547-.023.268.085.19-.174.195-.352v-1.46h-.219zm-9.5.156l-.124.5c-.116.029-.373-.085-.313.12.083.046.378-.082.291.098-.055.115 0 .37-.192.313-.194-.08-.23.196-.018.125.203-.046.033.217.045.329-.123.173.125.261.115.054.051-.113.003-.347.12-.383.11.03.364-.06.38.047l-.085.453c.193.061.145-.185.2-.3-.005-.196.118-.229.289-.2.212.025.079-.213-.086-.125-.215.061-.064-.191-.074-.306-.043-.213.287-.008.296-.147.058-.19-.343.038-.227-.17.016-.128.113-.32.078-.408-.2-.063-.143.183-.19.305.02.2-.107.222-.274.195-.213.056-.214-.064-.155-.234-.01-.118.15-.324-.076-.266zm3.157.313c-.274.148-.25.302-.33.03-.29-.083-.14.272-.17.449v.864c.186.042.263-.025.218-.214.022-.284-.062-.594.094-.848.292-.333.621.058.531.386v.676c.187.042.264-.025.22-.214-.023-.321.056-.662-.072-.965-.093-.166-.325-.173-.491-.164zm1.562 0c-.461-.07-.688.428-.617.817-.003.458.551.697.92.485.184-.12.337-.456.01-.365-.16.504-.867.152-.716-.31-.053-.5.597-.607.764-.22.418.055-.133-.515-.36-.407h0zm5.969 0c-.47-.035-.675.515-.579.904.07.458.71.622 1.023.301.23-.196-.186-.267-.225-.049-.295.276-.857-.422-.45-.437h.825c.04-.361-.2-.74-.594-.72zm-9.438.03c-.07.218.147.149.287.157.174-.026.052.245.088.358v.61h-.5c-.063.215.099.202.263.188h.925c.064-.213-.099-.2-.262-.187-.203.054-.237-.06-.207-.239v-.886h-.594zm5.907 0c.013.365-.03.735.03 1.095.095.466.78.136.813.062-.071.29.394.168.22-.102v-1.054c-.187-.042-.264.026-.22.215-.02.283.06.592-.093.848-.326.28-.616-.05-.532-.393v-.67h-.218zm1.968.126c.483.024.481.817.157 1.031-.505.17-.555-.607-.375-.906a.246.246 0 0 1 .218-.125zm1.563 0c.296-.02.51.53.105.406h-.48c.023-.193.165-.397.375-.406zm-10.688.156H15c-.046.127-.04.319-.118.406-.124-.016-.332.033-.408-.023l.089-.383z" style="text-align:start;line-height:150%;-inkscape-font-specification:Liberation Mono" fill="teal" stroke="teal" stroke-width=".1" stroke-opacity=".534"/><path d="M34.156 37.875c-.118.218.197.309.25.16.052-.235-.086-.143-.25-.16zm5.563 0v1.812c.266.085.227-.136.218-.327.017-.292-.089-.73.264-.851.396-.074.334.372.33.633v.545c.267.085.228-.136.219-.327-.018-.284.041-.583-.04-.852-.19-.403-.775.01-.788.024.032-.216.008-.438.016-.657h-.22zM31 38.031c-.034.182-.015.428-.271.344-.144.266.287.042.208.275.02.308-.046.63.052.924.13.302.96.063.667-.074-.426.183-.566-.17-.5-.514.046-.135-.1-.464.09-.455.142-.044.482.109.441-.119-.093-.088-.35-.011-.506-.037-.085-.09.086-.436-.181-.344h0zm-2.156.188l-1.219.531c-.065.226.075.315.276.363.314.13.628.258.943.387.08-.235-.175-.247-.33-.327-.233-.1-.468-.199-.702-.298l1.032-.469v-.187zm12.281 0c-.08.233.173.252.326.335l.705.321-1.031.437c-.081.303.176.101.33.052l.889-.364c.064-.225-.074-.317-.273-.37-.316-.136-.63-.274-.946-.411zm-11.375.125c-.665-.102-.605.826.019.767.539.07.194.609-.21.408-.116-.195-.55-.241-.252.065.466.505 1.478-.32.662-.616-.351.013-.818-.425-.219-.468.154-.03.56.39.438.031-.065-.193-.282-.148-.438-.187zm3.25 0c-.321-.06-.498.574-.5.03-.393-.1-.076.36-.156.589v.724c.266.085.227-.136.218-.327-.038-.351.057-.885.52-.815.31.13.181-.35-.082-.201zm2.687 0c-.166.088-.32.39-.28.03-.33-.092-.147.326-.188.52v.793c.266.084.227-.136.218-.328.017-.296-.091-.733.28-.85.386-.063.314.379.314.633v.545c.253.07.285-.08.25-.298-.026-.318.079-.678-.125-.952-.13-.099-.312-.1-.469-.093zm1.47 0c-.588-.025-.625.889-.321 1.229.224.265.678-.049.695-.107.15.385-.318.857-.562.378-.538.025.24.568.504.316.395-.177.248-.665.277-1.01.007-.26-.022-.527.031-.775-.335-.163-.14.453-.358.067a.385.385 0 0 0-.267-.098zm-3.376.03c-.078.26.24.125.388.157.044.161.006.404.018.596-.02.163.09.458-.178.373-.169.011-.436-.075-.353.187h1.219c.087-.269-.19-.173-.358-.187-.218.032-.066-.306-.11-.447v-.678h-.626zm3.438.126c.476.08.453 1.064-.1 1.006-.353-.112-.347-1.007.1-1.006zm1.375.812c.02.164-.09.46.179.375.17.062.132-.373.042-.375h-.221z" style="text-align:start;line-height:150%;-inkscape-font-specification:Liberation Mono" fill="#f85600" stroke="#f85600" stroke-width=".1" stroke-opacity=".52"/><path d="M16.562 44.031v.655c-.214-.288-.762-.24-.854.137-.08.33-.117.827.228 1.016.23.169.61-.14.626-.152-.1.253.376.199.22-.053v-1.605h-.22zm2.938 0c-.32-.062-.565.24-.52.5-.098.032-.328-.07-.324.063-.041.17.193.064.293.093.113.015.022.235.051.334v.822c.146.017.272.015.219-.167v-.989h.594c.058-.187-.094-.164-.23-.156-.114-.015-.286.029-.364-.021-.064-.35.337-.295.562-.291.183.012-.012-.3-.208-.188H19.5zm1.156 0c.002.13-.046.31.146.25.155.071.13-.237.062-.25h-.208zm-6.093.157l-.126.5c-.1.03-.34-.076-.312.084.01.115.31-.033.303.082-.04.115-.038.284-.105.365-.114.014-.32-.063-.26.125.13 0 .318-.045.223.144-.006.11-.082.28-.046.356.17.046.112-.183.158-.287.009-.144.035-.265.207-.213.113.015.34-.064.247.123l-.07.377c.175.056.146-.15.19-.263.032-.126.03-.295.205-.237.133.065.305-.085.135-.125-.13 0-.317.045-.227-.144.032-.114-.015-.32.165-.262.162.083.236-.166.052-.125-.207.058-.114-.118-.085-.243.013-.112.142-.314-.061-.257-.082.056-.056.242-.096.349.024.183-.125.157-.258.15-.168.03-.25-.011-.174-.184-.014-.094.13-.32-.004-.315h-.062zm3.187.312c-.375-.033-.615.348-.594.687-.067.422.36.784.764.669.19 0 .567-.334.212-.345-.12.29-.769.258-.732-.18-.035-.201.236-.08.361-.112h.583c.04-.362-.2-.74-.594-.719zm4.594 0c-.233-.088-.47.448-.407.064-.22-.142-.259.1-.218.292v.99c.146.016.272.014.218-.168.017-.28-.044-.572.058-.84.193-.376.665-.081.567.268v.739c.146.017.273.015.22-.167-.012-.31.027-.623-.032-.927a.432.432 0 0 0-.406-.251zm1.406 0c-.375-.033-.615.348-.594.687-.067.422.36.784.764.669.21.01.528-.331.183-.353-.14.374-.78.186-.725-.23.021-.116.259-.026.373-.054h.593c.04-.362-.2-.74-.594-.719zm-3.469.031c-.058.187.094.164.23.156.177-.049.201.056.176.21v.759h-.53c-.045.177.046.217.208.188h1.01c.044-.177-.047-.218-.209-.188-.114-.014-.32.063-.26-.125v-1h-.625zm-4.062.125c.43.062.388.637.25.938-.412.4-.686-.244-.568-.603.007-.17.125-.357.318-.335zm1.531 0c.266-.065.52.502.156.406h-.5a.375.375 0 0 1 .344-.406zm6 0c.252-.044.524.5.156.406h-.531c.024-.193.164-.398.375-.406zm-9.188.156H15l-.094.407h-.437l.094-.407z" style="text-align:start;line-height:150%;-inkscape-font-specification:Liberation Mono" fill="teal" stroke="teal" stroke-width=".1" stroke-opacity=".534"/><path d="M26.156 44.188v1.656c.057-.018.188.039.188-.036v-1.402c.018.163.104.298.152.451l.16.453c.063-.013.17.04.179-.055.087-.222.195-.438.251-.67.07-.13.03.136.039.206v1.05h.219v-1.656h-.282c-.105.291-.219.58-.312.876-.093-.296-.207-.585-.313-.876h-.28zm3.031 0v1.656h.22v-.625c.207-.01.421.023.624-.031.258-.087.354-.399.297-.643-.06-.27-.365-.377-.614-.357h-.527zm1.563 0c.017.057-.039.187.035.187h.34v1.281h-.375c.017.057-.039.188.035.188h.965c-.018-.057.039-.188-.036-.188h-.37v-1.281h.406c-.018-.057.039-.187-.036-.187h-.964zm-1.344.187c.226.011.495-.05.668.136.118.174.017.479-.208.5-.151.034-.307.015-.46.02v-.656zM27.5 46c-.01.083-.009.156.095.125H29c.01-.083.009-.155-.095-.125H27.5z" style="text-align:start;line-height:150%;-inkscape-font-specification:Liberation Mono" fill="#f0f" stroke="#f0f" stroke-width=".1" stroke-opacity=".516"/><path d="M34.031 44.188c-.576.347-.174.612.188.156 1.057.297-.884.735.218.812.484.739-.547.425-.78.25.49 1.249 1.606-.294.937-.469.505-.397-.092-.892-.563-.75zm3.188 0c-.39.262-.907.605-.094.312.205-.06.04.774.094 1.083-.212.043-.929.213-.205.26.238 0 1.177.076.73-.187-.545.138-.22-.596-.307-.916-.061-.21.17-.67-.218-.552zm1.656 0c-.236.39-.577.749-.75 1.159.057.353 1.003-.183.781.449.21.143.421-.456.372-.515-.342-.057-.062-.737-.153-1.046.027-.108-.192-.018-.25-.047zm1.344 0c-.412.263-.892.608-.094.312.205-.06.04.774.094 1.083-.212.043-.929.213-.205.26.238 0 1.177.076.73-.187-.545.138-.22-.596-.307-.916-.061-.21.17-.67-.218-.552zm1.031 0c.043.278-.268 1.123.219.844 1.104-.275.351 1.195-.224.421-.286.718 1.715.383.942-.516-.492.039-1.162-.264-.553-.562.542.14.82-.28.127-.188h-.511zm1.969 0c-1.104-.04-.312 1.752.375.875.052.749-.572.6-.907.437.78 1.335 1.826-1.242.532-1.312h0zm1.5 0c-.696-.054-.497.888-.125.187 1.412.017-.993 1.283-.242 1.469.264-.054 1.133.149.895-.188-.549.034-1.225.046-.34-.468.51-.242.508-1.124-.188-1zm1.562 0c-1.07.017-.684 2.322.406 1.53.643-.855-.721-1.005-.803-.869-.08-1.017 1.473.157.553-.662h-.156 0zm.969 0c.043.278-.268 1.123.219.844 1.104-.264.359 1.19-.255.423-.077.94 1.917.031.786-.643-.517.186-.753-.046-.497-.437.37.12 1.12-.166.389-.188h-.642zm1.781 0c-.644.413-.19.574.188.156 1.015.31-.953.754.218.812.47.775-.546.379-.812.25.176 1.117 1.96-.026.781-.407.744-.22.258-.997-.375-.811zm1.219 0c.043.278-.268 1.123.219.844 1.104-.264.359 1.19-.255.423-.077.94 1.917.031.786-.643-.517.186-.753-.046-.497-.437.37.12 1.12-.166.389-.188h-.642zm1.969 0c-.788-.109-.392.811-.375.843-.922.878 1.482 1.228.875.062-.522-.052.723-.862-.5-.905zm1.5 0c-1.095-.042-.329 1.747.375.875.052.749-.572.6-.907.437.758 1.337 1.833-1.252.532-1.312h0zm.937 0c-.077.51 1.387-.19.688.53-.507.472-.282 1.85-.04.562.396-.636.769-1.32-.242-1.092h-.406zm2.063 0c-1.265.165-.005 1.488.366 1.025.056.992-1.449-.168-.585.63.95.3 1.155-1.67.219-1.655zm1.281 0c-.597.484-.15.517.219.156 1.015.31-.953.754.218.812.486.723-.578.438-.812.25.516 1.225 1.596-.246.937-.469.539-.335-.102-.933-.562-.75zm1.719 0c-.704-.066-.55.896-.125.187 1.331.074-.843 1.163-.307 1.469.294-.1 1.005.216.994-.188-.561.045-1.27.037-.375-.468.516-.234.484-1.112-.187-1zm1.281 0c-.597.484-.15.517.219.156 1.015.31-.953.754.218.812.486.723-.578.438-.812.25.516 1.225 1.596-.246.937-.469.539-.335-.102-.933-.562-.75zm1.719 0c-.795-.113-.403.807-.375.843-.788 1.362 1.731.582.75-.093.373-.258.048-.846-.375-.75zm1.656 0c-.237.415-.67.768-.781 1.224.19.209 1.007-.21.812.384.21.143.421-.456.372-.515-.342-.057-.062-.737-.153-1.046.027-.108-.192-.018-.25-.047zm1.406 0c-1.25.01-.444 2.625.5 1.343.383-.863-.92-.708-.897-.682-.122-1.002 1.427.145.553-.662h-.156 0zm-22.562.156c1.02.345-.511 1.347-.313.218.068-.109.156-.25.313-.218zm8.843 0c1.521.154-.736 1.146 0 0zm1.657 0c1.016.337-.515 1.347-.313.218.068-.109.156-.25.313-.218zm3 0c1.031.346-.546 1.345-.313.218.068-.109.156-.25.313-.218zm5.843 0c1.513.146-.736 1.148 0 0zm-23.656.094c-.049.363.202 1.026-.392.844-.448.028.3-.565.363-.803l.03-.042zm25.5 0c-.049.363.202 1.026-.392.844-.502.049.27-.545.351-.789l.039-.053h.002zm-18.156.5c1.018.3-.524 1.323-.313.186.041-.136.2-.161.313-.186zm19.5 0c1.036.32-.564 1.31-.313.186.041-.136.2-.161.313-.186zm-13.531.125c1.44.772-1.38.82 0 0zm10.5 0c1.411.81-1.396.783 0 0zm-27.125.406c-.198.694.645.213.15 0h-.15z" style="text-align:start;line-height:150%;-inkscape-font-specification:Liberation Mono" fill="green" stroke="green" stroke-width=".1" stroke-opacity=".484"/><path d="M16.562 48.25v.686c-.184-.325-.768-.225-.854.137-.087.33-.113.864.278 1 .209.048.496.05.576-.199-.133.265.366.26.22-.01v-1.615h-.22zm2.938 0c-.32-.062-.565.24-.52.5-.098.032-.328-.07-.324.063-.058.19.156.108.272.125.146-.018.04.217.072.313v.812c.146.017.272.015.219-.168v-.957h.594c.044-.177-.048-.218-.21-.188h-.384c-.08-.351.384-.343.604-.281.085-.126-.019-.242-.182-.187-.05.01-.095-.018-.141-.031zm1.156 0c.002.13-.046.31.146.25.155.071.13-.237.062-.25h-.208zm-6.093.188l-.126.5c-.1.03-.34-.076-.312.084.009.115.31-.032.302.082-.05.1-.022.301-.125.334-.115-.014-.327-.016-.219.125.149-.014.288-.019.199.164.008.1-.111.305-.022.336.155.026.092-.209.141-.308-.005-.16.064-.231.224-.192.13 0 .318-.045.223.144-.006.11-.082.28-.046.356.168.046.123-.18.175-.284.02-.141.05-.268.221-.216.147.079.276-.13.093-.125-.148.014-.287.019-.201-.165.005-.144.031-.262.202-.21.184.056.134-.204-.032-.125-.19.045-.032-.181-.033-.284.044-.132.093-.27-.102-.216l-.094.5h-.437l.094-.5h-.125zm3.187.28c-.412-.036-.628.418-.593.773-.049.44.424.726.812.571.34 0 .392-.448.113-.295-.196.35-.81.11-.676-.298h.938c.034-.35-.2-.775-.594-.75zm4.594 0c-.244-.043-.462.442-.422.043-.25-.1-.216.148-.203.333v.969c.146.017.272.015.218-.167.017-.28-.044-.573.058-.84.215-.322.663-.093.567.268v.74c.146.016.273.014.22-.168-.012-.309.027-.623-.032-.927a.432.432 0 0 0-.406-.25zm1.406 0c-.412-.036-.628.418-.593.773-.049.44.424.726.812.571.234-.013.447-.328.125-.343-.138.378-.768.214-.716-.2.028-.108.259-.024.373-.05h.593c.034-.35-.2-.775-.594-.75zm-3.469.032c-.044.176.047.217.21.187.162-.034.237.02.196.188v.781h-.53c-.059.187.093.164.229.156h.989c.058-.187-.093-.164-.23-.156-.129 0-.3.043-.239-.146v-1.01h-.625zm-4.062.156c.435.021.392.622.25.906-.395.394-.687-.22-.568-.577.002-.185.112-.349.318-.329zm1.406 0c.25-.17.66.328.364.375h-.583a.378.378 0 0 1 .219-.375zm6 0c.256-.184.692.403.323.375h-.573c.02-.15.108-.313.25-.375zm-9.063.156H15l-.094.375h-.437l.094-.375z" style="text-align:start;line-height:150%;-inkscape-font-specification:Liberation Mono" fill="teal" stroke="teal" stroke-width=".1" stroke-opacity=".534"/><path d="M29.75 48.406c-.9-.052-.585 1.07.176.963.667.413-.562.844-.649.258-.515.09.337.68.625.456.802-.063.425-1.108-.246-.991-.727-.32.36-.804.508-.26.453-.01-.217-.56-.414-.426zm1.5 0c-.75.026-.774 1.09-.414 1.542.383.082.617.919 1.039.511.064-.184-.716-.094-.369-.403.533-.349.511-1.4-.118-1.636l-.138-.014h0zm4.5 0c-.325-.132-.877.512-.344.468.077-.694 1.117.045.406.249-.453-.01-.201.334.125.28.572.36-.554.813-.598.219-.547.063.347.73.661.437.629-.135.13-.902-.01-.87.54-.16.26-.869-.24-.783zm1.5 0c-.698.016-.746.929-.507 1.409.48.72 1.35-.103 1.118-.76-.043-.311-.255-.67-.611-.649zm5.969 0c-.492-.182-.626.782-.282.344.343-.518.962.264.35.515-.212.152-1.032.898-.346.797h.871c.07-.287-.33-.105-.498-.156-.728.127 0-.462.28-.656.38-.343.133-.901-.375-.844zm-17.063.031v1.625c.31.094.15-.284.188-.462v-.944c.093.293.215.572.312.873.261.064.232-.306.346-.46.1-.26.166-.575.123-.125v1.116c.32.105.199-.231.219-.427v-1.198c-.286-.089-.353.137-.417.367-.132.423-.202.563-.332.06-.094-.184-.083-.52-.371-.426 0 .024-.07-.023-.068 0zm6.031 0v1.625c.32.105.2-.231.22-.427-.12-.277.197-.347.35-.2.15.199.257.478.435.627.385.084.121-.17.002-.35-.197-.252-.354-.416.056-.524.368-.494-.26-.867-.718-.75h-.344zm1.407 0c-.094.31.284.15.462.188.154.07.028.42.069.605v.832c.32.105.199-.231.219-.427v-1.01c.17-.053.562.116.562-.107-.034-.182-.401-.032-.569-.081h-.743zm4.406 0l.625 1.625c.282.098.282-.216.372-.398l.472-1.227c-.284-.098-.311.164-.377.37-.118.355-.255.704-.342 1.068-.18-.472-.33-.96-.5-1.438H38zm1.687 0v1.625h1.157c.093-.31-.285-.149-.463-.187-.174-.043-.562.126-.475-.178-.025-.249-.031-.478.285-.385.17-.053.576.13.528-.142-.11-.107-.42-.014-.605-.045-.321.097-.178-.269-.208-.463.123-.09.419-.01.605-.038.233.128.475-.201.16-.187h-.984zm1.5 0v1.625c.32.105.2-.231.22-.427-.12-.277.197-.347.35-.2.15.199.257.478.435.627.376.088.064-.197-.019-.357-.192-.253-.326-.415.077-.517.346-.517-.255-.858-.718-.75h-.344zm-9.937.157c.555.072.54 1.38-.087 1.303-.445-.183-.456-1.241.087-1.303zm6 0c.556.072.54 1.386-.092 1.303-.453-.136-.465-1.294.092-1.303zm-4.844.03c.363-.09 1.04.149.531.532-.22.023-.651.151-.53-.218v-.313zm9 0c.363-.09 1.04.149.531.532-.22.023-.651.151-.53-.218v-.313zM27.5 50.219c-.032.252.369.07.534.125H29c.032-.251-.369-.07-.534-.125H27.5z" style="text-align:start;line-height:150%;-inkscape-font-specification:Liberation Mono" fill="#f0f" stroke="#f0f" stroke-width=".1" stroke-opacity=".516"/><path d="M46.219 48.406c-1.492.232.135 2.866.59 1.066.045-.412-.012-1.12-.59-1.066zm3 0c-1.059.055.021.862-.563 1.063-.222 1.233 2 .314.813-.25.54-.186.292-.896-.25-.813zm1.562 0c-1.482.147-.007 2.838.531 1.125.04-1.03-1.588.09-.687-.907.38.083.976.262.312-.218h-.156 0zm1.5 0c-1.482.147-.007 2.838.531 1.125.019-1.022-1.552.115-.718-.907.385.057 1.021.286.343-.218h-.156 0zm1.438 0c-1.51.213.103 2.88.59 1.066.045-.412-.012-1.12-.59-1.066zm1.5 0c-.727-.045-.514.892-.125.188 1.45.05-1.287 1.524-.081 1.468.295.082 1.246-.084.514-.156-1.595.285 1.39-1.285-.308-1.5h0zm4.5 0c-1.508.21.068 2.898.59 1.066.045-.412-.012-1.12-.59-1.066zm1.5 0c-.687-.059-.553.876-.139.2 1.131-.01-.333.651.076.736 1.013.309-.19.808-.531.28.47 1.225 1.618-.233.937-.468.446-.163.072-.882-.343-.748zm3 0c-1.072.045.02.86-.563 1.063-.253 1.22 2.003.332.813-.25.521-.154.259-.92-.25-.813zm4.5 0c-.687-.059-.553.876-.139.2 1.03.012-.176.595.023.736 1.071.229-.11.848-.478.28.452 1.208 1.605-.196.938-.468.437-.207.076-.86-.344-.748zm1.5 0c-1.09.04.02.861-.563 1.063-.249 1.262 2.02.268.781-.25.559-.116.308-.91-.218-.813zm1.531 0c-1.426.193-.002 2.832.562 1.125-.015-1.007-1.545.095-.718-.907.351.046.985.302.343-.218h-.187 0zm3 0c-1.42.192-.012 2.828.562 1.125-.005-1.006-1.574.092-.718-.907.351.046.985.302.343-.218h-.187 0zm3 0c-1.431.185.015 2.83.531 1.125.056-1.012-1.56.095-.687-.907.351.046.985.302.343-.218h-.187 0zm1.469 0c-.687-.059-.553.876-.139.2 1.03.012-.176.595.023.736 1.05.236-.126.846-.478.28.439 1.215 1.6-.201.938-.468.404-.235.096-.85-.344-.748zm-22.969.031c.013.298-.252 1.172.281.782 1.13.015.14 1.098-.4.468.605 1.359 1.97-.9.431-.624-.467-.13.086-.72.589-.47.333-.304-.731-.094-.901-.156zm2.125 0c-.235.41-.687.75-.781 1.205.244.167 1.027-.205.812.42.21-.018.543-.548.295-.562-.265-.162.152-1.006-.219-1.063H58.375zm3.781 0c.109.43 1.484-.211.588.686-.465.547-.083 1.524.06.375.46-.695.713-1.285-.307-1.06h-.34zm3.719 0c-.235.41-.687.75-.781 1.205.244.167 1.027-.205.812.42.21-.018.543-.548.295-.562-.265-.162.152-1.006-.219-1.063H65.875zm1.5 0c-.235.41-.687.75-.781 1.205.351.072.899-.05.852.42.113-.09.622-.587.184-.562-.113-.315.225-1.08-.219-1.063h-.036zm6 0c-.235.41-.687.75-.781 1.205.351.072.899-.05.852.42.06-.148.636-.575.184-.562-.187-.25.218-1.093-.25-1.063h-.005zm2.281 0c.122.43 1.494-.208.556.686-.47.55-.03 1.52.077.375.456-.696.687-1.287-.324-1.06h-.309zm4.5 0c.122.43 1.494-.208.556.686-.477.542-.016 1.526.061.375.46-.695.713-1.285-.308-1.06h-.309zm-30.937.125c1.274.697-1.218.693 0 0zm15 0c1.242.718-1.228.662 0 0zm6 0c1.232.73-1.225.652 0 0zm-24 .031c1.115.309-.325 2.252-.375.657.018-.255.005-.678.375-.657zm7.5 0c1.089.323-.315 2.247-.375.657.018-.255.005-.678.375-.657zm6 0c1.089.323-.315 2.247-.375.657.018-.255.005-.678.375-.657zm-1.313.062c-.005.443.154 1.05-.5.844-.254-.045.413-.619.5-.844zm7.5 0c-.005.443.154 1.05-.5.844-.254-.045.413-.619.5-.844zm1.469 0c-.005.443.154 1.05-.5.844-.162-.092.405-.612.5-.844zm6 0c-.005.443.154 1.05-.5.844-.162-.092.405-.612.5-.844zm-27.281.438c-.117.846.76-.125 0 0zm7.5 0c-.117.846.76-.125 0 0zm5.968 0c-.132.756.77-.083.028 0h-.028zm-8.812.062c1.006.336-.516 1.33-.313.188.041-.136.2-.16.313-.188zm1.5 0c1.006.336-.516 1.33-.313.188.041-.136.2-.16.313-.188zm19.469 0c1.053.308-.503 1.348-.313.188.07-.11.198-.151.313-.188zm3 0c1.053.308-.503 1.348-.313.188.08-.092.184-.184.313-.188zm3 0c1.144.45-.782 1.261-.219.094-.01-.121.22-.013.219-.094zm-28.5.125c1.445.773-1.383.846 0 0zm15 0c1.416.812-1.397.809 0 0zm6 0c1.425.831-1.404.789 0 0zm-22.625.437c-.115.914.76-.113 0 0z" style="text-align:start;line-height:150%;-inkscape-font-specification:Liberation Mono" fill="green" stroke="green" stroke-width=".1" stroke-opacity=".484"/><path d="M21.062 54.125c-.05.204.138.88-.187.499-.908-.347-.999 1.512-.097 1.327.325-.237.2-.176.367-.016.284.021.069-.456.136-.651v-1.16h-.219zm2.688 0c-.257.237-.326.504-.594.551.058.192.472.026.313.435v.827c.36.108.174-.33.218-.537.066-.182-.142-.638.124-.62.183 0 .669.072.46-.187-.258.014-.895.058-.396-.281.369.18.715-.256.187-.188-.104 0-.208-.016-.312 0zm-9.25.125c.089.387-.307.247-.281.509.31-.065.206.285.219.517-.099.43.172.772.624.661.502-.256-.12-.169-.343-.218-.127-.286-.035-.628-.063-.938.189-.01.694.074.49-.187-.256 0-.609.089-.49-.29.035-.103-.106-.034-.156-.054zm13.5 0c.089.387-.307.247-.281.509.31-.065.206.285.218.517-.098.43.173.775.625.661.549-.366-.467 0-.406-.374v-.782c.189-.01.694.074.49-.187-.256 0-.609.089-.49-.29.035-.103-.106-.034-.156-.054zm6 0c.089.387-.307.247-.281.509.31-.065.206.285.218.517-.098.43.173.775.625.661.549-.366-.467 0-.406-.374v-.782c.183 0 .668.072.459-.187-.253 0-.579.08-.459-.29.035-.103-.106-.034-.156-.054zm-16.156.313c-.328.014-.399.377-.448.033-.362-.072-.104.476-.177.693v1.15c.348.109.182-.297.218-.5-.047-.272.76.296.837-.289.14-.383.108-1.066-.43-1.087zm-2.25.03l.562 1.313c-.118.309-.814.564-.125.5.427-.414.537-1.048.784-1.582.263-.314-.231-.31-.22 0-.122.27-.213.599-.345.833-.16-.345-.292-.709-.438-1.063h-.218zm3.656 0c-.858-.061-.766 1.581.118 1.336.551-.023.413-.611.007-.149-.573.086-.641-.687-.046-.469.51.146.71-.215.29-.62-.087-.111-.246-.096-.37-.097zm3 0c-.858-.061-.766 1.581.118 1.336.543-.01.398-.612.007-.149-.573.086-.641-.687-.046-.469.51.146.71-.215.29-.62-.087-.111-.246-.096-.37-.097zm4.281 0c-.789.487.272.757.563.968-.089.676-.989-.298-.844.218.38.493 1.524-.11.8-.551-.506.074-.854-.534-.175-.479.373.476.487-.165-.028-.16-.105.016-.212-.017-.316.01zm2.75 0c.106.437.048.896.063 1.345.36.108.174-.33.218-.537-.169-.592.585-.574.72-.712-.108-.302-.747.074-.75.155.01-.242-.035-.275-.25-.25zm1.438 0c.028.416-.074.859.093 1.25.34.409.833-.394.792.095.346.07.108-.445.177-.652-.05-.208.103-.619-.082-.691-.282-.03-.072.432-.137.619.205.644-.84.765-.625.059-.051-.202.106-.613-.082-.679h-.136zm2.031 0c-.943-.063-.706 1.718.219 1.313.526-.092.217-.69 0-.188-.718.434-.838-1.184-.093-.954.115.343.691.252.249-.078a.778.778 0 0 0-.375-.093zm-14.969.157c.651.046.275 1.525-.286.869-.081-.283-.147-.864.286-.87zm1.344 0c.631-.081.533.615-.026.406-.348.104-.164-.337.026-.406zm1.562 0c.919.053-.018 1.76-.285.65 0-.23-.049-.634.285-.65zm1.438 0c.575-.08.57.606.015.406-.405.101-.272-.226-.015-.406z" style="text-align:start;line-height:150%;-inkscape-font-specification:Liberation Mono" fill="navy" stroke="navy" stroke-width=".1" stroke-opacity=".484"/><path d="M45.812 54.125c-.03.308.55.01.344.492v1.133c-.263-.107-.79.132-.308.188h.996c.118-.418-.65.053-.469-.428v-1.385h-.563zm12 0c-.03.308.55.01.344.492v1.133c-.224-.071-.818.054-.387.188h1.075c.118-.418-.65.053-.469-.428v-1.385h-.563zm-16.093.125c-.936-.01-.466 1.123.281.998.468.572-.665.644-.782.232-.413.538 1.43.733 1.126-.17-.13-.426-1.397-.304-.782-.871.34-.103.962.591.594-.094a1.12 1.12 0 0 0-.437-.094zm1.281 0c.09.339-.552.423-.138.531.12.236-.026.676.082.978.17.511 1.267-.12.477-.01-.475.04-.24-.566-.296-.858-.033-.31.672.119.531-.298-.294 0-.67.093-.531-.336-.015-.024-.093 0-.125-.01zm10.719 0c-.939-.025-.492 1.117.25.998.535.523-.648.67-.783.233-.377.53 1.435.734 1.158-.17-.164-.418-1.384-.314-.782-.871.315-.075 1.011.58.563-.095a.89.89 0 0 0-.406-.095zm1.25 0c.125.345-.52.423-.107.531.114.237-.01.672.066.978.137.513 1.29-.107.51-.01-.475.07-.27-.526-.313-.81-.11-.389.622.066.531-.303-.156-.13-.7.125-.531-.331.04-.108-.109-.035-.156-.056zm-16.782.031v1.656c.395.098.153-.44.22-.67.218-.215.469.127.56.36.005.302.634.473.312.107-.284-.39-.44-.597.065-.859.115-.757-.7-.566-1.156-.594zm12 0v1.656c.395.098.153-.44.22-.67.225-.223.452.183.568.393.052.327.645.397.279.034-.22-.331-.452-.554.034-.738.294-.79-.634-.668-1.1-.674zm-11.78.188c.593-.215 1.054.612.2.562-.366.116-.137-.37-.2-.562zm12 0c.593-.211 1.05.601.2.562-.366.116-.137-.37-.2-.562zm-10.157.125c-1.074-.036-.551 1.945.375 1.218.491-.808-.665.501-.719-.344-.216-.861.508-.663.906-.5-.041-.273-.323-.377-.562-.374zm3.812 0c.18.46.424.906.563 1.374-.179.257-.78.507-.125.438.43-.393.529-1.02.788-1.53.313-.36-.238-.392-.239-.015-.147.213-.29 1.165-.424.514-.14-.246-.204-.61-.392-.781h-.17zm3.657 0c-1.035-.01-.529 1.888.406 1.25.496-.538-1.149.298-.654-.533.269-.022.625.043.841-.03.03-.347-.187-.766-.593-.687zm4.531 0c-1.106-.05-.565 1.945.375 1.218.464-.77-.689.49-.75-.344-.198-.83.523-.705.906-.5-.042-.276-.282-.382-.531-.374zm3.812 0l.563 1.312c-.11.319-.822.553-.125.5.443-.405.528-1.055.784-1.583.246-.421-.305-.192-.27.126-.149.296-.282 1.07-.428.338-.163-.21-.148-.694-.449-.693h-.075 0zm3.657 0c-1.032-.016-.57 1.886.375 1.25.574-.54-1.146.274-.623-.533.269-.022.625.043.841-.03.03-.347-.187-.766-.593-.687zm-12.094.156c.633-.027.504.612-.058.406-.374.123-.145-.386.058-.406zm11.969 0c.642-.048.56.614-.027.406-.364.116-.152-.342.027-.406zm-23.125 1.312c.026.271.537.057.766.125.231-.066.735.142.765-.125h-1.531z" style="text-align:start;line-height:150%;-inkscape-font-specification:Liberation Mono" fill="#f0f" stroke="#f0f" stroke-width=".1" stroke-opacity=".516"/><path d="M61.075 54.969v-.365h.287v.365h-.287m-.176 1.399l.207-.808h.323l-.38.808h-.15" style="text-align:start;line-height:150%;-inkscape-font-specification:Liberation Mono"/><path d="M21.062 58.031c-.038.168.087.77-.083.591-.852-.633-1.21 1.256-.323 1.252.313-.012.402-.378.448-.033.343.08.11-.415.177-.611v-1.201h-.219zm2.938 0c-.522-.042-.493.578-.844.583.155.098.437.068.313.445v.784c.36.11.174-.329.218-.536.066-.182-.142-.638.124-.62.17.02.717.025.419-.156-.237 0-.805.093-.407-.286.375.086.83-.199.198-.213H24h0zm-9.5.157c.087.381-.297.252-.281.5.36-.11.174.329.219.536-.184.538.525.865.812.507-.094-.167-.734.103-.594-.395.062-.196-.136-.65.124-.648.264.108.64-.165.201-.156-.406.156-.248-.252-.407-.344.005-.03-.075.025-.074 0zm13.5 0c.087.381-.297.252-.281.5.36-.11.174.329.218.536-.18.517.498.883.782.507-.096-.162-.72.095-.563-.395.062-.196-.136-.65.124-.648.264.108.64-.165.201-.156-.406.156-.248-.252-.407-.344.005-.03-.075.025-.074 0zm6 0c.087.381-.297.252-.281.5.36-.11.174.329.218.536-.18.517.498.883.782.507-.096-.162-.72.095-.563-.395.062-.196-.136-.65.124-.648.27.115.59-.174.17-.156-.406.166-.202-.278-.376-.344.005-.03-.075.025-.074 0zm-16.281.312c-.35.227-.179.198-.364.031-.306-.016-.06.52-.136.735v1.109c.359.108.175-.325.218-.532-.095-.336.717.358.837-.255.167-.414.063-1.22-.555-1.088zm1.531 0c-.92-.015-.705 1.682.219 1.343.516-.136.211-.546-.094-.156-.54.123-.661-.698-.046-.468.497.144.724-.21.29-.604a.658.658 0 0 0-.369-.115zm3 0c-.92-.015-.705 1.682.219 1.343.488-.124.199-.545-.094-.156-.54.123-.661-.698-.046-.468.497.144.724-.21.29-.604a.658.658 0 0 0-.369-.115zm4.5 0c-.7-.099-.582.94.094.78.666.484-.428.425-.657.25.107.629 1.443.334 1.007-.288-.274-.138-1.163-.386-.444-.586.238.078.677.349.344-.094a2.505 2.505 0 0 0-.344-.062zm3.25 0c-.367-.028-.481.604-.5.031-.44-.09-.05.556-.156.84-.02.204-.041.643.218.43.024-.376-.12-.929.339-1.093.449.142.571-.25.099-.208zm2.75 0c-.935-.03-.718 1.709.219 1.343.52-.097.23-.735 0-.219-.726.434-.822-1.159-.093-.938.208.403.688.177.178-.114a.556.556 0 0 0-.304-.072zm-17.156.031l.562 1.312c-.017.282-.802.473-.213.508.467-.26.532-.864.757-1.312.026-.187.391-.603 0-.509-.168.34-.295.737-.45 1.092-.132-.36-.3-.725-.438-1.092l-.218.001zm15.125 0c.03.406-.078.84.093 1.219.31.427.812-.345.792.092.343.08.11-.416.177-.611-.048-.213.101-.624-.082-.701-.282-.03-.072.431-.137.619.178.62-.824.743-.625.06-.051-.202.106-.614-.082-.68-.045 0-.093 0-.136.002zm-12.938.125c.72.086.148 1.696-.312.78-.059-.271-.07-.754.312-.78zm1.469 0c.602.164.253.552-.193.406-.362.085-.008-.463.193-.406zm1.437 0c.813.041.162 1.702-.28.781.015-.26-.108-.744.28-.781zm1.563 0c.644.243.2.524-.234.406-.356.088.066-.468.234-.406z" style="text-align:start;line-height:150%;-inkscape-font-specification:Liberation Mono" fill="navy" stroke="navy" stroke-width=".1" stroke-opacity=".484"/><path d="M45.812 58.031c.262.2.461.464.344 1.042.365.702-.639.479-.422.77.285-.061 1.297.162 1.032-.187-.667.2-.299-.635-.391-1.01.018-.577.097-.686-.563-.615zm4.5 0c.262.2.461.464.344 1.042.37.718-.66.476-.453.77.298-.06 1.313.159 1.063-.187-.667.2-.299-.635-.391-1.01.018-.577.097-.686-.563-.615zm14.97 0c.26.212.51.435.374 1.042.37.718-.66.476-.453.77.298-.06 1.313.159 1.063-.187-.667.2-.299-.635-.391-1.01.034-.605.067-.678-.594-.615zm4.5 0c.26.212.51.435.374 1.042.37.718-.66.476-.453.77.285-.061 1.297.162 1.032-.187-.644.161-.255-.71-.36-1.088.079-.587-.043-.574-.594-.537zm-31.595.157v1.656c.433.106.025-1.16.615-.557.108.484.893.827.35.166-.225-.481.597-1.445-.76-1.265h-.205zm3.313 0c-1.347.72 1.6 1.062.219 1.498-.847-.729-.597.405.281.156 1.453-.656-1.665-1.242-.125-1.467.858.68.281-.496-.375-.187zm1.5 0c-.309.533-.186.318-.094.888-.442.754 1.076.965.673.58-.606.253-.52-.773-.376-.968.972-.096-.071-.027-.078-.389.033-.131-.026-.116-.125-.111zm6.281 0c-1.577.102.022 2.798.52 1.193-.779 1.1-1.49-1.293-.301-.911.553.608.263-.427-.219-.282zm8.375 0v1.656c.525.18.003-1.161.615-.557.1.5.93.822.369.174-.625-.416.86-.815-.14-1.242-.278-.054-.564-.022-.844-.031zm3.344 0c-1.4.71 1.569 1.052.219 1.498-.432-.335-.95-.323-.25.154 1.477.142.615-1.06-.094-1.246.188-.644 1.451.483.594-.405.02-.178-.47.156-.469 0zm1.469 0c-.276.571-.195.29-.063.888-.396.71.917 1.016.719.58-.663.241-.487-.579-.5-.968.9-.024.263-.095 0-.311-.005-.174.055-.214-.156-.19zm6.281 0c-1.61.16.131 2.757.52 1.193-.762 1.102-1.483-1.327-.27-.911.566.614.2-.458-.25-.282zm-30.344.187c.988-.276.662.972 0 .516v-.516zm19.5 0c.967-.272.644.972 0 .516v-.516zM40.25 58.5c-1.632.287.493 2.18.407.937-.89 1.052-.987-1.474-.095-.531.61.14-.083-.52-.312-.406zm7.469 0c-1.637.292.572 2.118.375 1-.646.624-.978-.639-.02-.281.64.173.002-.91-.355-.719zm4.5 0c-.866.367-.314.274.187.249.293.46-1.457.344-.555 1.087.551-.198.668.025 1.055-.072-.465-.102.11-1.289-.687-1.266h0zm1.531 0c-1.349.295.406.756.219 1.155-.405.122-1.157-.378-.438.187 1.197.107.542-.86-.093-.999.19-.424 1.465.316.312-.343zm1.469 0c-1.306.328.454.752.25 1.155-.405.122-1.157-.378-.438.187 1.196.114.534-.857-.093-.999.177-.445 1.28.305.468-.312l-.187-.031h0zm4.531 0c-1.448.091-.003 2.322.531.937-.67.759-1.457-.662-.42-.75.547.617.53-.185-.111-.187zm7.469 0c-1.71.346.637 2.085.343 1-.623.628-.991-.639-.019-.282.672.184.045-.875-.324-.718zm4.468 0c-.87.386-.251.261.22.249.26.492-1.45.304-.571 1.087.544-.175.667-.01 1.039-.072-.405-.15.129-1.318-.688-1.266h0zm1.532 0c-1.206.272.182.759.312 1.093-.36.304-1.293-.388-.531.249 1.232.126.531-.86-.063-.999.165-.452 1.238.304.47-.312l-.188-.031h0zm1.5 0c-1.206.272.182.759.312 1.093-.344.31-1.32-.387-.531.249 1.232.126.531-.86-.063-.999.165-.452 1.238.304.47-.312l-.188-.031h0zm-30.657.031c.178.46.426.906.563 1.375-.919.543.102.624.28-.206.05-.347.655-1.06.346-1.17-.318.073-.37 1.158-.564.968-.183-.29-.21-1.013-.625-.967zm19.5 0c.155.458.476.92.532 1.375-.973.74.362.354.396-.424.1-.26.611-1.297.109-.808-.202.363-.352 1.398-.563.493-.155-.211-.112-.74-.474-.636zm-15.843.125c1.425.578-1.36.582 0 0zm19.5 0c1.147.522-1.138.559 0 0zm-14.969.531c.84.22-1.009.843-.156.032l.156-.03v-.001zm19.469 0c.877.027-.8 1.023-.25.062 0-.086.25.024.25-.062zM36.469 60c.195.287.919.045 1.32.125.594-.164-.622-.129-.877-.125h-.443z" style="text-align:start;line-height:150%;-inkscape-font-specification:Liberation Mono" fill="#f0f" stroke="#f0f" stroke-width=".1" stroke-opacity=".516"/><path d="M76.065 58.889v-.365h.287v.365h-.287m-.175 1.399l.206-.808h.323l-.38.808h-.15" style="text-align:start;line-height:150%;-inkscape-font-specification:Liberation Mono"/><path d="M21.062 64.031v.655c-.668-.688-1.251.602-.713 1.077.319.41.767-.366.75.078.326.09.131-.342.182-.529V64.03h-.219zm2.688 0c-.302.165-.235.567-.594.505-.106.32.447-.018.313.33v.978c.32.105.199-.232.218-.428v-.729c.196-.025.49.05.625-.036.067-.283-.333-.1-.498-.151-.376-.141.294-.432.53-.282.107-.362-.414-.11-.594-.187zm-9.25.125c.043.298-.172.324-.281.415.007.2.356.057.219.401.038.287-.127.717.225.846.191.147.863-.134.464-.178-.302.111-.56-.094-.47-.42.052-.172-.13-.579.142-.532.185.061.571-.046.317-.187-.198-.027-.559.11-.46-.214.027-.165-.026-.128-.156-.13zm3.344.313c-.309 0-.413.388-.442.033-.35-.09-.124.399-.183.601v1.242c.32.105.199-.232.218-.427-.117-.503.608.278.782-.26.217-.375.196-1.163-.375-1.19zm1.406 0c-.717-.01-.834 1.257-.132 1.37.348.223.938-.495.444-.277-.31.508-1.056-.43-.438-.345h.72c.03-.351-.198-.773-.594-.748zm3 0c-.717-.01-.834 1.257-.132 1.37.327.226.92-.468.444-.277-.31.508-1.056-.43-.438-.345h.72c.03-.351-.198-.773-.594-.748zm4.5 0c-.744-.015-.827 1.25-.132 1.37.323.228.893-.49.444-.277-.31.508-1.056-.43-.438-.345h.688c.03-.353-.155-.757-.562-.748zm1.594 0c-.267.036-.406.326-.473.03-.319-.056-.085.441-.152.637v.706c.32.105.199-.232.218-.427-.053-.345.052-.962.532-.697.175.293.06.667.093.998-.004.285.359.084.22-.158-.037-.358.126-.84-.25-1.06-.004.038-.19-.094-.188-.03zm2.718 0c-.232.164-.22.17-.352.03-.202.063-.03.5-.085.71.024.199-.048.494.036.634.283.067.1-.334.151-.498-.108-.347.3-1.083.313-.346v.844c.32.105.199-.232.219-.428-.055-.271.057-1.1.312-.573v1c.32.105.2-.232.219-.427-.03-.314.1-.754-.213-.94-.33-.046-.314.416-.508.01l-.092-.015h0zm-15.468.03l.562 1.313c.033.344-.75.377-.312.531.427-.02.522-.536.675-.864.13-.326.258-.653.387-.98-.281-.096-.285.216-.377.398-.134.16-.198.96-.373.478-.104-.295-.23-.583-.344-.875h-.218zm13.625 0c.027.417-.072.858.093 1.25.233.246.733-.02.75-.093.027.434.349.055.22-.232V64.5c-.321-.105-.2.231-.22.427.04.312-.029.879-.468.729-.282-.136-.11-.546-.157-.81-.023-.216.103-.415-.218-.346zm-11.438.157c.549.024.413 1.312-.192.978-.226-.207-.254-.99.192-.978zm1.344 0c.416-.17.67.536.148.374-.376.087-.522-.126-.148-.374zm1.562 0c.638-.033.433 1.342-.177.961-.163-.23-.223-.932.177-.961zm1.438 0c.443-.135.648.548.113.374-.412.088-.467-.128-.113-.374zm4.5 0c.443-.135.648.548.113.374-.412.088-.467-.128-.113-.374z" style="text-align:start;line-height:150%;-inkscape-font-specification:Liberation Mono" fill="navy" stroke="navy" stroke-width=".1" stroke-opacity=".484"/><path d="M34.459 66.348a.4.4 0 0 1-.145-.027.326.326 0 0 1-.188-.194.42.42 0 0 1-.026-.15v-.428a.267.267 0 0 0-.03-.13.237.237 0 0 0-.075-.087.348.348 0 0 0-.109-.049.503.503 0 0 0-.122-.018v-.167c.042 0 .083-.01.122-.018a.326.326 0 0 0 .11-.049.254.254 0 0 0 .104-.215v-.43c0-.057.008-.108.026-.154a.331.331 0 0 1 .188-.19.4.4 0 0 1 .145-.027h.323v.17h-.26c-.036 0-.068 0-.095.014a.17.17 0 0 0-.064.04.175.175 0 0 0-.038.073.495.495 0 0 0-.011.111v.422a.294.294 0 0 1-.026.126.354.354 0 0 1-.065.1.414.414 0 0 1-.192.107c.036.01.07.021.103.04a.328.328 0 0 1 .18.294v.423c0 .086.016.147.049.183.032.037.085.055.16.055h.26v.17h-.324" style="text-align:start;line-height:150%;-inkscape-font-specification:Liberation Mono"/><path d="M17.781 68.25c-.726.01-.79.992-.469 1.468.219.52 1.38.02.93-.29-.175.496-1.033.34-.867-.336-.164-.594.609-.904.813-.36.424-.103-.207-.56-.407-.482zm5.969 0c-.698.016-.746.928-.507 1.408.48.717 1.345-.1 1.123-.76-.013-.335-.25-.67-.616-.648zm3 0c-.902-.042-.586 1.075.176.964.667.413-.562.844-.649.258-.515.089.337.68.625.456.798-.059.432-1.106-.246-.99-.718-.257.35-.851.473-.255.563.045-.155-.552-.379-.433zm4.5 0c-.698.016-.746.928-.507 1.408.478.718 1.351-.101 1.118-.76-.043-.31-.255-.669-.611-.648zm-12.125.031l-.625 1.625c.285.099.31-.165.374-.372.077-.204.414-.048.603-.097.248-.046.147.395.309.469.357.098.107-.22.06-.4l-.471-1.225h-.25zm1.125 0c-.135.347.359.063.375.259v1.179c-.185-.065-.556.05-.304.187h.929c.135-.347-.359-.063-.375-.259V68.47c.185.065.556-.05.304-.188h-.929zm1.437 0v1.625c.318.104.255-.174.25-.392-.104-.265.137-.41.32-.235.15.199.257.478.435.627.386.084.12-.172 0-.351-.196-.251-.353-.416.058-.524.398-.489-.269-.865-.719-.75h-.344zm5.907 0c-.094.31.285.149.463.188.152.073.027.421.068.606v.831c.32.105.199-.232.219-.428v-1.01c.17-.052.563.117.562-.106-.035-.182-.402-.032-.57-.081h-.742zm1.593 0v1.625c.321.105.2-.232.22-.428-.12-.277.198-.346.35-.2.15.2.257.48.435.628.386.084.12-.172 0-.351-.196-.251-.353-.416.058-.524.368-.494-.261-.866-.719-.75h-.344zm3 0v1.625c.321.105.2-.232.22-.428-.033-.196.262-.492.347-.183.172.194.305.465.5.611.39.082.113-.166-.014-.34l-.459-.597.625-.688c-.256-.071-.4.11-.54.294l-.46.519v-.813h-.219zm1.5 0v1.625h1.157c.093-.31-.286-.149-.464-.187-.174-.043-.562.127-.474-.179-.026-.249-.03-.477.285-.384.17-.053.577.13.528-.143-.11-.106-.42-.014-.606-.045-.321.097-.176-.27-.207-.463.125-.089.42-.01.606-.037.233.128.474-.203.158-.187h-.983zm-14.437.156c.067.283.19.562.281.844-.152-.05-.602.11-.527-.101.088-.246.179-.496.246-.743zm4.5 0c.555.072.54 1.38-.087 1.304-.41-.17-.435-1.256.087-1.304zm7.5 0c.555.072.54 1.38-.087 1.304-.445-.183-.456-1.241.087-1.304zm-9.313.031c.366-.116 1.023.23.5.531-.217.035-.617.137-.5-.218v-.313zm7.47 0c.362-.09 1.039.149.53.531-.22.023-.652.152-.53-.218v-.313zM24.5 70.062c-.032.252.37.07.535.125H26c.032-.252-.37-.07-.535-.125H24.5z" style="text-align:start;line-height:150%;-inkscape-font-specification:Liberation Mono" fill="#f0f" stroke="#f0f" stroke-width=".1" stroke-opacity=".516"/><path d="M36.627 68.874v-.18h1.215v.18h-1.215m0 .625v-.18h1.215v.18h-1.215" style="text-align:start;line-height:150%;-inkscape-font-specification:Liberation Mono"/><path d="M39.675 69.92v-.178h.536v-1.246c-.06.108-.184.158-.296.196a.857.857 0 0 1-.25.041v-.18c.198 0 .411-.073.537-.235.014-.04.04-.051.08-.044h.15v1.47h.43v.176h-1.187" style="text-align:start;line-height:150%;-inkscape-font-specification:Liberation Mono" fill="green" stroke="green" stroke-width=".1" stroke-opacity=".484"/><path d="M41.299 70.362l.206-.808h.323l-.38.808h-.15" style="text-align:start;line-height:150%;-inkscape-font-specification:Liberation Mono"/><path d="M17.781 72.438c-.575-.075-.736.676-.614 1.102.037.57.841.82 1.145.303.247-.332-.287-.272-.308.021-.624.297-.76-.681-.535-1.082.23-.37.593-.043.744.107.394-.055-.268-.545-.432-.451zm1.344 0l-.625 1.656c.23.066.31-.076.344-.282 0-.257.24-.179.419-.187.181 0 .399-.055.396.197.03.206.119.332.341.272l-.625-1.656h-.25zm1.125 0c-.087.268.189.173.356.187.044.16.006.402.019.594v.687c-.163.021-.459-.09-.375.178.315.022.67 0 1 .01.087-.268-.189-.173-.356-.187-.044-.16-.006-.402-.019-.594v-.687c.163-.021.459.09.375-.178-.314-.022-.67 0-1-.01zm1.437 0v1.656c.253.07.285-.08.25-.297.036-.144-.105-.465.149-.39.21-.05.239.23.356.35.115.124.147.397.363.337.275.049-.066-.226-.105-.341-.128-.213-.427-.43-.006-.499.46-.378-.085-.957-.562-.816h-.445zm2.063 0c-.59-.074-.692.673-.61 1.102.004.473.6.769.963.457.33-.37.382-1.023.073-1.42-.11-.112-.275-.14-.426-.14zm2.469 0v1.656c.252.07.284-.08.25-.297.019-.16-.088-.446.178-.36h.634c.087-.268-.189-.173-.356-.187-.136-.046-.463.1-.456-.089v-.536h.843c.088-.268-.188-.173-.356-.187h-.737zm1.531 0c-.087.268.189.173.356.187.044.16.006.402.019.594v.687c-.163.021-.459-.09-.375.178.315.022.67 0 1 .01.087-.268-.189-.173-.356-.187-.114-.071-.019-.351-.05-.505v-.776c.148-.036.476.106.406-.149-.09-.092-.35-.012-.505-.039h-.495zm1.531 0v1.656h1.063c.087-.269-.19-.174-.357-.188-.144-.037-.44.076-.487-.059v-1.41h-.219zm1.5 0v1.656h1.063c.087-.269-.19-.174-.357-.188-.144-.037-.44.076-.487-.059v-1.41h-.219zm-8.844.187c.27 0 .725-.052.693.345-.049.318-.454.237-.693.248v-.593zm1.813 0c.521.102.46.945.168 1.262-.6.207-.641-.742-.45-1.106a.304.304 0 0 1 .282-.156zm-4.531.031c.12.173.172.455.27.671.118.212-.275.07-.403.111-.238.035.033-.283.04-.417.037-.12.109-.237.093-.365zM24.5 74.25c-.055.235.28.08.416.125H26c.055-.235-.28-.081-.416-.125H24.5z" style="text-align:start;line-height:150%;-inkscape-font-specification:Liberation Mono" fill="#f0f" stroke="#f0f" stroke-width=".1" stroke-opacity=".516"/><path d="M36.627 73.05v-.18h1.215v.18h-1.215m0 .625v-.18h1.215v.18h-1.215" style="text-align:start;line-height:150%;-inkscape-font-specification:Liberation Mono"/><path d="M39.66 74.095v-.143c.093-.208.271-.358.44-.504.153-.13.33-.25.425-.432.061-.128.028-.311-.11-.375a.428.428 0 0 0-.374.01.318.318 0 0 0-.139.243c-.075-.01-.15-.014-.225-.021a.484.484 0 0 1 .288-.401.791.791 0 0 1 .506-.017c.147.04.275.16.3.314a.492.492 0 0 1-.095.4c-.19.265-.503.407-.703.663-.023.034-.079.101-.004.084h.838v.179h-1.148" style="text-align:start;line-height:150%;-inkscape-font-specification:Liberation Mono" fill="green" stroke="green" stroke-width=".1" stroke-opacity=".484"/><path d="M14.204 78.364v-.17h.26c.074 0 .127-.018.16-.055.033-.036.05-.097.05-.183v-.424a.315.315 0 0 1 .088-.226.338.338 0 0 1 .09-.068.374.374 0 0 1 .103-.04.384.384 0 0 1-.19-.107.31.31 0 0 1-.09-.225l-.001-.422a.428.428 0 0 0-.012-.11.168.168 0 0 0-.038-.074.14.14 0 0 0-.066-.04.265.265 0 0 0-.094-.013h-.26v-.17h.323c.053 0 .102.01.146.027a.322.322 0 0 1 .186.19.42.42 0 0 1 .027.153v.43c0 .05.01.093.028.128.02.035.045.064.077.087a.349.349 0 0 0 .108.05c.04.01.081.016.123.017v.167c-.042 0-.083.01-.123.018a.349.349 0 0 0-.108.05.247.247 0 0 0-.077.086.272.272 0 0 0-.028.13v.428a.404.404 0 0 1-.027.15.326.326 0 0 1-.186.194.38.38 0 0 1-.146.027h-.323" style="text-align:start;line-height:150%;-inkscape-font-specification:Liberation Mono"/><path d="M23.656 76.031c-.16.419.48.242.203 0h-.203zm13.5 0c-.16.419.48.242.203 0h-.203zm-19.969.157v1.656c.56.08 1.273-.136 1.188-.843.049-.702-.641-.865-1.188-.813zm11.063 0c-1-.052-.78 2.081.25 1.624.526-.318.572-1.667-.25-1.624zm7.25 0c.147.364-.496.352-.187.5.269.026.057.53.124.758-.235.785 1.344.198.532.242-.484.06-.264-.514-.313-.803-.153-.432.58.021.5-.339-.258-.024-.639.075-.5-.345-.009-.033-.123 0-.156-.013zm-18.063.187c.822-.207.97 1.27.188 1.281-.36.06-.117-.482-.188-.71v-.571zm10.813 0c.896.128.067 2.103-.352.915-.033-.307-.094-.885.352-.915zm-8.719.125c-.396-.06-.477.603-.531.031-.426-.072-.044.637-.156.942-.155.382.322.54.218.086-.118-.5.254-.997.72-.888.048-.204-.102-.17-.25-.171zm1.188 0c-.601-.062-.52.688-.094.187.59-.027.371.541-.125.373-.852.175.093 1.345.5.532.173.476.626.167.219-.094-.015-.397.123-1.034-.5-.998zm4.625 0c-.439.185-.288.195-.58.033-.105.224-.015.644-.045.944-.155.382.323.537.218.084-.113-.391.173-1.258.594-.716.063.328.018.667.031 1 .392.098.155-.434.22-.663.03-.311-.042-.697-.438-.682zm1.312 0c-.924.037-.459 1.933.344 1.156.287-.098-.239 1.04-.531.344-.66.316 1.126.654.812-.236v-1.233c-.385-.038-.092.356-.49-.018l-.135-.015h0zm3.063 0c-.36.245-.167.177-.376.031-.285.04-.049.6-.124.85v.994c.389.098.157-.425.218-.656.579.611 1.315-.666.625-1.187-.108-.053-.23-.022-.343-.032zm1.531 0c-1.055 0-.573 1.874.375 1.281.422-.677-.748.417-.74-.45.057-.242.586-.052.843-.112.318-.08-.159-.848-.478-.719zm1.75 0c-.425.063-.417.491-.547.031-.353 0 0 .684-.11.99-.132.426.36.41.22-.01-.15-.534.352-.885.687-.889.048-.176-.152-.11-.25-.123zm1.219 0c-.632-.075-.538.708-.125.187.671-.01.33.535-.193.397-.715.324.256 1.245.599.508.025.464.716.158.212 0-.011-.41.156-1.124-.493-1.088zm4.531 0c-1.022-.048-.609 1.882.321 1.26.42-.292.338-1.349-.321-1.26zm1.594 0c-.4.106-.368.319-.533.033-.235.027-.022.596-.092.85-.136.285.191.731.219.273.013-.348-.118-1.084.437-.967.29.247.102.717.156 1.07.235.327.253-.261.219-.483 0-.333.084-.782-.406-.776zm-18.813.031l.219 1.313c.366.118.317-.34.437-.563.066-.534.198.354.313.563.393.122.261-.374.351-.608-.04-.208.283-.724-.024-.705-.187.124-.147.561-.202.813-.066.695-.098-.342-.297-.468-.373-.081-.25.477-.422.687-.034.023-.103-.68-.148-.97.023-.124-.162-.036-.227-.062zm1.75 0c-.063.346.61-.046.406.44-.07.22.175.758-.189.685-.426-.13-.438.305-.01.188h.887c.119-.417-.647.052-.469-.425v-.888h-.625zm13.5 0c-.063.346.61-.046.406.44-.07.22.175.758-.189.685-.426-.13-.438.305-.01.188h.856c.122-.41-.62.046-.438-.425v-.888h-.625zm-10.062.125c.852.161-.077 1.703-.317.653 0-.242-.049-.664.317-.653zm3.062 0c.815.143-.052 1.771-.333.683-.027-.252-.01-.672.333-.683zm1.469 0c.703.296.11.509-.32.406-.188-.016.177-.508.32-.406zm7.5 0c.883.179-.086 1.77-.366.67-.03-.26.006-.687.366-.67zm-18 .531c.794-.074-.53 1.056-.344.157.063-.144.23-.105.344-.157zm13.5 0c.791-.083-.548 1.04-.344.157.063-.144.23-.105.344-.157z" style="text-align:start;line-height:150%;-inkscape-font-specification:Liberation Mono" fill="#f0f" stroke="#f0f" stroke-width=".1" stroke-opacity=".516"/><path d="M41.588 76.889v-.365h.287v.365h-.287m-.176 1.399l.206-.808h.324l-.38.808h-.15" style="text-align:start;line-height:150%;-inkscape-font-specification:Liberation Mono"/><path d="M48.844 19.75a.373.373 0 0 0-.125.031v1.813c.546.04-.163-1.541.75-1.094.155.234-.082 1.478.281.938.244-.778-.423-1.434-.844-1.063-.007-.167.157-.613-.062-.625zm-33.688.031l-1.031 1.844c.38.1.411-.399.594-.625l.625-1.219h-.188zm1.469 0l-1 1.844c.38.1.411-.399.594-.625l.625-1.219h-.219zm6.594 0v1.813c.406.097.146-.483.218-.719.127-.938.84-.192.625.375-.135.451.369.44.22 0 .02-.398.06-1.144-.563-.969-.591.595-.018-.518-.438-.5h-.062zm9.437 0c-.114.578.616-.025.063 0h-.063zm1.063 0v1.813c.406.097.146-.483.218-.719.076-.863.81-.285.594.281-.173.366.3.683.25.188-.026-.39.15-1.076-.437-1.094-.5.305-.404.132-.407-.344.055-.192-.105-.099-.218-.125zm8.125 0c-.87.451-.21 2.585.125 2.188-.797-.6.111-2.012-.125-2.188zm8.812 0c-.1.692.6-.112 0 0zm6.094 0c-.095.689.683-.1 0 0zm7.531 0c-1.21.09-.942 2.794.344 2 .307-.338-1.205.433-.938-.625-.391-.958 1.13-1.846 1.094-.468-.079 1.046-.455.454-.187-.157.062-.449-.12.038-.469-.25-.657.438-.168 1.449.25 1.094.787.472.683-1.776-.094-1.594zm5.844 0c-.095.689.683-.1 0 0zm1.156 0c.253.215.514.425.375 1.032.359.714-.656.494-.469.78.29-.059 1.317.159 1.063-.187-.639.162-.274-.687-.375-1.062.055-.625.024-.593-.594-.563zm7.594 0c.9.593.059 2.09.219 2.344.563-.566.68-2.136-.219-2.344zm-59.75.157l-.625 1.656c.444.178.188-.594.594-.469.368-.076.626.044.656.438.436.212.1-.365.031-.594l-.406-1.032h-.25zm2.875 0c.145.352-.567.403-.125.5.158.145.017.585.063.843-.03.75 1.454.01.437.157-.406-.081-.144-.632-.219-.938.054-.102.822-.013.438-.219-.498.19-.341-.288-.594-.343zm8.594 0c-.13.436.68-.082.531.375v1.28c.406.098.146-.482.219-.718.08-.224-.17-.772.156-.75.393.146.589-.27.094-.188h-1zm15.406 0c-.305.531-.19.31-.094.875-.362.665.822 1.079.75.593-.673.314-.623-.732-.468-.968.965-.094-.044-.022-.063-.375.028-.13-.016-.135-.125-.125zm1.5 0c-.305.531-.19.31-.094.875-.362.665.822 1.079.75.593-.673.314-.623-.732-.468-.968.965-.094-.044-.022-.063-.375.028-.13-.016-.135-.125-.125zm-28.281.218c.01.177.554.854.125.782-.488.13-.314-.206-.188-.5.02-.094.088-.18.063-.282zm33.156.063a.246.246 0 0 0-.156.031c-1.664.3.57 2.118.375 1-.642.635-.986-.636-.032-.281.564.154.173-.674-.187-.75zm8.969 0a.172.172 0 0 0-.125.031c-1.703.342.643 2.086.343 1-.78.575-.81-.662.157-.281.35.013-.067-.717-.375-.75zm-36.094.031c-1.04-.035-.598 1.89.344 1.25.408-.33.322-1.324-.344-1.25zm1.781 0c-.447.032-.458.505-.593.031-.353.004.02.721-.094 1.032-.089.486.382.262.218-.125-.162-.562.455-.762.72-.813.05-.158-.166-.116-.25-.125zm8.719 0c-1.063-.032-.573 1.887.375 1.281.433-.667-.762.428-.75-.437.074-.245.632-.064.906-.125.121-.3-.146-.748-.531-.719zm2.813 0c-.402.291-.114.087-.47.031.066.425.016.876.032 1.313.368.055.111-.514.188-.75.17-.939.404.064.312.468-.089.487.383.263.219-.125-.14-.442.3-1.197.312-.343.076.234-.18.807.188.75-.04-.422.085-.894-.094-1.282-.524-.272-.252.404-.688-.062zm4.5 0c-.349.304-.526-.228-.438.625-.147.518.242 1.082.188.25-.081-1.015.493-.62.312.156.092.822.33-.276.219-.625.377-.677.324.632.312.938.351-.058.263-1.196-.062-1.344-.439.094-.125.336-.532 0zm1.656 0c-.794.222-.386.477.093.188.65.52-1.45.378-.468 1.156.589-.208.652-.031 1.062-.063-.524-.1.169-1.298-.687-1.281zm13.468 0c-.872.389-.25.26.22.25.267.475-1.456.35-.563 1.094.597-.045.523-.207 1.031 0-.296-.232-.001-1.035-.469-1.313l-.218-.031zm1.344 0c-.377.12-.507-.03-.437.688-.168.645.335.9.218.125-.036-1.1.491-.332.313.312.208.72.177-.6.25-.844.497-.328.058.934.313 1.063.242-.142.306-1.345-.22-1.344-.389.495.005.037-.437 0zm3.188 0c-1.203.26.186.764.312 1.094-.364.291-1.269-.363-.5.25 1.188.116.518-.854-.093-1 .234-.37 1.39.236.28-.344zm2.906 0c-1.267.529.17 1.586.406 1.281.094.854-1.338-.2-.5.563.952.194.682-.955.719-1.532-.056-.773-.287.329-.625-.312zm1.406 0c-.377.12-.507-.03-.437.688-.168.645.335.9.219.125-.04-1.1.484-.33.312.312.208.72.177-.6.25-.844.497-.328.058.934.313 1.063.242-.142.306-1.345-.22-1.344-.361.386-.005.152-.437 0zm1.656 0c-.872.389-.25.26.22.25.262.494-1.443.31-.563 1.094.584-.058.53-.197 1.031 0-.296-.232-.001-1.035-.469-1.313l-.219-.031zm6.032 0c-1.386.138-.009 2.315.562.938-.566.652-1.461-.356-.562-.782.329.327.856.301.219-.125l-.22-.031zm1.5 0c-1.456.14.073 2.332.562.844.091-.375-.082-.91-.562-.844zm1.312 0c-.4.112-.507-.017-.437.688-.147.63.294.9.187.125.023-1.099.472-.326.313.312.21.725.253-.565.25-.844.55-.351.082.926.344 1.063.242-.142.306-1.345-.22-1.344-.395.362.023.17-.437 0zm-57.312.031c.044.422-.11.922.156 1.282.461.254.637-.337.781.03.27-.048.05-.599.125-.843.146-.297-.202-.763-.218-.281.094.41-.124 1.357-.594.812-.102-.307.042-.771-.094-1h-.156zm7.875 0c-.177.42.43.478.281.032.007-.091-.217-.007-.281-.032zm4.187 0c-.059.348.627-.04.407.469-.061.245.183.783-.25.656-.524-.053-.167.328.187.188.225-.08.77.168.75-.157-.27-.033-.616.014-.469-.437-.076-.231.202-.8-.187-.719h-.438zm4.438 0c.021.387-.055.788.031 1.157.376.478.794-.238.906.156.27-.05.05-.6.125-.844.157-.32-.223-.76-.25-.281.025.385.058 1.224-.531.906-.125-.333-.035-.731-.063-1.094h-.218zm13.562 0c.288.17.497.421.375 1-.34.148-.804.342.032.313.545.15.957-.27.187-.188-.114-.363.272-1.233-.313-1.125h-.28zm2.907 0c-.065.54-.035 1.755.78 1.188.213.298.368-.122.282-.625.145-.742-.373-.626-.219.062-.094 1.113-.9.2-.625-.468.055-.241-.054-.135-.218-.157zm3.093 0c.22.229.729.168.5.844.343.766-.718.702-.593.969.898.247.85-.777.812-1.375.134-.66-.268-.374-.719-.438zm13.469 0c.266.177.565.306.406.907-.072.297-1.008.352-.062.406.508.142 1.137-.236.281-.188-.134-.32.263-1.152-.219-1.125h-.406zm-5.5.094c.59.416-.528 1.565-.25.344.018-.156.09-.298.25-.344zm-39.125.031c.036-.014.08-.006.125 0 1.126.554-.675 1.712-.344.282.047-.102.111-.238.219-.282zm10.625 0c.726.324.055.5-.375.407-.03-.23.167-.39.375-.407zm16.469 0c1.2.42-1.011.676-.094.032l.094-.032zm9 0c1.146.526-1.135.557 0 0zm4.343 0a.253.253 0 0 1 .126 0c1.076.502-.6 1.718-.313.282.019-.109.082-.24.188-.282zm10.657 0c.985.279-.284 1.818-.375.532-.012-.233.08-.553.375-.532zm-31.469.532c.83.114-.843.95-.25.062l.125-.031.125-.032zm13.5 0c.805.114-.82.95-.281.062l.125-.031.156-.032zm10.469 0c.876.027-.8 1.021-.25.062l.125-.031.125-.032zm-40.625.28c-.195.383.382.573.281.126.068-.21-.17-.094-.281-.125zm27 0c-.117.996.765-.111 0 0zm17.968 0c-.116.996.766-.111 0 0zM15.156 23.531l-1.031 1.844c.433.096.431-.527.657-.774l.562-1.07h-.188zm1.469 0l-1 1.844c.433.096.431-.527.657-.774l.562-1.07h-.219zm4.031 0c-.1.629.629-.1 0 0h0zm9.375 0c.07.68.005.614-.614.512-.765.572.157 1.764.645 1.145.225.505.218-.306.188-.563-.044-.341.086-.857-.062-1.094h-.157zm6 0c.07.68.005.614-.614.512-.858.795.351 1.503.645 1.27.378.188.106-.552.188-.813-.095-.29.208-.979-.187-.969h-.032zm-17.25.157v1.656c.329-.047.84.09 1.063-.063.01-.363-.822.114-.813-.25v-1.343h-.25zm23 0c-1.168-.05-.68 2.331.438 1.562.152-.235.248-.991-.281-.781-.605.172.392.127.156.53-.66.85-1.196-1.509-.094-1.061.455.62.373-.365-.219-.25zm.907 0v1.656c.518.153-.093-.822.468-.625 1.038.13.684-1.37-.218-1.032h-.25zm1.593 0v1.656c.308-.078.93.16 1.032-.125-.111-.243-.897.188-.813-.25v-1.282h-.219zm-1.375.187c.829-.217.874.881 0 .656v-.656zM22.281 24c-1.496.133.088 2.337.469.938-.799.966-1.256-1.209-.22-.622.557.418.146-.432-.249-.316zm1.469 0c-1.426.152.024 2.2.472 1.043-.225.317-1.221-.03-.66-.324.572.143 1.173-.125.47-.657l-.129-.044L23.75 24zm1.594 0c-.444.29-.317.06-.625.063v1.28c.498.04.014-.784.312-1.062.67-.417.525.638.532 1.031.4.174.15-.58.218-.843.041-.247-.191-.492-.437-.469zm1.406 0c-1.365.123-.055 2.348.563.938-.495.452-1.34.035-.75-.72.259-.222 1.02.597.562-.093l-.156-.094L26.75 24zm1.5 0c-1.296.058-.219 2.207.531 1.063-.27.1-1.157.198-.781-.344.474.046 1.24.074.604-.604-.11-.057-.225-.12-.354-.115zm6.094 0c-.44.29-.33.06-.625.063v1.28c.498.04.014-.784.312-1.062.663-.41.529.639.532 1.031.4.174.15-.58.218-.843.041-.246-.191-.492-.437-.469zm2.906 0c-1.306.037-.218 2.214.531 1.063-.27.1-1.157.198-.781-.344.474.046 1.24.074.604-.604-.11-.057-.225-.12-.354-.115zM39 24c-.442.092-.4.46-.562.031-.305.084.013.852-.094 1.219.397.382.074-.71.343-.906.16-.174 1.063-.184.313-.344zm-18.719.031c.14.235.607.143.407.719.27.646-.566.185-.532.594h1.219c.021-.386-.736.007-.469-.625.008-.383.12-.87-.437-.688h-.188zm11.938 0c.07.453-.228 1.248.406 1.344.499-.282.314-.053.656-.063v-1.28c-.498-.04-.014.784-.312 1.062-.708.414-.508-.618-.532-1.031.01-.077-.168-.009-.218-.032zm-8.469.125c1.122.351-.824.721-.219.094l.094-.063.125-.03zm4.5 0c1.1.334-.766.738-.25.094l.125-.063.125-.03zm1.438 0c1.136.492-.589 1.75-.282.282.025-.134.125-.291.282-.282zm6 0c1.123.51-.593 1.735-.282.282.025-.134.125-.291.282-.282zm1.562 0c1.168.447-1.06.657-.125.032l.125-.032z" style="text-align:start;line-height:150%;-inkscape-font-specification:Liberation Mono" fill="#666" stroke="#666" stroke-width=".1" stroke-opacity=".511"/></g></svg>