<svg xmlns="http://www.w3.org/2000/svg" xmlns:xlink="http://www.w3.org/1999/xlink" version="1.0" width="96" height="96"><defs><linearGradient x1="45.448" y1="92.54" x2="45.448" y2="7.017" id="g" gradientUnits="userSpaceOnUse" gradientTransform="scale(1.00587 .99417)"><stop offset="0"/><stop offset="1" stop-opacity=".588"/></linearGradient><linearGradient id="a"><stop offset="0" stop-color="#e6e6e6"/><stop offset="1" stop-color="#f5f5f5"/></linearGradient><linearGradient x1="48" y1="90" x2="48" y2="5.988" id="n" xlink:href="#a" gradientUnits="userSpaceOnUse"/><filter color-interpolation-filters="sRGB" id="h"><feGaussianBlur stdDeviation="1.71"/></filter><linearGradient x1="45.448" y1="92.54" x2="45.448" y2="7.017" id="b" gradientUnits="userSpaceOnUse" gradientTransform="matrix(1.00587 0 0 .99417 100 0)"><stop offset="0"/><stop offset="1" stop-opacity=".588"/></linearGradient><linearGradient x1="32.251" y1="6.132" x2="32.251" y2="90.239" id="j" xlink:href="#b" gradientUnits="userSpaceOnUse" gradientTransform="matrix(1.0238 0 0 1.0119 -1.143 -98.071)"/><linearGradient x1="32.251" y1="6.132" x2="32.251" y2="90.239" id="k" xlink:href="#b" gradientUnits="userSpaceOnUse" gradientTransform="matrix(1.0238 0 0 1.0119 -1.143 -98.071)"/><linearGradient x1="32.251" y1="6.132" x2="32.251" y2="90.239" id="l" xlink:href="#b" gradientUnits="userSpaceOnUse" gradientTransform="matrix(1.0238 0 0 1.0119 -1.143 -98.071)"/><linearGradient x1="32.251" y1="6.132" x2="32.251" y2="90.239" id="m" xlink:href="#b" gradientUnits="userSpaceOnUse" gradientTransform="translate(0 -97)"/><linearGradient x1="32.251" y1="6.132" x2="32.251" y2="90.239" id="i" xlink:href="#b" gradientUnits="userSpaceOnUse" gradientTransform="matrix(1.0238 0 0 1.0119 -1.143 -98.071)"/><linearGradient id="d"><stop offset="0" stop-color="#fff"/><stop offset="1" stop-color="#fff" stop-opacity="0"/></linearGradient><radialGradient cx="48" cy="90.172" r="42" fx="48" fy="90.172" id="p" xlink:href="#c" gradientUnits="userSpaceOnUse" gradientTransform="matrix(1.15731 0 0 .9959 -7.551 .197)"/><linearGradient id="c"><stop offset="0" stop-color="#fff"/><stop offset="1" stop-color="#fff" stop-opacity="0"/></linearGradient><linearGradient x1="36.357" y1="6" x2="36.357" y2="63.893" id="o" xlink:href="#d" gradientUnits="userSpaceOnUse"/><linearGradient id="f"><stop offset="0" stop-color="#bababa"/><stop offset="1" stop-color="#d2d2d2"/></linearGradient><linearGradient id="e"><stop offset="0" stop-color="#fff"/><stop offset="1" stop-color="#fff" stop-opacity="0"/></linearGradient><clipPath id="t"><rect width="84" height="84" rx="6" ry="6" x="6" y="6" fill="#fff"/></clipPath><filter x="-.192" y="-.192" width="1.384" height="1.384" color-interpolation-filters="sRGB" id="v"><feGaussianBlur stdDeviation="5.28"/></filter><linearGradient x1="48" y1="20.221" x2="48" y2="138.661" id="u" xlink:href="#e" gradientUnits="userSpaceOnUse"/><linearGradient x1="48" y1="72" x2="48" y2="24" id="q" xlink:href="#f" gradientUnits="userSpaceOnUse"/><clipPath id="r"><path d="M12 6c-3.324 0-6 2.676-6 6v72c0 3.324 2.676 6 6 6h72c3.324 0 6-2.676 6-6V12c0-3.324-2.676-6-6-6H12zm36 18c7.116 0 12.813 5.359 12.813 12a85.288 85.288 0 0 1-.126 2.719c1.055.663 1.107 2.875.126 5.187-.35.823-.745 1.489-1.22 2.063-.148.694-.215 1.225-.406 2.031-.53 1.593-2.637 4.779-4.218 7.219a26.76 26.76 0 0 0 .125 4.906c4.939 4.295 17.854 6.574 17.875 10.25l.25 1.625H22.78l.25-1.625c-.019-4.295 12.875-6.102 17.875-10.25.347-2.021.17-3.817 0-5.594-1.735-2.313-3.617-5.101-4.093-6.531-.171-.782-.144-1.097-.282-1.781a7.815 7.815 0 0 1-1.5-2.313c-1.033-2.433-.935-4.796.282-5.312A51.054 51.054 0 0 1 35.187 36c0-6.641 5.697-12 12.813-12z" fill="#f0f"/></clipPath><filter x="-.14" y="-.148" width="1.281" height="1.295" color-interpolation-filters="sRGB" id="s"><feGaussianBlur stdDeviation="2.954"/></filter></defs><g transform="scale(1 -1)"><path d="M12-95.031c-5.511 0-10.031 4.52-10.031 10.031v71C1.969-8.489 6.489-3.969 12-3.969h72c5.511 0 10.031-4.52 10.031-10.031v-71c0-5.511-4.52-10.031-10.031-10.031H12z" opacity=".08" fill="url(#i)"/><path d="M12-94.031c-4.972 0-9.031 4.06-9.031 9.031v71c0 4.972 4.06 9.031 9.031 9.031h72c4.972 0 9.031-4.06 9.031-9.031v-71c0-4.972-4.06-9.031-9.031-9.031H12z" opacity=".1" fill="url(#j)"/><path d="M12-93c-4.41 0-8 3.59-8 8v71c0 4.41 3.59 8 8 8h72c4.41 0 8-3.59 8-8v-71c0-4.41-3.59-8-8-8H12z" opacity=".2" fill="url(#k)"/><rect width="86" height="85" rx="7" ry="7" x="5" y="-92" opacity=".3" fill="url(#l)"/><rect width="84" height="84" rx="6" ry="6" x="6" y="-91" opacity=".45" fill="url(#m)"/></g><rect width="84" height="84" rx="6" ry="6" x="6" y="6" fill="url(#n)"/><path d="M12 6c-3.324 0-6 2.676-6 6v72c0 .335.041.65.094.969.048.295.097.597.187.875l.032.094c.098.287.234.547.375.812.144.274.315.536.5.781a6.105 6.105 0 0 0 2.094 1.781c.278.14.573.247.874.344a4.843 4.843 0 0 1-.719-.375c-.007-.004-.023.005-.03 0-.033-.02-.063-.042-.095-.062-.12-.077-.23-.164-.343-.25-.106-.081-.214-.161-.313-.25a5.042 5.042 0 0 1-.5-.531 5.092 5.092 0 0 1-.312-.407c-.025-.038-.039-.086-.063-.125-.065-.103-.13-.204-.187-.312a5.371 5.371 0 0 1-.282-.625c-.008-.022-.023-.04-.03-.063-.033-.092-.037-.187-.063-.281-.03-.107-.07-.203-.094-.313A5.098 5.098 0 0 1 7 85V13c0-2.782 2.218-5 5-5h72c2.782 0 5 2.218 5 5v72c0 .364-.052.721-.125 1.063a4.896 4.896 0 0 1-.156.593c-.008.022-.024.04-.031.063a5.482 5.482 0 0 1-.22.531c-.04.083-.078.17-.124.25-.055.097-.127.188-.188.281a5.092 5.092 0 0 1-.312.406 5.05 5.05 0 0 1-.469.5l-.031.032a4.818 4.818 0 0 1-.438.344c-.102.073-.204.153-.312.218-.008.005-.024-.004-.031 0a4.843 4.843 0 0 1-.72.375c.302-.097.597-.204.876-.344a6.105 6.105 0 0 0 2.094-1.78c.184-.246.355-.508.5-.782a5.69 5.69 0 0 0 .374-.813l.032-.093c.09-.278.139-.58.187-.875.053-.318.094-.634.094-.969V12c0-3.324-2.676-6-6-6H12z" opacity=".5" fill="url(#o)"/><path d="M12 90c-3.324 0-6-2.676-6-6V12c0-.335.041-.65.094-.969.048-.295.097-.597.187-.875l.032-.094a5.69 5.69 0 0 1 .375-.812c.144-.274.315-.536.5-.781a6.105 6.105 0 0 1 2.094-1.781c.278-.14.573-.247.874-.344-.256.1-.486.236-.719.375-.007.004-.023-.005-.03 0-.033.019-.063.042-.095.062-.12.077-.23.164-.343.25-.106.081-.214.161-.313.25a5.042 5.042 0 0 0-.5.532c-.107.13-.218.265-.312.406-.025.038-.039.086-.063.125-.065.103-.13.204-.187.312a5.371 5.371 0 0 0-.282.625c-.007.022-.023.04-.03.063-.033.092-.037.187-.063.281-.03.107-.07.203-.094.313A5.098 5.098 0 0 0 7 11v72c0 2.782 2.218 5 5 5h72c2.782 0 5-2.218 5-5V11c0-.364-.052-.721-.125-1.063a4.896 4.896 0 0 0-.156-.593c-.008-.022-.024-.04-.031-.063a5.482 5.482 0 0 0-.22-.531c-.04-.083-.078-.17-.124-.25-.055-.097-.127-.188-.188-.281a5.092 5.092 0 0 0-.312-.406 5.05 5.05 0 0 0-.469-.5l-.031-.032a4.818 4.818 0 0 0-.438-.343c-.102-.074-.204-.154-.312-.22-.008-.004-.024.005-.031 0a4.843 4.843 0 0 0-.72-.374c.302.097.597.204.876.343a6.105 6.105 0 0 1 2.094 1.782c.184.245.355.507.5.781.14.265.276.525.374.813l.032.093c.09.278.139.58.187.875.053.318.094.634.094.969v72c0 3.324-2.676 6-6 6H12z" opacity=".4" fill="url(#p)"/><rect width="84" height="84" rx="6" ry="6" x="-94" y="6" fill="#f0f"/><path style="marker:none" color="#000" fill="#fff" stroke="#000" stroke-width=".5" stroke-linecap="round" stroke-dashoffset="8.6" overflow="visible" enable-background="accumulate" d="M112 8h16v16h-16z"/><text x="131.393" y="11.969" style="text-align:start;line-height:125%;-inkscape-font-specification:Liberation Sans" font-size="4" font-weight="400" font-family="Liberation Sans"><tspan x="131.393" y="11.969">Width: 2px</tspan><tspan x="131.393" y="16.969">Blur: 12</tspan><tspan x="131.393" y="21.969">Opacity: 60</tspan></text><path d="M48 24c-7.116 0-12.818 5.359-12.818 12 .016.707.069 1.73.136 2.59-1.217.517-1.305 2.885-.273 5.32.41.964.932 1.705 1.5 2.317.139.684.102.991.273 1.773.477 1.43 2.356 4.232 4.091 6.545.17 1.777.347 3.57 0 5.591-5 4.149-17.883 5.933-17.864 10.228L22.773 72h50.454l-.272-1.636c-.021-3.676-12.925-5.933-17.864-10.228a26.8 26.8 0 0 1-.136-4.909c1.58-2.44 3.696-5.634 4.227-7.227.19-.806.26-1.351.409-2.045a8.104 8.104 0 0 0 1.227-2.046c.981-2.312.918-4.519-.136-5.182.062-.931.109-1.922.136-2.727 0-6.641-5.702-12-12.818-12z" fill="url(#q)"/><path d="M35.219 36.5c-.008.169-.032.33-.032.5.01.443.06 1.051.094 1.625.013-.006.018-.026.032-.031-.055-.696-.07-1.44-.094-2.094zm25.562.031c-.028.699-.043 1.438-.093 2.188.012.008.019.023.03.031.033-.607.077-1.232.094-1.75 0-.16-.024-.31-.03-.469zm-26.406 4.875c-.074.982.116 2.227.656 3.5.41.965.931 1.7 1.5 2.313.138.684.11 1 .282 1.781.476 1.43 2.358 4.218 4.093 6.531.085.889.166 1.796.188 2.719.043-1.285-.072-2.515-.188-3.719-1.735-2.313-3.617-5.101-4.093-6.531-.171-.782-.144-1.097-.282-1.781a7.815 7.815 0 0 1-1.5-2.313 8.903 8.903 0 0 1-.656-2.5zm27.094.032a8.584 8.584 0 0 1-.657 2.468c-.349.823-.744 1.489-1.218 2.063-.15.694-.216 1.225-.407 2.031-.53 1.593-2.637 4.779-4.218 7.219a27.946 27.946 0 0 0-.063 2.218c.008-.407.037-.813.063-1.218 1.581-2.44 3.688-5.626 4.218-7.219.191-.806.258-1.337.407-2.031.474-.574.87-1.24 1.218-2.063.54-1.272.74-2.5.657-3.468zM22.937 72l-.156 1H73.22l-.156-1H22.937z" fill="#fff"/><path d="M48 24c-7.116 0-12.813 5.359-12.813 12 .004.136.026.344.032.5C35.5 30.096 41.067 25 48 25c6.944 0 12.516 5.112 12.781 11.531.007-.17.026-.374.032-.531 0-6.641-5.697-12-12.813-12zM35.281 38.625c-.754.352-1.053 1.414-.906 2.781.068-.895.357-1.566.938-1.812-.026-.322-.012-.627-.032-.969zm25.438.125c-.018.336-.01.637-.032.969.468.294.709.91.782 1.687.118-1.23-.124-2.23-.75-2.656zm-5.813 18.938a26.317 26.317 0 0 0 .188 3.437c4.939 4.295 17.854 6.574 17.875 10.25l.094.625h.156l-.25-1.625c-.02-3.676-12.936-5.955-17.875-10.25a25.66 25.66 0 0 1-.188-2.438zm-13.812.968c-.03.48-.101.964-.188 1.469-5 4.148-17.894 5.955-17.875 10.25L22.781 72h.157l.093-.625c-.019-4.295 12.875-6.102 17.875-10.25.149-.865.19-1.671.188-2.469z" opacity=".2"/><path d="M48 24c-7.116 0-12.818 5.359-12.818 12 .016.707.069 1.73.136 2.59-1.217.517-1.305 2.885-.273 5.32.41.964.932 1.705 1.5 2.317.139.684.102.991.273 1.773.477 1.43 2.356 4.232 4.091 6.545.17 1.777.347 3.57 0 5.591-5 4.149-17.883 5.933-17.864 10.228L22.773 72h50.454l-.272-1.636c-.021-3.676-12.925-5.933-17.864-10.228a26.8 26.8 0 0 1-.136-4.909c1.58-2.44 3.696-5.634 4.227-7.227.19-.806.26-1.351.409-2.045a8.104 8.104 0 0 0 1.227-2.046c.981-2.312.918-4.519-.136-5.182.062-.931.109-1.922.136-2.727 0-6.641-5.702-12-12.818-12z" clip-path="url(#r)" opacity=".6" fill="none" stroke="#fff" stroke-width="2" filter="url(#s)"/><g><rect width="66" height="66" rx="12" ry="12" x="15" y="15" clip-path="url(#t)" opacity=".5" fill="url(#u)" stroke="#fff" stroke-width=".5" stroke-linecap="round" filter="url(#v)"/></g></svg>