<svg xmlns="http://www.w3.org/2000/svg" xmlns:xlink="http://www.w3.org/1999/xlink" version="1.0" width="96" height="96"><defs><linearGradient id="j"><stop offset="0" stop-color="#ed702d"/><stop offset="1" stop-color="#f4915c"/></linearGradient><linearGradient id="i"><stop offset="0" stop-color="#dfa716"/><stop offset="1" stop-color="#ecbb3d"/></linearGradient><linearGradient id="h"><stop offset="0" stop-color="#d652aa"/><stop offset="1" stop-color="#e17fc0"/></linearGradient><linearGradient id="g"><stop offset="0" stop-color="#3c64dc"/><stop offset="1" stop-color="#6b89e5"/></linearGradient><linearGradient id="f"><stop offset="0" stop-color="#1bb3c6"/><stop offset="1" stop-color="#32cfe3"/></linearGradient><linearGradient id="e"><stop offset="0" stop-color="#45c13d"/><stop offset="1" stop-color="#76d56f"/></linearGradient><linearGradient x1="45.448" y1="92.54" x2="45.448" y2="7.017" id="l" gradientUnits="userSpaceOnUse" gradientTransform="scale(1.00587 .99417)"><stop offset="0"/><stop offset="1" stop-opacity=".588"/></linearGradient><linearGradient id="a"><stop offset="0" stop-color="#e6e6e6"/><stop offset="1" stop-color="#f5f5f5"/></linearGradient><linearGradient x1="48" y1="90" x2="48" y2="5.988" id="s" xlink:href="#a" gradientUnits="userSpaceOnUse"/><filter color-interpolation-filters="sRGB" id="m"><feGaussianBlur stdDeviation="1.71"/></filter><linearGradient x1="45.448" y1="92.54" x2="45.448" y2="7.017" id="b" gradientUnits="userSpaceOnUse" gradientTransform="matrix(1.00587 0 0 .99417 100 0)"><stop offset="0"/><stop offset="1" stop-opacity=".588"/></linearGradient><linearGradient x1="32.251" y1="6.132" x2="32.251" y2="90.239" id="o" xlink:href="#b" gradientUnits="userSpaceOnUse" gradientTransform="matrix(1.0238 0 0 1.0119 -1.143 -98.071)"/><linearGradient x1="32.251" y1="6.132" x2="32.251" y2="90.239" id="p" xlink:href="#b" gradientUnits="userSpaceOnUse" gradientTransform="matrix(1.0238 0 0 1.0119 -1.143 -98.071)"/><linearGradient x1="32.251" y1="6.132" x2="32.251" y2="90.239" id="q" xlink:href="#b" gradientUnits="userSpaceOnUse" gradientTransform="matrix(1.0238 0 0 1.0119 -1.143 -98.071)"/><linearGradient x1="32.251" y1="6.132" x2="32.251" y2="90.239" id="r" xlink:href="#b" gradientUnits="userSpaceOnUse" gradientTransform="translate(0 -97)"/><linearGradient x1="32.251" y1="6.132" x2="32.251" y2="90.239" id="n" xlink:href="#b" gradientUnits="userSpaceOnUse" gradientTransform="matrix(1.0238 0 0 1.0119 -1.143 -98.071)"/><linearGradient id="d"><stop offset="0" stop-color="#fff"/><stop offset="1" stop-color="#fff" stop-opacity="0"/></linearGradient><radialGradient cx="48" cy="90.172" r="42" fx="48" fy="90.172" id="u" xlink:href="#c" gradientUnits="userSpaceOnUse" gradientTransform="matrix(1.15731 0 0 .9959 -7.551 .197)"/><linearGradient id="c"><stop offset="0" stop-color="#fff"/><stop offset="1" stop-color="#fff" stop-opacity="0"/></linearGradient><linearGradient x1="36.357" y1="6" x2="36.357" y2="63.893" id="t" xlink:href="#d" gradientUnits="userSpaceOnUse"/><linearGradient x1="14" y1="72" x2="34" y2="72" id="y" xlink:href="#e" gradientUnits="userSpaceOnUse" gradientTransform="translate(-96 -48)"/><linearGradient x1="38" y1="72" x2="58" y2="72" id="z" xlink:href="#f" gradientUnits="userSpaceOnUse" gradientTransform="translate(-120 -24)"/><linearGradient x1="62" y1="72" x2="82" y2="72" id="A" xlink:href="#g" gradientUnits="userSpaceOnUse" gradientTransform="translate(-144)"/><linearGradient x1="38" y1="48" x2="58" y2="48" id="C" xlink:href="#h" gradientUnits="userSpaceOnUse" gradientTransform="translate(-96)"/><linearGradient x1="14" y1="48" x2="34" y2="48" id="B" xlink:href="#i" gradientUnits="userSpaceOnUse" gradientTransform="translate(-72 -24)"/><linearGradient x1="14" y1="24" x2="34" y2="24" id="D" xlink:href="#j" gradientUnits="userSpaceOnUse" gradientTransform="translate(-48)"/><linearGradient id="k"><stop offset="0" stop-color="#fff"/><stop offset="1" stop-color="#fff" stop-opacity="0"/></linearGradient><clipPath id="v"><rect width="84" height="84" rx="6" ry="6" x="6" y="6" fill="#fff"/></clipPath><filter x="-.192" y="-.192" width="1.384" height="1.384" color-interpolation-filters="sRGB" id="x"><feGaussianBlur stdDeviation="5.28"/></filter><linearGradient x1="48" y1="20.221" x2="48" y2="138.661" id="w" xlink:href="#k" gradientUnits="userSpaceOnUse"/></defs><g transform="scale(1 -1)"><path d="M12-95.031c-5.511 0-10.031 4.52-10.031 10.031v71C1.969-8.489 6.489-3.969 12-3.969h72c5.511 0 10.031-4.52 10.031-10.031v-71c0-5.511-4.52-10.031-10.031-10.031H12z" opacity=".08" fill="url(#n)"/><path d="M12-94.031c-4.972 0-9.031 4.06-9.031 9.031v71c0 4.972 4.06 9.031 9.031 9.031h72c4.972 0 9.031-4.06 9.031-9.031v-71c0-4.972-4.06-9.031-9.031-9.031H12z" opacity=".1" fill="url(#o)"/><path d="M12-93c-4.41 0-8 3.59-8 8v71c0 4.41 3.59 8 8 8h72c4.41 0 8-3.59 8-8v-71c0-4.41-3.59-8-8-8H12z" opacity=".2" fill="url(#p)"/><rect width="86" height="85" rx="7" ry="7" x="5" y="-92" opacity=".3" fill="url(#q)"/><rect width="84" height="84" rx="6" ry="6" x="6" y="-91" opacity=".45" fill="url(#r)"/></g><rect width="84" height="84" rx="6" ry="6" x="6" y="6" fill="url(#s)"/><path d="M12 6c-3.324 0-6 2.676-6 6v72c0 .335.041.65.094.969.048.295.097.597.187.875l.032.094c.098.287.234.547.375.812.144.274.315.536.5.781a6.105 6.105 0 0 0 2.094 1.781c.278.14.573.247.874.344a4.843 4.843 0 0 1-.719-.375c-.007-.004-.023.005-.03 0-.033-.02-.063-.042-.095-.062-.12-.077-.23-.164-.343-.25-.106-.081-.214-.161-.313-.25a5.042 5.042 0 0 1-.5-.531 5.092 5.092 0 0 1-.312-.407c-.025-.038-.039-.086-.063-.125-.065-.103-.13-.204-.187-.312a5.371 5.371 0 0 1-.282-.625c-.008-.022-.023-.04-.03-.063-.033-.092-.037-.187-.063-.281-.03-.107-.07-.203-.094-.313A5.098 5.098 0 0 1 7 85V13c0-2.782 2.218-5 5-5h72c2.782 0 5 2.218 5 5v72c0 .364-.052.721-.125 1.063a4.896 4.896 0 0 1-.156.593c-.008.022-.024.04-.031.063a5.482 5.482 0 0 1-.22.531c-.04.083-.078.17-.124.25-.055.097-.127.188-.188.281a5.092 5.092 0 0 1-.312.406 5.05 5.05 0 0 1-.469.5l-.031.032a4.818 4.818 0 0 1-.438.344c-.102.073-.204.153-.312.218-.008.005-.024-.004-.031 0a4.843 4.843 0 0 1-.72.375c.302-.097.597-.204.876-.344a6.105 6.105 0 0 0 2.094-1.78c.184-.246.355-.508.5-.782a5.69 5.69 0 0 0 .374-.813l.032-.093c.09-.278.139-.58.187-.875.053-.318.094-.634.094-.969V12c0-3.324-2.676-6-6-6H12z" opacity=".5" fill="url(#t)"/><path d="M12 90c-3.324 0-6-2.676-6-6V12c0-.335.041-.65.094-.969.048-.295.097-.597.187-.875l.032-.094a5.69 5.69 0 0 1 .375-.812c.144-.274.315-.536.5-.781a6.105 6.105 0 0 1 2.094-1.781c.278-.14.573-.247.874-.344-.256.1-.486.236-.719.375-.007.004-.023-.005-.03 0-.033.019-.063.042-.095.062-.12.077-.23.164-.343.25-.106.081-.214.161-.313.25a5.042 5.042 0 0 0-.5.532c-.107.13-.218.265-.312.406-.025.038-.039.086-.063.125-.065.103-.13.204-.187.312a5.371 5.371 0 0 0-.282.625c-.007.022-.023.04-.03.063-.033.092-.037.187-.063.281-.03.107-.07.203-.094.313A5.098 5.098 0 0 0 7 11v72c0 2.782 2.218 5 5 5h72c2.782 0 5-2.218 5-5V11c0-.364-.052-.721-.125-1.063a4.896 4.896 0 0 0-.156-.593c-.008-.022-.024-.04-.031-.063a5.482 5.482 0 0 0-.22-.531c-.04-.083-.078-.17-.124-.25-.055-.097-.127-.188-.188-.281a5.092 5.092 0 0 0-.312-.406 5.05 5.05 0 0 0-.469-.5l-.031-.032a4.818 4.818 0 0 0-.438-.343c-.102-.074-.204-.154-.312-.22-.008-.004-.024.005-.031 0a4.843 4.843 0 0 0-.72-.374c.302.097.597.204.876.343a6.105 6.105 0 0 1 2.094 1.782c.184.245.355.507.5.781.14.265.276.525.374.813l.032.093c.09.278.139.58.187.875.053.318.094.634.094.969v72c0 3.324-2.676 6-6 6H12z" opacity=".4" fill="url(#u)"/><rect width="84" height="84" rx="6" ry="6" x="-94" y="6" fill="#f0f"/><path style="marker:none" color="#000" fill="#fff" stroke="#000" stroke-width=".5" stroke-linecap="round" stroke-dashoffset="8.6" overflow="visible" enable-background="accumulate" d="M112 8h16v16h-16z"/><text x="131.393" y="11.969" style="text-align:start;line-height:125%;-inkscape-font-specification:Liberation Sans" font-size="4" font-weight="400" font-family="Liberation Sans"><tspan x="131.393" y="11.969">Width: 2px</tspan><tspan x="131.393" y="16.969">Blur: 12</tspan><tspan x="131.393" y="21.969">Opacity: 60</tspan></text><g><rect width="66" height="66" rx="12" ry="12" x="15" y="15" clip-path="url(#v)" opacity=".5" fill="url(#w)" stroke="#fff" stroke-width=".5" stroke-linecap="round" filter="url(#x)"/></g><g color="#000"><rect width="20" height="20" rx="3" ry="3" x="-82" y="14" transform="rotate(-90)" style="marker:none" fill="url(#y)" overflow="visible" enable-background="accumulate"/><rect width="20" height="20" rx="3" ry="3" x="-82" y="38" transform="rotate(-90)" style="marker:none" fill="url(#z)" overflow="visible" enable-background="accumulate"/><rect width="20" height="20" rx="3" ry="3" x="-82" y="62" transform="rotate(-90)" style="marker:none" fill="url(#A)" overflow="visible" enable-background="accumulate"/><rect width="20" height="20" rx="3" ry="3" x="-58" y="14" transform="rotate(-90)" style="marker:none" fill="url(#B)" overflow="visible" enable-background="accumulate"/><rect width="20" height="20" rx="3" ry="3" x="-58" y="38" transform="rotate(-90)" style="marker:none" fill="url(#C)" overflow="visible" enable-background="accumulate"/><rect width="20" height="20" rx="3" ry="3" x="-34" y="14" transform="rotate(-90)" style="marker:none" fill="url(#D)" overflow="visible" enable-background="accumulate"/><path d="M17 62c-1.662 0-3 1.338-3 3v1c0-1.662 1.338-3 3-3h14c1.662 0 3 1.338 3 3v-1c0-1.662-1.338-3-3-3H17zM41 62c-1.662 0-3 1.338-3 3v1c0-1.662 1.338-3 3-3h14c1.662 0 3 1.338 3 3v-1c0-1.662-1.338-3-3-3H41zM65 62c-1.662 0-3 1.338-3 3v1c0-1.662 1.338-3 3-3h14c1.662 0 3 1.338 3 3v-1c0-1.662-1.338-3-3-3H65zM17 38c-1.662 0-3 1.338-3 3v1c0-1.662 1.338-3 3-3h14c1.662 0 3 1.338 3 3v-1c0-1.662-1.338-3-3-3H17zM41 38c-1.662 0-3 1.338-3 3v1c0-1.662 1.338-3 3-3h14c1.662 0 3 1.338 3 3v-1c0-1.662-1.338-3-3-3H41zM17 14c-1.662 0-3 1.338-3 3v1c0-1.662 1.338-3 3-3h14c1.662 0 3 1.338 3 3v-1c0-1.662-1.338-3-3-3H17z" style="marker:none" opacity=".15" overflow="visible" enable-background="accumulate"/><path d="M14 79v1c0 1.662 1.338 3 3 3h14c1.662 0 3-1.338 3-3v-1c0 1.662-1.338 3-3 3H17c-1.662 0-3-1.338-3-3zM38 79v1c0 1.662 1.338 3 3 3h14c1.662 0 3-1.338 3-3v-1c0 1.662-1.338 3-3 3H41c-1.662 0-3-1.338-3-3zM62 79v1c0 1.662 1.338 3 3 3h14c1.662 0 3-1.338 3-3v-1c0 1.662-1.338 3-3 3H65c-1.662 0-3-1.338-3-3zM14 55v1c0 1.662 1.338 3 3 3h14c1.662 0 3-1.338 3-3v-1c0 1.662-1.338 3-3 3H17c-1.662 0-3-1.338-3-3zM38 55v1c0 1.662 1.338 3 3 3h14c1.662 0 3-1.338 3-3v-1c0 1.662-1.338 3-3 3H41c-1.662 0-3-1.338-3-3zM14 31v1c0 1.662 1.338 3 3 3h14c1.662 0 3-1.338 3-3v-1c0 1.662-1.338 3-3 3H17c-1.662 0-3-1.338-3-3z" style="marker:none" opacity=".6" fill="#fff" overflow="visible" enable-background="accumulate"/><path d="M17 14c-1.662 0-3 1.338-3 3v14c0 1.662 1.338 3 3 3h14c1.662 0 3-1.338 3-3V17c0-1.662-1.338-3-3-3H17zm0 1.031h14c1.106 0 1.969.863 1.969 1.969v14A1.946 1.946 0 0 1 31 32.969H17A1.946 1.946 0 0 1 15.031 31V17c0-1.106.863-1.969 1.969-1.969zM17 38c-1.662 0-3 1.338-3 3v14c0 1.662 1.338 3 3 3h14c1.662 0 3-1.338 3-3V41c0-1.662-1.338-3-3-3H17zm24 0c-1.662 0-3 1.338-3 3v14c0 1.662 1.338 3 3 3h14c1.662 0 3-1.338 3-3V41c0-1.662-1.338-3-3-3H41zm-24 1.031h14c1.106 0 1.969.863 1.969 1.969v14A1.946 1.946 0 0 1 31 56.969H17A1.946 1.946 0 0 1 15.031 55V41c0-1.106.863-1.969 1.969-1.969zm24 0h14c1.106 0 1.969.863 1.969 1.969v14A1.946 1.946 0 0 1 55 56.969H41A1.946 1.946 0 0 1 39.031 55V41c0-1.106.863-1.969 1.969-1.969zM17 62c-1.662 0-3 1.338-3 3v14c0 1.662 1.338 3 3 3h14c1.662 0 3-1.338 3-3V65c0-1.662-1.338-3-3-3H17zm24 0c-1.662 0-3 1.338-3 3v14c0 1.662 1.338 3 3 3h14c1.662 0 3-1.338 3-3V65c0-1.662-1.338-3-3-3H41zm24 0c-1.662 0-3 1.338-3 3v14c0 1.662 1.338 3 3 3h14c1.662 0 3-1.338 3-3V65c0-1.662-1.338-3-3-3H65zm-48 1.031h14c1.106 0 1.969.863 1.969 1.969v14A1.946 1.946 0 0 1 31 80.969H17A1.946 1.946 0 0 1 15.031 79V65c0-1.106.863-1.969 1.969-1.969zm24 0h14c1.106 0 1.969.863 1.969 1.969v14A1.946 1.946 0 0 1 55 80.969H41A1.946 1.946 0 0 1 39.031 79V65c0-1.106.863-1.969 1.969-1.969zm24 0h14c1.106 0 1.969.863 1.969 1.969v14A1.946 1.946 0 0 1 79 80.969H65A1.946 1.946 0 0 1 63.031 79V65c0-1.106.863-1.969 1.969-1.969z" style="marker:none" opacity=".1" overflow="visible" enable-background="accumulate"/></g></svg>