<svg xmlns="http://www.w3.org/2000/svg" xmlns:xlink="http://www.w3.org/1999/xlink" version="1.0" width="96" height="96"><defs><linearGradient x1="45.448" y1="92.54" x2="45.448" y2="7.017" id="f" gradientUnits="userSpaceOnUse" gradientTransform="scale(1.00587 .99417)"><stop offset="0"/><stop offset="1" stop-opacity=".588"/></linearGradient><linearGradient id="b"><stop offset="0" stop-color="#fff"/><stop offset="1" stop-color="#fff" stop-opacity="0"/></linearGradient><linearGradient id="a"><stop offset="0" stop-color="#e6e6e6"/><stop offset="1" stop-color="#f5f5f5"/></linearGradient><linearGradient x1="48" y1="90" x2="48" y2="5.988" id="m" xlink:href="#a" gradientUnits="userSpaceOnUse" gradientTransform="translate(.126)"/><filter color-interpolation-filters="sRGB" id="g"><feGaussianBlur stdDeviation="1.71"/></filter><linearGradient x1="36.357" y1="6" x2="36.357" y2="63.893" id="n" xlink:href="#b" gradientUnits="userSpaceOnUse"/><linearGradient x1="45.448" y1="92.54" x2="45.448" y2="7.017" id="c" gradientUnits="userSpaceOnUse" gradientTransform="matrix(1.00587 0 0 .99417 100 0)"><stop offset="0"/><stop offset="1" stop-opacity=".588"/></linearGradient><linearGradient x1="32.251" y1="6.132" x2="32.251" y2="90.239" id="i" xlink:href="#c" gradientUnits="userSpaceOnUse" gradientTransform="matrix(1.0238 0 0 1.0119 -1.143 -98.071)"/><linearGradient x1="32.251" y1="6.132" x2="32.251" y2="90.239" id="j" xlink:href="#c" gradientUnits="userSpaceOnUse" gradientTransform="matrix(1.0238 0 0 1.0119 -1.143 -98.071)"/><linearGradient x1="32.251" y1="6.132" x2="32.251" y2="90.239" id="k" xlink:href="#c" gradientUnits="userSpaceOnUse" gradientTransform="matrix(1.0238 0 0 1.0119 -1.143 -98.071)"/><linearGradient x1="32.251" y1="6.132" x2="32.251" y2="90.239" id="l" xlink:href="#c" gradientUnits="userSpaceOnUse" gradientTransform="translate(0 -97)"/><linearGradient x1="32.251" y1="6.132" x2="32.251" y2="90.239" id="h" xlink:href="#c" gradientUnits="userSpaceOnUse" gradientTransform="matrix(1.0238 0 0 1.0119 -1.143 -98.071)"/><linearGradient id="d"><stop offset="0" stop-color="#fff"/><stop offset="1" stop-color="#fff" stop-opacity="0"/></linearGradient><radialGradient cx="48" cy="90.172" r="42" fx="48" fy="90.172" id="o" xlink:href="#d" gradientUnits="userSpaceOnUse" gradientTransform="matrix(1.15731 0 0 .9959 -7.551 .197)"/><linearGradient id="e"><stop offset="0" stop-color="#fff"/><stop offset="1" stop-color="#fff" stop-opacity="0"/></linearGradient><clipPath id="p"><rect width="84" height="84" rx="6" ry="6" x="6" y="6" fill="#fff"/></clipPath><filter x="-.192" y="-.192" width="1.384" height="1.384" color-interpolation-filters="sRGB" id="r"><feGaussianBlur stdDeviation="5.28"/></filter><linearGradient x1="48" y1="20.221" x2="48" y2="138.661" id="q" xlink:href="#e" gradientUnits="userSpaceOnUse"/></defs><g transform="scale(1 -1)"><path d="M12-95.031c-5.511 0-10.031 4.52-10.031 10.031v71C1.969-8.489 6.489-3.969 12-3.969h72c5.511 0 10.031-4.52 10.031-10.031v-71c0-5.511-4.52-10.031-10.031-10.031H12z" opacity=".08" fill="url(#h)"/><path d="M12-94.031c-4.972 0-9.031 4.06-9.031 9.031v71c0 4.972 4.06 9.031 9.031 9.031h72c4.972 0 9.031-4.06 9.031-9.031v-71c0-4.972-4.06-9.031-9.031-9.031H12z" opacity=".1" fill="url(#i)"/><path d="M12-93c-4.41 0-8 3.59-8 8v71c0 4.41 3.59 8 8 8h72c4.41 0 8-3.59 8-8v-71c0-4.41-3.59-8-8-8H12z" opacity=".2" fill="url(#j)"/><rect width="86" height="85" rx="7" ry="7" x="5" y="-92" opacity=".3" fill="url(#k)"/><rect width="84" height="84" rx="6" ry="6" x="6" y="-91" opacity=".45" fill="url(#l)"/></g><rect width="84" height="84" rx="6" ry="6" x="6.126" y="6" fill="url(#m)"/><path d="M12 6c-3.324 0-6 2.676-6 6v72c0 .335.041.65.094.969.048.295.097.597.187.875l.032.094c.098.287.234.547.375.812.144.274.315.536.5.781a6.105 6.105 0 0 0 2.094 1.781c.278.14.573.247.874.344a4.843 4.843 0 0 1-.719-.375c-.007-.004-.023.005-.03 0-.033-.02-.063-.042-.095-.062-.12-.077-.23-.164-.343-.25-.106-.081-.214-.161-.313-.25a5.042 5.042 0 0 1-.5-.531 5.092 5.092 0 0 1-.312-.407c-.025-.038-.039-.086-.063-.125-.065-.103-.13-.204-.187-.312a5.371 5.371 0 0 1-.282-.625c-.007-.022-.023-.04-.03-.063-.033-.092-.037-.187-.063-.281-.03-.107-.07-.203-.094-.313A5.098 5.098 0 0 1 7 85V13c0-2.782 2.218-5 5-5h72c2.782 0 5 2.218 5 5v72c0 .364-.052.721-.125 1.063a4.896 4.896 0 0 1-.156.593c-.008.022-.024.04-.031.063a5.482 5.482 0 0 1-.22.531c-.04.083-.078.17-.124.25-.055.097-.127.188-.188.281a5.092 5.092 0 0 1-.312.406 5.05 5.05 0 0 1-.469.5l-.031.032a4.818 4.818 0 0 1-.438.344c-.102.073-.204.153-.312.218-.008.005-.024-.004-.031 0a4.843 4.843 0 0 1-.72.375c.302-.097.597-.204.876-.344a6.105 6.105 0 0 0 2.094-1.78c.184-.246.355-.508.5-.782a5.69 5.69 0 0 0 .374-.813l.032-.093c.09-.278.139-.58.187-.875.053-.318.094-.634.094-.969V12c0-3.324-2.676-6-6-6H12z" opacity=".5" fill="url(#n)"/><path d="M12 90c-3.324 0-6-2.676-6-6V12c0-.335.041-.65.094-.969.048-.295.097-.597.187-.875l.032-.094a5.69 5.69 0 0 1 .375-.812c.144-.274.315-.536.5-.781a6.105 6.105 0 0 1 2.094-1.781c.278-.14.573-.247.874-.344-.256.1-.486.236-.719.375-.007.004-.023-.005-.03 0-.033.019-.063.042-.095.062-.12.077-.23.164-.343.25-.106.081-.214.161-.313.25a5.042 5.042 0 0 0-.5.532c-.107.13-.218.265-.312.406-.025.038-.039.086-.063.125-.065.103-.13.204-.187.312a5.371 5.371 0 0 0-.282.625c-.007.022-.023.04-.03.063-.033.092-.037.187-.063.281-.03.107-.07.203-.094.313A5.098 5.098 0 0 0 7 11v72c0 2.782 2.218 5 5 5h72c2.782 0 5-2.218 5-5V11c0-.364-.052-.721-.125-1.063a4.896 4.896 0 0 0-.156-.593c-.008-.022-.024-.04-.031-.063a5.482 5.482 0 0 0-.22-.531c-.04-.083-.078-.17-.124-.25-.055-.097-.127-.188-.188-.281a5.092 5.092 0 0 0-.312-.406 5.05 5.05 0 0 0-.469-.5l-.031-.032a4.818 4.818 0 0 0-.438-.343c-.102-.074-.204-.154-.312-.22-.008-.004-.024.005-.031 0a4.843 4.843 0 0 0-.72-.374c.302.097.597.204.876.343a6.105 6.105 0 0 1 2.094 1.782c.184.245.355.507.5.781.14.265.276.525.374.813l.032.093c.09.278.139.58.187.875.053.318.094.634.094.969v72c0 3.324-2.676 6-6 6H12z" opacity=".4" fill="url(#o)"/><g><rect width="66" height="66" rx="12" ry="12" x="15" y="15" clip-path="url(#p)" opacity=".5" fill="url(#q)" stroke="#fff" stroke-width=".5" stroke-linecap="round" filter="url(#r)"/></g><g font-size="4" font-weight="400" fill="#4d4d4d" font-family="Liberation Mono"><path d="M37.794 35.741l-1.84-4.947h-7.512l-1.827 4.947H24l6.804-17.47h2.895l6.683 17.47h-2.588m-4.442-12.354c-.116-.328-.236-.66-.36-.997-.125-.337-.24-.656-.347-.958a28.986 28.986 0 0 0-.267-.79 17.314 17.314 0 0 0-.16-.505c-.036.103-.089.272-.16.505-.071.233-.16.5-.267.803-.098.302-.205.621-.32.958-.107.337-.218.665-.334.984l-2.014 5.478H35.3l-1.948-5.478M55.75 30.82c0 .89-.187 1.645-.56 2.266a4.565 4.565 0 0 1-1.508 1.528c-.631.389-1.365.674-2.201.855a12.44 12.44 0 0 1-2.641.272h-6.297v-17.47h5.496c1.04 0 1.97.083 2.788.247.819.164 1.512.419 2.081.764.57.337 1.001.773 1.295 1.308.302.535.453 1.174.453 1.916 0 .484-.075.946-.227 1.386a3.475 3.475 0 0 1-.667 1.178 4.224 4.224 0 0 1-1.107.907c-.445.25-.97.436-1.574.557.756.077 1.423.237 2 .479.588.242 1.077.552 1.468.932.392.372.69.803.894 1.295.205.484.307 1.01.307 1.58m-3.655-8.003c0-.923-.338-1.58-1.014-1.968-.667-.397-1.672-.596-3.015-.596h-2.975v5.387h3.001c.72 0 1.335-.065 1.841-.194.507-.138.921-.328 1.241-.57.32-.25.552-.548.694-.893.151-.346.227-.734.227-1.166m1.08 7.783c0-.544-.115-1.006-.347-1.386a2.58 2.58 0 0 0-.96-.932c-.41-.25-.903-.432-1.48-.544a10.185 10.185 0 0 0-1.935-.168h-3.362v6.19h3.548c.65 0 1.25-.048 1.801-.143.56-.103 1.041-.276 1.441-.518.41-.241.725-.565.947-.971.232-.406.347-.915.347-1.528m7.778-3.678c0 1.131.089 2.137.267 3.018.178.871.453 1.61.827 2.214.373.604.85 1.062 1.427 1.373.587.31 1.29.466 2.108.466.56 0 1.063-.104 1.508-.311.453-.207.853-.48 1.2-.816.356-.336.663-.725.92-1.165.259-.44.481-.894.668-1.36l2.121.842a11.643 11.643 0 0 1-.92 1.774 7.346 7.346 0 0 1-1.321 1.54 6.269 6.269 0 0 1-1.815 1.089c-.684.276-1.48.414-2.388.414-1.254 0-2.339-.216-3.255-.648a6.227 6.227 0 0 1-2.268-1.851c-.595-.795-1.04-1.749-1.334-2.862-.284-1.114-.427-2.353-.427-3.717 0-1.433.143-2.702.427-3.807.285-1.114.72-2.046 1.308-2.797a5.551 5.551 0 0 1 2.228-1.722c.898-.397 1.96-.596 3.188-.596.898 0 1.685.12 2.361.363a5.53 5.53 0 0 1 1.748.958c.498.397.916.859 1.254 1.385a8.44 8.44 0 0 1 .854 1.632l-2.241.842a5.777 5.777 0 0 0-.547-1.166 4.439 4.439 0 0 0-.84-1.01 3.847 3.847 0 0 0-1.135-.712 3.653 3.653 0 0 0-1.44-.272c-.792 0-1.473.147-2.042.44-.56.294-1.023.734-1.387 1.321-.365.579-.632 1.3-.8 2.163-.17.855-.254 1.847-.254 2.978" style="text-align:start;line-height:120.00000477%;-inkscape-font-specification:Liberation Mono"/><path d="M12.209 47.991v-2.635h.373v2.33h1.313v.305h-1.686m4.078-1.059c0 .185-.022.347-.066.485a.911.911 0 0 1-.188.342.77.77 0 0 1-.3.205c-.118.044-.25.066-.399.066-.142 0-.27-.022-.387-.066a.76.76 0 0 1-.295-.203.949.949 0 0 1-.187-.342 1.597 1.597 0 0 1-.067-.487c0-.363.082-.636.247-.818.165-.184.399-.275.7-.275.318 0 .555.09.71.271.155.181.232.455.232.822m-.369 0c0-.164-.014-.3-.043-.406a.677.677 0 0 0-.117-.256.39.39 0 0 0-.178-.132.643.643 0 0 0-.228-.04.652.652 0 0 0-.235.041.42.42 0 0 0-.185.137.72.72 0 0 0-.121.256c-.03.107-.043.24-.043.4 0 .164.015.3.044.409a.744.744 0 0 0 .124.255.432.432 0 0 0 .18.135c.068.026.14.04.214.04a.713.713 0 0 0 .234-.038.423.423 0 0 0 .188-.135.679.679 0 0 0 .121-.257c.03-.108.045-.245.045-.409m2.666-.734a2.683 2.683 0 0 0-.414-.037.642.642 0 0 0-.516.248.83.83 0 0 0-.138.266c-.032.101-.047.21-.047.324v.992h-.352v-1.37c0-.072-.004-.146-.012-.222a4.093 4.093 0 0 0-.09-.521h.335c.009.031.018.067.027.107a2.638 2.638 0 0 1 .066.381h.01c.037-.08.075-.154.115-.219a.61.61 0 0 1 .34-.271.884.884 0 0 1 .274-.037 2.334 2.334 0 0 1 .402.033v.326m.986.81c0 .111.013.214.037.307a.717.717 0 0 0 .112.24.53.53 0 0 0 .183.157c.075.036.16.054.256.054a.668.668 0 0 0 .361-.092.418.418 0 0 0 .193-.232l.31.088a.674.674 0 0 1-.26.338.963.963 0 0 1-.252.117 1.22 1.22 0 0 1-.352.045c-.15 0-.284-.023-.402-.07a.779.779 0 0 1-.3-.21.95.95 0 0 1-.19-.345c-.043-.14-.065-.3-.065-.484 0-.203.026-.374.076-.512a.899.899 0 0 1 .21-.334.763.763 0 0 1 .3-.182c.115-.036.235-.054.36-.054.17 0 .314.027.431.082a.744.744 0 0 1 .29.23.928.928 0 0 1 .16.354c.033.138.05.29.05.457v.047H19.57m.58-.91c-.06 0-.123.01-.189.029a.472.472 0 0 0-.182.1.58.58 0 0 0-.142.197.816.816 0 0 0-.063.314h1.14a1.042 1.042 0 0 0-.066-.307.58.58 0 0 0-.126-.197.424.424 0 0 0-.17-.105.644.644 0 0 0-.202-.032m2.227 1.893v-1.34c0-.103-.004-.189-.012-.258a.587.587 0 0 0-.039-.166.173.173 0 0 0-.068-.09.183.183 0 0 0-.104-.027.159.159 0 0 0-.115.051.401.401 0 0 0-.088.14.95.95 0 0 0-.056.22c-.013.084-.02.179-.02.285v1.185h-.33V46.33c0-.044 0-.09-.002-.139a4.439 4.439 0 0 0-.01-.312h.291a7.23 7.23 0 0 1 .012.342h.004c.017-.051.037-.1.06-.145a.526.526 0 0 1 .084-.123.377.377 0 0 1 .277-.113c.115 0 .2.031.257.093a.585.585 0 0 1 .123.29h.004a1.11 1.11 0 0 1 .076-.163.51.51 0 0 1 .097-.12.38.38 0 0 1 .125-.075.476.476 0 0 1 .162-.025.43.43 0 0 1 .202.043.326.326 0 0 1 .132.132c.034.06.058.137.073.231.015.094.023.206.023.338v1.408h-.328v-1.34c0-.103-.004-.189-.012-.258a.587.587 0 0 0-.039-.166.173.173 0 0 0-.068-.09.183.183 0 0 0-.104-.027c-.086 0-.154.055-.205.164-.05.11-.074.274-.074.492v1.225h-.328m5.215-.277h.742v.277h-1.918v-.277h.824v-1.559h-.623v-.277h.975v1.836m-.39-2.246v-.375h.39v.375h-.39m3.462 1.457c0 .16-.013.308-.039.443a1.038 1.038 0 0 1-.129.35.657.657 0 0 1-.236.23.73.73 0 0 1-.362.082c-.071 0-.14-.006-.205-.02a.696.696 0 0 1-.181-.062.571.571 0 0 1-.26-.277h-.01a3.292 3.292 0 0 1 .008.324v.826h-.353v-2.506l-.002-.15a3.66 3.66 0 0 0-.01-.287h.342a1.653 1.653 0 0 1 .02.348h.007a.88.88 0 0 1 .11-.176.56.56 0 0 1 .316-.192.94.94 0 0 1 .219-.023.76.76 0 0 1 .36.078.616.616 0 0 1 .237.223c.06.095.103.21.13.343.025.134.038.283.038.446m-.363 0c0-.13-.008-.246-.024-.348a.749.749 0 0 0-.082-.256.394.394 0 0 0-.152-.16.463.463 0 0 0-.236-.055.627.627 0 0 0-.217.037.39.39 0 0 0-.178.131.72.72 0 0 0-.119.262 1.788 1.788 0 0 0-.043.432c0 .15.012.276.035.379.025.101.06.184.108.248a.398.398 0 0 0 .174.134.638.638 0 0 0 .236.041.474.474 0 0 0 .238-.054.404.404 0 0 0 .153-.164.798.798 0 0 0 .082-.266c.016-.105.025-.226.025-.361m2.703.463c0 .099-.02.188-.059.267a.553.553 0 0 1-.166.203.809.809 0 0 1-.27.127c-.105.03-.226.045-.362.045a1.84 1.84 0 0 1-.332-.027.834.834 0 0 1-.258-.086.585.585 0 0 1-.188-.16.687.687 0 0 1-.11-.25l.311-.06c.016.07.04.128.075.171a.357.357 0 0 0 .125.096.59.59 0 0 0 .17.045c.063.006.132.01.207.01.075 0 .145-.006.209-.016a.542.542 0 0 0 .168-.057.31.31 0 0 0 .109-.103.289.289 0 0 0 .041-.159.23.23 0 0 0-.05-.156.38.38 0 0 0-.136-.101 1.074 1.074 0 0 0-.205-.07l-.255-.067a5.392 5.392 0 0 1-.249-.072.928.928 0 0 1-.22-.102.53.53 0 0 1-.156-.162.476.476 0 0 1-.06-.248c0-.191.07-.341.208-.45.138-.107.338-.161.6-.161.102 0 .199.01.289.029.09.018.17.048.24.09a.562.562 0 0 1 .275.389l-.316.038a.29.29 0 0 0-.059-.142.316.316 0 0 0-.111-.086.46.46 0 0 0-.147-.045 1.217 1.217 0 0 0-.171-.012c-.32 0-.479.099-.479.295 0 .06.014.109.041.147a.334.334 0 0 0 .12.092c.05.024.11.046.18.064a12.406 12.406 0 0 1 .493.13c.09.028.171.065.244.11a.572.572 0 0 1 .182.176c.048.07.072.16.072.268m1.041-1.51v1.34c0 .103.007.188.022.257.015.07.04.125.074.168.035.042.08.072.135.09a.725.725 0 0 0 .431-.017.478.478 0 0 0 .172-.127.563.563 0 0 0 .11-.205.93.93 0 0 0 .039-.282v-1.224h.353v1.802a58.364 58.364 0 0 0 .008.25.799.799 0 0 0 .004.061h-.332a124467.806 124467.806 0 0 1-.016-.361h-.006a1.118 1.118 0 0 1-.111.166.622.622 0 0 1-.14.127.65.65 0 0 1-.184.078.886.886 0 0 1-.24.03.948.948 0 0 1-.303-.044.49.49 0 0 1-.33-.363 1.353 1.353 0 0 1-.038-.338v-1.408h.352m2.723 2.113v-1.34c0-.103-.004-.189-.012-.258a.587.587 0 0 0-.04-.166.173.173 0 0 0-.068-.09.183.183 0 0 0-.103-.027.159.159 0 0 0-.115.051.401.401 0 0 0-.088.14.95.95 0 0 0-.057.22c-.013.084-.02.18-.02.285v1.185h-.33V46.33l-.001-.139a4.439 4.439 0 0 0-.01-.312h.29a7.23 7.23 0 0 1 .012.342h.005c.016-.051.037-.1.06-.145a.526.526 0 0 1 .084-.123.377.377 0 0 1 .277-.113c.115 0 .2.031.256.094a.585.585 0 0 1 .123.289h.004a1.11 1.11 0 0 1 .076-.163.51.51 0 0 1 .098-.12.38.38 0 0 1 .125-.075.476.476 0 0 1 .162-.025.43.43 0 0 1 .201.043.326.326 0 0 1 .133.133c.034.06.058.136.072.23.016.094.024.206.024.338v1.408h-.328v-1.34c0-.103-.004-.189-.012-.258a.587.587 0 0 0-.04-.166.173.173 0 0 0-.067-.09.183.183 0 0 0-.104-.027c-.086 0-.154.055-.205.164-.05.11-.074.274-.074.493v1.224h-.328m5.443-.34a.655.655 0 0 1-.254.3.776.776 0 0 1-.394.09c-.263 0-.457-.09-.58-.27-.124-.182-.186-.454-.186-.819 0-.737.255-1.105.766-1.105.157 0 .289.028.394.084a.601.601 0 0 1 .256.275h.004l-.002-.05a671.33 671.33 0 0 1-.002-.245v-.818h.351v2.609a23.417 23.417 0 0 0 .012.29h-.336a2.796 2.796 0 0 1-.02-.34h-.01m-1.05-.712c0 .146.01.271.027.375.02.104.05.19.088.258.04.068.092.118.155.15a.497.497 0 0 0 .224.047c.09 0 .17-.015.238-.046a.419.419 0 0 0 .176-.149.733.733 0 0 0 .108-.267c.024-.11.037-.243.037-.399 0-.151-.013-.277-.037-.379a.651.651 0 0 0-.106-.248.398.398 0 0 0-.174-.135.644.644 0 0 0-.457.004.376.376 0 0 0-.156.145.794.794 0 0 0-.092.26c-.02.105-.031.233-.031.384m3.908-.007c0 .184-.022.346-.066.484a.911.911 0 0 1-.188.342.77.77 0 0 1-.3.205c-.118.044-.25.066-.399.066-.142 0-.27-.022-.387-.066a.76.76 0 0 1-.295-.203.949.949 0 0 1-.187-.342 1.597 1.597 0 0 1-.067-.486c0-.364.083-.637.247-.819.165-.183.399-.275.7-.275.318 0 .555.09.71.271.155.181.232.455.232.823m-.369 0c0-.165-.014-.3-.043-.407a.677.677 0 0 0-.117-.256.39.39 0 0 0-.178-.132.643.643 0 0 0-.228-.04.652.652 0 0 0-.235.042.42.42 0 0 0-.185.136.72.72 0 0 0-.121.256c-.029.107-.043.24-.043.4 0 .165.015.3.045.409a.744.744 0 0 0 .123.256.432.432 0 0 0 .18.134c.068.026.14.04.214.04a.713.713 0 0 0 .235-.038.423.423 0 0 0 .187-.134.679.679 0 0 0 .121-.258c.03-.108.045-.244.045-.408m2.063.78h.742v.278h-1.918v-.277h.824V45.37h-.564v-.277h.916v2.62m3.103-.78c0 .184-.022.346-.066.484a.911.911 0 0 1-.188.342.77.77 0 0 1-.3.205c-.118.044-.25.066-.4.066-.141 0-.27-.022-.386-.066a.76.76 0 0 1-.295-.203.949.949 0 0 1-.187-.342 1.597 1.597 0 0 1-.067-.486c0-.364.082-.637.246-.819.166-.183.4-.275.702-.275.317 0 .554.09.709.271.155.181.232.455.232.823m-.37 0c0-.165-.013-.3-.042-.407a.677.677 0 0 0-.117-.256.39.39 0 0 0-.178-.132.643.643 0 0 0-.229-.04.652.652 0 0 0-.234.042.42.42 0 0 0-.185.136.72.72 0 0 0-.122.256c-.028.107-.043.24-.043.4 0 .165.015.3.045.409a.744.744 0 0 0 .123.256.432.432 0 0 0 .18.134c.07.026.14.04.215.04a.713.713 0 0 0 .234-.038.423.423 0 0 0 .188-.134.679.679 0 0 0 .121-.258c.03-.108.045-.244.045-.408m2.666-.735a2.683 2.683 0 0 0-.414-.037.642.642 0 0 0-.516.248.83.83 0 0 0-.138.266c-.032.101-.047.21-.047.324v.992h-.352v-1.369c0-.073-.004-.147-.012-.223a4.093 4.093 0 0 0-.09-.521h.335c.009.031.018.067.027.107a2.638 2.638 0 0 1 .066.381h.01c.037-.08.075-.154.115-.219a.61.61 0 0 1 .34-.271.884.884 0 0 1 .274-.037 2.334 2.334 0 0 1 .402.033v.326m4.826 1.19c0 .099-.02.188-.058.267a.553.553 0 0 1-.166.203.809.809 0 0 1-.27.127c-.105.03-.227.045-.363.045a1.84 1.84 0 0 1-.332-.027.834.834 0 0 1-.258-.086.585.585 0 0 1-.188-.16.687.687 0 0 1-.109-.25l.31-.06c.016.07.04.128.075.171a.357.357 0 0 0 .125.096.59.59 0 0 0 .17.045c.063.006.132.01.207.01.075 0 .145-.006.209-.016a.542.542 0 0 0 .168-.057.31.31 0 0 0 .109-.103.289.289 0 0 0 .041-.158.23.23 0 0 0-.05-.157.38.38 0 0 0-.136-.101 1.074 1.074 0 0 0-.205-.07l-.255-.067a5.392 5.392 0 0 1-.248-.072.928.928 0 0 1-.221-.102.53.53 0 0 1-.156-.162.476.476 0 0 1-.059-.248c0-.191.069-.341.207-.45.138-.107.338-.161.6-.161.102 0 .199.01.289.029.09.018.17.048.24.09a.562.562 0 0 1 .275.389l-.316.039a.29.29 0 0 0-.059-.143.316.316 0 0 0-.111-.086.46.46 0 0 0-.147-.045 1.217 1.217 0 0 0-.171-.012c-.32 0-.479.099-.479.295 0 .06.014.11.041.147a.334.334 0 0 0 .12.092c.05.024.11.046.18.064a12.406 12.406 0 0 1 .493.13c.09.028.171.065.244.11a.572.572 0 0 1 .182.176c.048.07.072.16.072.268m1.783.326h.743v.277h-1.918v-.277h.824v-1.559h-.623v-.277h.974v1.836m-.39-2.246v-.375h.39v.375h-.39m1.705.687v-.277h.332l.113-.55h.234v.55h.844v.277h-.844v1.274c0 .103.028.179.083.228.056.05.147.074.273.074a2.253 2.253 0 0 0 .32-.023 2.909 2.909 0 0 0 .26-.043v.268a2.884 2.884 0 0 1-.45.08c-.066.006-.134.01-.204.01-.211 0-.37-.045-.475-.133-.105-.09-.158-.232-.158-.424v-1.31h-.328m6.576 1.618a.444.444 0 0 0 .115-.013v.218a1.183 1.183 0 0 1-.271.032.52.52 0 0 1-.172-.026.283.283 0 0 1-.115-.08.377.377 0 0 1-.069-.133.827.827 0 0 1-.03-.185h-.01a1.18 1.18 0 0 1-.122.183.709.709 0 0 1-.152.141.699.699 0 0 1-.197.088.95.95 0 0 1-.256.031c-.206 0-.361-.056-.465-.168-.104-.112-.156-.265-.156-.46 0-.14.025-.254.076-.343.052-.09.12-.16.203-.21a.829.829 0 0 1 .283-.106c.107-.02.215-.032.324-.033l.461-.008v-.115a.788.788 0 0 0-.027-.223.34.34 0 0 0-.08-.148.302.302 0 0 0-.135-.082.606.606 0 0 0-.191-.028.93.93 0 0 0-.178.016.336.336 0 0 0-.135.053.29.29 0 0 0-.094.103.453.453 0 0 0-.047.164l-.367-.033a.757.757 0 0 1 .073-.228.55.55 0 0 1 .152-.182.699.699 0 0 1 .244-.117c.099-.029.218-.043.357-.043.26 0 .456.061.586.183.132.122.198.297.198.528v.91c0 .104.013.183.04.236.028.052.08.078.157.078m-1.19-.011c.109 0 .202-.02.282-.06a.64.64 0 0 0 .316-.364.665.665 0 0 0 .04-.217v-.174l-.372.008a1.764 1.764 0 0 0-.217.018.562.562 0 0 0-.195.06.372.372 0 0 0-.14.137.444.444 0 0 0-.055.236c0 .107.028.193.086.258.058.065.144.098.256.098m2.474.228v-1.34c0-.103-.004-.188-.012-.257a.587.587 0 0 0-.039-.167.173.173 0 0 0-.068-.09.183.183 0 0 0-.104-.027.159.159 0 0 0-.115.051.401.401 0 0 0-.088.14.95.95 0 0 0-.056.22c-.013.084-.02.18-.02.285v1.185h-.33V46.33c0-.044 0-.09-.002-.139a4.445 4.445 0 0 0-.01-.312h.291a7.23 7.23 0 0 1 .012.342h.004c.017-.051.037-.1.06-.145a.526.526 0 0 1 .085-.123.377.377 0 0 1 .277-.113c.114 0 .2.031.256.094a.585.585 0 0 1 .123.289h.004a1.11 1.11 0 0 1 .076-.162.51.51 0 0 1 .098-.122.38.38 0 0 1 .125-.074.476.476 0 0 1 .162-.025.43.43 0 0 1 .2.043.326.326 0 0 1 .134.133c.033.06.058.136.072.23.015.094.023.206.023.338v1.408h-.328v-1.34c0-.103-.004-.188-.012-.257a.587.587 0 0 0-.039-.167.173.173 0 0 0-.068-.09.183.183 0 0 0-.103-.027c-.086 0-.155.055-.206.164-.049.11-.074.274-.074.493v1.224h-.328m1.99-.982c0 .11.013.213.037.306a.717.717 0 0 0 .112.24.53.53 0 0 0 .183.157c.075.036.16.055.256.055a.668.668 0 0 0 .361-.092.418.418 0 0 0 .193-.232l.31.087a.674.674 0 0 1-.26.338.963.963 0 0 1-.252.117 1.22 1.22 0 0 1-.352.045c-.15 0-.284-.023-.402-.07a.779.779 0 0 1-.3-.21.95.95 0 0 1-.19-.345c-.043-.14-.065-.3-.065-.484 0-.203.026-.374.076-.512a.899.899 0 0 1 .21-.334.763.763 0 0 1 .3-.181c.115-.037.235-.055.36-.055.17 0 .314.027.431.082a.744.744 0 0 1 .29.23.928.928 0 0 1 .16.354c.033.138.05.29.05.457v.047h-1.508m.58-.91c-.06 0-.123.01-.189.029a.472.472 0 0 0-.182.1.58.58 0 0 0-.142.197.816.816 0 0 0-.063.314h1.14a1.042 1.042 0 0 0-.066-.306.58.58 0 0 0-.126-.198.424.424 0 0 0-.17-.105.644.644 0 0 0-.202-.031m1.561.056v-.277h.332l.113-.55h.235v.55h.843v.277h-.843v1.274c0 .103.027.179.082.228.056.05.147.074.273.074a2.253 2.253 0 0 0 .32-.023 2.909 2.909 0 0 0 .26-.043v.268a2.884 2.884 0 0 1-.449.08c-.066.006-.135.01-.205.01-.211 0-.37-.045-.475-.133-.105-.09-.158-.232-.158-.424v-1.31h-.328m2.533 2.544l.33-1.293h.518L74.85 48.7h-.24M12 52.933c0-.213.028-.39.084-.53a.793.793 0 0 1 .535-.512 1.25 1.25 0 0 1 .703-.003c.1.032.186.077.258.134a.7.7 0 0 1 .178.2c.045.076.076.16.093.248l-.375.027a.445.445 0 0 0-.156-.28c-.083-.068-.202-.103-.355-.103a.658.658 0 0 0-.284.055.445.445 0 0 0-.183.156.705.705 0 0 0-.1.254c-.02.1-.029.216-.029.346 0 .13.01.247.03.351.02.103.053.19.099.262a.464.464 0 0 0 .183.164c.077.038.171.057.282.057.14 0 .257-.035.35-.104a.464.464 0 0 0 .171-.316l.371.023a.72.72 0 0 1-.261.465.902.902 0 0 1-.266.149c-.103.036-.22.054-.35.054a1.11 1.11 0 0 1-.455-.084.805.805 0 0 1-.302-.23.96.96 0 0 1-.168-.348 1.713 1.713 0 0 1-.053-.435m4.287 0c0 .184-.022.346-.066.484a.911.911 0 0 1-.188.342.77.77 0 0 1-.3.205c-.118.044-.25.066-.4.066-.141 0-.27-.022-.386-.066a.76.76 0 0 1-.295-.203.949.949 0 0 1-.187-.342 1.597 1.597 0 0 1-.067-.486c0-.364.082-.636.246-.819.166-.183.4-.275.702-.275.317 0 .554.09.709.271.154.181.232.455.232.823m-.37 0c0-.164-.014-.3-.042-.407a.677.677 0 0 0-.117-.256.39.39 0 0 0-.178-.132.643.643 0 0 0-.229-.04.652.652 0 0 0-.234.042.42.42 0 0 0-.186.136.72.72 0 0 0-.12.256c-.03.107-.044.24-.044.4 0 .165.015.3.045.409a.744.744 0 0 0 .123.256.432.432 0 0 0 .18.134c.07.026.14.04.215.04a.713.713 0 0 0 .234-.038.423.423 0 0 0 .188-.134.679.679 0 0 0 .12-.258c.03-.108.046-.244.046-.408m2.32 1.058v-1.357a.825.825 0 0 0-.033-.256.38.38 0 0 0-.09-.16.3.3 0 0 0-.135-.084.597.597 0 0 0-.388.021.506.506 0 0 0-.176.127.592.592 0 0 0-.117.205.833.833 0 0 0-.043.28v1.224h-.352V52.33c0-.044 0-.09-.002-.139a4.439 4.439 0 0 0-.01-.312h.332a2.991 2.991 0 0 1 .016.361h.006a.873.873 0 0 1 .11-.166.638.638 0 0 1 .333-.205.853.853 0 0 1 .233-.03c.108 0 .204.015.287.044a.506.506 0 0 1 .209.133c.057.06.1.136.129.23.03.094.045.206.045.338v1.408h-.354m2.774-.603c0 .099-.02.188-.059.267a.553.553 0 0 1-.166.203.809.809 0 0 1-.27.127c-.105.03-.226.045-.363.045a1.84 1.84 0 0 1-.332-.027.834.834 0 0 1-.258-.086.585.585 0 0 1-.187-.16.687.687 0 0 1-.11-.25l.311-.06c.016.07.04.128.074.171a.357.357 0 0 0 .125.096.59.59 0 0 0 .17.045c.064.006.133.01.207.01.076 0 .145-.006.21-.016a.542.542 0 0 0 .167-.057.31.31 0 0 0 .11-.103.289.289 0 0 0 .04-.158.23.23 0 0 0-.05-.157.38.38 0 0 0-.135-.101 1.074 1.074 0 0 0-.205-.07l-.256-.067a5.392 5.392 0 0 1-.248-.072.928.928 0 0 1-.22-.102.53.53 0 0 1-.157-.162.476.476 0 0 1-.059-.248c0-.191.07-.341.207-.45.139-.107.338-.161.6-.161.103 0 .2.01.29.029.089.018.17.048.24.09a.562.562 0 0 1 .275.389l-.317.039a.29.29 0 0 0-.058-.143.316.316 0 0 0-.112-.086.46.46 0 0 0-.146-.045 1.217 1.217 0 0 0-.172-.012c-.319 0-.478.099-.478.295 0 .06.013.11.04.147a.334.334 0 0 0 .12.092c.05.024.111.046.181.064a12.404 12.404 0 0 1 .493.13c.09.028.17.065.244.11a.572.572 0 0 1 .181.176c.049.07.073.16.073.268m.957-.38c0 .111.012.214.037.307a.717.717 0 0 0 .111.24.53.53 0 0 0 .184.157c.074.036.16.055.256.055a.668.668 0 0 0 .361-.092.418.418 0 0 0 .193-.232l.309.087a.674.674 0 0 1-.26.338.963.963 0 0 1-.252.117 1.22 1.22 0 0 1-.351.045c-.15 0-.284-.023-.403-.07a.779.779 0 0 1-.3-.21.95.95 0 0 1-.19-.345c-.043-.14-.064-.3-.064-.484 0-.203.025-.374.076-.512a.899.899 0 0 1 .209-.334.763.763 0 0 1 .3-.181c.115-.037.235-.055.36-.055.17 0 .314.027.431.082a.744.744 0 0 1 .29.23.928.928 0 0 1 .16.354c.034.138.05.29.05.457v.047H21.97m.58-.91c-.06 0-.123.01-.19.029a.472.472 0 0 0-.181.1.58.58 0 0 0-.143.197.816.816 0 0 0-.062.314h1.14a1.042 1.042 0 0 0-.066-.306.58.58 0 0 0-.127-.198.424.424 0 0 0-.17-.105.644.644 0 0 0-.201-.031m1.443.834c0-.213.028-.39.084-.53a.793.793 0 0 1 .535-.512 1.25 1.25 0 0 1 .703-.003c.1.032.187.077.258.134a.7.7 0 0 1 .178.2c.045.076.077.16.094.248l-.375.027a.445.445 0 0 0-.157-.28c-.083-.068-.201-.103-.355-.103a.658.658 0 0 0-.283.055.445.445 0 0 0-.184.156.705.705 0 0 0-.1.254c-.019.1-.029.216-.029.346 0 .13.01.247.03.351.02.103.054.19.1.262a.464.464 0 0 0 .183.164c.077.038.17.057.281.057.14 0 .257-.035.35-.104a.464.464 0 0 0 .171-.316l.372.023a.72.72 0 0 1-.262.465.902.902 0 0 1-.266.149c-.103.036-.22.054-.35.054a1.11 1.11 0 0 1-.454-.084.805.805 0 0 1-.303-.23.96.96 0 0 1-.168-.348 1.713 1.713 0 0 1-.053-.435m2.516-.778v-.277h.332l.113-.55h.234v.55h.844v.277h-.844v1.274c0 .103.028.179.082.228.056.05.148.074.274.074a2.253 2.253 0 0 0 .32-.023 2.909 2.909 0 0 0 .26-.043v.268a2.884 2.884 0 0 1-.45.08c-.066.006-.134.01-.204.01-.211 0-.37-.045-.475-.133-.105-.09-.158-.231-.158-.424v-1.31h-.328m2.656.853c0 .11.012.213.037.306a.717.717 0 0 0 .111.24.53.53 0 0 0 .184.157c.074.036.16.055.256.055a.668.668 0 0 0 .361-.092.418.418 0 0 0 .193-.232l.31.087a.674.674 0 0 1-.26.338.963.963 0 0 1-.253.117 1.22 1.22 0 0 1-.351.045c-.15 0-.284-.023-.402-.07a.779.779 0 0 1-.301-.209.95.95 0 0 1-.19-.346c-.043-.14-.064-.3-.064-.484 0-.203.025-.374.076-.512a.899.899 0 0 1 .209-.334.763.763 0 0 1 .3-.181c.115-.037.235-.055.36-.055.17 0 .315.027.432.082a.744.744 0 0 1 .289.23.928.928 0 0 1 .16.354c.034.138.05.29.05.457v.047h-1.507m.58-.91c-.06 0-.123.01-.19.029a.472.472 0 0 0-.181.1.58.58 0 0 0-.143.197.816.816 0 0 0-.062.314h1.14a1.042 1.042 0 0 0-.066-.306.58.58 0 0 0-.127-.198.424.424 0 0 0-.17-.105.644.644 0 0 0-.2-.031m1.56.056v-.277h.332l.113-.55h.234v.55h.844v.277h-.844v1.274c0 .103.028.179.082.228.056.05.147.074.274.074a2.253 2.253 0 0 0 .32-.023 2.909 2.909 0 0 0 .26-.043v.268a2.884 2.884 0 0 1-.45.08c-.066.006-.134.01-.204.01-.211 0-.37-.045-.475-.133-.106-.09-.158-.231-.158-.424v-1.31h-.328m2.74-.278v1.34c0 .103.007.189.021.258.016.069.04.125.075.168.035.041.08.071.134.09a.725.725 0 0 0 .432-.018.478.478 0 0 0 .172-.127.563.563 0 0 0 .11-.205.93.93 0 0 0 .038-.281v-1.225h.354v1.802a58.364 58.364 0 0 0 .008.25.799.799 0 0 0 .003.061h-.332a124467.806 124467.806 0 0 1-.016-.361h-.005a1.118 1.118 0 0 1-.111.166.622.622 0 0 1-.141.127.65.65 0 0 1-.184.078.886.886 0 0 1-.24.03.948.948 0 0 1-.303-.044.49.49 0 0 1-.33-.363 1.353 1.353 0 0 1-.037-.338v-1.408h.352m3.726.32a2.683 2.683 0 0 0-.414-.037.642.642 0 0 0-.515.248.83.83 0 0 0-.14.266c-.03.101-.046.21-.046.324v.992h-.352v-1.369c0-.073-.003-.147-.011-.223a4.093 4.093 0 0 0-.09-.521h.334c.009.031.018.067.027.107a2.638 2.638 0 0 1 .067.381h.01c.036-.08.074-.153.115-.219a.61.61 0 0 1 .34-.271.884.884 0 0 1 .273-.037 2.334 2.334 0 0 1 .402.033v.326m4.907 1.576a.444.444 0 0 0 .115-.013v.218a1.183 1.183 0 0 1-.272.032.52.52 0 0 1-.172-.026.283.283 0 0 1-.115-.08.377.377 0 0 1-.068-.133.827.827 0 0 1-.03-.185h-.011a1.18 1.18 0 0 1-.121.183.71.71 0 0 1-.153.141.699.699 0 0 1-.197.088.95.95 0 0 1-.256.031c-.205 0-.36-.056-.465-.168-.104-.112-.156-.266-.156-.46 0-.14.026-.254.077-.343.052-.09.12-.16.203-.21a.829.829 0 0 1 .283-.106c.107-.02.215-.032.324-.033l.461-.008v-.115a.788.788 0 0 0-.027-.223.34.34 0 0 0-.08-.148.302.302 0 0 0-.135-.082.606.606 0 0 0-.192-.028.93.93 0 0 0-.177.016.336.336 0 0 0-.135.053.29.29 0 0 0-.094.103.453.453 0 0 0-.047.164l-.367-.033a.757.757 0 0 1 .072-.229.55.55 0 0 1 .153-.181.699.699 0 0 1 .244-.117c.099-.029.218-.043.357-.043.26 0 .456.06.586.183.132.121.197.297.197.528v.91c0 .104.014.183.041.236.028.052.08.078.157.078m-1.19-.011c.108 0 .202-.02.282-.061a.64.64 0 0 0 .316-.363.665.665 0 0 0 .039-.217v-.174l-.371.008a1.764 1.764 0 0 0-.217.017.562.562 0 0 0-.195.061.372.372 0 0 0-.14.137.444.444 0 0 0-.056.236c0 .107.03.193.086.258.059.065.144.098.256.098m3.121-.112a.655.655 0 0 1-.254.299.776.776 0 0 1-.394.092c-.263 0-.456-.09-.58-.272-.124-.18-.186-.453-.186-.818 0-.737.256-1.105.766-1.105.157 0 .289.028.394.083a.601.601 0 0 1 .256.276h.004l-.002-.05a671.33 671.33 0 0 1-.002-.245v-.818h.352v2.609a23.417 23.417 0 0 0 .012.289h-.336a2.796 2.796 0 0 1-.02-.34h-.01m-1.05-.71c0 .145.009.27.027.374.02.104.049.19.088.258.04.068.092.118.154.15a.497.497 0 0 0 .225.047c.09 0 .169-.015.238-.047a.419.419 0 0 0 .176-.148.733.733 0 0 0 .107-.268c.025-.109.037-.242.037-.398 0-.151-.012-.277-.037-.379a.651.651 0 0 0-.105-.248.398.398 0 0 0-.174-.135.644.644 0 0 0-.457.004.376.376 0 0 0-.156.145.794.794 0 0 0-.092.26c-.021.105-.031.233-.031.384m3.22.774h.742v.277h-1.917v-.277h.824v-1.559h-.623v-.277h.974v1.836m-.39-2.246v-.375h.39v.375h-.39m3.463 1.457c0 .16-.013.308-.04.443a1.038 1.038 0 0 1-.128.35.657.657 0 0 1-.237.23.73.73 0 0 1-.361.082c-.072 0-.14-.006-.205-.02a.696.696 0 0 1-.182-.062.571.571 0 0 1-.26-.277h-.01a3.292 3.292 0 0 1 .008.324v.826h-.353v-2.506c0-.052 0-.102-.002-.15a3.66 3.66 0 0 0-.01-.287h.342a1.653 1.653 0 0 1 .02.348h.008a.88.88 0 0 1 .109-.176.56.56 0 0 1 .316-.192.94.94 0 0 1 .22-.023.76.76 0 0 1 .36.078.616.616 0 0 1 .237.223c.06.095.103.21.129.343.026.134.039.283.039.446m-.364 0c0-.13-.007-.246-.023-.348a.749.749 0 0 0-.082-.256.394.394 0 0 0-.152-.16.463.463 0 0 0-.237-.055.627.627 0 0 0-.217.037.39.39 0 0 0-.177.131.72.72 0 0 0-.12.262 1.788 1.788 0 0 0-.042.432c0 .15.011.276.035.378.025.102.06.185.107.249a.398.398 0 0 0 .174.134.638.638 0 0 0 .236.041.474.474 0 0 0 .239-.054.404.404 0 0 0 .152-.164.798.798 0 0 0 .082-.266c.017-.106.025-.226.025-.361m2.088.789h.742v.277h-1.917v-.277h.824v-1.559h-.623v-.277h.974v1.836m-.39-2.246v-.375h.39v.375h-.39m3.404 1.92c0 .098-.02.188-.059.267a.553.553 0 0 1-.166.203.809.809 0 0 1-.27.127c-.105.03-.226.045-.362.045a1.84 1.84 0 0 1-.332-.027.834.834 0 0 1-.258-.086.585.585 0 0 1-.188-.16.687.687 0 0 1-.11-.25l.311-.06c.016.07.04.128.075.171a.357.357 0 0 0 .125.096.59.59 0 0 0 .17.045c.063.006.132.01.207.01.075 0 .145-.006.209-.016a.542.542 0 0 0 .168-.057.31.31 0 0 0 .109-.103.289.289 0 0 0 .04-.159.23.23 0 0 0-.05-.156.38.38 0 0 0-.135-.101 1.074 1.074 0 0 0-.205-.07l-.256-.067a5.392 5.392 0 0 1-.248-.072.928.928 0 0 1-.22-.102.53.53 0 0 1-.157-.162.476.476 0 0 1-.058-.248c0-.192.069-.341.207-.45.138-.107.338-.161.6-.161.102 0 .199.01.289.029.09.018.17.048.24.09a.562.562 0 0 1 .275.389l-.316.038a.29.29 0 0 0-.059-.142.316.316 0 0 0-.111-.086.46.46 0 0 0-.147-.045 1.217 1.217 0 0 0-.172-.012c-.319 0-.478.099-.478.295 0 .06.014.109.041.147a.334.334 0 0 0 .12.091c.05.025.11.047.18.065a12.406 12.406 0 0 1 .493.13c.09.028.171.065.244.11a.572.572 0 0 1 .182.176c.048.07.072.16.072.268m.582-.456c0-.212.028-.388.084-.529a.793.793 0 0 1 .535-.512 1.25 1.25 0 0 1 .703-.003c.1.032.186.077.258.134a.7.7 0 0 1 .178.2c.045.076.077.159.094.248l-.375.027a.445.445 0 0 0-.157-.28c-.083-.068-.201-.103-.355-.103a.658.658 0 0 0-.283.055.445.445 0 0 0-.184.156.705.705 0 0 0-.1.254c-.02.1-.029.215-.029.346 0 .13.01.247.03.351.02.103.053.19.1.262a.464.464 0 0 0 .183.164c.076.038.17.057.28.057.142 0 .258-.035.35-.104a.464.464 0 0 0 .172-.316l.371.023a.72.72 0 0 1-.261.465.902.902 0 0 1-.266.148c-.103.037-.22.055-.35.055a1.11 1.11 0 0 1-.455-.084.805.805 0 0 1-.302-.23.96.96 0 0 1-.168-.348 1.713 1.713 0 0 1-.053-.436m3.6.782h.742v.277h-1.918v-.277h.824v-1.559h-.623v-.277h.974v1.836m-.39-2.246v-.375h.39v.375h-.39m3.03 2.523v-1.357a.825.825 0 0 0-.034-.256.38.38 0 0 0-.09-.16.3.3 0 0 0-.135-.084.596.596 0 0 0-.388.021.506.506 0 0 0-.176.127.592.592 0 0 0-.117.205.833.833 0 0 0-.043.28v1.224h-.352v-1.662c0-.044 0-.09-.002-.139a4.439 4.439 0 0 0-.01-.312h.332a2.991 2.991 0 0 1 .016.361h.006a.873.873 0 0 1 .11-.166.638.638 0 0 1 .333-.205.853.853 0 0 1 .233-.03c.108 0 .204.015.287.044a.506.506 0 0 1 .209.132c.057.06.1.137.129.23.03.095.045.207.045.339v1.408h-.354m1.904.828c-.117 0-.22-.012-.31-.037a.724.724 0 0 1-.23-.107.585.585 0 0 1-.24-.377l.359-.05c.022.098.07.173.142.225.074.054.171.08.291.08a.56.56 0 0 0 .2-.033.359.359 0 0 0 .152-.107.474.474 0 0 0 .097-.19c.024-.078.036-.173.036-.285v-.379h-.004a.8.8 0 0 1-.096.153.605.605 0 0 1-.139.13.699.699 0 0 1-.435.126.812.812 0 0 1-.34-.065.557.557 0 0 1-.23-.195.921.921 0 0 1-.133-.328 2.287 2.287 0 0 1-.041-.461c0-.17.013-.323.04-.455a.96.96 0 0 1 .135-.336.61.61 0 0 1 .243-.211.825.825 0 0 1 .363-.072c.147 0 .275.034.383.103.11.068.193.165.252.291h.006a3.293 3.293 0 0 1 .015-.316.49.49 0 0 1 .008-.045h.334a7.174 7.174 0 0 0-.012.438v1.613c0 .295-.069.517-.207.666-.138.15-.35.224-.638.224m.496-1.904c0-.147-.016-.272-.047-.375a.725.725 0 0 0-.125-.25.449.449 0 0 0-.176-.14.529.529 0 0 0-.428.002.364.364 0 0 0-.158.14.692.692 0 0 0-.092.25c-.02.101-.029.226-.029.373 0 .152.01.28.03.38.019.102.049.184.09.245a.35.35 0 0 0 .155.13.62.62 0 0 0 .428-.003.478.478 0 0 0 .178-.137.705.705 0 0 0 .125-.244c.032-.102.049-.225.049-.371m3.728.094c0 .11.013.212.037.306a.717.717 0 0 0 .112.24.53.53 0 0 0 .183.157c.075.036.16.054.256.054a.668.668 0 0 0 .361-.092.418.418 0 0 0 .193-.232l.31.088a.674.674 0 0 1-.26.338.963.963 0 0 1-.252.117 1.22 1.22 0 0 1-.352.045c-.15 0-.284-.023-.402-.07a.779.779 0 0 1-.301-.21.95.95 0 0 1-.19-.345c-.042-.14-.064-.3-.064-.484 0-.203.026-.374.076-.512a.899.899 0 0 1 .21-.334.763.763 0 0 1 .3-.182c.115-.036.234-.054.36-.054.17 0 .314.027.431.082a.744.744 0 0 1 .29.23.928.928 0 0 1 .16.354c.033.138.05.29.05.457v.047H67.54m.58-.91c-.06 0-.123.01-.19.029a.472.472 0 0 0-.18.1.58.58 0 0 0-.143.197.816.816 0 0 0-.063.314h1.14a1.042 1.042 0 0 0-.066-.307.58.58 0 0 0-.127-.197.424.424 0 0 0-.17-.105.644.644 0 0 0-.2-.032m2.626 1.616h.742v.277h-1.917v-.277h.824V51.37h-.565v-.277h.916v2.62m2.416 0h.742v.278h-1.917v-.277h.824v-1.559h-.623v-.277h.974v1.836m-.39-2.246v-.375h.39v.375h-.39m1.705.687v-.277h.332l.113-.551h.234v.55H76v.278h-.844v1.274c0 .102.028.179.082.228.056.05.148.074.274.074a2.253 2.253 0 0 0 .32-.023 2.909 2.909 0 0 0 .26-.043v.267a2.884 2.884 0 0 1-.45.08c-.066.007-.134.01-.204.01-.211 0-.37-.044-.475-.133-.105-.09-.158-.23-.158-.423v-1.31h-.328m2.996 1.835v-.584h.459v.584h-.46m-63.528 4.656c0 .219-.026.412-.079.58a1.15 1.15 0 0 1-.226.42.952.952 0 0 1-.365.258 1.306 1.306 0 0 1-.489.086h-.722v-2.635h.607c.206 0 .387.026.545.076a.98.98 0 0 1 .4.233c.108.105.19.24.245.402.056.163.084.356.084.58m-.375 0c0-.176-.019-.326-.055-.45a.73.73 0 0 0-.166-.306.65.65 0 0 0-.28-.173 1.244 1.244 0 0 0-.396-.057h-.236v2.025h.316c.276 0 .481-.086.615-.26.134-.173.202-.432.202-.779m2.718.285c0 .185-.022.347-.066.485a.911.911 0 0 1-.188.342.77.77 0 0 1-.3.205c-.118.044-.25.066-.399.066-.142 0-.27-.022-.387-.066a.76.76 0 0 1-.294-.203.949.949 0 0 1-.188-.342 1.597 1.597 0 0 1-.066-.487c0-.363.082-.636.246-.818.165-.184.399-.275.7-.275.319 0 .555.09.71.271.155.181.232.455.232.822m-.369 0c0-.164-.014-.3-.043-.406a.677.677 0 0 0-.117-.256.39.39 0 0 0-.178-.133.643.643 0 0 0-.228-.039.652.652 0 0 0-.235.041.42.42 0 0 0-.185.137.72.72 0 0 0-.121.256c-.029.107-.043.24-.043.4 0 .164.015.3.045.409a.744.744 0 0 0 .123.255.432.432 0 0 0 .18.135c.068.026.14.04.214.04a.713.713 0 0 0 .235-.038.423.423 0 0 0 .187-.135.679.679 0 0 0 .121-.257c.03-.108.045-.245.045-.409m2.32 1.059v-1.357a.825.825 0 0 0-.033-.256.38.38 0 0 0-.09-.16.3.3 0 0 0-.134-.084.597.597 0 0 0-.389.021.506.506 0 0 0-.176.127.592.592 0 0 0-.117.205.833.833 0 0 0-.043.28v1.224h-.352v-1.662c0-.044 0-.09-.002-.139a4.439 4.439 0 0 0-.01-.312h.333a2.991 2.991 0 0 1 .016.361h.005a.873.873 0 0 1 .11-.166.638.638 0 0 1 .334-.205.853.853 0 0 1 .232-.03c.108 0 .204.015.287.044a.506.506 0 0 1 .21.132c.056.06.1.137.128.23.03.095.045.207.045.339v1.408h-.354m1.333-.982c0 .11.012.212.037.306a.717.717 0 0 0 .111.24.53.53 0 0 0 .184.157c.074.036.16.054.255.054a.668.668 0 0 0 .361-.092.418.418 0 0 0 .193-.232l.31.088a.674.674 0 0 1-.26.338.963.963 0 0 1-.252.117 1.22 1.22 0 0 1-.352.045c-.15 0-.283-.023-.402-.07a.779.779 0 0 1-.3-.21.95.95 0 0 1-.19-.345c-.043-.14-.065-.3-.065-.484 0-.203.026-.374.077-.512a.899.899 0 0 1 .209-.334.763.763 0 0 1 .3-.182c.115-.036.235-.054.36-.054.17 0 .314.027.431.082a.744.744 0 0 1 .29.23.928.928 0 0 1 .16.354c.033.138.05.29.05.457v.047h-1.507m.58-.91c-.06 0-.123.01-.19.029a.472.472 0 0 0-.181.1.58.58 0 0 0-.143.197.816.816 0 0 0-.063.314h1.141a1.042 1.042 0 0 0-.066-.307.58.58 0 0 0-.127-.197.424.424 0 0 0-.17-.105.644.644 0 0 0-.201-.032m1.443.834c0-.212.028-.388.084-.529a.793.793 0 0 1 .535-.512 1.25 1.25 0 0 1 .703-.004c.1.033.186.078.258.135a.7.7 0 0 1 .178.2c.045.076.077.159.094.248l-.375.027a.445.445 0 0 0-.157-.28c-.083-.068-.202-.103-.355-.103a.658.658 0 0 0-.283.055.445.445 0 0 0-.184.156.705.705 0 0 0-.1.254c-.02.1-.029.215-.029.346 0 .13.01.247.03.351.02.103.053.19.099.262a.464.464 0 0 0 .184.164c.076.038.17.057.28.057.141 0 .258-.035.35-.104a.464.464 0 0 0 .172-.316l.371.023a.72.72 0 0 1-.261.465.902.902 0 0 1-.266.148c-.103.037-.22.055-.35.055a1.11 1.11 0 0 1-.455-.084.805.805 0 0 1-.302-.23.96.96 0 0 1-.168-.348 1.713 1.713 0 0 1-.053-.436m6.693.842a.444.444 0 0 0 .116-.013v.218a1.183 1.183 0 0 1-.272.032.52.52 0 0 1-.172-.026.283.283 0 0 1-.115-.08.377.377 0 0 1-.068-.133.827.827 0 0 1-.03-.185h-.011a1.18 1.18 0 0 1-.122.183.709.709 0 0 1-.152.14.699.699 0 0 1-.197.089.95.95 0 0 1-.256.031c-.206 0-.36-.056-.465-.168-.104-.112-.156-.266-.156-.46 0-.14.025-.254.076-.343.052-.09.12-.16.203-.21a.829.829 0 0 1 .283-.106c.107-.02.215-.032.325-.033l.46-.008v-.115a.788.788 0 0 0-.027-.223.34.34 0 0 0-.08-.148.302.302 0 0 0-.135-.082.606.606 0 0 0-.191-.028.93.93 0 0 0-.178.016.336.336 0 0 0-.135.053.29.29 0 0 0-.093.103.453.453 0 0 0-.047.164l-.367-.033a.757.757 0 0 1 .072-.229.55.55 0 0 1 .152-.181.699.699 0 0 1 .244-.117c.1-.029.219-.043.358-.043.26 0 .456.06.586.183.131.121.197.297.197.528v.91c0 .104.014.183.041.236.027.052.08.078.156.078m-1.19-.012c.109 0 .203-.02.282-.06a.64.64 0 0 0 .317-.363.665.665 0 0 0 .039-.217v-.174l-.372.008a1.764 1.764 0 0 0-.216.017.562.562 0 0 0-.196.061.372.372 0 0 0-.14.137.444.444 0 0 0-.055.236c0 .107.029.193.086.258.059.065.144.097.256.097m1.808-1.607v-.277h.332l.114-.551h.234v.55h.844v.278h-.844v1.273c0 .103.027.18.082.229.056.05.147.074.274.074a2.253 2.253 0 0 0 .32-.023 2.909 2.909 0 0 0 .26-.043v.267a2.884 2.884 0 0 1-.45.08c-.066.007-.134.01-.205.01-.21 0-.369-.044-.474-.133-.106-.09-.158-.23-.158-.423v-1.31h-.329m5.463 1.835v-1.34c0-.103-.004-.189-.011-.258a.587.587 0 0 0-.04-.166.173.173 0 0 0-.068-.09.183.183 0 0 0-.103-.027.159.159 0 0 0-.116.05.401.401 0 0 0-.087.142.95.95 0 0 0-.057.218c-.013.085-.02.18-.02.285v1.186h-.33v-1.662c0-.044 0-.09-.002-.139a4.439 4.439 0 0 0-.01-.312h.292a7.23 7.23 0 0 1 .012.342h.003c.017-.051.037-.1.06-.145a.526.526 0 0 1 .085-.123.377.377 0 0 1 .277-.113c.115 0 .2.03.256.093a.585.585 0 0 1 .123.29h.004a1.11 1.11 0 0 1 .076-.163.51.51 0 0 1 .098-.12.38.38 0 0 1 .125-.075.476.476 0 0 1 .162-.025.43.43 0 0 1 .201.043.326.326 0 0 1 .133.132c.034.06.058.137.072.23.016.095.024.207.024.339v1.408h-.329v-1.34c0-.103-.003-.189-.011-.258a.587.587 0 0 0-.04-.166.173.173 0 0 0-.068-.09.183.183 0 0 0-.103-.027c-.086 0-.155.055-.205.164-.05.11-.075.274-.075.492v1.225h-.328m1.99-.982c0 .11.013.212.038.306a.717.717 0 0 0 .111.24.53.53 0 0 0 .184.157c.074.036.16.054.255.054a.668.668 0 0 0 .361-.092.418.418 0 0 0 .193-.232l.31.088a.674.674 0 0 1-.26.338.963.963 0 0 1-.252.117 1.22 1.22 0 0 1-.352.045c-.15 0-.283-.023-.402-.07a.779.779 0 0 1-.3-.21.95.95 0 0 1-.19-.345c-.043-.14-.065-.3-.065-.484 0-.203.026-.374.077-.512a.899.899 0 0 1 .209-.334.763.763 0 0 1 .3-.182c.115-.036.235-.054.36-.054.17 0 .314.027.431.082a.744.744 0 0 1 .29.23.928.928 0 0 1 .16.354c.033.138.05.29.05.457v.047H36.36m.58-.91c-.06 0-.123.01-.19.029a.472.472 0 0 0-.181.1.58.58 0 0 0-.143.197.816.816 0 0 0-.063.314h1.141a1.042 1.042 0 0 0-.066-.307.58.58 0 0 0-.127-.197.424.424 0 0 0-.17-.105.644.644 0 0 0-.201-.032m1.56.057v-.277h.332l.114-.551h.234v.55h.844v.278h-.844v1.273c0 .103.027.18.082.229.056.05.147.074.273.074a2.253 2.253 0 0 0 .32-.023 2.909 2.909 0 0 0 .26-.043v.267a2.884 2.884 0 0 1-.449.08c-.066.007-.135.01-.205.01-.21 0-.369-.044-.474-.133-.106-.09-.159-.23-.159-.423v-1.31H38.5m2.74-.278v1.34c0 .102.008.188.022.257.016.07.04.125.074.168.035.042.08.072.135.09a.725.725 0 0 0 .432-.017.478.478 0 0 0 .171-.127.563.563 0 0 0 .11-.205.93.93 0 0 0 .039-.282v-1.224h.353v1.802a58.364 58.364 0 0 0 .008.25.799.799 0 0 0 .004.061h-.332a124467.806 124467.806 0 0 1-.016-.361h-.006a1.118 1.118 0 0 1-.11.166.622.622 0 0 1-.142.127.65.65 0 0 1-.183.078.886.886 0 0 1-.24.03.948.948 0 0 1-.303-.044.49.49 0 0 1-.33-.363 1.353 1.353 0 0 1-.037-.338v-1.408h.351m3.756 1.51c0 .098-.02.188-.058.267a.553.553 0 0 1-.166.203.809.809 0 0 1-.27.127c-.105.03-.227.045-.363.045a1.84 1.84 0 0 1-.332-.027.834.834 0 0 1-.258-.086.585.585 0 0 1-.188-.16.687.687 0 0 1-.109-.25l.31-.06c.016.07.04.128.075.171a.357.357 0 0 0 .125.096.59.59 0 0 0 .17.045c.064.006.133.01.207.01.075 0 .145-.006.209-.016a.542.542 0 0 0 .168-.057.31.31 0 0 0 .11-.103.289.289 0 0 0 .04-.159.23.23 0 0 0-.05-.156.38.38 0 0 0-.135-.101 1.074 1.074 0 0 0-.206-.07l-.255-.067a5.392 5.392 0 0 1-.248-.072.928.928 0 0 1-.221-.102.53.53 0 0 1-.156-.162.476.476 0 0 1-.059-.248c0-.192.069-.341.207-.45.138-.107.338-.161.6-.161.103 0 .199.01.289.029.09.018.17.048.24.09a.562.562 0 0 1 .275.389l-.316.038a.29.29 0 0 0-.059-.142.316.316 0 0 0-.111-.086.46.46 0 0 0-.146-.045 1.217 1.217 0 0 0-.172-.012c-.32 0-.479.099-.479.295 0 .06.014.109.041.147a.334.334 0 0 0 .12.091c.05.025.11.047.181.065a12.406 12.406 0 0 1 .492.13c.09.028.171.065.244.11a.572.572 0 0 1 .182.176c.048.07.072.16.072.267m4.877.387a.444.444 0 0 0 .115-.013v.218a1.183 1.183 0 0 1-.271.032.52.52 0 0 1-.172-.026.283.283 0 0 1-.115-.08.377.377 0 0 1-.069-.133.827.827 0 0 1-.029-.185h-.012a1.18 1.18 0 0 1-.12.183.709.709 0 0 1-.153.14.699.699 0 0 1-.197.089.95.95 0 0 1-.256.031c-.206 0-.36-.056-.465-.168-.104-.112-.156-.266-.156-.46 0-.14.025-.254.076-.343.052-.09.12-.16.203-.21a.829.829 0 0 1 .283-.106c.107-.02.215-.032.324-.033l.461-.008v-.115a.788.788 0 0 0-.027-.223.34.34 0 0 0-.08-.148.302.302 0 0 0-.135-.082.606.606 0 0 0-.191-.028.93.93 0 0 0-.178.016.336.336 0 0 0-.135.053.29.29 0 0 0-.093.103.453.453 0 0 0-.047.164l-.368-.033a.757.757 0 0 1 .073-.229.55.55 0 0 1 .152-.181.699.699 0 0 1 .244-.117c.1-.029.218-.043.358-.043.26 0 .455.06.586.183.131.121.197.297.197.528v.91c0 .104.014.183.04.236.028.052.08.078.157.078m-1.19-.012c.109 0 .203-.02.282-.06a.64.64 0 0 0 .316-.363.665.665 0 0 0 .04-.217v-.174l-.372.008a1.764 1.764 0 0 0-.216.017.562.562 0 0 0-.196.061.372.372 0 0 0-.14.137.444.444 0 0 0-.055.236c0 .107.029.193.086.258.058.065.144.097.256.097m1.808-1.607v-.277h.332l.114-.551h.234v.55h.844v.278h-.844v1.273c0 .103.027.18.082.229.056.05.147.074.273.074a2.253 2.253 0 0 0 .32-.023 2.909 2.909 0 0 0 .26-.043v.267a2.884 2.884 0 0 1-.449.08c-.066.007-.134.01-.205.01-.21 0-.369-.044-.474-.133-.106-.09-.159-.23-.159-.423v-1.31h-.328m5.055.853c0 .11.012.212.037.306a.717.717 0 0 0 .111.24.53.53 0 0 0 .184.157c.074.036.16.054.256.054a.668.668 0 0 0 .361-.092.418.418 0 0 0 .193-.232l.31.088a.674.674 0 0 1-.26.338.963.963 0 0 1-.253.117 1.22 1.22 0 0 1-.351.045c-.15 0-.284-.023-.402-.07a.779.779 0 0 1-.301-.21.95.95 0 0 1-.19-.345c-.043-.14-.064-.3-.064-.484 0-.203.025-.374.076-.512a.899.899 0 0 1 .209-.334.763.763 0 0 1 .3-.182c.115-.036.235-.054.36-.054.17 0 .315.027.432.082a.744.744 0 0 1 .289.23.928.928 0 0 1 .16.354c.034.138.05.29.05.457v.047h-1.507m.58-.91c-.06 0-.123.01-.19.029a.472.472 0 0 0-.181.1.58.58 0 0 0-.143.197.816.816 0 0 0-.062.314h1.14a1.042 1.042 0 0 0-.066-.307.58.58 0 0 0-.127-.197.424.424 0 0 0-.17-.105.644.644 0 0 0-.201-.032m3.26 1.29c0 .098-.02.188-.059.267a.553.553 0 0 1-.166.203.809.809 0 0 1-.27.127c-.105.03-.226.045-.363.045a1.84 1.84 0 0 1-.332-.027.834.834 0 0 1-.257-.086.585.585 0 0 1-.188-.16.687.687 0 0 1-.11-.25l.311-.06c.016.07.04.128.074.17a.357.357 0 0 0 .125.097.59.59 0 0 0 .17.045c.064.006.133.01.207.01.076 0 .146-.006.21-.016a.542.542 0 0 0 .167-.057.31.31 0 0 0 .11-.103.289.289 0 0 0 .04-.159.23.23 0 0 0-.05-.156.38.38 0 0 0-.135-.101 1.074 1.074 0 0 0-.205-.07l-.256-.067a5.392 5.392 0 0 1-.248-.072.928.928 0 0 1-.22-.102.53.53 0 0 1-.157-.162.476.476 0 0 1-.058-.248c0-.192.069-.341.207-.45.138-.107.338-.161.6-.161.102 0 .199.01.288.029.09.018.17.048.24.09a.562.562 0 0 1 .275.389l-.315.038a.29.29 0 0 0-.059-.142.316.316 0 0 0-.111-.086.46.46 0 0 0-.147-.045 1.217 1.217 0 0 0-.172-.012c-.319 0-.478.099-.478.295 0 .06.013.109.04.147a.334.334 0 0 0 .12.091c.05.025.111.047.182.065a12.404 12.404 0 0 1 .492.13c.09.028.171.065.244.11a.572.572 0 0 1 .182.176c.048.07.072.16.072.267m.7-1.232v-.277h.331l.113-.551h.235v.55h.843v.278h-.843v1.274c0 .102.027.179.082.228.056.05.147.074.273.074a2.253 2.253 0 0 0 .32-.023 2.909 2.909 0 0 0 .26-.043v.267a2.884 2.884 0 0 1-.449.08c-.066.007-.135.01-.205.01-.21 0-.37-.044-.475-.133-.105-.09-.158-.23-.158-.423v-1.31h-.328m5.055.853c0 .11.012.212.037.306a.717.717 0 0 0 .111.24.53.53 0 0 0 .184.157c.074.036.16.054.256.054a.668.668 0 0 0 .361-.092.418.418 0 0 0 .193-.232l.309.088a.674.674 0 0 1-.26.338.963.963 0 0 1-.252.117 1.22 1.22 0 0 1-.351.045c-.15 0-.284-.023-.403-.07a.779.779 0 0 1-.3-.21.95.95 0 0 1-.19-.345c-.043-.14-.064-.3-.064-.484 0-.203.025-.374.076-.512a.899.899 0 0 1 .209-.334.763.763 0 0 1 .3-.182c.115-.036.235-.054.36-.054.17 0 .314.027.432.082a.744.744 0 0 1 .289.23.928.928 0 0 1 .16.354c.034.138.05.29.05.457v.047h-1.507m.58-.91c-.06 0-.123.01-.19.029a.472.472 0 0 0-.181.1.58.58 0 0 0-.143.197.816.816 0 0 0-.062.314h1.14a1.042 1.042 0 0 0-.066-.307.58.58 0 0 0-.127-.197.424.424 0 0 0-.17-.105.644.644 0 0 0-.201-.032m2.627 1.616h.742v.277h-1.918v-.277h.824V57.37h-.564v-.277h.916v2.62m1.59-.704c0 .11.012.212.037.306a.717.717 0 0 0 .111.24.53.53 0 0 0 .184.157c.074.036.16.054.256.054a.668.668 0 0 0 .361-.092.418.418 0 0 0 .193-.232l.309.088a.674.674 0 0 1-.26.338.963.963 0 0 1-.252.117 1.22 1.22 0 0 1-.351.045c-.15 0-.284-.023-.403-.07a.779.779 0 0 1-.3-.21.95.95 0 0 1-.19-.345c-.043-.14-.065-.3-.065-.484 0-.203.026-.374.077-.512a.899.899 0 0 1 .209-.334.763.763 0 0 1 .3-.182c.115-.036.235-.054.36-.054.17 0 .314.027.431.082a.744.744 0 0 1 .29.23.928.928 0 0 1 .16.354c.034.138.05.29.05.457v.047h-1.507m.58-.91c-.06 0-.123.01-.19.029a.472.472 0 0 0-.181.1.58.58 0 0 0-.143.197.816.816 0 0 0-.062.314h1.14a1.042 1.042 0 0 0-.066-.307.58.58 0 0 0-.127-.197.424.424 0 0 0-.17-.105.644.644 0 0 0-.201-.032m2.644 1.616h.742v.277h-1.918v-.277h.825v-1.559h-.623v-.277h.974v1.836m-.39-2.246v-.375h.39v.375h-.39m2.466.687v1.836h-.351v-1.836h-.512v-.277h.512v-.05c0-.13.014-.243.043-.335a.508.508 0 0 1 .142-.229.588.588 0 0 1 .252-.13c.105-.028.23-.041.38-.041.037 0 .082 0 .134.003a3.143 3.143 0 0 1 .414.038v.283a2.094 2.094 0 0 0-.508-.033c-.086 0-.16.006-.224.02a.349.349 0 0 0-.159.071.318.318 0 0 0-.093.145.802.802 0 0 0-.03.238v.02h.96v.277h-.96m1.895.854c0 .11.012.212.037.306a.717.717 0 0 0 .111.24.53.53 0 0 0 .184.157c.074.036.16.054.256.054a.668.668 0 0 0 .361-.092.418.418 0 0 0 .193-.232l.31.088a.674.674 0 0 1-.26.338.963.963 0 0 1-.253.117 1.22 1.22 0 0 1-.351.045c-.15 0-.284-.023-.403-.07a.779.779 0 0 1-.3-.21.95.95 0 0 1-.19-.345c-.043-.14-.064-.3-.064-.484 0-.203.025-.374.076-.512a.899.899 0 0 1 .209-.334.763.763 0 0 1 .3-.182c.115-.036.235-.054.36-.054.17 0 .315.027.432.082a.744.744 0 0 1 .289.23.928.928 0 0 1 .16.354c.034.138.05.29.05.457v.047h-1.507m.58-.91c-.06 0-.123.01-.19.029a.472.472 0 0 0-.181.1.58.58 0 0 0-.143.197.816.816 0 0 0-.062.314h1.14a1.042 1.042 0 0 0-.066-.307.58.58 0 0 0-.127-.197.424.424 0 0 0-.17-.105.644.644 0 0 0-.201-.032m2.885 1.893v-1.357a.825.825 0 0 0-.033-.256.38.38 0 0 0-.09-.16.3.3 0 0 0-.135-.084.597.597 0 0 0-.389.021.506.506 0 0 0-.175.127.592.592 0 0 0-.118.205.833.833 0 0 0-.043.28v1.224h-.351v-1.662c0-.044 0-.09-.002-.139a4.439 4.439 0 0 0-.01-.312h.332a2.991 2.991 0 0 1 .016.361h.006a.873.873 0 0 1 .109-.166.638.638 0 0 1 .334-.205.853.853 0 0 1 .232-.03c.108 0 .204.015.288.044a.506.506 0 0 1 .209.132c.057.06.1.137.128.23.03.095.045.207.045.339v1.408h-.353m2.387-.34a.655.655 0 0 1-.254.299.776.776 0 0 1-.395.092c-.263 0-.456-.09-.58-.272-.124-.18-.186-.454-.186-.818 0-.737.256-1.106.766-1.106.158 0 .29.028.395.084a.601.601 0 0 1 .255.276h.004l-.002-.051a671.33 671.33 0 0 1-.002-.244v-.818h.352v2.609a23.417 23.417 0 0 0 .012.289h-.336a2.796 2.796 0 0 1-.02-.34h-.01m-1.05-.71c0 .145.009.27.027.374.02.104.049.19.088.258.04.068.092.118.154.15a.497.497 0 0 0 .225.047c.09 0 .169-.015.238-.047a.419.419 0 0 0 .176-.148.733.733 0 0 0 .107-.268c.025-.109.037-.242.037-.398 0-.151-.012-.277-.037-.379a.651.651 0 0 0-.105-.248.398.398 0 0 0-.174-.135.644.644 0 0 0-.457.004.376.376 0 0 0-.156.145.795.795 0 0 0-.092.26c-.021.105-.031.233-.031.384m-69.817 5.215v-.277h.332l.113-.551h.235v.55h.844v.278h-.844v1.274c0 .102.027.179.082.228.056.05.147.074.273.074a2.253 2.253 0 0 0 .32-.023 2.909 2.909 0 0 0 .26-.043v.267a2.884 2.884 0 0 1-.449.08c-.066.007-.135.01-.205.01-.21 0-.369-.044-.474-.133-.106-.09-.159-.23-.159-.423v-1.31h-.328m2.656.853c0 .11.013.212.038.306a.717.717 0 0 0 .11.24.53.53 0 0 0 .184.157c.075.036.16.054.256.054a.668.668 0 0 0 .361-.092.418.418 0 0 0 .193-.232l.31.088a.674.674 0 0 1-.26.338.963.963 0 0 1-.252.117 1.22 1.22 0 0 1-.352.045c-.15 0-.284-.023-.402-.07a.779.779 0 0 1-.3-.21.95.95 0 0 1-.19-.345c-.043-.14-.065-.3-.065-.484 0-.203.026-.374.076-.512a.899.899 0 0 1 .21-.334.763.763 0 0 1 .3-.182c.115-.036.235-.054.36-.054.17 0 .314.027.431.082a.744.744 0 0 1 .29.23.928.928 0 0 1 .16.354c.033.138.05.29.05.457v.047h-1.508m.58-.91c-.06 0-.123.01-.189.029a.472.472 0 0 0-.182.1.58.58 0 0 0-.142.197.816.816 0 0 0-.063.314h1.141a1.042 1.042 0 0 0-.066-.307.58.58 0 0 0-.127-.197.424.424 0 0 0-.17-.105.644.644 0 0 0-.201-.032m2.226 1.893v-1.34c0-.103-.004-.189-.012-.258a.587.587 0 0 0-.039-.166.173.173 0 0 0-.068-.09.183.183 0 0 0-.104-.027.159.159 0 0 0-.115.05.401.401 0 0 0-.088.142.95.95 0 0 0-.056.218c-.013.085-.02.18-.02.285v1.186h-.33v-1.662c0-.044 0-.09-.002-.139a4.439 4.439 0 0 0-.01-.312h.291a7.23 7.23 0 0 1 .012.342h.004c.017-.051.037-.1.06-.145a.526.526 0 0 1 .084-.123.377.377 0 0 1 .277-.113c.115 0 .2.03.257.093a.585.585 0 0 1 .123.29h.004a1.11 1.11 0 0 1 .076-.163.51.51 0 0 1 .097-.12.38.38 0 0 1 .125-.075.476.476 0 0 1 .163-.025.43.43 0 0 1 .2.043.326.326 0 0 1 .134.132c.033.06.058.137.072.23.015.095.023.207.023.339v1.408h-.328v-1.34c0-.103-.004-.189-.012-.258a.587.587 0 0 0-.039-.166.173.173 0 0 0-.068-.09.183.183 0 0 0-.104-.027c-.085 0-.154.055-.205.164-.05.11-.074.274-.074.492v1.225h-.328m3.49-1.066c0 .16-.013.308-.039.443a1.038 1.038 0 0 1-.129.35.657.657 0 0 1-.236.23.73.73 0 0 1-.361.082c-.072 0-.14-.006-.205-.02a.696.696 0 0 1-.182-.062.571.571 0 0 1-.26-.277h-.01a3.292 3.292 0 0 1 .008.324v.826h-.353v-2.506c0-.052 0-.102-.002-.15a3.66 3.66 0 0 0-.01-.287h.342a1.653 1.653 0 0 1 .02.348h.007a.88.88 0 0 1 .11-.176.56.56 0 0 1 .316-.192.94.94 0 0 1 .219-.023.76.76 0 0 1 .361.078.616.616 0 0 1 .236.223c.06.095.103.21.13.343.025.134.038.283.038.446m-.363 0c0-.13-.008-.246-.023-.348a.749.749 0 0 0-.082-.256.394.394 0 0 0-.153-.16.463.463 0 0 0-.236-.055.627.627 0 0 0-.217.037.39.39 0 0 0-.178.131.72.72 0 0 0-.119.262 1.788 1.788 0 0 0-.043.432c0 .15.012.276.036.379.024.101.06.184.107.248a.398.398 0 0 0 .174.134.638.638 0 0 0 .236.041.474.474 0 0 0 .238-.054.404.404 0 0 0 .153-.164.798.798 0 0 0 .082-.266c.017-.106.025-.226.025-.361m1.346-1.047v1.34c0 .102.007.188.021.257.016.07.04.125.075.168.035.042.08.072.134.09a.725.725 0 0 0 .432-.017.478.478 0 0 0 .172-.127.563.563 0 0 0 .11-.205.93.93 0 0 0 .038-.282v-1.224h.354v1.802a58.364 58.364 0 0 0 .008.25.799.799 0 0 0 .003.061h-.332a124467.806 124467.806 0 0 1-.016-.361h-.005a1.118 1.118 0 0 1-.111.166.622.622 0 0 1-.141.127.65.65 0 0 1-.184.078.886.886 0 0 1-.24.03.948.948 0 0 1-.303-.044.49.49 0 0 1-.33-.363 1.353 1.353 0 0 1-.037-.338v-1.408h.352m3.756 1.51c0 .098-.02.188-.059.267a.553.553 0 0 1-.166.203.809.809 0 0 1-.27.127c-.105.03-.226.045-.363.045a1.84 1.84 0 0 1-.332-.027.834.834 0 0 1-.258-.086.585.585 0 0 1-.187-.16.687.687 0 0 1-.11-.25l.311-.06c.016.07.04.128.074.171a.357.357 0 0 0 .125.096.59.59 0 0 0 .17.045c.064.006.133.01.207.01.076 0 .145-.006.21-.016a.542.542 0 0 0 .167-.057.31.31 0 0 0 .11-.103.289.289 0 0 0 .04-.159.23.23 0 0 0-.05-.156.38.38 0 0 0-.135-.101 1.074 1.074 0 0 0-.205-.07l-.256-.067a5.392 5.392 0 0 1-.248-.072.928.928 0 0 1-.22-.102.53.53 0 0 1-.157-.162.476.476 0 0 1-.059-.248c0-.192.07-.341.207-.45.138-.107.338-.161.6-.161.103 0 .2.01.29.029.089.018.17.048.24.09a.562.562 0 0 1 .275.389l-.317.038a.29.29 0 0 0-.058-.142.316.316 0 0 0-.112-.086.46.46 0 0 0-.146-.045 1.217 1.217 0 0 0-.172-.012c-.319 0-.478.099-.478.295 0 .06.013.109.04.147a.334.334 0 0 0 .12.091c.05.025.111.047.181.065a12.406 12.406 0 0 1 .493.13c.09.028.17.065.244.11a.572.572 0 0 1 .181.176c.049.07.073.16.073.268m1.296.603v-.584h.46v.584h-.46m6.014-1.846c0 .11-.02.215-.058.317a.736.736 0 0 1-.176.267.856.856 0 0 1-.295.188c-.119.047-.258.07-.418.07h-.549v1.004h-.373v-2.635h.898c.163 0 .305.02.426.057a.848.848 0 0 1 .303.16c.08.07.141.152.182.25.04.096.06.204.06.322m-.375.006c0-.163-.053-.286-.16-.369-.107-.085-.267-.127-.48-.127h-.48v1.037h.495a.84.84 0 0 0 .277-.04.55.55 0 0 0 .196-.116.44.44 0 0 0 .115-.172.605.605 0 0 0 .037-.213m.95-1.058h.353v.761c0 .065-.002.131-.006.198a34.05 34.05 0 0 1-.012.187h.006a.873.873 0 0 1 .11-.166.62.62 0 0 1 .324-.205.838.838 0 0 1 .228-.03.9.9 0 0 1 .29.044.536.536 0 0 1 .347.363c.031.094.047.206.047.338v1.408h-.354v-1.357a.825.825 0 0 0-.033-.256.38.38 0 0 0-.09-.16.3.3 0 0 0-.134-.084.596.596 0 0 0-.39.021.506.506 0 0 0-.175.127.592.592 0 0 0-.117.205.833.833 0 0 0-.043.28v1.224h-.352v-2.898m4.188 2.681a.444.444 0 0 0 .115-.013v.218a1.183 1.183 0 0 1-.271.032.52.52 0 0 1-.172-.026.283.283 0 0 1-.115-.08.377.377 0 0 1-.069-.133.827.827 0 0 1-.03-.185h-.01a1.18 1.18 0 0 1-.122.183.709.709 0 0 1-.152.141.699.699 0 0 1-.198.088.95.95 0 0 1-.255.031c-.206 0-.361-.056-.465-.168-.104-.112-.157-.265-.157-.46 0-.14.026-.254.077-.343.052-.09.12-.16.203-.21a.829.829 0 0 1 .283-.106c.107-.02.215-.032.324-.033l.461-.008v-.115a.788.788 0 0 0-.027-.223.34.34 0 0 0-.08-.148.302.302 0 0 0-.135-.082.606.606 0 0 0-.191-.028.93.93 0 0 0-.178.016.336.336 0 0 0-.135.053.29.29 0 0 0-.094.103.453.453 0 0 0-.047.164l-.367-.033a.757.757 0 0 1 .072-.228.55.55 0 0 1 .153-.182.699.699 0 0 1 .244-.117c.099-.029.218-.043.357-.043.26 0 .456.06.586.183.132.121.198.297.198.528v.91c0 .104.013.183.04.236.028.052.08.078.157.078m-1.19-.011c.108 0 .202-.02.282-.061a.64.64 0 0 0 .316-.363.665.665 0 0 0 .04-.217v-.174l-.372.008a1.764 1.764 0 0 0-.217.017.562.562 0 0 0-.195.061.372.372 0 0 0-.14.137.444.444 0 0 0-.055.236c0 .107.028.193.086.258.058.065.143.098.255.098m3.508-.375c0 .099-.02.188-.058.267a.553.553 0 0 1-.166.203.809.809 0 0 1-.27.127c-.105.03-.226.045-.363.045a1.84 1.84 0 0 1-.332-.027.834.834 0 0 1-.258-.086.585.585 0 0 1-.188-.16.687.687 0 0 1-.109-.25l.31-.06c.016.07.041.128.075.171a.357.357 0 0 0 .125.096.59.59 0 0 0 .17.045c.064.006.133.01.207.01.075 0 .145-.006.209-.016a.542.542 0 0 0 .168-.057.31.31 0 0 0 .11-.103.289.289 0 0 0 .04-.159.23.23 0 0 0-.05-.156.38.38 0 0 0-.135-.101 1.074 1.074 0 0 0-.205-.07l-.256-.067a5.392 5.392 0 0 1-.248-.072.928.928 0 0 1-.221-.102.53.53 0 0 1-.156-.162.476.476 0 0 1-.059-.248c0-.191.07-.341.207-.45.138-.107.338-.161.6-.161.103 0 .199.01.289.029.09.018.17.048.24.09a.562.562 0 0 1 .275.389l-.316.038a.29.29 0 0 0-.059-.142.316.316 0 0 0-.11-.086.46.46 0 0 0-.147-.045 1.217 1.217 0 0 0-.172-.012c-.32 0-.479.099-.479.295 0 .06.014.109.041.147a.334.334 0 0 0 .12.092c.05.024.11.046.181.064a12.404 12.404 0 0 1 .492.13c.09.028.171.065.244.11a.572.572 0 0 1 .182.176c.048.07.072.16.072.268m.957-.38c0 .111.013.214.037.307a.717.717 0 0 0 .112.24.53.53 0 0 0 .183.157c.075.036.16.054.256.054a.668.668 0 0 0 .361-.092.418.418 0 0 0 .193-.232l.31.088a.674.674 0 0 1-.26.338.963.963 0 0 1-.252.117 1.22 1.22 0 0 1-.352.045c-.15 0-.284-.023-.402-.07a.779.779 0 0 1-.3-.21.95.95 0 0 1-.19-.345c-.043-.14-.065-.3-.065-.484 0-.203.026-.374.076-.512a.899.899 0 0 1 .21-.334.763.763 0 0 1 .3-.182c.115-.036.234-.054.36-.054.17 0 .314.027.431.082a.744.744 0 0 1 .29.23.928.928 0 0 1 .16.354c.033.138.05.29.05.457v.047h-1.508m.58-.91c-.06 0-.123.01-.19.029a.472.472 0 0 0-.18.1.58.58 0 0 0-.143.197.816.816 0 0 0-.063.314h1.14a1.042 1.042 0 0 0-.066-.307.58.58 0 0 0-.127-.197.424.424 0 0 0-.17-.105.644.644 0 0 0-.2-.032m2.626 1.616h.743v.277h-1.918v-.277h.824V63.37h-.565v-.277h.916v2.62m2.399 0h.742v.278h-1.918v-.277h.824V63.37h-.564v-.277h.916v2.62m1.674-1.835v1.34c0 .102.007.188.021.257.016.07.04.125.074.168.035.042.08.072.135.09a.725.725 0 0 0 .432-.017.478.478 0 0 0 .172-.127.563.563 0 0 0 .109-.205.93.93 0 0 0 .039-.282v-1.224h.354v1.802a58.364 58.364 0 0 0 .007.25.799.799 0 0 0 .004.061h-.332a124467.806 124467.806 0 0 1-.016-.361h-.005a1.118 1.118 0 0 1-.112.166.622.622 0 0 1-.14.127.65.65 0 0 1-.184.078.886.886 0 0 1-.24.03.948.948 0 0 1-.303-.044.49.49 0 0 1-.33-.363 1.353 1.353 0 0 1-.037-.338v-1.408h.351m3.756 1.51c0 .099-.02.188-.058.267a.553.553 0 0 1-.166.203.809.809 0 0 1-.27.127c-.105.03-.226.045-.363.045a1.84 1.84 0 0 1-.332-.027.834.834 0 0 1-.258-.086.585.585 0 0 1-.187-.16.687.687 0 0 1-.11-.25l.31-.06c.016.07.041.128.075.171a.357.357 0 0 0 .125.096.59.59 0 0 0 .17.045c.064.006.133.01.207.01.075 0 .145-.006.209-.016a.542.542 0 0 0 .168-.057.31.31 0 0 0 .11-.103.289.289 0 0 0 .04-.159.23.23 0 0 0-.05-.156.38.38 0 0 0-.135-.101 1.074 1.074 0 0 0-.205-.07l-.256-.067a5.392 5.392 0 0 1-.248-.072.928.928 0 0 1-.221-.102.53.53 0 0 1-.156-.162.476.476 0 0 1-.059-.248c0-.191.07-.341.207-.45.138-.107.338-.161.6-.161.103 0 .199.01.289.029.09.018.17.048.24.09a.562.562 0 0 1 .275.389l-.316.038a.29.29 0 0 0-.059-.142.316.316 0 0 0-.11-.086.46.46 0 0 0-.147-.045 1.217 1.217 0 0 0-.172-.012c-.32 0-.479.099-.479.295 0 .06.014.109.041.147a.334.334 0 0 0 .12.092c.05.024.11.046.181.064a12.406 12.406 0 0 1 .492.13c.09.028.171.065.244.11a.572.572 0 0 1 .182.176c.048.07.072.16.072.268m4.856-.463c0 .37-.067.646-.2.83a.654.654 0 0 1-.566.275.86.86 0 0 1-.392-.084.582.582 0 0 1-.26-.275h-.004a2.854 2.854 0 0 1-.018.32h-.34a8.568 8.568 0 0 0 .012-.436v-2.462h.352v.826c0 .038 0 .075-.002.113a2.101 2.101 0 0 1-.006.193h.008a.621.621 0 0 1 .257-.296.79.79 0 0 1 .395-.094c.254 0 .445.09.572.271.128.18.192.453.192.819m-.364.011c0-.145-.01-.27-.029-.375a.737.737 0 0 0-.092-.257.375.375 0 0 0-.154-.149.578.578 0 0 0-.453-.004.406.406 0 0 0-.176.145.763.763 0 0 0-.11.265c-.025.11-.038.245-.038.407 0 .155.013.284.039.386a.695.695 0 0 0 .11.248.403.403 0 0 0 .173.131.68.68 0 0 0 .23.037.496.496 0 0 0 .217-.045.376.376 0 0 0 .156-.144.763.763 0 0 0 .094-.258c.022-.107.033-.236.033-.387m2.07.778h.743v.277h-1.918v-.277h.824V63.37h-.564v-.277h.916v2.62m3.111.061a.444.444 0 0 0 .115-.013v.218a1.183 1.183 0 0 1-.271.032.52.52 0 0 1-.172-.026.283.283 0 0 1-.115-.08.377.377 0 0 1-.069-.133.827.827 0 0 1-.029-.185h-.012a1.18 1.18 0 0 1-.12.183.71.71 0 0 1-.153.141.699.699 0 0 1-.197.088.95.95 0 0 1-.256.031c-.206 0-.361-.056-.465-.168-.104-.112-.156-.265-.156-.46 0-.14.025-.254.076-.343.052-.09.12-.16.203-.21a.829.829 0 0 1 .283-.106c.107-.02.215-.032.324-.033l.461-.008v-.115a.788.788 0 0 0-.027-.223.34.34 0 0 0-.08-.148.302.302 0 0 0-.135-.082.606.606 0 0 0-.191-.028.93.93 0 0 0-.178.016.336.336 0 0 0-.135.053.29.29 0 0 0-.094.103.453.453 0 0 0-.046.164l-.368-.033a.757.757 0 0 1 .073-.228.55.55 0 0 1 .152-.182.699.699 0 0 1 .244-.117c.1-.029.218-.043.358-.043.26 0 .455.06.585.183.132.121.198.297.198.528v.91c0 .104.013.183.04.236.028.052.08.078.157.078m-1.19-.011c.109 0 .202-.02.282-.061a.64.64 0 0 0 .316-.363.665.665 0 0 0 .04-.217v-.174l-.372.008a1.764 1.764 0 0 0-.217.017.562.562 0 0 0-.195.061.372.372 0 0 0-.14.137.444.444 0 0 0-.055.236c0 .107.028.193.086.258.058.065.144.098.256.098m3.132.228v-1.357a.825.825 0 0 0-.033-.256.38.38 0 0 0-.09-.16.3.3 0 0 0-.134-.084.596.596 0 0 0-.39.021.506.506 0 0 0-.175.127.592.592 0 0 0-.117.205.833.833 0 0 0-.043.28v1.224h-.352V64.33c0-.044 0-.09-.002-.139a4.439 4.439 0 0 0-.01-.312h.333a2.991 2.991 0 0 1 .016.361h.005a.873.873 0 0 1 .11-.166.638.638 0 0 1 .334-.205.853.853 0 0 1 .232-.03c.108 0 .204.015.287.044a.506.506 0 0 1 .21.133c.056.06.1.136.128.23.03.094.045.206.045.338v1.408h-.354m2.387-.34a.655.655 0 0 1-.254.299.776.776 0 0 1-.394.092c-.263 0-.457-.09-.58-.272-.124-.18-.186-.453-.186-.818 0-.737.255-1.105.766-1.105.157 0 .289.028.394.084a.601.601 0 0 1 .256.275h.004l-.002-.05a671.33 671.33 0 0 1-.002-.245v-.818h.352v2.609a23.417 23.417 0 0 0 .011.29h-.336a2.796 2.796 0 0 1-.02-.34h-.01m-1.05-.712c0 .146.01.271.027.375.02.104.05.19.088.258.04.068.092.118.155.15a.497.497 0 0 0 .224.047c.09 0 .17-.015.239-.047a.419.419 0 0 0 .175-.148.733.733 0 0 0 .108-.268c.024-.109.037-.242.037-.398 0-.151-.013-.277-.037-.379a.651.651 0 0 0-.106-.248.398.398 0 0 0-.174-.135.644.644 0 0 0-.457.004.376.376 0 0 0-.156.145.794.794 0 0 0-.092.26c-.02.105-.03.233-.03.384m3.22.774h.742v.277h-1.918v-.277h.824v-1.559h-.623v-.277h.975v1.836m-.39-2.246v-.375h.39v.375h-.39m1.704.687v-.277h.332l.114-.551h.234v.55h.844v.278h-.844v1.274c0 .102.027.179.082.228.056.05.147.074.273.074a2.253 2.253 0 0 0 .32-.023 2.909 2.909 0 0 0 .26-.043v.267a2.884 2.884 0 0 1-.449.08c-.066.007-.134.01-.205.01-.21 0-.369-.044-.474-.133-.106-.09-.159-.23-.159-.423v-1.31h-.328m-55.863 7.232c0 .099-.02.188-.059.267a.553.553 0 0 1-.166.203.809.809 0 0 1-.27.127c-.105.03-.226.045-.362.045a1.84 1.84 0 0 1-.332-.027.834.834 0 0 1-.258-.086.585.585 0 0 1-.188-.16.687.687 0 0 1-.11-.25l.311-.06c.016.07.04.128.075.171a.357.357 0 0 0 .125.096.59.59 0 0 0 .17.045c.063.006.132.01.207.01.075 0 .145-.006.209-.016a.542.542 0 0 0 .168-.057.31.31 0 0 0 .109-.103.289.289 0 0 0 .04-.159.23.23 0 0 0-.05-.156.38.38 0 0 0-.135-.101 1.074 1.074 0 0 0-.205-.07l-.256-.067a5.392 5.392 0 0 1-.248-.072.928.928 0 0 1-.22-.102.53.53 0 0 1-.157-.162.476.476 0 0 1-.058-.248c0-.191.069-.341.207-.45.138-.107.338-.161.6-.161.102 0 .199.01.289.029.09.018.17.048.24.09a.562.562 0 0 1 .275.389l-.316.038a.29.29 0 0 0-.059-.142.316.316 0 0 0-.111-.086.46.46 0 0 0-.147-.045 1.217 1.217 0 0 0-.172-.012c-.319 0-.478.099-.478.295 0 .06.014.109.041.147a.334.334 0 0 0 .12.092c.05.024.11.046.18.064a12.406 12.406 0 0 1 .493.13c.09.028.171.065.244.11a.572.572 0 0 1 .182.176c.048.07.072.16.072.268m2.47-.456c0 .185-.021.347-.066.485a.911.911 0 0 1-.187.342.77.77 0 0 1-.301.205c-.117.044-.25.066-.398.066-.142 0-.271-.022-.387-.066a.76.76 0 0 1-.295-.203.949.949 0 0 1-.188-.342 1.597 1.597 0 0 1-.066-.487c0-.363.082-.636.246-.818.165-.183.4-.275.701-.275.318 0 .554.09.71.271.154.181.232.455.232.822m-.37 0c0-.164-.014-.299-.042-.406a.677.677 0 0 0-.118-.256.39.39 0 0 0-.177-.132.643.643 0 0 0-.229-.04.652.652 0 0 0-.234.042.42.42 0 0 0-.186.136.72.72 0 0 0-.12.256c-.03.107-.044.24-.044.4 0 .165.015.3.045.409a.744.744 0 0 0 .123.256.432.432 0 0 0 .18.134c.069.026.14.04.215.04a.713.713 0 0 0 .234-.038.423.423 0 0 0 .188-.135.679.679 0 0 0 .12-.257c.03-.108.046-.244.046-.409m2.062.782h.742v.277h-1.918v-.277h.824V69.37h-.564v-.277h.916v2.62m2.398 0h.743v.278h-1.918v-.277h.824V69.37h-.565v-.277h.916v2.62m2.417 0h.742v.278h-1.918v-.277h.824v-1.559h-.623v-.277h.975v1.836m-.391-2.246v-.375h.39v.375h-.39m1.588 1.464c0-.212.028-.388.084-.529a.793.793 0 0 1 .535-.512 1.25 1.25 0 0 1 .703-.003c.1.032.186.077.258.134a.7.7 0 0 1 .178.2c.045.076.076.16.093.248l-.375.027a.445.445 0 0 0-.156-.28c-.083-.068-.202-.103-.355-.103a.658.658 0 0 0-.284.055.445.445 0 0 0-.183.156.705.705 0 0 0-.1.254c-.02.1-.03.215-.03.346 0 .13.01.247.03.351.021.103.054.19.1.262a.464.464 0 0 0 .183.164c.077.038.171.057.282.057.14 0 .257-.035.35-.104a.464.464 0 0 0 .171-.316l.371.023a.72.72 0 0 1-.261.465.902.902 0 0 1-.266.148c-.103.037-.22.055-.35.055a1.11 1.11 0 0 1-.455-.084.805.805 0 0 1-.303-.23.96.96 0 0 1-.167-.348 1.713 1.713 0 0 1-.053-.436m3.6.782h.742v.277h-1.918v-.277h.824v-1.559h-.623v-.277h.974v1.836m-.39-2.246v-.375h.39v.375h-.39m1.705.687v-.277h.332l.113-.551h.235v.55h.843v.278h-.843v1.274c0 .102.027.179.082.228.056.05.147.074.273.074a2.253 2.253 0 0 0 .32-.023 2.909 2.909 0 0 0 .26-.043v.267a2.884 2.884 0 0 1-.45.08c-.066.007-.134.01-.204.01-.211 0-.37-.044-.475-.132-.105-.09-.158-.232-.158-.424v-1.31h-.328m2.74-.278v1.34c0 .103.007.188.022.257.015.07.04.125.074.168.035.042.08.072.135.09a.725.725 0 0 0 .431-.017.478.478 0 0 0 .172-.127.563.563 0 0 0 .11-.205.93.93 0 0 0 .038-.282v-1.224h.354v1.802a58.364 58.364 0 0 0 .008.25.799.799 0 0 0 .004.061h-.332a124467.806 124467.806 0 0 1-.016-.361h-.006a1.118 1.118 0 0 1-.111.166.622.622 0 0 1-.14.127.65.65 0 0 1-.184.078.886.886 0 0 1-.24.03.948.948 0 0 1-.303-.044.49.49 0 0 1-.33-.363 1.353 1.353 0 0 1-.038-.338v-1.408h.352m3.37 1.773a.655.655 0 0 1-.255.3.776.776 0 0 1-.394.09c-.263 0-.457-.09-.58-.27-.124-.182-.186-.454-.186-.819 0-.737.255-1.105.766-1.105.157 0 .289.028.394.084a.601.601 0 0 1 .256.275h.004l-.002-.05a671.33 671.33 0 0 1-.002-.245v-.818h.351v2.609a23.417 23.417 0 0 0 .012.29h-.336a2.796 2.796 0 0 1-.02-.34h-.01m-1.05-.712c0 .146.01.271.028.375.02.104.049.19.088.258.04.068.092.118.154.15a.497.497 0 0 0 .225.047c.09 0 .17-.015.238-.047a.419.419 0 0 0 .176-.148.733.733 0 0 0 .107-.268c.025-.109.038-.242.038-.398 0-.151-.013-.277-.038-.379a.651.651 0 0 0-.105-.248.398.398 0 0 0-.174-.135.644.644 0 0 0-.457.004.376.376 0 0 0-.156.145.794.794 0 0 0-.092.26c-.02.105-.031.233-.031.384m3.22.774h.743v.277H36.01v-.277h.824v-1.559h-.623v-.277h.975v1.836m-.391-2.246v-.375h.39v.375h-.39m3.03 2.523v-1.357a.825.825 0 0 0-.034-.256.38.38 0 0 0-.09-.16.3.3 0 0 0-.135-.084.596.596 0 0 0-.388.021.506.506 0 0 0-.176.127.592.592 0 0 0-.117.205.833.833 0 0 0-.043.28v1.224h-.352v-1.662c0-.044 0-.09-.002-.139a4.445 4.445 0 0 0-.01-.312h.332a2.991 2.991 0 0 1 .016.361h.006a.873.873 0 0 1 .11-.166.638.638 0 0 1 .333-.205.854.854 0 0 1 .233-.03c.108 0 .204.015.287.044a.506.506 0 0 1 .209.132c.057.06.1.137.129.23.03.095.045.207.045.339v1.408h-.354m4.735.055a.826.826 0 0 1-.07.36.647.647 0 0 1-.184.24.711.711 0 0 1-.268.134 1.227 1.227 0 0 1-.32.041c-.054 0-.107-.003-.16-.008a1.87 1.87 0 0 1-.403-.076v-.273a4.091 4.091 0 0 0 .23.043 2.419 2.419 0 0 0 .304.023c.072 0 .14-.009.203-.027a.433.433 0 0 0 .166-.088.389.389 0 0 0 .109-.153.544.544 0 0 0 .041-.222v-1.885h-.795v-.277h1.147v2.168m-.391-2.578v-.375h.39v.375h-.39m1.87.41v1.34c0 .102.006.188.02.257.016.07.041.125.075.168.035.042.08.072.135.09a.725.725 0 0 0 .431-.017.478.478 0 0 0 .172-.127.563.563 0 0 0 .11-.205.93.93 0 0 0 .039-.282v-1.224h.353v1.802a58.364 58.364 0 0 0 .008.25.799.799 0 0 0 .004.061h-.332a124467.806 124467.806 0 0 1-.016-.361h-.006a1.118 1.118 0 0 1-.111.166.622.622 0 0 1-.14.127.65.65 0 0 1-.184.078.886.886 0 0 1-.24.03.948.948 0 0 1-.303-.044.49.49 0 0 1-.33-.363 1.353 1.353 0 0 1-.038-.338v-1.408h.352m3.756 1.51c0 .098-.02.188-.059.267a.553.553 0 0 1-.166.203.809.809 0 0 1-.27.127c-.105.03-.226.045-.363.045a1.84 1.84 0 0 1-.332-.027.834.834 0 0 1-.257-.086.585.585 0 0 1-.188-.16.687.687 0 0 1-.11-.25l.311-.06c.016.07.04.128.074.171a.357.357 0 0 0 .125.096.59.59 0 0 0 .17.045c.064.006.133.01.207.01.076 0 .146-.006.21-.016a.542.542 0 0 0 .167-.057.31.31 0 0 0 .11-.103.289.289 0 0 0 .04-.159.23.23 0 0 0-.05-.156.38.38 0 0 0-.135-.101 1.074 1.074 0 0 0-.205-.07l-.256-.067a5.392 5.392 0 0 1-.248-.072.928.928 0 0 1-.22-.102.53.53 0 0 1-.157-.162.476.476 0 0 1-.058-.248c0-.192.069-.341.207-.45.138-.107.338-.161.6-.161.102 0 .199.01.288.029.09.018.17.048.24.09a.562.562 0 0 1 .275.389l-.315.038a.29.29 0 0 0-.059-.142.316.316 0 0 0-.111-.086.46.46 0 0 0-.147-.045 1.217 1.217 0 0 0-.172-.012c-.319 0-.478.099-.478.295 0 .06.014.109.04.147a.334.334 0 0 0 .12.091c.05.025.111.047.182.065a12.404 12.404 0 0 1 .492.13c.09.028.171.065.244.11a.572.572 0 0 1 .182.176c.048.07.072.16.072.268m.7-1.233v-.277h.331l.113-.551h.235v.55h.844v.278h-.844v1.274c0 .102.027.179.082.228.056.05.147.074.273.074a2.253 2.253 0 0 0 .32-.023 2.909 2.909 0 0 0 .26-.043v.267a2.884 2.884 0 0 1-.449.08c-.066.007-.135.01-.205.01-.21 0-.37-.044-.475-.133-.105-.09-.158-.23-.158-.423v-1.31h-.328m4.17.776c0 .185-.022.347-.066.485a.911.911 0 0 1-.188.342.77.77 0 0 1-.3.205c-.118.044-.25.066-.4.066-.141 0-.27-.022-.386-.066a.76.76 0 0 1-.295-.203.949.949 0 0 1-.187-.342 1.597 1.597 0 0 1-.067-.487c0-.363.082-.636.247-.818.165-.184.399-.275.7-.275.318 0 .555.09.71.271.155.181.232.455.232.822m-.369 0c0-.164-.014-.3-.043-.406a.677.677 0 0 0-.117-.256.39.39 0 0 0-.178-.132.643.643 0 0 0-.228-.04.652.652 0 0 0-.235.041.42.42 0 0 0-.185.137.72.72 0 0 0-.121.256c-.03.107-.043.24-.043.4 0 .164.015.3.044.409a.744.744 0 0 0 .124.255.432.432 0 0 0 .18.135c.068.026.14.04.214.04a.713.713 0 0 0 .234-.038.423.423 0 0 0 .188-.135.679.679 0 0 0 .121-.257c.03-.108.045-.245.045-.409m1.594 1.059v-.584h.459v.584h-.46m6.014-1.846c0 .11-.02.215-.058.317a.736.736 0 0 1-.176.267.856.856 0 0 1-.295.188c-.118.047-.258.07-.418.07h-.549v1.004h-.373v-2.635h.899c.162 0 .304.02.425.057a.848.848 0 0 1 .303.16c.08.07.141.152.182.25.04.096.06.204.06.322m-.375.006c0-.163-.053-.286-.16-.369-.107-.085-.267-.127-.48-.127h-.48v1.037h.495a.84.84 0 0 0 .278-.04.55.55 0 0 0 .195-.116.44.44 0 0 0 .115-.172.605.605 0 0 0 .037-.213m2.026 1.563h.742v.277h-1.918v-.277h.824V69.37h-.564v-.277h.916v2.62m3.111.061a.444.444 0 0 0 .115-.013v.218a1.183 1.183 0 0 1-.271.032.52.52 0 0 1-.172-.026.283.283 0 0 1-.115-.08.377.377 0 0 1-.069-.133.827.827 0 0 1-.029-.185h-.012a1.18 1.18 0 0 1-.12.183.709.709 0 0 1-.153.14.699.699 0 0 1-.197.089.95.95 0 0 1-.256.031c-.206 0-.36-.056-.465-.168-.104-.112-.156-.266-.156-.46 0-.14.025-.254.076-.343.052-.09.12-.16.203-.21a.829.829 0 0 1 .283-.106c.107-.02.215-.032.324-.033l.461-.008v-.115a.788.788 0 0 0-.027-.223.34.34 0 0 0-.08-.148.302.302 0 0 0-.135-.082.606.606 0 0 0-.191-.028.93.93 0 0 0-.178.016.336.336 0 0 0-.135.053.29.29 0 0 0-.093.103.453.453 0 0 0-.047.164l-.368-.033a.757.757 0 0 1 .073-.229.55.55 0 0 1 .152-.181.699.699 0 0 1 .244-.117c.1-.029.218-.043.358-.043.26 0 .455.06.586.183.131.121.197.297.197.528v.91c0 .104.014.183.04.236.028.052.08.078.157.078m-1.19-.011c.109 0 .202-.02.282-.061a.64.64 0 0 0 .316-.363.665.665 0 0 0 .04-.217v-.174l-.372.008a1.764 1.764 0 0 0-.217.017.562.562 0 0 0-.195.061.372.372 0 0 0-.14.137.444.444 0 0 0-.055.236c0 .107.028.193.086.258.058.065.144.098.256.098m1.691-.83c0-.213.028-.39.084-.53a.793.793 0 0 1 .535-.512 1.25 1.25 0 0 1 .703-.003c.1.032.187.077.258.134a.7.7 0 0 1 .178.2c.045.076.077.159.094.248l-.375.027a.445.445 0 0 0-.157-.28c-.083-.068-.201-.103-.355-.103a.658.658 0 0 0-.283.055.445.445 0 0 0-.184.156.705.705 0 0 0-.1.254c-.019.1-.029.215-.029.346 0 .13.01.247.03.351.02.103.054.19.1.262a.464.464 0 0 0 .183.164c.077.038.17.057.28.057.142 0 .258-.035.35-.104a.464.464 0 0 0 .172-.316l.372.023a.72.72 0 0 1-.262.465.902.902 0 0 1-.266.148c-.103.037-.22.055-.35.055a1.11 1.11 0 0 1-.455-.084.805.805 0 0 1-.302-.23.96.96 0 0 1-.168-.348 1.713 1.713 0 0 1-.053-.436m2.773.077c0 .11.013.213.038.306a.717.717 0 0 0 .11.24.53.53 0 0 0 .185.157c.074.036.159.054.255.054a.668.668 0 0 0 .361-.092.418.418 0 0 0 .193-.232l.31.088a.674.674 0 0 1-.26.338.963.963 0 0 1-.252.117 1.22 1.22 0 0 1-.352.045c-.15 0-.283-.023-.402-.07a.779.779 0 0 1-.3-.21.95.95 0 0 1-.19-.345c-.043-.14-.065-.3-.065-.484 0-.203.026-.374.077-.512a.899.899 0 0 1 .209-.334.763.763 0 0 1 .3-.182c.115-.036.235-.054.36-.054.17 0 .314.027.431.082a.744.744 0 0 1 .29.23.928.928 0 0 1 .16.354c.033.138.05.29.05.457v.047h-1.507m.58-.91c-.06 0-.123.01-.19.029a.472.472 0 0 0-.182.1.58.58 0 0 0-.142.197.816.816 0 0 0-.063.314h1.141a1.042 1.042 0 0 0-.066-.307.58.58 0 0 0-.127-.197.424.424 0 0 0-.17-.105.644.644 0 0 0-.201-.032m3.23.1a2.689 2.689 0 0 0-.414-.037.642.642 0 0 0-.516.248.83.83 0 0 0-.138.266c-.032.101-.047.21-.047.324v.992h-.352v-1.37c0-.072-.004-.146-.011-.222a4.093 4.093 0 0 0-.09-.521h.334c.009.031.018.067.027.107a2.638 2.638 0 0 1 .066.381h.01c.037-.08.075-.154.115-.219a.61.61 0 0 1 .34-.271.884.884 0 0 1 .274-.037 2.334 2.334 0 0 1 .402.033v.326m2.508 1.576a.444.444 0 0 0 .115-.013v.218a1.183 1.183 0 0 1-.271.032.52.52 0 0 1-.172-.026.283.283 0 0 1-.115-.08.377.377 0 0 1-.069-.133.827.827 0 0 1-.03-.185h-.01a1.18 1.18 0 0 1-.122.183.709.709 0 0 1-.152.141.699.699 0 0 1-.198.088.95.95 0 0 1-.255.031c-.206 0-.361-.056-.465-.168-.104-.112-.157-.265-.157-.46 0-.14.026-.254.077-.343.052-.09.12-.16.203-.21a.829.829 0 0 1 .283-.106c.107-.02.215-.032.324-.033l.461-.008v-.115a.788.788 0 0 0-.027-.223.34.34 0 0 0-.08-.148.302.302 0 0 0-.135-.082.606.606 0 0 0-.191-.028.93.93 0 0 0-.178.016.336.336 0 0 0-.135.053.29.29 0 0 0-.094.103.453.453 0 0 0-.047.164l-.367-.033a.757.757 0 0 1 .073-.228.55.55 0 0 1 .152-.182.699.699 0 0 1 .244-.117c.099-.029.218-.043.357-.043.26 0 .456.06.586.183.132.121.198.297.198.528v.91c0 .104.013.183.04.236.028.052.08.078.157.078m-1.19-.011c.109 0 .202-.02.282-.061a.64.64 0 0 0 .316-.363.665.665 0 0 0 .04-.217v-.174l-.372.008a1.764 1.764 0 0 0-.217.017.562.562 0 0 0-.195.061.372.372 0 0 0-.14.137.444.444 0 0 0-.055.236c0 .107.028.193.086.258.058.065.143.098.255.098m1.809-1.608v-.277h.332l.113-.551h.235v.55h.843v.278h-.843v1.274c0 .102.027.179.082.228.056.05.147.074.273.074a2.253 2.253 0 0 0 .32-.023 2.909 2.909 0 0 0 .26-.043v.267a2.884 2.884 0 0 1-.449.08c-.066.007-.135.01-.205.01-.211 0-.37-.044-.475-.132-.105-.09-.158-.232-.158-.424v-1.31h-.328m2.533 2.544l.33-1.293h.518l-.608 1.293h-.24m-65.592 4.688c0 .099-.02.188-.058.267a.553.553 0 0 1-.166.203.809.809 0 0 1-.27.127c-.105.03-.226.045-.363.045a1.84 1.84 0 0 1-.332-.027.834.834 0 0 1-.258-.086.585.585 0 0 1-.187-.16.687.687 0 0 1-.11-.25l.31-.06c.016.07.041.128.075.171a.357.357 0 0 0 .125.096.59.59 0 0 0 .17.045c.064.006.133.01.207.01.076 0 .145-.006.209-.016a.542.542 0 0 0 .168-.057.31.31 0 0 0 .11-.103.289.289 0 0 0 .04-.159.23.23 0 0 0-.05-.156.38.38 0 0 0-.135-.101 1.074 1.074 0 0 0-.205-.07l-.256-.067a5.392 5.392 0 0 1-.248-.072.928.928 0 0 1-.22-.102.53.53 0 0 1-.157-.162.476.476 0 0 1-.059-.248c0-.191.07-.341.207-.45.138-.107.338-.161.6-.161.103 0 .2.01.289.029.09.018.17.048.24.09a.562.562 0 0 1 .275.389l-.316.038a.29.29 0 0 0-.058-.142.316.316 0 0 0-.112-.086.46.46 0 0 0-.146-.045 1.217 1.217 0 0 0-.172-.012c-.32 0-.479.099-.479.295 0 .06.014.109.041.147a.334.334 0 0 0 .12.092c.05.024.11.046.181.064a12.406 12.406 0 0 1 .492.13c.09.028.172.065.245.11a.572.572 0 0 1 .181.176c.048.07.072.16.072.268m.957-.38c0 .111.013.214.038.307a.717.717 0 0 0 .11.24.53.53 0 0 0 .185.157c.074.036.159.054.255.054a.668.668 0 0 0 .361-.092.418.418 0 0 0 .193-.232l.31.088a.674.674 0 0 1-.26.338.963.963 0 0 1-.252.117 1.22 1.22 0 0 1-.352.045c-.15 0-.283-.023-.402-.07a.779.779 0 0 1-.3-.21.95.95 0 0 1-.19-.345c-.043-.14-.065-.3-.065-.484 0-.203.026-.374.077-.512a.899.899 0 0 1 .208-.334.763.763 0 0 1 .301-.182c.115-.036.235-.054.36-.054.17 0 .314.027.431.082a.744.744 0 0 1 .29.23.928.928 0 0 1 .16.354c.033.138.05.29.05.457v.047h-1.508m.58-.91c-.06 0-.122.01-.189.029a.472.472 0 0 0-.182.1.58.58 0 0 0-.142.197.816.816 0 0 0-.063.314h1.141a1.042 1.042 0 0 0-.066-.307.58.58 0 0 0-.127-.197.424.424 0 0 0-.17-.105.644.644 0 0 0-.201-.032m2.226 1.893v-1.34c0-.103-.004-.189-.012-.258a.587.587 0 0 0-.039-.166.173.173 0 0 0-.068-.09.183.183 0 0 0-.104-.027.159.159 0 0 0-.115.051.401.401 0 0 0-.088.14.95.95 0 0 0-.056.22c-.013.084-.02.18-.02.285v1.185h-.33V76.33c0-.044 0-.09-.002-.139a4.439 4.439 0 0 0-.01-.312h.291a7.23 7.23 0 0 1 .012.342h.004c.017-.051.037-.1.06-.145a.526.526 0 0 1 .085-.123.377.377 0 0 1 .277-.113c.114 0 .2.031.256.093a.585.585 0 0 1 .123.29h.004a1.11 1.11 0 0 1 .076-.163.51.51 0 0 1 .098-.12.38.38 0 0 1 .125-.075.476.476 0 0 1 .162-.025.43.43 0 0 1 .2.043.326.326 0 0 1 .134.133c.033.06.058.136.072.23.015.094.023.206.023.338v1.408h-.328v-1.34c0-.103-.004-.189-.012-.258a.587.587 0 0 0-.039-.166.173.173 0 0 0-.068-.09.183.183 0 0 0-.103-.027c-.086 0-.155.055-.206.164-.049.11-.074.274-.074.492v1.225h-.328m4.389-.982c0 .11.012.213.037.306a.717.717 0 0 0 .111.24.53.53 0 0 0 .184.157c.074.036.16.054.256.054a.668.668 0 0 0 .361-.092.418.418 0 0 0 .193-.232l.309.088a.674.674 0 0 1-.26.338.963.963 0 0 1-.252.117 1.22 1.22 0 0 1-.351.045c-.15 0-.284-.023-.403-.07a.779.779 0 0 1-.3-.21.95.95 0 0 1-.19-.345c-.043-.14-.064-.3-.064-.484 0-.203.025-.374.076-.512a.899.899 0 0 1 .209-.334.763.763 0 0 1 .3-.182c.115-.036.235-.054.36-.054.17 0 .314.027.432.082a.744.744 0 0 1 .289.23.928.928 0 0 1 .16.354c.034.138.05.29.05.457v.047H21.97m.58-.91c-.06 0-.123.01-.19.029a.472.472 0 0 0-.181.1.58.58 0 0 0-.143.197.816.816 0 0 0-.062.314h1.14a1.042 1.042 0 0 0-.066-.307.58.58 0 0 0-.127-.197.424.424 0 0 0-.17-.105.644.644 0 0 0-.201-.031m2.39 2.72c-.117 0-.22-.012-.31-.037a.724.724 0 0 1-.23-.107.585.585 0 0 1-.24-.377l.359-.05c.022.099.07.173.142.226.074.053.171.08.291.08a.56.56 0 0 0 .2-.034.359.359 0 0 0 .152-.107.474.474 0 0 0 .097-.19c.024-.078.036-.173.036-.285v-.379h-.004a.8.8 0 0 1-.096.153.605.605 0 0 1-.139.13.699.699 0 0 1-.435.126.812.812 0 0 1-.34-.065.557.557 0 0 1-.23-.195.921.921 0 0 1-.133-.328 2.287 2.287 0 0 1-.041-.461c0-.17.013-.322.04-.455a.961.961 0 0 1 .135-.336.61.61 0 0 1 .243-.211.825.825 0 0 1 .363-.072c.147 0 .275.034.383.103.11.068.193.165.252.291h.006a3.293 3.293 0 0 1 .015-.316.49.49 0 0 1 .008-.045h.334a7.174 7.174 0 0 0-.012.438v1.613c0 .295-.069.517-.207.666-.138.15-.35.224-.638.224m.496-1.904c0-.147-.016-.272-.047-.375a.725.725 0 0 0-.125-.25.449.449 0 0 0-.176-.14.529.529 0 0 0-.428.002.364.364 0 0 0-.158.14.692.692 0 0 0-.092.25c-.02.101-.029.226-.029.373 0 .152.01.28.03.38.019.102.049.184.09.245a.35.35 0 0 0 .155.13.62.62 0 0 0 .428-.003.477.477 0 0 0 .178-.137.705.705 0 0 0 .125-.244c.032-.102.049-.225.049-.371m1.33.094c0 .11.012.213.037.306a.717.717 0 0 0 .111.24.53.53 0 0 0 .184.157c.074.036.16.054.256.054a.668.668 0 0 0 .361-.092.418.418 0 0 0 .193-.232l.309.088a.674.674 0 0 1-.26.338.963.963 0 0 1-.252.117 1.22 1.22 0 0 1-.351.045c-.15 0-.284-.023-.403-.07a.779.779 0 0 1-.3-.21.95.95 0 0 1-.19-.345c-.043-.14-.064-.3-.064-.484 0-.203.025-.374.076-.512a.899.899 0 0 1 .209-.334.763.763 0 0 1 .3-.182c.115-.036.235-.054.36-.054.17 0 .314.027.432.082a.744.744 0 0 1 .289.23.928.928 0 0 1 .16.354c.034.138.05.29.05.457v.047h-1.507m.58-.91c-.06 0-.123.01-.19.029a.472.472 0 0 0-.181.1.58.58 0 0 0-.143.197.815.815 0 0 0-.062.314h1.14a1.042 1.042 0 0 0-.066-.307.58.58 0 0 0-.127-.197.424.424 0 0 0-.17-.105.644.644 0 0 0-.201-.031m1.56.056v-.277h.332l.114-.551h.234v.55h.844v.278h-.844v1.274c0 .102.027.179.082.228.056.05.147.074.274.074a2.253 2.253 0 0 0 .32-.023 2.909 2.909 0 0 0 .26-.043v.267a2.884 2.884 0 0 1-.45.08c-.066.007-.134.01-.205.01-.21 0-.369-.044-.474-.132-.106-.09-.158-.232-.158-.424v-1.31h-.329m4.68.776c0-.212.028-.388.084-.529a.793.793 0 0 1 .535-.512 1.25 1.25 0 0 1 .703-.003c.1.032.187.077.258.134a.7.7 0 0 1 .178.2c.045.076.077.16.094.248l-.375.027a.445.445 0 0 0-.157-.28c-.083-.068-.201-.103-.355-.103a.658.658 0 0 0-.283.055.445.445 0 0 0-.184.156.705.705 0 0 0-.1.254c-.019.1-.029.215-.029.346 0 .13.01.247.03.351.02.103.054.19.1.262a.464.464 0 0 0 .183.164c.077.038.17.057.281.057.14 0 .257-.035.35-.104a.464.464 0 0 0 .171-.316l.372.023a.72.72 0 0 1-.262.465.902.902 0 0 1-.266.148c-.103.037-.22.055-.35.055a1.11 1.11 0 0 1-.454-.084.805.805 0 0 1-.303-.23.96.96 0 0 1-.168-.348 1.713 1.713 0 0 1-.053-.435m4.287 0c0 .184-.022.346-.066.484a.911.911 0 0 1-.188.342.77.77 0 0 1-.3.205c-.118.044-.25.066-.399.066-.142 0-.27-.022-.387-.066a.76.76 0 0 1-.295-.203.949.949 0 0 1-.187-.342 1.597 1.597 0 0 1-.066-.486c0-.364.082-.637.246-.819.165-.183.399-.275.7-.275.319 0 .555.09.71.271.155.181.232.455.232.823m-.369 0c0-.165-.014-.3-.043-.407a.677.677 0 0 0-.117-.256.39.39 0 0 0-.178-.132.643.643 0 0 0-.228-.04.652.652 0 0 0-.235.042.42.42 0 0 0-.185.136.72.72 0 0 0-.121.256c-.029.107-.043.24-.043.4 0 .165.015.3.045.409a.744.744 0 0 0 .123.256.432.432 0 0 0 .18.134c.068.026.14.04.214.04a.713.713 0 0 0 .235-.038.423.423 0 0 0 .187-.134.679.679 0 0 0 .121-.258c.03-.108.045-.244.045-.408m2.32 1.058v-1.357a.825.825 0 0 0-.033-.256.38.38 0 0 0-.09-.16.3.3 0 0 0-.134-.084.596.596 0 0 0-.39.021.506.506 0 0 0-.175.127.592.592 0 0 0-.117.205.833.833 0 0 0-.043.28v1.224h-.352V76.33c0-.044 0-.09-.002-.139a4.445 4.445 0 0 0-.01-.312h.333a2.991 2.991 0 0 1 .016.361h.005a.873.873 0 0 1 .11-.166.638.638 0 0 1 .334-.205.854.854 0 0 1 .232-.03c.108 0 .204.015.287.044a.506.506 0 0 1 .21.133c.056.06.1.136.128.23.03.094.045.206.045.338v1.408h-.354m2.774-.603c0 .099-.02.188-.059.267a.553.553 0 0 1-.166.203.809.809 0 0 1-.27.127c-.105.03-.226.045-.363.045a1.84 1.84 0 0 1-.332-.027.834.834 0 0 1-.257-.086.585.585 0 0 1-.188-.16.687.687 0 0 1-.11-.25l.311-.06c.016.07.04.128.074.171a.357.357 0 0 0 .125.096.59.59 0 0 0 .17.045c.064.006.133.01.207.01.076 0 .146-.006.21-.016a.542.542 0 0 0 .167-.057.31.31 0 0 0 .11-.103.289.289 0 0 0 .04-.159.23.23 0 0 0-.05-.156.38.38 0 0 0-.135-.101 1.074 1.074 0 0 0-.205-.07l-.256-.067a5.392 5.392 0 0 1-.248-.072.928.928 0 0 1-.22-.102.53.53 0 0 1-.157-.162.476.476 0 0 1-.058-.248c0-.191.069-.341.207-.45.138-.107.338-.161.6-.161.102 0 .199.01.288.029.09.018.17.048.24.09a.562.562 0 0 1 .275.389l-.315.038a.29.29 0 0 0-.059-.142.316.316 0 0 0-.111-.086.46.46 0 0 0-.147-.045 1.217 1.217 0 0 0-.172-.012c-.319 0-.478.099-.478.295 0 .06.014.109.04.147a.334.334 0 0 0 .12.092c.05.024.111.046.182.064a12.406 12.406 0 0 1 .492.13c.09.028.171.065.244.11a.572.572 0 0 1 .182.176c.048.07.072.16.072.268m.957-.38c0 .111.012.214.037.307a.717.717 0 0 0 .111.24.53.53 0 0 0 .184.157c.074.036.16.054.256.054a.668.668 0 0 0 .361-.092.418.418 0 0 0 .193-.232l.31.088a.674.674 0 0 1-.26.338.963.963 0 0 1-.253.117 1.22 1.22 0 0 1-.351.045c-.15 0-.284-.023-.403-.07a.779.779 0 0 1-.3-.21.95.95 0 0 1-.19-.345c-.043-.14-.064-.3-.064-.484 0-.203.025-.374.076-.512a.899.899 0 0 1 .209-.334.763.763 0 0 1 .3-.182c.115-.036.235-.054.36-.054.17 0 .315.027.432.082a.744.744 0 0 1 .289.23.928.928 0 0 1 .16.354c.034.138.05.29.05.457v.047h-1.507m.58-.91c-.06 0-.123.01-.19.029a.472.472 0 0 0-.181.1.58.58 0 0 0-.143.197.816.816 0 0 0-.062.314h1.14a1.042 1.042 0 0 0-.066-.307.58.58 0 0 0-.127-.197.424.424 0 0 0-.17-.105.644.644 0 0 0-.201-.031m2.223-.252c.086 0 .162.007.228.021a.587.587 0 0 1 .176.066.52.52 0 0 1 .137.114c.04.044.076.097.107.158h.004a2.795 2.795 0 0 1 .016-.29.466.466 0 0 1 .007-.04h.342l-.004.056a5.42 5.42 0 0 0-.007.268v2.621h-.354v-.857-.108a27.144 27.144 0 0 1 .008-.22h-.004a.9.9 0 0 1-.111.175.592.592 0 0 1-.318.205.896.896 0 0 1-.225.026c-.263 0-.457-.091-.58-.274-.124-.183-.186-.455-.186-.816 0-.366.063-.641.19-.826.127-.186.319-.28.574-.28m.652 1.063c0-.155-.013-.284-.039-.387a.654.654 0 0 0-.111-.246.401.401 0 0 0-.176-.13.633.633 0 0 0-.229-.04.481.481 0 0 0-.228.051.385.385 0 0 0-.154.152.82.82 0 0 0-.088.26 2.184 2.184 0 0 0-.028.371c0 .138.01.26.028.364a.81.81 0 0 0 .086.257.4.4 0 0 0 .152.157.46.46 0 0 0 .228.052c.077 0 .15-.012.217-.037a.418.418 0 0 0 .178-.134.72.72 0 0 0 .12-.264c.03-.112.044-.254.044-.426m1.426-1.031v1.34c0 .103.007.188.021.257.016.07.04.125.075.168.035.042.08.072.134.09a.725.725 0 0 0 .432-.017.478.478 0 0 0 .172-.127.563.563 0 0 0 .11-.205.93.93 0 0 0 .038-.282v-1.224h.354v1.802a58.364 58.364 0 0 0 .008.25.799.799 0 0 0 .003.061h-.332a124467.806 124467.806 0 0 1-.016-.361h-.005a1.118 1.118 0 0 1-.111.166.622.622 0 0 1-.141.127.65.65 0 0 1-.184.078.886.886 0 0 1-.24.03.948.948 0 0 1-.303-.044.49.49 0 0 1-.33-.363 1.353 1.353 0 0 1-.037-.338v-1.408h.352m3.836 1.896a.444.444 0 0 0 .115-.013v.218a1.183 1.183 0 0 1-.272.032.52.52 0 0 1-.171-.026.283.283 0 0 1-.116-.08.377.377 0 0 1-.068-.133.827.827 0 0 1-.03-.185h-.011a1.18 1.18 0 0 1-.121.183.71.71 0 0 1-.153.141.699.699 0 0 1-.197.088.95.95 0 0 1-.256.031c-.205 0-.36-.056-.464-.168-.105-.112-.157-.265-.157-.46 0-.14.026-.254.076-.343.053-.09.12-.16.204-.21a.829.829 0 0 1 .283-.106c.107-.02.215-.032.324-.033l.46-.008v-.115a.788.788 0 0 0-.026-.223.34.34 0 0 0-.08-.148.302.302 0 0 0-.135-.082.606.606 0 0 0-.192-.028.93.93 0 0 0-.177.016.336.336 0 0 0-.135.053.29.29 0 0 0-.094.103.453.453 0 0 0-.047.164l-.367-.033a.757.757 0 0 1 .072-.228.55.55 0 0 1 .153-.182.699.699 0 0 1 .244-.117c.099-.029.218-.043.357-.043.26 0 .456.06.586.183.132.121.197.297.197.528v.91c0 .104.014.183.041.236.028.052.08.078.157.078m-1.19-.011c.108 0 .202-.02.281-.061a.64.64 0 0 0 .317-.363.665.665 0 0 0 .039-.217v-.174l-.371.008a1.764 1.764 0 0 0-.217.017.562.562 0 0 0-.195.061.372.372 0 0 0-.14.137.444.444 0 0 0-.056.236c0 .107.03.193.086.258.059.065.144.098.256.098m1.809-1.608v-.277h.332l.113-.551h.234v.55h.844v.278h-.844v1.274c0 .102.028.179.083.228.056.05.147.074.273.074a2.253 2.253 0 0 0 .32-.023 2.909 2.909 0 0 0 .26-.043v.267a2.884 2.884 0 0 1-.45.08c-.066.007-.134.01-.204.01-.211 0-.37-.044-.475-.132-.105-.09-.158-.232-.158-.424v-1.31h-.328m6.496 1.232c0 .099-.02.188-.059.267a.553.553 0 0 1-.166.203.809.809 0 0 1-.27.127c-.105.03-.226.045-.363.045a1.84 1.84 0 0 1-.332-.027.834.834 0 0 1-.257-.086.585.585 0 0 1-.188-.16.687.687 0 0 1-.11-.25l.311-.06c.016.07.04.128.075.171a.357.357 0 0 0 .125.096.59.59 0 0 0 .17.045c.063.006.132.01.206.01.076 0 .146-.006.21-.016a.542.542 0 0 0 .167-.057.31.31 0 0 0 .11-.103.289.289 0 0 0 .04-.159.23.23 0 0 0-.05-.156.38.38 0 0 0-.135-.101 1.074 1.074 0 0 0-.205-.07l-.256-.067a5.392 5.392 0 0 1-.248-.072.928.928 0 0 1-.22-.102.53.53 0 0 1-.157-.162.476.476 0 0 1-.058-.248c0-.191.069-.341.207-.45.138-.107.338-.161.6-.161.102 0 .199.01.288.029.09.018.17.048.24.09a.562.562 0 0 1 .275.389l-.315.038a.29.29 0 0 0-.059-.142.316.316 0 0 0-.111-.086.46.46 0 0 0-.147-.045 1.217 1.217 0 0 0-.172-.012c-.319 0-.478.099-.478.295 0 .06.014.109.04.147a.334.334 0 0 0 .12.092c.05.024.111.046.182.064a12.404 12.404 0 0 1 .492.13c.09.028.171.065.244.11a.572.572 0 0 1 .182.176c.048.07.072.16.072.268m2.47-.456c0 .185-.022.347-.066.485a.911.911 0 0 1-.187.342.77.77 0 0 1-.301.205c-.117.044-.25.066-.399.066-.141 0-.27-.022-.386-.066a.76.76 0 0 1-.295-.203.949.949 0 0 1-.188-.342 1.597 1.597 0 0 1-.066-.487c0-.363.082-.636.246-.818.165-.183.4-.275.701-.275.318 0 .554.09.71.271.154.181.232.455.232.822m-.37 0c0-.164-.014-.299-.042-.406a.677.677 0 0 0-.118-.256.39.39 0 0 0-.177-.132.643.643 0 0 0-.229-.04.652.652 0 0 0-.234.042.42.42 0 0 0-.186.136.72.72 0 0 0-.121.256c-.029.107-.043.24-.043.4 0 .165.015.3.045.409a.744.744 0 0 0 .123.256.432.432 0 0 0 .18.134c.069.026.14.04.215.04a.713.713 0 0 0 .234-.038.423.423 0 0 0 .187-.134.679.679 0 0 0 .122-.258c.03-.108.044-.244.044-.409m2.31.72a.655.655 0 0 1-.255.298.776.776 0 0 1-.394.092c-.263 0-.457-.09-.58-.272-.124-.18-.186-.453-.186-.818 0-.737.255-1.105.766-1.105.157 0 .289.028.394.084a.601.601 0 0 1 .256.275h.004l-.002-.05a671.33 671.33 0 0 1-.002-.245v-.818h.351v2.609a23.417 23.417 0 0 0 .012.29h-.336a2.796 2.796 0 0 1-.02-.34h-.01m-1.05-.712c0 .146.01.271.027.375.02.104.05.19.088.258.04.068.092.118.155.15a.497.497 0 0 0 .224.047c.09 0 .17-.015.239-.047a.419.419 0 0 0 .175-.148.733.733 0 0 0 .108-.268c.024-.109.037-.242.037-.398 0-.151-.013-.277-.037-.379a.651.651 0 0 0-.106-.248.398.398 0 0 0-.174-.135.644.644 0 0 0-.457.004.376.376 0 0 0-.156.145.794.794 0 0 0-.092.26c-.02.105-.03.233-.03.384m3.915.834a.444.444 0 0 0 .115-.013v.218a1.183 1.183 0 0 1-.271.032.52.52 0 0 1-.172-.026.283.283 0 0 1-.115-.08.377.377 0 0 1-.069-.133.827.827 0 0 1-.029-.185h-.012a1.18 1.18 0 0 1-.12.183.709.709 0 0 1-.153.14.699.699 0 0 1-.197.089.95.95 0 0 1-.256.031c-.206 0-.36-.056-.465-.168-.104-.112-.156-.266-.156-.46 0-.14.025-.254.076-.343.052-.09.12-.16.203-.21a.829.829 0 0 1 .283-.106c.107-.02.215-.032.324-.033l.461-.008v-.115a.788.788 0 0 0-.027-.223.34.34 0 0 0-.08-.148.302.302 0 0 0-.135-.082.606.606 0 0 0-.191-.028.93.93 0 0 0-.178.016.336.336 0 0 0-.135.053.29.29 0 0 0-.093.103.453.453 0 0 0-.047.164l-.368-.033a.757.757 0 0 1 .073-.229.55.55 0 0 1 .152-.181.699.699 0 0 1 .244-.117c.1-.029.218-.043.358-.043.26 0 .455.06.586.183.131.121.197.297.197.528v.91c0 .104.013.183.04.236.028.052.08.078.157.078m-1.19-.012c.109 0 .202-.02.282-.06a.64.64 0 0 0 .316-.363.665.665 0 0 0 .04-.217v-.174l-.372.008a1.764 1.764 0 0 0-.217.017.562.562 0 0 0-.195.061.372.372 0 0 0-.14.137.444.444 0 0 0-.055.236c0 .107.028.193.086.258.058.065.144.097.256.097m2.875-.048h.742v.277h-1.918v-.277h.824V75.37h-.564v-.277h.916v2.62m1.59-.704c0 .11.012.212.037.306a.717.717 0 0 0 .11.24.53.53 0 0 0 .185.157c.074.036.159.054.255.054a.668.668 0 0 0 .361-.092.418.418 0 0 0 .193-.232l.31.088a.674.674 0 0 1-.26.338.963.963 0 0 1-.252.117 1.22 1.22 0 0 1-.352.045c-.15 0-.283-.023-.402-.07a.779.779 0 0 1-.3-.21.95.95 0 0 1-.19-.345c-.043-.14-.065-.3-.065-.484 0-.203.026-.374.077-.512a.899.899 0 0 1 .209-.334.763.763 0 0 1 .3-.182c.115-.036.235-.054.36-.054.17 0 .314.027.431.082a.744.744 0 0 1 .29.23.928.928 0 0 1 .16.354c.033.138.05.29.05.457v.047h-1.508m.58-.91c-.06 0-.122.01-.189.029a.472.472 0 0 0-.182.1.58.58 0 0 0-.142.197.816.816 0 0 0-.063.314h1.141a1.042 1.042 0 0 0-.066-.307.58.58 0 0 0-.127-.197.424.424 0 0 0-.17-.105.644.644 0 0 0-.201-.032m3.26 1.29c0 .098-.02.188-.06.267a.553.553 0 0 1-.165.203.809.809 0 0 1-.27.127c-.105.03-.226.045-.363.045a1.84 1.84 0 0 1-.332-.027.834.834 0 0 1-.258-.086.585.585 0 0 1-.187-.16.687.687 0 0 1-.11-.25l.31-.06c.016.07.041.128.075.171a.357.357 0 0 0 .125.096.59.59 0 0 0 .17.045c.064.006.133.01.207.01.075 0 .145-.006.209-.016a.542.542 0 0 0 .168-.057.31.31 0 0 0 .11-.103.289.289 0 0 0 .04-.159.23.23 0 0 0-.05-.156.38.38 0 0 0-.135-.101 1.074 1.074 0 0 0-.205-.07l-.256-.067a5.388 5.388 0 0 1-.248-.072.928.928 0 0 1-.221-.102.53.53 0 0 1-.156-.162.476.476 0 0 1-.059-.248c0-.192.07-.341.207-.45.138-.107.338-.161.6-.161.103 0 .2.01.289.029.09.018.17.048.24.09a.562.562 0 0 1 .275.389l-.316.038a.29.29 0 0 0-.058-.142.316.316 0 0 0-.112-.086.46.46 0 0 0-.146-.045 1.217 1.217 0 0 0-.172-.012c-.32 0-.479.099-.479.295 0 .06.014.109.041.147a.334.334 0 0 0 .12.091c.05.025.11.047.181.065a12.406 12.406 0 0 1 .492.13c.09.028.172.065.244.11a.572.572 0 0 1 .182.176c.048.07.072.16.072.268m1.297.603v-.584h.46v.584h-.46" style="text-align:start;line-height:150%;-inkscape-font-specification:Liberation Mono"/></g></svg>