<svg xmlns="http://www.w3.org/2000/svg" xmlns:xlink="http://www.w3.org/1999/xlink" version="1.0" width="96" height="96"><defs><linearGradient id="f"><stop offset="0" stop-color="#fff"/><stop offset="1" stop-color="#fff" stop-opacity="0"/></linearGradient><linearGradient id="d"><stop offset="0" stop-color="#efad51"/><stop offset="1" stop-color="#d56616"/></linearGradient><linearGradient id="e"><stop offset="0" stop-color="#a94508"/><stop offset="1" stop-color="#d58100" stop-opacity="0"/></linearGradient><linearGradient x1="45.448" y1="92.54" x2="45.448" y2="7.017" id="g" gradientUnits="userSpaceOnUse" gradientTransform="scale(1.00587 .99417)"><stop offset="0"/><stop offset="1" stop-opacity=".588"/></linearGradient><linearGradient id="a"><stop offset="0" stop-color="#fff"/><stop offset="1" stop-color="#fff" stop-opacity="0"/></linearGradient><filter color-interpolation-filters="sRGB" id="h"><feGaussianBlur stdDeviation="1.71"/></filter><linearGradient x1="36.357" y1="6" x2="36.357" y2="63.893" id="w" xlink:href="#a" gradientUnits="userSpaceOnUse"/><filter x="-.192" y="-.192" width="1.384" height="1.384" color-interpolation-filters="sRGB" id="v"><feGaussianBlur stdDeviation="5.28"/></filter><linearGradient x1="48" y1="20.221" x2="48" y2="138.661" id="u" xlink:href="#a" gradientUnits="userSpaceOnUse"/><radialGradient cx="48" cy="90.172" r="42" fx="48" fy="90.172" id="x" xlink:href="#a" gradientUnits="userSpaceOnUse" gradientTransform="matrix(1.15731 0 0 .9959 -7.551 .197)"/><clipPath id="t"><rect width="84" height="84" rx="6" ry="6" x="6" y="6" fill="#fff"/></clipPath><linearGradient x1="45.448" y1="92.54" x2="45.448" y2="7.017" id="b" gradientUnits="userSpaceOnUse" gradientTransform="matrix(1.00587 0 0 .99417 100 0)"><stop offset="0"/><stop offset="1" stop-opacity=".588"/></linearGradient><linearGradient x1="32.251" y1="6.132" x2="32.251" y2="90.239" id="l" xlink:href="#b" gradientUnits="userSpaceOnUse" gradientTransform="matrix(1.0238 0 0 -1.0119 -1.143 98.071)"/><linearGradient x1="32.251" y1="6.132" x2="32.251" y2="90.239" id="m" xlink:href="#b" gradientUnits="userSpaceOnUse" gradientTransform="matrix(1 0 0 -1 0 97)"/><linearGradient x1="58.65" y1="122" x2="58.65" y2="5.425" id="c" gradientUnits="userSpaceOnUse" gradientTransform="translate(-1.103 -1.103) scale(1.01724)"><stop offset="0"/><stop offset="1" stop-color="#515151"/></linearGradient><linearGradient x1="48" y1="90" x2="48" y2="5.988" id="o" xlink:href="#c" gradientUnits="userSpaceOnUse" gradientTransform="translate(-110)"/><linearGradient x1="32.251" y1="6.132" x2="32.251" y2="90.239" id="k" xlink:href="#b" gradientUnits="userSpaceOnUse" gradientTransform="matrix(1.0238 0 0 -1.0119 -1.143 98.071)"/><linearGradient x1="32.251" y1="6.132" x2="32.251" y2="90.239" id="j" xlink:href="#b" gradientUnits="userSpaceOnUse" gradientTransform="matrix(1.0238 0 0 -1.0119 -1.143 98.071)"/><linearGradient x1="32.251" y1="6.132" x2="32.251" y2="90.239" id="i" xlink:href="#b" gradientUnits="userSpaceOnUse" gradientTransform="matrix(1.0238 0 0 -1.0119 -1.143 98.071)"/><radialGradient cx="48" cy="48" r="28" fx="48" fy="48" id="p" xlink:href="#d" gradientUnits="userSpaceOnUse" gradientTransform="matrix(1.14286 0 0 .85714 -6.857 3.857)"/><radialGradient cx="48" cy="48" r="28" fx="48" fy="48" id="r" xlink:href="#d" gradientUnits="userSpaceOnUse" gradientTransform="matrix(1.14286 0 0 -.85714 -6.857 38.143)"/><radialGradient cx="48" cy="48" r="28" fx="48" fy="48" id="q" xlink:href="#d" gradientUnits="userSpaceOnUse" gradientTransform="matrix(1.14286 0 0 .85714 -6.857 57.857)"/><linearGradient x1="48" y1="90" x2="48" y2="5.988" id="n" xlink:href="#c" gradientUnits="userSpaceOnUse"/><linearGradient x1="48.495" y1="90.435" x2="48.495" y2="52.388" id="s" xlink:href="#e" gradientUnits="userSpaceOnUse"/><radialGradient cx="48" cy="44.717" r="42" fx="48" fy="44.717" id="y" xlink:href="#f" gradientUnits="userSpaceOnUse" gradientTransform="matrix(1.14286 0 0 .7619 -6.857 5.93)"/></defs><path d="M12 4C6.491 4 2 8.491 2 14v71c0 5.509 4.491 10 10 10h72c5.509 0 10-4.491 10-10V14c0-5.509-4.491-10-10-10H12z" opacity=".08" fill="url(#i)"/><path d="M12 5.031c-4.946 0-8.969 4.023-8.969 8.969v71c0 4.946 4.023 8.969 8.969 8.969h72c4.946 0 8.969-4.023 8.969-8.969V14c0-4.946-4.023-8.969-8.969-8.969H12zm-.031 7.938h2.062v.062H11.97v-.062zm70 0h2.062v.062H81.97v-.062zm-70 8h2.062v.062H11.97v-.062zm70 0h2.062v.062H81.97v-.062zm-70 8h2.062v.062H11.97v-.062zm70 0h2.062v.062H81.97v-.062zm-70 8h2.062v.062H11.97v-.062zm70 0h2.062v.062H81.97v-.062zm-70 8h2.062v.062H11.97v-.062zm70 0h2.062v.062H81.97v-.062zm-70 8h2.062v.062H11.97v-.062zm70 0h2.062v.062H81.97v-.062zm-70 8h2.062v.062H11.97v-.062zm70 0h2.062v.062H81.97v-.062zm-70 8h2.062v.062H11.97v-.062zm70 0h2.062v.062H81.97v-.062zm-70 8h2.062v.062H11.97v-.062zm70 0h2.062v.062H81.97v-.062zm-70 8h2.062v.062H11.97v-.062zm70 0h2.062v.062H81.97v-.062z" opacity=".1" fill="url(#j)"/><path d="M12 6c-4.42 0-8 3.58-8 8v71c0 4.42 3.58 8 8 8h72c4.42 0 8-3.58 8-8V14c0-4.42-3.58-8-8-8H12zm-1 6h4v2h-4v-2zm70 0h4v2h-4v-2zm-70 8h4v2h-4v-2zm70 0h4v2h-4v-2zm-70 8h4v2h-4v-2zm70 0h4v2h-4v-2zm-70 8h4v2h-4v-2zm70 0h4v2h-4v-2zm-70 8h4v2h-4v-2zm70 0h4v2h-4v-2zm-70 8h4v2h-4v-2zm70 0h4v2h-4v-2zm-70 8h4v2h-4v-2zm70 0h4v2h-4v-2zm-70 8h4v2h-4v-2zm70 0h4v2h-4v-2zm-70 8h4v2h-4v-2zm70 0h4v2h-4v-2zm-70 8h4v2h-4v-2zm70 0h4v2h-4v-2z" opacity=".2" fill="url(#k)"/><path d="M12 7c-3.878 0-7 3.122-7 7v71c0 3.878 3.122 7 7 7h72c3.878 0 7-3.122 7-7V14c0-3.878-3.122-7-7-7H12zm-2 4h6v4h-6v-4zm70 0h6v4h-6v-4zm-70 8h6v4h-6v-4zm70 0h6v4h-6v-4zm-70 8h6v4h-6v-4zm70 0h6v4h-6v-4zm-70 8h6v4h-6v-4zm70 0h6v4h-6v-4zm-70 8h6v4h-6v-4zm70 0h6v4h-6v-4zm-70 8h6v4h-6v-4zm70 0h6v4h-6v-4zm-70 8h6v4h-6v-4zm70 0h6v4h-6v-4zm-70 8h6v4h-6v-4zm70 0h6v4h-6v-4zm-70 8h6v4h-6v-4zm70 0h6v4h-6v-4zm-70 8h6v4h-6v-4zm70 0h6v4h-6v-4z" opacity=".3" fill="url(#l)"/><path d="M12 7c-3.324 0-6 2.676-6 6v72c0 3.324 2.676 6 6 6h72c3.324 0 6-2.676 6-6V13c0-3.324-2.676-6-6-6H12zm-2 4h6v4h-6v-4zm70 0h6v4h-6v-4zm-70 8h6v4h-6v-4zm70 0h6v4h-6v-4zm-70 8h6v4h-6v-4zm70 0h6v4h-6v-4zm-70 8h6v4h-6v-4zm70 0h6v4h-6v-4zm-70 8h6v4h-6v-4zm70 0h6v4h-6v-4zm-70 8h6v4h-6v-4zm70 0h6v4h-6v-4zm-70 8h6v4h-6v-4zm70 0h6v4h-6v-4zm-70 8h6v4h-6v-4zm70 0h6v4h-6v-4zm-70 8h6v4h-6v-4zm70 0h6v4h-6v-4zm-70 8h6v4h-6v-4zm70 0h6v4h-6v-4z" opacity=".45" fill="url(#m)"/><g><path d="M12 6c-3.324 0-6 2.676-6 6v72c0 3.324 2.676 6 6 6h72c3.324 0 6-2.676 6-6V12c0-3.324-2.676-6-6-6H12zm-2 4h6v4h-6v-4zm70 0h6v4h-6v-4zm-70 8h6v4h-6v-4zm70 0h6v4h-6v-4zm-70 8h6v4h-6v-4zm70 0h6v4h-6v-4zm-70 8h6v4h-6v-4zm70 0h6v4h-6v-4zm-70 8h6v4h-6v-4zm70 0h6v4h-6v-4zm-70 8h6v4h-6v-4zm70 0h6v4h-6v-4zm-70 8h6v4h-6v-4zm70 0h6v4h-6v-4zm-70 8h6v4h-6v-4zm70 0h6v4h-6v-4zm-70 8h6v4h-6v-4zm70 0h6v4h-6v-4zm-70 8h6v4h-6v-4zm70 0h6v4h-6v-4z" fill="url(#n)"/><rect width="84" height="84" rx="6" ry="6" x="-104" y="6" fill="url(#o)"/><path d="M-100 10v4h6v-4h-6zm70 0v4h6v-4h-6zm-70 8v4h6v-4h-6zm70 0v4h6v-4h-6zm-70 8v4h6v-4h-6zm70 0v4h6v-4h-6zm-70 8v4h6v-4h-6zm70 0v4h6v-4h-6zm-70 8v4h6v-4h-6zm70 0v4h6v-4h-6zm-70 8v4h6v-4h-6zm70 0v4h6v-4h-6zm-70 8v4h6v-4h-6zm70 0v4h6v-4h-6zm-70 8v4h6v-4h-6zm70 0v4h6v-4h-6zm-70 8v4h6v-4h-6zm70 0v4h6v-4h-6zm-70 8v4h6v-4h-6zm70 0v4h6v-4h-6z" opacity=".589" fill="red"/></g><g><rect width="56" height="48" rx="2" ry="2.1" x="20" y="24" fill="url(#p)"/><path d="M22 78c-1.108 0-2 .93-2 2.094V90h56v-9.906C76 78.93 75.108 78 74 78H22z" fill="url(#q)"/><path d="M22 18c-1.108 0-2-.93-2-2.094V6h56v9.906C76 17.07 75.108 18 74 18H22z" fill="url(#r)"/><path d="M20 48v21.906C20 71.07 20.892 72 22 72h52c1.108 0 2-.93 2-2.094V48H20zm2 30c-1.108 0-2 .93-2 2.094V90h56v-9.906C76 78.93 75.108 78 74 78H22z" opacity=".7" fill="url(#s)"/><path d="M110 6v9.906c0 1.164.892 2.094 2 2.094h52c1.108 0 2-.93 2-2.094V6h-2.031v9.906c0 .043-.002.053 0 .063H112.03c.002-.01 0-.02 0-.063V6H110zm2 18c-1.108 0-2 .93-2 2.094v43.812c0 1.164.892 2.094 2 2.094h52c1.108 0 2-.93 2-2.094V26.094c0-1.164-.892-2.094-2-2.094h-52zm.031 2.031h51.938c-.002.01 0 .02 0 .063v43.812c0 .043-.002.053 0 .063H112.03c.002-.01 0-.02 0-.063V26.094c0-.043.002-.053 0-.063zM112 78c-1.108 0-2 .93-2 2.094V90h2.031v-9.906c0-.043.002-.053 0-.063h51.938c-.002.01 0 .02 0 .063V90H166v-9.906c0-1.164-.892-2.094-2-2.094h-52z" opacity=".05"/><path d="M110 6v9.906c0 1.164.892 2.094 2 2.094h52c1.108 0 2-.93 2-2.094V6h-.906v9.906c0 .7-.493 1.188-1.094 1.188h-52c-.6 0-1.094-.488-1.094-1.188V6H110zm2 18c-1.108 0-2 .93-2 2.094v43.812c0 1.164.892 2.094 2 2.094h52c1.108 0 2-.93 2-2.094V26.094c0-1.164-.892-2.094-2-2.094h-52zm0 .906h52c.6 0 1.094.488 1.094 1.188v43.812c0 .7-.493 1.188-1.094 1.188h-52c-.6 0-1.094-.488-1.094-1.188V26.094c0-.7.493-1.188 1.094-1.188zM112 78c-1.108 0-2 .93-2 2.094V90h.906v-9.906c0-.7.493-1.188 1.094-1.188h52c.6 0 1.094.488 1.094 1.188V90H166v-9.906c0-1.164-.892-2.094-2-2.094h-52z" opacity=".15"/><path d="M40 36v24l20.021-12L40 36z" fill="#fff"/><path d="M39.844 35.063a.952.952 0 0 0-.782.937v24a.952.952 0 0 0 1.438.813l20.031-12a.952.952 0 0 0 0-1.626l-20.031-12a.952.952 0 0 0-.656-.124z" opacity=".2" fill="#fff"/><path d="M40.031 33.938c-1.262-.034-2.241 1.213-2.062 2.432v23.911c.17 1.396 1.901 2.245 3.093 1.469 6.721-4.018 13.428-8.06 20.157-12.063.945-.67 1.19-2.134.375-3-.735-.717-1.74-1.119-2.597-1.693l-18.09-10.838c-.275-.136-.58-.164-.876-.218z" opacity=".05" fill="#fff"/></g><g><rect width="66" height="66" rx="12" ry="12" x="15" y="15" clip-path="url(#t)" opacity=".1" fill="url(#u)" stroke="#fff" stroke-width=".5" stroke-linecap="round" filter="url(#v)"/><path d="M12 6c-3.324 0-6 2.676-6 6v72c0 .335.041.65.094.969.048.295.097.597.187.875l.032.094c.098.287.234.547.375.812.144.274.315.536.5.781a6.105 6.105 0 0 0 2.094 1.781c.278.14.573.247.874.344a4.843 4.843 0 0 1-.719-.375c-.007-.004-.023.005-.03 0-.033-.02-.063-.042-.095-.062-.12-.077-.23-.164-.343-.25-.106-.081-.214-.161-.313-.25a5.042 5.042 0 0 1-.5-.531 5.092 5.092 0 0 1-.312-.407c-.025-.038-.039-.086-.063-.125-.065-.103-.13-.204-.187-.312a5.371 5.371 0 0 1-.282-.625c-.007-.022-.023-.04-.03-.063-.033-.092-.037-.187-.063-.281-.03-.107-.07-.203-.094-.313A5.098 5.098 0 0 1 7 85V13c0-2.782 2.218-5 5-5h72c2.782 0 5 2.218 5 5v72c0 .364-.052.721-.125 1.063a4.896 4.896 0 0 1-.156.593c-.008.022-.024.04-.031.063a5.482 5.482 0 0 1-.22.531c-.04.083-.078.17-.124.25-.055.097-.127.188-.188.281a5.092 5.092 0 0 1-.312.406 5.05 5.05 0 0 1-.469.5l-.031.032a4.818 4.818 0 0 1-.438.344c-.102.073-.204.153-.312.218-.008.005-.024-.004-.031 0a4.843 4.843 0 0 1-.72.375c.302-.097.597-.204.876-.344a6.105 6.105 0 0 0 2.094-1.78c.184-.246.355-.508.5-.782a5.69 5.69 0 0 0 .374-.813l.032-.093c.09-.278.139-.58.187-.875.053-.318.094-.634.094-.969V12c0-3.324-2.676-6-6-6H12z" opacity=".25" fill="url(#w)"/><path d="M12 90c-3.324 0-6-2.676-6-6V12c0-.335.041-.65.094-.969.048-.295.097-.597.187-.875l.032-.094a5.69 5.69 0 0 1 .375-.812c.144-.274.315-.536.5-.781a6.105 6.105 0 0 1 2.094-1.781c.278-.14.573-.247.874-.344-.256.1-.486.236-.719.375-.007.004-.023-.005-.03 0-.033.019-.063.042-.095.062-.12.077-.23.164-.343.25-.106.081-.214.161-.313.25a5.042 5.042 0 0 0-.5.532c-.107.13-.218.265-.312.406-.025.038-.039.086-.063.125-.065.103-.13.204-.187.312a5.371 5.371 0 0 0-.282.625c-.007.022-.023.04-.03.063-.033.092-.037.187-.063.281-.03.107-.07.203-.094.313A5.098 5.098 0 0 0 7 11v72c0 2.782 2.218 5 5 5h72c2.782 0 5-2.218 5-5V11c0-.364-.052-.721-.125-1.063a4.896 4.896 0 0 0-.156-.593c-.008-.022-.024-.04-.031-.063a5.482 5.482 0 0 0-.22-.531c-.04-.083-.078-.17-.124-.25-.055-.097-.127-.188-.188-.281a5.092 5.092 0 0 0-.312-.406 5.05 5.05 0 0 0-.469-.5l-.031-.032a4.818 4.818 0 0 0-.438-.343c-.102-.074-.204-.154-.312-.22-.008-.004-.024.005-.031 0a4.843 4.843 0 0 0-.72-.374c.302.097.597.204.876.343a6.105 6.105 0 0 1 2.094 1.782c.184.245.355.507.5.781.14.265.276.525.374.813l.032.093c.09.278.139.58.187.875.053.318.094.634.094.969v72c0 3.324-2.676 6-6 6H12z" opacity=".15" fill="url(#x)"/><path d="M12 6c-3.324 0-6 2.676-6 6v46.375A128.308 128.308 0 0 1 15.063 54H10v-4h6v3.594C36.055 45.059 60.989 40 88 40c.67 0 1.333.025 2 .031V12c0-3.324-2.676-6-6-6H12zm-2 4h6v4h-6v-4zm70 0h6v4h-6v-4zm-70 8h6v4h-6v-4zm70 0h6v4h-6v-4zm-70 8h6v4h-6v-4zm70 0h6v4h-6v-4zm-70 8h6v4h-6v-4zm70 0h6v4h-6v-4zm-70 8h6v4h-6v-4z" opacity=".4" fill="url(#y)"/></g></svg>