<svg xmlns="http://www.w3.org/2000/svg" xmlns:xlink="http://www.w3.org/1999/xlink" version="1.0" width="96" height="96"><defs><linearGradient id="f"><stop offset="0" stop-color="#d5d5d5"/><stop offset="1" stop-color="#e3e3e3"/></linearGradient><linearGradient id="e"><stop offset="0" stop-color="#7dbb33"/><stop offset="1" stop-color="#9ed35f"/></linearGradient><linearGradient x1="45.448" y1="92.54" x2="45.448" y2="7.017" id="h" gradientUnits="userSpaceOnUse" gradientTransform="scale(1.00587 .99417)"><stop offset="0"/><stop offset="1" stop-opacity=".588"/></linearGradient><linearGradient id="b"><stop offset="0" stop-color="#fff"/><stop offset="1" stop-color="#fff" stop-opacity="0"/></linearGradient><linearGradient id="a"><stop offset="0" stop-color="#e6e6e6"/><stop offset="1" stop-color="#f5f5f5"/></linearGradient><linearGradient x1="48" y1="90" x2="48" y2="5.988" id="o" xlink:href="#a" gradientUnits="userSpaceOnUse"/><filter color-interpolation-filters="sRGB" id="i"><feGaussianBlur stdDeviation="1.71"/></filter><linearGradient x1="36.357" y1="6" x2="36.357" y2="63.893" id="w" xlink:href="#b" gradientUnits="userSpaceOnUse"/><linearGradient x1="45.448" y1="92.54" x2="45.448" y2="7.017" id="c" gradientUnits="userSpaceOnUse" gradientTransform="matrix(1.00587 0 0 .99417 100 0)"><stop offset="0"/><stop offset="1" stop-opacity=".588"/></linearGradient><linearGradient x1="32.251" y1="6.132" x2="32.251" y2="90.239" id="k" xlink:href="#c" gradientUnits="userSpaceOnUse" gradientTransform="matrix(1.0238 0 0 1.0119 -1.143 -98.071)"/><linearGradient x1="32.251" y1="6.132" x2="32.251" y2="90.239" id="l" xlink:href="#c" gradientUnits="userSpaceOnUse" gradientTransform="matrix(1.0238 0 0 1.0119 -1.143 -98.071)"/><linearGradient x1="32.251" y1="6.132" x2="32.251" y2="90.239" id="m" xlink:href="#c" gradientUnits="userSpaceOnUse" gradientTransform="matrix(1.0238 0 0 1.0119 -1.143 -98.071)"/><linearGradient x1="32.251" y1="6.132" x2="32.251" y2="90.239" id="n" xlink:href="#c" gradientUnits="userSpaceOnUse" gradientTransform="translate(0 -97)"/><linearGradient x1="32.251" y1="6.132" x2="32.251" y2="90.239" id="j" xlink:href="#c" gradientUnits="userSpaceOnUse" gradientTransform="matrix(1.0238 0 0 1.0119 -1.143 -98.071)"/><linearGradient id="d"><stop offset="0" stop-color="#fff"/><stop offset="1" stop-color="#fff" stop-opacity="0"/></linearGradient><radialGradient cx="48" cy="90.172" r="42" fx="48" fy="90.172" id="x" xlink:href="#d" gradientUnits="userSpaceOnUse" gradientTransform="matrix(1.15731 0 0 .9959 -7.551 .197)"/><linearGradient x1="36.357" y1="6" x2="36.357" y2="63.893" id="y" xlink:href="#b" gradientUnits="userSpaceOnUse"/><linearGradient x1="17.385" y1="89.637" x2="17.385" y2="6.507" id="p" xlink:href="#e" gradientUnits="userSpaceOnUse"/><linearGradient x1="56" y1="80" x2="56" y2="16" id="v" xlink:href="#f" gradientUnits="userSpaceOnUse"/><linearGradient id="g"><stop offset="0" stop-color="#fff"/><stop offset="1" stop-color="#fff" stop-opacity="0"/></linearGradient><clipPath id="q"><path d="M12 6c-3.324 0-6 2.676-6 6v72c0 3.324 2.676 6 6 6h12V6H12z" fill="red"/></clipPath><filter x="-.192" y="-.192" width="1.384" height="1.384" color-interpolation-filters="sRGB" id="s"><feGaussianBlur stdDeviation="5.28"/></filter><linearGradient x1="48" y1="20.221" x2="48" y2="138.661" id="u" xlink:href="#g" gradientUnits="userSpaceOnUse"/><clipPath id="t"><path d="M24 6v84h60c3.324 0 6-2.676 6-6V12c0-3.324-2.676-6-6-6H24z" fill="#f0f"/></clipPath><linearGradient x1="48" y1="20.221" x2="48" y2="138.661" id="r" xlink:href="#g" gradientUnits="userSpaceOnUse"/></defs><g transform="scale(1 -1)"><path d="M12-95.031c-5.511 0-10.031 4.52-10.031 10.031v71C1.969-8.489 6.489-3.969 12-3.969h72c5.511 0 10.031-4.52 10.031-10.031v-71c0-5.511-4.52-10.031-10.031-10.031H12z" opacity=".08" fill="url(#j)"/><path d="M12-94.031c-4.972 0-9.031 4.06-9.031 9.031v71c0 4.972 4.06 9.031 9.031 9.031h72c4.972 0 9.031-4.06 9.031-9.031v-71c0-4.972-4.06-9.031-9.031-9.031H12z" opacity=".1" fill="url(#k)"/><path d="M12-93c-4.41 0-8 3.59-8 8v71c0 4.41 3.59 8 8 8h72c4.41 0 8-3.59 8-8v-71c0-4.41-3.59-8-8-8H12z" opacity=".2" fill="url(#l)"/><rect width="86" height="85" rx="7" ry="7" x="5" y="-92" opacity=".3" fill="url(#m)"/><rect width="84" height="84" rx="6" ry="6" x="6" y="-91" opacity=".45" fill="url(#n)"/></g><path d="M24 6v84h60c3.324 0 6-2.676 6-6V12c0-3.324-2.676-6-6-6H24z" fill="url(#o)"/><path d="M12 6c-3.324 0-6 2.676-6 6v72c0 3.324 2.676 6 6 6h12V6H12z" style="marker:none" color="#000" fill="url(#p)" overflow="visible" enable-background="accumulate"/><rect width="84" height="84" rx="6" ry="6" x="-94" y="6" fill="#f0f"/><g stroke="#fff" stroke-width=".5" stroke-linecap="round"><rect width="66" height="66" rx="12" ry="12" x="15" y="15" clip-path="url(#q)" opacity=".2" fill="url(#r)" filter="url(#s)"/><rect width="66" height="66" rx="12" ry="12" x="15" y="15" clip-path="url(#t)" opacity=".5" fill="url(#u)" filter="url(#s)"/></g><g><path d="M33 16v64h8V24h40v-8H33z" style="marker:none" color="#000" fill="url(#v)" overflow="visible" enable-background="accumulate"/><path style="marker:none" opacity=".3" color="#000" fill="#666" overflow="visible" enable-background="accumulate" d="M110 15h1v66h-1z"/><path style="marker:none" opacity=".3" color="#000" fill="#666" overflow="visible" enable-background="accumulate" d="M152 24v-1h-50v1z"/><path style="marker:none" opacity=".3" color="#000" fill="#666" overflow="visible" enable-background="accumulate" d="M130 15h1v66h-1z"/><path style="marker:none" opacity=".3" color="#000" fill="#666" overflow="visible" enable-background="accumulate" d="M152 32v-1h-50v1zM152 40v-1h-50v1zM152 48v-1h-50v1zM152 56v-1h-50v1zM152 64v-1h-50v1zM152 72v-1h-50v1z"/><path style="marker:none" opacity=".5" color="#000" fill="#fff" overflow="visible" enable-background="accumulate" d="M24 6h1v84h-1z"/><path style="marker:none" opacity=".05" color="#000" overflow="visible" enable-background="accumulate" d="M23 6h1v84h-1z"/><path style="marker:none" opacity=".5" color="#000" fill="#80d818" overflow="visible" enable-background="accumulate" d="M60 39h21v9H60z"/><path style="marker:none" opacity=".2" color="#000" fill="#80d818" overflow="visible" enable-background="accumulate" d="M60 24h21v15H60zM41 39h19v9H41z"/><path d="M40 15v8h-8v1h8v7h-8v1h8v7h-8v1h8v7h-8v1h8v7h-8v1h8v7h-8v1h8v7h-8v1h8v9h1v-9h19v9h1v-9h21v-1H61v-7h21v-1H61v-7h21v-1H61v-7h21v-1H61v-7h21v-1H61v-7h21v-1H61v-7h21v-1H61v-8h-1v8H41v-8h-1zm1 9h19v7H41v-7zm0 8h19v7H41v-7zm0 8h19v7H41v-7zm0 8h19v7H41v-7zm0 8h19v7H41v-7zm0 8h19v7H41v-7z" style="marker:none" opacity=".2" color="#000" overflow="visible" enable-background="accumulate"/><path d="M32 15v66h50V15H32zm1 1h48v64H33V16z" style="text-indent:0;text-align:start;line-height:normal;text-transform:none;block-progression:tb;marker:none;-inkscape-font-specification:Abandoned Bitplane" font-weight="400" color="#000" fill="gray" overflow="visible" enable-background="accumulate" font-family="Abandoned Bitplane"/><path style="marker:none" opacity=".2" color="#000" fill="#6e6e6e" overflow="visible" enable-background="accumulate" d="M33 39h8v9h-8zM60 15h21v9H60z"/><path d="M51.213 21l-.244-.703h-1.05l-.243.703H49.1l1.004-2.752h.68l1 2.752h-.571m-.645-1.928c-.015-.045-.03-.09-.047-.136a31.959 31.959 0 0 0-.066-.223.473.473 0 0 0-.012-.041 5.588 5.588 0 0 1-.123.4l-.271.791h.79l-.27-.79M71.707 20.215c0 .14-.028.259-.084.36a.7.7 0 0 1-.23.243 1.054 1.054 0 0 1-.338.139 1.887 1.887 0 0 1-.41.043h-1.377v-2.752h1.26c.162 0 .307.014.433.043.128.027.235.07.322.127.087.057.153.13.197.217a.642.642 0 0 1 .069.304.611.611 0 0 1-.131.397.663.663 0 0 1-.395.217c.223.026.392.096.508.21a.599.599 0 0 1 .176.452m-.738-1.197c0-.124-.04-.212-.12-.264-.078-.052-.194-.078-.349-.078h-.656v.681h.66c.163 0 .28-.028.353-.084.075-.057.112-.142.112-.255m.16 1.152a.361.361 0 0 0-.043-.184.327.327 0 0 0-.12-.119.53.53 0 0 0-.175-.064 1.128 1.128 0 0 0-.217-.02h-.73v.79h.752c.075 0 .146-.007.21-.018a.486.486 0 0 0 .169-.065.328.328 0 0 0 .113-.125.417.417 0 0 0 .04-.195" font-size="4" font-weight="700" fill="#4d4d4d" font-family="Liberation Sans"/><path d="M35.584 29v-.408h.682v-1.877l-.66.412v-.432l.689-.447h.52v2.344h.63V29h-1.861M35.47 37v-.38c.063-.138.14-.26.23-.37.09-.11.183-.212.28-.303.1-.092.197-.177.293-.256.098-.079.185-.155.262-.228a1.25 1.25 0 0 0 .19-.223.427.427 0 0 0 .072-.236c0-.122-.03-.213-.092-.272-.061-.058-.151-.087-.27-.087-.117 0-.206.031-.269.095a.496.496 0 0 0-.12.283l-.552-.03c.013-.109.04-.21.08-.306a.753.753 0 0 1 .172-.25.793.793 0 0 1 .281-.167c.114-.042.248-.063.405-.063.148 0 .28.018.394.053.115.034.211.084.29.15a.64.64 0 0 1 .177.244c.04.095.06.204.06.326a.787.787 0 0 1-.076.35c-.05.104-.116.2-.195.29-.08.086-.168.168-.266.245l-.28.225a3.276 3.276 0 0 0-.25.22.767.767 0 0 0-.167.239h1.277V37h-1.925M37.412 44.236c0 .125-.02.238-.062.338a.657.657 0 0 1-.184.254.85.85 0 0 1-.307.162 1.475 1.475 0 0 1-.423.055c-.18 0-.332-.023-.456-.068a.775.775 0 0 1-.48-.436 1.104 1.104 0 0 1-.076-.289l.558-.049a.63.63 0 0 0 .043.162.381.381 0 0 0 .22.207.58.58 0 0 0 .189.028.445.445 0 0 0 .306-.098c.073-.065.11-.165.11-.299a.334.334 0 0 0-.053-.197.333.333 0 0 0-.131-.113.531.531 0 0 0-.17-.055 1.184 1.184 0 0 0-.174-.014h-.191v-.443h.18c.054 0 .11-.005.166-.016a.455.455 0 0 0 .154-.056.32.32 0 0 0 .111-.114.37.37 0 0 0 .043-.187.359.359 0 0 0-.096-.266c-.062-.065-.154-.097-.275-.097a.4.4 0 0 0-.275.093.39.39 0 0 0-.12.266l-.548-.04a.797.797 0 0 1 .605-.71 1.26 1.26 0 0 1 .348-.047c.161 0 .3.02.416.059a.81.81 0 0 1 .285.158.612.612 0 0 1 .164.232.76.76 0 0 1 .018.51.562.562 0 0 1-.108.188.636.636 0 0 1-.181.142.95.95 0 0 1-.264.088v.008c.113.013.211.039.295.078a.633.633 0 0 1 .205.142.56.56 0 0 1 .119.196c.026.071.04.148.04.228M37.168 52.44V53h-.523v-.56h-1.252v-.413l1.162-1.779h.613v1.783h.367v.408h-.367m-.523-1.308v-.086a91.016 91.016 0 0 0 .01-.219 1.5 1.5 0 0 1 .007-.082 1.353 1.353 0 0 1-.08.149 3.419 3.419 0 0 1-.104.168l-.638.97h.805v-.9M37.445 60.084c0 .138-.022.266-.066.383a.832.832 0 0 1-.514.502 1.26 1.26 0 0 1-.44.07 1.33 1.33 0 0 1-.402-.055.758.758 0 0 1-.477-.387 1.002 1.002 0 0 1-.09-.285l.548-.044c.01.043.025.084.043.125.02.04.046.076.08.107a.397.397 0 0 0 .125.076c.05.018.11.028.18.028a.423.423 0 0 0 .326-.131c.082-.088.123-.213.123-.377a.586.586 0 0 0-.031-.198.417.417 0 0 0-.086-.15.356.356 0 0 0-.137-.096.476.476 0 0 0-.184-.033.431.431 0 0 0-.224.053.534.534 0 0 0-.149.125h-.535l.096-1.549h1.654v.408H36.13l-.045.696a.744.744 0 0 1 .498-.176c.135 0 .257.022.363.066a.77.77 0 0 1 .442.473c.039.11.058.234.058.369M37.412 68.1c0 .138-.02.265-.058.38a.81.81 0 0 1-.176.297.8.8 0 0 1-.29.194c-.115.045-.25.068-.402.068-.324 0-.573-.113-.748-.34-.173-.228-.26-.565-.26-1.011 0-.491.088-.86.264-1.108.177-.249.43-.373.758-.373.11 0 .209.012.299.035a.674.674 0 0 1 .42.307c.05.08.089.176.119.29l-.518.073a.357.357 0 0 0-.127-.207.337.337 0 0 0-.205-.064c-.147 0-.263.073-.347.22-.084.147-.125.37-.125.67a.582.582 0 0 1 .244-.224.78.78 0 0 1 .353-.078c.121 0 .23.02.328.06.1.04.183.096.252.172.07.074.125.165.162.273.038.108.057.23.057.366m-.55.015a.72.72 0 0 0-.026-.199.402.402 0 0 0-.078-.152.331.331 0 0 0-.127-.096.466.466 0 0 0-.32-.012.375.375 0 0 0-.22.207.48.48 0 0 0-.036.194c0 .078.01.15.029.218.02.068.047.127.082.178a.357.357 0 0 0 .303.158c.123 0 .22-.043.289-.13a.58.58 0 0 0 .103-.366M37.38 74.684c-.123.195-.24.384-.35.568-.11.184-.206.368-.288.555a3.409 3.409 0 0 0-.195.572c-.047.195-.07.402-.07.621h-.573c0-.217.026-.424.076-.62.053-.196.123-.387.211-.573a4.83 4.83 0 0 1 .309-.551c.117-.182.24-.368.371-.557h-1.367v-.451h1.877v.436" font-size="4" font-weight="700" text-anchor="middle" fill="#4d4d4d" font-family="Liberation Sans"/><path d="M60 39v9h22v-9H60zm1 1h20v7H61v-7z" style="marker:none" opacity=".5" color="#000" fill="#569110" overflow="visible" enable-background="accumulate"/></g><g><path d="M24 6v2h60c2.782 0 5 2.218 5 5v72c0 .364-.052.721-.125 1.063a4.896 4.896 0 0 1-.156.593c-.008.022-.024.04-.031.063a5.482 5.482 0 0 1-.22.531c-.04.083-.078.17-.124.25-.055.097-.127.188-.188.281a5.092 5.092 0 0 1-.312.406 5.05 5.05 0 0 1-.469.5l-.031.032a4.818 4.818 0 0 1-.438.344c-.102.073-.204.153-.312.218-.008.005-.024-.004-.031 0a4.843 4.843 0 0 1-.72.375c.302-.097.597-.204.876-.344a6.105 6.105 0 0 0 2.094-1.78c.184-.246.355-.508.5-.782a5.69 5.69 0 0 0 .374-.813l.032-.093c.09-.278.139-.58.187-.875.053-.318.094-.634.094-.969V12c0-3.324-2.676-6-6-6H24z" opacity=".5" fill="url(#w)"/><path d="M12 90c-3.324 0-6-2.676-6-6V12c0-.335.041-.65.094-.969.048-.295.097-.597.187-.875l.032-.094a5.69 5.69 0 0 1 .375-.812c.144-.274.315-.536.5-.781a6.105 6.105 0 0 1 2.094-1.781c.278-.14.573-.247.874-.344-.256.1-.486.236-.719.375-.007.004-.023-.005-.03 0-.033.019-.063.042-.095.062-.12.077-.23.164-.343.25-.106.081-.214.161-.313.25a5.042 5.042 0 0 0-.5.532c-.107.13-.218.265-.312.406-.025.038-.039.086-.063.125-.065.103-.13.204-.187.312a5.371 5.371 0 0 0-.282.625c-.007.022-.023.04-.03.063-.033.092-.037.187-.063.281-.03.107-.07.203-.094.313A5.098 5.098 0 0 0 7 11v72c0 2.782 2.218 5 5 5h72c2.782 0 5-2.218 5-5V11c0-.364-.052-.721-.125-1.063a4.896 4.896 0 0 0-.156-.593c-.008-.022-.024-.04-.031-.063a5.482 5.482 0 0 0-.22-.531c-.04-.083-.078-.17-.124-.25-.055-.097-.127-.188-.188-.281a5.092 5.092 0 0 0-.312-.406 5.05 5.05 0 0 0-.469-.5l-.031-.032a4.818 4.818 0 0 0-.438-.343c-.102-.074-.204-.154-.312-.22-.008-.004-.024.005-.031 0a4.843 4.843 0 0 0-.72-.374c.302.097.597.204.876.343a6.105 6.105 0 0 1 2.094 1.782c.184.245.355.507.5.781.14.265.276.525.374.813l.032.093c.09.278.139.58.187.875.053.318.094.634.094.969v72c0 3.324-2.676 6-6 6H12z" opacity=".4" fill="url(#x)"/><path d="M12 6c-3.324 0-6 2.676-6 6v72c0 .335.041.65.094.969.033.2.079.397.125.594.02.074.04.145.062.218.006.02-.006.044 0 .063l.032.094c.018.054.041.103.062.156.09.226.199.44.313.656.144.274.315.536.5.781a6.105 6.105 0 0 0 2.094 1.781c.278.14.573.247.874.344a4.843 4.843 0 0 1-.719-.375c-.007-.004-.023.005-.03 0-.033-.02-.063-.042-.095-.062-.12-.077-.23-.164-.343-.25-.106-.081-.214-.161-.313-.25a5.042 5.042 0 0 1-.5-.531 5.092 5.092 0 0 1-.312-.407c-.025-.038-.039-.086-.063-.125-.065-.103-.13-.204-.187-.312a5.371 5.371 0 0 1-.282-.625c-.007-.022-.023-.04-.03-.063-.033-.092-.037-.187-.063-.281-.03-.107-.07-.203-.094-.313A5.098 5.098 0 0 1 7 85V13c0-2.782 2.218-5 5-5h12V6H12z" opacity=".3" fill="url(#y)"/></g></svg>