<svg xmlns="http://www.w3.org/2000/svg" xmlns:xlink="http://www.w3.org/1999/xlink" version="1.0" width="96" height="96"><defs><linearGradient id="e"><stop offset="0" stop-color="#de6a07"/><stop offset="1" stop-color="#f8a425"/></linearGradient><linearGradient x1="45.448" y1="92.54" x2="45.448" y2="7.017" id="g" gradientUnits="userSpaceOnUse" gradientTransform="scale(1.00587 .99417)"><stop offset="0"/><stop offset="1" stop-opacity=".588"/></linearGradient><linearGradient id="b"><stop offset="0" stop-color="#fff"/><stop offset="1" stop-color="#fff" stop-opacity="0"/></linearGradient><linearGradient id="a"><stop offset="0" stop-color="#e6e6e6"/><stop offset="1" stop-color="#f5f5f5"/></linearGradient><linearGradient x1="48" y1="90" x2="48" y2="5.988" id="n" xlink:href="#a" gradientUnits="userSpaceOnUse"/><filter color-interpolation-filters="sRGB" id="h"><feGaussianBlur stdDeviation="1.71"/></filter><linearGradient x1="36.357" y1="6" x2="36.357" y2="63.893" id="o" xlink:href="#b" gradientUnits="userSpaceOnUse"/><linearGradient x1="45.448" y1="92.54" x2="45.448" y2="7.017" id="c" gradientUnits="userSpaceOnUse" gradientTransform="matrix(1.00587 0 0 .99417 100 0)"><stop offset="0"/><stop offset="1" stop-opacity=".588"/></linearGradient><linearGradient x1="32.251" y1="6.132" x2="32.251" y2="90.239" id="j" xlink:href="#c" gradientUnits="userSpaceOnUse" gradientTransform="matrix(1.0238 0 0 1.0119 -1.143 -98.071)"/><linearGradient x1="32.251" y1="6.132" x2="32.251" y2="90.239" id="k" xlink:href="#c" gradientUnits="userSpaceOnUse" gradientTransform="matrix(1.0238 0 0 1.0119 -1.143 -98.071)"/><linearGradient x1="32.251" y1="6.132" x2="32.251" y2="90.239" id="l" xlink:href="#c" gradientUnits="userSpaceOnUse" gradientTransform="matrix(1.0238 0 0 1.0119 -1.143 -98.071)"/><linearGradient x1="32.251" y1="6.132" x2="32.251" y2="90.239" id="m" xlink:href="#c" gradientUnits="userSpaceOnUse" gradientTransform="translate(0 -97)"/><linearGradient x1="32.251" y1="6.132" x2="32.251" y2="90.239" id="i" xlink:href="#c" gradientUnits="userSpaceOnUse" gradientTransform="matrix(1.0238 0 0 1.0119 -1.143 -98.071)"/><linearGradient id="d"><stop offset="0" stop-color="#fff"/><stop offset="1" stop-color="#fff" stop-opacity="0"/></linearGradient><radialGradient cx="48" cy="90.172" r="42" fx="48" fy="90.172" id="p" xlink:href="#d" gradientUnits="userSpaceOnUse" gradientTransform="matrix(1.15731 0 0 .9959 -7.551 .197)"/><clipPath id="q"><path d="M-98 6c-3.324 0-6 2.676-6 6v72c0 3.324 2.676 6 6 6h72c3.324 0 6-2.676 6-6V12c0-3.324-2.676-6-6-6h-72zm59.063 12c.6-.01.937.031.937.031v12.063c-12.051.212-15 11.968-15 11.968h9.063v12.063h-14.094C-66.508 80.277-86 77.938-86 77.938V65.874s12.376 2.298 18.688-20.75C-60.404 19.898-43.145 18.064-38.939 18z" fill="#f0f"/></clipPath><filter x="-.162" y="-.13" width="1.324" height="1.259" color-interpolation-filters="sRGB" id="r"><feGaussianBlur stdDeviation="3.24"/></filter><linearGradient x1="46.882" y1="75.753" x2="46.882" y2="35.372" id="v" xlink:href="#e" gradientUnits="userSpaceOnUse" gradientTransform="translate(-4)"/><linearGradient id="f"><stop offset="0" stop-color="#fff"/><stop offset="1" stop-color="#fff" stop-opacity="0"/></linearGradient><clipPath id="s"><rect width="84" height="84" rx="6" ry="6" x="6" y="6" fill="#fff"/></clipPath><filter x="-.192" y="-.192" width="1.384" height="1.384" color-interpolation-filters="sRGB" id="u"><feGaussianBlur stdDeviation="5.28"/></filter><linearGradient x1="48" y1="20.221" x2="48" y2="138.661" id="t" xlink:href="#f" gradientUnits="userSpaceOnUse"/></defs><g transform="scale(1 -1)"><path d="M12-95.031c-5.511 0-10.031 4.52-10.031 10.031v71C1.969-8.489 6.489-3.969 12-3.969h72c5.511 0 10.031-4.52 10.031-10.031v-71c0-5.511-4.52-10.031-10.031-10.031H12z" opacity=".08" fill="url(#i)"/><path d="M12-94.031c-4.972 0-9.031 4.06-9.031 9.031v71c0 4.972 4.06 9.031 9.031 9.031h72c4.972 0 9.031-4.06 9.031-9.031v-71c0-4.972-4.06-9.031-9.031-9.031H12z" opacity=".1" fill="url(#j)"/><path d="M12-93c-4.41 0-8 3.59-8 8v71c0 4.41 3.59 8 8 8h72c4.41 0 8-3.59 8-8v-71c0-4.41-3.59-8-8-8H12z" opacity=".2" fill="url(#k)"/><rect width="86" height="85" rx="7" ry="7" x="5" y="-92" opacity=".3" fill="url(#l)"/><rect width="84" height="84" rx="6" ry="6" x="6" y="-91" opacity=".45" fill="url(#m)"/></g><rect width="84" height="84" rx="6" ry="6" x="6" y="6" fill="url(#n)"/><path d="M12 6c-3.324 0-6 2.676-6 6v72c0 .335.041.65.094.969.048.295.097.597.187.875l.032.094c.098.287.234.547.375.812.144.274.315.536.5.781a6.105 6.105 0 0 0 2.094 1.781c.278.14.573.247.874.344a4.843 4.843 0 0 1-.719-.375c-.007-.004-.023.005-.03 0-.033-.02-.063-.042-.095-.062-.12-.077-.23-.164-.343-.25-.106-.081-.214-.161-.313-.25a5.042 5.042 0 0 1-.5-.531 5.092 5.092 0 0 1-.312-.407c-.025-.038-.039-.086-.063-.125-.065-.103-.13-.204-.187-.312a5.371 5.371 0 0 1-.282-.625c-.007-.022-.023-.04-.03-.063-.033-.092-.037-.187-.063-.281-.03-.107-.07-.203-.094-.313A5.098 5.098 0 0 1 7 85V13c0-2.782 2.218-5 5-5h72c2.782 0 5 2.218 5 5v72c0 .364-.052.721-.125 1.063a4.896 4.896 0 0 1-.156.593c-.008.022-.024.04-.031.063a5.482 5.482 0 0 1-.22.531c-.04.083-.078.17-.124.25-.055.097-.127.188-.188.281a5.092 5.092 0 0 1-.312.406 5.05 5.05 0 0 1-.469.5l-.031.032a4.818 4.818 0 0 1-.438.344c-.102.073-.204.153-.312.218-.008.005-.024-.004-.031 0a4.843 4.843 0 0 1-.72.375c.302-.097.597-.204.876-.344a6.105 6.105 0 0 0 2.094-1.78c.184-.246.355-.508.5-.782a5.69 5.69 0 0 0 .374-.813l.032-.093c.09-.278.139-.58.187-.875.053-.318.094-.634.094-.969V12c0-3.324-2.676-6-6-6H12z" opacity=".5" fill="url(#o)"/><path d="M12 90c-3.324 0-6-2.676-6-6V12c0-.335.041-.65.094-.969.048-.295.097-.597.187-.875l.032-.094a5.69 5.69 0 0 1 .375-.812c.144-.274.315-.536.5-.781a6.105 6.105 0 0 1 2.094-1.781c.278-.14.573-.247.874-.344-.256.1-.486.236-.719.375-.007.004-.023-.005-.03 0-.033.019-.063.042-.095.062-.12.077-.23.164-.343.25-.106.081-.214.161-.313.25a5.042 5.042 0 0 0-.5.532c-.107.13-.218.265-.312.406-.025.038-.039.086-.063.125-.065.103-.13.204-.187.312a5.371 5.371 0 0 0-.282.625c-.007.022-.023.04-.03.063-.033.092-.037.187-.063.281-.03.107-.07.203-.094.313A5.098 5.098 0 0 0 7 11v72c0 2.782 2.218 5 5 5h72c2.782 0 5-2.218 5-5V11c0-.364-.052-.721-.125-1.063a4.896 4.896 0 0 0-.156-.593c-.008-.022-.024-.04-.031-.063a5.482 5.482 0 0 0-.22-.531c-.04-.083-.078-.17-.124-.25-.055-.097-.127-.188-.188-.281a5.092 5.092 0 0 0-.312-.406 5.05 5.05 0 0 0-.469-.5l-.031-.032a4.818 4.818 0 0 0-.438-.343c-.102-.074-.204-.154-.312-.22-.008-.004-.024.005-.031 0a4.843 4.843 0 0 0-.72-.374c.302.097.597.204.876.343a6.105 6.105 0 0 1 2.094 1.782c.184.245.355.507.5.781.14.265.276.525.374.813l.032.093c.09.278.139.58.187.875.053.318.094.634.094.969v72c0 3.324-2.676 6-6 6H12z" opacity=".3" fill="url(#p)"/><path d="M-38 18.02v12.07c-12.051.212-15.013 11.964-15.013 11.964h9.09v12.07h-14.094C-66.494 80.276-86 77.947-86 77.947v-12.07s12.378 2.296 18.69-20.752C-59.417 16.293-38 18.02-38 18.02z" transform="translate(110)" clip-path="url(#q)" opacity=".6" fill="none" stroke="#fff" stroke-width="2" filter="url(#r)"/><rect width="84" height="84" rx="6" ry="6" x="-104" y="6" fill="#f0f"/><g><rect width="66" height="66" rx="12" ry="12" x="15" y="15" clip-path="url(#s)" opacity=".5" fill="url(#t)" stroke="#fff" stroke-width=".5" stroke-linecap="round" filter="url(#u)"/></g><g><path d="M12 12v17.938L20.094 12H12zm9.906 0L30 29.938V12h-8.094zM21 19.031l-3.031 7h2.928L22.617 30h3.227l-2.375-5.281-.063-.125L21 19.03z" opacity=".5" fill="#999"/><path d="M34.875 36L22 76h8.469l2.75-9.469h13.656L49.563 76h8.5L45.124 36h-10.25zM66 36.031c-.594 0-1.177.061-1.719.188a3.434 3.434 0 0 0-1.375.687c-.384.307-.71.727-.937 1.25-.228.506-.313 1.161-.313 1.938 0 .758.085 1.382.313 1.906.227.524.553.956.937 1.281.402.307.85.512 1.375.657a7.6 7.6 0 0 0 1.719.218c.594 0 1.132-.092 1.656-.218.525-.145.99-.35 1.375-.657.402-.325.742-.757.969-1.281.245-.524.344-1.148.344-1.906 0-.777-.1-1.432-.344-1.938a3.126 3.126 0 0 0-.969-1.25 3.325 3.325 0 0 0-1.375-.687A6.965 6.965 0 0 0 66 36.03zm-25.969 5.594l4.875 17.813H35.25c1.558-5.94 3.614-11.773 4.781-17.813zm21.938 6.406V76H70V48.031h-8.031z" style="text-align:start;line-height:125%;-inkscape-font-specification:Abandoned Bitplane Bold" font-size="55.469" font-weight="700" fill="url(#v)" font-family="Droid Sans"/><path d="M61.688 40.594c-.01.169-.032.317-.032.5 0 .758.085 1.382.313 1.906.227.524.553.956.937 1.281.402.307.85.512 1.375.657a7.6 7.6 0 0 0 1.719.218c.594 0 1.132-.092 1.656-.218.525-.145.99-.35 1.375-.657.402-.325.742-.757.969-1.281.245-.524.344-1.148.344-1.906 0-.183-.02-.332-.031-.5-.039.527-.127 1.009-.313 1.406a3.364 3.364 0 0 1-.969 1.281c-.384.307-.85.512-1.375.657a6.937 6.937 0 0 1-1.656.218 7.6 7.6 0 0 1-1.719-.218c-.524-.145-.973-.35-1.375-.657A3.481 3.481 0 0 1 61.97 42c-.172-.397-.248-.88-.282-1.406zM40.03 41.625c-.072.4-.155.861-.281 1.406a29.598 29.598 0 0 1-.406 1.75c-.145.6-.307 1.195-.469 1.813-.163.617-.324 1.205-.469 1.75A43.1 43.1 0 0 1 38 49.78c-.108.418-.196.738-.25.938l-2.5 8.718h.281l2.219-7.718c.054-.2.142-.52.25-.938a43.1 43.1 0 0 0 .406-1.437c.145-.545.306-1.133.469-1.75.162-.618.324-1.213.469-1.813.162-.617.298-1.205.406-1.75.126-.545.209-1.006.281-1.406.09.636.252 1.404.469 2.313.217.908.453 1.81.688 2.718.252.89.47 1.693.687 2.438.217.745.392 1.298.5 1.625l2.25 7.718h.281l-2.531-8.718a47.93 47.93 0 0 1-.5-1.625c-.217-.745-.435-1.548-.688-2.438-.234-.908-.47-1.81-.687-2.718-.217-.909-.378-1.677-.469-2.313zM33.22 66.531L30.469 76h-8.157L22 77h8.469l2.75-9.469h13.656L49.563 77h8.5l-.313-1h-8.188l-2.687-9.469H33.219zM61.969 76v1H70v-1h-8.031z" style="text-align:start;line-height:125%;-inkscape-font-specification:Abandoned Bitplane Bold" font-size="55.469" font-weight="700" opacity=".8" fill="#fff" font-family="Droid Sans"/><path d="M34.875 36L22 76h.313l12.562-39h10.25L57.75 76h.313L45.124 36h-10.25zM66 36.031c-.594 0-1.177.061-1.719.188a3.434 3.434 0 0 0-1.375.687c-.384.307-.71.727-.937 1.25-.228.506-.313 1.161-.313 1.938 0 .184.02.331.032.5.033-.55.107-1.051.28-1.438.228-.523.554-.943.938-1.25.402-.325.85-.56 1.375-.687A7.614 7.614 0 0 1 66 37.03c.594 0 1.132.061 1.656.188.525.126.99.362 1.375.687.402.307.742.727.969 1.25.187.387.275.888.313 1.438.012-.168.03-.317.03-.5 0-.777-.098-1.432-.343-1.938a3.126 3.126 0 0 0-.969-1.25 3.325 3.325 0 0 0-1.375-.687A6.965 6.965 0 0 0 66 36.03zm-4.031 12v1H70v-1h-8.031zM35.53 59.438c-.09.333-.193.665-.281 1h9.656l-.281-1h-9.094z" style="text-align:start;line-height:125%;-inkscape-font-specification:Abandoned Bitplane Bold" font-size="55.469" font-weight="700" opacity=".4" fill="#803300" font-family="Droid Sans"/><path d="M34.875 36L22 76h8.469l2.75-9.469h13.656L49.563 76h8.5L45.124 36h-10.25zM66 36.031c-.594 0-1.177.061-1.719.188a3.434 3.434 0 0 0-1.375.687c-.384.307-.71.727-.937 1.25-.228.506-.313 1.161-.313 1.938 0 .758.085 1.382.313 1.906.227.524.553.956.937 1.281.402.307.85.512 1.375.657a7.6 7.6 0 0 0 1.719.218c.594 0 1.132-.092 1.656-.218.525-.145.99-.35 1.375-.657.402-.325.742-.757.969-1.281.245-.524.344-1.148.344-1.906 0-.777-.1-1.432-.344-1.938a3.126 3.126 0 0 0-.969-1.25 3.325 3.325 0 0 0-1.375-.687A6.965 6.965 0 0 0 66 36.03zM35.625 37h8.75l12.281 38h-6.343l-2.47-8.75a1.007 1.007 0 0 0-.968-.719H33.219a1.007 1.007 0 0 0-.969.719L29.719 75h-6.313l12.219-38zM66 37.031c.525 0 .962.05 1.406.157.38.09.707.278.969.5a1.007 1.007 0 0 0 .031.03c.268.205.497.477.656.844a1.007 1.007 0 0 0 .032.032c.142.294.25.809.25 1.5 0 .67-.091 1.129-.25 1.468a1.007 1.007 0 0 0-.031.032c-.163.373-.379.682-.657.906-.24.191-.58.35-1 .469-.01.002-.02-.003-.031 0-.469.111-.896.187-1.375.187-.47 0-.964-.08-1.438-.187a2.896 2.896 0 0 1-1-.469l-.03-.031a2.421 2.421 0 0 1-.626-.875c-.147-.34-.25-.817-.25-1.5 0-.703.087-1.237.219-1.532a1.007 1.007 0 0 0 .031 0c.166-.381.374-.674.625-.874.296-.24.608-.41.969-.5.01-.003.022.002.031 0A6.72 6.72 0 0 1 66 37.03zm-25.969 3.563a1.007 1.007 0 0 0-.187.031 1.007 1.007 0 0 0-.813.813c-1.148 5.942-3.178 11.756-4.75 17.75a1.007 1.007 0 0 0 .969 1.25h9.656a1.007 1.007 0 0 0 .969-1.282L41 41.344a1.007 1.007 0 0 0-.969-.75zm0 1.031l4.875 17.813H35.25c1.558-5.94 3.614-11.773 4.781-17.813zm21.938 6.406V76H70V48.031h-8.031zm1 1H69V75h-6.031V49.031z" style="text-align:start;line-height:125%;-inkscape-font-specification:Abandoned Bitplane Bold" font-size="55.469" font-weight="700" opacity=".3" fill="#803300" font-family="Droid Sans"/></g></svg>