<svg xmlns="http://www.w3.org/2000/svg" xmlns:xlink="http://www.w3.org/1999/xlink" version="1.0" width="96" height="96"><defs><linearGradient id="e"><stop offset="0" stop-color="#c30000"/><stop offset="1" stop-color="#f12300"/></linearGradient><linearGradient x1="45.448" y1="92.54" x2="45.448" y2="7.017" id="g" gradientUnits="userSpaceOnUse" gradientTransform="scale(1.00587 .99417)"><stop offset="0"/><stop offset="1" stop-opacity=".588"/></linearGradient><linearGradient id="b"><stop offset="0" stop-color="#fff"/><stop offset="1" stop-color="#fff" stop-opacity="0"/></linearGradient><linearGradient id="a"><stop offset="0" stop-color="#e6e6e6"/><stop offset="1" stop-color="#f5f5f5"/></linearGradient><linearGradient x1="48" y1="90" x2="48" y2="5.988" id="n" xlink:href="#a" gradientUnits="userSpaceOnUse"/><filter color-interpolation-filters="sRGB" id="h"><feGaussianBlur stdDeviation="1.71"/></filter><linearGradient x1="36.357" y1="6" x2="36.357" y2="63.893" id="o" xlink:href="#b" gradientUnits="userSpaceOnUse"/><linearGradient x1="45.448" y1="92.54" x2="45.448" y2="7.017" id="c" gradientUnits="userSpaceOnUse" gradientTransform="matrix(1.00587 0 0 .99417 100 0)"><stop offset="0"/><stop offset="1" stop-opacity=".588"/></linearGradient><linearGradient x1="32.251" y1="6.132" x2="32.251" y2="90.239" id="j" xlink:href="#c" gradientUnits="userSpaceOnUse" gradientTransform="matrix(1.0238 0 0 1.0119 -1.143 -98.071)"/><linearGradient x1="32.251" y1="6.132" x2="32.251" y2="90.239" id="k" xlink:href="#c" gradientUnits="userSpaceOnUse" gradientTransform="matrix(1.0238 0 0 1.0119 -1.143 -98.071)"/><linearGradient x1="32.251" y1="6.132" x2="32.251" y2="90.239" id="l" xlink:href="#c" gradientUnits="userSpaceOnUse" gradientTransform="matrix(1.0238 0 0 1.0119 -1.143 -98.071)"/><linearGradient x1="32.251" y1="6.132" x2="32.251" y2="90.239" id="m" xlink:href="#c" gradientUnits="userSpaceOnUse" gradientTransform="translate(0 -97)"/><linearGradient x1="32.251" y1="6.132" x2="32.251" y2="90.239" id="i" xlink:href="#c" gradientUnits="userSpaceOnUse" gradientTransform="matrix(1.0238 0 0 1.0119 -1.143 -98.071)"/><linearGradient id="d"><stop offset="0" stop-color="#fff"/><stop offset="1" stop-color="#fff" stop-opacity="0"/></linearGradient><radialGradient cx="48" cy="90.172" r="42" fx="48" fy="90.172" id="p" xlink:href="#d" gradientUnits="userSpaceOnUse" gradientTransform="matrix(1.15731 0 0 .9959 -7.551 .197)"/><linearGradient x1="62.337" y1="79.015" x2="62.337" y2="12.798" id="v" xlink:href="#e" gradientUnits="userSpaceOnUse" gradientTransform="matrix(.87486 0 0 .90699 2.763 6.334)"/><clipPath id="q"><path d="M-98 6c-3.324 0-6 2.676-6 6v72c0 3.324 2.676 6 6 6h72c3.324 0 6-2.676 6-6V12c0-3.324-2.676-6-6-6h-72zm59.063 12c.6-.01.937.031.937.031v12.063c-12.051.212-15 11.968-15 11.968h9.063v12.063h-14.094C-66.508 80.277-86 77.938-86 77.938V65.874s12.376 2.298 18.688-20.75C-60.404 19.898-43.145 18.064-38.939 18z" fill="#f0f"/></clipPath><filter x="-.162" y="-.13" width="1.324" height="1.259" color-interpolation-filters="sRGB" id="r"><feGaussianBlur stdDeviation="3.24"/></filter><linearGradient id="f"><stop offset="0" stop-color="#fff"/><stop offset="1" stop-color="#fff" stop-opacity="0"/></linearGradient><clipPath id="s"><rect width="84" height="84" rx="6" ry="6" x="6" y="6" fill="#fff"/></clipPath><filter x="-.192" y="-.192" width="1.384" height="1.384" color-interpolation-filters="sRGB" id="u"><feGaussianBlur stdDeviation="5.28"/></filter><linearGradient x1="48" y1="20.221" x2="48" y2="138.661" id="t" xlink:href="#f" gradientUnits="userSpaceOnUse"/></defs><g transform="scale(1 -1)"><path d="M12-95.031c-5.511 0-10.031 4.52-10.031 10.031v71C1.969-8.489 6.489-3.969 12-3.969h72c5.511 0 10.031-4.52 10.031-10.031v-71c0-5.511-4.52-10.031-10.031-10.031H12z" opacity=".08" fill="url(#i)"/><path d="M12-94.031c-4.972 0-9.031 4.06-9.031 9.031v71c0 4.972 4.06 9.031 9.031 9.031h72c4.972 0 9.031-4.06 9.031-9.031v-71c0-4.972-4.06-9.031-9.031-9.031H12z" opacity=".1" fill="url(#j)"/><path d="M12-93c-4.41 0-8 3.59-8 8v71c0 4.41 3.59 8 8 8h72c4.41 0 8-3.59 8-8v-71c0-4.41-3.59-8-8-8H12z" opacity=".2" fill="url(#k)"/><rect width="86" height="85" rx="7" ry="7" x="5" y="-92" opacity=".3" fill="url(#l)"/><rect width="84" height="84" rx="6" ry="6" x="6" y="-91" opacity=".45" fill="url(#m)"/></g><rect width="84" height="84" rx="6" ry="6" x="6" y="6" fill="url(#n)"/><path d="M12 6c-3.324 0-6 2.676-6 6v72c0 .335.041.65.094.969.048.295.097.597.187.875l.032.094c.098.287.234.547.375.812.144.274.315.536.5.781a6.105 6.105 0 0 0 2.094 1.781c.278.14.573.247.874.344a4.843 4.843 0 0 1-.719-.375c-.007-.004-.023.005-.03 0-.033-.02-.063-.042-.095-.062-.12-.077-.23-.164-.343-.25-.106-.081-.214-.161-.313-.25a5.042 5.042 0 0 1-.5-.531 5.092 5.092 0 0 1-.312-.407c-.025-.038-.039-.086-.063-.125-.065-.103-.13-.204-.187-.312a5.371 5.371 0 0 1-.282-.625c-.007-.022-.023-.04-.03-.063-.033-.092-.037-.187-.063-.281-.03-.107-.07-.203-.094-.313A5.098 5.098 0 0 1 7 85V13c0-2.782 2.218-5 5-5h72c2.782 0 5 2.218 5 5v72c0 .364-.052.721-.125 1.063a4.896 4.896 0 0 1-.156.593c-.008.022-.024.04-.031.063a5.482 5.482 0 0 1-.22.531c-.04.083-.078.17-.124.25-.055.097-.127.188-.188.281a5.092 5.092 0 0 1-.312.406 5.05 5.05 0 0 1-.469.5l-.031.032a4.818 4.818 0 0 1-.438.344c-.102.073-.204.153-.312.218-.008.005-.024-.004-.031 0a4.843 4.843 0 0 1-.72.375c.302-.097.597-.204.876-.344a6.105 6.105 0 0 0 2.094-1.78c.184-.246.355-.508.5-.782a5.69 5.69 0 0 0 .374-.813l.032-.093c.09-.278.139-.58.187-.875.053-.318.094-.634.094-.969V12c0-3.324-2.676-6-6-6H12z" opacity=".5" fill="url(#o)"/><path d="M12 90c-3.324 0-6-2.676-6-6V12c0-.335.041-.65.094-.969.048-.295.097-.597.187-.875l.032-.094a5.69 5.69 0 0 1 .375-.812c.144-.274.315-.536.5-.781a6.105 6.105 0 0 1 2.094-1.781c.278-.14.573-.247.874-.344-.256.1-.486.236-.719.375-.007.004-.023-.005-.03 0-.033.019-.063.042-.095.062-.12.077-.23.164-.343.25-.106.081-.214.161-.313.25a5.042 5.042 0 0 0-.5.532c-.107.13-.218.265-.312.406-.025.038-.039.086-.063.125-.065.103-.13.204-.187.312a5.371 5.371 0 0 0-.282.625c-.007.022-.023.04-.03.063-.033.092-.037.187-.063.281-.03.107-.07.203-.094.313A5.098 5.098 0 0 0 7 11v72c0 2.782 2.218 5 5 5h72c2.782 0 5-2.218 5-5V11c0-.364-.052-.721-.125-1.063a4.896 4.896 0 0 0-.156-.593c-.008-.022-.024-.04-.031-.063a5.482 5.482 0 0 0-.22-.531c-.04-.083-.078-.17-.124-.25-.055-.097-.127-.188-.188-.281a5.092 5.092 0 0 0-.312-.406 5.05 5.05 0 0 0-.469-.5l-.031-.032a4.818 4.818 0 0 0-.438-.343c-.102-.074-.204-.154-.312-.22-.008-.004-.024.005-.031 0a4.843 4.843 0 0 0-.72-.374c.302.097.597.204.876.343a6.105 6.105 0 0 1 2.094 1.782c.184.245.355.507.5.781.14.265.276.525.374.813l.032.093c.09.278.139.58.187.875.053.318.094.634.094.969v72c0 3.324-2.676 6-6 6H12z" opacity=".3" fill="url(#p)"/><path d="M-38 18.02v12.07c-12.051.212-15.013 11.964-15.013 11.964h9.09v12.07h-14.094C-66.494 80.276-86 77.947-86 77.947v-12.07s12.378 2.296 18.69-20.752C-59.417 16.293-38 18.02-38 18.02z" transform="translate(110)" clip-path="url(#q)" opacity=".6" fill="none" stroke="#fff" stroke-width="2" filter="url(#r)"/><rect width="84" height="84" rx="6" ry="6" x="-104" y="6" fill="#f0f"/><g><rect width="66" height="66" rx="12" ry="12" x="15" y="15" clip-path="url(#s)" opacity=".5" fill="url(#t)" stroke="#fff" stroke-width=".5" stroke-linecap="round" filter="url(#u)"/></g><g><path d="M12 12v17.938L20.094 12H12zm9.906 0L30 29.938V12h-8.094zM21 19.031l-3.031 7h2.928L22.617 30h3.227l-2.375-5.281-.063-.125L21 19.03z" opacity=".5" fill="#999"/><path d="M72 18.02v12.07c-12.051.212-15.013 11.964-15.013 11.964h9.09v12.07H51.983C43.506 80.276 24 77.947 24 77.947v-12.07s12.378 2.296 18.69-20.752C50.583 16.293 72 18.02 72 18.02z" fill="url(#v)"/><path d="M71.063 18c-4.208.064-21.467 1.898-28.376 27.125C36.377 68.173 24 65.875 24 65.875v12.063s19.492 2.339 27.969-23.813h14.093V42.062H57s2.949-11.756 15-11.968V18.03s-.336-.04-.938-.031zM71 19.063v10.156c-5.757.422-9.574 3.384-11.813 6.343-2.37 3.134-3.156 6.25-3.156 6.25a.993.993 0 0 0 .969 1.25h8.063v10.063H51.968a.993.993 0 0 0-.938.688C46.864 66.668 40.104 72.36 34.406 74.936c-4.866 2.202-8.328 2.073-9.406 2V66.876c.408.021.476.078 1.156 0 1.379-.158 3.24-.644 5.313-1.875 4.144-2.462 8.986-7.933 12.187-19.625 3.886-14.19 10.985-20.665 17.094-23.719 5.266-2.632 9.111-2.63 10.25-2.593z" opacity=".2"/><path d="M71.063 18c-4.208.064-21.467 1.898-28.376 27.125C36.377 68.173 24 65.875 24 65.875v1s12.376 2.298 18.688-20.75C50.581 17.294 72 19.031 72 19.031v-1s-.336-.04-.938-.031zm-13.75 24.063c-.206.574-.313 1-.313 1h9.063v-1h-8.75z" opacity=".6" fill="maroon"/><path d="M72 30.094c-12.051.212-15 11.968-15 11.968h.313C58.303 39.29 62.016 31.27 72 31.095v-1zM51.969 54.125C43.492 80.277 24 77.938 24 77.938v1s19.492 2.339 27.969-23.813h14.093v-1H51.97z" opacity=".8" fill="#fff"/></g></svg>