<svg xmlns="http://www.w3.org/2000/svg" xmlns:xlink="http://www.w3.org/1999/xlink" version="1.0" width="96" height="96"><defs><linearGradient id="c"><stop offset="0" stop-color="#c30000"/><stop offset="1" stop-color="#f12300"/></linearGradient><linearGradient x1="45.448" y1="92.54" x2="45.448" y2="7.017" id="g" gradientUnits="userSpaceOnUse" gradientTransform="scale(1.00587 .99417)"><stop offset="0"/><stop offset="1" stop-opacity=".588"/></linearGradient><linearGradient id="b"><stop offset="0" stop-color="#fff"/><stop offset="1" stop-color="#fff" stop-opacity="0"/></linearGradient><linearGradient id="a"><stop offset="0" stop-color="#e6e6e6"/><stop offset="1" stop-color="#f5f5f5"/></linearGradient><linearGradient x1="48" y1="90" x2="48" y2="5.988" id="n" xlink:href="#a" gradientUnits="userSpaceOnUse"/><filter color-interpolation-filters="sRGB" id="h"><feGaussianBlur stdDeviation="1.71"/></filter><linearGradient x1="36.357" y1="6" x2="36.357" y2="63.893" id="s" xlink:href="#b" gradientUnits="userSpaceOnUse"/><linearGradient x1="56.634" y1="89.164" x2="56.634" y2="6.398" id="r" xlink:href="#c" gradientUnits="userSpaceOnUse"/><linearGradient x1="45.448" y1="92.54" x2="45.448" y2="7.017" id="d" gradientUnits="userSpaceOnUse" gradientTransform="matrix(1.00587 0 0 .99417 100 0)"><stop offset="0"/><stop offset="1" stop-opacity=".588"/></linearGradient><linearGradient x1="32.251" y1="6.132" x2="32.251" y2="90.239" id="j" xlink:href="#d" gradientUnits="userSpaceOnUse" gradientTransform="matrix(1.0238 0 0 1.0119 -1.143 -98.071)"/><linearGradient x1="32.251" y1="6.132" x2="32.251" y2="90.239" id="k" xlink:href="#d" gradientUnits="userSpaceOnUse" gradientTransform="matrix(1.0238 0 0 1.0119 -1.143 -98.071)"/><linearGradient x1="32.251" y1="6.132" x2="32.251" y2="90.239" id="l" xlink:href="#d" gradientUnits="userSpaceOnUse" gradientTransform="matrix(1.0238 0 0 1.0119 -1.143 -98.071)"/><linearGradient x1="32.251" y1="6.132" x2="32.251" y2="90.239" id="m" xlink:href="#d" gradientUnits="userSpaceOnUse" gradientTransform="translate(0 -97)"/><linearGradient x1="32.251" y1="6.132" x2="32.251" y2="90.239" id="i" xlink:href="#d" gradientUnits="userSpaceOnUse" gradientTransform="matrix(1.0238 0 0 1.0119 -1.143 -98.071)"/><linearGradient id="e"><stop offset="0" stop-color="#fff"/><stop offset="1" stop-color="#fff" stop-opacity="0"/></linearGradient><radialGradient cx="48" cy="90.172" r="42" fx="48" fy="90.172" id="t" xlink:href="#e" gradientUnits="userSpaceOnUse" gradientTransform="matrix(1.15731 0 0 .9959 -7.551 .197)"/><linearGradient id="f"><stop offset="0" stop-color="#fff"/><stop offset="1" stop-color="#fff" stop-opacity="0"/></linearGradient><clipPath id="o"><rect width="84" height="84" rx="6" ry="6" x="6" y="6" fill="#fff"/></clipPath><filter x="-.192" y="-.192" width="1.384" height="1.384" color-interpolation-filters="sRGB" id="q"><feGaussianBlur stdDeviation="5.28"/></filter><linearGradient x1="48" y1="20.221" x2="48" y2="138.661" id="p" xlink:href="#f" gradientUnits="userSpaceOnUse"/></defs><g transform="scale(1 -1)"><path d="M12-95.031c-5.511 0-10.031 4.52-10.031 10.031v71C1.969-8.489 6.489-3.969 12-3.969h72c5.511 0 10.031-4.52 10.031-10.031v-71c0-5.511-4.52-10.031-10.031-10.031H12z" opacity=".08" fill="url(#i)"/><path d="M12-94.031c-4.972 0-9.031 4.06-9.031 9.031v71c0 4.972 4.06 9.031 9.031 9.031h72c4.972 0 9.031-4.06 9.031-9.031v-71c0-4.972-4.06-9.031-9.031-9.031H12z" opacity=".1" fill="url(#j)"/><path d="M12-93c-4.41 0-8 3.59-8 8v71c0 4.41 3.59 8 8 8h72c4.41 0 8-3.59 8-8v-71c0-4.41-3.59-8-8-8H12z" opacity=".2" fill="url(#k)"/><rect width="86" height="85" rx="7" ry="7" x="5" y="-92" opacity=".3" fill="url(#l)"/><rect width="84" height="84" rx="6" ry="6" x="6" y="-91" opacity=".45" fill="url(#m)"/></g><rect width="84" height="84" rx="6" ry="6" x="6" y="6" fill="url(#n)"/><rect width="66" height="66" rx="12" ry="12" x="15" y="15" clip-path="url(#o)" opacity=".5" fill="url(#p)" stroke="#fff" stroke-width=".5" stroke-linecap="round" filter="url(#q)"/><path d="M12 12v17.938L20.094 12H12zm9.906 0L30 29.938V12h-8.094zM21 19.031l-3.031 7h2.928L22.617 30h3.227l-2.375-5.281-.063-.125L21 19.03z" opacity=".5" fill="#999"/><path d="M90 28.688C66.483 59.017 30.25 63.157 6 58.78v4.907c22.768 4.11 50.946 3.417 71.313-5.094-4.388 6.352-6.224 13.463-6.657 19.937-.278 4.164.003 8.089.469 11.469h4.031c-.478-3.262-.772-7.112-.5-11.188.63-9.439 4.067-19.828 15.344-26.968V28.687z" opacity=".1" fill-rule="evenodd"/><path d="M58.762 6c-3.948 8.692-6.94 17.634-8.925 26.644a85.874 85.874 0 0 1-3.15 2.363C34.45 43.865 19.768 49.653 6 49.313v6.562c12.183 1.15 20.289 3.212 25.806 10.55C37.263 73.683 40.32 80.86 40.32 90h4.2c0-9.114-3.955-19.94-9.3-26.069-5.283-6.056-11.955-8.861-20.95-10.943 12.03-1.61 23.973-6.96 34.256-14.306A133.497 133.497 0 0 0 49.705 90h29.007C64.218 76.859 57.949 53.303 57.975 31.07 66.147 23.46 72.499 14.737 75.825 6h-4.463c-2.765 6.401-7.4 12.969-13.256 19.032.356-6.7 1.425-13.111 2.887-19.031h-2.23z" fill="url(#r)" fill-rule="evenodd"/><path d="M58.75 6a134.495 134.495 0 0 0-8.906 26.656c-1.03.82-2.084 1.568-3.157 2.344C34.45 43.859 19.768 49.653 6 49.313v1c13.768.34 28.45-5.454 40.688-14.313 1.072-.776 2.125-1.524 3.156-2.344A134.495 134.495 0 0 1 58.75 7h2c.079-.333.169-.67.25-1h-2.25zm12.625 0C68.625 12.367 64 18.901 58.187 24.938c-.023.364-.074.727-.093 1.093C63.95 19.968 68.61 13.401 71.375 7h4.031c.137-.336.278-.664.406-1h-4.437zM58.031 35.25c.536 20.716 6.56 42.087 19.625 54.75h1.063C65.13 77.68 58.752 56.206 58.03 35.25zm-9.5 4.438c-.06.043-.126.081-.187.124a133.345 133.345 0 0 0-1.719 19.282c.156-6.473.794-12.949 1.906-19.407zM16.75 53.624c-.823.145-1.645.265-2.469.375 8.996 2.082 15.655 4.88 20.938 10.938C40.369 70.843 44.226 81.106 44.5 90h.031c0-9.114-3.967-19.934-9.312-26.063-4.78-5.48-10.72-8.283-18.469-10.312z" opacity=".6" fill="#500" fill-rule="evenodd"/><path d="M60.75 7c-1.338 5.641-2.32 11.706-2.656 18.031.03-.032.063-.061.093-.093C58.597 18.636 59.617 12.595 61 7h-.25zm14.656 0c-3.42 8.399-9.579 16.747-17.437 24.063 0 .331-.003.667 0 1C66.142 24.453 72.487 15.738 75.812 7h-.406zM48.531 38.688C38.25 46.034 26.311 51.389 14.281 53c.855.198 1.655.412 2.469.625 11.117-1.957 22.059-7.034 31.594-13.813.061-.376.122-.748.187-1.124zM6 55.874v1c12.183 1.15 20.295 3.225 25.813 10.563C37.066 74.425 40.065 81.335 40.28 90h.032c0-9.141-3.043-16.305-8.5-23.563C26.294 59.1 18.182 57.026 6 55.876zm40.625 8.688A133.204 133.204 0 0 0 49.5 90h.219a133.173 133.173 0 0 1-3.094-25.438z" opacity=".8" fill="#fff" fill-rule="evenodd"/><g><path d="M12 6c-3.324 0-6 2.676-6 6v72c0 .335.041.65.094.969.048.295.097.597.187.875l.032.094c.098.287.234.547.375.812.144.274.315.536.5.781a6.105 6.105 0 0 0 2.094 1.781c.278.14.573.247.874.344a4.843 4.843 0 0 1-.719-.375c-.007-.004-.023.005-.03 0-.033-.02-.063-.042-.095-.062-.12-.077-.23-.164-.343-.25-.106-.081-.214-.161-.313-.25a5.042 5.042 0 0 1-.5-.531 5.092 5.092 0 0 1-.312-.407c-.025-.038-.039-.086-.063-.125-.065-.103-.13-.204-.187-.312a5.371 5.371 0 0 1-.282-.625c-.007-.022-.023-.04-.03-.063-.033-.092-.037-.187-.063-.281-.03-.107-.07-.203-.094-.313A5.098 5.098 0 0 1 7 85V13c0-2.782 2.218-5 5-5h72c2.782 0 5 2.218 5 5v72c0 .364-.052.721-.125 1.063a4.896 4.896 0 0 1-.156.593c-.008.022-.024.04-.031.063a5.482 5.482 0 0 1-.22.531c-.04.083-.078.17-.124.25-.055.097-.127.188-.188.281a5.092 5.092 0 0 1-.312.406 5.05 5.05 0 0 1-.469.5l-.031.032a4.818 4.818 0 0 1-.438.344c-.102.073-.204.153-.312.218-.008.005-.024-.004-.031 0a4.843 4.843 0 0 1-.72.375c.302-.097.597-.204.876-.344a6.105 6.105 0 0 0 2.094-1.78c.184-.246.355-.508.5-.782a5.69 5.69 0 0 0 .374-.813l.032-.093c.09-.278.139-.58.187-.875.053-.318.094-.634.094-.969V12c0-3.324-2.676-6-6-6H12z" opacity=".5" fill="url(#s)"/><path d="M12 90c-3.324 0-6-2.676-6-6V12c0-.335.041-.65.094-.969.048-.295.097-.597.187-.875l.032-.094a5.69 5.69 0 0 1 .375-.812c.144-.274.315-.536.5-.781a6.105 6.105 0 0 1 2.094-1.781c.278-.14.573-.247.874-.344-.256.1-.486.236-.719.375-.007.004-.023-.005-.03 0-.033.019-.063.042-.095.062-.12.077-.23.164-.343.25-.106.081-.214.161-.313.25a5.042 5.042 0 0 0-.5.532c-.107.13-.218.265-.312.406-.025.038-.039.086-.063.125-.065.103-.13.204-.187.312a5.371 5.371 0 0 0-.282.625c-.007.022-.023.04-.03.063-.033.092-.037.187-.063.281-.03.107-.07.203-.094.313A5.098 5.098 0 0 0 7 11v72c0 2.782 2.218 5 5 5h72c2.782 0 5-2.218 5-5V11c0-.364-.052-.721-.125-1.063a4.896 4.896 0 0 0-.156-.593c-.008-.022-.024-.04-.031-.063a5.482 5.482 0 0 0-.22-.531c-.04-.083-.078-.17-.124-.25-.055-.097-.127-.188-.188-.281a5.092 5.092 0 0 0-.312-.406 5.05 5.05 0 0 0-.469-.5l-.031-.032a4.818 4.818 0 0 0-.438-.343c-.102-.074-.204-.154-.312-.22-.008-.004-.024.005-.031 0a4.843 4.843 0 0 0-.72-.374c.302.097.597.204.876.343a6.105 6.105 0 0 1 2.094 1.782c.184.245.355.507.5.781.14.265.276.525.374.813l.032.093c.09.278.139.58.187.875.053.318.094.634.094.969v72c0 3.324-2.676 6-6 6H12z" opacity=".3" fill="url(#t)"/></g></svg>