<svg xmlns="http://www.w3.org/2000/svg" xmlns:xlink="http://www.w3.org/1999/xlink" version="1.0" width="96" height="96"><defs><linearGradient id="g"><stop offset="0" stop-color="#9c9c9c" stop-opacity=".29"/><stop offset="1" stop-color="#fff"/></linearGradient><linearGradient id="f"><stop offset="0" stop-color="#3c3c3c"/><stop offset="1" stop-color="#131313"/></linearGradient><linearGradient x1="45.448" y1="92.54" x2="45.448" y2="7.017" id="h" gradientUnits="userSpaceOnUse" gradientTransform="scale(1.00587 .99417)"><stop offset="0"/><stop offset="1" stop-opacity=".588"/></linearGradient><linearGradient id="a"><stop offset="0" stop-color="#e6e6e6"/><stop offset="1" stop-color="#f5f5f5"/></linearGradient><linearGradient x1="48" y1="90" x2="48" y2="5.988" id="o" xlink:href="#a" gradientUnits="userSpaceOnUse"/><filter color-interpolation-filters="sRGB" id="i"><feGaussianBlur stdDeviation="1.71"/></filter><linearGradient x1="45.448" y1="92.54" x2="45.448" y2="7.017" id="b" gradientUnits="userSpaceOnUse" gradientTransform="matrix(1.00587 0 0 .99417 100 0)"><stop offset="0"/><stop offset="1" stop-opacity=".588"/></linearGradient><linearGradient x1="32.251" y1="6.132" x2="32.251" y2="90.239" id="k" xlink:href="#b" gradientUnits="userSpaceOnUse" gradientTransform="matrix(1.0238 0 0 1.0119 -1.143 -98.071)"/><linearGradient x1="32.251" y1="6.132" x2="32.251" y2="90.239" id="l" xlink:href="#b" gradientUnits="userSpaceOnUse" gradientTransform="matrix(1.0238 0 0 1.0119 -1.143 -98.071)"/><linearGradient x1="32.251" y1="6.132" x2="32.251" y2="90.239" id="m" xlink:href="#b" gradientUnits="userSpaceOnUse" gradientTransform="matrix(1.0238 0 0 1.0119 -1.143 -98.071)"/><linearGradient x1="32.251" y1="6.132" x2="32.251" y2="90.239" id="n" xlink:href="#b" gradientUnits="userSpaceOnUse" gradientTransform="translate(0 -97)"/><linearGradient x1="32.251" y1="6.132" x2="32.251" y2="90.239" id="j" xlink:href="#b" gradientUnits="userSpaceOnUse" gradientTransform="matrix(1.0238 0 0 1.0119 -1.143 -98.071)"/><linearGradient id="d"><stop offset="0" stop-color="#fff"/><stop offset="1" stop-color="#fff" stop-opacity="0"/></linearGradient><radialGradient cx="48" cy="90.172" r="42" fx="48" fy="90.172" id="q" xlink:href="#c" gradientUnits="userSpaceOnUse" gradientTransform="matrix(1.15731 0 0 .9959 -7.551 .197)"/><linearGradient id="c"><stop offset="0" stop-color="#fff"/><stop offset="1" stop-color="#fff" stop-opacity="0"/></linearGradient><linearGradient x1="36.357" y1="6" x2="36.357" y2="63.893" id="p" xlink:href="#d" gradientUnits="userSpaceOnUse"/><linearGradient id="e"><stop offset="0" stop-color="#fff"/><stop offset="1" stop-color="#fff" stop-opacity="0"/></linearGradient><clipPath id="r"><rect width="84" height="84" rx="6" ry="6" x="6" y="6" fill="#fff"/></clipPath><filter x="-.192" y="-.192" width="1.384" height="1.384" color-interpolation-filters="sRGB" id="t"><feGaussianBlur stdDeviation="5.28"/></filter><linearGradient x1="48" y1="20.221" x2="48" y2="138.661" id="s" xlink:href="#e" gradientUnits="userSpaceOnUse"/><radialGradient cx="48" cy="55.266" r="10" fx="48" fy="55.266" id="v" xlink:href="#f" gradientUnits="userSpaceOnUse" gradientTransform="matrix(1.6 0 0 3.2 -108.8 -112.851)"/><radialGradient cx="48" cy="54.164" r="10.007" fx="48" fy="54.164" id="w" xlink:href="#f" gradientUnits="userSpaceOnUse" gradientTransform="matrix(1.59892 0 0 3.19785 -28.748 -109.208)"/><linearGradient x1="43" y1="192" x2="43" y2="33" id="x" xlink:href="#g" gradientUnits="userSpaceOnUse"/><linearGradient x1="49" y1="20" x2="49" y2="59" id="u" xlink:href="#g" gradientUnits="userSpaceOnUse"/></defs><g transform="scale(1 -1)"><path d="M12-95.031c-5.511 0-10.031 4.52-10.031 10.031v71C1.969-8.489 6.489-3.969 12-3.969h72c5.511 0 10.031-4.52 10.031-10.031v-71c0-5.511-4.52-10.031-10.031-10.031H12z" opacity=".08" fill="url(#j)"/><path d="M12-94.031c-4.972 0-9.031 4.06-9.031 9.031v71c0 4.972 4.06 9.031 9.031 9.031h72c4.972 0 9.031-4.06 9.031-9.031v-71c0-4.972-4.06-9.031-9.031-9.031H12z" opacity=".1" fill="url(#k)"/><path d="M12-93c-4.41 0-8 3.59-8 8v71c0 4.41 3.59 8 8 8h72c4.41 0 8-3.59 8-8v-71c0-4.41-3.59-8-8-8H12z" opacity=".2" fill="url(#l)"/><rect width="86" height="85" rx="7" ry="7" x="5" y="-92" opacity=".3" fill="url(#m)"/><rect width="84" height="84" rx="6" ry="6" x="6" y="-91" opacity=".45" fill="url(#n)"/></g><rect width="84" height="84" rx="6" ry="6" x="6" y="6" fill="url(#o)"/><path d="M12 6c-3.324 0-6 2.676-6 6v72c0 .335.041.65.094.969.048.295.097.597.187.875l.032.094c.098.287.234.547.375.812.144.274.315.536.5.781a6.105 6.105 0 0 0 2.094 1.781c.278.14.573.247.874.344a4.843 4.843 0 0 1-.719-.375c-.007-.004-.023.005-.03 0-.033-.02-.063-.042-.095-.062-.12-.077-.23-.164-.343-.25-.106-.081-.214-.161-.313-.25a5.042 5.042 0 0 1-.5-.531 5.092 5.092 0 0 1-.312-.407c-.025-.038-.039-.086-.063-.125-.065-.103-.13-.204-.187-.312a5.371 5.371 0 0 1-.282-.625c-.008-.022-.023-.04-.03-.063-.033-.092-.037-.187-.063-.281-.03-.107-.07-.203-.094-.313A5.098 5.098 0 0 1 7 85V13c0-2.782 2.218-5 5-5h72c2.782 0 5 2.218 5 5v72c0 .364-.052.721-.125 1.063a4.896 4.896 0 0 1-.156.593c-.008.022-.024.04-.031.063a5.482 5.482 0 0 1-.22.531c-.04.083-.078.17-.124.25-.055.097-.127.188-.188.281a5.092 5.092 0 0 1-.312.406 5.05 5.05 0 0 1-.469.5l-.031.032a4.818 4.818 0 0 1-.438.344c-.102.073-.204.153-.312.218-.008.005-.024-.004-.031 0a4.843 4.843 0 0 1-.72.375c.302-.097.597-.204.876-.344a6.105 6.105 0 0 0 2.094-1.78c.184-.246.355-.508.5-.782a5.69 5.69 0 0 0 .374-.813l.032-.093c.09-.278.139-.58.187-.875.053-.318.094-.634.094-.969V12c0-3.324-2.676-6-6-6H12z" opacity=".5" fill="url(#p)"/><path d="M12 90c-3.324 0-6-2.676-6-6V12c0-.335.041-.65.094-.969.048-.295.097-.597.187-.875l.032-.094a5.69 5.69 0 0 1 .375-.812c.144-.274.315-.536.5-.781a6.105 6.105 0 0 1 2.094-1.781c.278-.14.573-.247.874-.344-.256.1-.486.236-.719.375-.007.004-.023-.005-.03 0-.033.019-.063.042-.095.062-.12.077-.23.164-.343.25-.106.081-.214.161-.313.25a5.042 5.042 0 0 0-.5.532c-.107.13-.218.265-.312.406-.025.038-.039.086-.063.125-.065.103-.13.204-.187.312a5.371 5.371 0 0 0-.282.625c-.007.022-.023.04-.03.063-.033.092-.037.187-.063.281-.03.107-.07.203-.094.313A5.098 5.098 0 0 0 7 11v72c0 2.782 2.218 5 5 5h72c2.782 0 5-2.218 5-5V11c0-.364-.052-.721-.125-1.063a4.896 4.896 0 0 0-.156-.593c-.008-.022-.024-.04-.031-.063a5.482 5.482 0 0 0-.22-.531c-.04-.083-.078-.17-.124-.25-.055-.097-.127-.188-.188-.281a5.092 5.092 0 0 0-.312-.406 5.05 5.05 0 0 0-.469-.5l-.031-.032a4.818 4.818 0 0 0-.438-.343c-.102-.074-.204-.154-.312-.22-.008-.004-.024.005-.031 0a4.843 4.843 0 0 0-.72-.374c.302.097.597.204.876.343a6.105 6.105 0 0 1 2.094 1.782c.184.245.355.507.5.781.14.265.276.525.374.813l.032.093c.09.278.139.58.187.875.053.318.094.634.094.969v72c0 3.324-2.676 6-6 6H12z" opacity=".4" fill="url(#q)"/><rect width="84" height="84" rx="6" ry="6" x="-94" y="6" fill="#f0f"/><path style="marker:none" color="#000" fill="#fff" stroke="#000" stroke-width=".5" stroke-linecap="round" stroke-dashoffset="8.6" overflow="visible" enable-background="accumulate" d="M112 8h16v16h-16z"/><text x="131.393" y="11.969" style="text-align:start;line-height:125%;-inkscape-font-specification:Liberation Sans" font-size="4" font-weight="400" font-family="Liberation Sans"><tspan x="131.393" y="11.969">Width: 2px</tspan><tspan x="131.393" y="16.969">Blur: 12</tspan><tspan x="131.393" y="21.969">Opacity: 60</tspan></text><g color="#000"><path d="M48 19.938c-6.64 0-12.063 5.422-12.063 12.062 0 4.216 2.23 7.873 5.532 10.031L36 71.22v.031c-.007.053-.063.408-.063.406v.469l.032.438.093.437.126.438.187.406.219.406.25.344.312.344.344.28c-.002 0 .345.283.344.282l.406.188.406.187.438.125.437.063.469.03h16l.469-.03.437-.063.438-.125.406-.188.406-.187.344-.281c-.002 0 .345-.283.344-.281-.002 0 .313-.346.312-.344l.25-.344.219-.406.188-.406.124-.438.094-.438.032-.437v-.469c0 .002-.056-.353-.063-.406v-.031L54.531 42.03c3.302-2.158 5.532-5.815 5.532-10.031 0-6.64-5.423-12.063-12.063-12.063z" style="marker:none" fill="url(#u)" overflow="visible" enable-background="accumulate"/><path d="M-32 26c-5.523 0-10 4.477-10 10a9.96 9.96 0 0 0 3.5 7.594l-3.438 24.093c-.173 1.112.813 2.257 1.938 2.25h16c1.125.007 2.111-1.138 1.938-2.25L-25.5 43.594A9.96 9.96 0 0 0-22 36c0-5.523-4.477-10-10-10z" style="marker:none" fill="url(#v)" overflow="visible" enable-background="accumulate"/><path d="M-32 26c-5.523 0-10 4.477-10 10a9.96 9.96 0 0 0 3.5 7.594l-3.438 24.093c-.173 1.112.813 2.257 1.938 2.25h16c1.125.007 2.111-1.138 1.938-2.25L-25.5 43.594A9.96 9.96 0 0 0-22 36c0-5.523-4.477-10-10-10zm0 1.969A8.011 8.011 0 0 1-23.969 36c0 2.453-1.09 4.62-2.812 6.094a1.983 1.983 0 0 0-.688 1.781l3.438 24.094H-39.97l3.438-24.094a1.983 1.983 0 0 0-.688-1.781A7.972 7.972 0 0 1-40.03 36 8.011 8.011 0 0 1-32 27.969z" style="marker:none" opacity=".3" overflow="visible" enable-background="accumulate"/><path d="M-32 26c-5.523 0-10 4.477-10 10a9.96 9.96 0 0 0 3.5 7.594l-3.438 24.093c-.173 1.112.813 2.257 1.938 2.25h16c1.125.007 2.111-1.138 1.938-2.25L-25.5 43.594A9.96 9.96 0 0 0-22 36c0-5.523-4.477-10-10-10zm0 .969c5 0 9.031 4.03 9.031 9.031a9.009 9.009 0 0 1-3.156 6.875.966.966 0 0 0-.344.844l3.438 24.093a.966.966 0 0 0 0 .032c.072.46-.502 1.127-.969 1.125h-16c-.467.002-1.04-.664-.969-1.125a.966.966 0 0 0 0-.031l3.438-24.094a.966.966 0 0 0-.344-.844A9.009 9.009 0 0 1-41.031 36c0-5 4.03-9.031 9.031-9.031z" style="marker:none" overflow="visible" enable-background="accumulate"/><path d="M-41.969 36.531c-.007.155-.031.312-.031.469 0 2.98 1.308 5.637 3.375 7.469l.125-.875a9.95 9.95 0 0 1-3.469-7.063zm19.938 0a9.95 9.95 0 0 1-3.469 7.063l.125.875C-23.308 42.637-22 39.979-22 37c0-.157-.024-.314-.031-.469zm-19.875 31.844l-.032.313c-.173 1.111.813 2.256 1.938 2.25h16c1.125.006 2.111-1.139 1.938-2.25l-.032-.313c-.213.847-1.018 1.568-1.906 1.563h-16c-.888.005-1.693-.716-1.906-1.563z" style="marker:none" fill="#fff" overflow="visible" enable-background="accumulate"/><path d="M-32 25c-5.523 0-10 4.477-10 10 0 .18.022.354.031.531C-41.724 30.226-37.366 26-32 26s9.724 4.226 9.969 9.531c.01-.177.031-.351.031-.531 0-5.523-4.477-10-10-10zm-6.625 18.469l-3.313 23.218c-.036.235-.025.462.032.688l3.406-23.781c-.045-.038-.081-.086-.125-.125zm13.25 0c-.044.039-.08.087-.125.125l3.406 23.781c.057-.226.068-.453.032-.688l-3.313-23.218z" style="marker:none" opacity=".15" overflow="visible" enable-background="accumulate"/><path d="M48 22c-5.523 0-10 4.477-10 10a9.99 9.99 0 0 0 5.75 9.063l-5.719 30.562A2.017 2.017 0 0 0 40 74.031h16a2.017 2.017 0 0 0 1.969-2.406L52.25 41.062A9.99 9.99 0 0 0 58 32c0-5.523-4.477-10-10-10z" style="marker:none" fill="url(#w)" overflow="visible" enable-background="accumulate"/><path d="M48 22c-5.523 0-10 4.477-10 10a9.99 9.99 0 0 0 5.75 9.063l-5.719 30.562A2.017 2.017 0 0 0 40 74.031h16a2.017 2.017 0 0 0 1.969-2.406L52.25 41.062A9.99 9.99 0 0 0 58 32c0-5.523-4.477-10-10-10zm0 2.031A7.94 7.94 0 0 1 55.969 32a7.95 7.95 0 0 1-4.594 7.219 2.034 2.034 0 0 0-1.125 2.218L55.969 72H40.03l5.719-30.563a2.034 2.034 0 0 0-1.125-2.218A7.95 7.95 0 0 1 40.031 32 7.94 7.94 0 0 1 48 24.031z" style="marker:none" opacity=".3" overflow="visible" enable-background="accumulate"/><path d="M48 22c-5.523 0-10 4.477-10 10a9.99 9.99 0 0 0 5.75 9.063l-5.719 30.562A2.017 2.017 0 0 0 40 74.031h16a2.017 2.017 0 0 0 1.969-2.406L52.25 41.062A9.99 9.99 0 0 0 58 32c0-5.523-4.477-10-10-10zm0 1c4.983 0 9 4.017 9 9a8.993 8.993 0 0 1-5.188 8.156 1 1 0 0 0-.53 1.094L57 71.813c.01.054-.008.007 0 .062s-.005.007 0 .063c.005.055-.002.007 0 .062s.001-.024 0 .031c-.001.056.004.008 0 .063s.007.007 0 .062.01.008 0 .063c-.01.054-.018-.023-.031.031-.014.054.016.01 0 .063-.017.052-.012.01-.032.062-.019.052.023-.02 0 .031-.022.051-.006.013-.03.063-.026.05-.004.014-.032.062s-.001-.015-.031.031c-.03.047.001.018-.032.063-.032.045.004-.012-.03.031-.036.043.005-.01-.032.031s-.023.024-.063.063c-.039.039.01-.005-.03.031-.042.037.012-.003-.032.031-.044.035-.017 0-.063.032-.045.031.016.002-.03.031-.048.03-.015.005-.063.031-.049.027.018.008-.032.031-.05.024-.01.01-.062.032-.051.02-.01-.018-.063 0-.052.018.022.016-.03.031-.054.015-.01-.012-.063 0-.054.012-.008.022-.063.031-.054.01-.007-.006-.062 0-.055.007.024-.003-.032 0-.055.004-.007 0-.062 0H40c-.055 0-.007.004-.063 0-.055-.003.024.007-.03 0-.056-.006-.009.01-.063 0-.055-.01-.009-.019-.063-.031s-.009.015-.062 0 .02-.013-.032-.031c-.052-.018-.01.02-.062 0-.051-.021-.013-.008-.063-.031-.05-.024.018-.005-.03-.032-.05-.026-.016-.002-.063-.031-.047-.03.014 0-.032-.031-.045-.032-.018.003-.062-.031-.044-.035.01.005-.031-.032-.042-.036.008.008-.032-.031-.039-.039-.025-.022-.062-.063-.037-.04.004.012-.031-.03-.035-.044.001.013-.032-.032-.032-.045 0-.016-.03-.063-.03-.046-.004.017-.032-.03-.028-.049-.006-.014-.031-.063-.025-.05-.01-.012-.032-.063-.022-.05.02.02 0-.031-.019-.052-.014-.01-.03-.063-.017-.052.013-.008 0-.062-.014-.054-.022.023-.032-.031-.01-.055.007-.008 0-.063s.004-.007 0-.062.001-.007 0-.063c-.001-.055-.002.024 0-.031s-.005-.007 0-.063c.005-.055-.008-.007 0-.062s-.01-.008 0-.063l5.719-30.562a1 1 0 0 0-.532-1.094A8.993 8.993 0 0 1 39 32c0-4.983 4.017-9 9-9z" style="marker:none" opacity=".6" overflow="visible" enable-background="accumulate"/><path d="M38.031 32.75c-.002.084-.031.166-.031.25a9.976 9.976 0 0 0 5.594 8.969l.156-.907a9.976 9.976 0 0 1-5.719-8.312zm19.938 0a9.976 9.976 0 0 1-5.719 8.313l.156.906A9.976 9.976 0 0 0 58 33c0-.084-.03-.166-.031-.25zM38.062 72.5l-.03.125A2.017 2.017 0 0 0 40 75.031h16a2.017 2.017 0 0 0 1.969-2.406l-.032-.094a2.017 2.017 0 0 1-1.937 1.5H40a2.017 2.017 0 0 1-1.938-1.531z" style="marker:none" opacity=".5" fill="#fff" overflow="visible" enable-background="accumulate"/><path d="M48 19.063c-6.427-.133-12.337 5.22-12.87 11.62-.529 4.527 1.686 9.16 5.401 11.755-1.82 9.718-3.657 19.436-5.468 29.156-.3 2.937 2.374 5.649 5.318 5.375 5.393-.02 10.79.041 16.182-.031 2.997-.258 5.076-3.54 4.187-6.374L55.47 42.438c4.762-3.239 6.803-9.84 4.567-15.168-1.866-4.844-6.831-8.272-12.036-8.207zm0 .968c6.054-.13 11.593 5.01 11.934 11.052.391 4.29-1.874 8.605-5.496 10.886l5.468 29.281c.58 2.64-1.923 5.122-4.54 4.75-5.268-.02-10.538.041-15.803-.031-2.53-.204-4.12-3.008-3.353-5.342l5.352-28.658c-4.718-2.88-6.85-9.235-4.697-14.346 1.725-4.483 6.32-7.652 11.135-7.592z" style="marker:none" opacity=".5" fill="url(#x)" overflow="visible" enable-background="accumulate"/></g></svg>