<svg xmlns="http://www.w3.org/2000/svg" xmlns:xlink="http://www.w3.org/1999/xlink" version="1.0" width="96" height="96"><defs><linearGradient id="g"><stop offset="0" stop-color="#ffa01f"/><stop offset="1" stop-color="#fbce4d"/></linearGradient><linearGradient id="f"><stop offset="0" stop-color="#ee5a3a"/><stop offset="1" stop-color="#f67528"/></linearGradient><linearGradient id="e"><stop offset="0" stop-color="#ff851d"/><stop offset="1" stop-color="#f69b4e"/></linearGradient><linearGradient x1="45.448" y1="92.54" x2="45.448" y2="7.017" id="i" gradientUnits="userSpaceOnUse" gradientTransform="scale(1.00587 .99417)"><stop offset="0"/><stop offset="1" stop-opacity=".588"/></linearGradient><linearGradient id="b"><stop offset="0" stop-color="#fff"/><stop offset="1" stop-color="#fff" stop-opacity="0"/></linearGradient><linearGradient id="a"><stop offset="0" stop-color="#e6e6e6"/><stop offset="1" stop-color="#f5f5f5"/></linearGradient><linearGradient x1="48" y1="90" x2="48" y2="5.988" id="p" xlink:href="#a" gradientUnits="userSpaceOnUse"/><filter color-interpolation-filters="sRGB" id="j"><feGaussianBlur stdDeviation="1.71"/></filter><linearGradient x1="36.357" y1="6" x2="36.357" y2="63.893" id="y" xlink:href="#b" gradientUnits="userSpaceOnUse"/><linearGradient x1="45.448" y1="92.54" x2="45.448" y2="7.017" id="c" gradientUnits="userSpaceOnUse" gradientTransform="matrix(1.00587 0 0 .99417 100 0)"><stop offset="0"/><stop offset="1" stop-opacity=".588"/></linearGradient><linearGradient x1="32.251" y1="6.132" x2="32.251" y2="90.239" id="l" xlink:href="#c" gradientUnits="userSpaceOnUse" gradientTransform="matrix(1.0238 0 0 1.0119 -1.143 -98.071)"/><linearGradient x1="32.251" y1="6.132" x2="32.251" y2="90.239" id="m" xlink:href="#c" gradientUnits="userSpaceOnUse" gradientTransform="matrix(1.0238 0 0 1.0119 -1.143 -98.071)"/><linearGradient x1="32.251" y1="6.132" x2="32.251" y2="90.239" id="n" xlink:href="#c" gradientUnits="userSpaceOnUse" gradientTransform="matrix(1.0238 0 0 1.0119 -1.143 -98.071)"/><linearGradient x1="32.251" y1="6.132" x2="32.251" y2="90.239" id="o" xlink:href="#c" gradientUnits="userSpaceOnUse" gradientTransform="translate(0 -97)"/><linearGradient x1="32.251" y1="6.132" x2="32.251" y2="90.239" id="k" xlink:href="#c" gradientUnits="userSpaceOnUse" gradientTransform="matrix(1.0238 0 0 1.0119 -1.143 -98.071)"/><linearGradient id="d"><stop offset="0" stop-color="#fff"/><stop offset="1" stop-color="#fff" stop-opacity="0"/></linearGradient><radialGradient cx="48" cy="90.172" r="42" fx="48" fy="90.172" id="z" xlink:href="#d" gradientUnits="userSpaceOnUse" gradientTransform="matrix(1.15731 0 0 .9959 -7.551 .197)"/><linearGradient x1="36.357" y1="6" x2="36.357" y2="63.893" id="A" xlink:href="#b" gradientUnits="userSpaceOnUse"/><linearGradient x1="16" y1="88" x2="16" y2="8" id="q" xlink:href="#e" gradientUnits="userSpaceOnUse"/><linearGradient x1="43.25" y1="64" x2="43.25" y2="40" id="w" xlink:href="#f" gradientUnits="userSpaceOnUse"/><linearGradient x1="44" y1="57.796" x2="56" y2="57.796" id="x" xlink:href="#g" gradientUnits="userSpaceOnUse"/><linearGradient id="h"><stop offset="0" stop-color="#fff"/><stop offset="1" stop-color="#fff" stop-opacity="0"/></linearGradient><clipPath id="r"><path d="M12 6c-3.324 0-6 2.676-6 6v72c0 3.324 2.676 6 6 6h12V6H12z" fill="red"/></clipPath><filter x="-.192" y="-.192" width="1.384" height="1.384" color-interpolation-filters="sRGB" id="t"><feGaussianBlur stdDeviation="5.28"/></filter><linearGradient x1="48" y1="20.221" x2="48" y2="138.661" id="v" xlink:href="#h" gradientUnits="userSpaceOnUse"/><clipPath id="u"><path d="M24 6v84h60c3.324 0 6-2.676 6-6V12c0-3.324-2.676-6-6-6H24z" fill="#f0f"/></clipPath><linearGradient x1="48" y1="20.221" x2="48" y2="138.661" id="s" xlink:href="#h" gradientUnits="userSpaceOnUse"/></defs><g transform="scale(1 -1)"><path d="M12-95.031c-5.511 0-10.031 4.52-10.031 10.031v71C1.969-8.489 6.489-3.969 12-3.969h72c5.511 0 10.031-4.52 10.031-10.031v-71c0-5.511-4.52-10.031-10.031-10.031H12z" opacity=".08" fill="url(#k)"/><path d="M12-94.031c-4.972 0-9.031 4.06-9.031 9.031v71c0 4.972 4.06 9.031 9.031 9.031h72c4.972 0 9.031-4.06 9.031-9.031v-71c0-4.972-4.06-9.031-9.031-9.031H12z" opacity=".1" fill="url(#l)"/><path d="M12-93c-4.41 0-8 3.59-8 8v71c0 4.41 3.59 8 8 8h72c4.41 0 8-3.59 8-8v-71c0-4.41-3.59-8-8-8H12z" opacity=".2" fill="url(#m)"/><rect width="86" height="85" rx="7" ry="7" x="5" y="-92" opacity=".3" fill="url(#n)"/><rect width="84" height="84" rx="6" ry="6" x="6" y="-91" opacity=".45" fill="url(#o)"/></g><path d="M24 6v84h60c3.324 0 6-2.676 6-6V12c0-3.324-2.676-6-6-6H24z" fill="url(#p)"/><path d="M12 6c-3.324 0-6 2.676-6 6v72c0 3.324 2.676 6 6 6h12V6H12z" style="marker:none" color="#000" fill="url(#q)" overflow="visible" enable-background="accumulate"/><rect width="84" height="84" rx="6" ry="6" x="-94" y="6" fill="#f0f"/><g stroke="#fff" stroke-width=".5" stroke-linecap="round"><rect width="66" height="66" rx="12" ry="12" x="15" y="15" clip-path="url(#r)" opacity=".2" fill="url(#s)" filter="url(#t)"/><rect width="66" height="66" rx="12" ry="12" x="15" y="15" clip-path="url(#u)" opacity=".5" fill="url(#v)" filter="url(#t)"/></g><g><path style="marker:none" opacity=".5" color="#000" fill="#fff" overflow="visible" enable-background="accumulate" d="M24 6h1v84h-1z"/><path style="marker:none" opacity=".05" color="#000" overflow="visible" enable-background="accumulate" d="M23 6h1v84h-1z"/><path d="M34 17a1 1 0 1 1-2 0 1 1 0 1 1 2 0zM34 23a1 1 0 1 1-2 0 1 1 0 1 1 2 0zM34 29a1 1 0 1 1-2 0 1 1 0 1 1 2 0z" style="marker:none" color="#000" fill="#1a1a1a" overflow="visible" enable-background="accumulate"/><path d="M45.531 15.969v.25h.282v-.25h-.282zm9.844 0V16.688c.001.022.031.04.031.062v.063h-.031a.492.492 0 0 0-.188-.22.543.543 0 0 0-.28-.062c-.39 0-.595.26-.594.813 0 .273.062.49.156.625s.237.187.437.187c.12 0 .201-.018.282-.062a.457.457 0 0 0 .187-.219h.031v.156c.002.024 0 .044 0 .063.002.017-.002.052 0 .062h.25v-.062-.063V15.97h-.281zm2.344 0v2.187H58V15.97h-.281zm5.687 0v.25h.25v-.25h-.25zm-27.156.094v2.093h1.313v-.25H36.53v-1.843h-.281zm27.938.125l-.094.375h-.188v.187h.188v1.063c0 .239.101.343.312.343.055 0 .115.007.156 0 .043-.006.085-.02.126-.031v-.188c-.029.006-.07-.003-.094 0-.024.004-.037.032-.063.032a.157.157 0 0 1-.125-.063c-.024-.031-.031-.08-.031-.156v-1h.281v-.188h-.281v-.375h-.188zm7.5 0l-.063.375h-.219v.187h.188v1.063c0 .239.101.343.312.343.055 0 .115.007.156 0 .043-.006.085-.02.126-.031v-.188c-.029.006-.07-.003-.094 0-.024.004-.037.032-.063.032a.157.157 0 0 1-.125-.063c-.024-.031-.031-.08-.031-.156v-1h.281v-.188h-.281v-.375h-.188zM38.5 16.53c-.474 0-.719.266-.719.813 0 .14.032.271.063.375a.661.661 0 0 0 .125.25c.06.068.132.123.218.156.087.033.203.031.313.031.232 0 .41-.052.531-.187.122-.136.188-.348.188-.625 0-.137-.035-.241-.063-.344a.766.766 0 0 0-.125-.281c-.056-.069-.129-.091-.218-.125a.846.846 0 0 0-.313-.063zm1.688 0a.482.482 0 0 0-.157.032.227.227 0 0 0-.093.062.286.286 0 0 0-.063.094 1.18 1.18 0 0 0-.063.156v-.063c0-.028-.029-.063-.03-.093-.002-.03.001-.066 0-.094-.002-.03 0-.04 0-.063h-.25c0 .023-.002.035 0 .063 0 .028-.002.062 0 .094v.093c0 .035.03.092.03.125v1.22h.25v-.845c0-.079.02-.152.032-.218.012-.068.005-.109.031-.157a.412.412 0 0 1 .125-.125c.043-.027.096-.03.156-.03.03 0 .04-.004.063 0 .023.001.045-.006.062 0v-.25c-.01-.004-.011.002-.031 0-.02-.005-.041 0-.063 0zm1 0a.884.884 0 0 0-.282.032.583.583 0 0 0-.218.156.667.667 0 0 0-.157.25 1.093 1.093 0 0 0-.062.375c0 .275.065.485.187.625.123.14.297.187.532.187.105 0 .207-.009.28-.031.076-.023.138-.027.188-.063.05-.036.065-.08.094-.125.03-.044.077-.112.094-.156l-.25-.062c-.025.07-.056.141-.125.187a.512.512 0 0 1-.282.063.397.397 0 0 1-.187-.032.466.466 0 0 1-.156-.125c-.035-.05-.045-.118-.063-.187a.895.895 0 0 1-.031-.219h1.125v-.031a1.6 1.6 0 0 0-.031-.344.642.642 0 0 0-.125-.25.577.577 0 0 0-.219-.187.672.672 0 0 0-.313-.063zm1.75 0c-.063 0-.109.017-.157.032-.047.013-.088.004-.125.03a.406.406 0 0 0-.093.095c-.028.037-.07.079-.094.125v-.063c-.001-.03.002-.066 0-.094v-.094h-.25V18.157h.25v-.937c0-.08.014-.158.031-.219.018-.062.063-.084.094-.125.032-.042.049-.104.093-.125a.355.355 0 0 1 .157-.031c.053 0 .088.017.125.031.037.013.071.03.093.063a.307.307 0 0 1 .063.125c.01.051 0 .11 0 .187v1.031h.281v-.937c0-.081.015-.157.032-.219s.03-.115.062-.156a.343.343 0 0 1 .125-.094.24.24 0 0 1 .125-.031.51.51 0 0 1 .156.031c.037.013.072.03.094.063.023.03.021.073.031.125.01.051.032.11.032.187v1.031h.25v-1.062c0-.098-.014-.18-.032-.25-.017-.072-.025-.143-.062-.188a.361.361 0 0 0-.157-.093.667.667 0 0 0-.218-.032c-.063 0-.108.017-.157.032-.048.013-.085.004-.124.03-.04.026-.096.057-.126.095-.029.037-.039.079-.062.125a.366.366 0 0 0-.156-.22c-.07-.047-.161-.062-.282-.062zm3.874 0c-.048.01-.084.04-.124.063a.505.505 0 0 0-.126.093c-.03.036-.069.075-.093.125 0-.025.002-.065 0-.093-.001-.029.002-.038 0-.063-.001-.025.002-.045 0-.062v-.032h-.25v2.188h.25v-.594-.093-.094-.063c.045.098.134.145.218.188a.583.583 0 0 0 .282.062c.11 0 .207-.021.281-.062a.466.466 0 0 0 .188-.157.691.691 0 0 0 .093-.25 1.884 1.884 0 0 0 0-.687.678.678 0 0 0-.093-.25.458.458 0 0 0-.188-.156.61.61 0 0 0-.281-.063c-.062 0-.107-.01-.157 0zm1.626 0c-.198 0-.366.05-.47.125-.102.075-.124.168-.124.313 0 .075 0 .137.031.187.031.05.075.091.125.125.05.033.094.073.156.094.063.02.124.046.188.063.068.018.13.015.187.03a.787.787 0 0 1 .157.063c.04.02.07.032.093.063.023.03.032.077.032.125a.25.25 0 0 1-.032.125.138.138 0 0 1-.062.062c-.034.019-.077.055-.125.063-.047.008-.1 0-.157 0a.692.692 0 0 1-.312-.063c-.07-.04-.103-.102-.125-.187l-.219.062c.018.074.026.136.063.188.038.05.1.093.156.125a.589.589 0 0 0 .188.062c.074.015.158 0 .25 0 .102 0 .202-.01.28-.031.08-.021.134-.023.188-.063a.388.388 0 0 0 .156-.344c0-.056.017-.113 0-.155a.429.429 0 0 0-.062-.125.598.598 0 0 0-.125-.094c-.036-.024-.052-.015-.094-.032-.04-.017-.08-.05-.125-.062-.044-.013-.083-.02-.125-.031-.063-.016-.135-.018-.187-.032-.053-.014-.087-.043-.125-.062-.037-.02-.073-.035-.094-.063a.24.24 0 0 1-.031-.125c0-.073.006-.12.062-.156a.565.565 0 0 1 .282-.062c.044 0 .083.023.124.031.042.007.092.014.126.031.033.017.039.034.062.063.023.027.054.052.063.093l.25-.03a.42.42 0 0 0-.22-.282.767.767 0 0 0-.406-.094zm3.343 0c-.062 0-.108.017-.156.032-.047.013-.088.004-.125.03a.407.407 0 0 0-.094.095c-.027.037-.07.079-.093.125v-.063c-.002-.03.001-.066 0-.094v-.094h-.25V18.157h.25v-.937c0-.08.014-.158.03-.219a.307.307 0 0 1 .063-.125.448.448 0 0 1 .125-.125.355.355 0 0 1 .157-.031c.053 0 .087.017.124.031.038.013.072.03.094.063a.307.307 0 0 1 .063.125c.01.051 0 .11 0 .187v1.031h.281v-.937c0-.081-.017-.157 0-.219.018-.062.063-.115.094-.156.032-.041.049-.073.093-.094a.37.37 0 0 1 .157-.031.51.51 0 0 1 .156.031c.037.013.071.03.094.063.023.03.021.073.031.125.01.051.031.11.031.187v1.031h.25v-1.062c0-.098-.013-.18-.031-.25a.505.505 0 0 0-.094-.188.263.263 0 0 0-.125-.093.667.667 0 0 0-.218-.032c-.063 0-.108.017-.157.032-.049.013-.086.004-.125.03-.039.026-.095.057-.125.095-.029.037-.039.079-.062.125a.366.366 0 0 0-.157-.22c-.069-.047-.16-.062-.28-.062zm4.907 0c-.474 0-.72.266-.72.813 0 .14.032.271.063.375a.661.661 0 0 0 .125.25c.06.068.132.123.219.156s.202.031.313.031c.232 0 .409-.052.53-.187.123-.136.188-.348.188-.625 0-.137-.035-.241-.062-.344a.766.766 0 0 0-.125-.281c-.057-.069-.13-.091-.219-.125a.846.846 0 0 0-.313-.063zm2.343 0c-.473 0-.718.266-.718.813 0 .14.03.271.062.375a.661.661 0 0 0 .125.25c.06.068.132.123.219.156s.202.031.312.031c.233 0 .41-.052.532-.187.122-.136.187-.348.187-.625 0-.137-.035-.241-.063-.344a.766.766 0 0 0-.124-.281c-.057-.069-.13-.091-.22-.125a.846.846 0 0 0-.312-.063zm1.688 0a.482.482 0 0 0-.157.032.227.227 0 0 0-.093.062c-.029.028-.073.049-.094.094-.02.044-.013.095-.031.156h-.032v-.063c0-.028.003-.063 0-.093 0-.03.003-.066 0-.094v-.063h-.25v.063c.001.028 0 .062 0 .094.002.032 0 .058 0 .093.002.035 0 .092 0 .125v1.22h.282v-.845c0-.079-.013-.152 0-.218.012-.068.036-.109.062-.157a.412.412 0 0 1 .125-.125c.043-.027.096-.03.157-.03.029 0 .039-.004.062 0 .023.001.045-.006.063 0v-.25c-.011-.004-.012.002-.032 0-.02-.005-.04 0-.062 0zm1.718 0a.707.707 0 0 0-.437.125.354.354 0 0 0-.156.313c0 .075.031.137.062.187.032.05.044.091.094.125.05.033.125.073.188.094.062.02.124.046.187.063.068.018.13.015.188.03a.787.787 0 0 1 .156.063c.04.02.071.032.093.063.023.03.032.077.032.125a.25.25 0 0 1-.032.125c-.018.031-.06.043-.093.062-.034.019-.077.055-.125.063-.047.008-.1 0-.157 0a.556.556 0 0 1-.28-.063.315.315 0 0 1-.157-.187l-.219.062a.537.537 0 0 0 .094.188c.038.05.07.093.125.125a.589.589 0 0 0 .188.062c.074.015.158 0 .25 0 .102 0 .202-.01.28-.031.08-.021.165-.023.22-.063.054-.04.065-.098.093-.156.03-.058.063-.113.063-.187a.449.449 0 0 0-.032-.157.429.429 0 0 0-.062-.125c-.027-.032-.057-.07-.094-.093-.036-.024-.083-.015-.125-.032-.04-.017-.08-.05-.125-.062-.044-.013-.083-.02-.125-.031-.063-.016-.135-.018-.187-.032-.053-.014-.087-.043-.125-.062-.037-.02-.073-.035-.094-.063a.24.24 0 0 1-.031-.125c0-.073.037-.12.093-.156a.44.44 0 0 1 .25-.062c.045 0 .116.023.157.031.042.007.06.014.093.031.034.017.07.034.094.063.024.027.023.052.032.093l.25-.03a.383.383 0 0 0-.188-.282.892.892 0 0 0-.438-.094zm3.938 0c-.107 0-.205.01-.281.032a.554.554 0 0 0-.188.093c-.05.038-.097.073-.125.125a.653.653 0 0 0-.062.188H66a.335.335 0 0 1 .031-.125c.019-.033.064-.044.094-.063a.213.213 0 0 1 .094-.031c.04-.008.074-.031.125-.031.057 0 .114.017.156.031a.32.32 0 0 1 .125.063c.028.028.049.047.063.093.013.046 0 .122 0 .188v.093h-.344a1.64 1.64 0 0 0-.25.032c-.082.014-.155.024-.219.062a.444.444 0 0 0-.219.407c0 .146.045.26.125.343.08.084.185.125.344.125.074 0 .162.016.219 0a.575.575 0 0 0 .156-.062c.045-.03.06-.084.094-.125.034-.041.065-.074.094-.125h.03c.004.052-.011.085 0 .125.012.039.04.066.063.093a.243.243 0 0 0 .094.063c.036.013.075.031.125.031.037 0 .062.004.094 0 .033-.004.06-.023.094-.031v-.156c-.014.003-.017-.002-.032 0-.014.002-.016 0-.031 0-.058 0-.104-.024-.125-.063a.305.305 0 0 1-.031-.156v-.688a.533.533 0 0 0-.156-.406c-.101-.092-.239-.125-.438-.125zm1.75 0c-.063 0-.108.017-.156.032-.047.013-.088.004-.125.03a.407.407 0 0 0-.094.095c-.027.037-.07.079-.094.125v-.063c0-.03.002-.066 0-.094v-.062-.032h-.25v.125c.001.033 0 .057 0 .094v1.375h.25v-.937c0-.08.015-.158.031-.219.018-.062.063-.084.094-.125.032-.042.05-.104.094-.125a.355.355 0 0 1 .156-.031.51.51 0 0 1 .156.031c.038.013.04.03.063.063a.307.307 0 0 1 .063.125c.01.051 0 .11 0 .187v1.031h.28v-.937c0-.081.015-.157.032-.219.018-.062.031-.115.063-.156a.343.343 0 0 1 .124-.094.24.24 0 0 1 .126-.031.51.51 0 0 1 .156.031c.037.013.071.03.094.063.023.03.02.073.03.125.01.051.032.11.032.187v1.031h.25v-1.062c0-.098-.014-.18-.031-.25-.018-.072-.026-.143-.063-.188a.361.361 0 0 0-.156-.093.667.667 0 0 0-.219-.032c-.062 0-.107.017-.156.032-.049.013-.086.004-.125.03a.388.388 0 0 0-.094.095c-.03.037-.07.079-.094.125a.366.366 0 0 0-.156-.22c-.07-.047-.16-.062-.281-.062zm2.406 0a.885.885 0 0 0-.281.032.583.583 0 0 0-.219.156.667.667 0 0 0-.156.25c-.037.102-.031.226-.031.375 0 .275.034.485.156.625.123.14.328.187.563.187a.808.808 0 0 0 .25-.031c.075-.023.137-.027.187-.063a.523.523 0 0 0 .125-.125c.03-.044.046-.112.063-.156l-.22-.062a.405.405 0 0 1-.406.25.542.542 0 0 1-.218-.031c-.056-.029-.09-.076-.125-.125a.614.614 0 0 1-.094-.188.895.895 0 0 1-.031-.219h1.156v-.031c0-.12-.04-.241-.063-.344a.604.604 0 0 0-.093-.25.577.577 0 0 0-.219-.187.817.817 0 0 0-.344-.063zm-25 .032v1.593h.282v-1.593h-.282zm3.844 0v1.062c0 .099.013.18.031.25.02.07.053.111.094.156a.355.355 0 0 0 .156.094.66.66 0 0 0 .219.031c.068 0 .136.015.188 0 .051-.013.084-.037.124-.062.04-.027.095-.057.126-.094.03-.037.037-.08.062-.125h.031v.156c.002.028 0 .041 0 .063v.062h.25v-.062c0-.024.001-.062 0-.094 0-.033.001-.058 0-.094v-1.343h-.281v.906c0 .079-.012.157-.031.218-.02.061-.027.115-.063.157-.035.04-.105.071-.156.093a.363.363 0 0 1-.156.032c-.062 0-.115-.019-.157-.032a.186.186 0 0 1-.093-.062.313.313 0 0 1-.063-.125c-.01-.052 0-.11 0-.188v-1h-.281zm14.031 0v1.593h.25v-1.593h-.25zm-24.906.156c.066 0 .135.011.188.031a.25.25 0 0 1 .124.094.476.476 0 0 1 .094.187c.02.08.032.19.032.313s-.011.231-.032.312a.482.482 0 0 1-.093.188.256.256 0 0 1-.126.093.594.594 0 0 1-.374 0 .274.274 0 0 1-.126-.093.518.518 0 0 1-.093-.188 1.28 1.28 0 0 1-.032-.312c0-.12.012-.201.032-.282.02-.08.055-.17.093-.218a.254.254 0 0 1 .126-.094.543.543 0 0 1 .187-.031zm2.688 0c.131 0 .21.048.28.125.071.076.111.177.126.343h-.844c.004-.095.034-.157.063-.218.028-.063.052-.12.093-.157a.285.285 0 0 1 .125-.062.632.632 0 0 1 .157-.031zm5.718 0c.073 0 .14.035.188.062.048.028.065.073.093.125.03.053.051.112.063.188.012.076.031.152.031.25 0 .1-.02.203-.031.281a.543.543 0 0 1-.063.188c-.028.053-.044.096-.093.125a.379.379 0 0 1-.188.03.531.531 0 0 1-.187-.03.268.268 0 0 1-.125-.094.527.527 0 0 1-.094-.188 1.198 1.198 0 0 1-.031-.281c0-.132.009-.23.031-.313a.66.66 0 0 1 .094-.218.347.347 0 0 1 .156-.094.484.484 0 0 1 .156-.031zm8.063 0c.068 0 .135.01.187.031.053.02.09.046.125.094.036.048.075.11.094.187.019.077 0 .2 0 .313 0 .117.019.2 0 .281a.504.504 0 0 1-.094.188c-.035.05-.071.102-.125.125a.488.488 0 0 1-.187.03.458.458 0 0 1-.188-.03c-.047-.024-.063-.076-.093-.125a.535.535 0 0 1-.063-.188c-.014-.078-.031-.172-.031-.281 0-.114.016-.202.031-.282a.534.534 0 0 1 .063-.187.348.348 0 0 1 .124-.125.336.336 0 0 1 .157-.031zm1.718 0c.067 0 .135.011.188.031a.25.25 0 0 1 .125.094.476.476 0 0 1 .094.187c.02.08.031.19.031.313s-.01.231-.031.312a.482.482 0 0 1-.094.188.256.256 0 0 1-.125.093.594.594 0 0 1-.375 0 .274.274 0 0 1-.125-.093.518.518 0 0 1-.094-.188 1.28 1.28 0 0 1-.031-.312c0-.12.012-.201.031-.282.02-.08.056-.17.094-.218a.254.254 0 0 1 .125-.094.543.543 0 0 1 .188-.031zm2.344 0c.067 0 .135.011.188.031a.25.25 0 0 1 .125.094.476.476 0 0 1 .093.187c.02.08.032.19.032.313s-.011.231-.032.312a.482.482 0 0 1-.093.188.255.255 0 0 1-.125.093.594.594 0 0 1-.375 0 .274.274 0 0 1-.125-.093.518.518 0 0 1-.094-.188 1.28 1.28 0 0 1-.031-.312c0-.12.011-.201.031-.282.02-.08.056-.17.094-.218a.254.254 0 0 1 .125-.094.543.543 0 0 1 .187-.031zm11.5 0c.132 0 .242.048.313.125.07.076.11.177.125.343h-.844c.004-.095.003-.157.031-.218.029-.063.053-.12.094-.157.041-.036.108-.048.156-.062.05-.015.081-.031.125-.031zm-3.844.625v.156a.487.487 0 0 1-.125.313.5.5 0 0 1-.156.125.498.498 0 0 1-.219.03c-.085 0-.14-.015-.187-.062-.046-.047-.063-.101-.063-.187a.41.41 0 0 1 .032-.188.228.228 0 0 1 .094-.093.464.464 0 0 1 .156-.063c.058-.009.123.001.187 0l.281-.031zm5.782.468v.344h.281v-.343h-.281zM53.719 27.938v2.187H54v-2.188h-.281zm3.343 0v.25h.25v-.25h-.25zm9.688 0v2.187H67v-2.188h-.25zm.656 0v.25h.25v-.25h-.25zm-31.156.125v2.062h.281v-.813h.594c.118 0 .224.002.313-.03.088-.034.16-.1.218-.157.06-.058.127-.11.157-.188a.677.677 0 0 0 .03-.25.664.664 0 0 0-.03-.25.637.637 0 0 0-.157-.218.577.577 0 0 0-.218-.125.991.991 0 0 0-.313-.032h-.875zm11.25.125l-.063.343h-.218v.188h.187v1.062c0 .24.102.375.313.375.054 0 .115-.024.156-.031.042-.006.085.01.125 0v-.219c-.028.006-.07.028-.094.032-.023.003-.037 0-.062 0a.157.157 0 0 1-.125-.063c-.025-.031-.032-.08-.032-.156v-1h.282v-.188h-.282v-.343H47.5zm20.688 0l-.063.343h-.219v.188h.188v1.062c0 .24.101.375.312.375.055 0 .115-.024.156-.031.043-.006.085.01.126 0v-.219c-.029.006-.07.028-.094.032-.024.003-.037 0-.063 0a.157.157 0 0 1-.125-.063c-.024-.031-.031-.08-.031-.156v-1h.281v-.188h-.281v-.343h-.188zm-31.657.093h.563c.16 0 .263.026.343.094.08.067.125.182.126.313a.418.418 0 0 1-.126.312c-.075.071-.182.094-.343.094h-.563v-.813zm2.313.219c-.056 0-.086.017-.125.031-.04.014-.097.033-.125.063-.029.028-.041.08-.063.125a1.18 1.18 0 0 0-.062.156v-.094c0-.028.002-.063 0-.093-.001-.03.002-.035 0-.063-.001-.03-.03-.071-.032-.094h-.25c.001.023.03.066.032.094 0 .028-.001.062 0 .094V30.125h.25v-.844c0-.079.018-.152.031-.218.013-.068.036-.109.063-.157.027-.049.051-.097.093-.125.043-.027.096-.031.157-.031.029 0 .07-.003.093 0 .024.002.045-.005.063 0v-.219c-.011-.003-.043-.028-.063-.031-.02-.004-.04 0-.062 0zm1 0c-.108 0-.205.01-.282.031a.554.554 0 0 0-.187.094c-.05.038-.098.072-.125.125-.027.052-.021.125-.031.188l.25.03a.336.336 0 0 1 .031-.124.318.318 0 0 1 .094-.094.213.213 0 0 1 .093-.031c.042-.008.106 0 .157 0 .057 0 .083-.014.125 0a.32.32 0 0 1 .125.062c.028.029.049.08.062.125.014.046.032.091.032.157v.093h-.376a1.64 1.64 0 0 0-.25.032c-.082.014-.154.024-.218.062a.547.547 0 0 0-.157.188.476.476 0 0 0-.062.25c0 .146.045.26.125.343.08.084.216.125.375.125a.66.66 0 0 0 .188-.031.575.575 0 0 0 .156-.063c.045-.029.092-.052.125-.093.034-.041.065-.106.093-.157a.76.76 0 0 0 .032.157c.011.039.009.066.031.093a.243.243 0 0 0 .094.063c.036.013.075 0 .125 0 .037 0 .061.004.093 0 .034-.004.092.008.126 0v-.188c-.014.003-.048.03-.063.032-.015.002-.017 0-.031 0-.058 0-.105-.024-.125-.063a.451.451 0 0 1-.032-.187v-.688a.464.464 0 0 0-.156-.375.618.618 0 0 0-.437-.156zm1.656 0c-.098 0-.164.033-.25.063-.086.028-.186.06-.25.125a.667.667 0 0 0-.156.25c-.037.102-.032.226-.032.375 0 .275.066.485.188.625.123.14.297.218.531.218a.672.672 0 0 0 .438-.125.523.523 0 0 0 .125-.125.553.553 0 0 0 .062-.125l-.218-.062c-.025.07-.087.11-.157.156a.405.405 0 0 1-.25.063.542.542 0 0 1-.218-.032c-.056-.028-.09-.075-.126-.125-.035-.05-.076-.087-.093-.156-.017-.07 0-.167 0-.25h1.125v-.031c0-.12-.008-.21-.032-.313a.786.786 0 0 0-.124-.281.577.577 0 0 0-.22-.188.817.817 0 0 0-.343-.062zm1.594 0a.707.707 0 0 0-.438.125.412.412 0 0 0-.156.344c0 .075 0 .137.031.187.032.05.075.091.125.125.051.033.125.042.188.063.062.02.124.046.187.062.069.019.131.047.188.063.057.014.085.01.125.031.04.02.071.063.093.094.023.03.032.077.032.125 0 .047-.012.061-.032.093-.018.032-.028.075-.062.094-.034.019-.077.024-.125.032-.047.007-.1 0-.156 0-.125 0-.211.007-.282-.032a.315.315 0 0 1-.156-.187l-.218.031c.017.074.025.136.062.188.038.05.1.093.156.125a.589.589 0 0 0 .188.062 1.163 1.163 0 0 0 .531 0 .545.545 0 0 0 .188-.094.429.429 0 0 0 .124-.156c.03-.059.063-.113.063-.188a.449.449 0 0 0-.031-.156.429.429 0 0 0-.063-.125c-.027-.032-.056-.04-.093-.062a.747.747 0 0 0-.126-.063c-.04-.017-.08-.02-.124-.031-.044-.013-.084-.052-.126-.063-.063-.015-.134-.017-.187-.03-.053-.015-.087-.045-.125-.063-.037-.02-.072-.035-.094-.063a.14.14 0 0 1-.031-.093.23.23 0 0 1 .094-.188c.056-.036.13-.031.25-.031.045 0 .084-.008.125 0 .042.007.092.013.125.031.033.017.07.034.093.063.024.027.023.083.032.125l.25-.032a.481.481 0 0 0-.219-.312.767.767 0 0 0-.406-.094zm1.593 0a.894.894 0 0 0-.28.063.511.511 0 0 0-.22.125.667.667 0 0 0-.156.25 1.093 1.093 0 0 0-.062.375c0 .275.065.485.187.625.123.14.297.218.532.218.105 0 .207-.009.28-.031a.672.672 0 0 0 .188-.094.523.523 0 0 0 .125-.125.553.553 0 0 0 .063-.125l-.25-.062a.274.274 0 0 1-.125.156.512.512 0 0 1-.282.063.397.397 0 0 1-.187-.032.466.466 0 0 1-.156-.125.41.41 0 0 1-.063-.156 1.175 1.175 0 0 1-.031-.25h1.125v-.031c0-.12-.008-.21-.031-.313a.786.786 0 0 0-.125-.281.577.577 0 0 0-.219-.188.672.672 0 0 0-.313-.062zm1.813 0a.702.702 0 0 0-.188.031.587.587 0 0 0-.156.063c-.04.025-.063.056-.093.093-.03.038-.069.08-.094.125v-.062c-.001-.03.002-.066 0-.094v-.125h-.25V30.125H46v-.938c0-.079.012-.126.031-.187.02-.062.028-.115.063-.156a.335.335 0 0 1 .125-.094.504.504 0 0 1 .187-.031c.062 0 .115-.014.157 0 .041.012.068.061.093.093a.295.295 0 0 1 .063.125c.011.052 0 .11 0 .188v1H47v-1.063a.929.929 0 0 0-.031-.25.465.465 0 0 0-.094-.187.355.355 0 0 0-.156-.094.66.66 0 0 0-.219-.031zm3.094 0a.707.707 0 0 0-.438.125.412.412 0 0 0-.156.344c0 .075 0 .137.031.187.032.05.075.091.125.125.051.033.125.042.188.063.062.02.124.046.187.062.069.019.131.047.188.063.057.014.085.01.125.031.04.02.071.063.093.094.023.03.063.077.063.125 0 .047-.012.061-.031.093a.307.307 0 0 1-.094.094c-.034.019-.077.024-.125.032-.047.007-.1 0-.156 0-.125 0-.211.007-.282-.032a.315.315 0 0 1-.156-.187l-.218.031c.017.074.025.136.062.188.038.05.1.093.156.125a.589.589 0 0 0 .188.062 1.163 1.163 0 0 0 .531 0 .545.545 0 0 0 .188-.094.429.429 0 0 0 .124-.156c.03-.059.063-.113.063-.188a.449.449 0 0 0-.031-.156.429.429 0 0 0-.063-.125c-.027-.032-.056-.04-.093-.062a.747.747 0 0 0-.126-.063c-.04-.017-.08-.02-.124-.031-.044-.013-.084-.052-.126-.063-.063-.015-.134-.017-.187-.03-.053-.015-.087-.045-.125-.063-.037-.02-.072-.035-.094-.063a.14.14 0 0 1-.031-.093.23.23 0 0 1 .094-.188c.056-.036.13-.031.25-.031.045 0 .084-.008.125 0 .042.007.092.013.125.031.033.017.07.034.093.063.024.027.023.083.032.125l.25-.032c-.028-.135-.084-.25-.188-.312a.892.892 0 0 0-.437-.094zm1.562 0c-.056 0-.1.02-.156.031-.056.011-.105.037-.156.063-.05.024-.114.052-.157.093a.633.633 0 0 0-.124.157.66.66 0 0 0-.063.187 1.54 1.54 0 0 0 0 .625.7.7 0 0 0 .125.25.627.627 0 0 0 .219.188.705.705 0 0 0 .312.062.71.71 0 0 0 .25-.031.63.63 0 0 0 .188-.125.52.52 0 0 0 .125-.156.624.624 0 0 0 .062-.188l-.281-.031a.393.393 0 0 1-.125.25c-.063.05-.125.063-.219.063-.075 0-.135-.001-.187-.032a.34.34 0 0 1-.125-.125.768.768 0 0 1-.063-.218c-.012-.077-.031-.16-.031-.25 0-.103.019-.174.031-.25a.522.522 0 0 1 .063-.188c.031-.05.075-.1.125-.125a.417.417 0 0 1 .187-.031c.103 0 .163.01.219.062.056.052.111.131.125.219l.25-.031a.643.643 0 0 0-.063-.188c-.03-.057-.074-.083-.124-.125-.05-.043-.087-.1-.157-.125a.797.797 0 0 0-.25-.031zm1.532 0a.894.894 0 0 0-.282.063.511.511 0 0 0-.218.125.667.667 0 0 0-.157.25 1.093 1.093 0 0 0-.062.375c0 .275.065.485.187.625.123.14.297.218.532.218.105 0 .207-.009.28-.031a.672.672 0 0 0 .188-.094.523.523 0 0 0 .125-.125.553.553 0 0 0 .063-.125l-.219-.062c-.024.07-.087.11-.156.156a.512.512 0 0 1-.282.063.397.397 0 0 1-.187-.032.466.466 0 0 1-.156-.125.41.41 0 0 1-.063-.156 1.175 1.175 0 0 1-.031-.25h1.125v-.031c0-.12-.008-.21-.031-.313a.786.786 0 0 0-.125-.281c-.054-.076-.098-.145-.188-.188a.817.817 0 0 0-.343-.062zm2.343 0a.894.894 0 0 0-.281.063.511.511 0 0 0-.219.125.667.667 0 0 0-.156.25 1.093 1.093 0 0 0-.063.375c0 .275.066.485.188.625.123.14.297.218.531.218.106 0 .207-.009.282-.031a.672.672 0 0 0 .187-.094.523.523 0 0 0 .125-.125.553.553 0 0 0 .063-.125l-.25-.062a.274.274 0 0 1-.126.156.512.512 0 0 1-.28.063.397.397 0 0 1-.188-.032.466.466 0 0 1-.157-.125.41.41 0 0 1-.062-.156 1.175 1.175 0 0 1-.031-.25h1.125v-.031c0-.12-.008-.21-.032-.313a.786.786 0 0 0-.124-.281.577.577 0 0 0-.22-.188.672.672 0 0 0-.312-.062zm1.657 0c-.056 0-.086.017-.126.031a.227.227 0 0 0-.093.063.53.53 0 0 0-.094.125 1.18 1.18 0 0 0-.063.156c0-.02.001-.066 0-.094 0-.028.003-.063 0-.093 0-.03.003-.035 0-.063 0-.03.001-.071 0-.094h-.25c.001.023 0 .066 0 .094.001.028 0 .062 0 .094.002.032 0 .058 0 .093.002.035 0 .061 0 .094v1.219h.282v-.844c0-.079-.013-.152 0-.218.012-.068.036-.109.062-.157.028-.049.052-.097.094-.125.043-.027.096-.031.156-.031.03 0 .07-.003.094 0 .023.002.045-.005.063 0v-.219c-.011-.003-.043-.028-.063-.031-.02-.004-.041 0-.063 0zm1.593 0c-.197 0-.365.049-.468.125-.103.075-.126.2-.126.344 0 .075 0 .137.032.187.031.05.075.091.125.125.05.033.093.042.156.063.063.02.124.046.188.062.068.019.13.047.187.063.058.014.116.01.156.031.04.02.072.063.094.094.022.03.031.077.031.125 0 .047-.011.061-.031.093-.019.032-.028.075-.063.094-.034.019-.077.024-.124.032-.047.007-.1 0-.157 0-.125 0-.242.007-.312-.032-.07-.04-.103-.102-.125-.187l-.219.031c.018.074.025.136.063.188.038.05.1.093.156.125a.589.589 0 0 0 .187.062 1.163 1.163 0 0 0 .531 0 .545.545 0 0 0 .188-.094.388.388 0 0 0 .156-.344c0-.056.017-.113 0-.156a.429.429 0 0 0-.062-.125c-.028-.032-.088-.04-.125-.062-.036-.024-.052-.046-.094-.063-.041-.017-.081-.02-.125-.031-.044-.013-.083-.052-.125-.063-.063-.015-.135-.017-.188-.03-.052-.015-.086-.045-.124-.063-.038-.02-.073-.035-.094-.063a.14.14 0 0 1-.032-.093c0-.074.006-.152.063-.188.057-.036.162-.031.281-.031.045 0 .084-.008.125 0 .042.007.092.013.125.031.033.017.04.034.063.063a.342.342 0 0 1 .062.125l.25-.032a.481.481 0 0 0-.218-.312.767.767 0 0 0-.407-.094zm1.469 0c-.196 0-.34.08-.438.219-.095.138-.156.35-.156.625 0 .271.032.458.125.593a.56.56 0 0 0 .469.22c.063 0 .106-.02.156-.032.051-.01.085-.008.125-.031.04-.025.095-.058.125-.094.032-.037.037-.075.063-.125h.031c0 .028-.03.035-.031.063v.812h.281v-1.813c0-.13-.002-.21 0-.28.003-.071-.002-.11 0-.126h-.25c-.002.003.002.012 0 .032-.002.018.002.036 0 .062-.001.026.002.032 0 .063-.001.029-.031.069-.031.093-.025-.046-.032-.09-.063-.125a.517.517 0 0 0-.125-.093c-.039-.024-.074-.02-.125-.032-.05-.011-.09-.031-.156-.031zm3.469 0a.894.894 0 0 0-.282.063c-.085.028-.185.06-.25.125-.064.064-.087.146-.124.25a1.093 1.093 0 0 0-.063.375c0 .275.065.485.188.625s.296.218.53.218a.672.672 0 0 0 .438-.125.523.523 0 0 0 .125-.125c.03-.045.077-.08.094-.125l-.25-.062a.274.274 0 0 1-.125.156.512.512 0 0 1-.281.063.542.542 0 0 1-.219-.032c-.056-.028-.089-.075-.125-.125-.035-.05-.076-.087-.094-.156-.016-.07 0-.167 0-.25h1.125v-.031c0-.12-.008-.21-.031-.313a.786.786 0 0 0-.125-.281.577.577 0 0 0-.219-.188.672.672 0 0 0-.312-.062zm2.5 0a.894.894 0 0 0-.281.063.511.511 0 0 0-.22.125.667.667 0 0 0-.156.25 1.093 1.093 0 0 0-.062.375c0 .275.065.485.188.625s.296.218.53.218c.106 0 .208-.009.282-.031a.672.672 0 0 0 .188-.094c.05-.036.064-.08.093-.125.03-.045.077-.08.094-.125l-.25-.062a.274.274 0 0 1-.125.156.512.512 0 0 1-.281.063.542.542 0 0 1-.219-.032c-.056-.028-.089-.075-.125-.125a.41.41 0 0 1-.063-.156 1.175 1.175 0 0 1-.03-.25h1.124v-.031c0-.12-.008-.21-.031-.313a.786.786 0 0 0-.125-.281.577.577 0 0 0-.219-.188.672.672 0 0 0-.312-.062zm-8.656.031v1.594h.25v-1.594h-.25zm3.843 0v1.063c0 .098-.018.18 0 .25.02.07.053.142.094.187a.355.355 0 0 0 .156.094.87.87 0 0 0 .25.031c.069 0 .105-.016.157-.031a.622.622 0 0 0 .156-.063c.04-.026.063-.056.093-.093s.069-.08.094-.125V30c.002.027 0 .072 0 .094v.031h.25v-.063V30v-1.469h-.25v.938c0 .079-.011.126-.031.187a.47.47 0 0 1-.094.157.34.34 0 0 1-.125.093.521.521 0 0 1-.187.032c-.062 0-.083.012-.125 0-.041-.014-.1-.032-.125-.063-.026-.032-.02-.073-.032-.125-.01-.052-.03-.142-.03-.219v-1h-.25zm6.5 0v1.594h.25v-1.594h-.25zm-25.906.157c.132 0 .242.047.313.125.07.076.11.208.124.375h-.843c.004-.096.003-.189.031-.25.028-.063.084-.09.125-.125.041-.037.077-.08.125-.094.049-.015.081-.032.125-.032zm3.188 0c.131 0 .21.047.28.125.071.076.111.208.126.375h-.844a.694.694 0 0 1 .063-.25.317.317 0 0 1 .093-.125c.041-.037.077-.08.125-.094a.632.632 0 0 1 .157-.032zm8 0c.131 0 .242.047.312.125.07.076.11.208.125.375h-.875a.694.694 0 0 1 .063-.25.317.317 0 0 1 .093-.125c.041-.037.077-.08.125-.094a.632.632 0 0 1 .157-.032zm2.343 0c.132 0 .211.047.282.125.07.076.11.208.124.375h-.843a.694.694 0 0 1 .062-.25.317.317 0 0 1 .094-.125c.041-.037.077-.08.125-.094a.632.632 0 0 1 .156-.032zm4.782 0a.378.378 0 0 1 .312.156c.037.047.043.11.063.187.02.078.03.166.03.282 0 .128-.008.229-.03.312a.489.489 0 0 1-.094.188.27.27 0 0 1-.125.093.46.46 0 0 1-.157.032.442.442 0 0 1-.187-.032.356.356 0 0 1-.125-.125.556.556 0 0 1-.063-.187c-.012-.078 0-.176 0-.282 0-.107-.013-.171 0-.25a.768.768 0 0 1 .094-.218c.03-.052.046-.07.094-.094a.435.435 0 0 1 .188-.063zm3.374 0c.132 0 .243.047.313.125.07.076.11.208.125.375h-.844c.004-.096.003-.189.032-.25.028-.063.083-.09.124-.125.042-.037.078-.08.126-.094.048-.015.08-.032.124-.032zm2.5 0c.132 0 .243.047.313.125.07.076.11.208.125.375h-.844c.004-.096.003-.189.031-.25.029-.063.084-.09.126-.125.04-.037.077-.08.124-.094.05-.015.082-.032.126-.032zm-25.812.656h.313v.125c0 .052-.011.1-.032.156a.487.487 0 0 1-.093.156.5.5 0 0 1-.157.125.498.498 0 0 1-.218.032c-.086 0-.172-.016-.22-.063-.045-.047-.062-.102-.062-.188a.41.41 0 0 1 .032-.187c.026-.044.08-.07.124-.094.044-.024.068-.023.126-.031.058-.009.123-.03.187-.031zm29.094.468v.313h.312v-.313h-.312zM45.719 21.969v.25h.25v-.25h-.25zm6.843 0V22.688c.002.022 0 .04 0 .062-.047-.084-.114-.116-.187-.156a.67.67 0 0 0-.313-.063c-.388 0-.593.26-.593.813 0 .273.062.49.156.625.095.135.237.187.438.187.119 0 .232-.018.312-.062a.457.457 0 0 0 .188-.219c0 .025-.001.067 0 .094v.125c.001.017-.003.021 0 .031h.25v-.031c-.001-.022 0-.065 0-.094-.001-.03 0-.059 0-.094V21.97h-.25zm11.157 0v.25H64v-.25h-.281zm.687 0v1.843c0 .039.001.06 0 .094 0 .035.001.065 0 .094 0 .03.001.072 0 .094 0 .02-.03.022-.031.031h.281v-.031c.002-.017 0-.04 0-.063.002-.023 0-.035 0-.062.002-.028 0-.069 0-.094.05.097.109.175.188.219.08.043.192.062.312.062.389 0 .594-.26.594-.812 0-.274-.062-.49-.156-.625s-.238-.188-.438-.188a.676.676 0 0 0-.312.063.462.462 0 0 0-.188.218v-.093-.063V21.97h-.25zm3.344 0v2.156H68v-2.156h-.25zm5.656 0v2.156h.281v-2.156h-.28zm.656 0v.25h.282v-.25h-.281zm.688 0v1.843c0 .039.001.06 0 .094 0 .035.001.065 0 .094 0 .03.001.072 0 .094v.031H75v-.031c.002-.017-.001-.04 0-.063.002-.023-.001-.035 0-.062.002-.028 0-.069 0-.094.05.097.108.175.188.219.08.043.192.062.312.062.389 0 .594-.26.594-.812 0-.274-.062-.49-.156-.625s-.238-.188-.438-.188a.676.676 0 0 0-.313.063.462.462 0 0 0-.187.218v-.093-.063V21.97h-.25zm-38.5.093v2.063h.781c.142 0 .253-.018.375-.063a.844.844 0 0 0 .313-.187c.09-.089.167-.213.218-.344.052-.132.094-.297.094-.468 0-.176-.039-.311-.093-.438a.807.807 0 0 0-.22-.313.91.91 0 0 0-.343-.187 1.513 1.513 0 0 0-.438-.063h-.687zm11.906.125l-.062.344h-.188v.219h.157v1.031c0 .24.132.375.343.375.055 0 .084.007.125 0 .042-.006.085-.02.125-.031v-.188c-.028.006-.038-.003-.062 0-.024.004-.069 0-.094 0-.062 0-.1 0-.125-.03-.024-.032-.031-.08-.031-.157v-1h.281v-.219h-.281v-.343h-.188zm14.844 0l-.063.344h-.187v.219h.188v1.031c0 .24.101.375.312.375.055 0 .084.007.125 0 .042-.006.085-.02.125-.031v-.188c-.028.006-.038-.003-.063 0-.023.004-.068 0-.093 0-.062 0-.1 0-.125-.03-.025-.032-.032-.08-.032-.157v-1h.282v-.219h-.282v-.343H63zm-26.469.094h.407c.12 0 .211.032.312.063.1.029.178.061.25.125.072.063.147.15.188.25.04.098.062.204.062.343 0 .137-.024.272-.063.375a.682.682 0 0 1-.156.25.69.69 0 0 1-.25.157.737.737 0 0 1-.281.062h-.469v-1.625zm2.469.25c-.474 0-.719.266-.719.813 0 .14.032.24.063.343.032.103.065.213.125.282.06.068.132.123.218.156.087.033.203.031.313.031.232 0 .41-.052.531-.187.122-.136.188-.348.188-.625a1.48 1.48 0 0 0-.063-.375.621.621 0 0 0-.125-.25.52.52 0 0 0-.218-.157c-.09-.034-.19-.03-.313-.03zm1.031 0v.156c.001.033 0 .057 0 .094.001.036 0 .06 0 .094v1.25h.282v-.906c0-.08.011-.158.03-.219.02-.062.028-.115.063-.156.036-.042.107-.073.157-.094a.352.352 0 0 1 .156-.031c.061 0 .115.017.156.031a.17.17 0 0 1 .094.063.295.295 0 0 1 .062.125c.012.051 0 .11 0 .187v1h.282v-1.063a.929.929 0 0 0-.032-.25.343.343 0 0 0-.093-.156.355.355 0 0 0-.157-.093.66.66 0 0 0-.218-.032c-.069 0-.136-.014-.188 0-.052.014-.085.036-.125.063-.04.025-.095.056-.125.093-.03.038-.037.08-.063.125 0-.019-.03-.034-.03-.062-.002-.03.001-.066 0-.094-.002-.028 0-.04 0-.062-.002-.022 0-.058 0-.063h-.25zm2.313 0a.885.885 0 0 0-.282.032.511.511 0 0 0-.218.125.667.667 0 0 0-.157.25 1.291 1.291 0 0 0-.062.406c0 .275.065.454.188.593.123.14.296.22.53.22.106 0 .208-.01.282-.032a.672.672 0 0 0 .188-.094.523.523 0 0 0 .124-.125.553.553 0 0 0 .063-.125l-.219-.062a.405.405 0 0 1-.156.187.512.512 0 0 1-.281.063c-.078 0-.132-.035-.188-.063-.055-.028-.089-.044-.125-.093a.614.614 0 0 1-.093-.188.895.895 0 0 1-.032-.219h1.125v-.062c0-.12-.008-.21-.031-.313-.022-.102-.04-.206-.094-.281a.51.51 0 0 0-.218-.156.817.817 0 0 0-.344-.063zm1.468 0c-.055.011-.105.037-.156.063a.451.451 0 0 0-.125.093.633.633 0 0 0-.125.157c-.031.06-.045.136-.062.218a1.316 1.316 0 0 0-.032.282c0 .117.007.212.032.312.024.1.071.207.125.282.054.073.1.114.187.156.087.042.22.062.344.062a.71.71 0 0 0 .25-.031c.072-.028.106-.08.156-.125a.52.52 0 0 0 .125-.156.624.624 0 0 0 .063-.188h-.25a.316.316 0 0 1-.125.219c-.063.05-.157.063-.25.063-.075 0-.136-.001-.188-.032a.34.34 0 0 1-.125-.125.565.565 0 0 1-.062-.187c-.013-.076 0-.16 0-.25 0-.103-.013-.205 0-.282a.522.522 0 0 1 .062-.187c.032-.05.075-.1.125-.125a.417.417 0 0 1 .188-.031c.102 0 .194.042.25.093.055.052.08.1.093.188h.282a.643.643 0 0 0-.063-.188.538.538 0 0 0-.125-.156.583.583 0 0 0-.187-.093.608.608 0 0 0-.219-.032c-.057 0-.132-.011-.188 0zm1.907 0v1.594h.25v-1.594h-.25zm.656 0v.156c.001.033 0 .057 0 .094.001.036 0 .06 0 .094v1.25h.281v-.906c0-.08.012-.158.032-.219.019-.062.027-.115.062-.156a.335.335 0 0 1 .125-.094.504.504 0 0 1 .344 0 .17.17 0 0 1 .093.063.295.295 0 0 1 .063.125c.012.051 0 .11 0 .187v1h.281v-1.063a.929.929 0 0 0-.031-.25.343.343 0 0 0-.094-.156.355.355 0 0 0-.156-.093.66.66 0 0 0-.219-.032c-.068 0-.135-.014-.187 0-.052.014-.085.036-.125.063-.04.025-.095.056-.125.093-.03.038-.037.08-.063.125h-.031v-.062c-.001-.03.002-.066 0-.094v-.062-.063h-.25zm3.156 0a.885.885 0 0 0-.281.032c-.086.028-.186.06-.25.125-.064.064-.088.146-.125.25a1.291 1.291 0 0 0-.063.406c0 .275.066.454.188.593.123.14.297.22.531.22a.672.672 0 0 0 .438-.125.523.523 0 0 0 .125-.126c.03-.045.077-.08.093-.125l-.25-.062c-.024.07-.055.141-.124.187a.512.512 0 0 1-.282.063.536.536 0 0 1-.218-.063c-.056-.028-.09-.044-.126-.093a.614.614 0 0 1-.093-.188c-.017-.07 0-.136 0-.219h1.125v-.062c0-.12-.008-.21-.032-.313a.786.786 0 0 0-.124-.281.51.51 0 0 0-.22-.156.672.672 0 0 0-.312-.063zm1.032 0c0 .023-.001.066 0 .094 0 .028-.001.062 0 .094V24.125h.25v-.813c0-.079.018-.152.03-.218a.681.681 0 0 1 .063-.188.234.234 0 0 1 .094-.093c.043-.028.096-.063.156-.063.03 0 .07-.003.094 0 .023.002.045.026.063.031v-.25c-.011-.003-.043.003-.063 0-.02-.004-.041 0-.063 0-.055 0-.085-.014-.124 0-.04.014-.097.033-.126.063-.028.028-.04.08-.062.125a1.18 1.18 0 0 0-.063.156v-.063c0-.028.003-.063 0-.093 0-.03.003-.066 0-.094 0-.03.001-.071 0-.094h-.25zm2.656 0v1.063c0 .098.012.18.031.25.02.07.053.142.094.187a.355.355 0 0 0 .156.094.66.66 0 0 0 .406 0c.052-.014.085-.006.125-.031.04-.027.095-.057.125-.094s.037-.08.063-.125v.156c.002.028.03.041.031.063v.031h.25v-.031c0-.024.001-.062 0-.094 0-.033-.03-.058-.031-.094v-1.375h-.25v.938c0 .079-.012.157-.032.218a.47.47 0 0 1-.093.157.363.363 0 0 1-.281.125c-.062 0-.115-.019-.157-.032a.186.186 0 0 1-.093-.062.313.313 0 0 1-.063-.125c-.01-.052-.031-.11-.031-.188v-1.03h-.25zm1.656 0c0 .007.03.04.031.063v.093c.001.033 0 .057 0 .094.001.036 0 .06 0 .094v1.25h.25v-.906c0-.08.015-.158.032-.219.017-.062.03-.115.062-.156a.355.355 0 0 1 .281-.125c.054 0 .088.017.125.031.037.013.072.03.094.063a.307.307 0 0 1 .063.125c.01.051 0 .11 0 .187v1h.25v-.906c0-.081.014-.157.03-.219.018-.062.063-.115.094-.156.033-.041.05-.073.094-.094a.37.37 0 0 1 .157-.031c.053 0 .087.017.124.031.038.013.072.03.094.063a.307.307 0 0 1 .063.125c.01.051 0 .11 0 .187v1H57v-1.063c0-.097-.014-.18-.031-.25-.018-.07-.057-.11-.094-.156a.263.263 0 0 0-.125-.093.667.667 0 0 0-.219-.032c-.062 0-.107-.014-.156 0a.417.417 0 0 0-.125.063c-.04.025-.096.056-.125.093-.03.038-.04.08-.063.125a.366.366 0 0 0-.156-.218c-.07-.048-.16-.063-.281-.063-.063 0-.14-.014-.188 0a.417.417 0 0 0-.218.157c-.028.037-.04.079-.063.125v-.063c0-.03.002-.066 0-.094v-.062c0-.022-.03-.058-.031-.063h-.25zm3.156 0l.594 1.594h.313l.562-1.594h-.25l-.375 1.063c-.008.021-.02.031-.031.062l-.032.094-.03.094c-.01.03.005.073 0 .093-.007-.02-.023-.063-.032-.093-.008-.032-.021-.06-.031-.094-.01-.033-.022-.063-.032-.094-.008-.031-.024-.072-.03-.093l-.344-1.032h-.282zm2.344 0a.885.885 0 0 0-.281.032.511.511 0 0 0-.219.125.667.667 0 0 0-.156.25 1.291 1.291 0 0 0-.063.406c0 .275.066.454.188.593.123.14.297.22.531.22.105 0 .207-.01.281-.032a.672.672 0 0 0 .188-.094c.05-.036.064-.08.093-.125.03-.045.078-.08.094-.125l-.25-.062c-.024.07-.055.141-.125.187a.512.512 0 0 1-.281.063.536.536 0 0 1-.219-.063c-.055-.028-.089-.044-.125-.093-.035-.051-.045-.119-.062-.188a.895.895 0 0 1-.032-.219h1.126v-.062c0-.12-.008-.21-.032-.313a.786.786 0 0 0-.125-.281.51.51 0 0 0-.218-.156.672.672 0 0 0-.313-.063zm1.563 0c-.198 0-.334.018-.438.094a.412.412 0 0 0-.156.344c0 .075 0 .137.031.187.031.05.075.091.125.125.05.033.125.042.188.063.062.02.124.046.187.062.068.019.13.047.188.063.057.014.084.042.124.062.04.02.072.032.094.063.023.03.063.077.063.125a.25.25 0 0 1-.032.125c-.018.031-.06.043-.093.062-.034.019-.077.024-.125.032-.047.007-.1.03-.157.03a.556.556 0 0 1-.28-.062.315.315 0 0 1-.157-.187l-.219.031a.537.537 0 0 0 .094.188c.038.05.07.093.125.125a.589.589 0 0 0 .188.062 1.163 1.163 0 0 0 .531 0 .545.545 0 0 0 .187-.094c.055-.04.097-.067.125-.125a.537.537 0 0 0 .063-.218.449.449 0 0 0-.032-.157c-.015-.043-.035-.061-.062-.093-.027-.033-.057-.072-.094-.094a.747.747 0 0 0-.125-.063c-.04-.017-.08-.02-.125-.031-.044-.013-.083-.02-.125-.031-.063-.016-.135-.05-.187-.063-.053-.014-.087-.012-.125-.031-.037-.02-.073-.066-.094-.094a.14.14 0 0 1-.031-.093c0-.074.037-.12.093-.157a.44.44 0 0 1 .25-.062c.045 0 .084-.008.126 0 .041.007.091.045.124.062.034.017.07.034.094.063.024.027.023.052.032.093l.25-.03a.383.383 0 0 0-.188-.282.892.892 0 0 0-.438-.094zm1.78 0v1.594H64v-1.594h-.281zm2.344 0v1.063c0 .098.013.18.032.25.02.07.052.142.094.187a.355.355 0 0 0 .156.094.66.66 0 0 0 .406 0c.052-.014.085-.006.125-.031.04-.027.095-.057.125-.094s.037-.08.063-.125v.156c.001.028.03.041.03.063.002.021 0 .026 0 .031h.25c0-.007.002-.008 0-.031 0-.024.002-.062 0-.094 0-.033-.03-.058-.03-.094v-1.375h-.25v.938c0 .079-.012.157-.032.218a.47.47 0 0 1-.094.157.363.363 0 0 1-.281.125c-.061 0-.114-.019-.156-.032a.186.186 0 0 1-.094-.062.313.313 0 0 1-.062-.125c-.011-.052-.031-.11-.031-.188v-1.03h-.25zm2.344 0v1.063c0 .098.013.18.031.25.02.07.053.142.094.187a.355.355 0 0 0 .156.094.66.66 0 0 0 .407 0c.052-.014.085-.006.125-.031.04-.027.063-.057.094-.094.03-.037.068-.08.093-.125v.156c.002.028 0 .041 0 .063.001.021.03.026.031.031h.25c0-.007-.03-.008-.03-.031-.002-.024 0-.062 0-.094-.002-.033 0-.058 0-.094v-1.375h-.25v.938c0 .079-.012.157-.032.218a.47.47 0 0 1-.094.157.363.363 0 0 1-.281.125c-.062 0-.114-.019-.156-.032a.186.186 0 0 1-.094-.062.313.313 0 0 1-.063-.125c-.01-.052-.03-.11-.03-.188v-1.03h-.25zm1.656 0v.156c.002.033.032.057.032.094v1.344h.25v-.906c0-.08.014-.158.031-.219.018-.062.031-.115.063-.156a.355.355 0 0 1 .281-.125c.053 0 .088.017.125.031.037.013.071.03.094.063.023.03.02.073.03.125.01.051.032.11.032.187v1h.25v-.906c0-.081.015-.157.031-.219.018-.062.031-.115.063-.156a.343.343 0 0 1 .125-.094.37.37 0 0 1 .156-.031c.054 0 .088.017.125.031.037.013.071.03.094.063a.307.307 0 0 1 .062.125c.01.051 0 .11 0 .187v1h.281v-1.063c0-.097-.013-.18-.03-.25-.018-.07-.057-.11-.094-.156a.263.263 0 0 0-.126-.093.667.667 0 0 0-.218-.032c-.063 0-.108-.014-.156 0a.615.615 0 0 0-.157.063.388.388 0 0 0-.094.093c-.029.038-.039.08-.062.125h-.031c-.028-.104-.055-.17-.125-.218-.07-.048-.161-.063-.281-.063-.063 0-.14-.014-.188 0a.417.417 0 0 0-.219.157c-.027.037-.039.079-.062.125v-.063c-.001-.03-.03-.066-.031-.094v-.125h-.25zm4 0v1.594h.282v-1.594h-.281zm3 0a.885.885 0 0 0-.28.032.511.511 0 0 0-.22.125.667.667 0 0 0-.156.25 1.292 1.292 0 0 0-.062.406c0 .275.065.454.187.593.123.14.297.22.531.22.106 0 .208-.01.282-.032a.672.672 0 0 0 .187-.094c.05-.036.065-.08.094-.125.03-.045.077-.08.094-.125l-.25-.062c-.025.07-.056.141-.125.187a.512.512 0 0 1-.281.063.536.536 0 0 1-.22-.063c-.055-.028-.088-.044-.124-.093-.035-.051-.045-.119-.063-.188a.895.895 0 0 1-.031-.219h1.125v-.062c0-.12-.008-.21-.031-.313a.786.786 0 0 0-.125-.281.51.51 0 0 0-.219-.156.672.672 0 0 0-.313-.063zm1.032 0c0 .023-.001.066 0 .094 0 .028-.001.062 0 .094V24.125h.25v-.813c0-.079.018-.152.031-.218a.681.681 0 0 1 .063-.188.234.234 0 0 1 .093-.093c.043-.028.096-.063.156-.063.03 0 .07-.003.094 0 .024.002.045.026.063.031v-.25c-.011-.003-.043.003-.063 0-.02-.004-.04 0-.062 0-.056 0-.086-.014-.125 0-.04.014-.097.033-.125.063-.029.028-.041.08-.063.125a1.18 1.18 0 0 0-.062.156v-.063c0-.028.002-.063 0-.093-.001-.03.002-.066 0-.094-.001-.03 0-.071 0-.094h-.25zm1.625 0c-.474 0-.719.266-.719.813 0 .14.031.24.063.343.032.103.065.213.124.282.061.068.132.123.22.156.086.033.201.031.312.031.232 0 .409-.052.531-.187.122-.136.187-.348.188-.625a1.48 1.48 0 0 0-.063-.375.621.621 0 0 0-.125-.25.52.52 0 0 0-.219-.157c-.089-.034-.19-.03-.312-.03zM39 22.72c.066 0 .135.011.188.031a.25.25 0 0 1 .124.094.476.476 0 0 1 .094.187c.02.08.032.19.032.313s-.011.231-.032.312a.482.482 0 0 1-.093.188.256.256 0 0 1-.126.093.594.594 0 0 1-.374 0 .274.274 0 0 1-.126-.093.518.518 0 0 1-.093-.188 1.28 1.28 0 0 1-.032-.312c0-.12.012-.233.032-.313.02-.08.055-.14.093-.187a.254.254 0 0 1 .126-.094.543.543 0 0 1 .187-.031zm3.188 0c.048-.015.112 0 .156 0 .132 0 .242.016.312.093s.11.209.125.375h-.875c.004-.095.034-.157.063-.218.028-.063.052-.12.093-.157.042-.036.078-.08.126-.093zm7.187 0c.049-.015.081 0 .125 0 .132 0 .242.016.313.093.07.077.11.209.124.375h-.843c.004-.095.003-.157.031-.218a.51.51 0 0 1 .125-.157c.041-.036.077-.08.125-.093zm2.75 0c.068 0 .136.01.188.031.052.02.088.046.124.094.037.048.076.11.094.187.019.077.032.17.032.282 0 .117-.013.231-.032.312a.504.504 0 0 1-.093.188c-.036.05-.072.102-.126.125a.487.487 0 0 1-.187.03c-.067 0-.11-.038-.156-.062-.047-.023-.095-.044-.125-.093a.535.535 0 0 1-.063-.188c-.013-.078-.031-.172-.031-.281 0-.114.017-.202.031-.282.016-.08.032-.168.063-.218.031-.05.078-.072.125-.094a.336.336 0 0 1 .156-.031zm8.094 0c.049-.015.08 0 .125 0 .132 0 .242.016.312.093s.11.209.125.375h-.843c.003-.095.002-.157.03-.218a.51.51 0 0 1 .126-.157c.04-.036.077-.08.125-.093zm4.875 0c.067 0 .11.008.156.031a.34.34 0 0 1 .125.125c.03.05.049.11.063.188.013.078.03.171.03.28 0 .114-.015.202-.03.282a.521.521 0 0 1-.063.188.348.348 0 0 1-.125.125.336.336 0 0 1-.156.03.531.531 0 0 1-.188-.03.268.268 0 0 1-.125-.094.535.535 0 0 1-.094-.188 1.486 1.486 0 0 1-.03-.312c0-.117.012-.2.03-.282.02-.08.06-.137.094-.187.036-.05.073-.103.125-.125a.49.49 0 0 1 .188-.031zm10.344 0c.067 0 .109.008.156.031a.34.34 0 0 1 .125.125c.03.05.049.11.062.188.014.078.031.171.031.28 0 .114-.015.202-.03.282a.521.521 0 0 1-.063.188.348.348 0 0 1-.125.125.336.336 0 0 1-.156.03.531.531 0 0 1-.188-.03.268.268 0 0 1-.125-.094.535.535 0 0 1-.094-.188 1.486 1.486 0 0 1-.031-.312c0-.117.013-.2.031-.282.019-.08.059-.137.094-.187.036-.05.072-.103.125-.125a.49.49 0 0 1 .188-.031zm1.468 0c.05-.015.081 0 .125 0 .132 0 .242.016.313.093.07.077.11.209.125.375h-.844c.004-.095.003-.157.031-.218a.51.51 0 0 1 .125-.157c.041-.036.077-.08.125-.093zm2.813 0c.066 0 .135.011.187.031a.25.25 0 0 1 .125.094.476.476 0 0 1 .094.187c.02.08.031.19.031.313s-.01.231-.031.312a.482.482 0 0 1-.094.188.256.256 0 0 1-.125.093.594.594 0 0 1-.375 0 .274.274 0 0 1-.125-.093.518.518 0 0 1-.094-.188 1.28 1.28 0 0 1-.03-.312c0-.12.011-.233.03-.313.021-.08.056-.14.094-.187a.254.254 0 0 1 .125-.094.543.543 0 0 1 .188-.031zm1.125 1.093v.313h.281v-.313h-.281z" style="text-align:start;line-height:133.00000429%;-inkscape-font-specification:Liberation Sans" font-size="3" font-weight="400" font-family="Liberation Sans"/><path d="M56 52a12 12 0 1 1-8.894-11.591L44 52z" transform="matrix(1.33333 0 0 1.33333 -10.667 -13.333)" style="marker:none" color="#000" fill="url(#w)" overflow="visible" enable-background="accumulate"/><path d="M56 52a12 12 0 0 1-8.894 11.591L44 52z" transform="scale(1.33333) rotate(-75 33.33 49.377)" style="marker:none" color="#000" fill="url(#x)" overflow="visible" enable-background="accumulate"/><path d="M51.906 40.469L48 55h.281l3.875-14.469c-.082-.022-.167-.041-.25-.062zM32.031 55.5c-.005.169-.031.33-.031.5 0 8.837 7.163 16 16 16s16-7.163 16-16h-.063c-.522 8.365-7.44 15-15.937 15-8.667 0-15.7-6.899-15.969-15.5z" style="marker:none" color="#000" fill="#c83737" overflow="visible" enable-background="accumulate"/><path d="M51.781 52l-.281 1h16c0-.337-.01-.668-.031-1H51.78z" style="marker:none" color="#000" fill="#ff7f2a" overflow="visible" enable-background="accumulate"/><g style="text-align:center;line-height:160.00000238%;-inkscape-font-specification:Liberation Sans" font-size="2" font-weight="400" text-anchor="middle" font-family="Liberation Sans"><path d="M70.482 47.45v-1.377h1.044v.153h-.857v.441h.799v.15h-.8v.48h.898v.152h-1.084M72.195 47.441a.67.67 0 0 1-.177.024c-.141 0-.211-.08-.211-.24v-.705h-.122v-.127h.128l.052-.237h.117v.237h.196v.127h-.196v.667c0 .051.009.087.025.108.017.02.046.03.087.03a.297.297 0 0 0 .049-.004c.016-.002.033-.006.052-.01v.13M72.343 46.168V46h.176v.168h-.176m0 1.281v-1.056h.176v1.056h-.176M73.059 47.469c-.107 0-.186-.028-.24-.084a.32.32 0 0 1-.08-.23.298.298 0 0 1 .143-.276.436.436 0 0 1 .146-.054c.055-.01.11-.015.167-.016l.238-.004v-.058a.396.396 0 0 0-.014-.111.172.172 0 0 0-.042-.074.165.165 0 0 0-.071-.041.324.324 0 0 0-.1-.014.494.494 0 0 0-.092.008.187.187 0 0 0-.071.026.139.139 0 0 0-.049.052.214.214 0 0 0-.024.082l-.184-.017a.362.362 0 0 1 .037-.114.27.27 0 0 1 .077-.09.37.37 0 0 1 .126-.06.683.683 0 0 1 .184-.02c.133 0 .233.03.3.09.067.061.1.15.1.265v.455c0 .052.007.091.02.118.015.026.04.039.079.039a.214.214 0 0 0 .058-.007v.11a.597.597 0 0 1-.136.015.259.259 0 0 1-.086-.013.141.141 0 0 1-.058-.04.189.189 0 0 1-.034-.066.414.414 0 0 1-.015-.093h-.005a.597.597 0 0 1-.063.092.336.336 0 0 1-.18.114.494.494 0 0 1-.131.016m.04-.132a.324.324 0 0 0 .313-.214.318.318 0 0 0 .02-.108v-.087l-.192.004a.917.917 0 0 0-.123.01.286.286 0 0 0-.101.032.186.186 0 0 0-.07.068.229.229 0 0 0-.026.115c0 .058.015.102.046.133.031.031.075.047.133.047M74.518 47.45v-.67a.713.713 0 0 0-.01-.13.198.198 0 0 0-.033-.083.117.117 0 0 0-.06-.045.265.265 0 0 0-.191.01.212.212 0 0 0-.078.063.307.307 0 0 0-.048.102.53.53 0 0 0-.017.14v.612h-.175v-.83a2.57 2.57 0 0 0-.002-.14 3.832 3.832 0 0 0-.004-.086h.166c0 .003.002.012.002.026a6.168 6.168 0 0 1 .006.154h.003a.599.599 0 0 1 .05-.083.275.275 0 0 1 .148-.102.376.376 0 0 1 .11-.015c.08 0 .144.016.19.048.047.032.08.083.098.152h.003a.501.501 0 0 1 .052-.083.3.3 0 0 1 .156-.103.386.386 0 0 1 .112-.014c.053 0 .1.007.138.022a.22.22 0 0 1 .095.066c.025.03.043.069.055.116a.7.7 0 0 1 .018.168v.704h-.174v-.67a.713.713 0 0 0-.01-.129.198.198 0 0 0-.033-.083.117.117 0 0 0-.06-.045.265.265 0 0 0-.09-.013.23.23 0 0 0-.101.021.206.206 0 0 0-.077.062.306.306 0 0 0-.05.102.55.55 0 0 0-.016.143v.612h-.174M76.26 46.958c0 .055.005.106.016.153.012.047.03.087.053.12a.254.254 0 0 0 .226.106.323.323 0 0 0 .182-.046.228.228 0 0 0 .094-.116l.154.044a.435.435 0 0 1-.047.089.318.318 0 0 1-.079.08.446.446 0 0 1-.125.058.626.626 0 0 1-.18.023c-.156 0-.275-.047-.357-.14-.081-.093-.122-.231-.122-.415 0-.099.013-.183.037-.25a.446.446 0 0 1 .102-.169.377.377 0 0 1 .15-.093.565.565 0 0 1 .184-.029c.088 0 .162.014.222.043.06.029.107.068.143.12.037.05.062.109.077.177a.994.994 0 0 1 .024.222v.023h-.754m.572-.135c-.01-.111-.038-.192-.085-.243-.047-.051-.114-.077-.202-.077-.03 0-.06.005-.093.015a.229.229 0 0 0-.089.05.287.287 0 0 0-.069.098.42.42 0 0 0-.032.157h.57M77.645 47.441a.67.67 0 0 1-.178.024c-.14 0-.211-.08-.211-.24v-.705h-.122v-.127h.129l.051-.237h.118v.237h.195v.127h-.195v.667c0 .051.008.087.024.108.017.02.046.03.087.03a.297.297 0 0 0 .049-.004c.016-.002.034-.006.053-.01v.13M78.963 47.45v-.67a.713.713 0 0 0-.01-.13.198.198 0 0 0-.033-.083.117.117 0 0 0-.06-.045.265.265 0 0 0-.191.01.212.212 0 0 0-.077.063.307.307 0 0 0-.05.102.53.53 0 0 0-.016.14v.612h-.174v-.83a2.57 2.57 0 0 0-.002-.14 3.818 3.818 0 0 0-.004-.086h.166l.002.026a6.214 6.214 0 0 1 .005.154h.003a.598.598 0 0 1 .051-.083.275.275 0 0 1 .148-.102.376.376 0 0 1 .11-.015c.08 0 .143.016.19.048.046.032.079.083.097.152h.003a.502.502 0 0 1 .053-.083.3.3 0 0 1 .156-.103.386.386 0 0 1 .111-.014c.054 0 .1.007.138.022a.22.22 0 0 1 .096.066c.024.03.043.069.054.116a.7.7 0 0 1 .018.168v.704h-.174v-.67a.713.713 0 0 0-.01-.129.198.198 0 0 0-.033-.083.117.117 0 0 0-.06-.045.265.265 0 0 0-.09-.013.23.23 0 0 0-.1.021.206.206 0 0 0-.078.062.307.307 0 0 0-.049.102.55.55 0 0 0-.016.143v.612h-.174M80.285 47.469c-.106 0-.186-.028-.24-.084a.32.32 0 0 1-.08-.23.298.298 0 0 1 .143-.276.436.436 0 0 1 .147-.054c.055-.01.11-.015.167-.016l.237-.004v-.058a.396.396 0 0 0-.013-.111.172.172 0 0 0-.042-.074.165.165 0 0 0-.072-.041.323.323 0 0 0-.1-.014.494.494 0 0 0-.091.008.187.187 0 0 0-.071.026.139.139 0 0 0-.05.052.214.214 0 0 0-.024.082l-.183-.017a.362.362 0 0 1 .037-.114.27.27 0 0 1 .077-.09.37.37 0 0 1 .126-.06.683.683 0 0 1 .184-.02c.132 0 .232.03.3.09.066.061.1.15.1.265v.455c0 .052.007.091.02.118.014.026.04.039.079.039a.214.214 0 0 0 .057-.007v.11a.597.597 0 0 1-.136.015.259.259 0 0 1-.086-.013.141.141 0 0 1-.057-.04.189.189 0 0 1-.034-.066.414.414 0 0 1-.015-.093h-.006a.597.597 0 0 1-.062.092.336.336 0 0 1-.181.114.494.494 0 0 1-.13.016m.04-.132a.324.324 0 0 0 .313-.214.318.318 0 0 0 .02-.108v-.087l-.192.004a.917.917 0 0 0-.123.01.286.286 0 0 0-.102.032.186.186 0 0 0-.07.068.229.229 0 0 0-.026.115c0 .058.016.102.046.133.032.031.076.047.133.047M81.3 46.393v.67a.65.65 0 0 0 .012.128c.007.035.02.063.037.084a.14.14 0 0 0 .066.045.361.361 0 0 0 .216-.008.239.239 0 0 0 .086-.064.293.293 0 0 0 .055-.102.465.465 0 0 0 .02-.141v-.612h.176v.83a823.277 823.277 0 0 0 .002.14 3.946 3.946 0 0 0 .004.086h-.166a1.915 1.915 0 0 0-.005-.075l-.002-.057-.001-.048h-.003a.56.56 0 0 1-.056.083.31.31 0 0 1-.07.063.325.325 0 0 1-.092.04.441.441 0 0 1-.12.014.475.475 0 0 1-.151-.022.245.245 0 0 1-.165-.181.67.67 0 0 1-.019-.17v-.703h.177M82.246 47.45v-.811a2.36 2.36 0 0 0-.002-.135 9.066 9.066 0 0 0-.004-.111h.166a7.061 7.061 0 0 1 .008.215h.004a.812.812 0 0 1 .039-.104.262.262 0 0 1 .05-.073.171.171 0 0 1 .067-.043.27.27 0 0 1 .136-.011.277.277 0 0 1 .03.006v.161a.42.42 0 0 0-.094-.01c-.04 0-.074.01-.103.028a.213.213 0 0 0-.07.076.386.386 0 0 0-.038.115.772.772 0 0 0-.013.146v.55h-.176M82.91 46.168V46h.175v.168h-.176m0 1.281v-1.056h.176v1.056h-.176M84.148 47.157c0 .05-.01.094-.029.133a.265.265 0 0 1-.083.098.415.415 0 0 1-.135.06.862.862 0 0 1-.348.006.418.418 0 0 1-.128-.045.299.299 0 0 1-.149-.208l.156-.03a.194.194 0 0 0 .092.125c.047.026.112.039.196.039a.633.633 0 0 0 .103-.008.258.258 0 0 0 .082-.026.141.141 0 0 0 .053-.051.15.15 0 0 0 .02-.08.128.128 0 0 0-.023-.077.171.171 0 0 0-.062-.052.47.47 0 0 0-.098-.035l-.125-.034a2.147 2.147 0 0 1-.126-.037.478.478 0 0 1-.113-.054.285.285 0 0 1-.081-.084.231.231 0 0 1-.032-.125c0-.096.035-.17.103-.22a.503.503 0 0 1 .3-.076c.117 0 .21.02.278.062a.28.28 0 0 1 .13.197l-.157.02a.152.152 0 0 0-.033-.069.173.173 0 0 0-.056-.045.243.243 0 0 0-.075-.024.46.46 0 0 0-.086-.008.334.334 0 0 0-.176.036.121.121 0 0 0-.057.11c0 .028.007.052.02.07a.179.179 0 0 0 .06.047.536.536 0 0 0 .09.034l.116.029.086.023a.62.62 0 0 1 .163.07.244.244 0 0 1 .107.13.275.275 0 0 1 .017.1M71.528 50.65h-.208l-.383-1.057h.187l.232.687.016.053a2.593 2.593 0 0 1 .037.128c.006.02.01.037.015.05a13.358 13.358 0 0 1 .054-.176l.018-.053.24-.69h.187l-.395 1.057M72.2 50.158c0 .055.005.106.016.153.012.047.03.087.053.12a.254.254 0 0 0 .225.106.323.323 0 0 0 .183-.046.228.228 0 0 0 .094-.116l.154.044a.435.435 0 0 1-.047.089.318.318 0 0 1-.08.08.446.446 0 0 1-.124.058.626.626 0 0 1-.18.023c-.156 0-.275-.047-.357-.14-.082-.093-.122-.231-.122-.415 0-.099.012-.183.037-.25a.446.446 0 0 1 .101-.169.377.377 0 0 1 .15-.093.565.565 0 0 1 .184-.029c.089 0 .163.014.222.043.06.029.108.068.144.12.036.05.062.109.077.177a.994.994 0 0 1 .023.222v.023H72.2m.572-.135c-.01-.111-.038-.192-.084-.243-.047-.051-.115-.077-.203-.077-.029 0-.06.005-.092.015a.229.229 0 0 0-.09.05.287.287 0 0 0-.069.098.42.42 0 0 0-.032.157h.57M73.97 50.357c0 .05-.01.094-.029.133a.265.265 0 0 1-.083.098.415.415 0 0 1-.134.06.862.862 0 0 1-.348.006.418.418 0 0 1-.129-.045.299.299 0 0 1-.148-.208l.155-.03a.194.194 0 0 0 .093.125c.047.026.112.039.195.039a.633.633 0 0 0 .103-.008.258.258 0 0 0 .083-.026.141.141 0 0 0 .052-.051.15.15 0 0 0 .02-.08.128.128 0 0 0-.023-.077.171.171 0 0 0-.062-.052.47.47 0 0 0-.098-.035l-.125-.034a2.147 2.147 0 0 1-.126-.037.478.478 0 0 1-.113-.054.285.285 0 0 1-.081-.084.231.231 0 0 1-.031-.125c0-.096.034-.17.102-.22a.503.503 0 0 1 .3-.076c.117 0 .21.02.278.062a.28.28 0 0 1 .131.197l-.158.02a.152.152 0 0 0-.032-.069.173.173 0 0 0-.057-.045.243.243 0 0 0-.075-.024.46.46 0 0 0-.086-.008.334.334 0 0 0-.176.036.121.121 0 0 0-.056.11c0 .028.006.052.02.07a.179.179 0 0 0 .059.047.536.536 0 0 0 .09.034l.117.029.086.023a.62.62 0 0 1 .163.07.244.244 0 0 1 .107.13.275.275 0 0 1 .017.1M74.584 50.641a.67.67 0 0 1-.178.024c-.14 0-.21-.08-.21-.24v-.705h-.123v-.127h.13l.05-.237h.118v.237h.195v.127h-.195v.667c0 .051.008.087.025.108.016.02.045.03.086.03a.297.297 0 0 0 .05-.004c.016-.002.033-.006.052-.01v.13M74.731 49.368V49.2h.176v.168h-.176m0 1.281v-1.056h.176v1.056h-.176M76.071 50.116c0 .369-.13.553-.388.553a.42.42 0 0 1-.2-.043.324.324 0 0 1-.13-.14h-.001l-.002.052a1.08 1.08 0 0 1-.008.111h-.17a.575.575 0 0 0 .004-.08 1.95 1.95 0 0 0 .002-.138V49.2h.176v.413a1.588 1.588 0 0 1-.002.104l-.002.045h.003a.313.313 0 0 1 .13-.145.416.416 0 0 1 .2-.044c.133 0 .231.045.294.135.063.09.094.226.094.408m-.184.006a1.11 1.11 0 0 0-.014-.188.368.368 0 0 0-.044-.128.187.187 0 0 0-.077-.074.317.317 0 0 0-.237-.001.21.21 0 0 0-.09.073.368.368 0 0 0-.053.13.904.904 0 0 0-.019.199.83.83 0 0 0 .019.19c.012.052.03.093.054.126a.209.209 0 0 0 .089.07.333.333 0 0 0 .232-.003.188.188 0 0 0 .078-.072.369.369 0 0 0 .046-.129c.01-.053.016-.118.016-.193M76.463 49.593v.67a.65.65 0 0 0 .01.128c.008.035.02.063.038.084a.14.14 0 0 0 .066.045.361.361 0 0 0 .216-.008.239.239 0 0 0 .086-.064.293.293 0 0 0 .056-.102.465.465 0 0 0 .02-.141v-.612h.175v.83a823.277 823.277 0 0 0 .002.14 3.946 3.946 0 0 0 .004.086h-.166a1.915 1.915 0 0 0-.005-.075l-.002-.057-.001-.048h-.003a.56.56 0 0 1-.056.083.31.31 0 0 1-.07.063.325.325 0 0 1-.092.04.442.442 0 0 1-.12.014.475.475 0 0 1-.151-.022.245.245 0 0 1-.165-.181.669.669 0 0 1-.019-.17v-.703h.177M77.404 50.65V49.2h.176v1.45h-.176M78.021 49.593v.67a.65.65 0 0 0 .011.128c.008.035.02.063.037.084a.14.14 0 0 0 .067.045.361.361 0 0 0 .216-.008.239.239 0 0 0 .086-.064.293.293 0 0 0 .055-.102.465.465 0 0 0 .02-.141v-.612h.175v.83a823.277 823.277 0 0 0 .002.14 3.961 3.961 0 0 0 .004.086h-.166a1.915 1.915 0 0 0-.005-.075l-.001-.057-.001-.048h-.003a.56.56 0 0 1-.056.083.31.31 0 0 1-.07.063.325.325 0 0 1-.092.04.441.441 0 0 1-.12.014.475.475 0 0 1-.152-.022.245.245 0 0 1-.165-.181.67.67 0 0 1-.018-.17v-.703h.177M79.578 50.65v-.67a.713.713 0 0 0-.01-.13.198.198 0 0 0-.033-.083.117.117 0 0 0-.06-.045.265.265 0 0 0-.19.01.212.212 0 0 0-.078.063.307.307 0 0 0-.049.102.53.53 0 0 0-.016.14v.612h-.175v-.83a2.575 2.575 0 0 0-.002-.14 3.813 3.813 0 0 0-.004-.086h.166l.002.026a6.168 6.168 0 0 1 .006.154h.003a.599.599 0 0 1 .05-.083.275.275 0 0 1 .148-.102.376.376 0 0 1 .11-.015c.08 0 .143.016.19.048.047.032.08.083.097.152h.003a.501.501 0 0 1 .053-.083.3.3 0 0 1 .156-.103.386.386 0 0 1 .112-.014c.053 0 .099.007.137.022a.22.22 0 0 1 .096.066c.025.03.043.069.055.116a.7.7 0 0 1 .017.168v.704h-.174v-.67a.713.713 0 0 0-.01-.129.198.198 0 0 0-.033-.083.117.117 0 0 0-.06-.045.265.265 0 0 0-.09-.013.23.23 0 0 0-.1.021.206.206 0 0 0-.078.062.306.306 0 0 0-.049.102.55.55 0 0 0-.016.143v.612h-.174M81.32 50.158c0 .055.006.106.017.153.012.047.03.087.053.12a.254.254 0 0 0 .225.106.323.323 0 0 0 .183-.046.228.228 0 0 0 .094-.116l.154.044a.435.435 0 0 1-.047.089.318.318 0 0 1-.08.08.446.446 0 0 1-.124.058.626.626 0 0 1-.18.023c-.156 0-.275-.047-.357-.14-.082-.093-.122-.231-.122-.415 0-.099.012-.183.037-.25a.446.446 0 0 1 .101-.169.377.377 0 0 1 .15-.093.565.565 0 0 1 .184-.029c.089 0 .163.014.222.043.06.029.108.068.144.12.036.05.062.109.077.177a.994.994 0 0 1 .023.222v.023h-.754m.573-.135c-.01-.111-.039-.192-.085-.243-.047-.051-.115-.077-.203-.077-.029 0-.06.005-.092.015a.229.229 0 0 0-.09.05.287.287 0 0 0-.069.098.42.42 0 0 0-.032.157h.57M82.299 50.65V49.2h.176v1.45h-.176M82.743 49.368V49.2h.176v.168h-.176m0 1.281v-1.056h.176v1.056h-.176M83.596 50.641a.67.67 0 0 1-.178.024c-.14 0-.211-.08-.211-.24v-.705h-.122v-.127h.129l.052-.237h.117v.237h.195v.127h-.195v.667c0 .051.008.087.024.108.017.02.046.03.087.03a.297.297 0 0 0 .049-.004c.016-.002.034-.006.053-.01v.13"/></g><g style="text-align:start;line-height:125%;-inkscape-font-specification:Abandoned Bitplane Bold" font-size="4" font-weight="700" font-family="Liberation Sans"><path d="M71.139 43v-.38c.062-.138.138-.26.228-.37.09-.11.184-.212.281-.303.1-.092.197-.177.293-.256.098-.079.185-.155.262-.228a1.25 1.25 0 0 0 .19-.223.427.427 0 0 0 .072-.236c0-.122-.03-.213-.092-.272-.061-.058-.151-.087-.27-.087-.117 0-.207.031-.269.095a.496.496 0 0 0-.12.283l-.552-.03c.013-.109.04-.21.08-.306a.753.753 0 0 1 .172-.25.793.793 0 0 1 .281-.167c.114-.042.248-.063.405-.063.148 0 .28.018.394.053.115.034.211.084.29.15a.64.64 0 0 1 .177.244c.04.095.06.204.06.326a.787.787 0 0 1-.076.35c-.05.104-.116.2-.195.29-.08.086-.168.168-.266.245l-.28.225a3.276 3.276 0 0 0-.25.22.767.767 0 0 0-.167.239h1.277V43H71.14M73.479 43v-.408h.681v-1.877l-.66.412v-.432l.69-.447h.519v2.344h.63V43h-1.86M75.725 43v-.596h.564V43h-.564M78.676 42.084c0 .138-.022.266-.067.383a.832.832 0 0 1-.513.502 1.26 1.26 0 0 1-.44.07 1.33 1.33 0 0 1-.402-.055.758.758 0 0 1-.477-.387 1.002 1.002 0 0 1-.091-.285l.548-.044c.01.043.025.084.043.125.02.04.047.076.08.107a.397.397 0 0 0 .125.076c.05.018.11.028.18.028a.423.423 0 0 0 .326-.131c.082-.088.123-.213.123-.377a.586.586 0 0 0-.03-.198.417.417 0 0 0-.087-.15.356.356 0 0 0-.137-.096.476.476 0 0 0-.183-.033.431.431 0 0 0-.225.053.534.534 0 0 0-.148.125h-.535l.095-1.549h1.655v.408h-1.157l-.045.696a.744.744 0 0 1 .498-.176c.136 0 .257.022.364.066a.77.77 0 0 1 .441.473c.04.11.059.234.059.369M83.35 42.156c0 .163-.019.3-.055.412a.74.74 0 0 1-.149.272.543.543 0 0 1-.22.146.785.785 0 0 1-.268.045.814.814 0 0 1-.273-.045.546.546 0 0 1-.219-.146.757.757 0 0 1-.146-.272 1.39 1.39 0 0 1-.053-.412c0-.172.017-.314.053-.426a.7.7 0 0 1 .148-.27.494.494 0 0 1 .22-.14.91.91 0 0 1 .544 0 .482.482 0 0 1 .216.14.682.682 0 0 1 .147.27c.036.112.055.254.055.426M80.977 43h-.403l1.797-2.752h.408L80.977 43m-.282-2.783c.094 0 .183.013.266.04a.503.503 0 0 1 .219.14.7.7 0 0 1 .148.269c.037.112.055.254.055.426 0 .163-.018.3-.055.412a.724.724 0 0 1-.15.271.535.535 0 0 1-.221.149.808.808 0 0 1-.271.045.802.802 0 0 1-.27-.045.546.546 0 0 1-.219-.147.757.757 0 0 1-.146-.271 1.399 1.399 0 0 1-.053-.414c0-.172.018-.314.053-.426a.682.682 0 0 1 .146-.27.501.501 0 0 1 .221-.138.91.91 0 0 1 .277-.041m2.235 1.94c0-.114-.006-.208-.018-.282a.562.562 0 0 0-.049-.176.198.198 0 0 0-.082-.092.232.232 0 0 0-.115-.027c-.048 0-.09.01-.125.027a.194.194 0 0 0-.084.092.62.62 0 0 0-.05.178c-.011.074-.016.167-.016.28 0 .109.005.2.015.273a.58.58 0 0 0 .05.174.217.217 0 0 0 .085.093.252.252 0 0 0 .121.028.208.208 0 0 0 .197-.12.575.575 0 0 0 .053-.175 1.77 1.77 0 0 0 .018-.274m-1.971-1.064c0-.112-.006-.205-.018-.278a.561.561 0 0 0-.048-.175.198.198 0 0 0-.082-.092.232.232 0 0 0-.116-.027c-.048 0-.09.009-.125.027a.203.203 0 0 0-.086.094.594.594 0 0 0-.05.175c-.01.073-.016.165-.016.276 0 .11.005.2.016.273a.618.618 0 0 0 .05.176.23.23 0 0 0 .086.096.252.252 0 0 0 .121.027c.045 0 .083-.009.116-.027a.206.206 0 0 0 .084-.094.544.544 0 0 0 .05-.176c.012-.074.018-.166.018-.275"/></g><g style="text-align:center;line-height:160.00000238%;-inkscape-font-specification:Liberation Sans" font-size="2" font-weight="400" text-anchor="middle" font-family="Liberation Sans"><path d="M61.648 73.45v-1.377h.187v1.224h.695v.152h-.882M63.626 72.92c0 .185-.04.323-.122.413-.081.09-.2.136-.355.136a.55.55 0 0 1-.197-.033.37.37 0 0 1-.147-.102.472.472 0 0 1-.092-.17.845.845 0 0 1-.031-.244c0-.365.158-.547.473-.547a.59.59 0 0 1 .212.034c.06.023.109.057.147.103a.435.435 0 0 1 .085.17.934.934 0 0 1 .027.24m-.185 0a.878.878 0 0 0-.02-.203.328.328 0 0 0-.055-.128.188.188 0 0 0-.089-.067.341.341 0 0 0-.119-.02.345.345 0 0 0-.122.021.204.204 0 0 0-.092.069.338.338 0 0 0-.058.128.863.863 0 0 0-.02.2c0 .082.007.15.022.204a.36.36 0 0 0 .058.128.21.21 0 0 0 .09.067.379.379 0 0 0 .234.001.205.205 0 0 0 .092-.067.339.339 0 0 0 .059-.129.85.85 0 0 0 .02-.204M63.85 73.45v-.811a2.363 2.363 0 0 0-.002-.135 9.066 9.066 0 0 0-.004-.111h.166a7.006 7.006 0 0 1 .008.215h.003a.812.812 0 0 1 .04-.104.263.263 0 0 1 .05-.073.171.171 0 0 1 .067-.043.27.27 0 0 1 .135-.011.277.277 0 0 1 .03.006v.161a.42.42 0 0 0-.094-.01c-.04 0-.074.01-.103.028a.213.213 0 0 0-.069.076.386.386 0 0 0-.039.115.773.773 0 0 0-.013.146v.55h-.175M64.648 72.958c0 .055.006.106.017.153.012.047.03.087.053.12a.254.254 0 0 0 .225.106.323.323 0 0 0 .183-.046.228.228 0 0 0 .094-.116l.154.044a.435.435 0 0 1-.047.089.318.318 0 0 1-.079.08.446.446 0 0 1-.125.058.626.626 0 0 1-.18.023c-.156 0-.275-.047-.357-.14-.081-.093-.122-.231-.122-.415 0-.099.012-.183.037-.25a.446.446 0 0 1 .102-.169.377.377 0 0 1 .15-.093.565.565 0 0 1 .184-.029c.088 0 .162.014.221.043.06.029.108.068.144.12.036.05.062.109.077.177a.994.994 0 0 1 .023.222v.023h-.754m.573-.135c-.01-.111-.038-.192-.085-.243-.047-.051-.115-.077-.202-.077-.03 0-.06.005-.093.015a.229.229 0 0 0-.089.05.287.287 0 0 0-.07.098.42.42 0 0 0-.032.157h.57M66.242 73.45v-.67a.713.713 0 0 0-.01-.13.198.198 0 0 0-.033-.083.117.117 0 0 0-.06-.045.265.265 0 0 0-.19.01.212.212 0 0 0-.078.063.307.307 0 0 0-.049.102.53.53 0 0 0-.016.14v.612h-.175v-.83a2.575 2.575 0 0 0-.002-.14 3.818 3.818 0 0 0-.004-.086h.166l.002.026a6.168 6.168 0 0 1 .006.154h.003a.598.598 0 0 1 .05-.083.275.275 0 0 1 .148-.102.376.376 0 0 1 .11-.015c.08 0 .143.016.19.048.047.032.08.083.097.152h.003a.501.501 0 0 1 .053-.083.3.3 0 0 1 .156-.103.386.386 0 0 1 .112-.014c.053 0 .099.007.137.022a.22.22 0 0 1 .096.066c.025.03.043.069.055.116a.7.7 0 0 1 .017.168v.704h-.174v-.67a.713.713 0 0 0-.01-.129.198.198 0 0 0-.033-.083.117.117 0 0 0-.06-.045.265.265 0 0 0-.09-.013.23.23 0 0 0-.1.021.206.206 0 0 0-.078.062.307.307 0 0 0-.049.102.55.55 0 0 0-.016.143v.612h-.174M67.849 72.168V72h.175v.168h-.175m0 1.281v-1.056h.175v1.056h-.175M69.188 72.916c0 .08-.006.154-.02.222a.506.506 0 0 1-.064.174.324.324 0 0 1-.12.116.375.375 0 0 1-.184.04.434.434 0 0 1-.198-.042.283.283 0 0 1-.13-.14h-.005v.017l.002.039a1.28 1.28 0 0 1 .002.11v.412h-.176v-1.256a2.645 2.645 0 0 0-.002-.136 2.892 2.892 0 0 0-.004-.08h.17l.002.021a1.104 1.104 0 0 1 .008.15h.004a.37.37 0 0 1 .055-.086.285.285 0 0 1 .16-.092.527.527 0 0 1 .112-.011.39.39 0 0 1 .183.04c.05.025.09.062.12.11.031.046.053.103.066.17.013.067.02.14.02.222m-.185.004c0-.065-.004-.123-.012-.174a.385.385 0 0 0-.04-.129.197.197 0 0 0-.077-.08.24.24 0 0 0-.12-.027.358.358 0 0 0-.11.016.195.195 0 0 0-.091.064.35.35 0 0 0-.06.13.833.833 0 0 0-.023.214c0 .074.006.138.018.19.013.051.03.093.054.125a.209.209 0 0 0 .089.07c.035.013.075.02.12.02.05 0 .09-.01.122-.028a.2.2 0 0 0 .077-.082.397.397 0 0 0 .041-.131 1.21 1.21 0 0 0 .012-.178M70.201 73.157c0 .05-.01.094-.03.133a.265.265 0 0 1-.082.098.415.415 0 0 1-.135.06.862.862 0 0 1-.348.006.418.418 0 0 1-.128-.045.299.299 0 0 1-.149-.208l.155-.03a.194.194 0 0 0 .093.125c.047.026.112.039.195.039a.633.633 0 0 0 .104-.008.258.258 0 0 0 .082-.026.141.141 0 0 0 .053-.051.15.15 0 0 0 .02-.08.128.128 0 0 0-.023-.077.171.171 0 0 0-.063-.052.47.47 0 0 0-.097-.035l-.125-.034a2.147 2.147 0 0 1-.126-.037.478.478 0 0 1-.114-.054.285.285 0 0 1-.08-.084.231.231 0 0 1-.032-.125c0-.096.034-.17.103-.22a.503.503 0 0 1 .3-.076c.117 0 .21.02.278.062a.28.28 0 0 1 .13.197l-.158.02a.152.152 0 0 0-.032-.069.173.173 0 0 0-.056-.045.243.243 0 0 0-.076-.024.46.46 0 0 0-.086-.008.334.334 0 0 0-.175.036.121.121 0 0 0-.057.11c0 .028.007.052.02.07a.179.179 0 0 0 .06.047.536.536 0 0 0 .09.034l.116.029.086.023a.62.62 0 0 1 .163.07.244.244 0 0 1 .107.13.275.275 0 0 1 .017.1M70.58 72.393v.67a.65.65 0 0 0 .01.128c.009.035.021.063.038.084a.14.14 0 0 0 .066.045.361.361 0 0 0 .216-.008.239.239 0 0 0 .086-.064.293.293 0 0 0 .056-.102.465.465 0 0 0 .02-.141v-.612h.175v.83a823.277 823.277 0 0 0 .002.14 3.946 3.946 0 0 0 .004.086h-.166a1.915 1.915 0 0 0-.005-.075l-.002-.057v-.048h-.004a.56.56 0 0 1-.055.083.31.31 0 0 1-.07.063.325.325 0 0 1-.092.04.441.441 0 0 1-.12.014.475.475 0 0 1-.152-.022.245.245 0 0 1-.165-.181.67.67 0 0 1-.019-.17v-.703h.177M72.137 73.45v-.67a.713.713 0 0 0-.01-.13.198.198 0 0 0-.033-.083.117.117 0 0 0-.06-.045.265.265 0 0 0-.191.01.212.212 0 0 0-.077.063.307.307 0 0 0-.05.102.53.53 0 0 0-.016.14v.612h-.175v-.83a2.57 2.57 0 0 0-.002-.14 3.818 3.818 0 0 0-.004-.086h.166a6.214 6.214 0 0 1 .008.18h.003a.598.598 0 0 1 .051-.083.275.275 0 0 1 .147-.102.376.376 0 0 1 .11-.015c.08 0 .144.016.19.048.047.032.08.083.098.152h.003a.501.501 0 0 1 .053-.083.3.3 0 0 1 .156-.103.386.386 0 0 1 .111-.014c.053 0 .1.007.138.022a.22.22 0 0 1 .096.066c.024.03.042.069.054.116a.7.7 0 0 1 .018.168v.704h-.174v-.67a.713.713 0 0 0-.01-.129.198.198 0 0 0-.033-.083.117.117 0 0 0-.06-.045.265.265 0 0 0-.09-.013.23.23 0 0 0-.101.021.206.206 0 0 0-.077.062.307.307 0 0 0-.049.102.55.55 0 0 0-.017.143v.612h-.173M74.411 73.28a.312.312 0 0 1-.13.145.41.41 0 0 1-.199.044c-.133 0-.232-.045-.295-.135-.062-.09-.094-.226-.094-.408 0-.369.13-.553.389-.553.08 0 .147.015.2.044.054.03.097.076.13.14h.001a321.58 321.58 0 0 1-.002-.147V72h.176v1.231a893.66 893.66 0 0 0 .002.138 3.356 3.356 0 0 0 .004.08h-.168a.339.339 0 0 1-.007-.07l-.002-.048v-.052h-.005m-.533-.36c0 .074.005.136.014.188.009.053.024.095.044.13.02.033.046.057.077.073.031.015.07.023.114.023a.31.31 0 0 0 .122-.022.203.203 0 0 0 .09-.073.367.367 0 0 0 .054-.132.904.904 0 0 0 .018-.198.825.825 0 0 0-.018-.19.336.336 0 0 0-.055-.125.202.202 0 0 0-.089-.069.312.312 0 0 0-.231.001.188.188 0 0 0-.078.073.382.382 0 0 0-.047.13c-.01.052-.015.116-.015.192M75.751 72.92c0 .185-.04.323-.122.413-.081.09-.2.136-.355.136a.55.55 0 0 1-.197-.033.37.37 0 0 1-.147-.102.472.472 0 0 1-.092-.17.845.845 0 0 1-.031-.244c0-.365.158-.547.473-.547a.59.59 0 0 1 .212.034c.06.023.109.057.147.103a.435.435 0 0 1 .085.17.934.934 0 0 1 .027.24m-.185 0a.878.878 0 0 0-.02-.203.328.328 0 0 0-.055-.128.188.188 0 0 0-.089-.067.341.341 0 0 0-.119-.02.345.345 0 0 0-.122.021.204.204 0 0 0-.092.069.338.338 0 0 0-.058.128.863.863 0 0 0-.02.2c0 .082.007.15.022.204a.36.36 0 0 0 .058.128.21.21 0 0 0 .09.067.379.379 0 0 0 .234.001.205.205 0 0 0 .092-.067.339.339 0 0 0 .059-.129.85.85 0 0 0 .02-.204M75.97 73.45V72h.176v1.45h-.175M77.31 72.92c0 .185-.041.323-.122.413-.082.09-.2.136-.355.136a.55.55 0 0 1-.197-.033.37.37 0 0 1-.148-.102.472.472 0 0 1-.092-.17.845.845 0 0 1-.03-.244c0-.365.157-.547.473-.547a.59.59 0 0 1 .212.034c.06.023.109.057.146.103a.435.435 0 0 1 .085.17.934.934 0 0 1 .028.24m-.185 0a.878.878 0 0 0-.02-.203.328.328 0 0 0-.055-.128.188.188 0 0 0-.09-.067.341.341 0 0 0-.118-.02.345.345 0 0 0-.122.021.204.204 0 0 0-.092.069.338.338 0 0 0-.059.128.863.863 0 0 0-.02.2c0 .082.008.15.022.204a.36.36 0 0 0 .059.128.21.21 0 0 0 .089.067.379.379 0 0 0 .234.001.205.205 0 0 0 .093-.067.339.339 0 0 0 .058-.129.85.85 0 0 0 .021-.204M77.533 73.45v-.811a2.36 2.36 0 0 0-.002-.135 9.066 9.066 0 0 0-.004-.111h.166a7.006 7.006 0 0 1 .008.215h.004a.812.812 0 0 1 .04-.104.263.263 0 0 1 .049-.073.171.171 0 0 1 .067-.043.27.27 0 0 1 .136-.011.277.277 0 0 1 .03.006v.161a.42.42 0 0 0-.094-.01c-.04 0-.074.01-.103.028a.213.213 0 0 0-.07.076.386.386 0 0 0-.038.115.773.773 0 0 0-.013.146v.55h-.176M79.545 73.157c0 .05-.01.094-.03.133a.265.265 0 0 1-.082.098.415.415 0 0 1-.135.06.862.862 0 0 1-.348.006.418.418 0 0 1-.129-.045.299.299 0 0 1-.148-.208l.155-.03a.194.194 0 0 0 .093.125c.047.026.112.039.195.039a.633.633 0 0 0 .104-.008.258.258 0 0 0 .082-.026.141.141 0 0 0 .052-.051.15.15 0 0 0 .02-.08.128.128 0 0 0-.022-.077.171.171 0 0 0-.063-.052.47.47 0 0 0-.098-.035l-.125-.034a2.147 2.147 0 0 1-.126-.037.478.478 0 0 1-.113-.054.285.285 0 0 1-.08-.084.231.231 0 0 1-.032-.125c0-.096.034-.17.102-.22a.503.503 0 0 1 .301-.076c.117 0 .21.02.277.062a.28.28 0 0 1 .131.197l-.158.02a.152.152 0 0 0-.032-.069.173.173 0 0 0-.057-.045.243.243 0 0 0-.075-.024.46.46 0 0 0-.086-.008.334.334 0 0 0-.176.036.121.121 0 0 0-.056.11c0 .028.007.052.02.07a.179.179 0 0 0 .059.047.536.536 0 0 0 .09.034l.117.029.086.023a.62.62 0 0 1 .163.07.244.244 0 0 1 .107.13.275.275 0 0 1 .017.1M79.751 72.168V72h.176v.168h-.176m0 1.281v-1.056h.176v1.056h-.176M80.604 73.441a.67.67 0 0 1-.178.024c-.14 0-.211-.08-.211-.24v-.705h-.122v-.127h.129l.051-.237h.118v.237h.195v.127h-.195v.667c0 .051.008.087.024.108.017.02.046.03.087.03a.297.297 0 0 0 .049-.004c.016-.002.034-.006.053-.01v.13M62.11 76.669c-.107 0-.186-.028-.24-.084a.32.32 0 0 1-.08-.23.298.298 0 0 1 .143-.276.436.436 0 0 1 .146-.054c.055-.01.11-.015.167-.016l.237-.004v-.058a.396.396 0 0 0-.013-.111.172.172 0 0 0-.042-.074.165.165 0 0 0-.072-.041.323.323 0 0 0-.1-.014.494.494 0 0 0-.091.008.187.187 0 0 0-.071.026.139.139 0 0 0-.05.052.214.214 0 0 0-.023.082l-.184-.017a.362.362 0 0 1 .037-.114.27.27 0 0 1 .077-.09.37.37 0 0 1 .126-.06.683.683 0 0 1 .184-.02c.133 0 .232.03.3.09.067.061.1.15.1.265v.455c0 .052.007.091.02.118.014.026.04.039.079.039a.214.214 0 0 0 .057-.007v.11a.597.597 0 0 1-.135.015.259.259 0 0 1-.086-.013.141.141 0 0 1-.058-.04.189.189 0 0 1-.034-.066.414.414 0 0 1-.015-.093h-.006a.598.598 0 0 1-.062.092.336.336 0 0 1-.18.114.494.494 0 0 1-.132.016m.04-.132a.324.324 0 0 0 .313-.214.318.318 0 0 0 .021-.108v-.087l-.192.004a.917.917 0 0 0-.123.01.286.286 0 0 0-.102.032.186.186 0 0 0-.07.068.229.229 0 0 0-.025.115c0 .058.015.102.046.133.03.031.075.047.132.047M63.568 76.65v-.67a.713.713 0 0 0-.01-.13.198.198 0 0 0-.033-.083.117.117 0 0 0-.06-.045.265.265 0 0 0-.19.01.212.212 0 0 0-.078.063.307.307 0 0 0-.049.102.53.53 0 0 0-.016.14v.612h-.175v-.83a2.57 2.57 0 0 0-.002-.14 3.813 3.813 0 0 0-.004-.086h.166l.002.026a6.168 6.168 0 0 1 .006.154h.003a.599.599 0 0 1 .05-.083.275.275 0 0 1 .148-.102.376.376 0 0 1 .11-.015c.08 0 .144.016.19.048.047.032.08.083.098.152h.002a.501.501 0 0 1 .053-.083.3.3 0 0 1 .156-.103.386.386 0 0 1 .112-.014c.053 0 .099.007.137.022a.22.22 0 0 1 .096.066c.025.03.043.069.055.116a.7.7 0 0 1 .017.168v.704h-.173v-.67a.713.713 0 0 0-.01-.129.198.198 0 0 0-.033-.083.117.117 0 0 0-.06-.045.265.265 0 0 0-.09-.013.23.23 0 0 0-.101.021.206.206 0 0 0-.078.062.307.307 0 0 0-.048.102.55.55 0 0 0-.017.143v.612h-.174M64.756 76.158c0 .055.005.106.016.153.012.047.03.087.053.12a.254.254 0 0 0 .226.106.323.323 0 0 0 .182-.046.228.228 0 0 0 .094-.116l.154.044a.435.435 0 0 1-.046.089.318.318 0 0 1-.08.08.446.446 0 0 1-.125.058.626.626 0 0 1-.18.023c-.155 0-.275-.047-.357-.14-.081-.093-.122-.231-.122-.415 0-.099.013-.183.037-.25a.446.446 0 0 1 .102-.169.377.377 0 0 1 .15-.093.565.565 0 0 1 .184-.029c.088 0 .162.014.222.043.06.029.107.068.143.12.037.05.062.109.077.177a.994.994 0 0 1 .024.222v.023h-.754m.572-.135c-.01-.111-.038-.192-.085-.243-.047-.051-.114-.077-.202-.077-.03 0-.06.005-.093.015a.229.229 0 0 0-.089.05.287.287 0 0 0-.069.098.42.42 0 0 0-.032.157h.57M66.14 76.641a.67.67 0 0 1-.177.024c-.14 0-.211-.08-.211-.24v-.705h-.122v-.127h.129l.052-.237h.117v.237h.195v.127h-.195v.667c0 .051.008.087.024.108.017.02.046.03.087.03a.297.297 0 0 0 .049-.004c.016-.002.034-.006.053-.01v.13M66.843 75.368V75.2h.176v.168h-.176m0 1.281v-1.056h.176v1.056h-.176M67.96 76.65v-.67a.596.596 0 0 0-.012-.13.192.192 0 0 0-.036-.083.132.132 0 0 0-.067-.045.329.329 0 0 0-.216.01.235.235 0 0 0-.086.063.29.29 0 0 0-.055.102.455.455 0 0 0-.02.14v.612h-.175v-.83a2.57 2.57 0 0 0-.002-.14 3.813 3.813 0 0 0-.004-.086h.166l.002.026a6.168 6.168 0 0 1 .006.154h.003a.56.56 0 0 1 .055-.083.31.31 0 0 1 .162-.103.441.441 0 0 1 .12-.014c.06 0 .11.007.152.022a.245.245 0 0 1 .105.066.27.27 0 0 1 .06.116c.012.047.019.103.019.168v.704h-.177M68.809 76.641a.67.67 0 0 1-.178.024c-.14 0-.211-.08-.211-.24v-.705h-.122v-.127h.129l.052-.237h.117v.237h.195v.127h-.195v.667c0 .051.008.087.024.108.017.02.046.03.087.03a.297.297 0 0 0 .049-.004c.016-.002.034-.006.053-.01v.13M69.092 76.158c0 .055.005.106.016.153.012.047.03.087.053.12a.254.254 0 0 0 .226.106.323.323 0 0 0 .182-.046.228.228 0 0 0 .094-.116l.154.044a.435.435 0 0 1-.046.089.318.318 0 0 1-.08.08.446.446 0 0 1-.125.058.626.626 0 0 1-.18.023c-.156 0-.275-.047-.357-.14-.081-.093-.122-.231-.122-.415 0-.099.013-.183.037-.25a.446.446 0 0 1 .102-.169.377.377 0 0 1 .15-.093.565.565 0 0 1 .184-.029c.088 0 .162.014.222.043.06.029.107.068.143.12.037.05.062.109.077.177a.994.994 0 0 1 .024.222v.023h-.754m.572-.135c-.01-.111-.038-.192-.085-.243-.047-.051-.114-.077-.202-.077-.03 0-.06.005-.093.015a.229.229 0 0 0-.089.05.287.287 0 0 0-.069.098.42.42 0 0 0-.032.157h.57M70.47 77.064a.635.635 0 0 1-.16-.018.37.37 0 0 1-.12-.054.295.295 0 0 1-.082-.082.33.33 0 0 1-.045-.106l.177-.026a.179.179 0 0 0 .077.112c.04.027.093.04.159.04.04 0 .075-.005.108-.016a.197.197 0 0 0 .083-.054.241.241 0 0 0 .053-.095.477.477 0 0 0 .018-.142v-.17h-.002a.426.426 0 0 1-.049.077.363.363 0 0 1-.291.127.411.411 0 0 1-.172-.033.293.293 0 0 1-.118-.102.482.482 0 0 1-.066-.167 1.173 1.173 0 0 1-.02-.232c0-.085.006-.16.02-.229a.49.49 0 0 1 .068-.172.313.313 0 0 1 .123-.108.41.41 0 0 1 .185-.038c.075 0 .14.017.194.052a.333.333 0 0 1 .128.145h.002a1.706 1.706 0 0 1 .012-.18h.167a.579.579 0 0 0-.004.08 15.595 15.595 0 0 0-.002.138v.808c0 .148-.037.259-.11.333-.072.075-.183.112-.332.112m.267-.943a.636.636 0 0 0-.024-.189.384.384 0 0 0-.063-.128.245.245 0 0 0-.192-.097.266.266 0 0 0-.116.023.198.198 0 0 0-.08.074.381.381 0 0 0-.047.13 1.03 1.03 0 0 0-.015.187c0 .076.005.14.015.192.01.052.026.093.047.125.02.032.047.055.079.069a.289.289 0 0 0 .216-.002.247.247 0 0 0 .091-.072.375.375 0 0 0 .065-.126.623.623 0 0 0 .024-.186M71.318 76.158c0 .055.006.106.017.153.012.047.03.087.053.12a.254.254 0 0 0 .225.106.323.323 0 0 0 .183-.046.228.228 0 0 0 .094-.116l.154.044a.435.435 0 0 1-.047.089.318.318 0 0 1-.079.08.446.446 0 0 1-.125.058.626.626 0 0 1-.18.023c-.156 0-.275-.047-.357-.14-.082-.093-.122-.231-.122-.415 0-.099.012-.183.037-.25a.446.446 0 0 1 .101-.169.377.377 0 0 1 .15-.093.565.565 0 0 1 .184-.029c.089 0 .163.014.222.043.06.029.108.068.144.12.036.05.062.109.077.177a.994.994 0 0 1 .023.222v.023h-.754m.573-.135c-.01-.111-.038-.192-.085-.243-.047-.051-.115-.077-.202-.077-.03 0-.06.005-.093.015a.229.229 0 0 0-.09.05.287.287 0 0 0-.068.098.42.42 0 0 0-.033.157h.57M72.3 76.65v-.811a2.36 2.36 0 0 0-.001-.135 9.066 9.066 0 0 0-.004-.111h.166a7.006 7.006 0 0 1 .008.215h.004a.812.812 0 0 1 .039-.104.263.263 0 0 1 .05-.073.171.171 0 0 1 .067-.043.27.27 0 0 1 .136-.011.277.277 0 0 1 .03.006v.161a.42.42 0 0 0-.094-.01c-.04 0-.075.01-.103.028a.213.213 0 0 0-.07.076.386.386 0 0 0-.039.115.773.773 0 0 0-.012.146v.55H72.3M73.519 75.368V75.2h.175v.168h-.175m0 1.281v-1.056h.175v1.056h-.175M74.632 76.48a.312.312 0 0 1-.13.145.41.41 0 0 1-.2.044c-.133 0-.231-.045-.294-.135-.063-.09-.094-.226-.094-.408 0-.369.13-.553.389-.553.08 0 .147.015.2.044.053.03.096.076.129.14h.002a321.58 321.58 0 0 1-.002-.147v-.41h.176v1.231a893.66 893.66 0 0 0 .002.138 3.356 3.356 0 0 0 .004.08h-.168a.339.339 0 0 1-.007-.07l-.002-.048-.001-.052h-.004m-.533-.36c0 .074.004.136.013.188.01.053.024.095.044.13.02.033.046.057.077.073.032.015.07.023.115.023a.31.31 0 0 0 .122-.022.203.203 0 0 0 .089-.073.367.367 0 0 0 .054-.132.904.904 0 0 0 .019-.198.825.825 0 0 0-.019-.19.336.336 0 0 0-.054-.125.202.202 0 0 0-.09-.069.312.312 0 0 0-.23.001.188.188 0 0 0-.079.073.382.382 0 0 0-.047.13c-.01.052-.014.116-.014.192M75.633 76.65V75.2h.176v1.45h-.176M76.077 75.368V75.2h.176v.168h-.176m0 1.281v-1.056h.176v1.056h-.176M77.417 76.116c0 .369-.13.553-.389.553a.42.42 0 0 1-.2-.043.324.324 0 0 1-.129-.14h-.002c0 .016 0 .034-.002.052a1.08 1.08 0 0 1-.008.111h-.17a.575.575 0 0 0 .004-.08 1.947 1.947 0 0 0 .002-.138V75.2h.176v.413a1.588 1.588 0 0 1-.002.104l-.002.045h.004a.313.313 0 0 1 .13-.145.416.416 0 0 1 .2-.044c.133 0 .23.045.293.135.063.09.095.226.095.408m-.185.006a1.11 1.11 0 0 0-.013-.188.368.368 0 0 0-.044-.128.187.187 0 0 0-.077-.074.317.317 0 0 0-.237-.001.21.21 0 0 0-.09.073.368.368 0 0 0-.053.13.904.904 0 0 0-.019.199.83.83 0 0 0 .019.19c.012.052.03.093.053.126a.209.209 0 0 0 .09.07.333.333 0 0 0 .232-.003.188.188 0 0 0 .078-.072.369.369 0 0 0 .046-.129c.01-.053.015-.118.015-.193M77.771 76.158c0 .055.006.106.017.153.012.047.03.087.053.12a.254.254 0 0 0 .225.106.323.323 0 0 0 .183-.046.228.228 0 0 0 .094-.116l.154.044a.435.435 0 0 1-.047.089.318.318 0 0 1-.079.08.446.446 0 0 1-.125.058.626.626 0 0 1-.18.023c-.156 0-.275-.047-.357-.14-.081-.093-.122-.231-.122-.415 0-.099.012-.183.037-.25a.446.446 0 0 1 .102-.169.377.377 0 0 1 .15-.093.565.565 0 0 1 .184-.029c.088 0 .162.014.221.043.06.029.108.068.144.12.036.05.062.109.077.177a.994.994 0 0 1 .023.222v.023h-.754m.573-.135c-.01-.111-.038-.192-.085-.243-.047-.051-.114-.077-.202-.077-.03 0-.06.005-.093.015a.229.229 0 0 0-.089.05.287.287 0 0 0-.07.098.42.42 0 0 0-.032.157h.57M78.754 76.65v-.811a2.36 2.36 0 0 0-.002-.135 9.066 9.066 0 0 0-.004-.111h.166a7.006 7.006 0 0 1 .008.215h.004a.812.812 0 0 1 .039-.104.263.263 0 0 1 .05-.073.171.171 0 0 1 .067-.043.27.27 0 0 1 .136-.011.277.277 0 0 1 .03.006v.161a.42.42 0 0 0-.094-.01c-.04 0-.075.01-.103.028a.213.213 0 0 0-.07.076.386.386 0 0 0-.039.115.773.773 0 0 0-.012.146v.55h-.176M80.312 76.12c0 .185-.041.323-.123.413-.08.09-.2.136-.354.136a.55.55 0 0 1-.197-.033.37.37 0 0 1-.148-.102.472.472 0 0 1-.092-.17.845.845 0 0 1-.03-.244c0-.365.157-.547.473-.547a.59.59 0 0 1 .212.034c.06.023.108.057.146.103a.435.435 0 0 1 .085.17.934.934 0 0 1 .028.24m-.185 0a.878.878 0 0 0-.02-.203.328.328 0 0 0-.055-.128.188.188 0 0 0-.09-.067.341.341 0 0 0-.118-.02.345.345 0 0 0-.122.021.204.204 0 0 0-.092.069.338.338 0 0 0-.059.128.863.863 0 0 0-.02.2c0 .082.008.15.022.204a.36.36 0 0 0 .059.128.21.21 0 0 0 .089.067.379.379 0 0 0 .234.001.205.205 0 0 0 .093-.067.339.339 0 0 0 .058-.129.85.85 0 0 0 .02-.204M67.2 79.841a.67.67 0 0 1-.179.024c-.14 0-.21-.08-.21-.24v-.705h-.123v-.127h.13l.051-.237h.117v.237h.196v.127h-.196v.667c0 .051.008.087.025.108.017.02.046.03.087.03a.297.297 0 0 0 .048-.004c.017-.002.034-.006.053-.01v.13M67.52 78.793v.67a.65.65 0 0 0 .01.128c.008.035.02.063.037.084a.14.14 0 0 0 .067.045.361.361 0 0 0 .216-.008.239.239 0 0 0 .086-.064.293.293 0 0 0 .055-.102.465.465 0 0 0 .02-.141v-.612h.176v.83a823.282 823.282 0 0 0 .002.14 3.946 3.946 0 0 0 .004.086h-.166a1.915 1.915 0 0 0-.005-.075l-.002-.057-.001-.048h-.003a.56.56 0 0 1-.056.083.31.31 0 0 1-.07.063.325.325 0 0 1-.092.04.441.441 0 0 1-.12.014.475.475 0 0 1-.152-.022.245.245 0 0 1-.165-.181.67.67 0 0 1-.018-.17v-.703h.177M68.465 79.85v-.811a2.36 2.36 0 0 0-.002-.135 9.066 9.066 0 0 0-.004-.111h.166a7.061 7.061 0 0 1 .008.215h.004a.812.812 0 0 1 .039-.104.262.262 0 0 1 .05-.073.171.171 0 0 1 .067-.043.27.27 0 0 1 .136-.011.277.277 0 0 1 .03.006v.161a.42.42 0 0 0-.094-.01c-.04 0-.075.01-.103.028a.213.213 0 0 0-.07.076.386.386 0 0 0-.039.115.772.772 0 0 0-.012.146v.55h-.176M70.022 79.316c0 .08-.006.154-.02.222a.506.506 0 0 1-.064.175.324.324 0 0 1-.12.115.375.375 0 0 1-.184.04.434.434 0 0 1-.198-.042.283.283 0 0 1-.13-.14H69.3v.017l.002.039a1.28 1.28 0 0 1 .002.11v.412h-.176v-1.256a2.64 2.64 0 0 0-.002-.136 2.892 2.892 0 0 0-.004-.08h.17l.002.021a1.103 1.103 0 0 1 .008.15h.004a.37.37 0 0 1 .055-.086.285.285 0 0 1 .16-.092.527.527 0 0 1 .112-.011.39.39 0 0 1 .183.04c.05.025.09.062.12.11.031.046.053.103.066.17.013.067.02.14.02.222m-.185.004c0-.065-.004-.123-.012-.174a.385.385 0 0 0-.04-.129.197.197 0 0 0-.077-.08.24.24 0 0 0-.12-.027.358.358 0 0 0-.11.016.195.195 0 0 0-.091.064.35.35 0 0 0-.06.13.833.833 0 0 0-.023.214c0 .074.006.138.018.19.013.051.03.093.054.125a.209.209 0 0 0 .089.07c.035.013.075.02.12.02.05 0 .09-.01.122-.028a.2.2 0 0 0 .077-.082.397.397 0 0 0 .041-.131 1.21 1.21 0 0 0 .012-.178M70.241 78.568V78.4h.176v.168h-.176m0 1.281v-1.056h.176v1.056h-.176M71.48 79.557c0 .05-.01.094-.029.133a.265.265 0 0 1-.083.098.415.415 0 0 1-.135.06.862.862 0 0 1-.348.006.418.418 0 0 1-.128-.045.299.299 0 0 1-.149-.208l.156-.03a.194.194 0 0 0 .092.125c.047.026.112.039.196.039a.633.633 0 0 0 .103-.008.258.258 0 0 0 .082-.026.141.141 0 0 0 .053-.051.15.15 0 0 0 .02-.08.128.128 0 0 0-.023-.077.171.171 0 0 0-.062-.052.47.47 0 0 0-.098-.035l-.125-.034a2.147 2.147 0 0 1-.126-.037.478.478 0 0 1-.113-.054.285.285 0 0 1-.081-.084.231.231 0 0 1-.032-.125c0-.096.035-.17.103-.22a.503.503 0 0 1 .3-.076c.117 0 .21.02.278.062a.28.28 0 0 1 .13.197l-.157.02a.152.152 0 0 0-.033-.069.173.173 0 0 0-.056-.045.243.243 0 0 0-.075-.024.46.46 0 0 0-.086-.008.334.334 0 0 0-.176.036.121.121 0 0 0-.057.11c0 .028.007.052.02.07a.179.179 0 0 0 .06.047.536.536 0 0 0 .09.034l.116.029.086.023a.62.62 0 0 1 .163.07.244.244 0 0 1 .107.13.275.275 0 0 1 .017.1M72.512 79.869c-.106 0-.186-.028-.24-.084a.32.32 0 0 1-.08-.23.298.298 0 0 1 .143-.276.436.436 0 0 1 .146-.054c.055-.01.11-.015.167-.016l.238-.004v-.058a.396.396 0 0 0-.014-.111.172.172 0 0 0-.042-.074.165.165 0 0 0-.071-.041.324.324 0 0 0-.1-.014.494.494 0 0 0-.092.008.187.187 0 0 0-.07.026.139.139 0 0 0-.05.052.214.214 0 0 0-.024.082l-.184-.017a.362.362 0 0 1 .037-.114.27.27 0 0 1 .078-.09.37.37 0 0 1 .125-.06.683.683 0 0 1 .184-.02c.133 0 .233.03.3.09.067.061.1.15.1.265v.455c0 .052.007.091.021.118.014.026.04.039.078.039a.214.214 0 0 0 .058-.007v.11a.597.597 0 0 1-.136.015.259.259 0 0 1-.086-.013.141.141 0 0 1-.058-.04.189.189 0 0 1-.034-.066.414.414 0 0 1-.014-.093h-.006a.598.598 0 0 1-.063.092.336.336 0 0 1-.18.114.494.494 0 0 1-.131.016m.04-.132a.324.324 0 0 0 .313-.214.318.318 0 0 0 .02-.108v-.087l-.192.004a.917.917 0 0 0-.123.01.286.286 0 0 0-.101.032.186.186 0 0 0-.07.068.229.229 0 0 0-.026.115c0 .058.015.102.046.133.031.031.075.047.133.047M73.97 79.85v-.67a.713.713 0 0 0-.01-.13.198.198 0 0 0-.032-.083.117.117 0 0 0-.06-.045.265.265 0 0 0-.191.01.212.212 0 0 0-.077.063.307.307 0 0 0-.05.102.53.53 0 0 0-.016.14v.612h-.175v-.83a2.57 2.57 0 0 0-.002-.14 3.827 3.827 0 0 0-.004-.086h.166a6.149 6.149 0 0 1 .008.18h.003a.599.599 0 0 1 .051-.083.275.275 0 0 1 .147-.102.376.376 0 0 1 .11-.015c.08 0 .144.016.19.048.047.032.08.083.098.152h.003a.501.501 0 0 1 .053-.083.3.3 0 0 1 .156-.103.386.386 0 0 1 .111-.014c.053 0 .1.007.138.022a.22.22 0 0 1 .095.066c.025.03.043.069.055.116a.7.7 0 0 1 .018.168v.704h-.174v-.67a.713.713 0 0 0-.01-.129.198.198 0 0 0-.033-.083.117.117 0 0 0-.06-.045.265.265 0 0 0-.09-.013.23.23 0 0 0-.101.021.206.206 0 0 0-.077.062.306.306 0 0 0-.049.102.55.55 0 0 0-.017.143v.612h-.173M75.071 79.85v-.215h.19v.214h-.19"/></g><g style="text-align:start;line-height:125%;-inkscape-font-specification:Abandoned Bitplane Bold" font-size="4" font-weight="700" font-family="Liberation Sans"><path d="M68.049 66.684c-.124.195-.241.384-.352.568-.11.184-.205.368-.287.555a3.409 3.409 0 0 0-.195.572c-.047.195-.07.402-.07.621h-.573c0-.217.026-.424.076-.62.053-.196.123-.387.211-.573a4.83 4.83 0 0 1 .309-.551c.117-.182.24-.368.371-.557h-1.367v-.451h1.877v.436M70.328 68.225c0 .118-.02.227-.058.328a.68.68 0 0 1-.18.258.855.855 0 0 1-.307.168c-.123.04-.27.06-.441.06-.17 0-.317-.02-.442-.06a.876.876 0 0 1-.308-.168.68.68 0 0 1-.18-.258.875.875 0 0 1-.058-.324.7.7 0 0 1 .046-.266.597.597 0 0 1 .305-.334.728.728 0 0 1 .21-.068v-.008a.635.635 0 0 1-.364-.225.633.633 0 0 1-.133-.392c0-.11.02-.21.059-.3a.634.634 0 0 1 .175-.23.798.798 0 0 1 .286-.146c.114-.035.246-.053.396-.053.16 0 .298.018.414.055a.78.78 0 0 1 .29.15c.075.064.13.14.167.23.037.09.055.19.055.297a.634.634 0 0 1-.133.391.63.63 0 0 1-.367.219v.008c.08.013.155.037.224.072a.585.585 0 0 1 .301.334.746.746 0 0 1 .043.262m-.633-1.256a.605.605 0 0 0-.017-.15.292.292 0 0 0-.059-.12.261.261 0 0 0-.111-.078.444.444 0 0 0-.174-.03.433.433 0 0 0-.17.03.262.262 0 0 0-.11.078.292.292 0 0 0-.058.12.749.749 0 0 0-.004.293c.01.046.029.089.055.126a.29.29 0 0 0 .11.09.406.406 0 0 0 .18.035c.079 0 .142-.011.188-.035a.265.265 0 0 0 .11-.092.327.327 0 0 0 .049-.127.855.855 0 0 0 .011-.14m.065 1.21a.666.666 0 0 0-.02-.161.32.32 0 0 0-.197-.233.529.529 0 0 0-.213-.037.468.468 0 0 0-.197.037.338.338 0 0 0-.196.236.855.855 0 0 0 0 .355.392.392 0 0 0 .07.15c.035.04.079.071.134.093a.55.55 0 0 0 .205.033c.082 0 .15-.01.203-.033a.311.311 0 0 0 .127-.098.366.366 0 0 0 .064-.148.892.892 0 0 0 .02-.193M70.725 69v-.596h.564V69h-.564M73.676 68.084c0 .138-.022.266-.067.383a.832.832 0 0 1-.513.502 1.26 1.26 0 0 1-.44.07 1.33 1.33 0 0 1-.402-.055.758.758 0 0 1-.477-.387 1.002 1.002 0 0 1-.091-.285l.548-.044c.01.043.025.084.043.125.02.04.047.076.08.107a.397.397 0 0 0 .125.076c.05.018.11.028.18.028a.423.423 0 0 0 .326-.131c.082-.088.123-.213.123-.377a.586.586 0 0 0-.03-.198.417.417 0 0 0-.087-.15.356.356 0 0 0-.137-.096.476.476 0 0 0-.183-.033.431.431 0 0 0-.225.053.534.534 0 0 0-.148.125h-.535l.095-1.549h1.655v.408h-1.157l-.045.696a.744.744 0 0 1 .498-.176c.136 0 .257.022.364.066a.77.77 0 0 1 .441.473c.04.11.059.234.059.369M78.35 68.156c0 .163-.019.3-.055.412a.74.74 0 0 1-.149.272.543.543 0 0 1-.22.146.785.785 0 0 1-.268.045.814.814 0 0 1-.273-.045.546.546 0 0 1-.219-.146.757.757 0 0 1-.146-.272 1.39 1.39 0 0 1-.053-.412c0-.172.017-.314.053-.426a.7.7 0 0 1 .148-.27.494.494 0 0 1 .22-.14.91.91 0 0 1 .544 0 .482.482 0 0 1 .216.14.682.682 0 0 1 .147.27c.036.112.055.254.055.426M75.977 69h-.403l1.797-2.752h.408L75.977 69m-.282-2.783c.094 0 .183.013.266.04a.503.503 0 0 1 .219.14.7.7 0 0 1 .148.269c.037.112.055.254.055.426 0 .163-.018.3-.055.412a.724.724 0 0 1-.15.271.535.535 0 0 1-.221.149.808.808 0 0 1-.271.045.802.802 0 0 1-.27-.045.546.546 0 0 1-.219-.147.757.757 0 0 1-.146-.271 1.399 1.399 0 0 1-.053-.414c0-.172.018-.314.053-.426a.682.682 0 0 1 .146-.27.501.501 0 0 1 .221-.138.91.91 0 0 1 .277-.041m2.235 1.94c0-.114-.006-.208-.018-.282a.562.562 0 0 0-.049-.176.198.198 0 0 0-.082-.092.232.232 0 0 0-.115-.027c-.048 0-.09.01-.125.027a.194.194 0 0 0-.084.092.62.62 0 0 0-.05.178c-.011.074-.016.167-.016.28 0 .109.005.2.015.273a.58.58 0 0 0 .05.174.217.217 0 0 0 .085.093.252.252 0 0 0 .121.028.208.208 0 0 0 .197-.12.575.575 0 0 0 .053-.175 1.77 1.77 0 0 0 .018-.274m-1.971-1.064c0-.112-.006-.205-.018-.278a.561.561 0 0 0-.048-.175.198.198 0 0 0-.082-.092.232.232 0 0 0-.116-.027c-.048 0-.09.009-.125.027a.203.203 0 0 0-.086.094.594.594 0 0 0-.05.175c-.01.073-.016.165-.016.276 0 .11.005.2.016.273a.618.618 0 0 0 .05.176.23.23 0 0 0 .086.096.252.252 0 0 0 .121.027c.045 0 .083-.01.116-.027a.206.206 0 0 0 .084-.094.544.544 0 0 0 .05-.176c.012-.074.018-.166.018-.275"/></g></g><g><path d="M24 6v2h60c2.782 0 5 2.218 5 5v72c0 .364-.052.721-.125 1.063a4.896 4.896 0 0 1-.156.593c-.008.022-.024.04-.031.063a5.482 5.482 0 0 1-.22.531c-.04.083-.078.17-.124.25-.055.097-.127.188-.188.281a5.092 5.092 0 0 1-.312.406 5.05 5.05 0 0 1-.469.5l-.031.032a4.818 4.818 0 0 1-.438.344c-.102.073-.204.153-.312.218-.008.005-.024-.004-.031 0a4.843 4.843 0 0 1-.72.375c.302-.097.597-.204.876-.344a6.105 6.105 0 0 0 2.094-1.78c.184-.246.355-.508.5-.782a5.69 5.69 0 0 0 .374-.813l.032-.093c.09-.278.139-.58.187-.875.053-.318.094-.634.094-.969V12c0-3.324-2.676-6-6-6H24z" opacity=".5" fill="url(#y)"/><path d="M12 90c-3.324 0-6-2.676-6-6V12c0-.335.041-.65.094-.969.048-.295.097-.597.187-.875l.032-.094a5.69 5.69 0 0 1 .375-.812c.144-.274.315-.536.5-.781a6.105 6.105 0 0 1 2.094-1.781c.278-.14.573-.247.874-.344-.256.1-.486.236-.719.375-.007.004-.023-.005-.03 0-.033.019-.063.042-.095.062-.12.077-.23.164-.343.25-.106.081-.214.161-.313.25a5.042 5.042 0 0 0-.5.532c-.107.13-.218.265-.312.406-.025.038-.039.086-.063.125-.065.103-.13.204-.187.312a5.371 5.371 0 0 0-.282.625c-.007.022-.023.04-.03.063-.033.092-.037.187-.063.281-.03.107-.07.203-.094.313A5.098 5.098 0 0 0 7 11v72c0 2.782 2.218 5 5 5h72c2.782 0 5-2.218 5-5V11c0-.364-.052-.721-.125-1.063a4.896 4.896 0 0 0-.156-.593c-.008-.022-.024-.04-.031-.063a5.482 5.482 0 0 0-.22-.531c-.04-.083-.078-.17-.124-.25-.055-.097-.127-.188-.188-.281a5.092 5.092 0 0 0-.312-.406 5.05 5.05 0 0 0-.469-.5l-.031-.032a4.818 4.818 0 0 0-.438-.343c-.102-.074-.204-.154-.312-.22-.008-.004-.024.005-.031 0a4.843 4.843 0 0 0-.72-.374c.302.097.597.204.876.343a6.105 6.105 0 0 1 2.094 1.782c.184.245.355.507.5.781.14.265.276.525.374.813l.032.093c.09.278.139.58.187.875.053.318.094.634.094.969v72c0 3.324-2.676 6-6 6H12z" opacity=".4" fill="url(#z)"/><path d="M12 6c-3.324 0-6 2.676-6 6v72c0 .335.041.65.094.969.033.2.079.397.125.594.02.074.04.145.062.218.006.02-.006.044 0 .063l.032.094c.018.054.041.103.062.156.09.226.199.44.313.656.144.274.315.536.5.781a6.105 6.105 0 0 0 2.094 1.781c.278.14.573.247.874.344a4.843 4.843 0 0 1-.719-.375c-.007-.004-.023.005-.03 0-.033-.02-.063-.042-.095-.062-.12-.077-.23-.164-.343-.25-.106-.081-.214-.161-.313-.25a5.042 5.042 0 0 1-.5-.531 5.092 5.092 0 0 1-.312-.407c-.025-.038-.039-.086-.063-.125-.065-.103-.13-.204-.187-.312a5.371 5.371 0 0 1-.282-.625c-.007-.022-.023-.04-.03-.063-.033-.092-.037-.187-.063-.281-.03-.107-.07-.203-.094-.313A5.098 5.098 0 0 1 7 85V13c0-2.782 2.218-5 5-5h12V6H12z" opacity=".3" fill="url(#A)"/></g></svg>