<svg xmlns="http://www.w3.org/2000/svg" xmlns:xlink="http://www.w3.org/1999/xlink" version="1.0" width="96" height="96"><defs><linearGradient id="e"><stop offset="0" stop-color="#1c59ad"/><stop offset="1" stop-color="#377ad6"/></linearGradient><linearGradient x1="45.448" y1="92.54" x2="45.448" y2="7.017" id="g" gradientUnits="userSpaceOnUse" gradientTransform="scale(1.00587 .99417)"><stop offset="0"/><stop offset="1" stop-opacity=".588"/></linearGradient><linearGradient id="b"><stop offset="0" stop-color="#fff"/><stop offset="1" stop-color="#fff" stop-opacity="0"/></linearGradient><linearGradient id="a"><stop offset="0" stop-color="#e6e6e6"/><stop offset="1" stop-color="#f5f5f5"/></linearGradient><linearGradient x1="48" y1="90" x2="48" y2="5.988" id="n" xlink:href="#a" gradientUnits="userSpaceOnUse"/><filter color-interpolation-filters="sRGB" id="h"><feGaussianBlur stdDeviation="1.71"/></filter><linearGradient x1="36.357" y1="6" x2="36.357" y2="63.893" id="o" xlink:href="#b" gradientUnits="userSpaceOnUse"/><linearGradient x1="45.448" y1="92.54" x2="45.448" y2="7.017" id="c" gradientUnits="userSpaceOnUse" gradientTransform="matrix(1.00587 0 0 .99417 100 0)"><stop offset="0"/><stop offset="1" stop-opacity=".588"/></linearGradient><linearGradient x1="32.251" y1="6.132" x2="32.251" y2="90.239" id="j" xlink:href="#c" gradientUnits="userSpaceOnUse" gradientTransform="matrix(1.0238 0 0 1.0119 -1.143 -98.071)"/><linearGradient x1="32.251" y1="6.132" x2="32.251" y2="90.239" id="k" xlink:href="#c" gradientUnits="userSpaceOnUse" gradientTransform="matrix(1.0238 0 0 1.0119 -1.143 -98.071)"/><linearGradient x1="32.251" y1="6.132" x2="32.251" y2="90.239" id="l" xlink:href="#c" gradientUnits="userSpaceOnUse" gradientTransform="matrix(1.0238 0 0 1.0119 -1.143 -98.071)"/><linearGradient x1="32.251" y1="6.132" x2="32.251" y2="90.239" id="m" xlink:href="#c" gradientUnits="userSpaceOnUse" gradientTransform="translate(0 -97)"/><linearGradient x1="32.251" y1="6.132" x2="32.251" y2="90.239" id="i" xlink:href="#c" gradientUnits="userSpaceOnUse" gradientTransform="matrix(1.0238 0 0 1.0119 -1.143 -98.071)"/><linearGradient id="d"><stop offset="0" stop-color="#fff"/><stop offset="1" stop-color="#fff" stop-opacity="0"/></linearGradient><radialGradient cx="48" cy="90.172" r="42" fx="48" fy="90.172" id="p" xlink:href="#d" gradientUnits="userSpaceOnUse" gradientTransform="matrix(1.15731 0 0 .9959 -7.551 .197)"/><clipPath id="q"><path d="M-98 6c-3.324 0-6 2.676-6 6v72c0 3.324 2.676 6 6 6h72c3.324 0 6-2.676 6-6V12c0-3.324-2.676-6-6-6h-72zm59.063 12c.6-.01.937.031.937.031v12.063c-12.051.212-15 11.968-15 11.968h9.063v12.063h-14.094C-66.508 80.277-86 77.938-86 77.938V65.874s12.376 2.298 18.688-20.75C-60.404 19.898-43.145 18.064-38.939 18z" fill="#f0f"/></clipPath><filter x="-.162" y="-.13" width="1.324" height="1.259" color-interpolation-filters="sRGB" id="r"><feGaussianBlur stdDeviation="3.24"/></filter><linearGradient x1="46.907" y1="75.471" x2="46.907" y2="36.246" id="v" xlink:href="#e" gradientUnits="userSpaceOnUse" gradientTransform="translate(-2)"/><linearGradient id="f"><stop offset="0" stop-color="#fff"/><stop offset="1" stop-color="#fff" stop-opacity="0"/></linearGradient><clipPath id="s"><rect width="84" height="84" rx="6" ry="6" x="6" y="6" fill="#fff"/></clipPath><filter x="-.192" y="-.192" width="1.384" height="1.384" color-interpolation-filters="sRGB" id="u"><feGaussianBlur stdDeviation="5.28"/></filter><linearGradient x1="48" y1="20.221" x2="48" y2="138.661" id="t" xlink:href="#f" gradientUnits="userSpaceOnUse"/></defs><g transform="scale(1 -1)"><path d="M12-95.031c-5.511 0-10.031 4.52-10.031 10.031v71C1.969-8.489 6.489-3.969 12-3.969h72c5.511 0 10.031-4.52 10.031-10.031v-71c0-5.511-4.52-10.031-10.031-10.031H12z" opacity=".08" fill="url(#i)"/><path d="M12-94.031c-4.972 0-9.031 4.06-9.031 9.031v71c0 4.972 4.06 9.031 9.031 9.031h72c4.972 0 9.031-4.06 9.031-9.031v-71c0-4.972-4.06-9.031-9.031-9.031H12z" opacity=".1" fill="url(#j)"/><path d="M12-93c-4.41 0-8 3.59-8 8v71c0 4.41 3.59 8 8 8h72c4.41 0 8-3.59 8-8v-71c0-4.41-3.59-8-8-8H12z" opacity=".2" fill="url(#k)"/><rect width="86" height="85" rx="7" ry="7" x="5" y="-92" opacity=".3" fill="url(#l)"/><rect width="84" height="84" rx="6" ry="6" x="6" y="-91" opacity=".45" fill="url(#m)"/></g><rect width="84" height="84" rx="6" ry="6" x="6" y="6" fill="url(#n)"/><path d="M12 6c-3.324 0-6 2.676-6 6v72c0 .335.041.65.094.969.048.295.097.597.187.875l.032.094c.098.287.234.547.375.812.144.274.315.536.5.781a6.105 6.105 0 0 0 2.094 1.781c.278.14.573.247.874.344a4.843 4.843 0 0 1-.719-.375c-.007-.004-.023.005-.03 0-.033-.02-.063-.042-.095-.062-.12-.077-.23-.164-.343-.25-.106-.081-.214-.161-.313-.25a5.042 5.042 0 0 1-.5-.531 5.092 5.092 0 0 1-.312-.407c-.025-.038-.039-.086-.063-.125-.065-.103-.13-.204-.187-.312a5.371 5.371 0 0 1-.282-.625c-.007-.022-.023-.04-.03-.063-.033-.092-.037-.187-.063-.281-.03-.107-.07-.203-.094-.313A5.098 5.098 0 0 1 7 85V13c0-2.782 2.218-5 5-5h72c2.782 0 5 2.218 5 5v72c0 .364-.052.721-.125 1.063a4.896 4.896 0 0 1-.156.593c-.008.022-.024.04-.031.063a5.482 5.482 0 0 1-.22.531c-.04.083-.078.17-.124.25-.055.097-.127.188-.188.281a5.092 5.092 0 0 1-.312.406 5.05 5.05 0 0 1-.469.5l-.031.032a4.818 4.818 0 0 1-.438.344c-.102.073-.204.153-.312.218-.008.005-.024-.004-.031 0a4.843 4.843 0 0 1-.72.375c.302-.097.597-.204.876-.344a6.105 6.105 0 0 0 2.094-1.78c.184-.246.355-.508.5-.782a5.69 5.69 0 0 0 .374-.813l.032-.093c.09-.278.139-.58.187-.875.053-.318.094-.634.094-.969V12c0-3.324-2.676-6-6-6H12z" opacity=".5" fill="url(#o)"/><path d="M12 90c-3.324 0-6-2.676-6-6V12c0-.335.041-.65.094-.969.048-.295.097-.597.187-.875l.032-.094a5.69 5.69 0 0 1 .375-.812c.144-.274.315-.536.5-.781a6.105 6.105 0 0 1 2.094-1.781c.278-.14.573-.247.874-.344-.256.1-.486.236-.719.375-.007.004-.023-.005-.03 0-.033.019-.063.042-.095.062-.12.077-.23.164-.343.25-.106.081-.214.161-.313.25a5.042 5.042 0 0 0-.5.532c-.107.13-.218.265-.312.406-.025.038-.039.086-.063.125-.065.103-.13.204-.187.312a5.371 5.371 0 0 0-.282.625c-.007.022-.023.04-.03.063-.033.092-.037.187-.063.281-.03.107-.07.203-.094.313A5.098 5.098 0 0 0 7 11v72c0 2.782 2.218 5 5 5h72c2.782 0 5-2.218 5-5V11c0-.364-.052-.721-.125-1.063a4.896 4.896 0 0 0-.156-.593c-.008-.022-.024-.04-.031-.063a5.482 5.482 0 0 0-.22-.531c-.04-.083-.078-.17-.124-.25-.055-.097-.127-.188-.188-.281a5.092 5.092 0 0 0-.312-.406 5.05 5.05 0 0 0-.469-.5l-.031-.032a4.818 4.818 0 0 0-.438-.343c-.102-.074-.204-.154-.312-.22-.008-.004-.024.005-.031 0a4.843 4.843 0 0 0-.72-.374c.302.097.597.204.876.343a6.105 6.105 0 0 1 2.094 1.782c.184.245.355.507.5.781.14.265.276.525.374.813l.032.093c.09.278.139.58.187.875.053.318.094.634.094.969v72c0 3.324-2.676 6-6 6H12z" opacity=".3" fill="url(#p)"/><path d="M-38 18.02v12.07c-12.051.212-15.013 11.964-15.013 11.964h9.09v12.07h-14.094C-66.494 80.276-86 77.947-86 77.947v-12.07s12.378 2.296 18.69-20.752C-59.417 16.293-38 18.02-38 18.02z" transform="translate(110)" clip-path="url(#q)" opacity=".6" fill="none" stroke="#fff" stroke-width="2" filter="url(#r)"/><rect width="84" height="84" rx="6" ry="6" x="-104" y="6" fill="#f0f"/><g><rect width="66" height="66" rx="12" ry="12" x="15" y="15" clip-path="url(#s)" opacity=".5" fill="url(#t)" stroke="#fff" stroke-width=".5" stroke-linecap="round" filter="url(#u)"/></g><g><path d="M12 12v17.938L20.094 12H12zm9.906 0L30 29.938V12h-8.094zM21 19.031l-3.031 7h2.928L22.617 30h3.227l-2.375-5.281-.063-.125L21 19.03z" opacity=".5" fill="#999"/><path d="M26 36v40h7.656V61.344h2.657c3.007 0 5.496-.376 7.468-1.094 2.018-.727 3.626-1.692 4.813-2.875a10.26 10.26 0 0 0 2.593-4.125c.534-1.59.813-3.258.813-5 0-1.95-.294-3.658-.875-5.156a9.212 9.212 0 0 0-2.688-3.782c-1.183-1.039-2.723-1.844-4.624-2.406C41.938 36.33 39.648 36 37 36H26zm7.656 5.969h2.907c2.51 0 4.427.507 5.718 1.625 1.307 1.112 1.906 2.843 1.907 5 0 2.312-.67 4.108-2.126 5.218-1.416 1.097-3.445 1.563-6.03 1.563h-2.376V41.969zM63.875 48c-1.491 0-2.838.147-4.063.469-1.208.306-2.23.778-3.093 1.406a6.426 6.426 0 0 0-2 2.375c-.471.934-.719 2.025-.719 3.281 0 1.144.14 2.132.406 2.969.267.821.654 1.575 1.188 2.219.55.644 1.262 1.218 2.093 1.75a30.004 30.004 0 0 0 2.97 1.562c1.176.548 2.121 1.02 2.812 1.406.706.37 1.232.726 1.593 1.032.361.29.594.57.688.844.11.257.156.536.156.874 0 .339-.077.663-.219.97-.125.29-.326.555-.624.78-.283.21-.64.372-1.094.5a6.934 6.934 0 0 1-1.657.188c-.58 0-1.215-.075-1.906-.188A22.038 22.038 0 0 1 58.313 70c-.723-.21-1.45-.476-2.188-.75a20.092 20.092 0 0 1-2.063-.906v6.094c.628.29 1.232.525 1.844.718.612.194 1.247.34 1.907.469.659.129 1.356.233 2.093.281a27.88 27.88 0 0 0 2.407.094c1.632 0 3.119-.177 4.437-.531 1.318-.355 2.418-.885 3.344-1.594a7.168 7.168 0 0 0 2.156-2.656c.502-1.063.75-2.302.75-3.719 0-1.192-.186-2.225-.531-3.063A6.421 6.421 0 0 0 71 62.25c-.644-.628-1.418-1.173-2.313-1.656-.894-.5-1.885-1.001-3-1.5-.957-.451-1.747-.82-2.343-1.125a9.83 9.83 0 0 1-1.375-.875c-.33-.274-.547-.54-.657-.782a2.227 2.227 0 0 1-.187-.874c0-.613.232-1.084.656-1.438.44-.354 1.12-.531 2.094-.531 1.083 0 2.167.16 3.25.531a30.69 30.69 0 0 1 3.438 1.438l2.156-5.22c-1.491-.74-2.931-1.285-4.344-1.656a17.782 17.782 0 0 0-4.5-.562z" style="text-align:start;line-height:100%;-inkscape-font-specification:Droid Sans Bold" font-size="48" font-weight="700" fill="url(#v)" font-family="Droid Sans"/><path d="M26 36v1h11c2.65 0 4.94.329 6.813.906 1.9.562 3.44 1.367 4.624 2.407a9.212 9.212 0 0 1 2.688 3.78c.526 1.357.793 2.901.844 4.626.004-.158.031-.31.031-.469 0-1.95-.294-3.658-.875-5.156a9.212 9.212 0 0 0-2.688-3.782c-1.183-1.039-2.723-1.844-4.624-2.406C41.938 36.33 39.648 36 37 36H26zm37.875 12c-1.491 0-2.838.147-4.063.469-1.208.306-2.23.778-3.093 1.406a6.426 6.426 0 0 0-2 2.375c-.471.934-.719 2.025-.719 3.281 0 .16.026.316.031.469.062-1.03.286-1.953.688-2.75a6.426 6.426 0 0 1 2-2.375c.863-.628 1.885-1.1 3.093-1.406 1.225-.322 2.572-.469 4.063-.469 1.57 0 3.087.192 4.5.563 1.303.341 2.632.844 4 1.5l.344-.844c-1.491-.741-2.931-1.286-4.344-1.657a17.782 17.782 0 0 0-4.5-.562zm-19.719 1.125c-.097 2.054-.752 3.665-2.093 4.688-1.417 1.096-3.446 1.562-6.032 1.562h-2.375v1h2.375c2.586 0 4.615-.466 6.032-1.563 1.456-1.11 2.124-2.906 2.124-5.218 0-.162-.024-.312-.03-.469zm17.032 6.781c-.045.165-.063.34-.063.532 0 .322.078.617.188.874.11.242.326.508.656.782.33.257.778.553 1.375.875.596.306 1.386.674 2.343 1.125 1.115.499 2.106 1 3 1.5.895.483 1.67 1.028 2.313 1.656a6.421 6.421 0 0 1 1.469 2.188c.299.725.457 1.599.5 2.593.008-.177.031-.348.031-.531 0-1.192-.186-2.225-.531-3.063A6.421 6.421 0 0 0 71 62.25c-.644-.628-1.418-1.173-2.313-1.656-.894-.5-1.885-1.001-3-1.5-.957-.451-1.747-.82-2.343-1.125a9.83 9.83 0 0 1-1.375-.875c-.33-.274-.547-.54-.657-.782a2.324 2.324 0 0 1-.124-.406zm-7.126 12.438v1c.66.338 1.341.632 2.063.906.738.274 1.465.54 2.188.75.722.193 1.418.325 2.093.438.69.112 1.326.187 1.907.187.643 0 1.2-.075 1.656-.188.455-.128.811-.29 1.093-.5.299-.225.5-.49.626-.78.14-.307.218-.631.218-.97 0-.208-.023-.39-.062-.562-.037.183-.077.36-.156.531-.126.29-.327.556-.626.781-.282.21-.638.372-1.093.5a6.934 6.934 0 0 1-1.657.188c-.58 0-1.215-.075-1.906-.188A22.038 22.038 0 0 1 58.313 70c-.723-.21-1.45-.476-2.188-.75a20.092 20.092 0 0 1-2.063-.906z" style="text-align:start;line-height:100%;-inkscape-font-specification:Droid Sans Bold" font-size="48" font-weight="700" opacity=".6" fill="#123b72" font-family="Droid Sans"/><path d="M26 36v40h7.656V61.344h2.657c3.007 0 5.496-.376 7.468-1.094 2.018-.727 3.626-1.692 4.813-2.875a10.26 10.26 0 0 0 2.593-4.125c.534-1.59.813-3.258.813-5 0-1.95-.294-3.658-.875-5.156a9.212 9.212 0 0 0-2.688-3.782c-1.183-1.039-2.723-1.844-4.624-2.406C41.938 36.33 39.648 36 37 36H26zm1.063 1.063H37c2.56 0 4.752.336 6.5.874 1.785.528 3.175 1.272 4.219 2.188a1.071 1.071 0 0 0 .031 0 8.06 8.06 0 0 1 2.375 3.344c.526 1.356.812 2.94.813 4.781a14.51 14.51 0 0 1-.75 4.656c-.474 1.412-1.24 2.634-2.344 3.719-1.05 1.047-2.534 1.939-4.438 2.625-1.813.66-4.175 1.031-7.093 1.031h-2.657a1.071 1.071 0 0 0-1.062 1.063v13.593h-5.532V37.063zm6.406 3.843a1.071 1.071 0 0 0-.875 1.063v13.406a1.071 1.071 0 0 0 1.062 1.063h2.375c2.714 0 4.996-.472 6.688-1.782 1.773-1.352 2.531-3.544 2.531-6.062 0-2.356-.68-4.45-2.281-5.813-1.567-1.356-3.75-1.875-6.407-1.875h-2.906a1.071 1.071 0 0 0-.187 0zm.187 1.063h2.907c2.51 0 4.427.507 5.718 1.625 1.307 1.112 1.906 2.843 1.907 5 0 2.312-.67 4.108-2.126 5.218-1.416 1.097-3.445 1.563-6.03 1.563h-2.376V41.969zM63.875 48c-1.491 0-2.838.147-4.063.469-1.208.306-2.23.778-3.093 1.406a6.426 6.426 0 0 0-2 2.375c-.471.934-.719 2.025-.719 3.281 0 1.144.14 2.132.406 2.969.267.821.654 1.575 1.188 2.219.55.644 1.262 1.218 2.093 1.75a30.004 30.004 0 0 0 2.97 1.562c1.176.548 2.121 1.02 2.812 1.406.706.37 1.232.726 1.593 1.032.361.29.594.57.688.844.11.257.156.536.156.874 0 .339-.077.663-.219.97-.125.29-.326.555-.624.78-.283.21-.64.372-1.094.5a6.934 6.934 0 0 1-1.657.188c-.58 0-1.215-.075-1.906-.188A22.038 22.038 0 0 1 58.313 70c-.723-.21-1.45-.476-2.188-.75a20.092 20.092 0 0 1-2.063-.906v6.094c.628.29 1.232.525 1.844.718.612.194 1.247.34 1.907.469.659.129 1.356.233 2.093.281a27.88 27.88 0 0 0 2.407.094c1.632 0 3.119-.177 4.437-.531 1.318-.355 2.418-.885 3.344-1.594a7.168 7.168 0 0 0 2.156-2.656c.502-1.063.75-2.302.75-3.719 0-1.192-.186-2.225-.531-3.063A6.421 6.421 0 0 0 71 62.25c-.644-.628-1.418-1.173-2.313-1.656-.894-.5-1.885-1.001-3-1.5-.957-.451-1.747-.82-2.343-1.125a9.83 9.83 0 0 1-1.375-.875c-.33-.274-.547-.54-.657-.782a2.227 2.227 0 0 1-.187-.874c0-.613.232-1.084.656-1.438.44-.354 1.12-.531 2.094-.531 1.083 0 2.167.16 3.25.531a30.69 30.69 0 0 1 3.438 1.438l2.156-5.22c-1.491-.74-2.931-1.285-4.344-1.656a17.782 17.782 0 0 0-4.5-.562zm0 1.063c1.482 0 2.9.185 4.219.53 1.033.272 2.132.736 3.219 1.22l-1.344 3.218c-.847-.378-1.705-.759-2.5-1.031-1.2-.41-2.405-.594-3.594-.594-1.103 0-2.056.166-2.781.75a1.071 1.071 0 0 0 0 .032 2.957 2.957 0 0 0-1.032 2.25c0 .494.096.919.25 1.28a1.071 1.071 0 0 0 .032.032c.207.455.523.812.937 1.156a1.071 1.071 0 0 0 .032.032c.388.303.891.623 1.53.968.629.322 1.42.707 2.376 1.157a1.071 1.071 0 0 0 .031 0c1.086.486 2.039.984 2.906 1.468a1.071 1.071 0 0 0 .031 0 9.164 9.164 0 0 1 2.063 1.5c.54.528.924 1.098 1.219 1.813.278.676.468 1.576.469 2.656 0 1.293-.234 2.355-.657 3.25a6.132 6.132 0 0 1-1.844 2.281c-.806.617-1.765 1.083-2.968 1.406-1.21.326-2.602.5-4.156.5A26.75 26.75 0 0 1 60 74.844a1.071 1.071 0 0 0-.031 0c-.682-.045-1.311-.16-1.938-.281a16.867 16.867 0 0 1-1.812-.438c-.36-.113-.73-.257-1.094-.406v-3.75c.21.086.41.2.625.281.74.275 1.48.558 2.25.781a1.071 1.071 0 0 0 .031 0c.771.207 1.497.354 2.188.469.72.117 1.42.188 2.093.188.727 0 1.36-.084 1.907-.22a1.071 1.071 0 0 0 .031 0c.54-.152 1.021-.347 1.438-.656a1.071 1.071 0 0 0 .03-.03c.437-.33.742-.735.938-1.188.2-.433.313-.905.313-1.406 0-.416-.06-.822-.219-1.22-.008-.019.008-.042 0-.062h-.031c-.198-.522-.553-.912-.969-1.25-.009-.007-.022-.023-.031-.031-.433-.362-.987-.739-1.719-1.125-.01-.005-.022.005-.031 0-.727-.406-1.694-.888-2.875-1.438a28.522 28.522 0 0 1-2.844-1.5c-.77-.492-1.387-.995-1.844-1.53-.428-.518-.737-1.141-.968-1.844-.003-.009.002-.024 0-.032-.221-.704-.376-1.58-.376-2.625 0-1.115.237-2.042.626-2.812.398-.804.929-1.44 1.656-1.969.744-.542 1.625-.973 2.718-1.25a1.071 1.071 0 0 0 .032 0c1.114-.293 2.36-.437 3.781-.438z" style="text-align:start;line-height:100%;-inkscape-font-specification:Droid Sans Bold" font-size="48" font-weight="700" opacity=".2" fill="#0c2548" font-family="Droid Sans"/><path d="M33.656 41.969v1h2.907c2.51 0 4.427.507 5.718 1.625 1.209 1.029 1.791 2.596 1.875 4.531.009-.176.032-.35.032-.531 0-2.157-.6-3.888-1.907-5-1.291-1.118-3.207-1.625-5.718-1.625h-2.907zm18.313 6.75c-.046 1.57-.297 3.086-.782 4.531a10.26 10.26 0 0 1-2.593 4.125c-1.187 1.183-2.795 2.148-4.813 2.875-1.972.718-4.46 1.094-7.468 1.094h-2.657v1h2.657c3.007 0 5.496-.376 7.468-1.094 2.018-.727 3.626-1.692 4.813-2.875a10.26 10.26 0 0 0 2.593-4.125c.534-1.59.813-3.258.813-5 0-.184-.026-.351-.031-.531zm20.406 2.343l-1.813 4.376A30.69 30.69 0 0 0 67.126 54a9.956 9.956 0 0 0-3.25-.531c-.973 0-1.654.177-2.094.531-.424.354-.656.825-.656 1.438 0 .16.03.322.063.468.097-.362.302-.662.593-.906.44-.354 1.12-.531 2.094-.531 1.083 0 2.167.16 3.25.531a30.69 30.69 0 0 1 3.438 1.438l2.156-5.22c-.116-.057-.229-.1-.344-.156zM54.031 56c-.01.177-.031.347-.031.531 0 1.144.14 2.132.406 2.969.267.821.654 1.575 1.188 2.219.55.644 1.262 1.218 2.093 1.75a30.004 30.004 0 0 0 2.97 1.562c1.176.548 2.121 1.02 2.812 1.406.706.37 1.232.726 1.593 1.032.361.29.594.57.688.844.042.098.07.205.094.312.028-.143.062-.29.062-.438 0-.338-.046-.617-.156-.874-.094-.274-.327-.554-.688-.844-.36-.306-.887-.661-1.593-1.031-.69-.387-1.636-.86-2.813-1.407a30.004 30.004 0 0 1-2.968-1.562c-.832-.532-1.545-1.106-2.094-1.75-.534-.644-.92-1.398-1.188-2.219-.23-.721-.342-1.553-.375-2.5zM72.97 68.031c-.056 1.195-.281 2.262-.719 3.188a7.168 7.168 0 0 1-2.156 2.656c-.926.709-2.026 1.24-3.344 1.594-1.318.354-2.805.531-4.438.531-.863 0-1.668-.03-2.406-.094a16.49 16.49 0 0 1-2.093-.281 17.415 17.415 0 0 1-1.907-.469 15.487 15.487 0 0 1-1.843-.719v1c.627.29 1.231.526 1.843.72.612.193 1.247.34 1.907.468.659.129 1.356.233 2.093.281a27.88 27.88 0 0 0 2.407.094c1.632 0 3.119-.177 4.437-.531 1.318-.355 2.418-.885 3.344-1.594a7.168 7.168 0 0 0 2.156-2.656c.502-1.063.75-2.302.75-3.719 0-.16-.025-.315-.031-.469zM26 76v1h7.656v-1H26z" style="text-align:start;line-height:100%;-inkscape-font-specification:Droid Sans Bold" font-size="48" font-weight="700" opacity=".8" fill="#fff" font-family="Droid Sans"/></g></svg>