<svg xmlns="http://www.w3.org/2000/svg" xmlns:xlink="http://www.w3.org/1999/xlink" version="1.0" width="96" height="96"><defs><linearGradient id="e"><stop offset="0" stop-color="#214478"/><stop offset=".764" stop-color="#214478"/><stop offset="1" stop-color="#214478" stop-opacity="0"/></linearGradient><linearGradient x1="45.448" y1="92.54" x2="45.448" y2="7.017" id="g" gradientUnits="userSpaceOnUse" gradientTransform="scale(1.00587 .99417)"><stop offset="0"/><stop offset="1" stop-opacity=".588"/></linearGradient><linearGradient id="a"><stop offset="0" stop-color="#e6e6e6"/><stop offset="1" stop-color="#f5f5f5"/></linearGradient><linearGradient x1="48" y1="90" x2="48" y2="5.988" id="n" xlink:href="#a" gradientUnits="userSpaceOnUse"/><filter color-interpolation-filters="sRGB" id="h"><feGaussianBlur stdDeviation="1.71"/></filter><linearGradient x1="45.448" y1="92.54" x2="45.448" y2="7.017" id="b" gradientUnits="userSpaceOnUse" gradientTransform="matrix(1.00587 0 0 .99417 100 0)"><stop offset="0"/><stop offset="1" stop-opacity=".588"/></linearGradient><linearGradient x1="32.251" y1="6.132" x2="32.251" y2="90.239" id="j" xlink:href="#b" gradientUnits="userSpaceOnUse" gradientTransform="matrix(1.0238 0 0 1.0119 -1.143 -98.071)"/><linearGradient x1="32.251" y1="6.132" x2="32.251" y2="90.239" id="k" xlink:href="#b" gradientUnits="userSpaceOnUse" gradientTransform="matrix(1.0238 0 0 1.0119 -1.143 -98.071)"/><linearGradient x1="32.251" y1="6.132" x2="32.251" y2="90.239" id="l" xlink:href="#b" gradientUnits="userSpaceOnUse" gradientTransform="matrix(1.0238 0 0 1.0119 -1.143 -98.071)"/><linearGradient x1="32.251" y1="6.132" x2="32.251" y2="90.239" id="m" xlink:href="#b" gradientUnits="userSpaceOnUse" gradientTransform="translate(0 -97)"/><linearGradient x1="32.251" y1="6.132" x2="32.251" y2="90.239" id="i" xlink:href="#b" gradientUnits="userSpaceOnUse" gradientTransform="matrix(1.0238 0 0 1.0119 -1.143 -98.071)"/><linearGradient id="d"><stop offset="0" stop-color="#fff"/><stop offset="1" stop-color="#fff" stop-opacity="0"/></linearGradient><radialGradient cx="48" cy="90.172" r="42" fx="48" fy="90.172" id="p" xlink:href="#c" gradientUnits="userSpaceOnUse" gradientTransform="matrix(1.15731 0 0 .9959 -7.551 .197)"/><linearGradient id="c"><stop offset="0" stop-color="#fff"/><stop offset="1" stop-color="#fff" stop-opacity="0"/></linearGradient><linearGradient x1="36.357" y1="6" x2="36.357" y2="63.893" id="o" xlink:href="#d" gradientUnits="userSpaceOnUse"/><linearGradient x1="47.997" y1="16.5" x2="90" y2="16.5" id="y" xlink:href="#e" gradientUnits="userSpaceOnUse" gradientTransform="translate(0 63)" spreadMethod="reflect"/><linearGradient x1="47.997" y1="16.5" x2="90" y2="16.5" id="x" xlink:href="#e" gradientUnits="userSpaceOnUse" gradientTransform="translate(0 55)" spreadMethod="reflect"/><linearGradient x1="47.997" y1="16.5" x2="90" y2="16.5" id="w" xlink:href="#e" gradientUnits="userSpaceOnUse" gradientTransform="translate(0 47)" spreadMethod="reflect"/><linearGradient x1="47.997" y1="16.5" x2="90" y2="16.5" id="v" xlink:href="#e" gradientUnits="userSpaceOnUse" gradientTransform="translate(0 39)" spreadMethod="reflect"/><linearGradient x1="47.997" y1="16.5" x2="90" y2="16.5" id="u" xlink:href="#e" gradientUnits="userSpaceOnUse" gradientTransform="translate(0 31)" spreadMethod="reflect"/><linearGradient x1="47.997" y1="16.5" x2="90" y2="16.5" id="t" xlink:href="#e" gradientUnits="userSpaceOnUse" gradientTransform="translate(0 23)" spreadMethod="reflect"/><linearGradient id="f"><stop offset="0" stop-color="#fff"/><stop offset="1" stop-color="#fff" stop-opacity="0"/></linearGradient><clipPath id="q"><rect width="84" height="84" rx="6" ry="6" x="6" y="6" fill="#fff"/></clipPath><filter x="-.192" y="-.192" width="1.384" height="1.384" color-interpolation-filters="sRGB" id="s"><feGaussianBlur stdDeviation="5.28"/></filter><linearGradient x1="48" y1="20.221" x2="48" y2="138.661" id="r" xlink:href="#f" gradientUnits="userSpaceOnUse"/></defs><g transform="scale(1 -1)"><path d="M12-95.031c-5.511 0-10.031 4.52-10.031 10.031v71C1.969-8.489 6.489-3.969 12-3.969h72c5.511 0 10.031-4.52 10.031-10.031v-71c0-5.511-4.52-10.031-10.031-10.031H12z" opacity=".08" fill="url(#i)"/><path d="M12-94.031c-4.972 0-9.031 4.06-9.031 9.031v71c0 4.972 4.06 9.031 9.031 9.031h72c4.972 0 9.031-4.06 9.031-9.031v-71c0-4.972-4.06-9.031-9.031-9.031H12z" opacity=".1" fill="url(#j)"/><path d="M12-93c-4.41 0-8 3.59-8 8v71c0 4.41 3.59 8 8 8h72c4.41 0 8-3.59 8-8v-71c0-4.41-3.59-8-8-8H12z" opacity=".2" fill="url(#k)"/><rect width="86" height="85" rx="7" ry="7" x="5" y="-92" opacity=".3" fill="url(#l)"/><rect width="84" height="84" rx="6" ry="6" x="6" y="-91" opacity=".45" fill="url(#m)"/></g><rect width="84" height="84" rx="6" ry="6" x="6" y="6" fill="url(#n)"/><path d="M12 6c-3.324 0-6 2.676-6 6v72c0 .335.041.65.094.969.048.295.097.597.187.875l.032.094c.098.287.234.547.375.812.144.274.315.536.5.781a6.105 6.105 0 0 0 2.094 1.781c.278.14.573.247.874.344a4.843 4.843 0 0 1-.719-.375c-.007-.004-.023.005-.03 0-.033-.02-.063-.042-.095-.062-.12-.077-.23-.164-.343-.25-.106-.081-.214-.161-.313-.25a5.042 5.042 0 0 1-.5-.531 5.092 5.092 0 0 1-.312-.407c-.025-.038-.039-.086-.063-.125-.065-.103-.13-.204-.187-.312a5.371 5.371 0 0 1-.282-.625c-.008-.022-.023-.04-.03-.063-.033-.092-.037-.187-.063-.281-.03-.107-.07-.203-.094-.313A5.098 5.098 0 0 1 7 85V13c0-2.782 2.218-5 5-5h72c2.782 0 5 2.218 5 5v72c0 .364-.052.721-.125 1.063a4.896 4.896 0 0 1-.156.593c-.008.022-.024.04-.031.063a5.482 5.482 0 0 1-.22.531c-.04.083-.078.17-.124.25-.055.097-.127.188-.188.281a5.092 5.092 0 0 1-.312.406 5.05 5.05 0 0 1-.469.5l-.031.032a4.818 4.818 0 0 1-.438.344c-.102.073-.204.153-.312.218-.008.005-.024-.004-.031 0a4.843 4.843 0 0 1-.72.375c.302-.097.597-.204.876-.344a6.105 6.105 0 0 0 2.094-1.78c.184-.246.355-.508.5-.782a5.69 5.69 0 0 0 .374-.813l.032-.093c.09-.278.139-.58.187-.875.053-.318.094-.634.094-.969V12c0-3.324-2.676-6-6-6H12z" opacity=".5" fill="url(#o)"/><path d="M12 90c-3.324 0-6-2.676-6-6V12c0-.335.041-.65.094-.969.048-.295.097-.597.187-.875l.032-.094a5.69 5.69 0 0 1 .375-.812c.144-.274.315-.536.5-.781a6.105 6.105 0 0 1 2.094-1.781c.278-.14.573-.247.874-.344-.256.1-.486.236-.719.375-.007.004-.023-.005-.03 0-.033.019-.063.042-.095.062-.12.077-.23.164-.343.25-.106.081-.214.161-.313.25a5.042 5.042 0 0 0-.5.532c-.107.13-.218.265-.312.406-.025.038-.039.086-.063.125-.065.103-.13.204-.187.312a5.371 5.371 0 0 0-.282.625c-.007.022-.023.04-.03.063-.033.092-.037.187-.063.281-.03.107-.07.203-.094.313A5.098 5.098 0 0 0 7 11v72c0 2.782 2.218 5 5 5h72c2.782 0 5-2.218 5-5V11c0-.364-.052-.721-.125-1.063a4.896 4.896 0 0 0-.156-.593c-.008-.022-.024-.04-.031-.063a5.482 5.482 0 0 0-.22-.531c-.04-.083-.078-.17-.124-.25-.055-.097-.127-.188-.188-.281a5.092 5.092 0 0 0-.312-.406 5.05 5.05 0 0 0-.469-.5l-.031-.032a4.818 4.818 0 0 0-.438-.343c-.102-.074-.204-.154-.312-.22-.008-.004-.024.005-.031 0a4.843 4.843 0 0 0-.72-.374c.302.097.597.204.876.343a6.105 6.105 0 0 1 2.094 1.782c.184.245.355.507.5.781.14.265.276.525.374.813l.032.093c.09.278.139.58.187.875.053.318.094.634.094.969v72c0 3.324-2.676 6-6 6H12z" opacity=".4" fill="url(#p)"/><rect width="84" height="84" rx="6" ry="6" x="-94" y="6" fill="#f0f"/><path style="marker:none" color="#000" fill="#fff" stroke="#000" stroke-width=".5" stroke-linecap="round" stroke-dashoffset="8.6" overflow="visible" enable-background="accumulate" d="M112 8h16v16h-16z"/><text x="131.393" y="11.969" style="text-align:start;line-height:125%;-inkscape-font-specification:Liberation Sans" font-size="4" font-weight="400" font-family="Liberation Sans"><tspan x="131.393" y="11.969">Width: 2px</tspan><tspan x="131.393" y="16.969">Blur: 12</tspan><tspan x="131.393" y="21.969">Opacity: 60</tspan></text><g><rect width="66" height="66" rx="12" ry="12" x="15" y="15" clip-path="url(#q)" opacity=".5" fill="url(#r)" stroke="#fff" stroke-width=".5" stroke-linecap="round" filter="url(#s)"/></g><g><path d="M32.57 31.294V32h-5.872v-.706l2.024-.36L34.806 14h2.53l6.324 16.935 2.263.36V32h-7.549v-.706l2.397-.36L39 25.784h-7.03l-1.797 5.152 2.397.36m2.862-15.378l-3.062 8.667h6.217l-3.155-8.667M56 25.554c0-.849-.08-1.56-.237-2.136-.15-.582-.37-1.053-.662-1.411a2.328 2.328 0 0 0-1.037-.762 3.604 3.604 0 0 0-1.337-.237c-.2 0-.416.008-.65.025-.224.016-.449.045-.674.087a7.488 7.488 0 0 0-.65.125c-.208.05-.387.108-.536.175v9.306c.35.067.749.116 1.199.15.45.033.887.05 1.311.05 1.15 0 1.982-.45 2.499-1.35.516-.899.774-2.24.774-4.022m-7.857-10.692l-1.711-.3V14h3.785v4.197c0 .158-.005.342-.013.55 0 .2-.004.412-.012.637 0 .216-.009.437-.025.662l-.025.624a4.463 4.463 0 0 1 1.361-.7 5.543 5.543 0 0 1 1.786-.274c1.6 0 2.823.487 3.673 1.462.858.966 1.286 2.431 1.286 4.396 0 .991-.108 1.887-.324 2.686-.217.791-.55 1.466-1 2.024-.45.558-1.02.987-1.71 1.286-.684.3-1.496.45-2.437.45-.4 0-.808-.025-1.224-.075-.408-.042-.812-.1-1.212-.175-.4-.075-.787-.162-1.161-.262-.375-.108-.72-.225-1.037-.35V14.862M69.74 31.038a3.76 3.76 0 0 1-.774.425c-.3.116-.62.212-.961.287a9.513 9.513 0 0 1-2.149.25c-1.016 0-1.886-.137-2.61-.412-.717-.283-1.304-.691-1.762-1.224-.458-.533-.795-1.183-1.012-1.949-.216-.774-.325-1.649-.325-2.623 0-1.066.138-1.982.413-2.748.283-.775.674-1.408 1.174-1.899.5-.5 1.09-.866 1.774-1.1a7.034 7.034 0 0 1 2.26-.349c.675 0 1.329.042 1.962.125.633.075 1.207.162 1.723.262v3.273h-.687l-.537-2.074a4.404 4.404 0 0 0-1.124-.424 5.595 5.595 0 0 0-1.361-.163c-.542 0-1.02.1-1.437.3-.408.192-.758.496-1.05.912-.282.416-.499.945-.649 1.586-.141.642-.212 1.408-.212 2.299 0 .75.062 1.428.187 2.036.125.6.346 1.112.662 1.536a3.1 3.1 0 0 0 1.274.987c.542.233 1.225.35 2.049.35.283 0 .57-.008.862-.025.3-.025.587-.054.862-.088.283-.041.545-.087.787-.137.25-.05.47-.104.662-.162v.75" style="text-align:start;line-height:100%;-inkscape-font-specification:Liberation Serif" font-size="25.582" font-weight="400" fill="#214478" font-family="Liberation Serif"/><g style="text-align:start;line-height:200%;-inkscape-font-specification:Liberation Serif" font-size="4" font-weight="400" fill="#214478" font-family="Liberation Serif"><path d="M23.264 37.26l-.405.05v2.297h.516c.163 0 .296-.004.398-.013.103-.01.174-.018.213-.026l.121-.545h.127l-.035.752h-2.053v-.103l.336-.053v-2.308l-.336-.051v-.104h1.118v.104M26.324 38.848c0 .31-.07.55-.209.716-.14.167-.356.25-.65.25-.276 0-.485-.082-.625-.248-.14-.165-.211-.405-.211-.718 0-.31.07-.547.21-.711.141-.164.355-.246.641-.246.28 0 .49.08.631.242.142.16.213.398.213.715m-.351 0c0-.127-.009-.24-.026-.338a.726.726 0 0 0-.086-.252.392.392 0 0 0-.156-.156.486.486 0 0 0-.24-.055.468.468 0 0 0-.238.055.375.375 0 0 0-.149.156.756.756 0 0 0-.076.252 2.378 2.378 0 0 0-.022.338c0 .127.008.241.022.341a.8.8 0 0 0 .076.256.401.401 0 0 0 .149.16.468.468 0 0 0 .238.055.486.486 0 0 0 .24-.055.42.42 0 0 0 .156-.16.768.768 0 0 0 .086-.256c.017-.1.026-.214.026-.341M27.773 37.89v.497h-.084l-.113-.215a1.392 1.392 0 0 0-.242.03 1.17 1.17 0 0 0-.22.066v1.37l.314.05v.087h-.871v-.088l.232-.048v-1.563l-.232-.049v-.088h.535l.017.229a1.704 1.704 0 0 1 .473-.248.543.543 0 0 1 .162-.03h.03M28.32 38.852v.035c0 .095.007.186.02.273a.657.657 0 0 0 .082.233c.042.066.1.12.174.16a.63.63 0 0 0 .293.058 2.04 2.04 0 0 0 .377-.035 1.7 1.7 0 0 0 .111-.021v.11a.707.707 0 0 1-.11.056 1.324 1.324 0 0 1-.474.093c-.152 0-.281-.02-.387-.062a.603.603 0 0 1-.254-.186.767.767 0 0 1-.14-.304 1.826 1.826 0 0 1-.043-.418c0-.32.067-.56.2-.717.135-.158.326-.236.575-.236.098 0 .189.013.274.039a.55.55 0 0 1 .375.377c.037.103.056.23.056.384v.16H28.32m.424-.804a.368.368 0 0 0-.19.047.375.375 0 0 0-.13.129.654.654 0 0 0-.076.205c-.016.08-.024.168-.024.267h.785a1.85 1.85 0 0 0-.017-.267.625.625 0 0 0-.059-.205.31.31 0 0 0-.111-.13.314.314 0 0 0-.178-.046M30.223 38.088a1.917 1.917 0 0 1 .285-.131c.053-.02.107-.035.162-.047a.6.6 0 0 1 .4.031.342.342 0 0 1 .172.163 2.018 2.018 0 0 1 .52-.193.833.833 0 0 1 .168-.02c.07 0 .134.01.191.029.057.02.106.05.147.094a.422.422 0 0 1 .095.168.782.782 0 0 1 .035.25v1.207l.237.049v.087H31.8v-.087l.273-.05v-1.171c0-.108-.025-.19-.074-.248-.048-.059-.128-.088-.238-.088a1.07 1.07 0 0 0-.12.008c-.044.005-.089.01-.134.017a42.436 42.436 0 0 1-.23.043c.021.07.033.148.033.233v1.207l.275.049v.087h-.871v-.087l.271-.05v-1.171c0-.108-.028-.191-.084-.248-.054-.059-.137-.088-.248-.088-.036 0-.075.002-.115.006l-.117.013a3.094 3.094 0 0 0-.195.037v1.452l.275.049v.087h-.832v-.087l.232-.05v-1.562l-.232-.049v-.088h.537l.016.149M34.436 37.34a.198.198 0 0 1-.018.082.207.207 0 0 1-.045.066.228.228 0 0 1-.068.047.219.219 0 0 1-.164 0 .237.237 0 0 1-.114-.113.219.219 0 0 1 0-.164.228.228 0 0 1 .047-.069.207.207 0 0 1 .067-.044.198.198 0 0 1 .164 0 .201.201 0 0 1 .113.113.198.198 0 0 1 .018.082m-.02 2.299l.314.049v.087h-.95v-.087l.312-.05v-1.562l-.26-.049v-.088h.584v1.7M35.102 38.076l-.21-.049v-.088h.516l.004.108a.467.467 0 0 1 .096-.063.874.874 0 0 1 .404-.094c.115 0 .218.02.309.061.09.04.168.101.232.182a.81.81 0 0 1 .145.297c.033.117.05.252.05.406 0 .15-.017.285-.05.406a.878.878 0 0 1-.153.309.67.67 0 0 1-.256.195.867.867 0 0 1-.357.068c-.066 0-.137-.003-.21-.011a1.712 1.712 0 0 1-.21-.032 3.23 3.23 0 0 1 .012.221v.496l.32.047v.092h-.875v-.092l.233-.047v-2.412m1.195.76a1.5 1.5 0 0 0-.033-.34.627.627 0 0 0-.098-.228.371.371 0 0 0-.154-.131.502.502 0 0 0-.207-.041 1.254 1.254 0 0 0-.381.064v1.467a2.038 2.038 0 0 0 .38.033.397.397 0 0 0 .376-.213c.078-.143.117-.347.117-.611M38.217 39.26a.637.637 0 0 1-.04.226.436.436 0 0 1-.118.176.58.58 0 0 1-.213.113c-.086.026-.19.04-.313.04a1.812 1.812 0 0 1-.346-.037 1.5 1.5 0 0 1-.214-.055v-.452h.088l.095.256a.53.53 0 0 0 .157.094c.063.026.138.04.224.04a.438.438 0 0 0 .28-.079c.066-.053.099-.135.099-.246a.287.287 0 0 0-.041-.16.352.352 0 0 0-.107-.108.631.631 0 0 0-.153-.07 8.99 8.99 0 0 0-.174-.059 2.166 2.166 0 0 1-.173-.066.58.58 0 0 1-.15-.096.44.44 0 0 1-.108-.146.517.517 0 0 1-.041-.219c0-.083.015-.157.045-.223a.46.46 0 0 1 .125-.164.556.556 0 0 1 .193-.1.834.834 0 0 1 .248-.034c.089 0 .175.006.26.02.084.01.166.025.244.04v.4h-.092l-.082-.212a.338.338 0 0 0-.139-.069.725.725 0 0 0-.187-.023c-.105 0-.186.026-.242.078a.278.278 0 0 0-.082.21c0 .06.013.11.04.15.028.037.064.07.108.097a.888.888 0 0 0 .154.068l.176.06c.06.022.119.046.176.073.057.026.108.06.152.102a.466.466 0 0 1 .15.375M38.97 39.252c0 .108.025.191.073.25.05.057.13.086.24.086a1.588 1.588 0 0 0 .453-.06v-1.452l-.277-.049v-.088h.6v1.7l.232.049v.087h-.535l-.016-.148a1.867 1.867 0 0 1-.469.17.786.786 0 0 1-.156.017.591.591 0 0 1-.191-.029.37.37 0 0 1-.149-.094.457.457 0 0 1-.095-.166.825.825 0 0 1-.034-.25v-1.199l-.234-.049v-.088h.559v1.313M40.996 38.088a1.917 1.917 0 0 1 .285-.131c.054-.02.108-.035.162-.047a.6.6 0 0 1 .4.031.342.342 0 0 1 .173.163 2.018 2.018 0 0 1 .52-.193.833.833 0 0 1 .167-.02c.07 0 .134.01.192.029.057.02.106.05.146.094a.422.422 0 0 1 .096.168.782.782 0 0 1 .035.25v1.207l.236.049v.087h-.834v-.087l.274-.05v-1.171c0-.108-.025-.19-.075-.248-.048-.059-.127-.088-.238-.088a1.07 1.07 0 0 0-.119.008c-.044.005-.09.01-.135.017a42.329 42.329 0 0 1-.23.043c.022.07.033.148.033.233v1.207l.275.049v.087h-.87v-.087l.27-.05v-1.171c0-.108-.027-.191-.083-.248-.055-.059-.138-.088-.248-.088-.037 0-.075.002-.115.006l-.118.013a3.094 3.094 0 0 0-.195.037v1.452l.275.049v.087h-.832v-.087l.233-.05v-1.562l-.233-.049v-.088h.537l.016.149M45.88 39.639a.781.781 0 0 1-.516.176c-.5 0-.75-.314-.75-.94 0-.152.016-.29.048-.41a.838.838 0 0 1 .154-.31.654.654 0 0 1 .262-.196.94.94 0 0 1 .375-.068 2.018 2.018 0 0 1 .428.045.51.51 0 0 1-.006-.063 23.801 23.801 0 0 1-.006-.186V37.135l-.309-.047V37h.633v2.639l.227.049v.087h-.516l-.023-.136m-.916-.764c0 .137.011.252.035.346.025.093.06.17.103.228a.39.39 0 0 0 .16.125.563.563 0 0 0 .21.037 1.008 1.008 0 0 0 .396-.076v-1.451a2.293 2.293 0 0 0-.396-.033.417.417 0 0 0-.385.209c-.082.14-.123.344-.123.615M48.316 38.848c0 .31-.07.55-.209.716-.139.167-.356.25-.65.25-.276 0-.484-.082-.625-.248-.14-.165-.21-.405-.21-.718 0-.31.07-.547.21-.711.14-.164.354-.246.64-.246.28 0 .49.08.632.242.141.16.212.398.212.715m-.351 0c0-.127-.009-.24-.026-.338a.726.726 0 0 0-.085-.252.392.392 0 0 0-.157-.156.486.486 0 0 0-.24-.055.468.468 0 0 0-.238.055.375.375 0 0 0-.149.156.756.756 0 0 0-.076.252 2.38 2.38 0 0 0-.021.338c0 .127.007.241.021.341a.8.8 0 0 0 .076.256.401.401 0 0 0 .149.16.468.468 0 0 0 .238.055.486.486 0 0 0 .24-.055.42.42 0 0 0 .157-.16.768.768 0 0 0 .085-.256c.017-.1.026-.214.026-.341M49.186 39.639l.314.049v.087h-.951v-.087l.312-.05v-2.503l-.312-.047V37h.637v2.639M51.426 38.848c0 .31-.07.55-.21.716-.139.167-.355.25-.65.25-.276 0-.484-.082-.625-.248-.14-.165-.21-.405-.21-.718 0-.31.07-.547.21-.711.141-.164.355-.246.641-.246.279 0 .489.08.63.242.143.16.214.398.214.715m-.352 0c0-.127-.008-.24-.025-.338a.726.726 0 0 0-.086-.252.392.392 0 0 0-.156-.156.486.486 0 0 0-.24-.055.468.468 0 0 0-.239.055.375.375 0 0 0-.148.156.756.756 0 0 0-.076.252 2.38 2.38 0 0 0-.022.338c0 .127.007.241.022.341a.8.8 0 0 0 .076.256.401.401 0 0 0 .148.16.468.468 0 0 0 .238.055.486.486 0 0 0 .24-.055.42.42 0 0 0 .157-.16.768.768 0 0 0 .086-.256c.017-.1.025-.214.025-.341M52.875 37.89v.497h-.084l-.113-.215a1.392 1.392 0 0 0-.242.03 1.17 1.17 0 0 0-.221.066v1.37l.314.05v.087h-.87v-.088l.232-.048v-1.563l-.233-.049v-.088h.535l.018.229a1.704 1.704 0 0 1 .473-.248.543.543 0 0 1 .162-.03h.029M55.326 39.26a.637.637 0 0 1-.039.226.436.436 0 0 1-.119.176.58.58 0 0 1-.213.113c-.086.026-.19.04-.312.04a1.812 1.812 0 0 1-.346-.037 1.5 1.5 0 0 1-.215-.055v-.452h.088l.096.256a.53.53 0 0 0 .156.094c.064.026.139.04.224.04a.438.438 0 0 0 .28-.079c.066-.053.1-.135.1-.246a.287.287 0 0 0-.042-.16.352.352 0 0 0-.107-.108.631.631 0 0 0-.152-.07 8.99 8.99 0 0 0-.174-.059 2.166 2.166 0 0 1-.174-.066.58.58 0 0 1-.15-.096.44.44 0 0 1-.108-.146.517.517 0 0 1-.04-.219c0-.083.014-.157.044-.223a.46.46 0 0 1 .125-.164.556.556 0 0 1 .193-.1.834.834 0 0 1 .248-.034c.089 0 .176.006.26.02.085.01.166.025.244.04v.4h-.091l-.082-.212a.338.338 0 0 0-.14-.069.725.725 0 0 0-.187-.023c-.105 0-.186.026-.242.078a.278.278 0 0 0-.082.21c0 .06.014.11.041.15.027.037.063.07.108.097a.888.888 0 0 0 .154.068l.176.06c.06.022.118.046.175.073.058.026.109.06.153.102a.466.466 0 0 1 .15.375M56.209 37.34a.198.198 0 0 1-.018.082.207.207 0 0 1-.045.066.228.228 0 0 1-.068.047.219.219 0 0 1-.164 0 .237.237 0 0 1-.113-.113.219.219 0 0 1 0-.164.228.228 0 0 1 .047-.069.207.207 0 0 1 .066-.044.198.198 0 0 1 .164 0 .201.201 0 0 1 .113.113.198.198 0 0 1 .018.082m-.02 2.299l.315.049v.087h-.951v-.087l.312-.05v-1.562l-.26-.049v-.088h.584v1.7M57.23 39.814c-.125 0-.218-.037-.28-.11a.478.478 0 0 1-.093-.313v-1.287h-.24v-.088l.244-.077.198-.416h.123v.416h.42v.165h-.42v1.251c0 .085.019.149.056.192.04.043.09.064.153.064.048 0 .095-.003.142-.01a2.37 2.37 0 0 0 .133-.021v.127a.67.67 0 0 1-.184.072 1.043 1.043 0 0 1-.252.035M59.596 37.898c.083 0 .16.008.232.024a.49.49 0 0 1 .186.08.37.37 0 0 1 .12.154.57.57 0 0 1 .046.242v1.24l.228.05v.087h-.504l-.037-.183a.84.84 0 0 1-.199.142.892.892 0 0 1-.37.08.55.55 0 0 1-.224-.04.37.37 0 0 1-.144-.114.471.471 0 0 1-.078-.174.971.971 0 0 1-.024-.218c0-.081.01-.15.03-.21.019-.06.046-.11.081-.15a.425.425 0 0 1 .123-.097.692.692 0 0 1 .155-.061c.056-.014.114-.024.176-.03.062-.005.125-.008.187-.01l.275-.007v-.287a.742.742 0 0 0-.013-.148.316.316 0 0 0-.047-.118.212.212 0 0 0-.086-.076.304.304 0 0 0-.137-.027.738.738 0 0 0-.357.092l-.067.228h-.109v-.4c.085-.018.172-.034.262-.047.09-.014.19-.022.295-.022m.26.942l-.256.008c-.077.002-.144.01-.2.023a.317.317 0 0 0-.138.063.27.27 0 0 0-.082.123.612.612 0 0 0-.028.199c0 .229.093.344.28.344.088 0 .164-.01.228-.03.065-.02.13-.047.195-.078v-.652M61.098 38.088a1.917 1.917 0 0 1 .285-.131c.053-.02.107-.035.162-.047a.6.6 0 0 1 .4.031.342.342 0 0 1 .172.163 2.018 2.018 0 0 1 .52-.193.833.833 0 0 1 .168-.02c.07 0 .134.01.191.029.057.02.106.05.147.094a.422.422 0 0 1 .095.168.782.782 0 0 1 .035.25v1.207l.237.049v.087h-.834v-.087l.273-.05v-1.171c0-.108-.025-.19-.074-.248-.048-.059-.128-.088-.238-.088a1.07 1.07 0 0 0-.12.008c-.044.005-.089.01-.134.017a42.436 42.436 0 0 1-.23.043c.021.07.033.148.033.233v1.207l.275.049v.087h-.871v-.087l.271-.05v-1.171c0-.108-.028-.191-.084-.248-.054-.059-.137-.088-.248-.088-.036 0-.075.002-.115.006l-.117.013a3.086 3.086 0 0 0-.195.037v1.452l.275.049v.087h-.832v-.087l.232-.05v-1.562l-.232-.049v-.088h.537l.016.149M64.078 38.852v.035c0 .095.007.186.02.273a.657.657 0 0 0 .082.233c.041.066.1.12.174.16a.63.63 0 0 0 .292.058 2.04 2.04 0 0 0 .377-.035 1.7 1.7 0 0 0 .112-.021v.11a.707.707 0 0 1-.11.056 1.324 1.324 0 0 1-.474.093c-.153 0-.281-.02-.387-.062a.603.603 0 0 1-.254-.186.767.767 0 0 1-.14-.304 1.826 1.826 0 0 1-.043-.418c0-.32.067-.56.2-.717.135-.158.326-.236.575-.236.098 0 .189.013.273.039a.55.55 0 0 1 .375.377c.038.103.057.23.057.384v.16h-1.129m.424-.804a.368.368 0 0 0-.19.047.375.375 0 0 0-.13.129.654.654 0 0 0-.077.205c-.015.08-.023.168-.023.267h.785a1.85 1.85 0 0 0-.017-.267.625.625 0 0 0-.059-.205.31.31 0 0 0-.111-.13.314.314 0 0 0-.178-.046M65.996 39.814c-.125 0-.219-.037-.281-.11a.478.478 0 0 1-.092-.313v-1.287h-.24v-.088l.244-.077.197-.416h.123v.416h.42v.165h-.42v1.251c0 .085.02.149.057.192.039.043.09.064.152.064.048 0 .096-.003.143-.01a2.37 2.37 0 0 0 .133-.021v.127a.67.67 0 0 1-.184.072 1.043 1.043 0 0 1-.252.035M67.201 39.68a.75.75 0 0 1-.033.222.58.58 0 0 1-.104.202.736.736 0 0 1-.183.166c-.076.049-.167.09-.276.12v-.15a.642.642 0 0 0 .26-.138.257.257 0 0 0 .084-.19.096.096 0 0 0-.02-.06.226.226 0 0 0-.048-.043.961.961 0 0 0-.065-.036.397.397 0 0 1-.062-.04.222.222 0 0 1-.049-.061.195.195 0 0 1-.02-.092c0-.07.023-.124.067-.16a.253.253 0 0 1 .17-.057.269.269 0 0 1 .256.182.36.36 0 0 1 .023.135M69.193 37.34a.198.198 0 0 1-.017.082.207.207 0 0 1-.045.066.228.228 0 0 1-.069.047.219.219 0 0 1-.164 0 .237.237 0 0 1-.113-.113.219.219 0 0 1 0-.164.228.228 0 0 1 .047-.069.207.207 0 0 1 .066-.044.198.198 0 0 1 .164 0 .201.201 0 0 1 .114.113.198.198 0 0 1 .017.082m-.02 2.299l.315.049v.087h-.95v-.087l.312-.05v-1.562l-.26-.049v-.088h.584v1.7M70.975 39.639a.781.781 0 0 1-.516.176c-.501 0-.752-.314-.752-.94 0-.152.016-.29.049-.41a.838.838 0 0 1 .154-.31.654.654 0 0 1 .262-.196.94.94 0 0 1 .375-.068 2.018 2.018 0 0 1 .428.045.51.51 0 0 1-.006-.063 23.801 23.801 0 0 1-.006-.186V37.135l-.309-.047V37h.633v2.639l.227.049v.087h-.516l-.023-.136m-.916-.764c0 .137.011.252.035.346.024.093.059.17.103.228a.39.39 0 0 0 .16.125.563.563 0 0 0 .21.037 1.008 1.008 0 0 0 .396-.076v-1.451a2.293 2.293 0 0 0-.396-.033.417.417 0 0 0-.385.209c-.082.14-.123.344-.123.615M23.684 47.664a.588.588 0 0 1-.122.066 1.327 1.327 0 0 1-.486.084c-.159 0-.295-.021-.408-.064a.69.69 0 0 1-.275-.191.79.79 0 0 1-.159-.305 1.524 1.524 0 0 1-.05-.41c0-.167.021-.31.064-.43a.788.788 0 0 1 .184-.297.712.712 0 0 1 .277-.172 1.1 1.1 0 0 1 .353-.054c.106 0 .208.006.307.02.1.01.189.025.27.04v.512h-.108l-.084-.324a.875.875 0 0 0-.389-.092.513.513 0 0 0-.224.047.416.416 0 0 0-.164.142.737.737 0 0 0-.102.248c-.022.1-.033.22-.033.36 0 .117.01.223.03.318.019.094.054.174.103.24.05.067.116.118.2.155a.813.813 0 0 0 .32.054 2.366 2.366 0 0 0 .269-.017 2.157 2.157 0 0 0 .227-.047v.117M25.652 46.848c0 .31-.07.55-.209.716-.139.167-.356.25-.65.25-.276 0-.484-.082-.625-.248-.14-.165-.211-.405-.211-.718 0-.31.07-.547.211-.711.14-.164.354-.246.64-.246.28 0 .49.08.631.242.142.16.213.398.213.715m-.351 0c0-.127-.009-.24-.026-.338a.726.726 0 0 0-.086-.252.392.392 0 0 0-.156-.156.486.486 0 0 0-.24-.055.468.468 0 0 0-.238.055.375.375 0 0 0-.149.156.756.756 0 0 0-.076.252 2.378 2.378 0 0 0-.021.338c0 .127.007.241.021.341a.8.8 0 0 0 .076.256.401.401 0 0 0 .149.16.468.468 0 0 0 .238.055.486.486 0 0 0 .24-.055.42.42 0 0 0 .156-.16.768.768 0 0 0 .086-.256c.017-.1.026-.214.026-.341M26.438 46.088a1.917 1.917 0 0 1 .287-.131c.054-.02.109-.035.164-.047a.66.66 0 0 1 .345.01c.059.02.11.05.15.094a.427.427 0 0 1 .1.168.744.744 0 0 1 .037.25v1.207l.223.049v.087h-.79v-.087l.243-.05v-1.171a.373.373 0 0 0-.08-.254c-.052-.063-.133-.094-.244-.094-.036 0-.075.002-.115.006l-.12.014a3.094 3.094 0 0 0-.197.037v1.463l.248.049v.087h-.793v-.087l.221-.05v-1.562l-.22-.049v-.088h.523l.018.149M29.217 47.26a.637.637 0 0 1-.04.226.436.436 0 0 1-.118.176.58.58 0 0 1-.213.113c-.086.026-.19.04-.313.04a1.812 1.812 0 0 1-.346-.037 1.5 1.5 0 0 1-.214-.055v-.452h.088l.095.256a.53.53 0 0 0 .157.094c.063.026.138.04.224.04a.438.438 0 0 0 .28-.079c.066-.053.099-.135.099-.246a.287.287 0 0 0-.041-.16.352.352 0 0 0-.107-.108.631.631 0 0 0-.153-.07 8.99 8.99 0 0 0-.174-.059 2.166 2.166 0 0 1-.173-.066.58.58 0 0 1-.15-.096.44.44 0 0 1-.108-.146.517.517 0 0 1-.041-.219c0-.083.015-.157.045-.223a.46.46 0 0 1 .125-.164.556.556 0 0 1 .193-.1.834.834 0 0 1 .248-.034c.089 0 .175.006.26.02.084.01.166.025.244.04v.4h-.092l-.082-.212a.338.338 0 0 0-.139-.069.725.725 0 0 0-.187-.023c-.105 0-.186.026-.242.078a.278.278 0 0 0-.082.21c0 .06.013.11.04.15.028.037.064.07.108.097a.888.888 0 0 0 .154.068l.176.06c.06.022.119.046.176.073.057.026.108.06.152.102a.466.466 0 0 1 .15.375M29.867 46.852v.035c0 .095.007.186.02.273a.657.657 0 0 0 .082.233c.041.066.1.12.174.16a.63.63 0 0 0 .293.058 2.04 2.04 0 0 0 .376-.035 1.7 1.7 0 0 0 .112-.021v.11a.707.707 0 0 1-.11.056 1.324 1.324 0 0 1-.474.093c-.153 0-.281-.02-.387-.062a.603.603 0 0 1-.254-.186.767.767 0 0 1-.14-.304 1.826 1.826 0 0 1-.043-.418c0-.32.067-.56.2-.717.135-.158.326-.236.575-.236.098 0 .189.013.273.039a.55.55 0 0 1 .375.377c.038.103.057.23.057.384v.16h-1.129m.424-.804a.368.368 0 0 0-.19.047.375.375 0 0 0-.13.129.654.654 0 0 0-.076.205c-.016.08-.024.168-.024.267h.785a1.85 1.85 0 0 0-.017-.267.625.625 0 0 0-.059-.205.31.31 0 0 0-.111-.13.314.314 0 0 0-.178-.046M32.785 47.664a.588.588 0 0 1-.12.066 1.327 1.327 0 0 1-.486.084c-.16 0-.296-.021-.41-.064a.69.69 0 0 1-.275-.191.79.79 0 0 1-.158-.305 1.524 1.524 0 0 1-.05-.41c0-.167.02-.31.064-.43a.788.788 0 0 1 .183-.297.712.712 0 0 1 .278-.172 1.1 1.1 0 0 1 .353-.054c.106 0 .208.006.307.02.099.01.189.025.27.04v.512h-.108l-.084-.324a.875.875 0 0 0-.389-.092.513.513 0 0 0-.224.047.416.416 0 0 0-.165.142.737.737 0 0 0-.101.248c-.022.1-.033.22-.033.36 0 .117.01.223.029.318.02.094.054.174.104.24.049.067.115.118.199.155a.813.813 0 0 0 .32.054 2.366 2.366 0 0 0 .27-.017 2.157 2.157 0 0 0 .226-.047v.117M33.559 47.814c-.125 0-.22-.037-.282-.11a.478.478 0 0 1-.091-.313v-1.287h-.24v-.088l.243-.077.198-.416h.123v.416h.42v.165h-.42v1.251c0 .085.019.149.056.192.04.043.09.064.153.064.048 0 .095-.003.142-.01a2.37 2.37 0 0 0 .133-.021v.127a.67.67 0 0 1-.184.072 1.043 1.043 0 0 1-.251.035M34.523 46.852v.035c0 .095.007.186.02.273a.657.657 0 0 0 .082.233c.042.066.1.12.174.16a.63.63 0 0 0 .293.058 2.04 2.04 0 0 0 .377-.035 1.7 1.7 0 0 0 .111-.021v.11a.707.707 0 0 1-.11.056 1.324 1.324 0 0 1-.474.093c-.152 0-.281-.02-.387-.062a.603.603 0 0 1-.254-.186.766.766 0 0 1-.14-.304 1.826 1.826 0 0 1-.043-.418c0-.32.067-.56.201-.717.134-.158.326-.236.574-.236.098 0 .19.013.274.039a.55.55 0 0 1 .375.377c.037.103.056.23.056.384v.16h-1.129m.424-.804a.368.368 0 0 0-.19.047.375.375 0 0 0-.13.129.654.654 0 0 0-.076.205c-.016.08-.024.168-.024.267h.785a1.85 1.85 0 0 0-.017-.267.625.625 0 0 0-.059-.205.31.31 0 0 0-.111-.13.314.314 0 0 0-.178-.046M36.441 47.814c-.125 0-.218-.037-.28-.11a.478.478 0 0 1-.093-.313v-1.287h-.24v-.088l.244-.077.198-.416h.123v.416h.42v.165h-.42v1.251c0 .085.018.149.056.192.04.043.09.064.153.064.048 0 .095-.003.142-.01a2.37 2.37 0 0 0 .133-.021v.127a.67.67 0 0 1-.184.072 1.043 1.043 0 0 1-.252.035M37.51 47.252c0 .108.024.191.072.25.05.057.13.086.24.086a1.588 1.588 0 0 0 .453-.06v-1.452l-.277-.049v-.088h.6v1.7l.232.049v.087h-.535l-.016-.148a1.867 1.867 0 0 1-.469.17.786.786 0 0 1-.156.017.591.591 0 0 1-.191-.029.37.37 0 0 1-.149-.094.457.457 0 0 1-.095-.166.824.824 0 0 1-.033-.25v-1.199l-.235-.049v-.088h.559v1.313M40.195 45.89v.497h-.084l-.113-.215a1.392 1.392 0 0 0-.242.03 1.17 1.17 0 0 0-.22.066v1.37l.314.05v.087h-.871v-.088l.232-.048v-1.563l-.232-.049v-.088h.535l.017.229a1.704 1.704 0 0 1 .473-.248.543.543 0 0 1 .162-.03h.03M42.143 45.898c.083 0 .16.008.232.024a.49.49 0 0 1 .186.08.37.37 0 0 1 .12.154.57.57 0 0 1 .046.242v1.24l.228.05v.087h-.504l-.037-.183a.84.84 0 0 1-.2.142.892.892 0 0 1-.368.08.55.55 0 0 1-.225-.04.37.37 0 0 1-.144-.114.471.471 0 0 1-.079-.174.971.971 0 0 1-.023-.218c0-.081.01-.15.03-.21.019-.06.046-.11.081-.15a.425.425 0 0 1 .123-.097.692.692 0 0 1 .155-.061c.056-.014.114-.024.175-.03.063-.005.125-.008.188-.01l.275-.007v-.287a.742.742 0 0 0-.013-.148.316.316 0 0 0-.047-.118.212.212 0 0 0-.086-.076.304.304 0 0 0-.137-.027.738.738 0 0 0-.357.092l-.067.228h-.11v-.4c.086-.018.173-.034.263-.047.09-.014.19-.022.295-.022m.26.942l-.257.008c-.076.002-.143.01-.199.023a.317.317 0 0 0-.138.063.27.27 0 0 0-.082.123.612.612 0 0 0-.028.199c0 .229.093.344.28.344.088 0 .164-.01.228-.03.065-.02.13-.047.195-.078v-.652M44.42 47.639a.781.781 0 0 1-.516.176c-.501 0-.752-.314-.752-.94 0-.152.017-.29.05-.41a.838.838 0 0 1 .153-.31.654.654 0 0 1 .262-.196.94.94 0 0 1 .375-.068 2.018 2.018 0 0 1 .428.045.51.51 0 0 1-.006-.063 23.801 23.801 0 0 1-.006-.186V45.135l-.308-.047V45h.632v2.639l.227.049v.087h-.516l-.023-.136m-.916-.764c0 .137.012.252.035.346.025.093.06.17.103.228a.39.39 0 0 0 .16.125.563.563 0 0 0 .21.037 1.008 1.008 0 0 0 .396-.076v-1.451a2.293 2.293 0 0 0-.396-.033.417.417 0 0 0-.385.209c-.082.14-.123.344-.123.615M45.748 45.34a.198.198 0 0 1-.018.082.207.207 0 0 1-.044.066.228.228 0 0 1-.069.047.219.219 0 0 1-.164 0 .237.237 0 0 1-.113-.113.219.219 0 0 1 0-.164.228.228 0 0 1 .047-.069.207.207 0 0 1 .066-.044.198.198 0 0 1 .164 0 .201.201 0 0 1 .113.113.198.198 0 0 1 .018.082m-.02 2.299l.315.049v.087h-.951v-.087l.312-.05v-1.562l-.26-.049v-.088h.585v1.7M46.414 46.076l-.209-.049v-.088h.516l.004.108a.467.467 0 0 1 .095-.063.874.874 0 0 1 .404-.094c.115 0 .218.02.31.061.09.04.168.101.232.182a.81.81 0 0 1 .144.297c.034.117.05.252.05.406 0 .15-.016.285-.05.406a.878.878 0 0 1-.152.309.67.67 0 0 1-.256.195.867.867 0 0 1-.357.068c-.067 0-.137-.003-.211-.011a1.712 1.712 0 0 1-.21-.032 3.23 3.23 0 0 1 .012.221v.496l.32.047v.092h-.874v-.092l.232-.047v-2.412m1.195.76a1.5 1.5 0 0 0-.033-.34.627.627 0 0 0-.097-.228.371.371 0 0 0-.155-.131.502.502 0 0 0-.207-.041 1.254 1.254 0 0 0-.38.064v1.467a2.038 2.038 0 0 0 .38.033.397.397 0 0 0 .375-.213c.078-.143.117-.347.117-.611M48.857 45.34a.198.198 0 0 1-.017.082.207.207 0 0 1-.045.066.228.228 0 0 1-.068.047.219.219 0 0 1-.164 0 .237.237 0 0 1-.114-.113.219.219 0 0 1 0-.164.228.228 0 0 1 .047-.069.207.207 0 0 1 .067-.044.198.198 0 0 1 .164 0 .201.201 0 0 1 .113.113.198.198 0 0 1 .017.082m-.02 2.299l.315.049v.087h-.95v-.087l.312-.05v-1.562l-.26-.049v-.088h.584v1.7M50.639 47.26a.637.637 0 0 1-.04.226.436.436 0 0 1-.119.176.58.58 0 0 1-.212.113c-.086.026-.19.04-.313.04a1.812 1.812 0 0 1-.346-.037 1.5 1.5 0 0 1-.214-.055v-.452h.087l.096.256a.53.53 0 0 0 .156.094c.064.026.139.04.225.04a.438.438 0 0 0 .28-.079c.066-.053.099-.135.099-.246a.287.287 0 0 0-.041-.16.352.352 0 0 0-.108-.108.631.631 0 0 0-.152-.07 8.99 8.99 0 0 0-.174-.059 2.166 2.166 0 0 1-.174-.066.58.58 0 0 1-.15-.096.44.44 0 0 1-.107-.146.517.517 0 0 1-.041-.219c0-.083.015-.157.045-.223a.46.46 0 0 1 .125-.164.556.556 0 0 1 .193-.1.834.834 0 0 1 .248-.034c.088 0 .175.006.26.02.084.01.166.025.244.04v.4h-.092l-.082-.212a.338.338 0 0 0-.139-.069.725.725 0 0 0-.187-.023c-.106 0-.186.026-.242.078a.278.278 0 0 0-.082.21c0 .06.013.11.04.15.028.037.064.07.108.097a.888.888 0 0 0 .154.068l.176.06c.06.022.119.046.176.073.057.026.108.06.152.102a.466.466 0 0 1 .15.375M52.434 47.664a.588.588 0 0 1-.121.066 1.327 1.327 0 0 1-.486.084c-.16 0-.296-.021-.409-.064a.69.69 0 0 1-.275-.191.79.79 0 0 1-.159-.305 1.524 1.524 0 0 1-.05-.41c0-.167.021-.31.064-.43a.788.788 0 0 1 .184-.297.712.712 0 0 1 .277-.172 1.1 1.1 0 0 1 .353-.054c.106 0 .208.006.307.02.1.01.189.025.27.04v.512h-.108l-.084-.324a.875.875 0 0 0-.389-.092.513.513 0 0 0-.224.047.416.416 0 0 0-.164.142.737.737 0 0 0-.102.248c-.022.1-.033.22-.033.36 0 .117.01.223.03.318.019.094.054.174.103.24.05.067.116.118.2.155a.813.813 0 0 0 .32.054 2.366 2.366 0 0 0 .269-.017 2.157 2.157 0 0 0 .227-.047v.117M53.295 45.34a.198.198 0 0 1-.018.082.207.207 0 0 1-.045.066.228.228 0 0 1-.068.047.219.219 0 0 1-.164 0 .237.237 0 0 1-.113-.113.219.219 0 0 1 0-.164.228.228 0 0 1 .047-.069.207.207 0 0 1 .066-.044.198.198 0 0 1 .164 0 .201.201 0 0 1 .113.113.198.198 0 0 1 .018.082m-.02 2.299l.315.049v.087h-.951v-.087l.312-.05v-1.562l-.26-.049v-.088h.584v1.7M54.297 46.088a1.917 1.917 0 0 1 .287-.131c.055-.02.11-.035.164-.047a.66.66 0 0 1 .346.01c.058.02.108.05.15.094a.427.427 0 0 1 .1.168.744.744 0 0 1 .037.25v1.207l.223.049v.087h-.791v-.087l.244-.05v-1.171a.373.373 0 0 0-.08-.254c-.053-.063-.134-.094-.245-.094-.036 0-.074.002-.115.006l-.119.014a3.086 3.086 0 0 0-.197.037v1.463l.248.049v.087h-.793v-.087l.22-.05v-1.562l-.22-.049v-.088h.523l.018.149M57.363 46.52c0 .21-.063.37-.19.478-.125.108-.307.162-.544.162a1.556 1.556 0 0 1-.297-.03l-.123.257c.004.022.03.043.076.062a.46.46 0 0 0 .176.03h.543c.198 0 .344.043.44.128a.452.452 0 0 1 .144.356.616.616 0 0 1-.053.248.542.542 0 0 1-.168.217.857.857 0 0 1-.303.152c-.125.04-.278.059-.46.059-.14 0-.258-.012-.356-.035a.722.722 0 0 1-.238-.094.377.377 0 0 1-.133-.14.376.376 0 0 1-.018-.298.535.535 0 0 1 .174-.215c.04-.033.084-.067.131-.101a.527.527 0 0 1-.082-.037.46.46 0 0 1-.086-.069.377.377 0 0 1-.068-.093.267.267 0 0 1-.028-.121l.309-.348c-.206-.096-.309-.286-.309-.568 0-.103.017-.194.051-.272a.515.515 0 0 1 .145-.197.623.623 0 0 1 .234-.12 1.11 1.11 0 0 1 .426-.034 1.952 1.952 0 0 1 .248.043l.432-.217.068.084-.272.28a.46.46 0 0 1 .098.188.852.852 0 0 1 .033.245m-.08 1.503a.224.224 0 0 0-.068-.173c-.046-.042-.115-.063-.207-.063h-.711a.558.558 0 0 0-.135.178.637.637 0 0 0-.037.101.405.405 0 0 0 .008.229.23.23 0 0 0 .078.1.436.436 0 0 0 .152.064c.064.016.144.023.24.023.118 0 .219-.011.303-.035a.607.607 0 0 0 .213-.095.37.37 0 0 0 .123-.145.413.413 0 0 0 .041-.184m-.65-1.011c.142 0 .242-.04.3-.121.06-.082.09-.206.09-.371a.927.927 0 0 0-.021-.213.355.355 0 0 0-.066-.15.273.273 0 0 0-.12-.089.49.49 0 0 0-.18-.029.513.513 0 0 0-.183.03.301.301 0 0 0-.123.087.373.373 0 0 0-.068.15.925.925 0 0 0-.022.214.98.98 0 0 0 .022.216.41.41 0 0 0 .068.155c.031.04.072.07.121.091.05.02.11.03.182.03M59.172 46.852v.035c0 .095.006.186.02.273a.657.657 0 0 0 .081.233c.042.066.1.12.174.16a.63.63 0 0 0 .293.058 2.04 2.04 0 0 0 .377-.035 1.7 1.7 0 0 0 .112-.021v.11a.707.707 0 0 1-.11.056 1.324 1.324 0 0 1-.474.093c-.153 0-.282-.02-.387-.062a.603.603 0 0 1-.254-.186.767.767 0 0 1-.14-.304 1.826 1.826 0 0 1-.044-.418c0-.32.067-.56.201-.717.135-.158.326-.236.575-.236.097 0 .189.013.273.039a.55.55 0 0 1 .375.377c.038.103.057.23.057.384v.16h-1.13m.425-.804a.368.368 0 0 0-.19.047.375.375 0 0 0-.13.129.654.654 0 0 0-.077.205c-.015.08-.023.168-.023.267h.785a1.85 1.85 0 0 0-.018-.267.625.625 0 0 0-.058-.205.31.31 0 0 0-.112-.13.314.314 0 0 0-.177-.046M61.154 47.639l.315.049v.087h-.951v-.087l.312-.05v-2.503l-.312-.047V45h.636v2.639M62.287 45.34a.198.198 0 0 1-.017.082.207.207 0 0 1-.045.066.228.228 0 0 1-.069.047.219.219 0 0 1-.164 0 .237.237 0 0 1-.113-.113.219.219 0 0 1 0-.164.228.228 0 0 1 .047-.069.207.207 0 0 1 .066-.044.198.198 0 0 1 .164 0 .201.201 0 0 1 .114.113.198.198 0 0 1 .017.082m-.02 2.299l.315.049v.087h-.951v-.087l.312-.05v-1.562l-.26-.049v-.088h.585v1.7M63.309 47.814c-.125 0-.22-.037-.282-.11a.478.478 0 0 1-.091-.313v-1.287h-.24v-.088l.243-.077.198-.416h.123v.416h.42v.165h-.42v1.251c0 .085.019.149.056.192.04.043.09.064.153.064.048 0 .095-.003.142-.01a2.37 2.37 0 0 0 .133-.021v.127a.67.67 0 0 1-.184.072 1.043 1.043 0 0 1-.251.035M64.502 47.596a.22.22 0 0 1-.02.092.246.246 0 0 1-.048.076.219.219 0 0 1-.077.049.224.224 0 0 1-.186 0 .223.223 0 0 1-.124-.125.24.24 0 0 1 .05-.26.223.223 0 0 1 .075-.05.224.224 0 0 1 .185 0 .219.219 0 0 1 .125.125.22.22 0 0 1 .02.093M22.86 54.6v1.02l.435.052v.103h-1.123v-.103l.31-.053v-2.308l-.336-.051v-.104h1.965v.627h-.129l-.062-.424a3.979 3.979 0 0 0-.332-.021 4.105 4.105 0 0 0-.174-.004 5.779 5.779 0 0 0-.127-.002h-.428v1.092h.772l.06-.313h.12v.805h-.12l-.06-.316h-.772M24.87 55.252c0 .108.023.191.071.25.05.057.13.086.24.086a1.588 1.588 0 0 0 .453-.06v-1.452l-.277-.049v-.088h.6v1.7l.232.049v.087h-.535l-.015-.148a1.867 1.867 0 0 1-.469.17.786.786 0 0 1-.156.017.591.591 0 0 1-.192-.029.37.37 0 0 1-.148-.094.457.457 0 0 1-.096-.166.824.824 0 0 1-.033-.25v-1.199l-.234-.049v-.088h.558v1.313M27.67 55.26a.637.637 0 0 1-.04.226.436.436 0 0 1-.118.176.58.58 0 0 1-.213.113c-.086.026-.19.04-.313.04a1.812 1.812 0 0 1-.346-.037 1.5 1.5 0 0 1-.214-.055v-.452h.088l.095.256a.53.53 0 0 0 .157.094c.063.026.138.04.224.04a.438.438 0 0 0 .28-.079c.066-.053.1-.135.1-.246a.287.287 0 0 0-.042-.16.352.352 0 0 0-.107-.108.631.631 0 0 0-.153-.07 8.99 8.99 0 0 0-.173-.059 2.166 2.166 0 0 1-.174-.066.58.58 0 0 1-.15-.096.44.44 0 0 1-.108-.146.517.517 0 0 1-.041-.219c0-.083.015-.157.045-.223a.46.46 0 0 1 .125-.164.556.556 0 0 1 .193-.1.834.834 0 0 1 .248-.034c.089 0 .175.006.26.02.085.01.166.025.244.04v.4h-.092l-.082-.212a.338.338 0 0 0-.138-.069.725.725 0 0 0-.188-.023c-.105 0-.186.026-.242.078a.278.278 0 0 0-.082.21c0 .06.014.11.04.15.028.037.064.07.108.097a.888.888 0 0 0 .155.068l.175.06c.06.022.119.046.176.073.057.026.108.06.153.102a.466.466 0 0 1 .15.375M29.465 55.664a.588.588 0 0 1-.121.066 1.327 1.327 0 0 1-.486.084c-.16 0-.296-.021-.409-.064a.69.69 0 0 1-.275-.191.79.79 0 0 1-.158-.305 1.524 1.524 0 0 1-.051-.41c0-.167.021-.31.064-.43a.788.788 0 0 1 .184-.297.712.712 0 0 1 .277-.172 1.1 1.1 0 0 1 .354-.054c.105 0 .207.006.306.02.1.01.19.025.27.04v.512h-.108l-.083-.324a.875.875 0 0 0-.389-.092.513.513 0 0 0-.225.047.416.416 0 0 0-.164.142.737.737 0 0 0-.101.248c-.023.1-.034.22-.034.36 0 .117.01.223.03.318.02.094.054.174.103.24.05.067.116.118.2.155a.813.813 0 0 0 .32.054 2.366 2.366 0 0 0 .27-.017 2.157 2.157 0 0 0 .226-.047v.117M30.094 54.852v.035c0 .095.006.186.02.273a.657.657 0 0 0 .081.233c.042.066.1.12.174.16a.63.63 0 0 0 .293.058 2.04 2.04 0 0 0 .377-.035 1.7 1.7 0 0 0 .111-.021v.11a.707.707 0 0 1-.109.056 1.324 1.324 0 0 1-.475.093c-.152 0-.28-.02-.386-.062a.603.603 0 0 1-.254-.186.767.767 0 0 1-.14-.304 1.826 1.826 0 0 1-.044-.418c0-.32.067-.56.201-.717.134-.158.326-.236.575-.236.097 0 .188.013.273.039a.55.55 0 0 1 .375.377c.038.103.057.23.057.384v.16h-1.13m.425-.804a.368.368 0 0 0-.19.047.375.375 0 0 0-.13.129.654.654 0 0 0-.077.205c-.016.08-.023.168-.023.267h.785a1.85 1.85 0 0 0-.018-.267.625.625 0 0 0-.058-.205.31.31 0 0 0-.112-.13.314.314 0 0 0-.177-.046M32.97 55.252c0 .108.025.191.073.25.05.057.13.086.24.086a1.588 1.588 0 0 0 .453-.06v-1.452l-.277-.049v-.088h.6v1.7l.232.049v.087h-.535l-.016-.148a1.867 1.867 0 0 1-.469.17.786.786 0 0 1-.156.017.591.591 0 0 1-.191-.029.37.37 0 0 1-.149-.094.457.457 0 0 1-.095-.166.825.825 0 0 1-.034-.25v-1.199l-.234-.049v-.088h.559v1.313M35.012 55.814c-.125 0-.219-.037-.282-.11a.478.478 0 0 1-.091-.313v-1.287h-.24v-.088l.244-.077.197-.416h.123v.416h.42v.165h-.42v1.251c0 .085.019.149.057.192.039.043.09.064.152.064.048 0 .096-.003.142-.01a2.37 2.37 0 0 0 .133-.021v.127a.67.67 0 0 1-.184.072 1.043 1.043 0 0 1-.251.035M37.102 54.088a1.917 1.917 0 0 1 .287-.131c.054-.02.109-.035.164-.047a.66.66 0 0 1 .345.01c.059.02.11.05.15.094a.427.427 0 0 1 .1.168.744.744 0 0 1 .038.25v1.207l.222.049v.087h-.79v-.087l.243-.05v-1.171a.373.373 0 0 0-.08-.254c-.052-.063-.133-.094-.244-.094-.036 0-.075.002-.115.006l-.12.014a3.086 3.086 0 0 0-.197.037v1.463l.249.049v.087h-.793v-.087l.22-.05v-1.562l-.22-.049v-.088h.523l.018.149M38.977 54.852v.035c0 .095.006.186.02.273a.657.657 0 0 0 .081.233c.042.066.1.12.174.16a.63.63 0 0 0 .293.058 2.04 2.04 0 0 0 .377-.035 1.7 1.7 0 0 0 .111-.021v.11a.707.707 0 0 1-.11.056 1.324 1.324 0 0 1-.474.093c-.152 0-.281-.02-.387-.062a.603.603 0 0 1-.253-.186.766.766 0 0 1-.141-.304 1.826 1.826 0 0 1-.043-.418c0-.32.067-.56.201-.717.134-.158.326-.236.574-.236.098 0 .19.013.274.039a.55.55 0 0 1 .375.377c.038.103.056.23.056.384v.16h-1.128m.423-.804a.368.368 0 0 0-.19.047.375.375 0 0 0-.13.129.654.654 0 0 0-.076.205c-.016.08-.024.168-.024.267h.786a1.85 1.85 0 0 0-.018-.267.625.625 0 0 0-.059-.205.31.31 0 0 0-.11-.13.314.314 0 0 0-.179-.046M41.83 53.852h.137v2.636l.203.047v.092h-.78v-.092l.253-.047v-.51c0-.049 0-.102.003-.16a1.74 1.74 0 0 1 .016-.166.786.786 0 0 1-.219.116.892.892 0 0 1-.304.046c-.257 0-.446-.08-.569-.244-.122-.164-.183-.4-.183-.707 0-.15.017-.284.05-.404a.837.837 0 0 1 .153-.307.665.665 0 0 1 .26-.193.925.925 0 0 1 .369-.068 2.13 2.13 0 0 1 .435.045l.176-.084m-1.092 1.011c0 .133.011.247.033.342a.695.695 0 0 0 .1.232c.043.06.096.105.158.133a.546.546 0 0 0 .217.041 1.434 1.434 0 0 0 .313-.037.49.49 0 0 0 .084-.027v-1.463a2.293 2.293 0 0 0-.396-.033c-.173 0-.3.07-.384.209-.083.14-.125.34-.125.603M42.854 55.252c0 .108.024.191.072.25.05.057.13.086.24.086a1.588 1.588 0 0 0 .453-.06v-1.452l-.277-.049v-.088h.6v1.7l.232.049v.087h-.535l-.016-.148a1.867 1.867 0 0 1-.469.17.786.786 0 0 1-.156.017.591.591 0 0 1-.191-.029.37.37 0 0 1-.149-.094.457.457 0 0 1-.095-.166.824.824 0 0 1-.034-.25v-1.199l-.234-.049v-.088h.559v1.313M44.75 54.852v.035c0 .095.006.186.02.273a.657.657 0 0 0 .082.233c.041.066.1.12.173.16a.63.63 0 0 0 .293.058 2.04 2.04 0 0 0 .377-.035 1.7 1.7 0 0 0 .112-.021v.11a.707.707 0 0 1-.11.056 1.324 1.324 0 0 1-.474.093c-.153 0-.282-.02-.387-.062a.603.603 0 0 1-.254-.186.767.767 0 0 1-.14-.304 1.826 1.826 0 0 1-.044-.418c0-.32.067-.56.202-.717.134-.158.325-.236.574-.236.097 0 .189.013.273.039a.55.55 0 0 1 .375.377c.038.103.057.23.057.384v.16H44.75m.424-.804a.368.368 0 0 0-.19.047.375.375 0 0 0-.13.129.654.654 0 0 0-.077.205c-.015.08-.023.168-.023.267h.785a1.85 1.85 0 0 0-.018-.267.625.625 0 0 0-.058-.205.31.31 0 0 0-.111-.13.314.314 0 0 0-.178-.046M48.428 55.26a.637.637 0 0 1-.04.226.436.436 0 0 1-.118.176.58.58 0 0 1-.213.113c-.086.026-.19.04-.313.04a1.812 1.812 0 0 1-.346-.037 1.5 1.5 0 0 1-.214-.055v-.452h.087l.096.256a.53.53 0 0 0 .156.094c.064.026.14.04.225.04a.438.438 0 0 0 .28-.079c.066-.053.099-.135.099-.246a.287.287 0 0 0-.041-.16.352.352 0 0 0-.107-.108.631.631 0 0 0-.153-.07 8.99 8.99 0 0 0-.174-.059 2.166 2.166 0 0 1-.173-.066.58.58 0 0 1-.15-.096.44.44 0 0 1-.108-.146.517.517 0 0 1-.041-.219c0-.083.015-.157.045-.223a.46.46 0 0 1 .125-.164.556.556 0 0 1 .193-.1.834.834 0 0 1 .248-.034c.089 0 .175.006.26.02.084.01.166.025.244.04v.4h-.092l-.082-.212a.338.338 0 0 0-.139-.069.725.725 0 0 0-.187-.023c-.106 0-.186.026-.242.078a.278.278 0 0 0-.082.21c0 .06.013.11.04.15.028.037.064.07.108.097a.888.888 0 0 0 .154.068l.176.06c.06.022.119.046.176.073.057.026.108.06.152.102a.466.466 0 0 1 .15.375M49.078 54.852v.035c0 .095.007.186.02.273a.657.657 0 0 0 .082.233c.041.066.1.12.174.16a.63.63 0 0 0 .292.058 2.04 2.04 0 0 0 .377-.035 1.7 1.7 0 0 0 .112-.021v.11a.707.707 0 0 1-.11.056 1.324 1.324 0 0 1-.474.093c-.153 0-.281-.02-.387-.062a.603.603 0 0 1-.254-.186.767.767 0 0 1-.14-.304 1.826 1.826 0 0 1-.043-.418c0-.32.067-.56.2-.717.135-.158.326-.236.575-.236.098 0 .189.013.273.039a.55.55 0 0 1 .375.377c.038.103.057.23.057.384v.16h-1.129m.424-.804a.368.368 0 0 0-.19.047.375.375 0 0 0-.13.129.654.654 0 0 0-.077.205c-.015.08-.023.168-.023.267h.785a1.85 1.85 0 0 0-.017-.267.625.625 0 0 0-.059-.205.31.31 0 0 0-.111-.13.314.314 0 0 0-.178-.046M50.98 54.088a1.917 1.917 0 0 1 .286-.131c.053-.02.107-.035.162-.047a.6.6 0 0 1 .4.031.342.342 0 0 1 .172.163 2.018 2.018 0 0 1 .52-.193.833.833 0 0 1 .168-.02c.07 0 .134.01.19.029.058.02.107.05.147.094a.422.422 0 0 1 .096.168.782.782 0 0 1 .035.25v1.207l.237.049v.087h-.834v-.087l.273-.05v-1.171c0-.108-.025-.19-.074-.248-.048-.059-.128-.088-.238-.088a1.07 1.07 0 0 0-.12.008c-.044.005-.089.01-.134.017a42.329 42.329 0 0 1-.23.043c.021.07.032.148.032.233v1.207l.276.049v.087h-.871v-.087l.271-.05v-1.171c0-.108-.028-.191-.084-.248-.055-.059-.137-.088-.248-.088-.036 0-.075.002-.115.006l-.117.013a3.094 3.094 0 0 0-.195.037v1.452l.275.049v.087h-.832v-.087l.232-.05v-1.562l-.232-.049v-.088h.537l.015.149M54.201 55.68a.75.75 0 0 1-.033.222.58.58 0 0 1-.104.202.736.736 0 0 1-.183.166c-.076.049-.167.09-.276.12v-.15a.642.642 0 0 0 .26-.138.257.257 0 0 0 .084-.19.096.096 0 0 0-.02-.06.226.226 0 0 0-.048-.043.961.961 0 0 0-.065-.036.397.397 0 0 1-.062-.04.222.222 0 0 1-.049-.061.195.195 0 0 1-.02-.092c0-.07.023-.124.067-.16a.253.253 0 0 1 .17-.057.269.269 0 0 1 .256.182.36.36 0 0 1 .023.135M57.041 53.852h.137v2.636l.203.047v.092h-.78v-.092l.253-.047v-.51c0-.049 0-.102.003-.16a1.74 1.74 0 0 1 .016-.166.786.786 0 0 1-.219.116.892.892 0 0 1-.304.046c-.257 0-.446-.08-.569-.244-.122-.164-.183-.4-.183-.707 0-.15.017-.284.05-.404a.837.837 0 0 1 .153-.307.665.665 0 0 1 .26-.193.925.925 0 0 1 .369-.068 2.13 2.13 0 0 1 .435.045l.176-.084m-1.092 1.011c0 .133.011.247.033.342a.695.695 0 0 0 .1.232c.043.06.096.105.158.133a.546.546 0 0 0 .217.041 1.434 1.434 0 0 0 .313-.037.489.489 0 0 0 .084-.027v-1.463a2.293 2.293 0 0 0-.396-.033c-.173 0-.3.07-.384.209-.083.14-.125.34-.125.603M58.064 55.252c0 .108.025.191.073.25.05.057.13.086.24.086a1.588 1.588 0 0 0 .453-.06v-1.452l-.277-.049v-.088h.6v1.7l.232.049v.087h-.535l-.016-.148a1.867 1.867 0 0 1-.469.17.786.786 0 0 1-.156.017.591.591 0 0 1-.191-.029.37.37 0 0 1-.149-.094.457.457 0 0 1-.096-.166.825.825 0 0 1-.033-.25v-1.199l-.234-.049v-.088h.558v1.313M60.193 53.34a.198.198 0 0 1-.017.082.207.207 0 0 1-.045.066.228.228 0 0 1-.069.047.219.219 0 0 1-.164 0 .237.237 0 0 1-.113-.113.219.219 0 0 1 0-.164.228.228 0 0 1 .047-.069.207.207 0 0 1 .066-.044.198.198 0 0 1 .164 0 .201.201 0 0 1 .114.113.198.198 0 0 1 .017.082m-.02 2.299l.315.049v.087h-.95v-.087l.312-.05v-1.562l-.26-.049v-.088h.584v1.7M61.975 55.26a.637.637 0 0 1-.04.226.436.436 0 0 1-.119.176.58.58 0 0 1-.212.113c-.086.026-.19.04-.313.04a1.812 1.812 0 0 1-.346-.037 1.5 1.5 0 0 1-.215-.055v-.452h.088l.096.256a.53.53 0 0 0 .156.094c.064.026.139.04.225.04a.438.438 0 0 0 .28-.079c.066-.053.099-.135.099-.246a.287.287 0 0 0-.041-.16.352.352 0 0 0-.108-.108.631.631 0 0 0-.152-.07 8.99 8.99 0 0 0-.174-.059 2.166 2.166 0 0 1-.174-.066.58.58 0 0 1-.15-.096.44.44 0 0 1-.107-.146.517.517 0 0 1-.041-.219c0-.083.015-.157.044-.223a.46.46 0 0 1 .125-.164.556.556 0 0 1 .194-.1.834.834 0 0 1 .248-.034c.088 0 .175.006.26.02.084.01.166.025.244.04v.4h-.092l-.082-.212a.338.338 0 0 0-.139-.069.725.725 0 0 0-.187-.023c-.106 0-.186.026-.242.078a.278.278 0 0 0-.082.21c0 .06.013.11.04.15.028.037.064.07.108.097a.888.888 0 0 0 .154.068l.176.06c.06.022.119.046.176.073.057.026.108.06.152.102a.466.466 0 0 1 .15.375M64.53 55.26a.637.637 0 0 1-.04.226.436.436 0 0 1-.119.176.58.58 0 0 1-.213.113c-.086.026-.19.04-.312.04a1.812 1.812 0 0 1-.346-.037 1.5 1.5 0 0 1-.215-.055v-.452h.088l.096.256a.53.53 0 0 0 .156.094c.064.026.139.04.225.04a.438.438 0 0 0 .279-.079c.066-.053.1-.135.1-.246a.287.287 0 0 0-.042-.16.352.352 0 0 0-.107-.108.631.631 0 0 0-.152-.07 8.99 8.99 0 0 0-.174-.059 2.166 2.166 0 0 1-.174-.066.58.58 0 0 1-.15-.096.44.44 0 0 1-.108-.146.517.517 0 0 1-.04-.219c0-.083.014-.157.044-.223a.46.46 0 0 1 .125-.164.556.556 0 0 1 .194-.1.834.834 0 0 1 .248-.034c.088 0 .175.006.26.02.084.01.165.025.243.04v.4h-.091l-.082-.212a.338.338 0 0 0-.139-.069.725.725 0 0 0-.188-.023c-.105 0-.186.026-.242.078a.278.278 0 0 0-.082.21c0 .06.014.11.041.15.028.037.063.07.108.097a.888.888 0 0 0 .154.068l.176.06c.06.022.118.046.176.073.057.026.108.06.152.102a.466.466 0 0 1 .15.375M66.52 54.848c0 .31-.07.55-.21.716-.139.167-.356.25-.65.25-.276 0-.484-.082-.625-.248-.14-.165-.21-.405-.21-.718 0-.31.07-.547.21-.711.14-.164.354-.246.64-.246.28 0 .49.08.632.242.142.16.213.398.213.715m-.352 0c0-.127-.009-.24-.025-.338a.726.726 0 0 0-.086-.252.392.392 0 0 0-.157-.156.486.486 0 0 0-.24-.055.468.468 0 0 0-.238.055.375.375 0 0 0-.149.156.756.756 0 0 0-.076.252 2.38 2.38 0 0 0-.021.338c0 .127.007.241.021.341a.8.8 0 0 0 .076.256.401.401 0 0 0 .149.16.468.468 0 0 0 .238.055.486.486 0 0 0 .24-.055.42.42 0 0 0 .157-.16.768.768 0 0 0 .086-.256c.017-.1.025-.214.025-.341M68.324 55.664a.588.588 0 0 1-.12.066 1.327 1.327 0 0 1-.486.084c-.16 0-.296-.021-.41-.064a.69.69 0 0 1-.275-.191.79.79 0 0 1-.158-.305 1.524 1.524 0 0 1-.05-.41c0-.167.02-.31.064-.43a.788.788 0 0 1 .183-.297.712.712 0 0 1 .278-.172 1.1 1.1 0 0 1 .353-.054c.106 0 .208.006.307.02.099.01.189.025.27.04v.512h-.108l-.084-.324a.875.875 0 0 0-.389-.092.513.513 0 0 0-.224.047.416.416 0 0 0-.164.142.737.737 0 0 0-.102.248c-.022.1-.033.22-.033.36 0 .117.01.223.03.318.019.094.053.174.103.24.05.067.115.118.199.155a.813.813 0 0 0 .32.054 2.366 2.366 0 0 0 .27-.017 2.157 2.157 0 0 0 .226-.047v.117M69.186 53.34a.198.198 0 0 1-.018.082.207.207 0 0 1-.045.066.228.228 0 0 1-.068.047.219.219 0 0 1-.164 0 .237.237 0 0 1-.114-.113.219.219 0 0 1 0-.164.228.228 0 0 1 .047-.069.207.207 0 0 1 .067-.044.198.198 0 0 1 .164 0 .201.201 0 0 1 .113.113.198.198 0 0 1 .018.082m-.02 2.299l.314.049v.087h-.95v-.087l.312-.05v-1.562l-.26-.049v-.088h.584v1.7M70.295 53.34a.198.198 0 0 1-.018.082.207.207 0 0 1-.045.066.228.228 0 0 1-.068.047.219.219 0 0 1-.164 0 .237.237 0 0 1-.113-.113.219.219 0 0 1 0-.164.228.228 0 0 1 .047-.069.207.207 0 0 1 .066-.044.198.198 0 0 1 .164 0 .201.201 0 0 1 .113.113.198.198 0 0 1 .018.082m-.02 2.299l.315.049v.087h-.951v-.087l.312-.05v-1.562l-.26-.049v-.088h.584v1.7M72.076 55.26a.637.637 0 0 1-.039.226.436.436 0 0 1-.119.176.58.58 0 0 1-.213.113c-.086.026-.19.04-.312.04a1.812 1.812 0 0 1-.346-.037 1.5 1.5 0 0 1-.215-.055v-.452h.088l.096.256a.53.53 0 0 0 .156.094c.064.026.139.04.224.04a.438.438 0 0 0 .28-.079c.066-.053.1-.135.1-.246a.287.287 0 0 0-.042-.16.352.352 0 0 0-.107-.108.631.631 0 0 0-.152-.07 8.99 8.99 0 0 0-.174-.059 2.166 2.166 0 0 1-.174-.066.58.58 0 0 1-.15-.096.44.44 0 0 1-.108-.146.517.517 0 0 1-.04-.219c0-.083.014-.157.044-.223a.46.46 0 0 1 .125-.164.556.556 0 0 1 .193-.1.834.834 0 0 1 .248-.034c.089 0 .176.006.26.02.085.01.166.025.244.04v.4h-.091l-.082-.212a.338.338 0 0 0-.14-.069.725.725 0 0 0-.187-.023c-.105 0-.186.026-.242.078a.278.278 0 0 0-.082.21c0 .06.014.11.041.15.027.037.063.07.108.097a.888.888 0 0 0 .154.068l.176.06c.06.022.118.046.175.073.058.026.109.06.153.102a.466.466 0 0 1 .15.375M23.527 62.807c0-.133-.012-.244-.037-.334a.57.57 0 0 0-.103-.221.364.364 0 0 0-.162-.12.563.563 0 0 0-.21-.036 1.435 1.435 0 0 0-.206.017 1.167 1.167 0 0 0-.102.02.489.489 0 0 0-.084.027v1.455c.055.01.117.018.188.024.07.005.138.007.205.007.18 0 .31-.07.39-.21.081-.141.121-.35.121-.63M22.3 61.136l-.268-.047V61h.592v.656c0 .025 0 .054-.002.086a2.607 2.607 0 0 1-.006.203l-.004.098a.698.698 0 0 1 .213-.11.867.867 0 0 1 .28-.042c.25 0 .44.076.574.228.134.151.2.38.2.688 0 .155-.016.295-.05.42a.858.858 0 0 1-.156.316.69.69 0 0 1-.268.201.943.943 0 0 1-.38.07 2.287 2.287 0 0 1-.563-.08 1.814 1.814 0 0 1-.162-.054v-2.545M24.748 63.639l.314.049v.087h-.95v-.087l.312-.05v-2.503l-.313-.047V61h.637v2.639M26.049 61.898c.083 0 .16.008.232.024a.49.49 0 0 1 .186.08.37.37 0 0 1 .12.154.57.57 0 0 1 .046.242v1.24l.228.05v.087h-.504l-.037-.183a.84.84 0 0 1-.199.142.891.891 0 0 1-.369.08.55.55 0 0 1-.225-.04.37.37 0 0 1-.144-.114.471.471 0 0 1-.078-.174.971.971 0 0 1-.024-.218c0-.081.01-.15.03-.21a.425.425 0 0 1 .205-.248.692.692 0 0 1 .154-.06c.056-.014.114-.024.176-.03.062-.005.125-.008.187-.01l.276-.007v-.287a.742.742 0 0 0-.014-.148.316.316 0 0 0-.047-.118.212.212 0 0 0-.086-.076.304.304 0 0 0-.137-.027.738.738 0 0 0-.357.092l-.066.228h-.11v-.4c.085-.018.172-.034.262-.047.091-.014.19-.022.295-.022m.26.942l-.256.008c-.077.002-.144.01-.2.023a.317.317 0 0 0-.138.063.27.27 0 0 0-.082.123.612.612 0 0 0-.028.199c0 .229.094.344.28.344.088 0 .164-.01.228-.03.065-.02.13-.047.196-.078v-.652M27.547 62.088a1.917 1.917 0 0 1 .287-.131c.055-.02.11-.035.164-.047a.66.66 0 0 1 .346.01c.058.02.108.05.15.094a.427.427 0 0 1 .1.168.744.744 0 0 1 .037.25v1.207l.223.049v.087h-.791v-.087l.244-.05v-1.171a.373.373 0 0 0-.08-.254c-.053-.063-.134-.094-.245-.094-.036 0-.074.002-.115.006l-.119.014a3.094 3.094 0 0 0-.197.037v1.463l.248.049v.087h-.793v-.087l.22-.05v-1.562l-.22-.049v-.088h.523l.018.149M30.326 63.639a.781.781 0 0 1-.516.176c-.5 0-.751-.314-.751-.94 0-.152.016-.29.048-.41a.838.838 0 0 1 .155-.31.654.654 0 0 1 .261-.196.94.94 0 0 1 .375-.068 2.018 2.018 0 0 1 .428.045.51.51 0 0 1-.006-.063 23.801 23.801 0 0 1-.006-.186V61.135l-.308-.047V61h.633v2.639l.226.049v.087h-.515l-.024-.136m-.916-.764c0 .137.012.252.035.346.025.093.06.17.104.228a.39.39 0 0 0 .16.125.563.563 0 0 0 .209.037 1.008 1.008 0 0 0 .396-.076v-1.451a2.293 2.293 0 0 0-.396-.033.417.417 0 0 0-.385.209c-.082.14-.123.344-.123.615M31.654 61.34a.198.198 0 0 1-.017.082.207.207 0 0 1-.045.066.228.228 0 0 1-.069.047.219.219 0 0 1-.164 0 .237.237 0 0 1-.113-.113.219.219 0 0 1 0-.164.228.228 0 0 1 .047-.069.207.207 0 0 1 .066-.044.198.198 0 0 1 .164 0 .201.201 0 0 1 .114.113.198.198 0 0 1 .017.082m-.02 2.299l.315.049v.087h-.951v-.087l.313-.05v-1.562l-.26-.049v-.088h.584v1.7M32.676 63.814c-.125 0-.219-.037-.281-.11a.478.478 0 0 1-.092-.313v-1.287h-.24v-.088l.244-.077.197-.416h.123v.416h.42v.165h-.42v1.251c0 .085.019.149.057.192.039.043.09.064.152.064.048 0 .096-.003.143-.01a2.37 2.37 0 0 0 .132-.021v.127a.67.67 0 0 1-.184.072 1.043 1.043 0 0 1-.251.035M34.64 62.852v.035c0 .095.007.186.02.273a.657.657 0 0 0 .082.233c.042.066.1.12.174.16a.63.63 0 0 0 .293.058 2.04 2.04 0 0 0 .377-.035 1.7 1.7 0 0 0 .111-.021v.11a.707.707 0 0 1-.11.056 1.324 1.324 0 0 1-.474.093c-.152 0-.281-.02-.386-.062a.603.603 0 0 1-.254-.186.767.767 0 0 1-.141-.304 1.826 1.826 0 0 1-.043-.418c0-.32.067-.56.201-.717.134-.158.326-.236.574-.236.098 0 .19.013.274.039a.55.55 0 0 1 .375.377c.038.103.057.23.057.384v.16h-1.13m.424-.804a.368.368 0 0 0-.189.047.375.375 0 0 0-.13.129.654.654 0 0 0-.077.205c-.016.08-.023.168-.023.267h.785a1.85 1.85 0 0 0-.018-.267.625.625 0 0 0-.058-.205.31.31 0 0 0-.112-.13.314.314 0 0 0-.178-.046M36.54 62.088a1.917 1.917 0 0 1 .286-.131c.055-.02.11-.035.164-.047a.66.66 0 0 1 .346.01c.059.02.109.05.15.094a.427.427 0 0 1 .1.168.744.744 0 0 1 .037.25v1.207l.223.049v.087h-.791v-.087l.244-.05v-1.171a.373.373 0 0 0-.08-.254c-.052-.063-.134-.094-.244-.094-.037 0-.075.002-.116.006l-.119.014a3.086 3.086 0 0 0-.197.037v1.463l.248.049v.087h-.793v-.087l.22-.05v-1.562l-.22-.049v-.088h.523l.018.149M38.646 61.34a.198.198 0 0 1-.017.082.207.207 0 0 1-.045.066.228.228 0 0 1-.068.047.219.219 0 0 1-.164 0 .237.237 0 0 1-.114-.113.219.219 0 0 1 0-.164.228.228 0 0 1 .047-.069.207.207 0 0 1 .067-.044.198.198 0 0 1 .164 0 .201.201 0 0 1 .113.113.198.198 0 0 1 .017.082m-.019 2.299l.314.049v.087h-.95v-.087l.312-.05v-1.562l-.26-.049v-.088h.584v1.7M39.652 62.088a1.917 1.917 0 0 1 .285-.131c.054-.02.108-.035.163-.047a.6.6 0 0 1 .4.031.342.342 0 0 1 .172.163 2.018 2.018 0 0 1 .52-.193.833.833 0 0 1 .167-.02c.07 0 .134.01.192.029.057.02.106.05.146.094a.422.422 0 0 1 .096.168.782.782 0 0 1 .035.25v1.207l.236.049v.087h-.834v-.087l.274-.05v-1.171c0-.108-.025-.19-.074-.248-.048-.059-.128-.088-.239-.088a1.07 1.07 0 0 0-.119.008c-.044.005-.089.01-.135.017a42.329 42.329 0 0 1-.23.043c.022.07.033.148.033.233v1.207l.276.049v.087h-.871v-.087l.271-.05v-1.171c0-.108-.028-.191-.084-.248-.055-.059-.137-.088-.248-.088-.036 0-.075.002-.115.006l-.117.013a3.094 3.094 0 0 0-.195.037v1.452l.275.049v.087H39.1v-.087l.232-.05v-1.562l-.232-.049v-.088h.537l.015.149M42.861 63.596a.22.22 0 0 1-.02.092.246.246 0 0 1-.048.076.219.219 0 0 1-.076.049.224.224 0 0 1-.186 0 .223.223 0 0 1-.125-.125.24.24 0 0 1 .05-.26.223.223 0 0 1 .075-.05.224.224 0 0 1 .186 0 .219.219 0 0 1 .125.125.22.22 0 0 1 .02.093M46.898 61.156v.104l-.287.05-1.052 2.526h-.1l-1.064-2.525-.295-.051v-.104h1.058v.104l-.351.05.793 1.928.79-1.927-.343-.051v-.104h.851M47.008 62.852v.035c0 .095.006.186.02.273a.657.657 0 0 0 .081.233c.042.066.1.12.174.16a.63.63 0 0 0 .293.058 2.04 2.04 0 0 0 .377-.035 1.7 1.7 0 0 0 .111-.021v.11a.707.707 0 0 1-.109.056 1.324 1.324 0 0 1-.475.093c-.152 0-.28-.02-.386-.062a.603.603 0 0 1-.254-.186.766.766 0 0 1-.14-.304 1.826 1.826 0 0 1-.044-.418c0-.32.067-.56.201-.717.135-.158.326-.236.575-.236.097 0 .188.013.273.039a.55.55 0 0 1 .375.377c.038.103.057.23.057.384v.16h-1.13m.425-.804a.368.368 0 0 0-.19.047.375.375 0 0 0-.13.129.654.654 0 0 0-.077.205c-.015.08-.023.168-.023.267h.785a1.85 1.85 0 0 0-.018-.267.625.625 0 0 0-.058-.205.31.31 0 0 0-.112-.13.314.314 0 0 0-.177-.046M49.686 63.26a.637.637 0 0 1-.04.226.436.436 0 0 1-.119.176.58.58 0 0 1-.213.113c-.085.026-.19.04-.312.04a1.812 1.812 0 0 1-.346-.037 1.5 1.5 0 0 1-.215-.055v-.452h.088l.096.256a.53.53 0 0 0 .156.094c.064.026.139.04.225.04a.438.438 0 0 0 .28-.079c.066-.053.099-.135.099-.246a.287.287 0 0 0-.041-.16.352.352 0 0 0-.108-.108.632.632 0 0 0-.152-.07 8.99 8.99 0 0 0-.174-.059 2.166 2.166 0 0 1-.174-.066.58.58 0 0 1-.15-.096.44.44 0 0 1-.107-.146.517.517 0 0 1-.042-.219c0-.083.015-.157.045-.223a.46.46 0 0 1 .125-.164.556.556 0 0 1 .194-.1.834.834 0 0 1 .248-.034c.088 0 .175.006.26.02.084.01.166.025.244.04v.4h-.092l-.082-.212a.338.338 0 0 0-.139-.069.725.725 0 0 0-.187-.023c-.106 0-.186.026-.242.078a.278.278 0 0 0-.082.21c0 .06.013.11.04.15.028.037.064.07.108.097a.888.888 0 0 0 .154.068l.176.06c.06.022.119.046.176.073.057.026.108.06.152.102a.466.466 0 0 1 .15.375M50.48 63.814c-.125 0-.218-.037-.28-.11a.478.478 0 0 1-.093-.313v-1.287h-.24v-.088l.244-.077.198-.416h.123v.416h.42v.165h-.42v1.251c0 .085.019.149.056.192.04.043.09.064.153.064.048 0 .095-.003.142-.01a2.37 2.37 0 0 0 .133-.021v.127a.67.67 0 0 1-.184.072 1.043 1.043 0 0 1-.252.035M51.678 61.34a.198.198 0 0 1-.018.082.207.207 0 0 1-.045.066.228.228 0 0 1-.068.047.219.219 0 0 1-.164 0 .237.237 0 0 1-.113-.113.219.219 0 0 1 0-.164.228.228 0 0 1 .046-.069.207.207 0 0 1 .067-.044.198.198 0 0 1 .164 0 .201.201 0 0 1 .113.113.198.198 0 0 1 .018.082m-.02 2.299l.315.049v.087h-.952v-.087l.313-.05v-1.562l-.26-.049v-.088h.584v1.7M53.543 62.807c0-.133-.012-.244-.037-.334a.57.57 0 0 0-.104-.221.364.364 0 0 0-.162-.12.563.563 0 0 0-.209-.036 1.435 1.435 0 0 0-.207.017 1.167 1.167 0 0 0-.101.02.489.489 0 0 0-.084.027v1.455c.054.01.117.018.187.024.07.005.139.007.205.007.18 0 .31-.07.39-.21.082-.141.122-.35.122-.63m-1.229-1.671l-.267-.047V61h.592v.656l-.002.086a2.607 2.607 0 0 1-.006.203l-.004.098a.698.698 0 0 1 .213-.11.867.867 0 0 1 .28-.042c.25 0 .44.076.573.228.134.151.201.38.201.688 0 .155-.016.295-.05.42a.858.858 0 0 1-.157.316.69.69 0 0 1-.267.201.943.943 0 0 1-.381.07 2.287 2.287 0 0 1-.563-.08 1.814 1.814 0 0 1-.162-.054v-2.545M54.658 63.252c0 .108.024.191.072.25.05.057.13.086.24.086a1.588 1.588 0 0 0 .453-.06v-1.452l-.277-.049v-.088h.6v1.7l.233.049v.087h-.536l-.015-.148a1.863 1.863 0 0 1-.469.17.786.786 0 0 1-.156.017.591.591 0 0 1-.192-.029.37.37 0 0 1-.148-.094.457.457 0 0 1-.096-.166.825.825 0 0 1-.033-.25v-1.199l-.234-.049v-.088h.558v1.313M56.764 63.639l.314.049v.087h-.951v-.087l.312-.05v-2.503l-.312-.047V61h.637v2.639M57.768 63.252c0 .108.024.191.072.25.05.057.13.086.24.086a1.588 1.588 0 0 0 .453-.06v-1.452l-.277-.049v-.088h.6v1.7l.232.049v.087h-.535l-.016-.148a1.863 1.863 0 0 1-.469.17.786.786 0 0 1-.156.017.591.591 0 0 1-.191-.029.37.37 0 0 1-.149-.094.457.457 0 0 1-.095-.166.825.825 0 0 1-.034-.25v-1.199l-.234-.049v-.088h.559v1.313M59.793 62.088a1.917 1.917 0 0 1 .285-.131c.054-.02.108-.035.162-.047a.6.6 0 0 1 .4.031.342.342 0 0 1 .172.163 2.018 2.018 0 0 1 .52-.193.833.833 0 0 1 .168-.02c.07 0 .134.01.191.029.058.02.107.05.147.094a.422.422 0 0 1 .096.168.782.782 0 0 1 .035.25v1.207l.236.049v.087h-.834v-.087l.274-.05v-1.171c0-.108-.025-.19-.075-.248-.048-.059-.127-.088-.238-.088a1.07 1.07 0 0 0-.12.008c-.043.005-.088.01-.134.017a42.329 42.329 0 0 1-.23.043c.022.07.033.148.033.233v1.207l.275.049v.087h-.87v-.087l.27-.05v-1.171c0-.108-.027-.191-.083-.248-.055-.059-.138-.088-.248-.088-.037 0-.075.002-.116.006l-.117.013a3.094 3.094 0 0 0-.195.037v1.452l.275.049v.087h-.832v-.087l.233-.05v-1.562l-.233-.049v-.088h.537l.016.149M65.113 62.848c0 .31-.07.55-.209.716-.139.167-.356.25-.65.25-.276 0-.484-.082-.625-.248-.14-.165-.211-.405-.211-.718 0-.31.07-.547.21-.711.142-.164.355-.246.642-.246.278 0 .488.08.63.242.142.16.213.398.213.715m-.351 0c0-.127-.009-.24-.026-.338a.726.726 0 0 0-.086-.252.392.392 0 0 0-.156-.156.486.486 0 0 0-.24-.055.468.468 0 0 0-.238.055.375.375 0 0 0-.149.156.756.756 0 0 0-.076.252 2.38 2.38 0 0 0-.021.338c0 .127.007.241.021.341a.8.8 0 0 0 .076.256.401.401 0 0 0 .149.16.468.468 0 0 0 .238.055.486.486 0 0 0 .24-.055.42.42 0 0 0 .156-.16.768.768 0 0 0 .086-.256c.017-.1.026-.214.026-.341M66.563 61.89v.497h-.084l-.114-.215a1.392 1.392 0 0 0-.242.03 1.17 1.17 0 0 0-.22.066v1.37l.314.05v.087h-.871v-.088l.232-.048v-1.563l-.232-.049v-.088h.535l.017.229a1.704 1.704 0 0 1 .473-.248.543.543 0 0 1 .162-.03h.03M67.234 62.088a1.917 1.917 0 0 1 .287-.131c.055-.02.11-.035.165-.047a.66.66 0 0 1 .345.01c.059.02.109.05.15.094a.427.427 0 0 1 .1.168.744.744 0 0 1 .037.25v1.207l.223.049v.087h-.791v-.087l.244-.05v-1.171a.373.373 0 0 0-.08-.254c-.052-.063-.133-.094-.244-.094-.037 0-.075.002-.115.006a3.4 3.4 0 0 0-.12.014 3.086 3.086 0 0 0-.197.037v1.463l.248.049v.087h-.793v-.087l.221-.05v-1.562l-.22-.049v-.088h.523l.017.149M69.51 61.898c.083 0 .16.008.232.024a.49.49 0 0 1 .186.08.37.37 0 0 1 .12.154.57.57 0 0 1 .046.242v1.24l.228.05v.087h-.504l-.037-.183a.841.841 0 0 1-.199.142.891.891 0 0 1-.37.08.55.55 0 0 1-.224-.04.37.37 0 0 1-.144-.114.471.471 0 0 1-.078-.174.971.971 0 0 1-.024-.218c0-.081.01-.15.03-.21a.425.425 0 0 1 .205-.248.692.692 0 0 1 .154-.06c.056-.014.114-.024.176-.03.062-.005.125-.008.187-.01l.276-.007v-.287a.742.742 0 0 0-.014-.148.316.316 0 0 0-.047-.118.212.212 0 0 0-.086-.076.304.304 0 0 0-.137-.027.738.738 0 0 0-.357.092l-.067.228h-.109v-.4c.085-.018.172-.034.262-.047.091-.014.19-.022.295-.022m.26.942l-.256.008c-.077.002-.144.01-.2.023a.317.317 0 0 0-.138.063.27.27 0 0 0-.082.123.612.612 0 0 0-.028.199c0 .229.094.344.28.344.088 0 .164-.01.228-.03.065-.02.13-.047.196-.078v-.652M71.672 61.89v.497h-.084l-.113-.215a1.392 1.392 0 0 0-.242.03 1.17 1.17 0 0 0-.221.066v1.37l.314.05v.087h-.87v-.088l.232-.048v-1.563l-.233-.049v-.088h.535l.018.229a1.704 1.704 0 0 1 .473-.248.543.543 0 0 1 .162-.03h.029M72.219 62.852v.035c0 .095.006.186.02.273a.657.657 0 0 0 .081.233c.042.066.1.12.174.16a.63.63 0 0 0 .293.058 2.04 2.04 0 0 0 .377-.035 1.7 1.7 0 0 0 .111-.021v.11a.707.707 0 0 1-.109.056 1.324 1.324 0 0 1-.475.093c-.152 0-.28-.02-.386-.062a.603.603 0 0 1-.254-.186.767.767 0 0 1-.14-.304 1.826 1.826 0 0 1-.044-.418c0-.32.067-.56.201-.717.134-.158.326-.236.575-.236.097 0 .188.013.273.039a.55.55 0 0 1 .375.377c.038.103.057.23.057.384v.16h-1.13m.425-.804a.368.368 0 0 0-.19.047.375.375 0 0 0-.13.129.654.654 0 0 0-.077.205c-.016.08-.023.168-.023.267h.785a1.85 1.85 0 0 0-.018-.267.625.625 0 0 0-.058-.205.31.31 0 0 0-.112-.13.314.314 0 0 0-.177-.046M22.771 69.34a.198.198 0 0 1-.017.082.207.207 0 0 1-.045.066.228.228 0 0 1-.068.047.219.219 0 0 1-.164 0 .237.237 0 0 1-.114-.113.219.219 0 0 1 0-.164.228.228 0 0 1 .047-.069.207.207 0 0 1 .067-.044.198.198 0 0 1 .164 0 .201.201 0 0 1 .113.113.198.198 0 0 1 .017.082m-.019 2.299l.314.049v.087h-.95v-.087l.312-.05v-1.562l-.26-.049v-.088h.584v1.7M23.777 70.088a1.917 1.917 0 0 1 .285-.131c.054-.02.108-.035.163-.047a.6.6 0 0 1 .4.031.342.342 0 0 1 .172.163 2.018 2.018 0 0 1 .52-.193.833.833 0 0 1 .167-.02c.07 0 .134.01.192.029.057.02.106.05.146.094a.422.422 0 0 1 .096.168.782.782 0 0 1 .035.25v1.207l.236.049v.087h-.834v-.087l.274-.05v-1.171c0-.108-.025-.19-.074-.248-.048-.059-.128-.088-.239-.088a1.07 1.07 0 0 0-.119.008c-.044.005-.089.01-.135.017a42.329 42.329 0 0 1-.23.043c.022.07.033.148.033.233v1.207l.276.049v.087h-.871v-.087l.271-.05v-1.171c0-.108-.028-.191-.084-.248-.055-.059-.137-.088-.248-.088-.036 0-.075.002-.115.006l-.117.013a3.094 3.094 0 0 0-.195.037v1.452l.275.049v.087h-.832v-.087l.232-.05v-1.562l-.232-.049v-.088h.537l.015.149M26.547 70.076l-.21-.049v-.088h.517l.003.108a.467.467 0 0 1 .096-.063.874.874 0 0 1 .404-.094c.115 0 .218.02.309.061.091.04.169.101.232.182a.81.81 0 0 1 .145.297c.034.117.05.252.05.406 0 .15-.016.285-.05.406a.878.878 0 0 1-.152.309.67.67 0 0 1-.256.195.867.867 0 0 1-.358.068c-.066 0-.136-.003-.21-.011a1.712 1.712 0 0 1-.21-.032 3.23 3.23 0 0 1 .012.221v.496l.32.047v.092h-.874v-.092l.232-.047v-2.412m1.195.76a1.5 1.5 0 0 0-.033-.34.627.627 0 0 0-.098-.228.371.371 0 0 0-.154-.131.502.502 0 0 0-.207-.041 1.254 1.254 0 0 0-.38.064v1.467a2.038 2.038 0 0 0 .38.033.397.397 0 0 0 .375-.213c.078-.143.117-.347.117-.611M28.758 70.852v.035c0 .095.006.186.02.273a.657.657 0 0 0 .081.233c.042.066.1.12.174.16a.63.63 0 0 0 .293.058 2.04 2.04 0 0 0 .377-.035 1.7 1.7 0 0 0 .111-.021v.11a.707.707 0 0 1-.109.056 1.324 1.324 0 0 1-.475.093c-.152 0-.28-.02-.386-.062a.603.603 0 0 1-.254-.186.767.767 0 0 1-.14-.304 1.826 1.826 0 0 1-.044-.418c0-.32.067-.56.201-.717.135-.158.326-.236.575-.236.097 0 .188.013.273.039a.55.55 0 0 1 .375.377c.038.103.057.23.057.384v.16h-1.13m.425-.804a.368.368 0 0 0-.19.047.375.375 0 0 0-.13.129.654.654 0 0 0-.077.205c-.015.08-.023.168-.023.267h.785a1.85 1.85 0 0 0-.018-.267.625.625 0 0 0-.058-.205.31.31 0 0 0-.112-.13.314.314 0 0 0-.177-.046M31.32 69.89v.497h-.084l-.113-.215a1.392 1.392 0 0 0-.242.03 1.17 1.17 0 0 0-.22.066v1.37l.314.05v.087h-.871v-.088l.232-.048v-1.563l-.232-.049v-.088h.535l.017.229a1.704 1.704 0 0 1 .473-.248.543.543 0 0 1 .162-.03h.03M32.771 71.639a.781.781 0 0 1-.516.176c-.5 0-.751-.314-.751-.94 0-.152.016-.29.049-.41a.838.838 0 0 1 .154-.31.654.654 0 0 1 .262-.196.94.94 0 0 1 .375-.068 2.018 2.018 0 0 1 .427.045.51.51 0 0 1-.005-.063 23.801 23.801 0 0 1-.006-.186V69.135l-.309-.047V69h.633v2.639l.226.049v.087h-.515l-.024-.136m-.916-.764c0 .137.012.252.036.346.024.093.059.17.103.228a.39.39 0 0 0 .16.125.563.563 0 0 0 .21.037 1.008 1.008 0 0 0 .396-.076v-1.451a2.293 2.293 0 0 0-.396-.033.417.417 0 0 0-.386.209c-.082.14-.123.344-.123.615M34.1 69.34a.198.198 0 0 1-.018.082.207.207 0 0 1-.045.066.228.228 0 0 1-.068.047.219.219 0 0 1-.164 0 .237.237 0 0 1-.114-.113.219.219 0 0 1 0-.164.228.228 0 0 1 .047-.069.207.207 0 0 1 .067-.044.198.198 0 0 1 .164 0 .201.201 0 0 1 .113.113.198.198 0 0 1 .018.082m-.02 2.299l.315.049v.087h-.952v-.087l.313-.05v-1.562l-.26-.049v-.088h.584v1.7M34.977 70.852v.035c0 .095.006.186.02.273a.657.657 0 0 0 .081.233c.042.066.1.12.174.16a.63.63 0 0 0 .293.058 2.04 2.04 0 0 0 .377-.035 1.7 1.7 0 0 0 .111-.021v.11a.707.707 0 0 1-.11.056 1.324 1.324 0 0 1-.474.093c-.152 0-.281-.02-.387-.062a.603.603 0 0 1-.253-.186.766.766 0 0 1-.141-.304 1.826 1.826 0 0 1-.043-.418c0-.32.067-.56.201-.717.134-.158.326-.236.574-.236.098 0 .19.013.274.039a.55.55 0 0 1 .375.377c.038.103.056.23.056.384v.16h-1.128m.423-.804a.368.368 0 0 0-.19.047.375.375 0 0 0-.13.129.654.654 0 0 0-.076.205c-.016.08-.024.168-.024.267h.786a1.85 1.85 0 0 0-.018-.267.625.625 0 0 0-.059-.205.31.31 0 0 0-.11-.13.314.314 0 0 0-.179-.046M36.895 71.814c-.125 0-.22-.037-.282-.11a.478.478 0 0 1-.092-.313v-1.287h-.24v-.088l.244-.077.198-.416h.123v.416h.42v.165h-.42v1.251c0 .085.019.149.056.192.04.043.09.064.153.064.048 0 .095-.003.142-.01a2.37 2.37 0 0 0 .133-.021v.127a.67.67 0 0 1-.184.072 1.043 1.043 0 0 1-.251.035M39.764 71.639a.781.781 0 0 1-.516.176c-.501 0-.752-.314-.752-.94 0-.152.016-.29.049-.41a.838.838 0 0 1 .154-.31.654.654 0 0 1 .262-.196.94.94 0 0 1 .375-.068 2.018 2.018 0 0 1 .428.045.51.51 0 0 1-.006-.063 23.801 23.801 0 0 1-.006-.186V69.135l-.309-.047V69h.633v2.639l.227.049v.087h-.516l-.023-.136m-.916-.764c0 .137.011.252.035.346.024.093.059.17.103.228a.39.39 0 0 0 .16.125.563.563 0 0 0 .21.037 1.008 1.008 0 0 0 .396-.076v-1.451a2.293 2.293 0 0 0-.396-.033.417.417 0 0 0-.385.209c-.082.14-.123.344-.123.615M41.092 69.34a.198.198 0 0 1-.018.082.207.207 0 0 1-.045.066.228.228 0 0 1-.068.047.219.219 0 0 1-.164 0 .237.237 0 0 1-.113-.113.219.219 0 0 1 0-.164.228.228 0 0 1 .046-.069.207.207 0 0 1 .067-.044.198.198 0 0 1 .164 0 .201.201 0 0 1 .113.113.198.198 0 0 1 .018.082m-.02 2.299l.315.049v.087h-.951v-.087l.312-.05v-1.562l-.26-.049v-.088h.584v1.7M42.37 69.898c.082 0 .16.008.232.024a.49.49 0 0 1 .185.08.37.37 0 0 1 .121.154.57.57 0 0 1 .045.242v1.24l.229.05v.087h-.504l-.037-.183a.84.84 0 0 1-.2.142.891.891 0 0 1-.369.08.55.55 0 0 1-.224-.04.37.37 0 0 1-.145-.114.471.471 0 0 1-.078-.174.971.971 0 0 1-.023-.218c0-.081.01-.15.029-.21a.425.425 0 0 1 .205-.248.692.692 0 0 1 .154-.06c.056-.014.115-.024.176-.03.063-.005.125-.008.188-.01l.275-.007v-.287a.742.742 0 0 0-.014-.148.316.316 0 0 0-.047-.118.212.212 0 0 0-.086-.076.304.304 0 0 0-.136-.027.738.738 0 0 0-.358.092l-.066.228h-.11v-.4c.085-.018.172-.034.262-.047.091-.014.19-.022.295-.022m.26.942l-.256.008c-.077.002-.143.01-.2.023a.317.317 0 0 0-.138.063.27.27 0 0 0-.082.123.612.612 0 0 0-.027.199c0 .229.093.344.28.344.088 0 .164-.01.228-.03.065-.02.13-.047.195-.078v-.652M43.871 70.088a1.917 1.917 0 0 1 .285-.131c.054-.02.108-.035.162-.047a.6.6 0 0 1 .4.031.342.342 0 0 1 .173.163 2.018 2.018 0 0 1 .52-.193.833.833 0 0 1 .167-.02c.07 0 .134.01.192.029.057.02.106.05.146.094a.422.422 0 0 1 .096.168.782.782 0 0 1 .035.25v1.207l.236.049v.087h-.834v-.087l.274-.05v-1.171c0-.108-.025-.19-.075-.248-.048-.059-.127-.088-.238-.088a1.07 1.07 0 0 0-.119.008c-.044.005-.09.01-.135.017a42.329 42.329 0 0 1-.23.043c.022.07.033.148.033.233v1.207l.275.049v.087h-.87v-.087l.27-.05v-1.171c0-.108-.027-.191-.083-.248-.055-.059-.138-.088-.248-.088-.037 0-.075.002-.115.006l-.118.013a3.094 3.094 0 0 0-.195.037v1.452l.275.049v.087h-.832v-.087l.233-.05v-1.562l-.233-.049v-.088h.537l.016.149M47.092 71.68a.75.75 0 0 1-.033.222.58.58 0 0 1-.104.202.736.736 0 0 1-.184.166c-.075.049-.167.09-.275.12v-.15a.641.641 0 0 0 .26-.138.257.257 0 0 0 .084-.19.096.096 0 0 0-.02-.06.226.226 0 0 0-.049-.043.961.961 0 0 0-.064-.036.397.397 0 0 1-.062-.04.222.222 0 0 1-.05-.061.195.195 0 0 1-.019-.092c0-.07.022-.124.067-.16a.253.253 0 0 1 .17-.057.269.269 0 0 1 .255.182.36.36 0 0 1 .024.135M49.252 69.898c.083 0 .16.008.232.024a.49.49 0 0 1 .186.08.37.37 0 0 1 .121.154.57.57 0 0 1 .045.242v1.24l.228.05v.087h-.503l-.038-.183a.84.84 0 0 1-.199.142.891.891 0 0 1-.369.08.55.55 0 0 1-.225-.04.37.37 0 0 1-.144-.114.471.471 0 0 1-.078-.174.971.971 0 0 1-.024-.218c0-.081.01-.15.03-.21a.425.425 0 0 1 .205-.248.692.692 0 0 1 .154-.06c.056-.014.115-.024.176-.03.062-.005.125-.008.187-.01l.276-.007v-.287a.742.742 0 0 0-.014-.148.316.316 0 0 0-.047-.118.212.212 0 0 0-.086-.076.304.304 0 0 0-.136-.027.738.738 0 0 0-.358.092l-.066.228h-.11v-.4c.085-.018.172-.034.262-.047.091-.014.19-.022.295-.022m.26.942l-.256.008c-.077.002-.143.01-.2.023a.317.317 0 0 0-.138.063.27.27 0 0 0-.082.123.612.612 0 0 0-.027.199c0 .229.093.344.279.344.088 0 .165-.01.228-.03.066-.02.13-.047.196-.078v-.652M50.77 71.814c-.125 0-.22-.037-.282-.11a.478.478 0 0 1-.092-.313v-1.287h-.24v-.088l.244-.077.198-.416h.123v.416h.42v.165h-.42v1.251c0 .085.019.149.056.192.04.043.09.064.153.064.048 0 .095-.003.142-.01a2.37 2.37 0 0 0 .133-.021v.127a.67.67 0 0 1-.184.072 1.043 1.043 0 0 1-.251.035M52.523 70.076l-.209-.049v-.088h.516l.004.108a.467.467 0 0 1 .096-.063.874.874 0 0 1 .404-.094c.115 0 .217.02.309.061.09.04.168.101.232.182a.81.81 0 0 1 .145.297c.033.117.05.252.05.406 0 .15-.017.285-.05.406a.878.878 0 0 1-.153.309.67.67 0 0 1-.256.195.867.867 0 0 1-.357.068c-.067 0-.137-.003-.211-.011a1.712 1.712 0 0 1-.209-.032 3.23 3.23 0 0 1 .012.221v.496l.32.047v.092h-.875v-.092l.233-.047v-2.412m1.195.76a1.5 1.5 0 0 0-.033-.34.627.627 0 0 0-.098-.228.371.371 0 0 0-.154-.131.502.502 0 0 0-.207-.041 1.254 1.254 0 0 0-.381.064v1.467a2.038 2.038 0 0 0 .38.033.397.397 0 0 0 .376-.213c.078-.143.117-.347.117-.611M54.734 70.852v.035c0 .095.007.186.02.273a.657.657 0 0 0 .082.233c.042.066.1.12.174.16a.63.63 0 0 0 .293.058 2.04 2.04 0 0 0 .377-.035 1.7 1.7 0 0 0 .111-.021v.11a.707.707 0 0 1-.11.056 1.324 1.324 0 0 1-.474.093c-.152 0-.281-.02-.387-.062a.603.603 0 0 1-.254-.186.767.767 0 0 1-.14-.304 1.826 1.826 0 0 1-.043-.418c0-.32.067-.56.201-.717.134-.158.326-.236.574-.236.098 0 .189.013.274.039a.55.55 0 0 1 .375.377c.037.103.056.23.056.384v.16h-1.129m.424-.804a.368.368 0 0 0-.19.047.375.375 0 0 0-.13.129.654.654 0 0 0-.076.205c-.016.08-.024.168-.024.267h.785a1.85 1.85 0 0 0-.017-.267.625.625 0 0 0-.059-.205.31.31 0 0 0-.111-.13.314.314 0 0 0-.178-.046M56.717 71.639l.314.049v.087h-.95v-.087l.312-.05v-2.503l-.313-.047V69h.637v2.639M57.826 71.639l.315.049v.087h-.952v-.087l.313-.05v-2.503l-.313-.047V69h.637v2.639M58.727 70.852v.035c0 .095.006.186.02.273a.657.657 0 0 0 .081.233c.042.066.1.12.174.16a.63.63 0 0 0 .293.058 2.04 2.04 0 0 0 .377-.035 1.7 1.7 0 0 0 .111-.021v.11a.707.707 0 0 1-.11.056 1.324 1.324 0 0 1-.474.093c-.152 0-.281-.02-.387-.062a.603.603 0 0 1-.253-.186.766.766 0 0 1-.141-.304 1.826 1.826 0 0 1-.043-.418c0-.32.067-.56.201-.717.134-.158.326-.236.574-.236.098 0 .19.013.274.039a.55.55 0 0 1 .375.377c.038.103.056.23.056.384v.16h-1.128m.423-.804a.368.368 0 0 0-.19.047.375.375 0 0 0-.13.129.654.654 0 0 0-.076.205c-.016.08-.024.168-.024.267h.786a1.85 1.85 0 0 0-.018-.267.625.625 0 0 0-.059-.205.31.31 0 0 0-.11-.13.314.314 0 0 0-.179-.046M60.625 70.088a1.917 1.917 0 0 1 .287-.131c.055-.02.11-.035.164-.047a.66.66 0 0 1 .346.01c.058.02.109.05.15.094a.427.427 0 0 1 .1.168.744.744 0 0 1 .037.25v1.207l.223.049v.087h-.791v-.087l.244-.05v-1.171a.373.373 0 0 0-.08-.254c-.052-.063-.134-.094-.244-.094-.037 0-.075.002-.116.006l-.119.014a3.086 3.086 0 0 0-.197.037v1.463l.248.049v.087h-.793v-.087l.22-.05v-1.562l-.22-.049v-.088h.523l.018.149M62.645 71.814c-.125 0-.22-.037-.282-.11a.478.478 0 0 1-.092-.313v-1.287h-.24v-.088l.244-.077.198-.416h.123v.416h.42v.165h-.42v1.251c0 .085.019.149.056.192.04.043.09.064.153.064.048 0 .095-.003.142-.01a2.37 2.37 0 0 0 .133-.021v.127a.67.67 0 0 1-.184.072 1.043 1.043 0 0 1-.251.035M63.61 70.852v.035c0 .095.006.186.019.273a.657.657 0 0 0 .082.233c.042.066.1.12.174.16a.63.63 0 0 0 .293.058 2.04 2.04 0 0 0 .377-.035 1.7 1.7 0 0 0 .111-.021v.11a.707.707 0 0 1-.11.056 1.324 1.324 0 0 1-.474.093c-.152 0-.281-.02-.387-.062a.603.603 0 0 1-.254-.186.767.767 0 0 1-.14-.304 1.826 1.826 0 0 1-.043-.418c0-.32.067-.56.201-.717.134-.158.326-.236.574-.236.098 0 .189.013.274.039a.55.55 0 0 1 .375.377c.037.103.056.23.056.384v.16H63.61m.424-.804a.368.368 0 0 0-.19.047.375.375 0 0 0-.13.129.654.654 0 0 0-.076.205c-.016.08-.024.168-.024.267h.785a1.85 1.85 0 0 0-.017-.267.625.625 0 0 0-.059-.205.31.31 0 0 0-.111-.13.314.314 0 0 0-.178-.046M66.287 71.26a.637.637 0 0 1-.039.226.436.436 0 0 1-.12.176.58.58 0 0 1-.212.113c-.086.026-.19.04-.312.04a1.812 1.812 0 0 1-.346-.037 1.5 1.5 0 0 1-.215-.055v-.452h.088l.096.256a.53.53 0 0 0 .156.094c.064.026.138.04.224.04a.438.438 0 0 0 .28-.079c.066-.053.1-.135.1-.246a.287.287 0 0 0-.042-.16.352.352 0 0 0-.107-.108.632.632 0 0 0-.152-.07 8.99 8.99 0 0 0-.174-.059 2.166 2.166 0 0 1-.174-.066.58.58 0 0 1-.15-.096.44.44 0 0 1-.108-.146.517.517 0 0 1-.04-.219c0-.083.014-.157.044-.223a.46.46 0 0 1 .125-.164.556.556 0 0 1 .193-.1.834.834 0 0 1 .248-.034c.089 0 .176.006.26.02.085.01.166.025.244.04v.4h-.092l-.082-.212a.338.338 0 0 0-.138-.069.725.725 0 0 0-.188-.023c-.105 0-.186.026-.242.078a.278.278 0 0 0-.082.21c0 .06.014.11.041.15.027.037.063.07.108.097a.888.888 0 0 0 .154.068l.176.06c.06.022.118.046.175.073.058.026.108.06.153.102a.466.466 0 0 1 .15.375M68.018 69.852h.136v2.636l.203.047v.092h-.779v-.092l.252-.047v-.51c0-.049.001-.102.004-.16a1.74 1.74 0 0 1 .016-.166.786.786 0 0 1-.22.116.892.892 0 0 1-.304.046c-.256 0-.446-.08-.568-.244-.123-.164-.184-.4-.184-.707 0-.15.017-.284.051-.404a.837.837 0 0 1 .152-.307.665.665 0 0 1 .26-.193.925.925 0 0 1 .37-.068 2.13 2.13 0 0 1 .435.045l.176-.084m-1.092 1.011c0 .133.01.247.033.342a.695.695 0 0 0 .1.232c.043.06.095.105.158.133a.546.546 0 0 0 .217.041 1.434 1.434 0 0 0 .312-.037.489.489 0 0 0 .084-.027v-1.463a2.293 2.293 0 0 0-.396-.033c-.172 0-.3.07-.383.209-.084.14-.125.34-.125.603M69.041 71.252c0 .108.024.191.072.25.05.057.13.086.24.086a1.588 1.588 0 0 0 .453-.06v-1.452l-.277-.049v-.088h.6v1.7l.232.049v.087h-.535l-.015-.148a1.864 1.864 0 0 1-.469.17.786.786 0 0 1-.156.017.591.591 0 0 1-.192-.029.37.37 0 0 1-.148-.094.457.457 0 0 1-.096-.166.824.824 0 0 1-.033-.25v-1.199l-.235-.049v-.088h.559v1.313M70.938 70.852v.035c0 .095.006.186.019.273a.657.657 0 0 0 .082.233c.042.066.1.12.174.16a.63.63 0 0 0 .293.058 2.04 2.04 0 0 0 .377-.035 1.7 1.7 0 0 0 .111-.021v.11a.707.707 0 0 1-.11.056 1.324 1.324 0 0 1-.474.093c-.152 0-.281-.02-.387-.062a.603.603 0 0 1-.253-.186.767.767 0 0 1-.141-.304 1.826 1.826 0 0 1-.043-.418c0-.32.067-.56.201-.717.134-.158.326-.236.574-.236.098 0 .19.013.274.039a.55.55 0 0 1 .375.377c.038.103.056.23.056.384v.16h-1.129m.424-.804a.368.368 0 0 0-.19.047.375.375 0 0 0-.13.129.654.654 0 0 0-.076.205c-.016.08-.024.168-.024.267h.786a1.85 1.85 0 0 0-.018-.267.625.625 0 0 0-.059-.205.31.31 0 0 0-.11-.13.314.314 0 0 0-.179-.046M22.748 79.639l.314.049v.087h-.95v-.087l.312-.05v-2.503l-.313-.047V77h.637v2.639M23.88 77.34a.198.198 0 0 1-.017.082.207.207 0 0 1-.045.066.228.228 0 0 1-.068.047.219.219 0 0 1-.164 0 .237.237 0 0 1-.113-.113.219.219 0 0 1 0-.164.228.228 0 0 1 .047-.069.207.207 0 0 1 .066-.044.198.198 0 0 1 .164 0 .201.201 0 0 1 .113.113.198.198 0 0 1 .018.082m-.02 2.299l.315.049v.087h-.951v-.087l.312-.05v-1.562l-.26-.049v-.088h.584v1.7M25.95 78.52c0 .21-.064.37-.19.478-.127.108-.308.162-.545.162a1.556 1.556 0 0 1-.297-.03l-.123.257c.004.022.03.043.076.062a.46.46 0 0 0 .176.03h.543c.198 0 .344.043.44.128a.452.452 0 0 1 .144.356.616.616 0 0 1-.053.248.542.542 0 0 1-.168.217.857.857 0 0 1-.303.152c-.125.04-.278.059-.46.059-.14 0-.258-.012-.356-.035a.722.722 0 0 1-.238-.094.377.377 0 0 1-.133-.14.376.376 0 0 1-.018-.298.535.535 0 0 1 .174-.215 2.29 2.29 0 0 1 .131-.101.527.527 0 0 1-.082-.037.46.46 0 0 1-.086-.069.377.377 0 0 1-.068-.093.267.267 0 0 1-.028-.121l.309-.348c-.206-.096-.309-.286-.309-.568 0-.103.017-.194.051-.272a.515.515 0 0 1 .145-.197.623.623 0 0 1 .234-.12 1.11 1.11 0 0 1 .426-.034 1.952 1.952 0 0 1 .248.043l.431-.217.069.084-.272.28a.46.46 0 0 1 .098.188.852.852 0 0 1 .033.245m-.08 1.503a.224.224 0 0 0-.068-.173c-.046-.042-.115-.063-.207-.063h-.711a.558.558 0 0 0-.135.178.637.637 0 0 0-.037.101.405.405 0 0 0 .008.229.23.23 0 0 0 .078.1.436.436 0 0 0 .152.064c.064.016.144.023.24.023.118 0 .219-.011.303-.035a.607.607 0 0 0 .213-.095.37.37 0 0 0 .123-.145.413.413 0 0 0 .041-.184m-.65-1.011c.142 0 .242-.04.3-.121.06-.082.09-.206.09-.371a.927.927 0 0 0-.021-.213.355.355 0 0 0-.067-.15.273.273 0 0 0-.119-.089.49.49 0 0 0-.18-.029.513.513 0 0 0-.183.03.3.3 0 0 0-.123.087.373.373 0 0 0-.068.15.924.924 0 0 0-.022.214.98.98 0 0 0 .022.216.41.41 0 0 0 .068.155c.031.04.072.07.121.091.05.02.11.03.182.03M26.861 79.252c0 .108.024.191.073.25.05.057.13.086.24.086a1.588 1.588 0 0 0 .453-.06v-1.452l-.277-.049v-.088h.6v1.7l.232.049v.087h-.536l-.015-.148a1.863 1.863 0 0 1-.469.17.786.786 0 0 1-.156.017.591.591 0 0 1-.192-.029.37.37 0 0 1-.148-.094.457.457 0 0 1-.096-.166.824.824 0 0 1-.033-.25v-1.199l-.234-.049v-.088h.558v1.313M28.967 79.639l.314.049v.087h-.95v-.087l.312-.05v-2.503l-.313-.047V77h.637v2.639M30.268 77.898c.083 0 .16.008.232.024a.49.49 0 0 1 .186.08.37.37 0 0 1 .12.154.57.57 0 0 1 .046.242v1.24l.228.05v.087h-.504l-.037-.183a.84.84 0 0 1-.2.142.891.891 0 0 1-.368.08.55.55 0 0 1-.225-.04.37.37 0 0 1-.144-.114.471.471 0 0 1-.079-.174.972.972 0 0 1-.023-.218c0-.081.01-.15.03-.21.019-.06.046-.11.081-.15a.425.425 0 0 1 .123-.097.692.692 0 0 1 .155-.061c.056-.014.114-.024.175-.03.063-.005.125-.008.188-.01l.275-.007v-.287a.742.742 0 0 0-.013-.148.316.316 0 0 0-.047-.118.212.212 0 0 0-.086-.076.304.304 0 0 0-.137-.027.738.738 0 0 0-.357.092l-.067.228h-.11v-.4c.086-.018.173-.034.263-.047.09-.014.19-.022.295-.022m.26.942l-.257.008c-.076.002-.143.01-.199.023a.317.317 0 0 0-.138.063.27.27 0 0 0-.082.123.612.612 0 0 0-.028.199c0 .229.093.344.28.344.088 0 .164-.01.228-.03.065-.02.13-.047.195-.078v-.652M32.744 79.252c0 .108.024.191.072.25.05.057.13.086.24.086a1.588 1.588 0 0 0 .453-.06v-1.452l-.277-.049v-.088h.6v1.7l.232.049v.087h-.535l-.015-.148a1.864 1.864 0 0 1-.469.17.786.786 0 0 1-.156.017.591.591 0 0 1-.192-.029.37.37 0 0 1-.148-.094.457.457 0 0 1-.096-.166.824.824 0 0 1-.033-.25v-1.199l-.234-.049v-.088h.558v1.313M34.85 79.639l.314.049v.087h-.951v-.087l.312-.05v-2.503l-.312-.047V77h.637v2.639M35.895 79.814c-.125 0-.22-.037-.282-.11a.478.478 0 0 1-.092-.313v-1.287h-.24v-.088l.244-.077.198-.416h.123v.416h.42v.165h-.42v1.251c0 .085.019.149.056.192.04.043.09.064.153.064.048 0 .095-.003.142-.01a2.37 2.37 0 0 0 .133-.021v.127a.67.67 0 0 1-.184.072 1.043 1.043 0 0 1-.251.035M37.648 77.89v.497h-.084l-.113-.215a1.392 1.392 0 0 0-.242.03 1.17 1.17 0 0 0-.22.066v1.37l.314.05v.087h-.871v-.088l.232-.048v-1.563l-.232-.049v-.088h.535l.017.229a1.704 1.704 0 0 1 .473-.248.543.543 0 0 1 .162-.03h.03M38.428 77.34a.198.198 0 0 1-.018.082.207.207 0 0 1-.045.066.228.228 0 0 1-.068.047.219.219 0 0 1-.164 0 .237.237 0 0 1-.113-.113.219.219 0 0 1 0-.164.228.228 0 0 1 .046-.069.207.207 0 0 1 .067-.044.198.198 0 0 1 .164 0 .201.201 0 0 1 .113.113.198.198 0 0 1 .018.082m-.02 2.299l.315.049v.087h-.952v-.087l.313-.05v-1.562l-.26-.049v-.088h.584v1.7M40.45 79.664a.588.588 0 0 1-.122.066 1.327 1.327 0 0 1-.486.084c-.16 0-.295-.021-.408-.064a.69.69 0 0 1-.276-.191.79.79 0 0 1-.158-.305 1.524 1.524 0 0 1-.05-.41c0-.167.02-.31.064-.43a.788.788 0 0 1 .183-.297.712.712 0 0 1 .278-.172 1.1 1.1 0 0 1 .353-.054c.106 0 .208.006.307.02.099.01.189.025.27.04v.512h-.108l-.084-.324a.875.875 0 0 0-.389-.092.513.513 0 0 0-.224.047.416.416 0 0 0-.164.142.737.737 0 0 0-.102.248c-.022.1-.033.22-.033.36 0 .117.01.223.03.318.019.094.053.174.103.24.05.067.115.118.199.155a.813.813 0 0 0 .32.054 2.366 2.366 0 0 0 .27-.017 2.157 2.157 0 0 0 .226-.047v.117M41.078 78.852v.035c0 .095.007.186.02.273a.657.657 0 0 0 .082.233c.041.066.1.12.174.16a.63.63 0 0 0 .292.058 2.04 2.04 0 0 0 .377-.035 1.7 1.7 0 0 0 .112-.021v.11a.707.707 0 0 1-.11.056 1.324 1.324 0 0 1-.474.093c-.153 0-.281-.02-.387-.062a.603.603 0 0 1-.254-.186.767.767 0 0 1-.14-.304 1.826 1.826 0 0 1-.043-.418c0-.32.067-.56.2-.717.135-.158.326-.236.575-.236.098 0 .189.013.273.039a.55.55 0 0 1 .375.377c.038.103.057.23.057.384v.16h-1.129m.424-.804a.368.368 0 0 0-.19.047.375.375 0 0 0-.13.129.654.654 0 0 0-.077.205c-.015.08-.023.168-.023.267h.785a1.85 1.85 0 0 0-.017-.267.625.625 0 0 0-.059-.205.31.31 0 0 0-.111-.13.314.314 0 0 0-.178-.046M43.756 79.26a.637.637 0 0 1-.04.226.436.436 0 0 1-.118.176.58.58 0 0 1-.213.113c-.086.026-.19.04-.313.04a1.812 1.812 0 0 1-.346-.037 1.5 1.5 0 0 1-.214-.055v-.452h.088l.095.256a.53.53 0 0 0 .157.094c.063.026.138.04.224.04a.438.438 0 0 0 .28-.079c.066-.053.1-.135.1-.246a.287.287 0 0 0-.042-.16.352.352 0 0 0-.107-.108.632.632 0 0 0-.153-.07 8.99 8.99 0 0 0-.174-.059 2.166 2.166 0 0 1-.173-.066.58.58 0 0 1-.15-.096.44.44 0 0 1-.108-.146.517.517 0 0 1-.041-.219c0-.083.015-.157.045-.223a.46.46 0 0 1 .125-.164.556.556 0 0 1 .193-.1.834.834 0 0 1 .248-.034c.089 0 .175.006.26.02.085.01.166.025.244.04v.4h-.092l-.082-.212a.338.338 0 0 0-.138-.069.725.725 0 0 0-.188-.023c-.105 0-.186.026-.242.078a.278.278 0 0 0-.082.21c0 .06.013.11.04.15.028.037.064.07.108.097a.888.888 0 0 0 .155.068l.175.06c.06.022.119.046.176.073.057.026.108.06.152.102a.466.466 0 0 1 .15.375M45.531 78.088a1.917 1.917 0 0 1 .287-.131c.055-.02.11-.035.164-.047a.66.66 0 0 1 .346.01c.059.02.109.05.15.094a.427.427 0 0 1 .1.168.744.744 0 0 1 .037.25v1.207l.223.049v.087h-.791v-.087l.244-.05v-1.171a.373.373 0 0 0-.08-.254c-.052-.063-.134-.094-.244-.094-.037 0-.075.002-.115.006l-.12.014a3.086 3.086 0 0 0-.197.037v1.463l.248.049v.087h-.793v-.087l.22-.05v-1.562l-.22-.049v-.088h.524l.017.149M47.406 78.852v.035c0 .095.007.186.02.273a.657.657 0 0 0 .082.233c.041.066.1.12.174.16a.63.63 0 0 0 .293.058 2.04 2.04 0 0 0 .377-.035 1.7 1.7 0 0 0 .11-.021v.11a.707.707 0 0 1-.108.056 1.324 1.324 0 0 1-.475.093c-.152 0-.281-.02-.387-.062a.603.603 0 0 1-.254-.186.767.767 0 0 1-.14-.304 1.826 1.826 0 0 1-.043-.418c0-.32.067-.56.2-.717.135-.158.326-.236.575-.236.098 0 .189.013.274.039a.55.55 0 0 1 .375.377c.037.103.056.23.056.384v.16h-1.129m.424-.804a.368.368 0 0 0-.19.047.375.375 0 0 0-.13.129.654.654 0 0 0-.076.205c-.016.08-.024.168-.024.267h.785a1.85 1.85 0 0 0-.017-.267.625.625 0 0 0-.059-.205.31.31 0 0 0-.111-.13.314.314 0 0 0-.178-.046M50.324 79.664a.588.588 0 0 1-.12.066 1.327 1.327 0 0 1-.486.084c-.16 0-.296-.021-.41-.064a.69.69 0 0 1-.275-.191.79.79 0 0 1-.158-.305 1.524 1.524 0 0 1-.05-.41c0-.167.02-.31.064-.43a.788.788 0 0 1 .183-.297.712.712 0 0 1 .278-.172 1.1 1.1 0 0 1 .353-.054c.106 0 .208.006.307.02.099.01.189.025.27.04v.512h-.108l-.084-.324a.875.875 0 0 0-.389-.092.513.513 0 0 0-.224.047.416.416 0 0 0-.164.142.737.737 0 0 0-.102.248c-.022.1-.033.22-.033.36 0 .117.01.223.03.318.019.094.053.174.103.24.05.067.115.118.199.155a.813.813 0 0 0 .32.054 2.366 2.366 0 0 0 .27-.017 2.157 2.157 0 0 0 .226-.047v.117M51.182 79.596a.22.22 0 0 1-.02.092.246.246 0 0 1-.049.076.219.219 0 0 1-.076.049.224.224 0 0 1-.186 0 .223.223 0 0 1-.124-.125.24.24 0 0 1 .05-.26.223.223 0 0 1 .075-.05.224.224 0 0 1 .185 0 .219.219 0 0 1 .125.125.22.22 0 0 1 .02.093"/></g><path style="marker:none" opacity=".7" color="#000" fill="#faa" overflow="visible" enable-background="accumulate" d="M18 6h1v84h-1zM77 6h1v84h-1z"/><path style="marker:none" opacity=".2" color="#000" fill="url(#t)" overflow="visible" enable-background="accumulate" d="M6 39h84v1H6z"/><path style="marker:none" opacity=".2" color="#000" fill="url(#u)" overflow="visible" enable-background="accumulate" d="M6 47h84v1H6z"/><path style="marker:none" opacity=".2" color="#000" fill="url(#v)" overflow="visible" enable-background="accumulate" d="M6 55h84v1H6z"/><path style="marker:none" opacity=".2" color="#000" fill="url(#w)" overflow="visible" enable-background="accumulate" d="M6 63h84v1H6z"/><path style="marker:none" opacity=".2" color="#000" fill="url(#x)" overflow="visible" enable-background="accumulate" d="M6 71h84v1H6z"/><path style="marker:none" opacity=".2" color="#000" fill="url(#y)" overflow="visible" enable-background="accumulate" d="M6 79h84v1H6z"/></g></svg>