<svg xmlns="http://www.w3.org/2000/svg" xmlns:xlink="http://www.w3.org/1999/xlink" version="1.0" width="96" height="96"><defs><linearGradient x1="45.448" y1="92.54" x2="45.448" y2="7.017" id="f" gradientUnits="userSpaceOnUse" gradientTransform="scale(1.00587 .99417)"><stop offset="0"/><stop offset="1" stop-opacity=".588"/></linearGradient><linearGradient id="a"><stop offset="0" stop-color="#e6e6e6"/><stop offset="1" stop-color="#f5f5f5"/></linearGradient><linearGradient x1="48" y1="90" x2="48" y2="5.988" id="m" xlink:href="#a" gradientUnits="userSpaceOnUse"/><filter color-interpolation-filters="sRGB" id="g"><feGaussianBlur stdDeviation="1.71"/></filter><linearGradient x1="45.448" y1="92.54" x2="45.448" y2="7.017" id="b" gradientUnits="userSpaceOnUse" gradientTransform="matrix(1.00587 0 0 .99417 100 0)"><stop offset="0"/><stop offset="1" stop-opacity=".588"/></linearGradient><linearGradient x1="32.251" y1="6.132" x2="32.251" y2="90.239" id="i" xlink:href="#b" gradientUnits="userSpaceOnUse" gradientTransform="matrix(1.0238 0 0 1.0119 -1.143 -98.071)"/><linearGradient x1="32.251" y1="6.132" x2="32.251" y2="90.239" id="j" xlink:href="#b" gradientUnits="userSpaceOnUse" gradientTransform="matrix(1.0238 0 0 1.0119 -1.143 -98.071)"/><linearGradient x1="32.251" y1="6.132" x2="32.251" y2="90.239" id="k" xlink:href="#b" gradientUnits="userSpaceOnUse" gradientTransform="matrix(1.0238 0 0 1.0119 -1.143 -98.071)"/><linearGradient x1="32.251" y1="6.132" x2="32.251" y2="90.239" id="l" xlink:href="#b" gradientUnits="userSpaceOnUse" gradientTransform="translate(0 -97)"/><linearGradient x1="32.251" y1="6.132" x2="32.251" y2="90.239" id="h" xlink:href="#b" gradientUnits="userSpaceOnUse" gradientTransform="matrix(1.0238 0 0 1.0119 -1.143 -98.071)"/><linearGradient id="d"><stop offset="0" stop-color="#fff"/><stop offset="1" stop-color="#fff" stop-opacity="0"/></linearGradient><radialGradient cx="48" cy="90.172" r="42" fx="48" fy="90.172" id="o" xlink:href="#c" gradientUnits="userSpaceOnUse" gradientTransform="matrix(1.15731 0 0 .9959 -7.551 .197)"/><linearGradient id="c"><stop offset="0" stop-color="#fff"/><stop offset="1" stop-color="#fff" stop-opacity="0"/></linearGradient><linearGradient x1="36.357" y1="6" x2="36.357" y2="63.893" id="n" xlink:href="#d" gradientUnits="userSpaceOnUse"/><linearGradient id="e"><stop offset="0" stop-color="#fff"/><stop offset="1" stop-color="#fff" stop-opacity="0"/></linearGradient><clipPath id="p"><rect width="84" height="84" rx="6" ry="6" x="6" y="6" fill="#fff"/></clipPath><filter x="-.192" y="-.192" width="1.384" height="1.384" color-interpolation-filters="sRGB" id="r"><feGaussianBlur stdDeviation="5.28"/></filter><linearGradient x1="48" y1="20.221" x2="48" y2="138.661" id="q" xlink:href="#e" gradientUnits="userSpaceOnUse"/></defs><g transform="scale(1 -1)"><path d="M12-95.031c-5.511 0-10.031 4.52-10.031 10.031v71C1.969-8.489 6.489-3.969 12-3.969h72c5.511 0 10.031-4.52 10.031-10.031v-71c0-5.511-4.52-10.031-10.031-10.031H12z" opacity=".08" fill="url(#h)"/><path d="M12-94.031c-4.972 0-9.031 4.06-9.031 9.031v71c0 4.972 4.06 9.031 9.031 9.031h72c4.972 0 9.031-4.06 9.031-9.031v-71c0-4.972-4.06-9.031-9.031-9.031H12z" opacity=".1" fill="url(#i)"/><path d="M12-93c-4.41 0-8 3.59-8 8v71c0 4.41 3.59 8 8 8h72c4.41 0 8-3.59 8-8v-71c0-4.41-3.59-8-8-8H12z" opacity=".2" fill="url(#j)"/><rect width="86" height="85" rx="7" ry="7" x="5" y="-92" opacity=".3" fill="url(#k)"/><rect width="84" height="84" rx="6" ry="6" x="6" y="-91" opacity=".45" fill="url(#l)"/></g><rect width="84" height="84" rx="6" ry="6" x="6" y="6" fill="url(#m)"/><path d="M12 6c-3.324 0-6 2.676-6 6v72c0 .335.041.65.094.969.048.295.097.597.187.875l.032.094c.098.287.234.547.375.812.144.274.315.536.5.781a6.105 6.105 0 0 0 2.094 1.781c.278.14.573.247.874.344a4.843 4.843 0 0 1-.719-.375c-.007-.004-.023.005-.03 0-.033-.02-.063-.042-.095-.062-.12-.077-.23-.164-.343-.25-.106-.081-.214-.161-.313-.25a5.042 5.042 0 0 1-.5-.531 5.092 5.092 0 0 1-.312-.407c-.025-.038-.039-.086-.063-.125-.065-.103-.13-.204-.187-.312a5.371 5.371 0 0 1-.282-.625c-.008-.022-.023-.04-.03-.063-.033-.092-.037-.187-.063-.281-.03-.107-.07-.203-.094-.313A5.098 5.098 0 0 1 7 85V13c0-2.782 2.218-5 5-5h72c2.782 0 5 2.218 5 5v72c0 .364-.052.721-.125 1.063a4.896 4.896 0 0 1-.156.593c-.008.022-.024.04-.031.063a5.482 5.482 0 0 1-.22.531c-.04.083-.078.17-.124.25-.055.097-.127.188-.188.281a5.092 5.092 0 0 1-.312.406 5.05 5.05 0 0 1-.469.5l-.031.032a4.818 4.818 0 0 1-.438.344c-.102.073-.204.153-.312.218-.008.005-.024-.004-.031 0a4.843 4.843 0 0 1-.72.375c.302-.097.597-.204.876-.344a6.105 6.105 0 0 0 2.094-1.78c.184-.246.355-.508.5-.782a5.69 5.69 0 0 0 .374-.813l.032-.093c.09-.278.139-.58.187-.875.053-.318.094-.634.094-.969V12c0-3.324-2.676-6-6-6H12z" opacity=".5" fill="url(#n)"/><path d="M12 90c-3.324 0-6-2.676-6-6V12c0-.335.041-.65.094-.969.048-.295.097-.597.187-.875l.032-.094a5.69 5.69 0 0 1 .375-.812c.144-.274.315-.536.5-.781a6.105 6.105 0 0 1 2.094-1.781c.278-.14.573-.247.874-.344-.256.1-.486.236-.719.375-.007.004-.023-.005-.03 0-.033.019-.063.042-.095.062-.12.077-.23.164-.343.25-.106.081-.214.161-.313.25a5.042 5.042 0 0 0-.5.532c-.107.13-.218.265-.312.406-.025.038-.039.086-.063.125-.065.103-.13.204-.187.312a5.371 5.371 0 0 0-.282.625c-.007.022-.023.04-.03.063-.033.092-.037.187-.063.281-.03.107-.07.203-.094.313A5.098 5.098 0 0 0 7 11v72c0 2.782 2.218 5 5 5h72c2.782 0 5-2.218 5-5V11c0-.364-.052-.721-.125-1.063a4.896 4.896 0 0 0-.156-.593c-.008-.022-.024-.04-.031-.063a5.482 5.482 0 0 0-.22-.531c-.04-.083-.078-.17-.124-.25-.055-.097-.127-.188-.188-.281a5.092 5.092 0 0 0-.312-.406 5.05 5.05 0 0 0-.469-.5l-.031-.032a4.818 4.818 0 0 0-.438-.343c-.102-.074-.204-.154-.312-.22-.008-.004-.024.005-.031 0a4.843 4.843 0 0 0-.72-.374c.302.097.597.204.876.343a6.105 6.105 0 0 1 2.094 1.782c.184.245.355.507.5.781.14.265.276.525.374.813l.032.093c.09.278.139.58.187.875.053.318.094.634.094.969v72c0 3.324-2.676 6-6 6H12z" opacity=".4" fill="url(#o)"/><rect width="84" height="84" rx="6" ry="6" x="-94" y="6" fill="#f0f"/><path style="marker:none" color="#000" fill="#fff" stroke="#000" stroke-width=".5" stroke-linecap="round" stroke-dashoffset="8.6" overflow="visible" enable-background="accumulate" d="M112 8h16v16h-16z"/><text x="131.393" y="11.969" style="text-align:start;line-height:125%;-inkscape-font-specification:Liberation Sans" font-size="4" font-weight="400" font-family="Liberation Sans"><tspan x="131.393" y="11.969">Width: 2px</tspan><tspan x="131.393" y="16.969">Blur: 12</tspan><tspan x="131.393" y="21.969">Opacity: 60</tspan></text><path d="M48 102c-14.36 0-26 11.64-26 26s11.64 26 26 26h42v-4H48c-12.15 0-22-9.85-22-22s9.85-22 22-22v-4zm0 6c-11.046 0-20 8.954-20 20s8.954 20 20 20h42v-4H48c-8.837 0-16-7.163-16-16s7.163-16 16-16c2.09 0 4.076.396 5.906 1.125l1.469-3.719A20.083 20.083 0 0 0 48 108zm0 6c-7.732 0-14 6.268-14 14s6.268 14 14 14h42v-4H48c-5.523 0-10-4.477-10-10s4.477-10 10-10a9.956 9.956 0 0 1 7.063 2.938l2.843-2.844A14.01 14.01 0 0 0 48 114zM48-74c-17.673 0-32 14.327-32 32 0 17.673 14.327 32 32 32h42v-6H48c-14.36 0-26-11.64-26-26s11.64-26 26-26v-6zm0 8c-13.255 0-24 10.745-24 24s10.745 24 24 24h42v-6H48c-9.941 0-18-8.059-18-18s8.059-18 18-18c2.416 0 4.708.48 6.813 1.344l2.28-5.563A23.963 23.963 0 0 0 48-66zm0 8c-8.837 0-16 7.163-16 16s7.163 16 16 16h42v-6H48c-5.523 0-10-4.477-10-10s4.477-10 10-10a9.956 9.956 0 0 1 7.063 2.938l4.25-4.25C56.312-56.313 52.242-58 48-58z" style="marker:none" opacity=".5" color="#000" fill="#4ca31c" overflow="visible" enable-background="accumulate"/><g><rect width="66" height="66" rx="12" ry="12" x="15" y="15" clip-path="url(#p)" opacity=".5" fill="url(#q)" stroke="#fff" stroke-width=".5" stroke-linecap="round" filter="url(#r)"/></g><g color="#000"><path d="M48 16c-17.673 0-32 14.327-32 32 0 17.673 14.327 32 32 32h42v-6H48c-14.36 0-26-11.64-26-26s11.64-26 26-26v-6z" style="marker:none" opacity=".5" fill="#4ca31c" overflow="visible" enable-background="accumulate"/><path d="M48 24c-13.255 0-24 10.745-24 24s10.745 24 24 24h42v-6H48c-9.941 0-18-8.059-18-18s8.059-18 18-18c2.416 0 4.708.48 6.813 1.344l2.28-5.563A23.963 23.963 0 0 0 48 24z" style="marker:none" opacity=".75" fill="#4ca31c" overflow="visible" enable-background="accumulate"/><path d="M48 32c-8.837 0-16 7.163-16 16s7.163 16 16 16h42v-6H48c-5.523 0-10-4.477-10-10s4.477-10 10-10a9.956 9.956 0 0 1 7.063 2.938l4.25-4.25C56.312 33.687 52.242 32 48 32z" style="marker:none" fill="#4ca31c" overflow="visible" enable-background="accumulate"/><path d="M48 16c-17.673 0-32 14.327-32 32 0 17.673 14.327 32 32 32h42v-1h-.969v.031H48c-17.154 0-31.031-13.877-31.031-31.031 0-16.822 13.368-30.414 30.062-30.938v4.063c-14.42.521-26 12.328-26 26.875 0 14.878 12.09 26.969 26.969 26.969h41.031V75H90v-1H48c-14.36 0-26-11.64-26-26s11.64-26 26-26v-6zm0 8c-13.255 0-24 10.745-24 24s10.745 24 24 24h42v-1h-.969v.031H48c-12.736 0-23.031-10.295-23.031-23.031 0-12.736 10.295-23.031 23.031-23.031 2.68 0 5.301.498 7.813 1.406l-1.563 3.813c-1.963-.691-4.05-1.157-6.25-1.157-10.46 0-18.969 8.509-18.969 18.969S37.54 66.969 48 66.969h41.031V67H90v-1H48c-9.941 0-18-8.059-18-18s8.059-18 18-18c2.416 0 4.708.48 6.813 1.344l2.28-5.563A23.963 23.963 0 0 0 48 24zm0 8c-8.837 0-16 7.163-16 16s7.163 16 16 16h42v-1h-.969v.031H48A15.01 15.01 0 0 1 32.969 48 15.01 15.01 0 0 1 48 32.969c3.66 0 7.14 1.383 9.875 3.781l-2.938 2.938C53.038 38.099 50.669 37.03 48 37.03c-6.042 0-10.969 4.927-10.969 10.969S41.958 58.969 48 58.969h41.031V59H90v-1H48c-5.523 0-10-4.477-10-10s4.477-10 10-10a9.956 9.956 0 0 1 7.063 2.938l4.25-4.25C56.312 33.687 52.242 32 48 32z" style="marker:none" opacity=".15" fill="#2c5e10" overflow="visible" enable-background="accumulate"/><path d="M48 16c-17.673 0-32 14.327-32 32 0 .167-.003.334 0 .5C16.267 31.057 30.494 17 48 17v-1zm0 8c-13.255 0-24 10.745-24 24 0 .166-.003.335 0 .5C24.264 35.474 34.91 25 48 25c2.998 0 5.96.564 8.75 1.656l.344-.875A23.963 23.963 0 0 0 48 24zm0 8c-8.837 0-16 7.163-16 16 0 .17.026.331.031.5C32.3 39.899 39.333 33 48 33c4.008 0 7.838 1.524 10.781 4.219l.532-.532C56.312 33.688 52.242 32 48 32zM22 48.5c-.003.166 0 .333 0 .5 0 14.36 11.64 26 26 26h42v-1H48c-14.193 0-25.734-11.371-26-25.5zm8.031 0c-.004.167-.031.331-.031.5 0 9.941 8.059 18 18 18h42v-1H48c-9.773 0-17.702-7.792-17.969-17.5zm8 0c-.008.165-.031.333-.031.5 0 5.523 4.477 10 10 10h42v-1H48c-5.355 0-9.709-4.209-9.969-9.5z" style="marker:none" opacity=".2" fill="#2b5c10" overflow="visible" enable-background="accumulate"/><path d="M48 22c-14.36 0-26 11.64-26 26 0 .167-.003.334 0 .5C22.266 34.371 33.807 23 48 23v-1zm8.75 4.656l-1.938 4.688A17.89 17.89 0 0 0 48 30c-9.941 0-18 8.059-18 18 0 .169.027.333.031.5C30.298 38.792 38.227 31 48 31c2.416 0 4.708.48 6.813 1.344l2.28-5.563c-.112-.046-.23-.08-.343-.125zm2.031 10.563l-3.718 3.718A9.956 9.956 0 0 0 48 38c-5.523 0-10 4.477-10 10 0 .167.023.335.031.5.26-5.291 4.614-9.5 9.969-9.5a9.956 9.956 0 0 1 7.063 2.938l4.25-4.25c-.167-.167-.359-.31-.532-.47zM16 48.5c-.003.166 0 .333 0 .5 0 17.673 14.327 32 32 32h42v-1H48c-17.506 0-31.733-14.057-32-31.5zm8 0c-.003.165 0 .334 0 .5 0 13.255 10.745 24 24 24h42v-1H48c-13.09 0-23.736-10.474-24-23.5zm8.031 0c-.005.169-.031.33-.031.5 0 8.837 7.163 16 16 16h42v-1H48c-8.667 0-15.7-6.899-15.969-15.5z" style="marker:none" opacity=".6" fill="#fff" overflow="visible" enable-background="accumulate"/></g></svg>